<svg xmlns:xlink="http://www.w3.org/1999/xlink" width="10.83" xmlns="http://www.w3.org/2000/svg" height="26.027" id="screenshot-316d8937-66ad-809d-8002-c0fccbe1cf9f" viewBox="1231.704 1009.049 10.83 26.027" style="-webkit-print-color-adjust: exact;" fill="none" version="1.1"><g id="shape-316d8937-66ad-809d-8002-c0fccbe1cf9f"><g class="fills" id="fills-316d8937-66ad-809d-8002-c0fccbe1cf9f"><path rx="0" ry="0" d="M1241.742,1035.076C1241.566,1035.076,1241.213,1035.076,1241.037,1034.876L1232.937,1025.702C1232.056,1024.705,1231.704,1023.508,1231.704,1022.112C1231.704,1020.716,1232.232,1019.520,1232.937,1018.522L1241.037,1009.348C1241.390,1008.949,1241.918,1008.949,1242.270,1009.348C1242.622,1009.747,1242.622,1010.345,1242.270,1010.744L1234.170,1019.918C1233.113,1021.115,1233.113,1022.910,1234.170,1024.107L1242.270,1033.281C1242.622,1033.680,1242.622,1034.278,1242.270,1034.677C1242.270,1035.076,1241.918,1035.076,1241.742,1035.076ZZ" style="fill: rgb(177, 178, 181); fill-opacity: 1;"/></g></g></svg>