<svg xmlns:xlink="http://www.w3.org/1999/xlink" width="170.7" xmlns="http://www.w3.org/2000/svg" height="152.6" id="screenshot-a69a3d53-f19f-809b-8002-c35a464932d6" viewBox="-28 0 170.7 152.6" style="-webkit-print-color-adjust: exact;" fill="none" version="1.1"><g xmlns:xlink="http://www.w3.org/1999/xlink" xml:space="preserve" x="0px" id="shape-a69a3d53-f19f-809b-8002-c35a464932d6" style="fill: rgb(0, 0, 0);" ry="0" rx="0" y="0px" version="1.1"><g id="shape-a69a3d53-f19f-809b-8002-c35a4649ce7c"><style type="text/css" rx="0" ry="0" style="fill: rgb(42, 178, 11); fill-opacity: 1;">.st0{fill:#66CC00;}</style></g><g id="shape-a69a3d53-f19f-809b-8002-c35a464a2f31" rx="0" ry="0" style="fill: rgb(0, 0, 0);"><g id="shape-a69a3d53-f19f-809b-8002-c35a464c61a7"><g class="fills" id="fills-a69a3d53-f19f-809b-8002-c35a464c61a7"><path class="st0" rx="0" ry="0" d="M133.700,72.700L104.600,24.800C104.300,24.300,103.700,24.100,103.200,24.200L53.300,37.700C53.600,36.200,53.800,34.600,53.800,33.000C53.800,21.000,44.100,11.300,32.100,11.300C20.100,11.300,10.400,21.000,10.400,33.000C10.400,41.100,14.800,48.100,21.400,51.900L12.200,57.000C11.800,57.200,11.500,57.700,11.600,58.100C11.600,58.600,11.900,59.000,12.300,59.200L15.200,60.600L15.000,105.700C15.000,106.200,15.200,106.600,15.600,106.800L65.000,134.800C65.200,134.900,65.400,135.000,65.600,135.000C65.700,135.000,65.900,135.000,66.000,134.900L66.000,134.900L125.800,115.200C126.300,115.000,126.600,114.600,126.700,114.000L127.500,76.100L133.100,74.500C133.500,74.400,133.800,74.100,133.900,73.800C134.000,73.400,133.900,73.000,133.700,72.700ZZM13.000,33.100C13.000,22.500,21.600,13.900,32.200,13.900C42.800,13.900,51.400,22.500,51.400,33.100C51.400,43.700,42.800,52.300,32.200,52.300C21.600,52.300,13.000,43.600,13.000,33.100ZZM64.400,131.600L17.500,105.000L17.600,59.900C17.600,59.400,17.300,59.000,16.900,58.800L15.500,58.000L24.200,53.200C26.700,54.200,29.300,54.700,32.100,54.700C37.100,54.700,41.600,53.000,45.300,50.200L67.200,88.000L66.800,87.800C66.400,87.600,66.000,87.700,65.600,87.900C65.200,88.100,65.000,88.500,65.000,88.900L64.400,131.600ZZM124.200,113.100L66.900,132.000L67.600,90.800L69.900,91.800L69.900,91.800C70.000,92.000,70.100,92.000,70.300,92.000C70.400,92.000,70.500,92.000,70.600,92.000L124.800,76.800L124.200,113.100ZZM70.900,89.300L47.200,48.600C47.900,47.900,48.500,47.300,49.100,46.500L70.700,82.700L124.500,68.000L101.700,30.600L50.100,45.200C51.100,43.800,51.900,42.200,52.500,40.600L103.000,26.900L130.800,72.600L70.900,89.300ZZM83.200,59.100L91.200,56.900L95.100,63.500L87.100,65.700L83.200,59.100ZZM84.700,66.300L76.400,68.600L72.500,62.000L80.800,59.700L84.700,66.300ZZM93.700,56.100L101.900,53.800L105.800,60.400L97.600,62.700L93.700,56.100ZZM92.400,53.900L87.900,46.400L96.100,44.100L100.600,51.600L92.400,53.900ZZM89.900,54.600L81.900,56.800L77.400,49.300L85.400,47.100L89.900,54.600ZZM79.400,57.600L71.100,59.900L66.600,52.400L74.900,50.100L79.400,57.600ZZM68.600,60.600L61.600,62.600L57.100,55.000L64.100,53.000L68.600,60.600ZZM70.000,62.800L73.900,69.400L66.900,71.400L63.000,64.800L70.000,62.800ZZM75.200,71.600L79.000,77.900L71.900,79.800L68.200,73.600L75.200,71.600ZZM81.500,77.200L77.700,70.900L86.000,68.600L89.800,74.900L81.500,77.200ZZM92.300,74.200L88.500,67.900L96.500,65.700L100.300,72.100L92.300,74.200ZZM102.800,71.300L99.000,64.900L107.200,62.600L111.100,69.000L102.800,71.300ZZM113.600,68.400L109.700,62.000L116.600,60.100L120.500,66.600L113.600,68.400ZZM108.400,59.700L104.500,53.100L111.400,51.200L115.400,57.700L108.400,59.700ZZM103.100,50.900L98.600,43.400L105.400,41.500L110.000,49.000L103.100,50.900ZZM97.300,41.200L93.800,35.400L100.500,33.500L104.000,39.300L97.300,41.200ZZM91.400,36.100L94.900,41.900L86.700,44.200L83.200,38.400L91.400,36.100ZZM80.600,39.200L84.100,45.000L76.100,47.200L72.700,41.500L80.600,39.200ZZM70.100,42.100L73.500,47.800L65.200,50.100L61.800,44.400L70.100,42.100ZZM59.400,45.100L62.800,50.800L55.800,52.800L52.400,47.100L59.400,45.100ZZ" style="fill: rgb(42, 178, 11); fill-opacity: 1;"/></g></g><g id="shape-a69a3d53-f19f-809b-8002-c35a464d4373"><g class="fills" id="fills-a69a3d53-f19f-809b-8002-c35a464d4373"><path class="st0" rx="0" ry="0" d="M32.700,47.400C33.100,47.400,33.400,47.100,33.500,46.700L35.800,36.100L46.400,33.800C46.800,33.700,47.100,33.400,47.100,33.000C47.100,32.600,46.800,32.300,46.400,32.200L35.800,30.000L33.500,19.400C33.400,19.000,33.100,18.700,32.700,18.700C32.300,18.700,32.000,19.000,31.900,19.400L29.600,30.000L19.000,32.200C18.600,32.300,18.300,32.600,18.300,33.000C18.300,33.400,18.600,33.700,19.000,33.800L29.600,36.100L31.900,46.700C32.000,47.100,32.300,47.400,32.700,47.400ZZM32.700,42.600L31.200,35.700L32.700,34.300L34.200,35.800L32.700,42.600ZZM42.200,33.100L35.300,34.600L33.800,33.100L35.300,31.600L42.200,33.100ZZM32.700,23.500L34.200,30.400L32.700,31.900L31.200,30.400L32.700,23.500ZZM23.200,33.100L30.100,31.600L31.600,33.100L30.000,34.500L23.200,33.100ZZ" style="fill: rgb(42, 178, 11); fill-opacity: 1;"/></g></g><g id="shape-a69a3d53-f19f-809b-8002-c35a464d9095"><g class="fills" id="fills-a69a3d53-f19f-809b-8002-c35a464d9095"><path class="st0" rx="0" ry="0" d="M32.200,17.000C32.200,16.600,32.100,16.200,32.100,15.900L32.100,15.900L32.400,16.600L33.200,18.200L34.000,18.200L34.000,15.000L33.300,15.000L33.300,16.100C33.300,16.500,33.400,16.900,33.400,17.200L33.400,17.200L33.100,16.500L32.300,15.000L31.600,15.000L31.600,18.100L32.300,18.100L32.200,17.000ZZ" style="fill: rgb(42, 178, 11); fill-opacity: 1;"/></g></g><g id="shape-a69a3d53-f19f-809b-8002-c35a464dc650"><g class="fills" id="fills-a69a3d53-f19f-809b-8002-c35a464dc650"><path class="st0" rx="0" ry="0" d="M32.600,50.500C32.300,50.500,32.100,50.400,31.800,50.200L31.400,50.700C31.700,51.000,32.100,51.100,32.500,51.100C33.200,51.100,33.700,50.700,33.700,50.100C33.700,49.700,33.500,49.400,33.100,49.300L32.700,49.100C32.400,49.000,32.200,48.900,32.200,48.700C32.200,48.500,32.400,48.400,32.600,48.400C32.800,48.400,33.000,48.500,33.200,48.600L33.600,48.200C33.300,47.900,33.000,47.800,32.600,47.800C32.000,47.800,31.500,48.200,31.500,48.700C31.500,49.200,31.800,49.400,32.100,49.500L32.500,49.700C32.800,50.000,33.000,50.000,33.000,50.200C33.000,50.400,32.800,50.500,32.600,50.500ZZ" style="fill: rgb(42, 178, 11); fill-opacity: 1;"/></g></g><g id="shape-a69a3d53-f19f-809b-8002-c35a464e45d4"><g class="fills" id="fills-a69a3d53-f19f-809b-8002-c35a464e45d4"><path class="st0" rx="0" ry="0" d="M49.500,33.800L48.200,33.800L48.200,33.100L49.300,33.100L49.300,32.500L48.200,32.500L48.200,31.900L49.500,31.900L49.500,31.300L47.500,31.300L47.500,34.400L49.500,34.400Z" style="fill: rgb(42, 178, 11); fill-opacity: 1;"/></g></g><g id="shape-a69a3d53-f19f-809b-8002-c35a464efbd1"><g class="fills" id="fills-a69a3d53-f19f-809b-8002-c35a464efbd1"><path class="st0" rx="0" ry="0" d="M17.400,32.800C17.400,33.100,17.300,33.400,17.300,33.800L17.300,33.800C17.200,33.500,17.200,33.100,17.100,32.800L16.800,31.300L16.200,31.300L15.900,32.800C15.800,33.100,15.800,33.500,15.700,33.800L15.700,33.800C15.700,33.500,15.600,33.100,15.600,32.800L15.400,31.300L14.700,31.300L15.300,34.400L16.000,34.400L16.300,33.000C16.400,32.800,16.400,32.500,16.400,32.300L16.400,32.300C16.400,32.500,16.500,32.800,16.500,33.000L16.800,34.400L17.700,34.400L18.300,31.300L17.600,31.300L17.400,32.800ZZ" style="fill: rgb(42, 178, 11); fill-opacity: 1;"/></g></g><g id="shape-a69a3d53-f19f-809b-8002-c35a464f017d"><g class="fills" id="fills-a69a3d53-f19f-809b-8002-c35a464f017d"><path class="st0" rx="0" ry="0" d="M28.900,81.200L31.400,82.500L31.400,75.900L28.900,74.700Z" style="fill: rgb(42, 178, 11); fill-opacity: 1;"/></g></g><g id="shape-a69a3d53-f19f-809b-8002-c35a464f017e"><g class="fills" id="fills-a69a3d53-f19f-809b-8002-c35a464f017e"><path class="st0" rx="0" ry="0" d="M45.400,87.800L47.900,89.000L47.900,82.500L45.400,81.200Z" style="fill: rgb(42, 178, 11); fill-opacity: 1;"/></g></g></g></g></svg>