<svg xmlns:xlink="http://www.w3.org/1999/xlink" width="360" xmlns="http://www.w3.org/2000/svg" height="398.9" id="screenshot-316d8937-66ad-809d-8002-c11874896264" viewBox="0 0 360 398.9" style="-webkit-print-color-adjust: exact;" fill="none" version="1.1"><g xmlns:xlink="http://www.w3.org/1999/xlink" xml:space="preserve" x="0px" id="shape-316d8937-66ad-809d-8002-c11874896264" style="fill: rgb(0, 0, 0);" ry="0" rx="0" y="0px" version="1.1"><g id="shape-316d8937-66ad-809d-8002-c118748afdcc"><style type="text/css" rx="0" ry="0" style="fill: rgb(0, 0, 0);">.st0{fill:#004B00;}</style></g><g id="shape-316d8937-66ad-809d-8002-c118748bf5cc" rx="0" ry="0" style="fill: rgb(0, 0, 0);"><g id="shape-316d8937-66ad-809d-8002-c118748dbece"><g class="fills" id="fills-316d8937-66ad-809d-8002-c118748dbece"><path class="st0" rx="0" ry="0" d="M54.990,107.737L57.037,105.690C49.237,97.695,48.165,89.310,54.210,83.265C56.453,81.120,60.060,80.145,63.960,80.633C68.640,81.218,73.027,83.850,75.270,87.458L75.953,88.530L77.122,88.043C80.438,86.678,83.362,86.580,85.800,87.653C87.945,88.725,89.505,90.773,90.285,93.795L90.772,95.453L92.332,94.770C94.867,93.698,97.890,94.283,100.425,96.330C102.570,98.085,104.520,101.303,104.227,105.203C104.130,105.105,103.935,105.008,103.837,105.008C101.497,103.838,98.572,103.740,95.550,104.813C93.112,101.595,89.212,99.450,84.922,98.963C80.828,98.475,77.122,99.548,74.587,101.888C68.445,108.030,69.322,116.610,76.928,124.312L78.975,122.265C72.540,115.732,71.662,108.908,76.635,104.033C78.487,102.278,81.315,101.498,84.533,101.888C88.335,102.375,91.942,104.520,93.795,107.445L94.477,108.517L95.647,108.030C98.280,106.958,100.717,106.763,102.667,107.737C104.422,108.615,105.592,110.272,106.275,112.710L106.762,114.367L108.322,113.685C110.370,112.807,112.807,113.295,114.757,114.952C116.707,116.610,118.462,119.730,117.585,123.435L120.412,124.117C121.387,119.925,119.925,115.537,116.610,112.710C114.172,110.662,111.345,109.882,108.615,110.467C108.225,109.395,107.640,108.420,106.957,107.543C108.128,102.668,106.372,97.500,102.472,94.185C99.547,91.748,96.135,90.870,92.917,91.650C91.747,88.628,89.895,86.385,87.360,85.118C84.533,83.753,81.120,83.655,77.415,84.923C74.587,81.120,69.908,78.488,64.642,77.805C59.865,77.220,55.380,78.488,52.455,81.315C44.947,88.433,46.020,98.573,54.990,107.737ZZ"/></g></g><g id="shape-316d8937-66ad-809d-8002-c118748e8003"><g class="fills" id="fills-316d8937-66ad-809d-8002-c118748e8003"><rect class="st0" rx="0" ry="0" x="65.90999999999985" y="23.69250000000011" transform="matrix(1.000000, 0.000000, 0.000000, 1.000000, 0.000000, 0.000000)" width="8.775000000000091" height="1.9500000000000455"/></g></g><g id="shape-316d8937-66ad-809d-8002-c118748f2f48"><g class="fills" id="fills-316d8937-66ad-809d-8002-c118748f2f48"><rect class="st0" rx="0" ry="0" x="79.55999999999995" y="23.69250000000011" transform="matrix(1.000000, 0.000000, 0.000000, 1.000000, 0.000000, 0.000000)" width="8.774999999999864" height="1.9500000000000455"/></g></g><g id="shape-316d8937-66ad-809d-8002-c118748f9743"><g class="fills" id="fills-316d8937-66ad-809d-8002-c118748f9743"><rect class="st0" rx="0" ry="0" x="160.19249999999988" y="310.53750000000036" transform="matrix(1.000000, 0.000000, 0.000000, 1.000000, 0.000000, 0.000000)" width="8.775000000000091" height="1.9500000000000455"/></g></g><g id="shape-316d8937-66ad-809d-8002-c1187490194d"><g class="fills" id="fills-316d8937-66ad-809d-8002-c1187490194d"><rect class="st0" rx="0" ry="0" x="78.29249999999979" y="310.53750000000036" transform="matrix(1.000000, 0.000000, 0.000000, 1.000000, 0.000000, 0.000000)" width="8.775000000000091" height="1.9500000000000455"/></g></g><g id="shape-316d8937-66ad-809d-8002-c11874909055"><g class="fills" id="fills-316d8937-66ad-809d-8002-c11874909055"><rect class="st0" rx="0" ry="0" x="64.64249999999993" y="310.53750000000036" transform="matrix(1.000000, 0.000000, 0.000000, 1.000000, 0.000000, 0.000000)" width="8.774999999999864" height="1.9500000000000455"/></g></g><g id="shape-316d8937-66ad-809d-8002-c1187491186e"><g class="fills" id="fills-316d8937-66ad-809d-8002-c1187491186e"><path class="st0" rx="0" ry="0" d="M35.880,33.053L34.710,31.493C32.272,33.247,30.030,35.197,27.983,37.440L29.445,38.708C31.395,36.563,33.540,34.710,35.880,33.053ZZ"/></g></g><g id="shape-316d8937-66ad-809d-8002-c1187491efe7"><g class="fills" id="fills-316d8937-66ad-809d-8002-c1187491efe7"><path class="st0" rx="0" ry="0" d="M37.928,306.735C40.560,308.295,43.290,309.465,46.117,310.440L46.703,308.588C43.972,307.710,41.340,306.540,38.902,305.078L37.928,306.735ZZ"/></g></g><g id="shape-316d8937-66ad-809d-8002-c118749270c1"><g class="fills" id="fills-316d8937-66ad-809d-8002-c118749270c1"><path class="st0" rx="0" ry="0" d="M51.285,309.758L50.895,311.708C53.625,312.195,56.355,312.488,59.182,312.488L59.865,312.488L59.865,310.538L59.182,310.538C56.453,310.538,53.820,310.342,51.285,309.758ZZ"/></g></g><g id="shape-316d8937-66ad-809d-8002-c11874933a4a"><g class="fills" id="fills-316d8937-66ad-809d-8002-c11874933a4a"><path class="st0" rx="0" ry="0" d="M47.775,27.203L47.190,25.350C44.362,26.228,41.535,27.398,38.902,28.763L39.878,30.518C42.412,29.153,45.045,28.080,47.775,27.203ZZ"/></g></g><g id="shape-316d8937-66ad-809d-8002-c1187493ba76"><g class="fills" id="fills-316d8937-66ad-809d-8002-c1187493ba76"><rect class="st0" rx="0" ry="0" x="120.50999999999976" y="23.69250000000011" transform="matrix(1.000000, 0.000000, 0.000000, 1.000000, 0.000000, 0.000000)" width="8.775000000000091" height="1.9500000000000455"/></g></g><g id="shape-316d8937-66ad-809d-8002-c118749444d5"><g class="fills" id="fills-316d8937-66ad-809d-8002-c118749444d5"><rect class="st0" rx="0" ry="0" x="134.15999999999985" y="23.69250000000011" transform="matrix(1.000000, 0.000000, 0.000000, 1.000000, 0.000000, 0.000000)" width="8.775000000000091" height="1.9500000000000455"/></g></g><g id="shape-316d8937-66ad-809d-8002-c1187494f1b2"><g class="fills" id="fills-316d8937-66ad-809d-8002-c1187494f1b2"><rect class="st0" rx="0" ry="0" x="132.89249999999993" y="310.53750000000036" transform="matrix(1.000000, 0.000000, 0.000000, 1.000000, 0.000000, 0.000000)" width="8.774999999999864" height="1.9500000000000455"/></g></g><g id="shape-316d8937-66ad-809d-8002-c1187495825a"><g class="fills" id="fills-316d8937-66ad-809d-8002-c1187495825a"><rect class="st0" rx="0" ry="0" x="146.5424999999998" y="310.53750000000036" transform="matrix(1.000000, 0.000000, 0.000000, 1.000000, 0.000000, 0.000000)" width="8.775000000000091" height="1.9500000000000455"/></g></g><g id="shape-316d8937-66ad-809d-8002-c11874962805"><g class="fills" id="fills-316d8937-66ad-809d-8002-c11874962805"><path class="st0" rx="0" ry="0" d="M28.665,296.595L27.203,297.863C29.152,300.105,31.395,302.153,33.735,304.005L34.905,302.445C32.662,300.690,30.517,298.740,28.665,296.595ZZ"/></g></g><g id="shape-316d8937-66ad-809d-8002-c1187496ce7c"><g class="fills" id="fills-316d8937-66ad-809d-8002-c1187496ce7c"><rect class="st0" rx="0" ry="0" x="147.80999999999995" y="23.69250000000011" transform="matrix(1.000000, 0.000000, 0.000000, 1.000000, 0.000000, 0.000000)" width="8.774999999999864" height="1.9500000000000455"/></g></g><g id="shape-316d8937-66ad-809d-8002-c1187497755d"><g class="fills" id="fills-316d8937-66ad-809d-8002-c1187497755d"><rect class="st0" rx="0" ry="0" x="105.5925000000002" y="310.53750000000036" transform="matrix(1.000000, 0.000000, 0.000000, 1.000000, 0.000000, 0.000000)" width="8.774999999999864" height="1.9500000000000455"/></g></g><g id="shape-316d8937-66ad-809d-8002-c1187497df1a"><g class="fills" id="fills-316d8937-66ad-809d-8002-c1187497df1a"><rect class="st0" rx="0" ry="0" x="93.20999999999981" y="23.69250000000011" transform="matrix(1.000000, 0.000000, 0.000000, 1.000000, 0.000000, 0.000000)" width="8.775000000000091" height="1.9500000000000455"/></g></g><g id="shape-316d8937-66ad-809d-8002-c11874987bbf"><g class="fills" id="fills-316d8937-66ad-809d-8002-c11874987bbf"><rect class="st0" rx="0" ry="0" x="91.94249999999988" y="310.53750000000036" transform="matrix(1.000000, 0.000000, 0.000000, 1.000000, 0.000000, 0.000000)" width="8.775000000000091" height="1.9500000000000455"/></g></g><g id="shape-316d8937-66ad-809d-8002-c11874992ca6"><g class="fills" id="fills-316d8937-66ad-809d-8002-c11874992ca6"><rect class="st0" rx="0" ry="0" x="106.86000000000013" y="23.69250000000011" transform="matrix(1.000000, 0.000000, 0.000000, 1.000000, 0.000000, 0.000000)" width="8.774999999999864" height="1.9500000000000455"/></g></g><g id="shape-316d8937-66ad-809d-8002-c11874999ddb"><g class="fills" id="fills-316d8937-66ad-809d-8002-c11874999ddb"><rect class="st0" rx="0" ry="0" x="119.24249999999984" y="310.53750000000036" transform="matrix(1.000000, 0.000000, 0.000000, 1.000000, 0.000000, 0.000000)" width="8.775000000000091" height="1.9500000000000455"/></g></g><g id="shape-316d8937-66ad-809d-8002-c118749a6f7d"><g class="fills" id="fills-316d8937-66ad-809d-8002-c118749a6f7d"><path class="st0" rx="0" ry="0" d="M59.182,25.643L61.035,25.643L61.035,23.693L59.182,23.693C56.842,23.693,54.503,23.888,52.162,24.278L52.455,26.228C54.600,25.838,56.842,25.643,59.182,25.643ZZ"/></g></g><g id="shape-316d8937-66ad-809d-8002-c118749ae87d"><g class="fills" id="fills-316d8937-66ad-809d-8002-c118749ae87d"><rect class="st0" rx="0" ry="0" x="17.0625" y="122.16749999999979" transform="matrix(1.000000, 0.000000, 0.000000, 1.000000, 0.000000, 0.000000)" width="1.949999999999818" height="8.775000000000091"/></g></g><g id="shape-316d8937-66ad-809d-8002-c118749b7391"><g class="fills" id="fills-316d8937-66ad-809d-8002-c118749b7391"><rect class="st0" rx="0" ry="0" x="17.0625" y="108.51750000000015" transform="matrix(1.000000, 0.000000, 0.000000, 1.000000, 0.000000, 0.000000)" width="1.949999999999818" height="8.774999999999864"/></g></g><g id="shape-316d8937-66ad-809d-8002-c118749bfc05"><g class="fills" id="fills-316d8937-66ad-809d-8002-c118749bfc05"><rect class="st0" rx="0" ry="0" x="17.0625" y="94.86750000000029" transform="matrix(1.000000, 0.000000, 0.000000, 1.000000, 0.000000, 0.000000)" width="1.949999999999818" height="8.775000000000091"/></g></g><g id="shape-316d8937-66ad-809d-8002-c118749c5633"><g class="fills" id="fills-316d8937-66ad-809d-8002-c118749c5633"><rect class="st0" rx="0" ry="0" x="17.0625" y="135.81749999999988" transform="matrix(1.000000, 0.000000, 0.000000, 1.000000, 0.000000, 0.000000)" width="1.949999999999818" height="8.774999999999864"/></g></g><g id="shape-316d8937-66ad-809d-8002-c118749cd3b0"><g class="fills" id="fills-316d8937-66ad-809d-8002-c118749cd3b0"><rect class="st0" rx="0" ry="0" x="17.0625" y="149.46749999999975" transform="matrix(1.000000, 0.000000, 0.000000, 1.000000, 0.000000, 0.000000)" width="1.949999999999818" height="8.775000000000091"/></g></g><g id="shape-316d8937-66ad-809d-8002-c118749d8c3e"><g class="fills" id="fills-316d8937-66ad-809d-8002-c118749d8c3e"><path class="st0" rx="0" ry="0" d="M26.520,42.413L24.960,41.243C23.205,43.680,21.742,46.313,20.572,49.043L22.328,49.822C23.400,47.190,24.862,44.753,26.520,42.413ZZ"/></g></g><g id="shape-316d8937-66ad-809d-8002-c118749e17d5"><g class="fills" id="fills-316d8937-66ad-809d-8002-c118749e17d5"><rect class="st0" rx="0" ry="0" x="17.0625" y="163.11749999999984" transform="matrix(1.000000, 0.000000, 0.000000, 1.000000, 0.000000, 0.000000)" width="1.949999999999818" height="8.775000000000091"/></g></g><g id="shape-316d8937-66ad-809d-8002-c118749e8416"><g class="fills" id="fills-316d8937-66ad-809d-8002-c118749e8416"><path class="st0" rx="0" ry="0" d="M20.670,54.308L18.817,53.723C17.940,56.550,17.453,59.572,17.257,62.497L19.207,62.595C19.305,59.865,19.890,57.038,20.670,54.308ZZ"/></g></g><g id="shape-316d8937-66ad-809d-8002-c118749f05dc"><g class="fills" id="fills-316d8937-66ad-809d-8002-c118749f05dc"><path class="st0" rx="0" ry="0" d="M332.962,56.842C332.378,53.918,331.402,51.090,330.135,48.360L328.380,49.140C329.550,51.773,330.428,54.503,331.110,57.233L332.962,56.842ZZ"/></g></g><g id="shape-316d8937-66ad-809d-8002-c118749fdf66"><g class="fills" id="fills-316d8937-66ad-809d-8002-c118749fdf66"><rect class="st0" rx="0" ry="0" x="17.0625" y="67.56750000000011" transform="matrix(1.000000, 0.000000, 0.000000, 1.000000, 0.000000, 0.000000)" width="1.949999999999818" height="8.774999999999864"/></g></g><g id="shape-316d8937-66ad-809d-8002-c11874a01bbf"><g class="fills" id="fills-316d8937-66ad-809d-8002-c11874a01bbf"><rect class="st0" rx="0" ry="0" x="17.0625" y="81.2175000000002" transform="matrix(1.000000, 0.000000, 0.000000, 1.000000, 0.000000, 0.000000)" width="1.949999999999818" height="8.775000000000091"/></g></g><g id="shape-316d8937-66ad-809d-8002-c11874a084db"><g class="fills" id="fills-316d8937-66ad-809d-8002-c11874a084db"><rect class="st0" rx="0" ry="0" x="17.0625" y="245.01750000000015" transform="matrix(1.000000, 0.000000, 0.000000, 1.000000, 0.000000, 0.000000)" width="1.949999999999818" height="8.775000000000091"/></g></g><g id="shape-316d8937-66ad-809d-8002-c11874a136aa"><g class="fills" id="fills-316d8937-66ad-809d-8002-c11874a136aa"><rect class="st0" rx="0" ry="0" x="17.0625" y="176.76750000000015" transform="matrix(1.000000, 0.000000, 0.000000, 1.000000, 0.000000, 0.000000)" width="1.949999999999818" height="8.774999999999864"/></g></g><g id="shape-316d8937-66ad-809d-8002-c11874a19ff9"><g class="fills" id="fills-316d8937-66ad-809d-8002-c11874a19ff9"><path class="st0" rx="0" ry="0" d="M19.012,272.220L17.063,272.318C17.160,275.340,17.647,278.265,18.428,281.190L20.280,280.703C19.597,277.973,19.207,275.145,19.012,272.220ZZ"/></g></g><g id="shape-316d8937-66ad-809d-8002-c11874a23332"><g class="fills" id="fills-316d8937-66ad-809d-8002-c11874a23332"><path class="st0" rx="0" ry="0" d="M19.987,285.967C21.060,288.697,22.522,291.428,24.180,293.865L25.837,292.793C24.277,290.453,22.912,287.918,21.840,285.188L19.987,285.967ZZ"/></g></g><g id="shape-316d8937-66ad-809d-8002-c11874a2b00f"><g class="fills" id="fills-316d8937-66ad-809d-8002-c11874a2b00f"><rect class="st0" rx="0" ry="0" x="17.0625" y="258.6675" transform="matrix(1.000000, 0.000000, 0.000000, 1.000000, 0.000000, 0.000000)" width="1.949999999999818" height="8.775000000000091"/></g></g><g id="shape-316d8937-66ad-809d-8002-c11874a323c8"><g class="fills" id="fills-316d8937-66ad-809d-8002-c11874a323c8"><rect class="st0" rx="0" ry="0" x="17.0625" y="204.06749999999988" transform="matrix(1.000000, 0.000000, 0.000000, 1.000000, 0.000000, 0.000000)" width="1.949999999999818" height="8.774999999999864"/></g></g><g id="shape-316d8937-66ad-809d-8002-c11874a386bf"><g class="fills" id="fills-316d8937-66ad-809d-8002-c11874a386bf"><rect class="st0" rx="0" ry="0" x="17.0625" y="190.4174999999998" transform="matrix(1.000000, 0.000000, 0.000000, 1.000000, 0.000000, 0.000000)" width="1.949999999999818" height="8.775000000000091"/></g></g><g id="shape-316d8937-66ad-809d-8002-c11874a3f200"><g class="fills" id="fills-316d8937-66ad-809d-8002-c11874a3f200"><rect class="st0" rx="0" ry="0" x="17.0625" y="231.36749999999984" transform="matrix(1.000000, 0.000000, 0.000000, 1.000000, 0.000000, 0.000000)" width="1.949999999999818" height="8.775000000000091"/></g></g><g id="shape-316d8937-66ad-809d-8002-c11874a44e17"><g class="fills" id="fills-316d8937-66ad-809d-8002-c11874a44e17"><rect class="st0" rx="0" ry="0" x="17.0625" y="217.71749999999975" transform="matrix(1.000000, 0.000000, 0.000000, 1.000000, 0.000000, 0.000000)" width="1.949999999999818" height="8.775000000000091"/></g></g><g id="shape-316d8937-66ad-809d-8002-c11874a4daa7"><g class="fills" id="fills-316d8937-66ad-809d-8002-c11874a4daa7"><rect class="st0" rx="0" ry="0" x="255.74249999999984" y="310.53750000000036" transform="matrix(1.000000, 0.000000, 0.000000, 1.000000, 0.000000, 0.000000)" width="8.775000000000091" height="1.9500000000000455"/></g></g><g id="shape-316d8937-66ad-809d-8002-c11874a56e3a"><g class="fills" id="fills-316d8937-66ad-809d-8002-c11874a56e3a"><rect class="st0" rx="0" ry="0" x="331.9875000000002" y="239.26499999999987" transform="matrix(1.000000, 0.000000, 0.000000, 1.000000, 0.000000, 0.000000)" width="1.9500000000000455" height="8.775000000000318"/></g></g><g id="shape-316d8937-66ad-809d-8002-c11874a5c720"><g class="fills" id="fills-316d8937-66ad-809d-8002-c11874a5c720"><rect class="st0" rx="0" ry="0" x="331.9875000000002" y="252.9150000000002" transform="matrix(1.000000, 0.000000, 0.000000, 1.000000, 0.000000, 0.000000)" width="1.9500000000000455" height="8.775000000000091"/></g></g><g id="shape-316d8937-66ad-809d-8002-c11874a631a5"><g class="fills" id="fills-316d8937-66ad-809d-8002-c11874a631a5"><rect class="st0" rx="0" ry="0" x="331.9875000000002" y="184.66499999999996" transform="matrix(1.000000, 0.000000, 0.000000, 1.000000, 0.000000, 0.000000)" width="1.9500000000000455" height="8.775000000000091"/></g></g><g id="shape-316d8937-66ad-809d-8002-c11874a6a7fb"><g class="fills" id="fills-316d8937-66ad-809d-8002-c11874a6a7fb"><rect class="st0" rx="0" ry="0" x="331.9875000000002" y="211.96499999999992" transform="matrix(1.000000, 0.000000, 0.000000, 1.000000, 0.000000, 0.000000)" width="1.9500000000000455" height="8.775000000000091"/></g></g><g id="shape-316d8937-66ad-809d-8002-c11874a707fc"><g class="fills" id="fills-316d8937-66ad-809d-8002-c11874a707fc"><rect class="st0" rx="0" ry="0" x="331.9875000000002" y="198.31500000000028" transform="matrix(1.000000, 0.000000, 0.000000, 1.000000, 0.000000, 0.000000)" width="1.9500000000000455" height="8.774999999999864"/></g></g><g id="shape-316d8937-66ad-809d-8002-c11874a74b68"><g class="fills" id="fills-316d8937-66ad-809d-8002-c11874a74b68"><rect class="st0" rx="0" ry="0" x="331.9875000000002" y="225.615" transform="matrix(1.000000, 0.000000, 0.000000, 1.000000, 0.000000, 0.000000)" width="1.9500000000000455" height="8.774999999999864"/></g></g><g id="shape-316d8937-66ad-809d-8002-c11874a7edca"><g class="fills" id="fills-316d8937-66ad-809d-8002-c11874a7edca"><path class="st0" rx="0" ry="0" d="M320.287,298.740L321.652,300.105C323.797,297.960,325.650,295.620,327.307,293.085L325.650,292.013C324.090,294.547,322.335,296.790,320.287,298.740ZZ"/></g></g><g id="shape-316d8937-66ad-809d-8002-c11874a858d2"><g class="fills" id="fills-316d8937-66ad-809d-8002-c11874a858d2"><path class="st0" rx="0" ry="0" d="M331.987,270.465C331.987,272.025,331.890,273.683,331.695,275.243L333.645,275.438C333.840,273.780,333.938,272.122,333.938,270.368L333.938,266.565L331.987,266.565L331.987,270.465ZZ"/></g></g><g id="shape-316d8937-66ad-809d-8002-c11874a8e28a"><g class="fills" id="fills-316d8937-66ad-809d-8002-c11874a8e28a"><path class="st0" rx="0" ry="0" d="M320.970,38.122C322.920,40.170,324.675,42.510,326.137,44.947L327.795,43.973C326.235,41.438,324.382,39.000,322.335,36.855L320.970,38.122ZZ"/></g></g><g id="shape-316d8937-66ad-809d-8002-c11874a9bf14"><g class="fills" id="fills-316d8937-66ad-809d-8002-c11874a9bf14"><path class="st0" rx="0" ry="0" d="M327.990,287.918L329.745,288.795C331.012,286.065,332.085,283.238,332.767,280.313L330.915,279.825C330.233,282.653,329.257,285.383,327.990,287.918ZZ"/></g></g><g id="shape-316d8937-66ad-809d-8002-c11874aa0c03"><g class="fills" id="fills-316d8937-66ad-809d-8002-c11874aa0c03"><rect class="st0" rx="0" ry="0" x="161.4599999999998" y="23.69250000000011" transform="matrix(1.000000, 0.000000, 0.000000, 1.000000, 0.000000, 0.000000)" width="8.775000000000091" height="1.9500000000000455"/></g></g><g id="shape-316d8937-66ad-809d-8002-c11874aa7b14"><g class="fills" id="fills-316d8937-66ad-809d-8002-c11874aa7b14"><rect class="st0" rx="0" ry="0" x="331.9875000000002" y="75.46500000000015" transform="matrix(1.000000, 0.000000, 0.000000, 1.000000, 0.000000, 0.000000)" width="1.9500000000000455" height="8.775000000000318"/></g></g><g id="shape-316d8937-66ad-809d-8002-c11874aadee5"><g class="fills" id="fills-316d8937-66ad-809d-8002-c11874aadee5"><rect class="st0" rx="0" ry="0" x="331.9875000000002" y="102.76500000000033" transform="matrix(1.000000, 0.000000, 0.000000, 1.000000, 0.000000, 0.000000)" width="1.9500000000000455" height="8.774999999999636"/></g></g><g id="shape-316d8937-66ad-809d-8002-c11874ab0b97"><g class="fills" id="fills-316d8937-66ad-809d-8002-c11874ab0b97"><rect class="st0" rx="0" ry="0" x="331.9875000000002" y="89.11500000000046" transform="matrix(1.000000, 0.000000, 0.000000, 1.000000, 0.000000, 0.000000)" width="1.9500000000000455" height="8.774999999999864"/></g></g><g id="shape-316d8937-66ad-809d-8002-c11874aba747"><g class="fills" id="fills-316d8937-66ad-809d-8002-c11874aba747"><path class="st0" rx="0" ry="0" d="M333.742,61.717L331.792,61.913C331.890,63.180,331.987,64.447,331.987,65.715L331.987,70.590L333.938,70.590L333.938,65.715C333.938,64.447,333.840,63.083,333.742,61.717ZZ"/></g></g><g id="shape-316d8937-66ad-809d-8002-c11874ac395a"><g class="fills" id="fills-316d8937-66ad-809d-8002-c11874ac395a"><rect class="st0" rx="0" ry="0" x="331.9875000000002" y="143.71499999999992" transform="matrix(1.000000, 0.000000, 0.000000, 1.000000, 0.000000, 0.000000)" width="1.9500000000000455" height="8.775000000000091"/></g></g><g id="shape-316d8937-66ad-809d-8002-c11874ac8b2f"><g class="fills" id="fills-316d8937-66ad-809d-8002-c11874ac8b2f"><rect class="st0" rx="0" ry="0" x="331.9875000000002" y="171.01499999999987" transform="matrix(1.000000, 0.000000, 0.000000, 1.000000, 0.000000, 0.000000)" width="1.9500000000000455" height="8.775000000000091"/></g></g><g id="shape-316d8937-66ad-809d-8002-c11874ad0d6b"><g class="fills" id="fills-316d8937-66ad-809d-8002-c11874ad0d6b"><path class="st0" rx="0" ry="0" d="M318.727,33.345C316.387,31.395,313.950,29.738,311.220,28.372L310.342,30.128C312.878,31.493,315.217,33.053,317.460,34.905L318.727,33.345ZZ"/></g></g><g id="shape-316d8937-66ad-809d-8002-c11874ad80ea"><g class="fills" id="fills-316d8937-66ad-809d-8002-c11874ad80ea"><rect class="st0" rx="0" ry="0" x="331.9875000000002" y="157.365" transform="matrix(1.000000, 0.000000, 0.000000, 1.000000, 0.000000, 0.000000)" width="1.9500000000000455" height="8.774999999999864"/></g></g><g id="shape-316d8937-66ad-809d-8002-c11874adeeb9"><g class="fills" id="fills-316d8937-66ad-809d-8002-c11874adeeb9"><rect class="st0" rx="0" ry="0" x="331.9875000000002" y="130.06500000000028" transform="matrix(1.000000, 0.000000, 0.000000, 1.000000, 0.000000, 0.000000)" width="1.9500000000000455" height="8.774999999999864"/></g></g><g id="shape-316d8937-66ad-809d-8002-c11874ae6105"><g class="fills" id="fills-316d8937-66ad-809d-8002-c11874ae6105"><rect class="st0" rx="0" ry="0" x="331.9875000000002" y="116.41499999999996" transform="matrix(1.000000, 0.000000, 0.000000, 1.000000, 0.000000, 0.000000)" width="1.9500000000000455" height="8.775000000000091"/></g></g><g id="shape-316d8937-66ad-809d-8002-c11874aee3d1"><g class="fills" id="fills-316d8937-66ad-809d-8002-c11874aee3d1"><rect class="st0" rx="0" ry="0" x="214.7924999999998" y="310.53750000000036" transform="matrix(1.000000, 0.000000, 0.000000, 1.000000, 0.000000, 0.000000)" width="8.775000000000091" height="1.9500000000000455"/></g></g><g id="shape-316d8937-66ad-809d-8002-c11874af19d9"><g class="fills" id="fills-316d8937-66ad-809d-8002-c11874af19d9"><rect class="st0" rx="0" ry="0" x="202.40999999999985" y="23.69250000000011" transform="matrix(1.000000, 0.000000, 0.000000, 1.000000, 0.000000, 0.000000)" width="8.775000000000091" height="1.9500000000000455"/></g></g><g id="shape-316d8937-66ad-809d-8002-c11874afa7d9"><g class="fills" id="fills-316d8937-66ad-809d-8002-c11874afa7d9"><rect class="st0" rx="0" ry="0" x="201.14249999999993" y="310.53750000000036" transform="matrix(1.000000, 0.000000, 0.000000, 1.000000, 0.000000, 0.000000)" width="8.774999999999864" height="1.9500000000000455"/></g></g><g id="shape-316d8937-66ad-809d-8002-c11874b00c92"><g class="fills" id="fills-316d8937-66ad-809d-8002-c11874b00c92"><rect class="st0" rx="0" ry="0" x="228.44249999999988" y="310.53750000000036" transform="matrix(1.000000, 0.000000, 0.000000, 1.000000, 0.000000, 0.000000)" width="8.775000000000091" height="1.9500000000000455"/></g></g><g id="shape-316d8937-66ad-809d-8002-c11874b070d7"><g class="fills" id="fills-316d8937-66ad-809d-8002-c11874b070d7"><rect class="st0" rx="0" ry="0" x="229.7099999999998" y="23.69250000000011" transform="matrix(1.000000, 0.000000, 0.000000, 1.000000, 0.000000, 0.000000)" width="8.775000000000091" height="1.9500000000000455"/></g></g><g id="shape-316d8937-66ad-809d-8002-c11874b0c066"><g class="fills" id="fills-316d8937-66ad-809d-8002-c11874b0c066"><rect class="st0" rx="0" ry="0" x="216.05999999999995" y="23.69250000000011" transform="matrix(1.000000, 0.000000, 0.000000, 1.000000, 0.000000, 0.000000)" width="8.774999999999864" height="1.9500000000000455"/></g></g><g id="shape-316d8937-66ad-809d-8002-c11874b14fb7"><g class="fills" id="fills-316d8937-66ad-809d-8002-c11874b14fb7"><rect class="st0" rx="0" ry="0" x="173.8425000000002" y="310.53750000000036" transform="matrix(1.000000, 0.000000, 0.000000, 1.000000, 0.000000, 0.000000)" width="8.774999999999864" height="1.9500000000000455"/></g></g><g id="shape-316d8937-66ad-809d-8002-c11874b1ef47"><g class="fills" id="fills-316d8937-66ad-809d-8002-c11874b1ef47"><rect class="st0" rx="0" ry="0" x="188.75999999999976" y="23.69250000000011" transform="matrix(1.000000, 0.000000, 0.000000, 1.000000, 0.000000, 0.000000)" width="8.775000000000091" height="1.9500000000000455"/></g></g><g id="shape-316d8937-66ad-809d-8002-c11874b273d2"><g class="fills" id="fills-316d8937-66ad-809d-8002-c11874b273d2"><rect class="st0" rx="0" ry="0" x="175.11000000000013" y="23.69250000000011" transform="matrix(1.000000, 0.000000, 0.000000, 1.000000, 0.000000, 0.000000)" width="8.774999999999864" height="1.9500000000000455"/></g></g><g id="shape-316d8937-66ad-809d-8002-c11874b2b07f"><g class="fills" id="fills-316d8937-66ad-809d-8002-c11874b2b07f"><rect class="st0" rx="0" ry="0" x="187.49249999999984" y="310.53750000000036" transform="matrix(1.000000, 0.000000, 0.000000, 1.000000, 0.000000, 0.000000)" width="8.775000000000091" height="1.9500000000000455"/></g></g><g id="shape-316d8937-66ad-809d-8002-c11874b317e6"><g class="fills" id="fills-316d8937-66ad-809d-8002-c11874b317e6"><path class="st0" rx="0" ry="0" d="M296.790,310.245L296.985,312.195C299.910,311.805,302.932,311.122,305.760,310.148L305.078,308.295C302.445,309.270,299.617,309.953,296.790,310.245ZZ"/></g></g><g id="shape-316d8937-66ad-809d-8002-c11874b3801c"><g class="fills" id="fills-316d8937-66ad-809d-8002-c11874b3801c"><rect class="st0" rx="0" ry="0" x="242.0925000000002" y="310.53750000000036" transform="matrix(1.000000, 0.000000, 0.000000, 1.000000, 0.000000, 0.000000)" width="8.774999999999864" height="1.9500000000000455"/></g></g><g id="shape-316d8937-66ad-809d-8002-c11874b42ca9"><g class="fills" id="fills-316d8937-66ad-809d-8002-c11874b42ca9"><path class="st0" rx="0" ry="0" d="M309.465,306.443L310.342,308.197C313.072,306.930,315.607,305.273,317.947,303.420L316.777,301.860C314.438,303.713,312.000,305.273,309.465,306.443ZZ"/></g></g><g id="shape-316d8937-66ad-809d-8002-c11874b4fcf2"><g class="fills" id="fills-316d8937-66ad-809d-8002-c11874b4fcf2"><path class="st0" rx="0" ry="0" d="M293.085,25.643L293.182,23.693C292.793,23.693,292.402,23.693,291.915,23.693L284.310,23.693L284.310,25.643L291.915,25.643C292.305,25.643,292.695,25.643,293.085,25.643ZZ"/></g></g><g id="shape-316d8937-66ad-809d-8002-c11874b57724"><g class="fills" id="fills-316d8937-66ad-809d-8002-c11874b57724"><path class="st0" rx="0" ry="0" d="M306.735,26.325C303.908,25.253,300.983,24.473,298.057,24.083L297.765,26.033C300.592,26.422,303.420,27.203,306.053,28.178L306.735,26.325ZZ"/></g></g><g id="shape-316d8937-66ad-809d-8002-c11874b5bb3a"><g class="fills" id="fills-316d8937-66ad-809d-8002-c11874b5bb3a"><rect class="st0" rx="0" ry="0" x="283.04249999999956" y="310.53750000000036" transform="matrix(1.000000, 0.000000, 0.000000, 1.000000, 0.000000, 0.000000)" width="8.970000000000027" height="1.9500000000000455"/></g></g><g id="shape-316d8937-66ad-809d-8002-c11874b60027"><g class="fills" id="fills-316d8937-66ad-809d-8002-c11874b60027"><rect class="st0" rx="0" ry="0" x="257.00999999999976" y="23.69250000000011" transform="matrix(1.000000, 0.000000, 0.000000, 1.000000, 0.000000, 0.000000)" width="8.775000000000091" height="1.9500000000000455"/></g></g><g id="shape-316d8937-66ad-809d-8002-c11874b6aa87"><g class="fills" id="fills-316d8937-66ad-809d-8002-c11874b6aa87"><rect class="st0" rx="0" ry="0" x="270.65999999999985" y="23.69250000000011" transform="matrix(1.000000, 0.000000, 0.000000, 1.000000, 0.000000, 0.000000)" width="8.775000000000091" height="1.9500000000000455"/></g></g><g id="shape-316d8937-66ad-809d-8002-c11874b727e3"><g class="fills" id="fills-316d8937-66ad-809d-8002-c11874b727e3"><rect class="st0" rx="0" ry="0" x="243.36000000000013" y="23.69250000000011" transform="matrix(1.000000, 0.000000, 0.000000, 1.000000, 0.000000, 0.000000)" width="8.774999999999864" height="1.9500000000000455"/></g></g><g id="shape-316d8937-66ad-809d-8002-c11874b743c7"><g class="fills" id="fills-316d8937-66ad-809d-8002-c11874b743c7"><rect class="st0" rx="0" ry="0" x="269.3924999999999" y="310.53750000000036" transform="matrix(1.000000, 0.000000, 0.000000, 1.000000, 0.000000, 0.000000)" width="8.774999999999864" height="1.9500000000000455"/></g></g><g id="shape-316d8937-66ad-809d-8002-c11874b861ce"><g class="fills" id="fills-316d8937-66ad-809d-8002-c11874b861ce"><path class="st0" rx="0" ry="0" d="M86.678,202.507C86.872,203.092,87.457,203.385,88.042,203.385L132.600,203.385C132.990,203.385,133.380,203.190,133.672,202.897L156.487,179.400C156.878,179.010,156.975,178.327,156.780,177.840C156.585,177.255,156.000,176.962,155.415,176.962L110.858,176.962C110.467,176.962,110.078,177.158,109.785,177.450L86.970,200.947C86.580,201.337,86.483,201.922,86.678,202.507ZZM117.585,187.297L129.090,187.297L124.507,192.075L113.003,192.075L117.585,187.297ZZM108.908,192.075L99.645,192.075L104.325,187.297L113.490,187.297L108.908,192.075ZZM120.315,184.372L124.507,179.887L136.012,179.887L131.820,184.372L120.315,184.372ZZM133.087,187.297L144.787,187.297L140.108,192.075L128.505,192.075L133.087,187.297ZZM121.680,195.000L116.512,200.460L105.007,200.460L110.175,195.000L121.680,195.000ZZM132.015,200.460L120.510,200.460L125.678,195.000L137.280,195.000L132.015,200.460ZZM147.712,184.372L135.915,184.372L140.108,179.887L152.003,179.887L147.712,184.372ZZM111.540,179.985L120.510,179.985L116.317,184.470L107.250,184.470L111.540,179.985ZZM96.817,195.000L106.080,195.000L100.912,200.460L91.455,200.460L96.817,195.000ZZ"/></g></g><g id="shape-316d8937-66ad-809d-8002-c11874b952dd"><g class="fills" id="fills-316d8937-66ad-809d-8002-c11874b952dd"><path class="st0" rx="0" ry="0" d="M156.390,202.507C156.585,203.092,157.170,203.385,157.755,203.385L202.313,203.385C202.703,203.385,203.092,203.190,203.385,202.897L226.200,179.400C226.590,179.010,226.688,178.327,226.492,177.840C226.297,177.352,225.712,176.962,225.128,176.962L180.570,176.962C180.180,176.962,179.790,177.158,179.497,177.450L156.682,200.947C156.195,201.337,156.097,201.922,156.390,202.507ZZM187.200,187.297L198.705,187.297L194.122,192.075L182.617,192.075L187.200,187.297ZZM178.522,192.075L169.260,192.075L173.940,187.297L183.105,187.297L178.522,192.075ZZM189.930,184.372L194.122,179.887L205.725,179.887L201.533,184.372L189.930,184.372ZZM202.703,187.297L214.402,187.297L209.722,192.075L198.120,192.075L202.703,187.297ZZM191.392,195.000L186.225,200.460L174.622,200.460L179.790,195.000L191.392,195.000ZZM201.630,200.460L190.222,200.460L195.390,195.000L206.895,195.000L201.630,200.460ZZM217.328,184.372L205.530,184.372L209.722,179.887L221.617,179.887L217.328,184.372ZZM181.155,179.985L190.125,179.985L185.932,184.470L176.865,184.470L181.155,179.985ZZM166.432,195.000L175.695,195.000L170.527,200.460L161.070,200.460L166.432,195.000ZZ"/></g></g><g id="shape-316d8937-66ad-809d-8002-c11874ba6a9a"><g class="fills" id="fills-316d8937-66ad-809d-8002-c11874ba6a9a"><path class="st0" rx="0" ry="0" d="M126.945,209.722C126.750,209.137,126.165,208.845,125.580,208.845L81.022,208.845C80.632,208.845,80.242,209.040,79.950,209.332L57.135,232.830C56.745,233.220,56.647,233.902,56.842,234.390C57.037,234.975,57.622,235.267,58.207,235.267L102.765,235.267C103.155,235.267,103.545,235.072,103.837,234.780L126.652,211.282C127.042,210.892,127.140,210.307,126.945,209.722ZZM94.965,223.567L83.460,223.567L87.847,218.985L99.352,218.985L94.965,223.567ZZM103.447,218.887L115.147,218.887L110.662,223.470L99.060,223.470L103.447,218.887ZZM92.235,226.492L86.678,232.342L75.075,232.342L80.632,226.492L92.235,226.492ZZM79.462,223.567L70.200,223.567L74.685,218.985L83.850,218.985L79.462,223.567ZZM90.675,215.962L94.672,211.770L106.178,211.770L102.180,215.962L90.675,215.962ZZM81.608,211.770L90.675,211.770L86.678,215.962L77.610,215.962L81.608,211.770ZZM67.372,226.492L76.635,226.492L71.078,232.342L61.620,232.342L67.372,226.492ZZM102.082,232.342L90.675,232.342L96.233,226.492L107.835,226.492L102.082,232.342ZZM117.975,215.962L106.275,215.962L110.272,211.770L122.167,211.770L117.975,215.962ZZ"/></g></g><g id="shape-316d8937-66ad-809d-8002-c11874bb491e"><g class="fills" id="fills-316d8937-66ad-809d-8002-c11874bb491e"><path class="st0" rx="0" ry="0" d="M195.195,208.845L150.637,208.845C150.247,208.845,149.858,209.040,149.565,209.332L126.750,232.732C126.360,233.122,126.262,233.805,126.457,234.292C126.652,234.878,127.237,235.170,127.822,235.170L172.380,235.170C172.770,235.170,173.160,234.975,173.453,234.682L196.267,211.185C196.658,210.795,196.755,210.112,196.560,209.625C196.365,209.137,195.780,208.845,195.195,208.845ZZM164.678,223.567L153.075,223.567L157.462,218.985L168.967,218.985L164.678,223.567ZZM173.063,218.887L184.762,218.887L180.277,223.470L168.675,223.470L173.063,218.887ZZM161.850,226.492L156.292,232.342L144.787,232.342L150.345,226.492L161.850,226.492ZZM149.078,223.567L139.815,223.567L144.300,218.985L153.465,218.985L149.078,223.567ZZM160.290,215.962L164.287,211.770L175.792,211.770L171.795,215.962L160.290,215.962ZZM151.320,211.770L160.290,211.770L156.292,215.962L147.225,215.962L151.320,211.770ZZM136.987,226.492L146.250,226.492L140.692,232.342L131.235,232.342L136.987,226.492ZZM171.795,232.342L160.290,232.342L165.847,226.492L177.450,226.492L171.795,232.342ZZM187.688,215.962L175.890,215.962L179.887,211.770L191.783,211.770L187.688,215.962ZZ"/></g></g><g id="shape-316d8937-66ad-809d-8002-c11874bc451a"><g class="fills" id="fills-316d8937-66ad-809d-8002-c11874bc451a"><path class="st0" rx="0" ry="0" d="M204.847,103.643L173.940,124.312L175.597,126.750L206.505,106.080C207.870,107.835,209.430,109.297,211.283,110.467L197.828,133.087L200.362,134.550L213.915,111.832C216.158,112.905,218.595,113.490,221.130,113.685L220.935,144.495L223.860,144.495L224.055,113.685C226.492,113.490,228.735,112.807,230.783,111.832L255.840,153.952L258.375,152.490L233.317,110.370C235.267,109.102,236.925,107.445,238.290,105.690L309.855,142.350L311.220,139.717L239.850,103.155C241.020,101.010,241.703,98.670,241.995,96.233L320.092,100.620L320.287,97.695L242.092,93.308C241.995,90.773,241.507,88.238,240.435,85.995L286.065,58.500L284.602,55.965L239.070,83.363C238.387,82.290,237.705,81.315,236.828,80.438C235.950,79.560,235.072,78.683,234.097,78.000L253.500,45.922L250.965,44.363L231.563,76.342C229.417,75.172,226.980,74.393,224.445,74.100L225.420,31.590L222.495,31.493L221.520,74.100C218.985,74.197,216.547,74.685,214.305,75.758L196.267,42.900L193.733,44.265L211.672,77.025C210.600,77.708,209.625,78.488,208.650,79.268C207.090,80.730,205.725,82.388,204.750,84.240L147.420,47.092L145.860,49.530L203.580,86.873C202.897,88.823,202.410,90.870,202.313,93.015C202.313,93.698,202.313,94.380,202.313,94.965L131.137,94.965L131.137,97.890L202.703,97.890C203.092,99.938,203.872,101.888,204.847,103.643ZZM210.697,81.413C213.817,78.488,217.912,76.928,222.203,76.928C222.397,76.928,222.690,76.928,222.885,76.928C227.370,77.122,231.563,79.073,234.682,82.388C237.803,85.703,239.362,90.090,239.167,94.575C238.777,103.935,230.880,111.150,221.520,110.857C216.060,110.662,211.087,107.835,208.065,103.253C206.115,100.230,205.140,96.818,205.237,93.210C205.432,88.725,207.382,84.533,210.697,81.413ZZ"/></g></g><g id="shape-316d8937-66ad-809d-8002-c11874bd1427"><g class="fills" id="fills-316d8937-66ad-809d-8002-c11874bd1427"><rect class="st0" rx="0" ry="0" x="184.52003774239984" y="145.43116633530417" transform="matrix(0.511610, -0.859218, 0.859218, 0.511610, -32.810353, 236.064438)" width="13.454725515200153" height="2.9249403293908927"/></g></g><g id="shape-316d8937-66ad-809d-8002-c11874bd762b"><g class="fills" id="fills-316d8937-66ad-809d-8002-c11874bd762b"><rect class="st0" rx="0" ry="0" x="144.47862749716614" y="135.81554025256742" transform="matrix(0.831311, -0.555807, 0.555807, 0.831311, -49.798319, 110.477242)" width="25.252163255667483" height="2.924960994864932"/></g></g><g id="shape-316d8937-66ad-809d-8002-c11874becf80"><g class="fills" id="fills-316d8937-66ad-809d-8002-c11874becf80"><path class="st0" rx="0" ry="0" d="M316.192,266.955C314.632,264.030,313.462,261.885,314.340,254.768C314.340,254.768,314.340,254.670,314.340,254.670C314.535,250.672,313.755,247.455,312.195,245.017L312.195,226.785L319.118,233.415L321.165,231.270L256.620,168.870L256.620,168.870C256.328,168.577,256.035,168.480,255.645,168.480L223.568,168.480L223.665,151.222L220.740,151.222L220.643,168.480L179.985,168.480L186.128,158.145L183.593,156.682L176.572,168.480L112.905,168.480L141.765,149.175L140.108,146.737L107.640,168.480L97.988,168.480C97.598,168.480,97.207,168.675,96.915,168.967L26.715,241.312C26.325,241.702,26.227,242.385,26.423,242.872C26.618,243.457,27.203,243.750,27.787,243.750L44.655,243.750L44.655,279.825L47.580,279.825L47.580,243.750L185.445,243.750C185.835,243.750,186.225,243.555,186.518,243.262L201.727,227.662L201.727,300.008L204.652,300.008L204.652,224.640L255.743,171.990L309.855,224.250L309.368,224.250L309.368,241.800C306.735,240.045,303.712,239.557,301.372,239.557C298.545,239.557,294.548,240.142,291.720,243.165C289.283,245.700,288.113,249.503,288.308,254.378C288.308,254.378,288.308,254.475,288.308,254.475C289.088,261.398,287.918,263.640,286.358,266.370C285.285,268.418,284.018,270.758,283.238,274.950C281.190,286.650,288.210,293.085,294.060,296.400L237.608,296.400L237.608,299.325L301.275,299.325L301.275,299.325C301.275,299.325,301.275,299.325,301.275,299.325C301.957,299.325,302.542,298.838,302.737,298.253C302.737,298.155,302.737,298.058,302.737,297.863L302.737,297.863L302.737,278.168L308.783,270.172L306.442,268.418L302.737,273.293L302.737,268.515L299.813,268.515L299.813,273.098L296.595,268.515L294.158,270.172L299.813,278.168L299.813,295.913C298.057,295.230,295.230,294.060,292.597,292.013C287.040,287.820,284.895,282.263,286.065,275.438C286.747,271.635,287.820,269.685,288.892,267.735C290.453,264.713,292.012,261.885,291.135,254.183C290.940,250.088,291.817,247.065,293.767,245.115C295.912,242.872,299.033,242.385,301.372,242.385C303.712,242.385,306.832,242.872,308.977,245.115C310.830,247.065,311.707,250.088,311.610,254.183C310.733,262.080,312.195,264.810,313.852,268.028C314.828,269.978,315.900,271.928,316.680,275.633C318.825,285.773,309.660,292.305,309.270,292.598C308.587,293.085,308.392,293.963,308.880,294.645C309.367,295.328,310.245,295.425,310.928,295.035C311.415,294.743,322.140,287.138,319.605,275.047C318.435,271.245,317.265,268.905,316.192,266.955ZZM184.762,240.922L31.200,240.922L98.572,171.503L252.135,171.503L184.762,240.922ZZ"/></g></g><g id="shape-316d8937-66ad-809d-8002-c11874bf761e"><g class="fills" id="fills-316d8937-66ad-809d-8002-c11874bf761e"><rect class="st0" rx="0" ry="0" x="233.90249999999992" y="232.43999999999983" transform="matrix(1.000000, 0.000000, 0.000000, 1.000000, 0.000000, 0.000000)" width="3.900000000000091" height="17.647500000000036"/></g></g><g id="shape-316d8937-66ad-809d-8002-c11874bfe8d6"><g class="fills" id="fills-316d8937-66ad-809d-8002-c11874bfe8d6"><rect class="st0" rx="0" ry="0" x="86.97000000000025" y="262.17750000000024" transform="matrix(1.000000, 0.000000, 0.000000, 1.000000, 0.000000, 0.000000)" width="3.8999999999998636" height="17.64749999999981"/></g></g><g id="shape-316d8937-66ad-809d-8002-c11874c00f2e"><g class="fills" id="fills-316d8937-66ad-809d-8002-c11874c00f2e"><rect class="st0" rx="0" ry="0" x="148.6875" y="262.17750000000024" transform="matrix(1.000000, 0.000000, 0.000000, 1.000000, 0.000000, 0.000000)" width="3.8999999999998636" height="17.64749999999981"/></g></g><g id="shape-316d8937-66ad-809d-8002-c11874c0b801"><g class="fills" id="fills-316d8937-66ad-809d-8002-c11874c0b801"><rect class="st0" rx="0" ry="0" x="276.2175000000002" y="232.43999999999983" transform="matrix(1.000000, 0.000000, 0.000000, 1.000000, 0.000000, 0.000000)" width="3.8999999999998636" height="17.647500000000036"/></g></g><g id="shape-316d8937-66ad-809d-8002-c11874c10fd3"><g class="fills" id="fills-316d8937-66ad-809d-8002-c11874c10fd3"><rect class="st0" rx="0" ry="0" x="246.48000000000002" y="288.1125000000002" transform="matrix(1.000000, 0.000000, 0.000000, 1.000000, 0.000000, 0.000000)" width="27.49500000000012" height="2.9249999999999545"/></g></g></g></g></svg>