<?xml version="1.0" encoding="UTF-8" standalone="no"?>
<svg
   width="362"
   height="343.9"
   id="screenshot-471d1b56-7c24-80ba-8002-caf7809200e6"
   viewBox="-11 -1 362 343.9"
   style="-webkit-print-color-adjust: exact;"
   fill="none"
   version="1.1"
   xmlns="http://www.w3.org/2000/svg"
   xmlns:svg="http://www.w3.org/2000/svg">
  <defs
     id="defs3511" />
  <g
     xml:space="preserve"
     x="0px"
     id="shape-471d1b56-7c24-80ba-8002-caf7809200e6"
     style="fill:#000000"
     ry="0"
     rx="0"
     y="0px"
     version="1.1"
     transform="translate(-4)"><g
       id="shape-471d1b56-7c24-80ba-8002-caf780936edd"><style
         type="text/css"
         rx="0"
         ry="0"
         style="fill:#000000"
         id="style3095">.st0{fill:#004B00;}</style></g><g
       id="shape-471d1b56-7c24-80ba-8002-caf78093fd5f"
       rx="0"
       ry="0"
       style="fill:#000000"><g
         id="shape-471d1b56-7c24-80ba-8002-caf7809652d5"><g
           class="fills"
           id="fills-471d1b56-7c24-80ba-8002-caf7809652d5"><path
             class="st0"
             rx="0"
             ry="0"
             d="M 264.322,78.682 248.43,89.31 250.088,91.747 265.98,81.12 c 0.487,0.585 1.073,1.17 1.755,1.56 l -6.825,11.505 2.535,1.463 6.825,-11.505 c 0.878,0.389 1.852,0.585 2.828,0.682 L 273,95.355 h 2.925 l 0.098,-10.53 c 0.877,-0.097 1.755,-0.39 2.632,-0.682 l 18.038,30.322 2.535,-1.462 -17.94,-30.225 c 0.292,-0.196 0.585,-0.488 0.877,-0.683 0.39,-0.39 0.78,-0.78 1.073,-1.17 L 320.775,100.133 322.14,97.5 284.7,78.39 c 0.39,-0.877 0.683,-1.755 0.78,-2.632 l 40.853,2.339 0.195,-2.924 -40.95,-2.341 C 285.48,71.76 285.285,70.785 284.895,69.81 L 308.783,55.575 307.32,53.04 283.628,67.275 c -0.293,-0.39 -0.585,-0.78 -0.878,-1.072 -0.292,-0.39 -0.682,-0.683 -1.072,-0.975 L 291.72,48.75 289.185,47.19 279.24,63.668 c -0.877,-0.39 -1.852,-0.683 -2.827,-0.878 l 0.487,-21.937 -2.925,-0.098 -0.487,21.938 c -0.975,0.097 -1.95,0.292 -2.828,0.585 l -9.36,-16.965 -2.535,1.365 9.263,16.867 c -1.17,0.878 -2.243,1.853 -3.023,3.12 L 235.17,48.36 l -1.56,2.438 30.225,19.597 c -0.292,0.975 -0.487,1.95 -0.487,2.925 0,0.098 0,0.293 0,0.39 H 226.2 v 2.925 h 37.44 c 0.098,0.683 0.39,1.365 0.682,2.047 z m 10.141,-13.259 c 0.097,0 0.195,0 0.39,0 2.242,0.097 4.29,1.072 5.752,2.632 1.463,1.658 2.243,3.803 2.243,5.948 -0.098,2.242 -1.073,4.29 -2.633,5.752 -1.56,1.463 -3.705,2.242 -5.947,2.242 -2.633,-0.097 -5.168,-1.462 -6.63,-3.704 -0.975,-1.463 -1.463,-3.218 -1.365,-4.973 0,-4.388 3.705,-7.897 8.19,-7.897 z"
             id="path3098" /></g></g><g
         id="shape-471d1b56-7c24-80ba-8002-caf780969a99"><g
           class="fills"
           id="fills-471d1b56-7c24-80ba-8002-caf780969a99"><rect
             class="st0"
             rx="0"
             ry="0"
             x="212.08301"
             y="106.96796"
             transform="rotate(-33.766328,222.56422,108.43059)"
             width="20.962221"
             height="2.9249611"
             id="rect3102" /></g></g><g
         id="shape-471d1b56-7c24-80ba-8002-caf780972434"><g
           class="fills"
           id="fills-471d1b56-7c24-80ba-8002-caf780972434"><rect
             class="st0"
             rx="0"
             ry="0"
             x="254.45842"
             y="100.3662"
             transform="rotate(-59.228876,258.06567,101.82864)"
             width="7.2148528"
             height="2.9249403"
             id="rect3106" /></g></g><g
         id="shape-471d1b56-7c24-80ba-8002-caf780977e29"><g
           class="fills"
           id="fills-471d1b56-7c24-80ba-8002-caf780977e29"><rect
             class="st0"
             rx="0"
             ry="0"
             x="248.56923"
             y="109.48489"
             transform="rotate(-59.228876,252.56648,110.94732)"
             width="7.9948368"
             height="2.9249403"
             id="rect3110" /></g></g><g
         id="shape-471d1b56-7c24-80ba-8002-caf780980184"><g
           class="fills"
           id="fills-471d1b56-7c24-80ba-8002-caf780980184"><rect
             class="st0"
             rx="0"
             ry="0"
             x="269.77197"
             y="102.2739"
             transform="rotate(-89.533779,274.45203,103.73647)"
             width="9.3603096"
             height="2.9250968"
             id="rect3114" /></g></g><g
         id="shape-471d1b56-7c24-80ba-8002-caf7809851d5"><g
           class="fills"
           id="fills-471d1b56-7c24-80ba-8002-caf7809851d5"><rect
             class="st0"
             rx="0"
             ry="0"
             x="233.21443"
             y="95.344391"
             transform="rotate(-33.766328,239.89322,96.807018)"
             width="13.357322"
             height="2.9249611"
             id="rect3118" /></g></g><g
         id="shape-471d1b56-7c24-80ba-8002-caf78098b408"><g
           class="fills"
           id="fills-471d1b56-7c24-80ba-8002-caf78098b408"><rect
             class="st0"
             rx="0"
             ry="0"
             x="65.910004"
             y="23.205"
             width="8.7749996"
             height="1.95"
             id="rect3122" /></g></g><g
         id="shape-471d1b56-7c24-80ba-8002-caf78098fd70"><g
           class="fills"
           id="fills-471d1b56-7c24-80ba-8002-caf78098fd70"><rect
             class="st0"
             rx="0"
             ry="0"
             x="79.559998"
             y="23.205"
             width="8.7749996"
             height="1.95"
             id="rect3126" /></g></g><g
         id="shape-471d1b56-7c24-80ba-8002-caf78098fd71"><g
           class="fills"
           id="fills-471d1b56-7c24-80ba-8002-caf78098fd71"><rect
             class="st0"
             rx="0"
             ry="0"
             x="160.1925"
             y="310.14749"
             width="8.7749996"
             height="1.95"
             id="rect3130" /></g></g><g
         id="shape-471d1b56-7c24-80ba-8002-caf780992f46"><g
           class="fills"
           id="fills-471d1b56-7c24-80ba-8002-caf780992f46"><rect
             class="st0"
             rx="0"
             ry="0"
             x="78.292503"
             y="310.14749"
             width="8.7749996"
             height="1.95"
             id="rect3134" /></g></g><g
         id="shape-471d1b56-7c24-80ba-8002-caf780994933"><g
           class="fills"
           id="fills-471d1b56-7c24-80ba-8002-caf780994933"><rect
             class="st0"
             rx="0"
             ry="0"
             x="64.642502"
             y="310.14749"
             width="8.7749996"
             height="1.95"
             id="rect3138" /></g></g><g
         id="shape-471d1b56-7c24-80ba-8002-caf78099841b"><g
           class="fills"
           id="fills-471d1b56-7c24-80ba-8002-caf78099841b"><path
             class="st0"
             rx="0"
             ry="0"
             d="m 35.88,32.565 -1.17,-1.56 c -2.437,1.755 -4.68,3.705 -6.727,5.948 l 1.462,1.267 c 1.95,-2.047 4.095,-3.998 6.435,-5.655 z"
             id="path3142" /></g></g><g
         id="shape-471d1b56-7c24-80ba-8002-caf7809a2835"><g
           class="fills"
           id="fills-471d1b56-7c24-80ba-8002-caf7809a2835"><path
             class="st0"
             rx="0"
             ry="0"
             d="m 37.928,306.345 c 2.632,1.56 5.362,2.73 8.19,3.705 l 0.585,-1.852 c -2.73,-0.878 -5.363,-2.048 -7.8,-3.51 z"
             id="path3146" /></g></g><g
         id="shape-471d1b56-7c24-80ba-8002-caf7809a4860"><g
           class="fills"
           id="fills-471d1b56-7c24-80ba-8002-caf7809a4860"><path
             class="st0"
             rx="0"
             ry="0"
             d="m 51.285,309.368 -0.39,1.95 c 2.73,0.487 5.46,0.779 8.288,0.779 h 0.682 v -1.949 h -0.682 c -2.73,0 -5.363,-0.293 -7.898,-0.78 z"
             id="path3150" /></g></g><g
         id="shape-471d1b56-7c24-80ba-8002-caf7809abf80"><g
           class="fills"
           id="fills-471d1b56-7c24-80ba-8002-caf7809abf80"><path
             class="st0"
             rx="0"
             ry="0"
             d="M 47.775,26.813 47.19,24.96 c -2.827,0.878 -5.655,2.048 -8.287,3.412 l 0.975,1.756 c 2.535,-1.463 5.167,-2.535 7.897,-3.315 z"
             id="path3154" /></g></g><g
         id="shape-471d1b56-7c24-80ba-8002-caf7809af0c7"><g
           class="fills"
           id="fills-471d1b56-7c24-80ba-8002-caf7809af0c7"><rect
             class="st0"
             rx="0"
             ry="0"
             x="120.51"
             y="23.205"
             width="8.7749996"
             height="1.95"
             id="rect3158" /></g></g><g
         id="shape-471d1b56-7c24-80ba-8002-caf7809af0c8"><g
           class="fills"
           id="fills-471d1b56-7c24-80ba-8002-caf7809af0c8"><rect
             class="st0"
             rx="0"
             ry="0"
             x="134.16"
             y="23.205"
             width="8.7749996"
             height="1.95"
             id="rect3162" /></g></g><g
         id="shape-471d1b56-7c24-80ba-8002-caf7809b73ef"><g
           class="fills"
           id="fills-471d1b56-7c24-80ba-8002-caf7809b73ef"><rect
             class="st0"
             rx="0"
             ry="0"
             x="132.8925"
             y="310.14749"
             width="8.7749996"
             height="1.95"
             id="rect3166" /></g></g><g
         id="shape-471d1b56-7c24-80ba-8002-caf7809b73f0"><g
           class="fills"
           id="fills-471d1b56-7c24-80ba-8002-caf7809b73f0"><rect
             class="st0"
             rx="0"
             ry="0"
             x="146.5425"
             y="310.14749"
             width="8.7749996"
             height="1.95"
             id="rect3170" /></g></g><g
         id="shape-471d1b56-7c24-80ba-8002-caf7809ba796"><g
           class="fills"
           id="fills-471d1b56-7c24-80ba-8002-caf7809ba796"><path
             class="st0"
             rx="0"
             ry="0"
             d="m 28.665,296.108 -1.462,1.267 c 1.95,2.243 4.192,4.29 6.532,6.143 l 1.17,-1.561 c -2.242,-1.657 -4.387,-3.607 -6.24,-5.849 z"
             id="path3174" /></g></g><g
         id="shape-471d1b56-7c24-80ba-8002-caf7809c0c7b"><g
           class="fills"
           id="fills-471d1b56-7c24-80ba-8002-caf7809c0c7b"><rect
             class="st0"
             rx="0"
             ry="0"
             x="147.81"
             y="23.205"
             width="8.7749996"
             height="1.95"
             id="rect3178" /></g></g><g
         id="shape-471d1b56-7c24-80ba-8002-caf7809c0c7c"><g
           class="fills"
           id="fills-471d1b56-7c24-80ba-8002-caf7809c0c7c"><rect
             class="st0"
             rx="0"
             ry="0"
             x="105.5925"
             y="310.14749"
             width="8.7749996"
             height="1.95"
             id="rect3182" /></g></g><g
         id="shape-471d1b56-7c24-80ba-8002-caf7809c75f8"><g
           class="fills"
           id="fills-471d1b56-7c24-80ba-8002-caf7809c75f8"><rect
             class="st0"
             rx="0"
             ry="0"
             x="93.209999"
             y="23.205"
             width="8.7749996"
             height="1.95"
             id="rect3186" /></g></g><g
         id="shape-471d1b56-7c24-80ba-8002-caf7809c9493"><g
           class="fills"
           id="fills-471d1b56-7c24-80ba-8002-caf7809c9493"><rect
             class="st0"
             rx="0"
             ry="0"
             x="91.942497"
             y="310.14749"
             width="8.7749996"
             height="1.95"
             id="rect3190" /></g></g><g
         id="shape-471d1b56-7c24-80ba-8002-caf7809ce079"><g
           class="fills"
           id="fills-471d1b56-7c24-80ba-8002-caf7809ce079"><rect
             class="st0"
             rx="0"
             ry="0"
             x="106.86"
             y="23.205"
             width="8.7749996"
             height="1.95"
             id="rect3194" /></g></g><g
         id="shape-471d1b56-7c24-80ba-8002-caf7809ce07a"><g
           class="fills"
           id="fills-471d1b56-7c24-80ba-8002-caf7809ce07a"><rect
             class="st0"
             rx="0"
             ry="0"
             x="119.2425"
             y="310.14749"
             width="8.7749996"
             height="1.95"
             id="rect3198" /></g></g><g
         id="shape-471d1b56-7c24-80ba-8002-caf7809d6f2e"><g
           class="fills"
           id="fills-471d1b56-7c24-80ba-8002-caf7809d6f2e"><path
             class="st0"
             rx="0"
             ry="0"
             d="m 59.183,25.155 h 1.852 v -1.95 h -1.852 c -2.341,0 -4.68,0.195 -7.02,0.585 l 0.292,1.95 c 2.145,-0.39 4.387,-0.585 6.728,-0.585 z"
             id="path3202" /></g></g><g
         id="shape-471d1b56-7c24-80ba-8002-caf7809d80e6"><g
           class="fills"
           id="fills-471d1b56-7c24-80ba-8002-caf7809d80e6"><rect
             class="st0"
             rx="0"
             ry="0"
             x="17.0625"
             y="121.68"
             width="1.95"
             height="8.7749996"
             id="rect3206" /></g></g><g
         id="shape-471d1b56-7c24-80ba-8002-caf7809d80e7"><g
           class="fills"
           id="fills-471d1b56-7c24-80ba-8002-caf7809d80e7"><rect
             class="st0"
             rx="0"
             ry="0"
             x="17.0625"
             y="108.03"
             width="1.95"
             height="8.7749996"
             id="rect3210" /></g></g><g
         id="shape-471d1b56-7c24-80ba-8002-caf7809ddc9e"><g
           class="fills"
           id="fills-471d1b56-7c24-80ba-8002-caf7809ddc9e"><rect
             class="st0"
             rx="0"
             ry="0"
             x="17.0625"
             y="94.379997"
             width="1.95"
             height="8.7749996"
             id="rect3214" /></g></g><g
         id="shape-471d1b56-7c24-80ba-8002-caf7809e3b0b"><g
           class="fills"
           id="fills-471d1b56-7c24-80ba-8002-caf7809e3b0b"><rect
             class="st0"
             rx="0"
             ry="0"
             x="17.0625"
             y="135.33"
             width="1.95"
             height="8.7749996"
             id="rect3218" /></g></g><g
         id="shape-471d1b56-7c24-80ba-8002-caf7809e6dba"><g
           class="fills"
           id="fills-471d1b56-7c24-80ba-8002-caf7809e6dba"><rect
             class="st0"
             rx="0"
             ry="0"
             x="17.0625"
             y="148.98"
             width="1.95"
             height="8.7749996"
             id="rect3222" /></g></g><g
         id="shape-471d1b56-7c24-80ba-8002-caf7809ebb26"><g
           class="fills"
           id="fills-471d1b56-7c24-80ba-8002-caf7809ebb26"><path
             class="st0"
             rx="0"
             ry="0"
             d="m 20.475,48.653 1.755,0.779 c 1.17,-2.632 2.535,-5.167 4.193,-7.409 l -1.56,-1.17 c -1.755,2.437 -3.218,5.07 -4.388,7.8 z"
             id="path3226" /></g></g><g
         id="shape-471d1b56-7c24-80ba-8002-caf7809ebb27"><g
           class="fills"
           id="fills-471d1b56-7c24-80ba-8002-caf7809ebb27"><rect
             class="st0"
             rx="0"
             ry="0"
             x="17.0625"
             y="162.63"
             width="1.95"
             height="8.7749996"
             id="rect3230" /></g></g><g
         id="shape-471d1b56-7c24-80ba-8002-caf7809edd1e"><g
           class="fills"
           id="fills-471d1b56-7c24-80ba-8002-caf7809edd1e"><path
             class="st0"
             rx="0"
             ry="0"
             d="m 20.67,53.918 -1.852,-0.586 c -0.878,2.828 -1.365,5.85 -1.56,8.776 l 1.95,0.097 c 0.097,-2.73 0.682,-5.557 1.462,-8.287 z"
             id="path3234" /></g></g><g
         id="shape-471d1b56-7c24-80ba-8002-caf7809f3dab"><g
           class="fills"
           id="fills-471d1b56-7c24-80ba-8002-caf7809f3dab"><path
             class="st0"
             rx="0"
             ry="0"
             d="m 332.963,56.355 c -0.585,-2.925 -1.56,-5.752 -2.828,-8.483 l -1.755,0.781 c 1.17,2.632 2.048,5.362 2.73,8.092 z"
             id="path3238" /></g></g><g
         id="shape-471d1b56-7c24-80ba-8002-caf7809f6641"><g
           class="fills"
           id="fills-471d1b56-7c24-80ba-8002-caf7809f6641"><rect
             class="st0"
             rx="0"
             ry="0"
             x="17.0625"
             y="67.080002"
             width="1.95"
             height="8.7749996"
             id="rect3242" /></g></g><g
         id="shape-471d1b56-7c24-80ba-8002-caf7809f8670"><g
           class="fills"
           id="fills-471d1b56-7c24-80ba-8002-caf7809f8670"><rect
             class="st0"
             rx="0"
             ry="0"
             x="17.0625"
             y="80.730003"
             width="1.95"
             height="8.7749996"
             id="rect3246" /></g></g><g
         id="shape-471d1b56-7c24-80ba-8002-caf7809f8671"><g
           class="fills"
           id="fills-471d1b56-7c24-80ba-8002-caf7809f8671"><rect
             class="st0"
             rx="0"
             ry="0"
             x="17.0625"
             y="244.53"
             width="1.95"
             height="8.7749996"
             id="rect3250" /></g></g><g
         id="shape-471d1b56-7c24-80ba-8002-caf7809fe324"><g
           class="fills"
           id="fills-471d1b56-7c24-80ba-8002-caf7809fe324"><rect
             class="st0"
             rx="0"
             ry="0"
             x="17.0625"
             y="176.28"
             width="1.95"
             height="8.7749996"
             id="rect3254" /></g></g><g
         id="shape-471d1b56-7c24-80ba-8002-caf780a02007"><g
           class="fills"
           id="fills-471d1b56-7c24-80ba-8002-caf780a02007"><path
             class="st0"
             rx="0"
             ry="0"
             d="m 19.013,271.83 -1.95,0.098 c 0.097,3.022 0.585,5.947 1.365,8.872 l 1.852,-0.487 c -0.682,-2.828 -1.072,-5.656 -1.267,-8.483 z"
             id="path3258" /></g></g><g
         id="shape-471d1b56-7c24-80ba-8002-caf780a06c7b"><g
           class="fills"
           id="fills-471d1b56-7c24-80ba-8002-caf780a06c7b"><path
             class="st0"
             rx="0"
             ry="0"
             d="m 19.988,285.48 c 1.072,2.73 2.535,5.46 4.192,7.898 l 1.658,-1.073 c -1.56,-2.34 -2.925,-4.875 -3.998,-7.605 z"
             id="path3262" /></g></g><g
         id="shape-471d1b56-7c24-80ba-8002-caf780a06c7c"><g
           class="fills"
           id="fills-471d1b56-7c24-80ba-8002-caf780a06c7c"><rect
             class="st0"
             rx="0"
             ry="0"
             x="17.0625"
             y="258.17999"
             width="1.95"
             height="8.7749996"
             id="rect3266" /></g></g><g
         id="shape-471d1b56-7c24-80ba-8002-caf780a095c1"><g
           class="fills"
           id="fills-471d1b56-7c24-80ba-8002-caf780a095c1"><rect
             class="st0"
             rx="0"
             ry="0"
             x="17.0625"
             y="203.58"
             width="1.95"
             height="8.7749996"
             id="rect3270" /></g></g><g
         id="shape-471d1b56-7c24-80ba-8002-caf780a095c2"><g
           class="fills"
           id="fills-471d1b56-7c24-80ba-8002-caf780a095c2"><rect
             class="st0"
             rx="0"
             ry="0"
             x="17.0625"
             y="189.92999"
             width="1.95"
             height="8.7749996"
             id="rect3274" /></g></g><g
         id="shape-471d1b56-7c24-80ba-8002-caf780a0c522"><g
           class="fills"
           id="fills-471d1b56-7c24-80ba-8002-caf780a0c522"><rect
             class="st0"
             rx="0"
             ry="0"
             x="17.0625"
             y="230.88"
             width="1.95"
             height="8.7749996"
             id="rect3278" /></g></g><g
         id="shape-471d1b56-7c24-80ba-8002-caf780a0c523"><g
           class="fills"
           id="fills-471d1b56-7c24-80ba-8002-caf780a0c523"><rect
             class="st0"
             rx="0"
             ry="0"
             x="17.0625"
             y="217.23"
             width="1.95"
             height="8.7749996"
             id="rect3282" /></g></g><g
         id="shape-471d1b56-7c24-80ba-8002-caf780a11ff7"><g
           class="fills"
           id="fills-471d1b56-7c24-80ba-8002-caf780a11ff7"><rect
             class="st0"
             rx="0"
             ry="0"
             x="255.74249"
             y="310.14749"
             width="8.7749996"
             height="1.95"
             id="rect3286" /></g></g><g
         id="shape-471d1b56-7c24-80ba-8002-caf780a11ff8"><g
           class="fills"
           id="fills-471d1b56-7c24-80ba-8002-caf780a11ff8"><rect
             class="st0"
             rx="0"
             ry="0"
             x="331.98749"
             y="238.875"
             width="1.95"
             height="8.7749996"
             id="rect3290" /></g></g><g
         id="shape-471d1b56-7c24-80ba-8002-caf780a15453"><g
           class="fills"
           id="fills-471d1b56-7c24-80ba-8002-caf780a15453"><rect
             class="st0"
             rx="0"
             ry="0"
             x="331.98749"
             y="252.52499"
             width="1.95"
             height="8.7749996"
             id="rect3294" /></g></g><g
         id="shape-471d1b56-7c24-80ba-8002-caf780a1b53b"><g
           class="fills"
           id="fills-471d1b56-7c24-80ba-8002-caf780a1b53b"><rect
             class="st0"
             rx="0"
             ry="0"
             x="331.98749"
             y="184.27499"
             width="1.95"
             height="8.7749996"
             id="rect3298" /></g></g><g
         id="shape-471d1b56-7c24-80ba-8002-caf780a1b53c"><g
           class="fills"
           id="fills-471d1b56-7c24-80ba-8002-caf780a1b53c"><rect
             class="st0"
             rx="0"
             ry="0"
             x="331.98749"
             y="211.575"
             width="1.95"
             height="8.7749996"
             id="rect3302" /></g></g><g
         id="shape-471d1b56-7c24-80ba-8002-caf780a1ee39"><g
           class="fills"
           id="fills-471d1b56-7c24-80ba-8002-caf780a1ee39"><rect
             class="st0"
             rx="0"
             ry="0"
             x="331.98749"
             y="197.925"
             width="1.95"
             height="8.7749996"
             id="rect3306" /></g></g><g
         id="shape-471d1b56-7c24-80ba-8002-caf780a1ee3a"><g
           class="fills"
           id="fills-471d1b56-7c24-80ba-8002-caf780a1ee3a"><rect
             class="st0"
             rx="0"
             ry="0"
             x="331.98749"
             y="225.22501"
             width="1.95"
             height="8.7749996"
             id="rect3310" /></g></g><g
         id="shape-471d1b56-7c24-80ba-8002-caf780a21cf6"><g
           class="fills"
           id="fills-471d1b56-7c24-80ba-8002-caf780a21cf6"><path
             class="st0"
             rx="0"
             ry="0"
             d="m 320.288,298.35 1.365,1.365 c 2.145,-2.145 3.997,-4.485 5.655,-7.02 l -1.658,-1.073 c -1.56,2.438 -3.315,4.681 -5.362,6.728 z"
             id="path3314" /></g></g><g
         id="shape-471d1b56-7c24-80ba-8002-caf780a24708"><g
           class="fills"
           id="fills-471d1b56-7c24-80ba-8002-caf780a24708"><path
             class="st0"
             rx="0"
             ry="0"
             d="m 331.988,269.978 c 0,1.559 -0.098,3.217 -0.293,4.777 l 1.95,0.195 c 0.195,-1.657 0.293,-3.315 0.293,-5.07 v -3.705 h -1.95 z"
             id="path3318" /></g></g><g
         id="shape-471d1b56-7c24-80ba-8002-caf780a2a8b8"><g
           class="fills"
           id="fills-471d1b56-7c24-80ba-8002-caf780a2a8b8"><path
             class="st0"
             rx="0"
             ry="0"
             d="m 320.97,37.733 c 1.95,2.047 3.705,4.387 5.168,6.824 l 1.657,-0.975 c -1.56,-2.534 -3.412,-4.972 -5.46,-7.117 z"
             id="path3322" /></g></g><g
         id="shape-471d1b56-7c24-80ba-8002-caf780a2f3b4"><g
           class="fills"
           id="fills-471d1b56-7c24-80ba-8002-caf780a2f3b4"><path
             class="st0"
             rx="0"
             ry="0"
             d="m 327.99,287.528 1.755,0.877 c 1.268,-2.73 2.34,-5.558 3.023,-8.482 l -1.853,-0.488 c -0.682,2.828 -1.657,5.558 -2.925,8.093 z"
             id="path3326" /></g></g><g
         id="shape-471d1b56-7c24-80ba-8002-caf780a2f3b5"><g
           class="fills"
           id="fills-471d1b56-7c24-80ba-8002-caf780a2f3b5"><rect
             class="st0"
             rx="0"
             ry="0"
             x="161.46001"
             y="23.205"
             width="8.7749996"
             height="1.95"
             id="rect3330" /></g></g><g
         id="shape-471d1b56-7c24-80ba-8002-caf780a300ed"><g
           class="fills"
           id="fills-471d1b56-7c24-80ba-8002-caf780a300ed"><rect
             class="st0"
             rx="0"
             ry="0"
             x="331.98749"
             y="75.074997"
             width="1.95"
             height="8.7749996"
             id="rect3334" /></g></g><g
         id="shape-471d1b56-7c24-80ba-8002-caf780a300ee"><g
           class="fills"
           id="fills-471d1b56-7c24-80ba-8002-caf780a300ee"><rect
             class="st0"
             rx="0"
             ry="0"
             x="331.98749"
             y="102.375"
             width="1.95"
             height="8.7749996"
             id="rect3338" /></g></g><g
         id="shape-471d1b56-7c24-80ba-8002-caf780a37b43"><g
           class="fills"
           id="fills-471d1b56-7c24-80ba-8002-caf780a37b43"><rect
             class="st0"
             rx="0"
             ry="0"
             x="331.98749"
             y="88.724998"
             width="1.95"
             height="8.7749996"
             id="rect3342" /></g></g><g
         id="shape-471d1b56-7c24-80ba-8002-caf780a37b44"><g
           class="fills"
           id="fills-471d1b56-7c24-80ba-8002-caf780a37b44"><path
             class="st0"
             rx="0"
             ry="0"
             d="m 333.743,61.328 -1.95,0.195 c 0.097,1.267 0.195,2.534 0.195,3.802 V 70.2 h 1.95 v -4.875 c 0,-1.365 -0.098,-2.73 -0.195,-3.997 z"
             id="path3346" /></g></g><g
         id="shape-471d1b56-7c24-80ba-8002-caf780a3b77c"><g
           class="fills"
           id="fills-471d1b56-7c24-80ba-8002-caf780a3b77c"><rect
             class="st0"
             rx="0"
             ry="0"
             x="331.98749"
             y="143.325"
             width="1.95"
             height="8.7749996"
             id="rect3350" /></g></g><g
         id="shape-471d1b56-7c24-80ba-8002-caf780a3f50f"><g
           class="fills"
           id="fills-471d1b56-7c24-80ba-8002-caf780a3f50f"><rect
             class="st0"
             rx="0"
             ry="0"
             x="331.98749"
             y="170.625"
             width="1.95"
             height="8.7749996"
             id="rect3354" /></g></g><g
         id="shape-471d1b56-7c24-80ba-8002-caf780a3f510"><g
           class="fills"
           id="fills-471d1b56-7c24-80ba-8002-caf780a3f510"><path
             class="st0"
             rx="0"
             ry="0"
             d="m 318.728,32.955 c -2.34,-1.95 -4.778,-3.608 -7.508,-4.972 l -0.878,1.755 c 2.536,1.365 4.875,2.924 7.118,4.777 z"
             id="path3358" /></g></g><g
         id="shape-471d1b56-7c24-80ba-8002-caf780a4070d"><g
           class="fills"
           id="fills-471d1b56-7c24-80ba-8002-caf780a4070d"><rect
             class="st0"
             rx="0"
             ry="0"
             x="331.98749"
             y="156.97501"
             width="1.95"
             height="8.7749996"
             id="rect3362" /></g></g><g
         id="shape-471d1b56-7c24-80ba-8002-caf780a4070e"><g
           class="fills"
           id="fills-471d1b56-7c24-80ba-8002-caf780a4070e"><rect
             class="st0"
             rx="0"
             ry="0"
             x="331.98749"
             y="129.675"
             width="1.95"
             height="8.7749996"
             id="rect3366" /></g></g><g
         id="shape-471d1b56-7c24-80ba-8002-caf780a44a00"><g
           class="fills"
           id="fills-471d1b56-7c24-80ba-8002-caf780a44a00"><rect
             class="st0"
             rx="0"
             ry="0"
             x="331.98749"
             y="116.025"
             width="1.95"
             height="8.7749996"
             id="rect3370" /></g></g><g
         id="shape-471d1b56-7c24-80ba-8002-caf780a44a01"><g
           class="fills"
           id="fills-471d1b56-7c24-80ba-8002-caf780a44a01"><rect
             class="st0"
             rx="0"
             ry="0"
             x="214.7925"
             y="310.14749"
             width="8.7749996"
             height="1.95"
             id="rect3374" /></g></g><g
         id="shape-471d1b56-7c24-80ba-8002-caf780a4a349"><g
           class="fills"
           id="fills-471d1b56-7c24-80ba-8002-caf780a4a349"><rect
             class="st0"
             rx="0"
             ry="0"
             x="202.41"
             y="23.205"
             width="8.7749996"
             height="1.95"
             id="rect3378" /></g></g><g
         id="shape-471d1b56-7c24-80ba-8002-caf780a4a34a"><g
           class="fills"
           id="fills-471d1b56-7c24-80ba-8002-caf780a4a34a"><rect
             class="st0"
             rx="0"
             ry="0"
             x="201.1425"
             y="310.14749"
             width="8.7749996"
             height="1.95"
             id="rect3382" /></g></g><g
         id="shape-471d1b56-7c24-80ba-8002-caf780a4eb72"><g
           class="fills"
           id="fills-471d1b56-7c24-80ba-8002-caf780a4eb72"><rect
             class="st0"
             rx="0"
             ry="0"
             x="228.4425"
             y="310.14749"
             width="8.7749996"
             height="1.95"
             id="rect3386" /></g></g><g
         id="shape-471d1b56-7c24-80ba-8002-caf780a4eb73"><g
           class="fills"
           id="fills-471d1b56-7c24-80ba-8002-caf780a4eb73"><rect
             class="st0"
             rx="0"
             ry="0"
             x="229.71001"
             y="23.205"
             width="8.7749996"
             height="1.95"
             id="rect3390" /></g></g><g
         id="shape-471d1b56-7c24-80ba-8002-caf780a53a68"><g
           class="fills"
           id="fills-471d1b56-7c24-80ba-8002-caf780a53a68"><rect
             class="st0"
             rx="0"
             ry="0"
             x="216.06"
             y="23.205"
             width="8.7749996"
             height="1.95"
             id="rect3394" /></g></g><g
         id="shape-471d1b56-7c24-80ba-8002-caf780a53a69"><g
           class="fills"
           id="fills-471d1b56-7c24-80ba-8002-caf780a53a69"><rect
             class="st0"
             rx="0"
             ry="0"
             x="173.8425"
             y="310.14749"
             width="8.7749996"
             height="1.95"
             id="rect3398" /></g></g><g
         id="shape-471d1b56-7c24-80ba-8002-caf780a561b7"><g
           class="fills"
           id="fills-471d1b56-7c24-80ba-8002-caf780a561b7"><rect
             class="st0"
             rx="0"
             ry="0"
             x="188.75999"
             y="23.205"
             width="8.7749996"
             height="1.95"
             id="rect3402" /></g></g><g
         id="shape-471d1b56-7c24-80ba-8002-caf780a561b8"><g
           class="fills"
           id="fills-471d1b56-7c24-80ba-8002-caf780a561b8"><rect
             class="st0"
             rx="0"
             ry="0"
             x="175.11"
             y="23.205"
             width="8.7749996"
             height="1.95"
             id="rect3406" /></g></g><g
         id="shape-471d1b56-7c24-80ba-8002-caf780a5b902"><g
           class="fills"
           id="fills-471d1b56-7c24-80ba-8002-caf780a5b902"><rect
             class="st0"
             rx="0"
             ry="0"
             x="187.49249"
             y="310.14749"
             width="8.7749996"
             height="1.95"
             id="rect3410" /></g></g><g
         id="shape-471d1b56-7c24-80ba-8002-caf780a5c3e4"><g
           class="fills"
           id="fills-471d1b56-7c24-80ba-8002-caf780a5c3e4"><path
             class="st0"
             rx="0"
             ry="0"
             d="m 296.79,309.855 0.195,1.95 c 2.925,-0.39 5.948,-1.072 8.775,-2.048 l -0.682,-1.852 c -2.633,0.975 -5.46,1.56 -8.288,1.95 z"
             id="path3414" /></g></g><g
         id="shape-471d1b56-7c24-80ba-8002-caf780a5c3e5"><g
           class="fills"
           id="fills-471d1b56-7c24-80ba-8002-caf780a5c3e5"><rect
             class="st0"
             rx="0"
             ry="0"
             x="242.0925"
             y="310.14749"
             width="8.7749996"
             height="1.95"
             id="rect3418" /></g></g><g
         id="shape-471d1b56-7c24-80ba-8002-caf780a60a9d"><g
           class="fills"
           id="fills-471d1b56-7c24-80ba-8002-caf780a60a9d"><path
             class="st0"
             rx="0"
             ry="0"
             d="m 309.465,306.053 0.877,1.754 c 2.73,-1.267 5.265,-2.925 7.605,-4.777 l -1.169,-1.56 c -2.34,1.853 -4.778,3.315 -7.313,4.583 z"
             id="path3422" /></g></g><g
         id="shape-471d1b56-7c24-80ba-8002-caf780a653b4"><g
           class="fills"
           id="fills-471d1b56-7c24-80ba-8002-caf780a653b4"><path
             class="st0"
             rx="0"
             ry="0"
             d="m 293.085,25.155 0.098,-1.95 c -0.39,0 -0.78,0 -1.268,0 h -7.605 v 1.95 h 7.605 c 0.39,0 0.78,0 1.17,0 z"
             id="path3426" /></g></g><g
         id="shape-471d1b56-7c24-80ba-8002-caf780a6883c"><g
           class="fills"
           id="fills-471d1b56-7c24-80ba-8002-caf780a6883c"><path
             class="st0"
             rx="0"
             ry="0"
             d="m 306.735,25.935 c -2.827,-1.072 -5.752,-1.853 -8.677,-2.242 l -0.293,1.95 c 2.827,0.389 5.655,1.17 8.288,2.144 z"
             id="path3430" /></g></g><g
         id="shape-471d1b56-7c24-80ba-8002-caf780a6883d"><g
           class="fills"
           id="fills-471d1b56-7c24-80ba-8002-caf780a6883d"><rect
             class="st0"
             rx="0"
             ry="0"
             x="283.04251"
             y="310.14749"
             width="8.9700003"
             height="1.95"
             id="rect3434" /></g></g><g
         id="shape-471d1b56-7c24-80ba-8002-caf780a6c2b7"><g
           class="fills"
           id="fills-471d1b56-7c24-80ba-8002-caf780a6c2b7"><rect
             class="st0"
             rx="0"
             ry="0"
             x="257.01001"
             y="23.205"
             width="8.7749996"
             height="1.95"
             id="rect3438" /></g></g><g
         id="shape-471d1b56-7c24-80ba-8002-caf780a6c2b8"><g
           class="fills"
           id="fills-471d1b56-7c24-80ba-8002-caf780a6c2b8"><rect
             class="st0"
             rx="0"
             ry="0"
             x="270.66"
             y="23.205"
             width="8.7749996"
             height="1.95"
             id="rect3442" /></g></g><g
         id="shape-471d1b56-7c24-80ba-8002-caf780a72fd5"><g
           class="fills"
           id="fills-471d1b56-7c24-80ba-8002-caf780a72fd5"><rect
             class="st0"
             rx="0"
             ry="0"
             x="243.36"
             y="23.205"
             width="8.7749996"
             height="1.95"
             id="rect3446" /></g></g><g
         id="shape-471d1b56-7c24-80ba-8002-caf780a72fd6"><g
           class="fills"
           id="fills-471d1b56-7c24-80ba-8002-caf780a72fd6"><rect
             class="st0"
             rx="0"
             ry="0"
             x="269.39249"
             y="310.14749"
             width="8.7749996"
             height="1.95"
             id="rect3450" /></g></g><g
         id="shape-471d1b56-7c24-80ba-8002-caf780a9a240"><g
           class="fills"
           id="fills-471d1b56-7c24-80ba-8002-caf780a9a240"><path
             class="st0"
             rx="0"
             ry="0"
             d="m 128.213,100.62 c 0,2.437 1.95,4.388 4.387,4.388 h 5.558 v 166.627 h -24.961 v -45.63 h 10.726 c 1.852,0 3.412,-1.56 3.412,-3.412 v -6.728 c 0,-1.852 -1.56,-3.412 -3.412,-3.412 H 95.55 v -16.478 l 10.628,-3.705 -5.753,-8.287 -46.995,16.38 5.753,8.287 6.727,-2.34 v 6.143 H 33.735 c -1.852,0 -3.413,1.56 -3.413,3.412 v 6.728 c 0,1.852 1.561,3.412 3.413,3.412 h 7.898 v 47.092 h 2.925 v -47.092 h 65.715 v 48.555 h 29.347 c 0.78,0 1.463,-0.682 1.463,-1.463 V 105.008 h 62.205 V 272.22 c 0,0.78 0.682,1.462 1.462,1.462 0,0 0,0 0,0 v 0 l 98.768,-0.194 v -2.925 l -29.933,0.097 v -11.603 h 20.573 c 0.487,0 0.877,-0.194 1.17,-0.585 0.292,-0.39 0.389,-0.877 0.292,-1.267 l -7.8,-28.177 c -0.195,-0.585 -0.78,-1.073 -1.365,-1.073 h -42.802 c -0.683,0 -1.268,0.488 -1.463,1.073 l -7.117,28.177 c -0.098,0.39 0,0.877 0.292,1.267 0.293,0.391 0.683,0.585 1.17,0.585 h 21.743 v 11.7 l -52.065,0.098 v -165.75 h 3.997 c 2.438,0 4.388,-1.95 4.388,-4.387 v -4.583 c 0,-2.437 -1.95,-4.388 -4.388,-4.388 H 178.328 V 77.513 h 17.94 c 0.39,0 0.78,-0.195 0.975,-0.488 0.292,-0.292 0.292,-0.682 0.195,-1.072 l -7.215,-26.91 c -0.195,-0.586 -0.683,-0.975 -1.268,-0.975 h -33.54 c -0.585,0 -1.073,0.389 -1.267,0.975 l -7.215,26.91 c -0.098,0.39 0,0.78 0.195,1.072 0.194,0.293 0.585,0.488 0.975,0.488 h 17.94 V 91.65 H 132.6 c -2.437,0 -4.387,1.95 -4.387,4.387 z m -70.2,101.303 41.242,-14.333 2.242,3.217 -41.242,14.333 z m 10.725,3.412 23.79,-8.287 v 15.405 h -23.79 z m -35.491,17.258 v -6.728 c 0,-0.292 0.196,-0.487 0.488,-0.487 h 90.188 c 0.292,0 0.487,0.195 0.487,0.487 v 6.728 c 0,0.292 -0.195,0.487 -0.487,0.487 H 33.735 c -0.195,0 -0.488,-0.195 -0.488,-0.487 z M 254.085,237.9 h 9.75 l 0.098,7.215 H 253.5 Z m -3.607,7.215 h -9.36 l 1.852,-7.215 h 8.19 z m 38.707,0 h -8.872 l -0.585,-7.215 h 7.507 z m -11.797,0 h -10.53 L 266.76,237.9 h 10.043 z m -10.628,-10.14 v -4.193 h 9.457 l 0.391,4.193 z m -2.925,0 h -9.457 l 0.39,-4.193 h 9.067 z m 0.098,13.065 0.097,8.093 h -11.505 l 0.683,-8.093 z m 3.022,7.995 -0.097,-8.092 h 10.725 l 0.682,8.092 z m 14.235,0 -0.682,-8.092 h 9.457 l 2.243,8.092 z m 5.265,-21.06 h -6.922 l -0.39,-4.193 h 6.142 z m -34.71,-4.193 -0.39,4.193 h -7.702 l 1.072,-4.193 z m -11.31,17.258 h 9.848 l -0.683,8.093 h -11.115 z m 20.768,10.92 h 9.457 v 11.603 h -9.457 z M 165.75,74.978 l 0.585,-6.435 h 11.993 l 0.585,6.435 z M 154.148,59.573 h 10.335 l -0.585,6.435 h -11.505 z m 12.967,0 h 10.433 l 0.585,6.435 h -11.505 z m 0.195,-2.536 0.585,-6.434 h 8.775 l 0.585,6.434 z m 24.863,8.971 h -11.505 l -0.585,-6.435 h 10.335 z m -10.726,8.97 -0.584,-6.435 h 11.992 l 1.658,6.435 z m 8.386,-17.941 h -9.945 l -0.585,-6.434 h 8.775 z m -33.248,-6.434 h 8.775 l -0.585,6.434 h -9.945 z m -4.875,17.94 h 11.993 l -0.585,6.435 h -13.065 z m 17.16,8.97 h 6.825 V 91.65 h -6.825 z m -37.732,18.524 c 0,-0.779 0.682,-1.462 1.462,-1.462 h 77.61 c 0.78,0 1.463,0.683 1.463,1.462 v 4.583 c 0,0.78 -0.683,1.462 -1.463,1.462 h -3.997 -68.055 -5.558 c -0.78,0 -1.462,-0.682 -1.462,-1.462 z"
             id="path3454" /></g></g><g
         id="shape-471d1b56-7c24-80ba-8002-caf780a9ccd4"><g
           class="fills"
           id="fills-471d1b56-7c24-80ba-8002-caf780a9ccd4"><rect
             class="st0"
             rx="0"
             ry="0"
             x="157.2675"
             y="160.095"
             width="3.9000001"
             height="17.647499"
             id="rect3458" /></g></g><g
         id="shape-471d1b56-7c24-80ba-8002-caf780aa1424"><g
           class="fills"
           id="fills-471d1b56-7c24-80ba-8002-caf780aa1424"><rect
             class="st0"
             rx="0"
             ry="0"
             x="157.2675"
             y="198.9975"
             width="3.9000001"
             height="17.647499"
             id="rect3462" /></g></g><g
         id="shape-471d1b56-7c24-80ba-8002-caf780aa1425"><g
           class="fills"
           id="fills-471d1b56-7c24-80ba-8002-caf780aa1425"><rect
             class="st0"
             rx="0"
             ry="0"
             x="183.105"
             y="160.095"
             width="3.9000001"
             height="17.647499"
             id="rect3466" /></g></g><g
         id="shape-471d1b56-7c24-80ba-8002-caf780aa63fd"><g
           class="fills"
           id="fills-471d1b56-7c24-80ba-8002-caf780aa63fd"><rect
             class="st0"
             rx="0"
             ry="0"
             x="157.2675"
             y="120.12"
             width="3.9000001"
             height="17.647499"
             id="rect3470" /></g></g><g
         id="shape-471d1b56-7c24-80ba-8002-caf780aaa031"><g
           class="fills"
           id="fills-471d1b56-7c24-80ba-8002-caf780aaa031"><rect
             class="st0"
             rx="0"
             ry="0"
             x="183.105"
             y="120.12"
             width="3.9000001"
             height="17.647499"
             id="rect3474" /></g></g><g
         id="shape-471d1b56-7c24-80ba-8002-caf780abad0a"><g
           class="fills"
           id="fills-471d1b56-7c24-80ba-8002-caf780abad0a"><path
             class="st0"
             rx="0"
             ry="0"
             d="m 97.208,245.115 c 0.78,-0.975 2.34,-2.145 4.875,-1.95 l 0.195,-2.925 c -2.73,-0.195 -4.778,0.683 -6.24,1.853 -1.268,-5.07 -5.265,-8.386 -10.725,-8.386 H 69.225 c -5.167,0 -9.262,3.413 -10.725,8.386 -1.462,-1.17 -3.51,-2.048 -6.142,-1.853 l 0.195,2.925 c 2.535,-0.195 4.095,0.975 4.875,1.95 -5.753,2.73 -8.19,6.63 -8.093,12.773 v 5.752 c 0,0.878 0.487,2.34 1.56,3.315 v 2.048 c 0,1.95 1.658,3.607 3.608,3.607 h 4.972 c 1.95,0 3.608,-1.657 3.608,-3.607 v -3.023 l 0.78,-0.487 h 26.812 l 0.78,0.389 v 3.023 c 0,1.95 1.658,3.608 3.608,3.608 h 4.972 c 1.95,0 3.608,-1.658 3.608,-3.608 v -1.95 c 1.17,-0.975 1.56,-2.437 1.657,-3.412 v -5.558 c 0.098,-6.24 -2.34,-10.14 -8.092,-12.87 z m -36.953,23.79 c 0,0.39 -0.292,0.683 -0.683,0.683 H 54.6 c -0.39,0 -0.682,-0.293 -0.682,-0.683 v -0.975 h 5.654 l 0.683,-0.39 z m 2.925,-6.435 -4.387,2.535 h -5.168 c -1.072,-0.292 -1.267,-1.365 -1.267,-1.658 v -5.557 c -0.098,-5.46 1.95,-8.287 7.507,-10.53 h 15.698 v -2.925 H 61.035 c 0.585,-4.485 3.803,-7.702 8.19,-7.702 h 16.088 c 5.46,0 7.702,3.705 8.19,7.702 H 86.58 v 2.925 h 7.117 1.171 c 5.557,2.243 7.605,5.168 7.507,10.628 v 5.557 c 0,0.098 -0.097,1.365 -1.267,1.658 H 95.94 l -4.387,-2.535 z m 36.855,7.118 h -4.972 c -0.39,0 -0.683,-0.293 -0.683,-0.683 v -1.365 l 0.683,0.39 h 5.654 v 0.877 c 0,0.488 -0.292,0.781 -0.682,0.781 z"
             id="path3478" /></g></g><g
         id="shape-471d1b56-7c24-80ba-8002-caf780abff8c"><g
           class="fills"
           id="fills-471d1b56-7c24-80ba-8002-caf780abff8c"><path
             class="st0"
             rx="0"
             ry="0"
             d="m 60.743,252.622 c -0.878,-0.097 -3.218,0 -3.413,0 -1.755,0 -3.217,1.463 -3.217,3.218 v 1.657 c 0,1.756 1.462,3.218 3.217,3.218 h 7.117 l 0.098,-1.365 c 0.293,-3.9 -1.17,-6.435 -3.802,-6.728 z m -3.413,5.071 c -0.097,0 -0.292,-0.098 -0.292,-0.293 v -1.657 c 0,-0.098 0.097,-0.293 0.292,-0.293 0.488,0 1.268,0 1.95,0 0.39,0 0.78,0 1.073,0 0.78,0.098 1.072,1.17 1.17,2.145 z"
             id="path3482" /></g></g><g
         id="shape-471d1b56-7c24-80ba-8002-caf780ac6f54"><g
           class="fills"
           id="fills-471d1b56-7c24-80ba-8002-caf780ac6f54"><path
             class="st0"
             rx="0"
             ry="0"
             d="m 100.815,257.4 v -1.657 c 0,-1.755 -1.462,-3.218 -3.12,-3.218 0,0 0,0 0,0 -0.292,0 -2.535,-0.097 -3.412,0 -2.633,0.293 -4.095,2.828 -3.803,6.63 l 0.098,1.365 h 7.117 c 1.755,0.098 3.12,-1.365 3.12,-3.12 z m -6.24,-1.95 c 0.488,-0.097 2.145,0 3.023,0 0.097,0 0.292,0.098 0.292,0.293 v 1.657 c 0,0.097 -0.097,0.293 -0.292,0.293 h -4.29 c 0.195,-1.073 0.487,-2.145 1.267,-2.243 z"
             id="path3486" /></g></g><g
         id="shape-471d1b56-7c24-80ba-8002-caf780acaa58"><g
           class="fills"
           id="fills-471d1b56-7c24-80ba-8002-caf780acaa58"><rect
             class="st0"
             rx="0"
             ry="0"
             x="71.077499"
             y="254.86501"
             width="12.675"
             height="2.925"
             id="rect3490" /></g></g><g
         id="shape-471d1b56-7c24-80ba-8002-caf780acaa59"><g
           class="fills"
           id="fills-471d1b56-7c24-80ba-8002-caf780acaa59"><rect
             class="st0"
             rx="0"
             ry="0"
             x="284.01749"
             y="279.63"
             width="30.5175"
             height="2.925"
             id="rect3494" /></g></g><g
         id="shape-471d1b56-7c24-80ba-8002-caf780acfe2d"><g
           class="fills"
           id="fills-471d1b56-7c24-80ba-8002-caf780acfe2d"><path
             class="st0"
             rx="0"
             ry="0"
             d="m 113.295,147.225 -1.072,-2.73 c -15.601,6.337 -28.665,17.062 -37.83,31.298 l 2.437,1.56 c 8.775,-13.65 21.45,-24.083 36.465,-30.128 z"
             id="path3498" /></g></g><g
         id="shape-471d1b56-7c24-80ba-8002-caf780ad1edd"><g
           class="fills"
           id="fills-471d1b56-7c24-80ba-8002-caf780ad1edd"><path
             class="st0"
             rx="0"
             ry="0"
             d="m 262.86,177.45 2.438,-1.56 c -9.165,-14.137 -22.23,-24.96 -37.831,-31.297 l -1.072,2.73 c 15.015,6.045 27.593,16.477 36.465,30.127 z"
             id="path3502" /></g></g></g></g>
</svg>
