<?xml version="1.0" encoding="UTF-8" standalone="no"?>
<svg
   width="360"
   height="336.89999"
   id="screenshot-537296e8-edae-8085-8002-c25c67a15189"
   viewBox="0 0 360 336.9"
   style="-webkit-print-color-adjust:exact"
   fill="none"
   version="1.1"
   xmlns="http://www.w3.org/2000/svg"
   xmlns:svg="http://www.w3.org/2000/svg">
  <defs
     id="defs8562" />
  <g
     xml:space="preserve"
     x="0px"
     id="shape-537296e8-edae-8085-8002-c25c67a15189"
     style="fill:#000000"
     ry="0"
     rx="0"
     y="0px"
     version="1.1"
     transform="translate(2.9737288,-4.4605931)"><g
       id="shape-537296e8-edae-8085-8002-c25c67a2380d"><style
         type="text/css"
         rx="0"
         ry="0"
         style="fill:#000000"
         id="style8134">.st0{fill:#004B00;}</style></g><g
       id="shape-537296e8-edae-8085-8002-c25c67a27458"
       rx="0"
       ry="0"
       style="fill:#000000"><g
         id="shape-537296e8-edae-8085-8002-c25c67a2dbcb"><g
           class="fills"
           id="fills-537296e8-edae-8085-8002-c25c67a2dbcb"><rect
             class="st0"
             rx="0"
             ry="0"
             x="65.910004"
             y="23.790001"
             width="8.7749996"
             height="1.95"
             id="rect8137" /></g></g><g
         id="shape-537296e8-edae-8085-8002-c25c67a3024e"><g
           class="fills"
           id="fills-537296e8-edae-8085-8002-c25c67a3024e"><rect
             class="st0"
             rx="0"
             ry="0"
             x="79.559998"
             y="23.790001"
             width="8.7749996"
             height="1.95"
             id="rect8141" /></g></g><g
         id="shape-537296e8-edae-8085-8002-c25c67a3024f"><g
           class="fills"
           id="fills-537296e8-edae-8085-8002-c25c67a3024f"><rect
             class="st0"
             rx="0"
             ry="0"
             x="160.1925"
             y="310.63501"
             width="8.7749996"
             height="1.95"
             id="rect8145" /></g></g><g
         id="shape-537296e8-edae-8085-8002-c25c67a30250"><g
           class="fills"
           id="fills-537296e8-edae-8085-8002-c25c67a30250"><rect
             class="st0"
             rx="0"
             ry="0"
             x="78.292503"
             y="310.63501"
             width="8.7749996"
             height="1.95"
             id="rect8149" /></g></g><g
         id="shape-537296e8-edae-8085-8002-c25c67a34e21"><g
           class="fills"
           id="fills-537296e8-edae-8085-8002-c25c67a34e21"><rect
             class="st0"
             rx="0"
             ry="0"
             x="64.642502"
             y="310.63501"
             width="8.7749996"
             height="1.95"
             id="rect8153" /></g></g><g
         id="shape-537296e8-edae-8085-8002-c25c67a38d06"><g
           class="fills"
           id="fills-537296e8-edae-8085-8002-c25c67a38d06"><path
             class="st0"
             rx="0"
             ry="0"
             d="m 35.88,33.15 -1.17,-1.56 c -2.438,1.755 -4.68,3.705 -6.728,5.947 l 1.463,1.268 c 1.95,-2.145 4.095,-3.997 6.435,-5.655 z"
             id="path8157" /></g></g><g
         id="shape-537296e8-edae-8085-8002-c25c67a3ee19"><g
           class="fills"
           id="fills-537296e8-edae-8085-8002-c25c67a3ee19"><path
             class="st0"
             rx="0"
             ry="0"
             d="m 37.927,306.832 c 2.633,1.56 5.363,2.731 8.191,3.705 l 0.584,-1.852 c -2.73,-0.878 -5.362,-2.047 -7.8,-3.51 z"
             id="path8161" /></g></g><g
         id="shape-537296e8-edae-8085-8002-c25c67a41b6e"><g
           class="fills"
           id="fills-537296e8-edae-8085-8002-c25c67a41b6e"><path
             class="st0"
             rx="0"
             ry="0"
             d="m 51.285,309.855 -0.39,1.95 c 2.73,0.488 5.46,0.78 8.287,0.78 h 0.683 v -1.95 h -0.683 c -2.73,0 -5.362,-0.195 -7.897,-0.78 z"
             id="path8165" /></g></g><g
         id="shape-537296e8-edae-8085-8002-c25c67a451cc"><g
           class="fills"
           id="fills-537296e8-edae-8085-8002-c25c67a451cc"><path
             class="st0"
             rx="0"
             ry="0"
             d="M 47.775,27.3 47.19,25.447 c -2.828,0.878 -5.655,2.048 -8.288,3.413 l 0.975,1.755 c 2.535,-1.365 5.168,-2.437 7.898,-3.315 z"
             id="path8169" /></g></g><g
         id="shape-537296e8-edae-8085-8002-c25c67a4a8b1"><g
           class="fills"
           id="fills-537296e8-edae-8085-8002-c25c67a4a8b1"><rect
             class="st0"
             rx="0"
             ry="0"
             x="120.51"
             y="23.790001"
             width="8.7749996"
             height="1.95"
             id="rect8173" /></g></g><g
         id="shape-537296e8-edae-8085-8002-c25c67a4a8b2"><g
           class="fills"
           id="fills-537296e8-edae-8085-8002-c25c67a4a8b2"><rect
             class="st0"
             rx="0"
             ry="0"
             x="134.16"
             y="23.790001"
             width="8.7749996"
             height="1.95"
             id="rect8177" /></g></g><g
         id="shape-537296e8-edae-8085-8002-c25c67a4c9a8"><g
           class="fills"
           id="fills-537296e8-edae-8085-8002-c25c67a4c9a8"><rect
             class="st0"
             rx="0"
             ry="0"
             x="132.8925"
             y="310.63501"
             width="8.7749996"
             height="1.95"
             id="rect8181" /></g></g><g
         id="shape-537296e8-edae-8085-8002-c25c67a5675a"><g
           class="fills"
           id="fills-537296e8-edae-8085-8002-c25c67a5675a"><rect
             class="st0"
             rx="0"
             ry="0"
             x="146.5425"
             y="310.63501"
             width="8.7749996"
             height="1.95"
             id="rect8185" /></g></g><g
         id="shape-537296e8-edae-8085-8002-c25c67a5af20"><g
           class="fills"
           id="fills-537296e8-edae-8085-8002-c25c67a5af20"><path
             class="st0"
             rx="0"
             ry="0"
             d="m 28.665,296.692 -1.463,1.268 c 1.95,2.243 4.193,4.29 6.533,6.142 l 1.17,-1.559 c -2.243,-1.756 -4.388,-3.706 -6.24,-5.851 z"
             id="path8189" /></g></g><g
         id="shape-537296e8-edae-8085-8002-c25c67a5af21"><g
           class="fills"
           id="fills-537296e8-edae-8085-8002-c25c67a5af21"><rect
             class="st0"
             rx="0"
             ry="0"
             x="147.81"
             y="23.790001"
             width="8.7749996"
             height="1.95"
             id="rect8193" /></g></g><g
         id="shape-537296e8-edae-8085-8002-c25c67a5c035"><g
           class="fills"
           id="fills-537296e8-edae-8085-8002-c25c67a5c035"><rect
             class="st0"
             rx="0"
             ry="0"
             x="105.5925"
             y="310.63501"
             width="8.7749996"
             height="1.95"
             id="rect8197" /></g></g><g
         id="shape-537296e8-edae-8085-8002-c25c67a5c036"><g
           class="fills"
           id="fills-537296e8-edae-8085-8002-c25c67a5c036"><rect
             class="st0"
             rx="0"
             ry="0"
             x="93.209999"
             y="23.790001"
             width="8.7749996"
             height="1.95"
             id="rect8201" /></g></g><g
         id="shape-537296e8-edae-8085-8002-c25c67a634b0"><g
           class="fills"
           id="fills-537296e8-edae-8085-8002-c25c67a634b0"><rect
             class="st0"
             rx="0"
             ry="0"
             x="91.942497"
             y="310.63501"
             width="8.7749996"
             height="1.95"
             id="rect8205" /></g></g><g
         id="shape-537296e8-edae-8085-8002-c25c67a634b1"><g
           class="fills"
           id="fills-537296e8-edae-8085-8002-c25c67a634b1"><rect
             class="st0"
             rx="0"
             ry="0"
             x="106.86"
             y="23.790001"
             width="8.7749996"
             height="1.95"
             id="rect8209" /></g></g><g
         id="shape-537296e8-edae-8085-8002-c25c67a634b2"><g
           class="fills"
           id="fills-537296e8-edae-8085-8002-c25c67a634b2"><rect
             class="st0"
             rx="0"
             ry="0"
             x="119.2425"
             y="310.63501"
             width="8.7749996"
             height="1.95"
             id="rect8213" /></g></g><g
         id="shape-537296e8-edae-8085-8002-c25c67a6690f"><g
           class="fills"
           id="fills-537296e8-edae-8085-8002-c25c67a6690f"><path
             class="st0"
             rx="0"
             ry="0"
             d="m 59.182,25.74 h 1.853 v -1.95 h -1.853 c -2.339,0 -4.68,0.195 -7.02,0.585 l 0.293,1.95 c 2.145,-0.39 4.388,-0.585 6.727,-0.585 z"
             id="path8217" /></g></g><g
         id="shape-537296e8-edae-8085-8002-c25c67a6925a"><g
           class="fills"
           id="fills-537296e8-edae-8085-8002-c25c67a6925a"><rect
             class="st0"
             rx="0"
             ry="0"
             x="17.0625"
             y="122.265"
             width="1.95"
             height="8.7749996"
             id="rect8221" /></g></g><g
         id="shape-537296e8-edae-8085-8002-c25c67a6925b"><g
           class="fills"
           id="fills-537296e8-edae-8085-8002-c25c67a6925b"><rect
             class="st0"
             rx="0"
             ry="0"
             x="17.0625"
             y="108.615"
             width="1.95"
             height="8.7749996"
             id="rect8225" /></g></g><g
         id="shape-537296e8-edae-8085-8002-c25c67a6925c"><g
           class="fills"
           id="fills-537296e8-edae-8085-8002-c25c67a6925c"><rect
             class="st0"
             rx="0"
             ry="0"
             x="17.0625"
             y="94.964996"
             width="1.95"
             height="8.7749996"
             id="rect8229" /></g></g><g
         id="shape-537296e8-edae-8085-8002-c25c67a6eb6c"><g
           class="fills"
           id="fills-537296e8-edae-8085-8002-c25c67a6eb6c"><rect
             class="st0"
             rx="0"
             ry="0"
             x="17.0625"
             y="135.91499"
             width="1.95"
             height="8.7749996"
             id="rect8233" /></g></g><g
         id="shape-537296e8-edae-8085-8002-c25c67a6eb6d"><g
           class="fills"
           id="fills-537296e8-edae-8085-8002-c25c67a6eb6d"><rect
             class="st0"
             rx="0"
             ry="0"
             x="17.0625"
             y="149.565"
             width="1.95"
             height="8.7749996"
             id="rect8237" /></g></g><g
         id="shape-537296e8-edae-8085-8002-c25c67a71a29"><g
           class="fills"
           id="fills-537296e8-edae-8085-8002-c25c67a71a29"><path
             class="st0"
             rx="0"
             ry="0"
             d="m 26.52,42.51 -1.56,-1.17 c -1.755,2.438 -3.217,5.07 -4.388,7.8 l 1.755,0.78 c 1.073,-2.535 2.535,-5.07 4.193,-7.41 z"
             id="path8241" /></g></g><g
         id="shape-537296e8-edae-8085-8002-c25c67a71a2a"><g
           class="fills"
           id="fills-537296e8-edae-8085-8002-c25c67a71a2a"><rect
             class="st0"
             rx="0"
             ry="0"
             x="17.0625"
             y="163.215"
             width="1.95"
             height="8.7749996"
             id="rect8245" /></g></g><g
         id="shape-537296e8-edae-8085-8002-c25c67a751db"><g
           class="fills"
           id="fills-537296e8-edae-8085-8002-c25c67a751db"><path
             class="st0"
             rx="0"
             ry="0"
             d="M 20.67,54.405 18.817,53.82 c -0.877,2.827 -1.365,5.85 -1.56,8.775 l 1.95,0.097 c 0.098,-2.73 0.683,-5.557 1.463,-8.287 z"
             id="path8249" /></g></g><g
         id="shape-537296e8-edae-8085-8002-c25c67a7b69f"><g
           class="fills"
           id="fills-537296e8-edae-8085-8002-c25c67a7b69f"><path
             class="st0"
             rx="0"
             ry="0"
             d="m 332.962,56.94 c -0.585,-2.925 -1.56,-5.752 -2.827,-8.483 l -1.755,0.78 c 1.17,2.633 2.048,5.363 2.73,8.093 z"
             id="path8253" /></g></g><g
         id="shape-537296e8-edae-8085-8002-c25c67a7f7e4"><g
           class="fills"
           id="fills-537296e8-edae-8085-8002-c25c67a7f7e4"><rect
             class="st0"
             rx="0"
             ry="0"
             x="17.0625"
             y="67.665001"
             width="1.95"
             height="8.7749996"
             id="rect8257" /></g></g><g
         id="shape-537296e8-edae-8085-8002-c25c67a7f7e5"><g
           class="fills"
           id="fills-537296e8-edae-8085-8002-c25c67a7f7e5"><rect
             class="st0"
             rx="0"
             ry="0"
             x="17.0625"
             y="81.315002"
             width="1.95"
             height="8.7749996"
             id="rect8261" /></g></g><g
         id="shape-537296e8-edae-8085-8002-c25c67a83862"><g
           class="fills"
           id="fills-537296e8-edae-8085-8002-c25c67a83862"><rect
             class="st0"
             rx="0"
             ry="0"
             x="17.0625"
             y="245.11501"
             width="1.95"
             height="8.7749996"
             id="rect8265" /></g></g><g
         id="shape-537296e8-edae-8085-8002-c25c67a83863"><g
           class="fills"
           id="fills-537296e8-edae-8085-8002-c25c67a83863"><rect
             class="st0"
             rx="0"
             ry="0"
             x="17.0625"
             y="176.86501"
             width="1.95"
             height="8.7749996"
             id="rect8269" /></g></g><g
         id="shape-537296e8-edae-8085-8002-c25c67a86564"><g
           class="fills"
           id="fills-537296e8-edae-8085-8002-c25c67a86564"><path
             class="st0"
             rx="0"
             ry="0"
             d="m 19.012,272.317 -1.949,0.098 c 0.097,3.023 0.584,5.947 1.364,8.872 L 20.28,280.8 c -0.682,-2.73 -1.073,-5.558 -1.268,-8.483 z"
             id="path8273" /></g></g><g
         id="shape-537296e8-edae-8085-8002-c25c67a86565"><g
           class="fills"
           id="fills-537296e8-edae-8085-8002-c25c67a86565"><path
             class="st0"
             rx="0"
             ry="0"
             d="m 19.988,286.065 c 1.072,2.73 2.534,5.46 4.192,7.897 l 1.657,-1.072 c -1.56,-2.34 -2.925,-4.875 -3.997,-7.605 z"
             id="path8277" /></g></g><g
         id="shape-537296e8-edae-8085-8002-c25c67a8b25f"><g
           class="fills"
           id="fills-537296e8-edae-8085-8002-c25c67a8b25f"><rect
             class="st0"
             rx="0"
             ry="0"
             x="17.0625"
             y="258.76501"
             width="1.95"
             height="8.7749996"
             id="rect8281" /></g></g><g
         id="shape-537296e8-edae-8085-8002-c25c67a8b260"><g
           class="fills"
           id="fills-537296e8-edae-8085-8002-c25c67a8b260"><rect
             class="st0"
             rx="0"
             ry="0"
             x="17.0625"
             y="204.16499"
             width="1.95"
             height="8.7749996"
             id="rect8285" /></g></g><g
         id="shape-537296e8-edae-8085-8002-c25c67a8fa50"><g
           class="fills"
           id="fills-537296e8-edae-8085-8002-c25c67a8fa50"><rect
             class="st0"
             rx="0"
             ry="0"
             x="17.0625"
             y="190.515"
             width="1.95"
             height="8.7749996"
             id="rect8289" /></g></g><g
         id="shape-537296e8-edae-8085-8002-c25c67a8fa51"><g
           class="fills"
           id="fills-537296e8-edae-8085-8002-c25c67a8fa51"><rect
             class="st0"
             rx="0"
             ry="0"
             x="17.0625"
             y="231.465"
             width="1.95"
             height="8.7749996"
             id="rect8293" /></g></g><g
         id="shape-537296e8-edae-8085-8002-c25c67a8fa52"><g
           class="fills"
           id="fills-537296e8-edae-8085-8002-c25c67a8fa52"><rect
             class="st0"
             rx="0"
             ry="0"
             x="17.0625"
             y="217.815"
             width="1.95"
             height="8.7749996"
             id="rect8297" /></g></g><g
         id="shape-537296e8-edae-8085-8002-c25c67a925a4"><g
           class="fills"
           id="fills-537296e8-edae-8085-8002-c25c67a925a4"><rect
             class="st0"
             rx="0"
             ry="0"
             x="255.74249"
             y="310.63501"
             width="8.7749996"
             height="1.95"
             id="rect8301" /></g></g><g
         id="shape-537296e8-edae-8085-8002-c25c67a925a5"><g
           class="fills"
           id="fills-537296e8-edae-8085-8002-c25c67a925a5"><rect
             class="st0"
             rx="0"
             ry="0"
             x="331.98749"
             y="239.3625"
             width="1.95"
             height="8.7749996"
             id="rect8305" /></g></g><g
         id="shape-537296e8-edae-8085-8002-c25c67a96374"><g
           class="fills"
           id="fills-537296e8-edae-8085-8002-c25c67a96374"><rect
             class="st0"
             rx="0"
             ry="0"
             x="331.98749"
             y="253.0125"
             width="1.95"
             height="8.7749996"
             id="rect8309" /></g></g><g
         id="shape-537296e8-edae-8085-8002-c25c67a96375"><g
           class="fills"
           id="fills-537296e8-edae-8085-8002-c25c67a96375"><rect
             class="st0"
             rx="0"
             ry="0"
             x="331.98749"
             y="184.7625"
             width="1.95"
             height="8.7749996"
             id="rect8313" /></g></g><g
         id="shape-537296e8-edae-8085-8002-c25c67a96376"><g
           class="fills"
           id="fills-537296e8-edae-8085-8002-c25c67a96376"><rect
             class="st0"
             rx="0"
             ry="0"
             x="331.98749"
             y="212.0625"
             width="1.95"
             height="8.7749996"
             id="rect8317" /></g></g><g
         id="shape-537296e8-edae-8085-8002-c25c67a9a63d"><g
           class="fills"
           id="fills-537296e8-edae-8085-8002-c25c67a9a63d"><rect
             class="st0"
             rx="0"
             ry="0"
             x="331.98749"
             y="198.41251"
             width="1.95"
             height="8.7749996"
             id="rect8321" /></g></g><g
         id="shape-537296e8-edae-8085-8002-c25c67a9a63e"><g
           class="fills"
           id="fills-537296e8-edae-8085-8002-c25c67a9a63e"><rect
             class="st0"
             rx="0"
             ry="0"
             x="331.98749"
             y="225.71249"
             width="1.95"
             height="8.7749996"
             id="rect8325" /></g></g><g
         id="shape-537296e8-edae-8085-8002-c25c67a9ea35"><g
           class="fills"
           id="fills-537296e8-edae-8085-8002-c25c67a9ea35"><path
             class="st0"
             rx="0"
             ry="0"
             d="m 320.287,298.837 1.365,1.366 c 2.145,-2.146 3.998,-4.486 5.655,-7.021 l -1.657,-1.072 c -1.56,2.535 -3.315,4.778 -5.363,6.727 z"
             id="path8329" /></g></g><g
         id="shape-537296e8-edae-8085-8002-c25c67aa3d1b"><g
           class="fills"
           id="fills-537296e8-edae-8085-8002-c25c67aa3d1b"><path
             class="st0"
             rx="0"
             ry="0"
             d="m 331.987,270.563 c 0,1.559 -0.097,3.217 -0.292,4.777 l 1.95,0.195 c 0.195,-1.657 0.293,-3.315 0.293,-5.07 v -3.803 h -1.951 z"
             id="path8333" /></g></g><g
         id="shape-537296e8-edae-8085-8002-c25c67aa63e3"><g
           class="fills"
           id="fills-537296e8-edae-8085-8002-c25c67aa63e3"><path
             class="st0"
             rx="0"
             ry="0"
             d="m 320.97,38.22 c 1.95,2.047 3.705,4.388 5.167,6.825 l 1.658,-0.975 c -1.56,-2.535 -3.413,-4.973 -5.46,-7.117 z"
             id="path8337" /></g></g><g
         id="shape-537296e8-edae-8085-8002-c25c67aa8086"><g
           class="fills"
           id="fills-537296e8-edae-8085-8002-c25c67aa8086"><path
             class="st0"
             rx="0"
             ry="0"
             d="m 327.99,288.112 1.755,0.878 c 1.267,-2.73 2.34,-5.558 3.022,-8.483 l -1.852,-0.487 c -0.683,2.827 -1.658,5.46 -2.925,8.092 z"
             id="path8341" /></g></g><g
         id="shape-537296e8-edae-8085-8002-c25c67aa8087"><g
           class="fills"
           id="fills-537296e8-edae-8085-8002-c25c67aa8087"><rect
             class="st0"
             rx="0"
             ry="0"
             x="161.46001"
             y="23.790001"
             width="8.7749996"
             height="1.95"
             id="rect8345" /></g></g><g
         id="shape-537296e8-edae-8085-8002-c25c67aa8088"><g
           class="fills"
           id="fills-537296e8-edae-8085-8002-c25c67aa8088"><rect
             class="st0"
             rx="0"
             ry="0"
             x="331.98749"
             y="75.5625"
             width="1.95"
             height="8.7749996"
             id="rect8349" /></g></g><g
         id="shape-537296e8-edae-8085-8002-c25c67aaed6b"><g
           class="fills"
           id="fills-537296e8-edae-8085-8002-c25c67aaed6b"><rect
             class="st0"
             rx="0"
             ry="0"
             x="331.98749"
             y="102.8625"
             width="1.95"
             height="8.7749996"
             id="rect8353" /></g></g><g
         id="shape-537296e8-edae-8085-8002-c25c67aaed6c"><g
           class="fills"
           id="fills-537296e8-edae-8085-8002-c25c67aaed6c"><rect
             class="st0"
             rx="0"
             ry="0"
             x="331.98749"
             y="89.212502"
             width="1.95"
             height="8.7749996"
             id="rect8357" /></g></g><g
         id="shape-537296e8-edae-8085-8002-c25c67ab3357"><g
           class="fills"
           id="fills-537296e8-edae-8085-8002-c25c67ab3357"><path
             class="st0"
             rx="0"
             ry="0"
             d="m 333.743,61.815 -1.95,0.195 c 0.097,1.268 0.194,2.535 0.194,3.803 v 4.875 h 1.951 v -4.875 c 0,-1.268 -0.098,-2.633 -0.195,-3.998 z"
             id="path8361" /></g></g><g
         id="shape-537296e8-edae-8085-8002-c25c67ab5e60"><g
           class="fills"
           id="fills-537296e8-edae-8085-8002-c25c67ab5e60"><rect
             class="st0"
             rx="0"
             ry="0"
             x="331.98749"
             y="143.8125"
             width="1.95"
             height="8.7749996"
             id="rect8365" /></g></g><g
         id="shape-537296e8-edae-8085-8002-c25c67ab5e61"><g
           class="fills"
           id="fills-537296e8-edae-8085-8002-c25c67ab5e61"><rect
             class="st0"
             rx="0"
             ry="0"
             x="331.98749"
             y="171.1125"
             width="1.95"
             height="8.7749996"
             id="rect8369" /></g></g><g
         id="shape-537296e8-edae-8085-8002-c25c67abb11c"><g
           class="fills"
           id="fills-537296e8-edae-8085-8002-c25c67abb11c"><path
             class="st0"
             rx="0"
             ry="0"
             d="m 318.727,33.442 c -2.34,-1.95 -4.777,-3.607 -7.507,-4.972 l -0.878,1.755 c 2.535,1.365 4.875,2.925 7.118,4.778 z"
             id="path8373" /></g></g><g
         id="shape-537296e8-edae-8085-8002-c25c67abb11d"><g
           class="fills"
           id="fills-537296e8-edae-8085-8002-c25c67abb11d"><rect
             class="st0"
             rx="0"
             ry="0"
             x="331.98749"
             y="157.46249"
             width="1.95"
             height="8.7749996"
             id="rect8377" /></g></g><g
         id="shape-537296e8-edae-8085-8002-c25c67abf1a4"><g
           class="fills"
           id="fills-537296e8-edae-8085-8002-c25c67abf1a4"><rect
             class="st0"
             rx="0"
             ry="0"
             x="331.98749"
             y="130.16251"
             width="1.95"
             height="8.7749996"
             id="rect8381" /></g></g><g
         id="shape-537296e8-edae-8085-8002-c25c67abf1a5"><g
           class="fills"
           id="fills-537296e8-edae-8085-8002-c25c67abf1a5"><rect
             class="st0"
             rx="0"
             ry="0"
             x="331.98749"
             y="116.5125"
             width="1.95"
             height="8.7749996"
             id="rect8385" /></g></g><g
         id="shape-537296e8-edae-8085-8002-c25c67abf1a6"><g
           class="fills"
           id="fills-537296e8-edae-8085-8002-c25c67abf1a6"><rect
             class="st0"
             rx="0"
             ry="0"
             x="214.7925"
             y="310.63501"
             width="8.7749996"
             height="1.95"
             id="rect8389" /></g></g><g
         id="shape-537296e8-edae-8085-8002-c25c67ac1ded"><g
           class="fills"
           id="fills-537296e8-edae-8085-8002-c25c67ac1ded"><rect
             class="st0"
             rx="0"
             ry="0"
             x="202.41"
             y="23.790001"
             width="8.7749996"
             height="1.95"
             id="rect8393" /></g></g><g
         id="shape-537296e8-edae-8085-8002-c25c67ac1dee"><g
           class="fills"
           id="fills-537296e8-edae-8085-8002-c25c67ac1dee"><rect
             class="st0"
             rx="0"
             ry="0"
             x="201.1425"
             y="310.63501"
             width="8.7749996"
             height="1.95"
             id="rect8397" /></g></g><g
         id="shape-537296e8-edae-8085-8002-c25c67ac5164"><g
           class="fills"
           id="fills-537296e8-edae-8085-8002-c25c67ac5164"><rect
             class="st0"
             rx="0"
             ry="0"
             x="228.4425"
             y="310.63501"
             width="8.7749996"
             height="1.95"
             id="rect8401" /></g></g><g
         id="shape-537296e8-edae-8085-8002-c25c67ac5165"><g
           class="fills"
           id="fills-537296e8-edae-8085-8002-c25c67ac5165"><rect
             class="st0"
             rx="0"
             ry="0"
             x="229.71001"
             y="23.790001"
             width="8.7749996"
             height="1.95"
             id="rect8405" /></g></g><g
         id="shape-537296e8-edae-8085-8002-c25c67ac8395"><g
           class="fills"
           id="fills-537296e8-edae-8085-8002-c25c67ac8395"><rect
             class="st0"
             rx="0"
             ry="0"
             x="216.06"
             y="23.790001"
             width="8.7749996"
             height="1.95"
             id="rect8409" /></g></g><g
         id="shape-537296e8-edae-8085-8002-c25c67acdfa1"><g
           class="fills"
           id="fills-537296e8-edae-8085-8002-c25c67acdfa1"><rect
             class="st0"
             rx="0"
             ry="0"
             x="173.8425"
             y="310.63501"
             width="8.7749996"
             height="1.95"
             id="rect8413" /></g></g><g
         id="shape-537296e8-edae-8085-8002-c25c67acdfa2"><g
           class="fills"
           id="fills-537296e8-edae-8085-8002-c25c67acdfa2"><rect
             class="st0"
             rx="0"
             ry="0"
             x="188.75999"
             y="23.790001"
             width="8.7749996"
             height="1.95"
             id="rect8417" /></g></g><g
         id="shape-537296e8-edae-8085-8002-c25c67acdfa3"><g
           class="fills"
           id="fills-537296e8-edae-8085-8002-c25c67acdfa3"><rect
             class="st0"
             rx="0"
             ry="0"
             x="175.11"
             y="23.790001"
             width="8.7749996"
             height="1.95"
             id="rect8421" /></g></g><g
         id="shape-537296e8-edae-8085-8002-c25c67ad39bf"><g
           class="fills"
           id="fills-537296e8-edae-8085-8002-c25c67ad39bf"><rect
             class="st0"
             rx="0"
             ry="0"
             x="187.49249"
             y="310.63501"
             width="8.7749996"
             height="1.95"
             id="rect8425" /></g></g><g
         id="shape-537296e8-edae-8085-8002-c25c67ad39c0"><g
           class="fills"
           id="fills-537296e8-edae-8085-8002-c25c67ad39c0"><path
             class="st0"
             rx="0"
             ry="0"
             d="m 296.79,310.342 0.195,1.951 c 2.925,-0.39 5.947,-1.073 8.775,-2.048 l -0.683,-1.853 c -2.632,0.975 -5.459,1.658 -8.287,1.95 z"
             id="path8429" /></g></g><g
         id="shape-537296e8-edae-8085-8002-c25c67ad4ee1"><g
           class="fills"
           id="fills-537296e8-edae-8085-8002-c25c67ad4ee1"><rect
             class="st0"
             rx="0"
             ry="0"
             x="242.0925"
             y="310.63501"
             width="8.7749996"
             height="1.95"
             id="rect8433" /></g></g><g
         id="shape-537296e8-edae-8085-8002-c25c67ad4ee2"><g
           class="fills"
           id="fills-537296e8-edae-8085-8002-c25c67ad4ee2"><path
             class="st0"
             rx="0"
             ry="0"
             d="m 309.465,306.638 0.877,1.754 c 2.73,-1.267 5.265,-2.925 7.605,-4.777 l -1.17,-1.56 c -2.339,1.755 -4.777,3.315 -7.312,4.583 z"
             id="path8437" /></g></g><g
         id="shape-537296e8-edae-8085-8002-c25c67adb535"><g
           class="fills"
           id="fills-537296e8-edae-8085-8002-c25c67adb535"><path
             class="st0"
             rx="0"
             ry="0"
             d="m 293.085,25.74 0.098,-1.95 c -0.39,0 -0.78,0 -1.268,0 h -7.605 v 1.95 h 7.605 c 0.39,0 0.78,0 1.17,0 z"
             id="path8441" /></g></g><g
         id="shape-537296e8-edae-8085-8002-c25c67add048"><g
           class="fills"
           id="fills-537296e8-edae-8085-8002-c25c67add048"><path
             class="st0"
             rx="0"
             ry="0"
             d="m 306.735,26.422 c -2.827,-1.072 -5.752,-1.852 -8.677,-2.242 l -0.293,1.95 c 2.827,0.39 5.655,1.17 8.288,2.145 z"
             id="path8445" /></g></g><g
         id="shape-537296e8-edae-8085-8002-c25c67add049"><g
           class="fills"
           id="fills-537296e8-edae-8085-8002-c25c67add049"><rect
             class="st0"
             rx="0"
             ry="0"
             x="283.04251"
             y="310.63501"
             width="8.9700003"
             height="1.95"
             id="rect8449" /></g></g><g
         id="shape-537296e8-edae-8085-8002-c25c67ae0215"><g
           class="fills"
           id="fills-537296e8-edae-8085-8002-c25c67ae0215"><rect
             class="st0"
             rx="0"
             ry="0"
             x="257.01001"
             y="23.790001"
             width="8.7749996"
             height="1.95"
             id="rect8453" /></g></g><g
         id="shape-537296e8-edae-8085-8002-c25c67ae0216"><g
           class="fills"
           id="fills-537296e8-edae-8085-8002-c25c67ae0216"><rect
             class="st0"
             rx="0"
             ry="0"
             x="270.66"
             y="23.790001"
             width="8.7749996"
             height="1.95"
             id="rect8457" /></g></g><g
         id="shape-537296e8-edae-8085-8002-c25c67ae0217"><g
           class="fills"
           id="fills-537296e8-edae-8085-8002-c25c67ae0217"><rect
             class="st0"
             rx="0"
             ry="0"
             x="243.36"
             y="23.790001"
             width="8.7749996"
             height="1.95"
             id="rect8461" /></g></g><g
         id="shape-537296e8-edae-8085-8002-c25c67ae45b2"><g
           class="fills"
           id="fills-537296e8-edae-8085-8002-c25c67ae45b2"><rect
             class="st0"
             rx="0"
             ry="0"
             x="269.39249"
             y="310.63501"
             width="8.7749996"
             height="1.95"
             id="rect8465" /></g></g><g
         id="shape-537296e8-edae-8085-8002-c25c67aeb899"><g
           class="fills"
           id="fills-537296e8-edae-8085-8002-c25c67aeb899"><path
             class="st0"
             rx="0"
             ry="0"
             d="m 62.302,171.697 c -0.78,-0.097 -1.462,0.586 -1.462,1.463 -0.293,11.31 -1.95,21.06 -5.07,30.518 -0.293,0.779 0.195,1.559 0.975,1.852 0.195,0.098 0.292,0.098 0.487,0.098 0.585,0 1.17,-0.391 1.365,-0.975 3.218,-9.848 4.875,-19.793 5.168,-31.396 0,-0.877 -0.585,-1.56 -1.463,-1.56 z"
             id="path8469" /></g></g><g
         id="shape-537296e8-edae-8085-8002-c25c67b13c81"><g
           class="fills"
           id="fills-537296e8-edae-8085-8002-c25c67b13c81"><path
             class="st0"
             rx="0"
             ry="0"
             d="m 133.77,290.257 c 0.682,-0.292 1.072,-0.974 0.877,-1.657 -0.292,-1.268 -7.8,-31.785 -11.407,-38.22 -2.633,-4.583 -5.46,-9.555 -11.018,-12.772 0,0 0,0 0,0 -2.242,-1.268 -4.875,-2.243 -8.092,-2.828 -0.195,0 -0.39,0 -0.585,0 l -0.195,-23.985 c 2.437,0.292 4.777,0.39 7.02,0.39 11.797,0 20.572,-3.607 23.107,-5.752 3.9,-3.218 4.875,-8.093 4.875,-9.555 0,-0.683 -0.292,-1.171 -0.682,-1.463 -0.39,-0.293 -2.73,-2.438 -3.51,-3.218 0.097,0 0.195,0.098 0.39,0.098 2.535,1.072 4.778,1.072 4.875,1.072 h 1.268 l 0.195,-1.267 c 0,0 0.584,-3.218 0.975,-4.972 0.292,-1.268 1.267,-2.828 5.167,-6.631 1.658,-1.657 2.438,-3.217 2.34,-4.875 -0.195,-1.852 -1.462,-2.925 -1.755,-3.217 -5.752,-4.68 -8.092,-15.405 -8.677,-18.428 1.95,-1.852 7.117,-7.702 6.142,-17.647 -0.682,-6.728 -7.605,-20.378 -20.67,-21.938 -2.242,-1.365 -15.405,-8.579 -39.877,-2.73 -0.293,0.098 -30.908,5.753 -36.855,35.198 -0.195,0.78 -0.293,1.56 -0.488,2.437 -1.17,6.436 -2.73,15.21 -9.36,19.695 -0.39,0.293 -3.607,2.438 -3.315,5.46 0.195,1.95 1.755,3.413 4.68,4.583 0,0 0.683,0.292 0.878,1.072 0.097,0.585 0,2.34 -3.218,5.558 -0.585,0.585 -1.365,1.267 -2.242,2.047 -4.485,3.9 -11.115,9.848 -8.775,17.258 0,0.195 3.802,14.43 21.352,12.09 1.17,1.56 4.095,4.777 8.385,5.557 0.683,0.098 1.268,0.196 1.95,0.196 2.243,0 4.485,-0.781 6.728,-2.243 1.462,0.585 4.68,1.462 7.605,0.39 0.585,-0.195 1.17,-0.488 1.657,-0.878 L 72.54,234.39 C 72.248,234.195 72.15,234 72.15,234 c -0.292,-0.39 -0.78,-0.585 -1.267,-0.585 -0.488,0 -11.115,1.17 -18.233,7.702 -0.487,0.488 -0.585,1.17 -0.292,1.755 0.195,0.391 4.777,9.263 31.59,17.55 25.447,7.898 30.907,12.968 31.005,12.968 0,0 0.097,0.097 0.097,0.097 0.195,0.195 0.488,0.39 0.78,0.585 0,0 0,0 0,0 6.045,5.168 14.918,12.968 16.283,15.308 0.292,0.487 0.78,0.683 1.267,0.683 0,0.292 0.195,0.292 0.39,0.194 z M 145.665,173.94 c 0,0 0.585,0.39 0.585,1.073 0,0.682 -0.488,1.559 -1.463,2.534 -3.9,3.803 -5.46,5.85 -5.947,8.093 -0.293,1.072 -0.585,2.632 -0.78,3.802 -0.683,-0.097 -1.56,-0.292 -2.535,-0.682 -2.34,-0.975 -3.608,0.39 -3.9,0.78 -0.78,1.072 -0.78,2.632 0,3.51 0.585,0.683 2.632,2.535 3.705,3.51 -0.098,1.268 -1.073,4.582 -3.705,6.825 -2.925,2.437 -19.305,8.678 -38.805,2.243 l -2.047,-23.303 c -0.098,-0.585 -0.488,-1.072 -0.975,-1.267 -0.586,-0.196 -1.171,0 -1.561,0.487 -0.195,0.195 -4.972,5.752 -10.237,1.755 -2.047,-1.56 -3.218,-4.388 -3.315,-7.8 -0.098,-3.51 1.072,-6.435 2.242,-7.41 l 0.293,-0.293 c 1.56,-1.364 3.412,-2.925 9.847,-0.585 0.195,0.098 0.39,0.098 0.585,0.098 0.195,0 19.013,-1.56 24.668,-23.01 0.78,4.192 1.462,8.775 2.047,11.895 0.098,0.78 0.878,1.365 1.658,1.17 0.195,0 3.9,-0.585 7.702,-3.9 2.73,-2.34 5.85,-6.63 7.313,-13.845 l 4.68,13.552 c 0.292,1.463 2.632,14.918 9.945,20.768 z m -74.88,43.485 c -2.73,1.072 -6.143,-0.585 -6.143,-0.585 -0.487,-0.195 -1.072,-0.195 -1.56,0.098 -2.437,1.754 -4.777,2.437 -7.117,1.95 -4.29,-0.78 -7.02,-4.973 -7.118,-5.071 -0.292,-0.389 -0.78,-0.682 -1.267,-0.682 -0.098,0 -0.195,0 -0.195,0 -15.6,2.632 -18.818,-9.263 -19.012,-9.848 -1.853,-5.752 3.802,-10.724 7.897,-14.332 0.878,-0.78 1.657,-1.463 2.34,-2.145 3.12,-3.12 4.485,-5.948 3.997,-8.19 -0.487,-2.242 -2.34,-3.022 -2.632,-3.12 -1.755,-0.682 -2.827,-1.463 -2.827,-2.145 -0.098,-0.878 1.169,-2.145 2.047,-2.73 7.703,-5.265 9.457,-15.112 10.627,-21.645 0.195,-0.878 0.293,-1.658 0.488,-2.437 5.46,-27.398 34.222,-32.76 34.515,-32.858 25.155,-6.045 37.83,2.34 37.927,2.438 0.195,0.097 0.39,0.195 0.683,0.292 11.895,1.268 17.94,14.138 18.427,19.403 0.78,7.215 -2.242,11.894 -4.192,14.137 l -6.045,-17.55 c -0.195,-0.682 -0.878,-1.073 -1.56,-0.975 -0.683,0.098 -1.268,0.682 -1.268,1.365 -0.585,15.698 -8.579,19.988 -11.797,21.158 -0.975,-5.851 -2.535,-14.821 -3.315,-18.623 -0.195,-0.682 -0.78,-1.17 -1.56,-1.17 -0.683,0 -1.268,0.585 -1.365,1.365 -2.048,25.35 -20.378,28.373 -23.01,28.665 -7.215,-2.632 -10.14,-0.877 -12.48,1.17 l -0.293,0.293 c -2.145,1.755 -3.412,5.557 -3.315,9.75 0.098,4.29 1.755,7.995 4.485,10.042 4.485,3.413 8.971,2.048 11.895,0 l 1.853,20.865 c -4.777,10.238 -13.943,7.118 -14.235,7.02 0,0 0,0 -0.098,0 0,0 -0.097,0 -0.097,0 -0.097,0 -0.097,0 -0.195,0 0,0 0,0 -0.097,0 0,0 0,0 -0.098,0 -0.097,0 -0.097,0 -0.195,0 0,0 -0.097,0 -0.097,0 -0.098,0 -0.098,0 -0.195,0 0,0 -0.098,0 -0.098,0 0,0 -0.097,0 -0.097,0.098 0,0 -0.098,0 -0.098,0.097 0,0 -0.097,0 -0.097,0.098 0,0 -0.098,0.097 -0.098,0.097 0,0 -0.097,0.098 -0.097,0.098 0,0 -0.098,0.097 -0.098,0.097 0,0 0,0.098 -0.097,0.098 0,0.097 -0.098,0.097 -0.098,0.194 0,0 0,0 0,0 -0.585,1.658 -1.56,2.731 -2.925,3.218 z m 5.752,-0.878 c 4.485,0.878 11.505,-0.097 15.698,-8.189 2.827,0.877 5.46,1.56 8.092,2.047 l 0.195,26.617 c -2.047,1.17 -6.045,2.536 -12.967,2.146 -6.045,-0.39 -9.945,-1.658 -12.383,-2.828 z m 8.19,41.341 c -20.377,-6.338 -27.3,-12.871 -29.25,-15.113 5.363,-4.387 12.675,-5.753 14.918,-6.045 0.487,0.487 1.365,1.073 2.535,1.852 0.097,0 0.195,0.098 0.195,0.098 2.73,1.462 7.215,3.12 14.332,3.51 8.191,0.488 12.773,-1.365 15.21,-2.925 0.098,-0.097 0.195,-0.097 0.293,-0.195 0.585,-0.39 1.072,-0.78 1.365,-1.17 2.437,0.488 4.387,1.268 6.143,2.242 1.462,1.95 6.337,12.188 6.434,20.768 0.098,5.07 -0.585,8.287 -1.072,10.043 -2.34,-1.853 -10.043,-6.436 -31.103,-13.065 z m 33.638,15.015 c 0.585,-1.756 1.658,-5.558 1.56,-12.09 -0.098,-5.363 -1.853,-11.31 -3.705,-15.796 1.755,2.145 3.12,4.486 4.387,6.923 2.535,4.485 7.313,22.522 9.75,31.785 -3.802,-3.803 -9.262,-8.483 -11.992,-10.822 z"
             id="path8473" /></g></g><g
         id="shape-537296e8-edae-8085-8002-c25c67b1a682"><g
           class="fills"
           id="fills-537296e8-edae-8085-8002-c25c67b1a682"><path
             class="st0"
             rx="0"
             ry="0"
             d="m 79.657,128.31 c 0,-0.78 -0.682,-1.463 -1.56,-1.365 -6.824,0.292 -16.379,5.558 -20.962,19.012 -1.755,5.168 -2.535,10.628 -3.315,15.893 -0.585,3.997 -1.17,8.092 -2.145,11.992 -2.633,10.53 -8.677,17.941 -15.99,19.988 -0.78,0.195 -1.268,0.975 -0.975,1.755 0.195,0.682 0.78,1.073 1.365,1.073 0.098,0 0.293,0 0.39,-0.098 8.385,-2.34 15.112,-10.53 18.037,-22.132 1.073,-4.096 1.658,-8.288 2.243,-12.286 0.78,-5.167 1.56,-10.432 3.217,-15.405 2.73,-8.19 9.458,-16.672 18.33,-17.062 0.78,0.097 1.463,-0.585 1.365,-1.365 z"
             id="path8477" /></g></g><g
         id="shape-537296e8-edae-8085-8002-c25c67b1d7bd"><g
           class="fills"
           id="fills-537296e8-edae-8085-8002-c25c67b1d7bd"><path
             class="st0"
             rx="0"
             ry="0"
             d="m 73.417,151.32 c 11.603,-6.533 19.5,-18.817 20.67,-32.078 0.098,-0.78 -0.487,-1.559 -1.365,-1.559 -0.78,-0.098 -1.56,0.487 -1.56,1.364 -1.072,12.285 -8.482,23.693 -19.207,29.738 -0.683,0.39 -0.975,1.268 -0.585,1.95 0.292,0.487 0.78,0.78 1.267,0.78 0.293,0 0.585,-0.097 0.78,-0.195 z"
             id="path8481" /></g></g><g
         id="shape-537296e8-edae-8085-8002-c25c67b21ac1"><g
           class="fills"
           id="fills-537296e8-edae-8085-8002-c25c67b21ac1"><path
             class="st0"
             rx="0"
             ry="0"
             d="m 89.31,150.247 c -0.585,0.585 -0.585,1.463 0,2.048 0.292,0.292 0.683,0.488 1.072,0.488 0.39,0 0.683,-0.098 0.975,-0.391 2.73,-2.534 5.753,-5.752 7.995,-9.457 1.658,-2.827 3.608,-7.313 3.12,-12.285 -0.097,-0.78 -0.78,-1.365 -1.56,-1.365 -0.78,0.097 -1.365,0.78 -1.365,1.56 0.39,4.192 -1.267,8.093 -2.73,10.53 -2.145,3.51 -4.972,6.435 -7.507,8.872 z"
             id="path8485" /></g></g><g
         id="shape-537296e8-edae-8085-8002-c25c67b244e6"><g
           class="fills"
           id="fills-537296e8-edae-8085-8002-c25c67b244e6"><path
             class="st0"
             rx="0"
             ry="0"
             d="m 121.192,135.135 c -0.292,0.78 0,1.56 0.78,1.95 0.195,0.098 0.39,0.098 0.585,0.098 0.585,0 1.073,-0.293 1.365,-0.878 2.048,-4.68 1.365,-10.433 -1.657,-14.527 -0.488,-0.683 -1.365,-0.781 -2.047,-0.293 -0.683,0.487 -0.781,1.365 -0.293,2.048 2.437,3.217 2.925,7.897 1.267,11.602 z"
             id="path8489" /></g></g><g
         id="shape-537296e8-edae-8085-8002-c25c67b28290"><g
           class="fills"
           id="fills-537296e8-edae-8085-8002-c25c67b28290"><path
             class="st0"
             rx="0"
             ry="0"
             d="m 74.587,208.26 c 0.683,0 1.365,-0.488 1.463,-1.268 0.682,-5.167 0.682,-10.334 0,-15.502 -0.098,-0.78 -0.878,-1.365 -1.658,-1.268 -0.78,0.098 -1.365,0.878 -1.267,1.658 0.682,4.875 0.585,9.847 0,14.722 -0.098,0.78 0.487,1.56 1.267,1.658 0.098,0 0.195,0 0.195,0 z"
             id="path8493" /></g></g><g
         id="shape-537296e8-edae-8085-8002-c25c67b4b797"><g
           class="fills"
           id="fills-537296e8-edae-8085-8002-c25c67b4b797"><path
             class="st0"
             rx="0"
             ry="0"
             d="m 323.212,178.815 c -3.51,-29.737 -12.87,-49.53 -27.885,-58.793 -14.332,-8.872 -28.762,-4.777 -31.395,-3.9 -33.345,-7.02 -42.12,1.658 -49.335,12.87 0,0 -0.097,0.098 -0.097,0.098 -5.753,11.213 -3.023,15.99 -0.683,20.28 1.17,2.048 2.145,3.802 2.048,6.24 -0.195,6.143 -7.41,9.068 -7.41,9.068 -0.585,0.194 -0.975,0.779 -0.878,1.462 0.098,0.682 0.488,1.17 1.073,1.365 7.02,1.657 12.285,1.268 15.892,-1.17 -0.975,3.803 -2.827,9.068 -6.727,12.188 -0.293,0.194 -1.658,1.365 -1.755,3.217 -0.098,1.658 0.682,3.217 2.34,4.875 2.145,2.047 3.412,3.51 4.192,4.582 -4.582,3.998 -8.482,3.803 -12.187,3.51 -0.488,0 -0.878,-0.097 -1.365,-0.097 -4.583,-0.195 -10.432,2.048 -12.675,6.727 -1.56,3.12 -1.95,8.386 4.485,15.893 2.925,3.413 6.63,5.363 13.845,7.215 2.047,0.585 3.315,1.657 3.802,3.413 0.78,2.729 -0.292,6.337 -1.56,7.702 -3.51,3.998 -7.215,11.31 -5.85,18.525 1.073,5.46 4.778,10.043 11.018,13.553 -1.658,4.582 -2.925,10.042 -3.705,16.477 0,0.097 -1.073,7.605 -1.463,12.09 -0.097,0.585 0.293,1.267 0.878,1.463 0.195,0.097 0.39,0.097 0.585,0.097 0.39,0 0.78,-0.195 1.072,-0.487 0.195,-0.196 18.525,-20.378 34.905,-22.523 3.51,-0.488 6.63,-0.78 9.36,-1.073 11.311,-1.072 18.818,-1.852 30.323,-10.042 12.968,-9.165 13.26,-19.305 13.163,-21.743 20.377,-31.102 15.989,-62.789 15.989,-63.082 z m -99.45,-15.6 c -2.242,2.048 -5.85,2.73 -10.627,2.145 2.535,-1.853 5.557,-4.972 5.655,-9.653 0.097,-3.217 -1.17,-5.557 -2.438,-7.799 -2.242,-3.998 -4.289,-7.703 0.683,-17.453 6.922,-10.627 14.722,-18.135 46.605,-11.408 0.292,0.098 0.585,0 0.78,-0.097 0.195,-0.098 15.015,-5.265 29.347,3.608 6.338,3.899 11.7,9.945 15.893,18.037 5.167,9.847 8.677,22.815 10.627,38.61 0,0.292 4.193,30.517 -14.917,60.353 -8.97,-3.706 -18.038,-4.388 -26.91,-2.243 v -25.35 c 10.92,-8.873 10.53,-22.327 10.14,-26.13 2.242,-1.657 3.022,-4.973 3.315,-7.605 0.487,-4.095 -0.488,-7.312 -2.73,-9.458 -3.998,-3.705 -10.92,-3.022 -12.773,-2.729 -7.215,-3.413 -12.285,-9.848 -15.015,-19.11 -2.047,-7.118 -1.852,-13.358 -1.852,-13.456 0,-0.682 -0.39,-1.267 -0.975,-1.462 -0.585,-0.195 -1.268,0 -1.658,0.585 -6.532,9.36 -15.697,13.26 -28.177,11.895 -0.488,0 -0.878,0.097 -1.17,0.39 -0.293,0.292 -0.488,0.78 -0.39,1.17 0.975,8.58 -0.195,14.333 -3.413,17.16 z m 28.958,54.893 c 6.337,0.292 13.747,-0.586 21.547,-3.315 0.098,0 0.195,-0.098 0.293,-0.098 0.293,-0.195 0.683,-0.39 0.975,-0.585 v 24.375 c -1.95,1.268 -9.458,5.46 -22.718,3.12 z m -32.273,-33.736 c -0.975,-0.975 -1.462,-1.852 -1.462,-2.535 0,-0.682 0.585,-1.072 0.585,-1.072 0,0 0.097,0 0.097,-0.097 7.02,-5.655 8.385,-16.576 8.678,-18.721 1.852,-3.412 2.437,-8.19 1.852,-14.43 11.018,0.78 19.988,-2.534 26.52,-10.042 0.586,7.8 3.706,24.472 18.818,31.297 0.292,0.098 0.585,0.195 0.877,0.098 0.098,0 7.215,-1.365 10.725,1.95 1.56,1.463 2.243,3.802 1.853,6.922 -0.39,3.023 -1.365,5.265 -2.633,5.85 -0.585,0.293 -0.975,0.878 -0.877,1.561 0.097,0.682 2.827,17.842 -12.382,26.714 -19.89,6.923 -36.563,0.488 -39.586,-1.949 -2.632,-2.146 -3.607,-5.558 -3.704,-6.826 1.072,-0.877 3.119,-2.73 3.704,-3.51 0.781,-0.974 0.781,-2.535 0,-3.51 -0.292,-0.389 -1.559,-1.755 -3.899,-0.779 -0.976,0.39 -1.853,0.585 -2.535,0.682 -0.195,-1.072 -0.488,-2.73 -0.78,-3.803 -0.391,-1.852 -1.951,-3.997 -5.851,-7.8 z m -6.435,69.128 c -1.267,-6.63 2.633,-13.163 5.168,-16.088 1.56,-1.852 3.412,-6.337 2.145,-10.432 -0.585,-1.852 -2.048,-4.388 -5.85,-5.363 -7.508,-1.949 -10.238,-3.9 -12.383,-6.337 -4.29,-4.972 -5.654,-9.36 -4.094,-12.773 1.754,-3.51 6.337,-5.265 9.944,-5.069 0.39,0 0.878,0 1.268,0.097 3.705,0.195 8.288,0.487 13.552,-3.607 0.391,1.755 0.781,4.094 0.781,4.094 0.097,0.683 0.682,1.268 1.462,1.268 0.098,0 2.34,0 4.875,-1.073 0.195,-0.097 0.293,-0.097 0.39,-0.097 -0.78,0.78 -3.12,2.925 -3.51,3.217 -0.487,0.293 -0.682,0.781 -0.78,1.463 -0.097,1.463 0.975,6.338 4.875,9.555 2.145,1.755 8.775,4.68 18.038,5.46 v 23.692 c -4.485,0.78 -18.72,4.681 -26.618,23.205 -5.363,-2.925 -8.385,-6.727 -9.263,-11.212 z m 6.338,38.61 c 0.487,-3.803 0.975,-7.702 0.975,-7.8 0.78,-6.63 2.145,-12.188 3.9,-16.77 0,0 0,0 0,0 0.097,-0.098 0.097,-0.195 0.097,-0.293 5.85,-15.21 15.99,-20.377 21.743,-22.035 -3.998,4.973 -10.53,15.795 -12.382,35.003 -6.143,4.095 -11.213,8.872 -14.333,11.895 z m 72.15,-30.907 c -10.823,7.702 -18.038,8.384 -28.957,9.457 -2.828,0.293 -5.948,0.585 -9.458,1.073 -5.46,0.682 -11.115,3.217 -16.282,6.337 2.632,-21.938 11.699,-31.688 13.845,-33.735 3.217,0.585 6.142,0.877 8.775,0.877 10.14,0 15.794,-3.705 17.062,-4.679 0.098,0 0.293,-0.098 0.488,-0.098 8.677,-2.34 17.549,-1.755 26.422,1.95 0.098,2.632 -0.78,10.92 -11.895,18.818 z"
             id="path8497" /></g></g><g
         id="shape-537296e8-edae-8085-8002-c25c67b4dba1"><g
           class="fills"
           id="fills-537296e8-edae-8085-8002-c25c67b4dba1"><path
             class="st0"
             rx="0"
             ry="0"
             d="m 275.048,153.66 c 3.022,2.925 6.727,5.07 10.335,7.02 4.875,2.73 9.36,5.265 12.09,9.652 3.802,6.24 2.535,14.431 0.487,22.328 l -0.098,0.487 c -1.95,7.606 -4.192,16.283 -0.975,23.985 0.195,0.585 0.78,0.878 1.365,0.878 0.195,0 0.39,0 0.585,-0.098 0.781,-0.292 1.073,-1.17 0.781,-1.95 -2.828,-6.824 -0.781,-14.625 1.072,-22.229 l 0.098,-0.488 c 2.145,-8.482 3.51,-17.355 -0.78,-24.57 -3.023,-5.07 -8.19,-7.897 -13.163,-10.628 -3.412,-1.95 -7.02,-3.9 -9.75,-6.629 -5.167,-5.071 -7.41,-12.676 -9.067,-19.306 -0.195,-0.78 -0.975,-1.267 -1.756,-1.072 -0.779,0.195 -1.267,0.975 -1.072,1.755 1.755,7.313 4.192,15.307 9.848,20.865 z"
             id="path8501" /></g></g><g
         id="shape-537296e8-edae-8085-8002-c25c67b510ad"><g
           class="fills"
           id="fills-537296e8-edae-8085-8002-c25c67b510ad"><path
             class="st0"
             rx="0"
             ry="0"
             d="m 275.73,130.553 c 11.018,2.437 21.45,10.919 27.69,22.717 5.07,9.555 7.897,21.06 8.873,36.27 0.097,0.78 0.682,1.365 1.462,1.365 0,0 0.098,0 0.098,0 0.78,-0.097 1.462,-0.78 1.364,-1.56 -0.974,-15.697 -3.997,-27.592 -9.262,-37.44 -6.727,-12.577 -17.745,-21.645 -29.64,-24.277 -0.78,-0.195 -1.56,0.292 -1.755,1.072 -0.195,0.78 0.39,1.658 1.17,1.853 z"
             id="path8505" /></g></g><g
         id="shape-537296e8-edae-8085-8002-c25c67b577c5"><g
           class="fills"
           id="fills-537296e8-edae-8085-8002-c25c67b577c5"><path
             class="st0"
             rx="0"
             ry="0"
             d="m 231.562,136.695 c -0.78,0 -1.462,0.585 -1.56,1.365 0,0.78 0.585,1.462 1.366,1.56 0.487,0 0.877,0 1.364,0 6.631,0 13.748,-2.827 21.158,-8.288 0.682,-0.487 0.78,-1.365 0.293,-2.047 -0.488,-0.683 -1.365,-0.78 -2.048,-0.293 -7.313,5.461 -14.333,8.093 -20.573,7.703 z"
             id="path8509" /></g></g><g
         id="shape-537296e8-edae-8085-8002-c25c67b58716"><g
           class="fills"
           id="fills-537296e8-edae-8085-8002-c25c67b58716"><path
             class="st0"
             rx="0"
             ry="0"
             d="m 244.432,125.678 c 0.78,0.097 1.56,-0.488 1.658,-1.268 0.097,-0.78 -0.488,-1.56 -1.268,-1.657 -9.75,-1.171 -18.135,2.437 -22.62,9.652 -0.39,0.682 -0.195,1.56 0.488,2.048 0.195,0.194 0.487,0.194 0.78,0.194 0.487,0 0.975,-0.292 1.267,-0.682 3.803,-6.337 11.018,-9.36 19.695,-8.287 z"
             id="path8513" /></g></g><g
         id="shape-537296e8-edae-8085-8002-c25c67b5e178"><g
           class="fills"
           id="fills-537296e8-edae-8085-8002-c25c67b5e178"><path
             class="st0"
             rx="0"
             ry="0"
             d="m 224.835,217.522 c -0.683,-0.487 -1.463,-0.877 -2.243,-1.17 -0.877,-0.39 -1.657,-0.877 -2.34,-1.365 -1.365,-1.072 -2.242,-2.924 -2.242,-4.972 0,-2.048 0.78,-3.9 2.145,-5.07 0.585,-0.488 0.682,-1.462 0.195,-2.048 -0.488,-0.584 -1.463,-0.682 -2.048,-0.194 -2.047,1.657 -3.315,4.387 -3.315,7.312 0,2.925 1.268,5.655 3.413,7.313 0.877,0.682 1.852,1.169 2.827,1.657 0.683,0.39 1.365,0.683 1.95,1.073 3.12,2.047 4.973,6.239 5.07,11.212 0.098,2.73 -0.292,5.46 -0.682,8.385 -0.293,1.852 -0.488,3.802 -0.683,5.655 -0.097,0.78 0.585,1.462 1.365,1.56 0,0 0.098,0 0.098,0 0.78,0 1.365,-0.585 1.462,-1.365 0.098,-1.852 0.39,-3.705 0.683,-5.46 0.39,-2.828 0.78,-5.85 0.78,-8.873 -0.195,-6.044 -2.535,-11.017 -6.435,-13.65 z"
             id="path8517" /></g></g><g
         id="shape-537296e8-edae-8085-8002-c25c67b62a27"><g
           class="fills"
           id="fills-537296e8-edae-8085-8002-c25c67b62a27"><path
             class="st0"
             rx="0"
             ry="0"
             d="m 237.315,235.56 c -0.39,0.682 -0.098,1.56 0.585,1.95 0.195,0.098 0.487,0.195 0.682,0.195 0.488,0 1.073,-0.293 1.268,-0.78 2.145,-3.997 1.56,-9.263 -1.365,-12.772 -0.488,-0.586 -1.463,-0.683 -2.048,-0.196 -0.585,0.488 -0.682,1.463 -0.194,2.048 2.242,2.633 2.632,6.532 1.072,9.555 z"
             id="path8521" /></g></g><g
         id="shape-537296e8-edae-8085-8002-c25c67b62a28"><g
           class="fills"
           id="fills-537296e8-edae-8085-8002-c25c67b62a28"><path
             class="st0"
             rx="0"
             ry="0"
             d="m 312.195,201.727 c 0,0 0,0 0,0 z m 0,0 c -0.78,0 -1.463,0.683 -1.463,1.463 -0.195,11.213 -4.582,22.522 -12.09,30.907 -0.585,0.586 -0.487,1.561 0.098,2.048 0.293,0.293 0.585,0.39 0.975,0.39 0.39,0 0.78,-0.195 1.073,-0.488 7.995,-8.872 12.577,-20.864 12.772,-32.857 0.097,-0.78 -0.585,-1.463 -1.365,-1.463 z"
             id="path8525" /></g></g><g
         id="shape-537296e8-edae-8085-8002-c25c67b6b180"><g
           class="fills"
           id="fills-537296e8-edae-8085-8002-c25c67b6b180"><path
             class="st0"
             rx="0"
             ry="0"
             d="m 209.137,106.178 c 1.073,0.194 4.778,1.657 7.508,2.827 7.41,3.023 8.677,3.413 9.75,3.023 1.852,-0.781 1.267,-3.316 0.292,-7.898 -0.292,-1.56 -0.78,-3.802 -0.78,-4.778 7.508,-4.387 11.798,-10.822 12.773,-19.11 1.56,-14.137 -9.945,-26.714 -31.59,-34.515 -25.74,-9.262 -62.4,-9.75 -71.175,3.608 -13.065,19.89 4.972,41.632 7.702,44.752 l 2.243,18.916 c 0.097,0.584 0.39,0.974 0.975,1.169 0.195,0.098 0.292,0.098 0.487,0.098 0.39,0 0.683,-0.098 0.975,-0.39 l 11.7,-10.725 c 4.778,1.658 27.983,9.555 49.14,3.023 z m -50.505,-5.948 -10.335,9.458 -1.95,-16.478 c 0,-0.292 -0.195,-0.585 -0.39,-0.878 -0.097,-0.097 -5.265,-5.654 -8.775,-13.552 -4.582,-10.433 -4.29,-19.793 1.073,-27.885 3.9,-5.948 15.6,-9.067 29.835,-9.067 11.895,0 25.545,2.144 37.927,6.629 9.555,3.413 31.688,13.455 29.738,31.395 -0.878,7.508 -4.778,13.26 -11.7,17.161 -1.56,0.877 -1.073,3.119 -0.098,7.604 0.293,1.268 0.683,3.12 0.78,4.291 -1.657,-0.488 -4.68,-1.755 -6.825,-2.633 -7.02,-2.828 -8.287,-3.217 -9.262,-2.925 -22.23,6.922 -47.97,-3.315 -48.263,-3.412 -0.682,-0.196 -1.267,-0.098 -1.755,0.292 z"
             id="path8529" /></g></g><g
         id="shape-537296e8-edae-8085-8002-c25c67b6dc61"><g
           class="fills"
           id="fills-537296e8-edae-8085-8002-c25c67b6dc61"><path
             class="st0"
             rx="0"
             ry="0"
             d="m 147.42,194.415 c 0.097,0 0.195,0 0.195,0 l 6.142,-0.878 c 0.878,-0.097 1.56,-0.974 1.463,-1.852 -0.098,-0.877 -0.975,-1.56 -1.853,-1.463 l -6.142,0.878 c -0.878,0.097 -1.56,0.975 -1.463,1.853 0.098,0.78 0.878,1.462 1.658,1.462 z"
             id="path8533" /></g></g><g
         id="shape-537296e8-edae-8085-8002-c25c67b726c3"><g
           class="fills"
           id="fills-537296e8-edae-8085-8002-c25c67b726c3"><path
             class="st0"
             rx="0"
             ry="0"
             d="m 149.662,203.483 c 0.878,0.584 1.658,1.17 2.438,1.657 0.292,0.195 0.585,0.195 0.877,0.195 0.586,0 1.17,-0.292 1.463,-0.78 0.487,-0.78 0.195,-1.853 -0.585,-2.34 -0.682,-0.39 -1.463,-0.975 -2.243,-1.463 -1.072,-0.78 -2.144,-1.462 -3.315,-2.144 -0.78,-0.488 -1.852,-0.196 -2.34,0.584 -0.487,0.78 -0.195,1.853 0.585,2.341 1.17,0.487 2.145,1.17 3.12,1.95 z"
             id="path8537" /></g></g><g
         id="shape-537296e8-edae-8085-8002-c25c67b76479"><g
           class="fills"
           id="fills-537296e8-edae-8085-8002-c25c67b76479"><path
             class="st0"
             rx="0"
             ry="0"
             d="m 144.007,205.92 c -0.195,-0.877 -1.17,-1.463 -2.047,-1.267 -0.878,0.194 -1.463,1.169 -1.268,2.047 l 1.56,6.435 c 0.195,0.78 0.878,1.268 1.658,1.268 0.097,0 0.292,0 0.39,-0.098 0.877,-0.195 1.462,-1.17 1.267,-2.048 z"
             id="path8541" /></g></g><g
         id="shape-537296e8-edae-8085-8002-c25c67b7f34d"><g
           class="fills"
           id="fills-537296e8-edae-8085-8002-c25c67b7f34d"><path
             class="st0"
             rx="0"
             ry="0"
             d="m 202.02,87.75 c 0.39,0 0.78,-0.195 0.975,-0.487 0.195,-0.293 0.292,-0.683 0.195,-1.073 l -6.825,-25.74 c -0.098,-0.585 -0.585,-0.878 -1.17,-0.878 h -32.078 c -0.585,0 -1.072,0.39 -1.17,0.878 l -6.825,25.74 c -0.097,0.39 0,0.78 0.195,1.073 0.195,0.292 0.585,0.487 0.975,0.487 h 17.063 v 14.332 c 0,0.683 0.585,1.268 1.267,1.268 0.683,0 1.268,-0.585 1.268,-1.268 V 87.75 h 6.532 v 14.332 c 0,0.683 0.585,1.268 1.268,1.268 0.682,0 1.267,-0.585 1.267,-1.268 V 87.75 Z m -29.152,-2.437 0.584,-6.143 h 11.505 l 0.585,6.143 z M 161.85,70.59 h 9.945 l -0.585,6.143 h -11.018 z m 12.382,0 h 9.945 l 0.585,6.143 h -11.017 z m 0.195,-2.437 0.585,-6.143 h 8.385 l 0.585,6.143 z m 23.693,8.58 H 187.2 l -0.585,-6.143 h 9.945 z m -10.238,8.58 -0.585,-6.143 h 11.408 l 1.657,6.143 z m 7.995,-17.16 h -9.457 l -0.585,-6.143 h 8.385 z m -31.785,-6.045 h 8.385 l -0.585,6.142 h -9.457 z M 159.51,79.17 h 11.407 l -0.585,6.143 H 157.95 Z"
             id="path8545" /></g></g><g
         id="shape-537296e8-edae-8085-8002-c25c67b8acb1"><g
           class="fills"
           id="fills-537296e8-edae-8085-8002-c25c67b8acb1"><path
             class="st0"
             rx="0"
             ry="0"
             d="m 155.415,71.37 c 0.097,0 0.195,0.097 0.39,0.097 0.39,0 0.682,-0.195 0.878,-0.585 l 1.365,-3.412 c 0.195,0.097 0.487,0.195 0.682,0.293 0.097,0 0.195,0 0.293,0 0.39,0 0.78,-0.293 0.877,-0.683 0.098,-0.488 -0.097,-0.975 -0.682,-1.17 -0.488,-0.097 -0.975,-0.293 -1.365,-0.585 0,0 0,0 0,0 0,0 0,0 0,0 -2.535,-1.365 -4.095,-4.193 -3.705,-7.118 0.487,-3.997 3.997,-6.825 7.994,-6.337 3.51,0.39 6.24,3.217 6.338,6.825 0,0.488 0.487,0.877 0.975,0.877 0.487,0 0.877,-0.487 0.877,-0.975 0,-0.194 0,-0.292 0,-0.487 l 3.803,-0.585 c 0.488,-0.097 0.877,-0.585 0.78,-1.072 -0.097,-0.488 -0.585,-0.878 -1.072,-0.781 l -3.9,0.585 c -0.293,-0.974 -0.78,-1.852 -1.365,-2.632 l 3.315,-2.633 c 0.39,-0.292 0.487,-0.877 0.195,-1.364 -0.293,-0.391 -0.878,-0.488 -1.366,-0.195 l -3.412,2.729 c -0.683,-0.584 -1.463,-1.072 -2.243,-1.462 l 1.755,-4.29 c 0.195,-0.488 0,-1.073 -0.487,-1.17 -0.488,-0.195 -1.073,0 -1.17,0.487 l -1.755,4.388 c -0.292,-0.098 -0.682,-0.098 -0.975,-0.195 -0.488,-0.098 -1.072,-0.098 -1.56,0 l -0.682,-4.875 c -0.098,-0.487 -0.585,-0.877 -1.073,-0.78 -0.487,0.097 -0.877,0.585 -0.78,1.072 l 0.683,4.875 c -0.78,0.196 -1.56,0.488 -2.243,0.976 l -3.12,-3.998 c -0.292,-0.39 -0.878,-0.487 -1.365,-0.195 -0.39,0.292 -0.487,0.877 -0.195,1.365 l 3.12,3.9 c -0.585,0.585 -1.17,1.17 -1.56,1.852 l -4.582,-1.852 c -0.488,-0.195 -1.073,0 -1.17,0.487 -0.195,0.488 0,1.073 0.487,1.171 l 4.485,1.754 c -0.292,0.683 -0.39,1.365 -0.487,2.145 0,0.196 0,0.293 0,0.488 l -4.68,0.682 c -0.488,0.098 -0.878,0.585 -0.78,1.073 0.097,0.487 0.487,0.78 0.974,0.78 0,0 0.098,0 0.098,0 l 4.387,-0.682 c 0.098,0.974 0.39,1.852 0.781,2.632 l -3.316,2.632 c -0.389,0.293 -0.487,0.878 -0.195,1.365 0.195,0.196 0.488,0.391 0.781,0.391 0.195,0 0.39,-0.098 0.585,-0.195 l 3.12,-2.536 c 0.585,0.78 1.364,1.463 2.242,2.048 l -1.365,3.607 c -0.293,0.488 -0.098,1.073 0.39,1.268 z"
             id="path8549" /></g></g><g
         id="shape-537296e8-edae-8085-8002-c25c67b90236"><g
           class="fills"
           id="fills-537296e8-edae-8085-8002-c25c67b90236"><path
             class="st0"
             rx="0"
             ry="0"
             d="m 204.847,80.047 c 0,0.585 0.488,1.17 1.17,1.17 h 2.438 c 0.78,2.341 2.437,4.29 4.68,5.461 1.462,0.779 3.022,1.169 4.582,1.169 0.975,0 1.95,-0.194 2.925,-0.487 0.585,-0.195 1.073,-0.39 1.658,-0.682 0.292,-0.195 0.585,-0.488 0.682,-0.878 0.098,-0.39 0.098,-0.78 -0.097,-1.073 -0.39,-0.682 -1.17,-0.974 -1.755,-0.682 l -0.098,0.097 c -1.657,0.878 -3.51,0.975 -5.362,0.488 -1.755,-0.585 -3.218,-1.755 -3.998,-3.413 h 5.265 c 0.585,0 1.17,-0.487 1.17,-1.17 0,-0.585 -0.487,-1.169 -1.17,-1.169 h -6.045 c -0.097,-0.683 -0.097,-1.365 0,-1.95 h 6.045 c 0.585,0 1.17,-0.488 1.17,-1.171 0,-0.682 -0.487,-1.17 -1.17,-1.17 h -5.362 c 1.657,-3.12 5.46,-4.582 8.775,-3.217 0.195,0.097 0.39,0.195 0.585,0.292 0.682,0.391 1.56,0.098 1.95,-0.584 0.39,-0.683 0.097,-1.561 -0.585,-1.95 -2.34,-1.171 -4.973,-1.463 -7.508,-0.683 -2.535,0.78 -4.582,2.535 -5.752,4.875 -0.195,0.39 -0.39,0.78 -0.488,1.267 h -2.437 c -0.293,0 -0.585,0.098 -0.78,0.293 -0.195,0.195 -0.293,0.487 -0.293,0.78 0,0.585 0.488,1.17 1.17,1.17 h 1.95 c -0.097,0.683 -0.097,1.365 0,1.95 h -1.95 c -0.78,0.195 -1.365,0.682 -1.365,1.267 z"
             id="path8553" /></g></g></g></g>
</svg>
