<svg xmlns:xlink="http://www.w3.org/1999/xlink" width="375.227" xmlns="http://www.w3.org/2000/svg" height="362.775" id="screenshot-471d1b56-7c24-80ba-8002-caf9a74069cd" viewBox="0 -18.875 375.227 362.775" style="-webkit-print-color-adjust: exact;" fill="none" version="1.1"><g xmlns:xlink="http://www.w3.org/1999/xlink" xml:space="preserve" x="0px" id="shape-471d1b56-7c24-80ba-8002-caf9a74069cd" style="fill: rgb(0, 0, 0);" ry="0" rx="0" y="0px" version="1.1"><g id="shape-471d1b56-7c24-80ba-8002-caf9a740f958"><style type="text/css" rx="0" ry="0" style="fill: rgb(0, 0, 0);">.st0{fill:#004B00;}</style></g><g id="shape-471d1b56-7c24-80ba-8002-caf9a7411ee2" rx="0" ry="0" style="fill: rgb(0, 0, 0);"><g id="shape-471d1b56-7c24-80ba-8002-caf9a7419916"><g class="fills" id="fills-471d1b56-7c24-80ba-8002-caf9a7419916"><rect class="st0" rx="0" ry="0" x="67.59999999999991" y="23.799999999999955" transform="matrix(1.000000, 0.000000, 0.000000, 1.000000, 0.000000, 0.000000)" width="9" height="2"/></g></g><g id="shape-471d1b56-7c24-80ba-8002-caf9a7423569"><g class="fills" id="fills-471d1b56-7c24-80ba-8002-caf9a7423569"><rect class="st0" rx="0" ry="0" x="81.59999999999991" y="23.799999999999955" transform="matrix(1.000000, 0.000000, 0.000000, 1.000000, 0.000000, 0.000000)" width="9" height="2"/></g></g><g id="shape-471d1b56-7c24-80ba-8002-caf9a7425dcf"><g class="fills" id="fills-471d1b56-7c24-80ba-8002-caf9a7425dcf"><rect class="st0" rx="0" ry="0" x="164.29999999999995" y="318.0999999999999" transform="matrix(1.000000, 0.000000, 0.000000, 1.000000, 0.000000, 0.000000)" width="9" height="2"/></g></g><g id="shape-471d1b56-7c24-80ba-8002-caf9a7425dd0"><g class="fills" id="fills-471d1b56-7c24-80ba-8002-caf9a7425dd0"><rect class="st0" rx="0" ry="0" x="80.29999999999995" y="318.0999999999999" transform="matrix(1.000000, 0.000000, 0.000000, 1.000000, 0.000000, 0.000000)" width="9" height="2"/></g></g><g id="shape-471d1b56-7c24-80ba-8002-caf9a7429ebd"><g class="fills" id="fills-471d1b56-7c24-80ba-8002-caf9a7429ebd"><rect class="st0" rx="0" ry="0" x="66.29999999999995" y="318.0999999999999" transform="matrix(1.000000, 0.000000, 0.000000, 1.000000, 0.000000, 0.000000)" width="9" height="2"/></g></g><g id="shape-471d1b56-7c24-80ba-8002-caf9a742c8a1"><g class="fills" id="fills-471d1b56-7c24-80ba-8002-caf9a742c8a1"><path class="st0" rx="0" ry="0" d="M28.700,37.900L30.200,39.200C32.200,37.000,34.400,35.100,36.800,33.400L35.600,31.800C33.100,33.600,30.800,35.600,28.700,37.900ZZ"/></g></g><g id="shape-471d1b56-7c24-80ba-8002-caf9a74330e7"><g class="fills" id="fills-471d1b56-7c24-80ba-8002-caf9a74330e7"><path class="st0" rx="0" ry="0" d="M38.900,314.200C41.600,315.800,44.400,317.000,47.300,318.000L47.900,316.100C45.100,315.200,42.400,314.000,39.900,312.500L38.900,314.200ZZ"/></g></g><g id="shape-471d1b56-7c24-80ba-8002-caf9a743623d"><g class="fills" id="fills-471d1b56-7c24-80ba-8002-caf9a743623d"><path class="st0" rx="0" ry="0" d="M52.600,317.300L52.200,319.300C55.000,319.800,57.800,320.100,60.700,320.100L61.400,320.100L61.400,318.100L60.700,318.100C57.900,318.100,55.200,317.800,52.600,317.300ZZ"/></g></g><g id="shape-471d1b56-7c24-80ba-8002-caf9a74399b7"><g class="fills" id="fills-471d1b56-7c24-80ba-8002-caf9a74399b7"><path class="st0" rx="0" ry="0" d="M49.000,27.500L48.400,25.600C45.500,26.500,42.600,27.700,39.900,29.100L40.900,30.900C43.500,29.400,46.200,28.300,49.000,27.500ZZ"/></g></g><g id="shape-471d1b56-7c24-80ba-8002-caf9a743c29d"><g class="fills" id="fills-471d1b56-7c24-80ba-8002-caf9a743c29d"><rect class="st0" rx="0" ry="0" x="123.59999999999991" y="23.799999999999955" transform="matrix(1.000000, 0.000000, 0.000000, 1.000000, 0.000000, 0.000000)" width="9" height="2"/></g></g><g id="shape-471d1b56-7c24-80ba-8002-caf9a743c29e"><g class="fills" id="fills-471d1b56-7c24-80ba-8002-caf9a743c29e"><rect class="st0" rx="0" ry="0" x="137.5999999999999" y="23.799999999999955" transform="matrix(1.000000, 0.000000, 0.000000, 1.000000, 0.000000, 0.000000)" width="9" height="2"/></g></g><g id="shape-471d1b56-7c24-80ba-8002-caf9a74437b7"><g class="fills" id="fills-471d1b56-7c24-80ba-8002-caf9a74437b7"><rect class="st0" rx="0" ry="0" x="136.29999999999995" y="318.0999999999999" transform="matrix(1.000000, 0.000000, 0.000000, 1.000000, 0.000000, 0.000000)" width="9" height="2"/></g></g><g id="shape-471d1b56-7c24-80ba-8002-caf9a744498a"><g class="fills" id="fills-471d1b56-7c24-80ba-8002-caf9a744498a"><rect class="st0" rx="0" ry="0" x="150.29999999999995" y="318.0999999999999" transform="matrix(1.000000, 0.000000, 0.000000, 1.000000, 0.000000, 0.000000)" width="9" height="2"/></g></g><g id="shape-471d1b56-7c24-80ba-8002-caf9a744498b"><g class="fills" id="fills-471d1b56-7c24-80ba-8002-caf9a744498b"><path class="st0" rx="0" ry="0" d="M29.400,303.700L27.900,305.000C29.900,307.300,32.200,309.400,34.600,311.300L35.800,309.700C33.500,308.000,31.300,306.000,29.400,303.700ZZ"/></g></g><g id="shape-471d1b56-7c24-80ba-8002-caf9a74484be"><g class="fills" id="fills-471d1b56-7c24-80ba-8002-caf9a74484be"><rect class="st0" rx="0" ry="0" x="151.5999999999999" y="23.799999999999955" transform="matrix(1.000000, 0.000000, 0.000000, 1.000000, 0.000000, 0.000000)" width="9" height="2"/></g></g><g id="shape-471d1b56-7c24-80ba-8002-caf9a744f6fb"><g class="fills" id="fills-471d1b56-7c24-80ba-8002-caf9a744f6fb"><rect class="st0" rx="0" ry="0" x="108.29999999999995" y="318.0999999999999" transform="matrix(1.000000, 0.000000, 0.000000, 1.000000, 0.000000, 0.000000)" width="9" height="2"/></g></g><g id="shape-471d1b56-7c24-80ba-8002-caf9a744f6fc"><g class="fills" id="fills-471d1b56-7c24-80ba-8002-caf9a744f6fc"><rect class="st0" rx="0" ry="0" x="95.59999999999991" y="23.799999999999955" transform="matrix(1.000000, 0.000000, 0.000000, 1.000000, 0.000000, 0.000000)" width="9" height="2"/></g></g><g id="shape-471d1b56-7c24-80ba-8002-caf9a7452679"><g class="fills" id="fills-471d1b56-7c24-80ba-8002-caf9a7452679"><rect class="st0" rx="0" ry="0" x="94.29999999999995" y="318.0999999999999" transform="matrix(1.000000, 0.000000, 0.000000, 1.000000, 0.000000, 0.000000)" width="9" height="2"/></g></g><g id="shape-471d1b56-7c24-80ba-8002-caf9a745267a"><g class="fills" id="fills-471d1b56-7c24-80ba-8002-caf9a745267a"><rect class="st0" rx="0" ry="0" x="109.59999999999991" y="23.799999999999955" transform="matrix(1.000000, 0.000000, 0.000000, 1.000000, 0.000000, 0.000000)" width="9" height="2"/></g></g><g id="shape-471d1b56-7c24-80ba-8002-caf9a74573e7"><g class="fills" id="fills-471d1b56-7c24-80ba-8002-caf9a74573e7"><rect class="st0" rx="0" ry="0" x="122.29999999999995" y="318.0999999999999" transform="matrix(1.000000, 0.000000, 0.000000, 1.000000, 0.000000, 0.000000)" width="9" height="2"/></g></g><g id="shape-471d1b56-7c24-80ba-8002-caf9a745a5cd"><g class="fills" id="fills-471d1b56-7c24-80ba-8002-caf9a745a5cd"><path class="st0" rx="0" ry="0" d="M60.700,25.800L62.600,25.800L62.600,23.800L60.700,23.800C58.300,23.800,55.900,24.000,53.500,24.400L53.800,26.400C56.000,26.000,58.300,25.800,60.700,25.800ZZ"/></g></g><g id="shape-471d1b56-7c24-80ba-8002-caf9a745a5ce"><g class="fills" id="fills-471d1b56-7c24-80ba-8002-caf9a745a5ce"><rect class="st0" rx="0" ry="0" x="17.5" y="124.79999999999995" transform="matrix(1.000000, 0.000000, 0.000000, 1.000000, 0.000000, 0.000000)" width="2" height="9"/></g></g><g id="shape-471d1b56-7c24-80ba-8002-caf9a745f55b"><g class="fills" id="fills-471d1b56-7c24-80ba-8002-caf9a745f55b"><rect class="st0" rx="0" ry="0" x="17.5" y="110.79999999999995" transform="matrix(1.000000, 0.000000, 0.000000, 1.000000, 0.000000, 0.000000)" width="2" height="9"/></g></g><g id="shape-471d1b56-7c24-80ba-8002-caf9a74632fd"><g class="fills" id="fills-471d1b56-7c24-80ba-8002-caf9a74632fd"><rect class="st0" rx="0" ry="0" x="17.5" y="96.79999999999995" transform="matrix(1.000000, 0.000000, 0.000000, 1.000000, 0.000000, 0.000000)" width="2" height="9"/></g></g><g id="shape-471d1b56-7c24-80ba-8002-caf9a74661f3"><g class="fills" id="fills-471d1b56-7c24-80ba-8002-caf9a74661f3"><rect class="st0" rx="0" ry="0" x="17.5" y="138.79999999999995" transform="matrix(1.000000, 0.000000, 0.000000, 1.000000, 0.000000, 0.000000)" width="2" height="9"/></g></g><g id="shape-471d1b56-7c24-80ba-8002-caf9a74661f4"><g class="fills" id="fills-471d1b56-7c24-80ba-8002-caf9a74661f4"><rect class="st0" rx="0" ry="0" x="17.5" y="152.79999999999995" transform="matrix(1.000000, 0.000000, 0.000000, 1.000000, 0.000000, 0.000000)" width="2" height="9"/></g></g><g id="shape-471d1b56-7c24-80ba-8002-caf9a74690c8"><g class="fills" id="fills-471d1b56-7c24-80ba-8002-caf9a74690c8"><path class="st0" rx="0" ry="0" d="M21.000,49.900L22.800,50.700C24.000,48.000,25.400,45.400,27.100,43.100L25.500,41.900C23.700,44.400,22.200,47.100,21.000,49.900ZZ"/></g></g><g id="shape-471d1b56-7c24-80ba-8002-caf9a746d15e"><g class="fills" id="fills-471d1b56-7c24-80ba-8002-caf9a746d15e"><rect class="st0" rx="0" ry="0" x="17.5" y="166.79999999999995" transform="matrix(1.000000, 0.000000, 0.000000, 1.000000, 0.000000, 0.000000)" width="2" height="9"/></g></g><g id="shape-471d1b56-7c24-80ba-8002-caf9a746d15f"><g class="fills" id="fills-471d1b56-7c24-80ba-8002-caf9a746d15f"><path class="st0" rx="0" ry="0" d="M21.200,55.300L19.300,54.700C18.400,57.600,17.900,60.700,17.700,63.700L19.700,63.800C19.800,61.000,20.400,58.100,21.200,55.300ZZ"/></g></g><g id="shape-471d1b56-7c24-80ba-8002-caf9a74715c9"><g class="fills" id="fills-471d1b56-7c24-80ba-8002-caf9a74715c9"><path class="st0" rx="0" ry="0" d="M341.500,57.800C340.900,54.800,339.900,51.900,338.600,49.100L336.800,49.900C338.000,52.600,338.900,55.400,339.600,58.200L341.500,57.800ZZ"/></g></g><g id="shape-471d1b56-7c24-80ba-8002-caf9a7477bab"><g class="fills" id="fills-471d1b56-7c24-80ba-8002-caf9a7477bab"><rect class="st0" rx="0" ry="0" x="17.5" y="68.79999999999995" transform="matrix(1.000000, 0.000000, 0.000000, 1.000000, 0.000000, 0.000000)" width="2" height="9"/></g></g><g id="shape-471d1b56-7c24-80ba-8002-caf9a7477bac"><g class="fills" id="fills-471d1b56-7c24-80ba-8002-caf9a7477bac"><rect class="st0" rx="0" ry="0" x="17.5" y="82.79999999999995" transform="matrix(1.000000, 0.000000, 0.000000, 1.000000, 0.000000, 0.000000)" width="2" height="9"/></g></g><g id="shape-471d1b56-7c24-80ba-8002-caf9a74791d6"><g class="fills" id="fills-471d1b56-7c24-80ba-8002-caf9a74791d6"><rect class="st0" rx="0" ry="0" x="17.5" y="250.79999999999995" transform="matrix(1.000000, 0.000000, 0.000000, 1.000000, 0.000000, 0.000000)" width="2" height="9"/></g></g><g id="shape-471d1b56-7c24-80ba-8002-caf9a747c08b"><g class="fills" id="fills-471d1b56-7c24-80ba-8002-caf9a747c08b"><rect class="st0" rx="0" ry="0" x="17.5" y="180.79999999999995" transform="matrix(1.000000, 0.000000, 0.000000, 1.000000, 0.000000, 0.000000)" width="2" height="9"/></g></g><g id="shape-471d1b56-7c24-80ba-8002-caf9a747c08c"><g class="fills" id="fills-471d1b56-7c24-80ba-8002-caf9a747c08c"><path class="st0" rx="0" ry="0" d="M19.500,278.800L17.500,278.900C17.600,282.000,18.100,285.000,18.900,288.000L20.800,287.500C20.100,284.600,19.700,281.700,19.500,278.800ZZ"/></g></g><g id="shape-471d1b56-7c24-80ba-8002-caf9a7481e3c"><g class="fills" id="fills-471d1b56-7c24-80ba-8002-caf9a7481e3c"><path class="st0" rx="0" ry="0" d="M20.500,292.800C21.600,295.600,23.100,298.400,24.800,300.900L26.500,299.800C24.900,297.400,23.500,294.800,22.400,292.000L20.500,292.800ZZ"/></g></g><g id="shape-471d1b56-7c24-80ba-8002-caf9a7485b42"><g class="fills" id="fills-471d1b56-7c24-80ba-8002-caf9a7485b42"><rect class="st0" rx="0" ry="0" x="17.5" y="264.79999999999995" transform="matrix(1.000000, 0.000000, 0.000000, 1.000000, 0.000000, 0.000000)" width="2" height="9"/></g></g><g id="shape-471d1b56-7c24-80ba-8002-caf9a7485b43"><g class="fills" id="fills-471d1b56-7c24-80ba-8002-caf9a7485b43"><rect class="st0" rx="0" ry="0" x="17.5" y="208.79999999999995" transform="matrix(1.000000, 0.000000, 0.000000, 1.000000, 0.000000, 0.000000)" width="2" height="9"/></g></g><g id="shape-471d1b56-7c24-80ba-8002-caf9a7488255"><g class="fills" id="fills-471d1b56-7c24-80ba-8002-caf9a7488255"><rect class="st0" rx="0" ry="0" x="17.5" y="194.79999999999995" transform="matrix(1.000000, 0.000000, 0.000000, 1.000000, 0.000000, 0.000000)" width="2" height="9"/></g></g><g id="shape-471d1b56-7c24-80ba-8002-caf9a7488256"><g class="fills" id="fills-471d1b56-7c24-80ba-8002-caf9a7488256"><rect class="st0" rx="0" ry="0" x="17.5" y="236.79999999999995" transform="matrix(1.000000, 0.000000, 0.000000, 1.000000, 0.000000, 0.000000)" width="2" height="9"/></g></g><g id="shape-471d1b56-7c24-80ba-8002-caf9a748cb5b"><g class="fills" id="fills-471d1b56-7c24-80ba-8002-caf9a748cb5b"><rect class="st0" rx="0" ry="0" x="17.5" y="222.79999999999995" transform="matrix(1.000000, 0.000000, 0.000000, 1.000000, 0.000000, 0.000000)" width="2" height="9"/></g></g><g id="shape-471d1b56-7c24-80ba-8002-caf9a748cb5c"><g class="fills" id="fills-471d1b56-7c24-80ba-8002-caf9a748cb5c"><rect class="st0" rx="0" ry="0" x="262.29999999999995" y="318.0999999999999" transform="matrix(1.000000, 0.000000, 0.000000, 1.000000, 0.000000, 0.000000)" width="9" height="2"/></g></g><g id="shape-471d1b56-7c24-80ba-8002-caf9a7491654"><g class="fills" id="fills-471d1b56-7c24-80ba-8002-caf9a7491654"><rect class="st0" rx="0" ry="0" x="340.5" y="245" transform="matrix(1.000000, 0.000000, 0.000000, 1.000000, 0.000000, 0.000000)" width="2" height="9"/></g></g><g id="shape-471d1b56-7c24-80ba-8002-caf9a749548e"><g class="fills" id="fills-471d1b56-7c24-80ba-8002-caf9a749548e"><rect class="st0" rx="0" ry="0" x="340.5" y="259" transform="matrix(1.000000, 0.000000, 0.000000, 1.000000, 0.000000, 0.000000)" width="2" height="9"/></g></g><g id="shape-471d1b56-7c24-80ba-8002-caf9a749548f"><g class="fills" id="fills-471d1b56-7c24-80ba-8002-caf9a749548f"><rect class="st0" rx="0" ry="0" x="340.5" y="189" transform="matrix(1.000000, 0.000000, 0.000000, 1.000000, 0.000000, 0.000000)" width="2" height="9"/></g></g><g id="shape-471d1b56-7c24-80ba-8002-caf9a749b0bb"><g class="fills" id="fills-471d1b56-7c24-80ba-8002-caf9a749b0bb"><rect class="st0" rx="0" ry="0" x="340.5" y="217" transform="matrix(1.000000, 0.000000, 0.000000, 1.000000, 0.000000, 0.000000)" width="2" height="9"/></g></g><g id="shape-471d1b56-7c24-80ba-8002-caf9a749e27b"><g class="fills" id="fills-471d1b56-7c24-80ba-8002-caf9a749e27b"><rect class="st0" rx="0" ry="0" x="340.5" y="203" transform="matrix(1.000000, 0.000000, 0.000000, 1.000000, 0.000000, 0.000000)" width="2" height="9"/></g></g><g id="shape-471d1b56-7c24-80ba-8002-caf9a749e27c"><g class="fills" id="fills-471d1b56-7c24-80ba-8002-caf9a749e27c"><rect class="st0" rx="0" ry="0" x="340.5" y="231" transform="matrix(1.000000, 0.000000, 0.000000, 1.000000, 0.000000, 0.000000)" width="2" height="9"/></g></g><g id="shape-471d1b56-7c24-80ba-8002-caf9a74a24a4"><g class="fills" id="fills-471d1b56-7c24-80ba-8002-caf9a74a24a4"><path class="st0" rx="0" ry="0" d="M328.500,306.000L329.900,307.400C332.100,305.200,334.000,302.800,335.700,300.200L334.000,299.100C332.400,301.600,330.600,303.900,328.500,306.000ZZ"/></g></g><g id="shape-471d1b56-7c24-80ba-8002-caf9a74a4033"><g class="fills" id="fills-471d1b56-7c24-80ba-8002-caf9a74a4033"><path class="st0" rx="0" ry="0" d="M340.500,276.900C340.500,278.500,340.400,280.200,340.200,281.800L342.200,282.000C342.400,280.300,342.500,278.600,342.500,276.800L342.500,273.000L340.500,273.000L340.500,276.900ZZ"/></g></g><g id="shape-471d1b56-7c24-80ba-8002-caf9a74aac33"><g class="fills" id="fills-471d1b56-7c24-80ba-8002-caf9a74aac33"><path class="st0" rx="0" ry="0" d="M329.200,38.700C331.200,40.800,333.000,43.200,334.500,45.700L336.200,44.700C334.600,42.100,332.700,39.600,330.600,37.400L329.200,38.700ZZ"/></g></g><g id="shape-471d1b56-7c24-80ba-8002-caf9a74ad400"><g class="fills" id="fills-471d1b56-7c24-80ba-8002-caf9a74ad400"><path class="st0" rx="0" ry="0" d="M336.400,294.900L338.200,295.800C339.500,293.000,340.600,290.100,341.300,287.100L339.400,286.600C338.700,289.500,337.700,292.300,336.400,294.900ZZ"/></g></g><g id="shape-471d1b56-7c24-80ba-8002-caf9a74b0741"><g class="fills" id="fills-471d1b56-7c24-80ba-8002-caf9a74b0741"><rect class="st0" rx="0" ry="0" x="165.5999999999999" y="23.799999999999955" transform="matrix(1.000000, 0.000000, 0.000000, 1.000000, 0.000000, 0.000000)" width="9" height="2"/></g></g><g id="shape-471d1b56-7c24-80ba-8002-caf9a74b54d6"><g class="fills" id="fills-471d1b56-7c24-80ba-8002-caf9a74b54d6"><rect class="st0" rx="0" ry="0" x="340.5" y="77" transform="matrix(1.000000, 0.000000, 0.000000, 1.000000, 0.000000, 0.000000)" width="2" height="9"/></g></g><g id="shape-471d1b56-7c24-80ba-8002-caf9a74b54d7"><g class="fills" id="fills-471d1b56-7c24-80ba-8002-caf9a74b54d7"><rect class="st0" rx="0" ry="0" x="340.5" y="105" transform="matrix(1.000000, 0.000000, 0.000000, 1.000000, 0.000000, 0.000000)" width="2" height="9"/></g></g><g id="shape-471d1b56-7c24-80ba-8002-caf9a74ba276"><g class="fills" id="fills-471d1b56-7c24-80ba-8002-caf9a74ba276"><rect class="st0" rx="0" ry="0" x="340.5" y="91" transform="matrix(1.000000, 0.000000, 0.000000, 1.000000, 0.000000, 0.000000)" width="2" height="9"/></g></g><g id="shape-471d1b56-7c24-80ba-8002-caf9a74bfa80"><g class="fills" id="fills-471d1b56-7c24-80ba-8002-caf9a74bfa80"><path class="st0" rx="0" ry="0" d="M342.300,62.900L340.300,63.100C340.400,64.400,340.500,65.700,340.500,67.000L340.500,72.000L342.500,72.000L342.500,67.000C342.500,65.600,342.400,64.200,342.300,62.900ZZ"/></g></g><g id="shape-471d1b56-7c24-80ba-8002-caf9a74bfa81"><g class="fills" id="fills-471d1b56-7c24-80ba-8002-caf9a74bfa81"><rect class="st0" rx="0" ry="0" x="340.5" y="147" transform="matrix(1.000000, 0.000000, 0.000000, 1.000000, 0.000000, 0.000000)" width="2" height="9"/></g></g><g id="shape-471d1b56-7c24-80ba-8002-caf9a74c1038"><g class="fills" id="fills-471d1b56-7c24-80ba-8002-caf9a74c1038"><rect class="st0" rx="0" ry="0" x="340.5" y="175" transform="matrix(1.000000, 0.000000, 0.000000, 1.000000, 0.000000, 0.000000)" width="2" height="9"/></g></g><g id="shape-471d1b56-7c24-80ba-8002-caf9a74c7769"><g class="fills" id="fills-471d1b56-7c24-80ba-8002-caf9a74c7769"><path class="st0" rx="0" ry="0" d="M318.400,30.500C321.000,31.900,323.400,33.500,325.700,35.400L327.000,33.900C324.600,31.900,322.100,30.200,319.300,28.800L318.400,30.500ZZ"/></g></g><g id="shape-471d1b56-7c24-80ba-8002-caf9a74c776a"><g class="fills" id="fills-471d1b56-7c24-80ba-8002-caf9a74c776a"><rect class="st0" rx="0" ry="0" x="340.5" y="161" transform="matrix(1.000000, 0.000000, 0.000000, 1.000000, 0.000000, 0.000000)" width="2" height="9"/></g></g><g id="shape-471d1b56-7c24-80ba-8002-caf9a74caa94"><g class="fills" id="fills-471d1b56-7c24-80ba-8002-caf9a74caa94"><rect class="st0" rx="0" ry="0" x="340.5" y="133" transform="matrix(1.000000, 0.000000, 0.000000, 1.000000, 0.000000, 0.000000)" width="2" height="9"/></g></g><g id="shape-471d1b56-7c24-80ba-8002-caf9a74caa95"><g class="fills" id="fills-471d1b56-7c24-80ba-8002-caf9a74caa95"><rect class="st0" rx="0" ry="0" x="340.5" y="119" transform="matrix(1.000000, 0.000000, 0.000000, 1.000000, 0.000000, 0.000000)" width="2" height="9"/></g></g><g id="shape-471d1b56-7c24-80ba-8002-caf9a74cd200"><g class="fills" id="fills-471d1b56-7c24-80ba-8002-caf9a74cd200"><rect class="st0" rx="0" ry="0" x="220.29999999999995" y="318.0999999999999" transform="matrix(1.000000, 0.000000, 0.000000, 1.000000, 0.000000, 0.000000)" width="9" height="2"/></g></g><g id="shape-471d1b56-7c24-80ba-8002-caf9a74cd201"><g class="fills" id="fills-471d1b56-7c24-80ba-8002-caf9a74cd201"><rect class="st0" rx="0" ry="0" x="207.5999999999999" y="23.799999999999955" transform="matrix(1.000000, 0.000000, 0.000000, 1.000000, 0.000000, 0.000000)" width="9" height="2"/></g></g><g id="shape-471d1b56-7c24-80ba-8002-caf9a74d1b60"><g class="fills" id="fills-471d1b56-7c24-80ba-8002-caf9a74d1b60"><rect class="st0" rx="0" ry="0" x="206.29999999999995" y="318.0999999999999" transform="matrix(1.000000, 0.000000, 0.000000, 1.000000, 0.000000, 0.000000)" width="9" height="2"/></g></g><g id="shape-471d1b56-7c24-80ba-8002-caf9a74d46b6"><g class="fills" id="fills-471d1b56-7c24-80ba-8002-caf9a74d46b6"><rect class="st0" rx="0" ry="0" x="234.29999999999995" y="318.0999999999999" transform="matrix(1.000000, 0.000000, 0.000000, 1.000000, 0.000000, 0.000000)" width="9" height="2"/></g></g><g id="shape-471d1b56-7c24-80ba-8002-caf9a74d46b7"><g class="fills" id="fills-471d1b56-7c24-80ba-8002-caf9a74d46b7"><rect class="st0" rx="0" ry="0" x="235.5999999999999" y="23.799999999999955" transform="matrix(1.000000, 0.000000, 0.000000, 1.000000, 0.000000, 0.000000)" width="9" height="2"/></g></g><g id="shape-471d1b56-7c24-80ba-8002-caf9a74dabc8"><g class="fills" id="fills-471d1b56-7c24-80ba-8002-caf9a74dabc8"><rect class="st0" rx="0" ry="0" x="221.5999999999999" y="23.799999999999955" transform="matrix(1.000000, 0.000000, 0.000000, 1.000000, 0.000000, 0.000000)" width="9" height="2"/></g></g><g id="shape-471d1b56-7c24-80ba-8002-caf9a74dc5bd"><g class="fills" id="fills-471d1b56-7c24-80ba-8002-caf9a74dc5bd"><rect class="st0" rx="0" ry="0" x="178.29999999999995" y="318.0999999999999" transform="matrix(1.000000, 0.000000, 0.000000, 1.000000, 0.000000, 0.000000)" width="9" height="2"/></g></g><g id="shape-471d1b56-7c24-80ba-8002-caf9a74e33bd"><g class="fills" id="fills-471d1b56-7c24-80ba-8002-caf9a74e33bd"><rect class="st0" rx="0" ry="0" x="193.5999999999999" y="23.799999999999955" transform="matrix(1.000000, 0.000000, 0.000000, 1.000000, 0.000000, 0.000000)" width="9" height="2"/></g></g><g id="shape-471d1b56-7c24-80ba-8002-caf9a74e33be"><g class="fills" id="fills-471d1b56-7c24-80ba-8002-caf9a74e33be"><rect class="st0" rx="0" ry="0" x="179.5999999999999" y="23.799999999999955" transform="matrix(1.000000, 0.000000, 0.000000, 1.000000, 0.000000, 0.000000)" width="9" height="2"/></g></g><g id="shape-471d1b56-7c24-80ba-8002-caf9a74e4aa6"><g class="fills" id="fills-471d1b56-7c24-80ba-8002-caf9a74e4aa6"><rect class="st0" rx="0" ry="0" x="192.29999999999995" y="318.0999999999999" transform="matrix(1.000000, 0.000000, 0.000000, 1.000000, 0.000000, 0.000000)" width="9" height="2"/></g></g><g id="shape-471d1b56-7c24-80ba-8002-caf9a74e4aa7"><g class="fills" id="fills-471d1b56-7c24-80ba-8002-caf9a74e4aa7"><path class="st0" rx="0" ry="0" d="M304.400,317.800L304.600,319.800C307.600,319.400,310.700,318.700,313.600,317.700L312.900,315.800C310.200,316.800,307.300,317.400,304.400,317.800ZZ"/></g></g><g id="shape-471d1b56-7c24-80ba-8002-caf9a74e9cc8"><g class="fills" id="fills-471d1b56-7c24-80ba-8002-caf9a74e9cc8"><rect class="st0" rx="0" ry="0" x="248.29999999999995" y="318.0999999999999" transform="matrix(1.000000, 0.000000, 0.000000, 1.000000, 0.000000, 0.000000)" width="9" height="2"/></g></g><g id="shape-471d1b56-7c24-80ba-8002-caf9a74e9cc9"><g class="fills" id="fills-471d1b56-7c24-80ba-8002-caf9a74e9cc9"><path class="st0" rx="0" ry="0" d="M317.400,313.900L318.300,315.700C321.100,314.400,323.700,312.700,326.100,310.800L324.900,309.200C322.500,311.100,320.000,312.600,317.400,313.900ZZ"/></g></g><g id="shape-471d1b56-7c24-80ba-8002-caf9a74ed900"><g class="fills" id="fills-471d1b56-7c24-80ba-8002-caf9a74ed900"><path class="st0" rx="0" ry="0" d="M300.600,25.800L300.700,23.800C300.300,23.800,299.900,23.800,299.400,23.800L291.600,23.800L291.600,25.800L299.400,25.800C299.800,25.800,300.200,25.800,300.600,25.800ZZ"/></g></g><g id="shape-471d1b56-7c24-80ba-8002-caf9a74f0e4c"><g class="fills" id="fills-471d1b56-7c24-80ba-8002-caf9a74f0e4c"><path class="st0" rx="0" ry="0" d="M314.600,26.600C311.700,25.500,308.700,24.700,305.700,24.300L305.400,26.300C308.300,26.700,311.200,27.500,313.900,28.500L314.600,26.600ZZ"/></g></g><g id="shape-471d1b56-7c24-80ba-8002-caf9a74f0e4d"><g class="fills" id="fills-471d1b56-7c24-80ba-8002-caf9a74f0e4d"><rect class="st0" rx="0" ry="0" x="290.3000000000002" y="318.0999999999999" transform="matrix(1.000000, 0.000000, 0.000000, 1.000000, 0.000000, 0.000000)" width="9.200000000000045" height="2"/></g></g><g id="shape-471d1b56-7c24-80ba-8002-caf9a74f5328"><g class="fills" id="fills-471d1b56-7c24-80ba-8002-caf9a74f5328"><rect class="st0" rx="0" ry="0" x="263.5999999999999" y="23.799999999999955" transform="matrix(1.000000, 0.000000, 0.000000, 1.000000, 0.000000, 0.000000)" width="9" height="2"/></g></g><g id="shape-471d1b56-7c24-80ba-8002-caf9a74f5329"><g class="fills" id="fills-471d1b56-7c24-80ba-8002-caf9a74f5329"><rect class="st0" rx="0" ry="0" x="277.5999999999999" y="23.799999999999955" transform="matrix(1.000000, 0.000000, 0.000000, 1.000000, 0.000000, 0.000000)" width="9" height="2"/></g></g><g id="shape-471d1b56-7c24-80ba-8002-caf9a74fab64"><g class="fills" id="fills-471d1b56-7c24-80ba-8002-caf9a74fab64"><rect class="st0" rx="0" ry="0" x="249.5999999999999" y="23.799999999999955" transform="matrix(1.000000, 0.000000, 0.000000, 1.000000, 0.000000, 0.000000)" width="9" height="2"/></g></g><g id="shape-471d1b56-7c24-80ba-8002-caf9a74fab65"><g class="fills" id="fills-471d1b56-7c24-80ba-8002-caf9a74fab65"><rect class="st0" rx="0" ry="0" x="276.29999999999995" y="318.0999999999999" transform="matrix(1.000000, 0.000000, 0.000000, 1.000000, 0.000000, 0.000000)" width="9" height="2"/></g></g><g id="shape-471d1b56-7c24-80ba-8002-caf9a7502107"><g class="fills" id="fills-471d1b56-7c24-80ba-8002-caf9a7502107"><path class="st0" rx="0" ry="0" d="M170.300,53.200C165.400,52.600,160.800,53.900,157.800,56.800C150.300,64.200,151.400,74.600,160.700,84.000L162.800,81.900C154.800,73.700,153.700,65.100,159.900,58.900C162.200,56.700,165.900,55.700,169.900,56.200C174.700,56.800,179.200,59.500,181.500,63.200L182.200,64.300L183.400,63.800C186.800,62.400,189.800,62.300,192.300,63.400C194.500,64.500,196.100,66.600,196.900,69.700L197.400,71.400L199.000,70.700C201.600,69.600,204.700,70.200,207.300,72.300C209.500,74.100,211.500,77.400,211.200,81.400C211.100,81.300,210.900,81.200,210.800,81.200C208.400,80.000,205.400,79.900,202.300,81.000C199.800,77.700,195.800,75.500,191.400,75.000C187.200,74.500,183.400,75.600,180.800,78.000C174.500,84.300,175.400,93.100,183.200,101.000L185.300,98.900C178.700,92.200,177.800,85.200,182.900,80.200C184.800,78.400,187.700,77.600,191.000,78.000C194.900,78.500,198.600,80.700,200.500,83.700L201.200,84.800L202.400,84.300C205.100,83.200,207.600,83.000,209.600,84.000C211.400,84.900,212.600,86.600,213.300,89.100L213.800,90.800L215.400,90.100C217.500,89.200,220.000,89.700,222.000,91.400C224.000,93.100,225.800,96.300,224.900,100.100L227.800,100.800C228.800,96.500,227.300,92.000,223.900,89.100C221.400,87.000,218.500,86.200,215.700,86.800C215.300,85.700,214.700,84.700,214.000,83.800C215.200,78.800,213.400,73.500,209.400,70.100C206.400,67.600,202.900,66.700,199.600,67.500C198.400,64.400,196.500,62.100,193.900,60.800C191.000,59.400,187.500,59.300,183.700,60.600C180.400,56.500,175.600,53.800,170.300,53.200ZZ"/></g></g><g id="shape-471d1b56-7c24-80ba-8002-caf9a750677d"><g class="fills" id="fills-471d1b56-7c24-80ba-8002-caf9a750677d"><rect class="st0" rx="0" ry="0" x="87.40000000000009" y="38.200000000000045" transform="matrix(1.000000, 0.000000, 0.000000, 1.000000, 0.000000, 0.000000)" width="2.400000000000091" height="23.5"/></g></g><g id="shape-471d1b56-7c24-80ba-8002-caf9a750ce48"><g class="fills" id="fills-471d1b56-7c24-80ba-8002-caf9a750ce48"><path class="st0" rx="0" ry="0" d="M73.100,90.000C74.500,91.900,76.200,93.500,78.300,94.800L67.600,109.400L69.600,110.800L80.500,95.900C82.600,96.800,85.000,97.300,87.500,97.400L87.500,134.200L89.900,134.200L89.900,97.200C92.200,96.900,94.300,96.200,96.200,95.100L129.100,152.100L131.200,150.900L98.200,93.700C99.700,92.500,101.100,91.100,102.200,89.500L146.700,115.200L147.900,113.100L103.400,87.400C104.400,85.400,105.000,83.200,105.200,80.800L145.500,80.800L145.500,78.400L105.200,78.400C105.000,76.000,104.400,73.800,103.400,71.800L129.400,56.800L128.200,54.700L102.200,69.700C101.100,68.100,99.800,66.700,98.200,65.500L109.600,45.800L107.500,44.600L96.200,64.100C93.600,62.600,90.600,61.800,87.500,61.800C85.100,61.800,82.700,62.300,80.600,63.200L73.200,50.300L71.000,51.500L78.400,64.300C76.300,65.500,74.500,67.200,73.100,69.100L43.100,50.300L41.800,52.400L71.800,71.200C70.600,73.400,69.900,75.800,69.700,78.400L46.400,78.400L46.400,80.800L69.800,80.800C70.000,83.400,70.700,85.800,71.800,87.900L38.100,107.400L39.300,109.500L73.100,90.000ZZM87.500,64.200C96.000,64.200,102.800,71.100,102.800,79.500C102.800,88.000,95.900,94.800,87.500,94.800C79.000,94.800,72.200,87.900,72.200,79.500C72.100,71.100,79.000,64.200,87.500,64.200ZZ"/></g></g><g id="shape-471d1b56-7c24-80ba-8002-caf9a7511c70"><g class="fills" id="fills-471d1b56-7c24-80ba-8002-caf9a7511c70"><rect class="st0" rx="0" ry="0" x="231.79999999999995" y="217.5999999999999" transform="matrix(1.000000, 0.000000, 0.000000, 1.000000, 0.000000, 0.000000)" width="4" height="13.799999999999955"/></g></g><g id="shape-471d1b56-7c24-80ba-8002-caf9a7511c71"><g class="fills" id="fills-471d1b56-7c24-80ba-8002-caf9a7511c71"><rect class="st0" rx="0" ry="0" x="212.5" y="217.5999999999999" transform="matrix(1.000000, 0.000000, 0.000000, 1.000000, 0.000000, 0.000000)" width="4" height="13.799999999999955"/></g></g><g id="shape-471d1b56-7c24-80ba-8002-caf9a751759f"><g class="fills" id="fills-471d1b56-7c24-80ba-8002-caf9a751759f"><rect class="st0" rx="0" ry="0" x="211.5" y="186.29999999999973" transform="matrix(1.000000, 0.000000, 0.000000, 1.000000, 0.000000, 0.000000)" width="4" height="13.799999999999955"/></g></g><g id="shape-471d1b56-7c24-80ba-8002-caf9a751b2ed"><g class="fills" id="fills-471d1b56-7c24-80ba-8002-caf9a751b2ed"><rect class="st0" rx="0" ry="0" x="231.79999999999995" y="186.29999999999973" transform="matrix(1.000000, 0.000000, 0.000000, 1.000000, 0.000000, 0.000000)" width="4" height="13.799999999999955"/></g></g><g id="shape-471d1b56-7c24-80ba-8002-caf9a751b2ee"><g class="fills" id="fills-471d1b56-7c24-80ba-8002-caf9a751b2ee"><rect class="st0" rx="0" ry="0" x="134.70000000000005" y="258.2000000000003" transform="matrix(1.000000, 0.000000, 0.000000, 1.000000, 0.000000, 0.000000)" width="3.099999999999909" height="11.700000000000045"/></g></g><g id="shape-471d1b56-7c24-80ba-8002-caf9a751e638"><g class="fills" id="fills-471d1b56-7c24-80ba-8002-caf9a751e638"><rect class="st0" rx="0" ry="0" x="156.70000000000005" y="258.2000000000003" transform="matrix(1.000000, 0.000000, 0.000000, 1.000000, 0.000000, 0.000000)" width="3.099999999999909" height="11.700000000000045"/></g></g><g id="shape-471d1b56-7c24-80ba-8002-caf9a751e639"><g class="fills" id="fills-471d1b56-7c24-80ba-8002-caf9a751e639"><rect class="st0" rx="0" ry="0" x="285.9000000000001" y="207.79999999999995" transform="matrix(1.000000, 0.000000, 0.000000, 1.000000, 0.000000, 0.000000)" width="4" height="13.5"/></g></g><g id="shape-471d1b56-7c24-80ba-8002-caf9a7523646"><g class="fills" id="fills-471d1b56-7c24-80ba-8002-caf9a7523646"><rect class="st0" rx="0" ry="0" x="305.5" y="207.79999999999995" transform="matrix(1.000000, 0.000000, 0.000000, 1.000000, 0.000000, 0.000000)" width="4" height="13.5"/></g></g><g id="shape-471d1b56-7c24-80ba-8002-caf9a7523647"><g class="fills" id="fills-471d1b56-7c24-80ba-8002-caf9a7523647"><rect class="st0" rx="0" ry="0" x="285.9000000000001" y="236.70000000000005" transform="matrix(1.000000, 0.000000, 0.000000, 1.000000, 0.000000, 0.000000)" width="4" height="13.5"/></g></g><g id="shape-471d1b56-7c24-80ba-8002-caf9a7526949"><g class="fills" id="fills-471d1b56-7c24-80ba-8002-caf9a7526949"><rect class="st0" rx="0" ry="0" x="305.5" y="236.70000000000005" transform="matrix(1.000000, 0.000000, 0.000000, 1.000000, 0.000000, 0.000000)" width="4" height="13.5"/></g></g><g id="shape-471d1b56-7c24-80ba-8002-caf9a7545f63"><g class="fills" id="fills-471d1b56-7c24-80ba-8002-caf9a7545f63"><path class="st0" rx="0" ry="0" d="M306.200,296.800L323.400,296.800L323.400,175.400L305.700,184.500L305.700,178.800L313.300,175.100L309.100,166.500L274.500,183.600L278.700,192.200L283.400,189.900L283.400,196.100L271.900,202.000L271.900,293.900L250.000,293.900L250.000,270.200L254.600,264.000L252.200,262.200L250.000,265.200L250.000,262.500L247.000,262.500L247.000,265.000L245.100,262.300L242.600,264.000L247.000,270.200L247.000,283.500C243.200,282.100,235.200,277.900,236.900,268.000C237.400,265.100,238.300,263.500,239.100,262.000C240.400,259.600,241.600,257.300,240.900,251.100C240.800,248.000,241.400,245.700,242.800,244.300C244.400,242.600,246.800,242.300,248.500,242.300C250.200,242.300,252.600,242.600,254.200,244.300C255.600,245.800,256.200,248.100,256.100,251.100C255.400,257.400,256.500,259.600,257.900,262.100C258.700,263.600,259.500,265.100,260.100,267.900C261.700,275.600,254.700,280.600,254.400,280.800C253.700,281.300,253.500,282.200,254.000,282.900C254.500,283.600,255.400,283.700,256.100,283.300C256.500,283.000,265.100,277.000,263.000,267.300C262.300,264.100,261.300,262.200,260.500,260.700C259.300,258.400,258.400,256.800,259.100,251.400C259.100,251.400,259.100,251.300,259.100,251.300C259.300,247.400,258.300,244.300,256.300,242.200C254.900,240.700,253.000,239.800,250.700,239.400L250.700,176.500L252.800,176.500C255.300,176.500,257.300,174.500,257.300,172.000L257.300,164.400C257.300,161.900,255.300,159.900,252.800,159.900L228.700,159.900L228.700,152.100L247.100,152.100C247.500,152.100,247.900,151.900,248.100,151.600C248.400,151.300,248.400,150.900,248.300,150.500L240.900,122.900C240.700,122.300,240.200,121.900,239.600,121.900L205.200,121.900C204.600,121.900,204.100,122.300,203.900,122.900L196.500,150.500C196.400,150.900,196.500,151.300,196.700,151.600C196.900,151.900,197.300,152.100,197.700,152.100L216.100,152.100L216.100,159.900L193.100,159.900C190.600,159.900,188.600,161.900,188.600,164.400L188.600,172.000C188.600,174.500,190.600,176.500,193.100,176.500L196.400,176.500L196.400,293.800L175.800,293.800L175.800,250.500L183.700,255.200L185.200,252.600L147.000,229.700L139.900,233.900L139.900,229.000L147.500,225.300L143.300,216.700L108.700,233.800L112.900,242.400L117.600,240.100L117.600,247.200L117.700,247.200L108.800,252.500L110.300,255.100L117.800,250.600L117.800,293.700L80.800,294.100L80.800,182.200L81.200,180.500C81.900,180.100,82.500,179.500,83.000,178.900L119.200,181.500L119.700,173.400L87.500,164.700L80.600,166.300C79.600,165.800,78.600,165.400,77.400,165.300L59.300,133.800L52.200,137.900L63.000,169.400L68.200,174.200C68.300,175.000,68.500,175.800,68.800,176.600L49.500,207.300L56.400,211.600L71.500,195.500L71.500,297.100L74.500,297.100L74.500,192.400L77.600,189.100L77.600,294.200L77.600,294.200L77.600,297.200L120.600,296.800L120.600,248.900L139.200,237.800L139.600,237.800L139.600,237.500L146.700,233.200L172.800,248.600L172.800,293.700L146.900,293.700L146.900,296.700L174.300,296.700L175.800,296.700L291.000,296.700L306.200,296.800ZZM87.700,167.800L116.700,175.700L116.500,178.400L84.800,176.000C85.700,173.400,85.100,171.200,84.300,169.700C84.100,169.400,83.900,169.100,83.700,168.800C83.700,168.800,83.700,168.800,83.700,168.800C83.700,168.800,83.600,168.700,83.600,168.600L87.700,167.800ZZM80.500,169.700C80.500,169.700,80.600,169.800,80.600,169.800C81.500,170.800,82.100,172.100,82.100,173.500C82.100,175.600,80.800,177.500,79.000,178.300C78.900,178.400,78.700,178.400,78.500,178.500C78.400,178.500,78.400,178.500,78.300,178.600C78.100,178.700,77.900,178.700,77.700,178.800C77.400,178.900,77.100,178.900,76.800,178.900C73.900,178.900,71.500,176.500,71.500,173.600C71.500,173.600,71.500,173.600,71.500,173.600C71.500,173.300,71.500,173.000,71.600,172.700C71.600,172.600,71.600,172.500,71.600,172.500C72.100,170.100,74.200,168.400,76.800,168.400C78.200,168.200,79.500,168.800,80.500,169.700ZZM69.000,170.600L65.900,167.800L56.200,139.300L58.500,137.900L74.300,165.500C71.300,166.300,69.700,168.500,69.000,170.600ZZM76.800,185.900L56.200,207.900L53.900,206.500L70.800,179.600C72.700,181.600,74.900,182.100,76.600,182.100C76.900,182.100,77.200,182.100,77.600,182.000C77.600,182.000,77.700,182.000,77.700,182.000C77.800,182.000,77.800,182.000,77.900,182.000L77.900,182.000L76.800,185.900ZZM112.700,235.200L141.900,220.800L143.500,224.000L114.300,238.400L112.700,235.200ZZM120.600,238.600L136.900,230.500L136.900,235.700L120.600,245.400L120.600,238.600ZZM215.900,149.500L216.500,142.900L228.800,142.900L229.400,149.500L215.900,149.500ZZM204.000,133.700L214.600,133.700L214.000,140.300L202.200,140.300L204.000,133.700ZZM217.300,133.700L228.000,133.700L228.600,140.300L216.800,140.300L217.300,133.700ZZM217.500,131.100L218.100,124.500L227.100,124.500L227.700,131.100L217.500,131.100ZZM243.000,140.300L231.200,140.300L230.600,133.700L241.200,133.700L243.000,140.300ZZM232.000,149.500L231.400,142.900L243.700,142.900L245.400,149.500L232.000,149.500ZZM240.500,131.100L230.300,131.100L229.700,124.500L238.700,124.500L240.500,131.100ZZM206.400,124.500L215.400,124.500L214.800,131.100L204.600,131.100L206.400,124.500ZZM201.500,142.900L213.800,142.900L213.200,149.500L199.800,149.500L201.500,142.900ZZM219.000,152.100L226.000,152.100L226.000,159.900L219.000,159.900L219.000,152.100ZZM193.400,173.500C192.600,173.500,191.900,172.800,191.900,172.000L191.900,164.400C191.900,163.600,192.600,162.900,193.400,162.900L252.800,162.900C253.600,162.900,254.300,163.600,254.300,164.400L254.300,172.000C254.300,172.800,253.600,173.500,252.800,173.500L250.700,173.500L250.700,173.500L196.600,173.500L196.600,173.500L193.400,173.500ZZM199.700,176.500L247.800,176.500L247.800,239.300C244.800,239.400,242.400,240.400,240.700,242.200C238.700,244.300,237.800,247.300,237.900,251.300C237.900,251.300,237.900,251.400,237.900,251.400C238.500,256.700,237.600,258.300,236.400,260.600C235.500,262.200,234.500,264.100,233.900,267.500C231.600,280.400,243.200,285.400,246.900,286.700L246.900,293.900L199.600,293.900L199.600,176.500ZM294.200,293.800L294.200,274.500L303.100,274.500L303.100,293.800L294.200,293.800ZZM278.500,184.900L307.700,170.500L309.300,173.700L280.100,188.100L278.500,184.900ZZM286.400,188.300L302.700,180.200L302.700,186.000L286.400,194.400L286.400,188.300ZZM274.900,293.800L274.900,203.800L320.400,180.400L320.400,293.800L306.200,293.800L306.200,271.500L291.300,271.500L291.300,293.800L274.900,293.800ZZ"/></g></g></g></g></svg>