<svg xmlns="http://www.w3.org/2000/svg" id="screenshot-9a1be2dd-6c80-805e-8002-c1fdf1ba6ab1" width="360" height="340.9" fill="none" style="-webkit-print-color-adjust:exact" version="1.1" viewBox="-3 -3 360 340.9"><g xml:space="preserve" id="shape-9a1be2dd-6c80-805e-8002-c1fdf1ba6ab1" style="fill:#000" transform="translate(1.46 -1.46)"><g id="shape-9a1be2dd-6c80-805e-8002-c1fdf1bae052"><g id="fills-9a1be2dd-6c80-805e-8002-c1fdf1bae052" class="fills"><rect id="rect9332" width="351" height="335.3" x="0" y="0" fill="none" rx="0" ry="0" style="fill:none"/></g></g><g id="shape-9a1be2dd-6c80-805e-8002-c1fdf1bae053"><style id="style9336" type="text/css">.st0{fill:#004b00}</style></g><g id="shape-9a1be2dd-6c80-805e-8002-c1fdf1bb03e4" style="fill:#000"><g id="shape-9a1be2dd-6c80-805e-8002-c1fdf1bcbe26"><g id="fills-9a1be2dd-6c80-805e-8002-c1fdf1bcbe26" class="fills"><path id="path9339" d="M141.47 75c-7.8-8-8.87-16.38-2.82-22.42 2.24-2.15 5.85-3.12 9.75-2.64 4.68.59 9.06 3.22 11.3 6.83l.69 1.07 1.17-.48c3.31-1.37 6.24-1.47 8.67-.4 2.15 1.08 3.71 3.13 4.49 6.15l.49 1.66 1.56-.69c2.53-1.07 5.55-.49 8.09 1.56a10.6 10.6 0 0 1 3.8 8.87c-.1-.1-.29-.19-.39-.19-2.34-1.17-5.26-1.27-8.29-.2a15.54 15.54 0 0 0-10.62-5.84c-4.1-.5-7.8.58-10.34 2.92-6.14 6.14-5.26 14.72 2.34 22.43l2.05-2.05c-6.44-6.53-7.31-13.36-2.34-18.23 1.85-1.76 4.68-2.54 7.9-2.15 3.8.49 7.4 2.63 9.26 5.56l.68 1.07 1.17-.49c2.63-1.07 5.07-1.26 7.02-.29 1.76.88 2.93 2.54 3.61 4.97l.49 1.66 1.56-.68c2.04-.88 4.48-.4 6.43 1.26a8.57 8.57 0 0 1 2.83 8.49l2.83.68c.97-4.2-.49-8.58-3.8-11.4-2.44-2.05-5.27-2.83-8-2.25a10.78 10.78 0 0 0-1.66-2.92 13.47 13.47 0 0 0-4.48-13.36c-2.93-2.44-6.34-3.32-9.56-2.54-1.17-3.02-3.02-5.26-5.56-6.53-2.82-1.36-6.24-1.46-9.94-.2-2.83-3.8-7.5-6.43-12.77-7.11-4.78-.59-9.27.68-12.19 3.5-7.31 7.22-6.24 17.36 2.83 26.53z" class="st0"/></g></g><g id="shape-9a1be2dd-6c80-805e-8002-c1fdf1bcce3c"><g id="fills-9a1be2dd-6c80-805e-8002-c1fdf1bcce3c" class="fills"><rect id="rect9343" width="8.77" height="1.95" x="65.91" y="24.69" class="st0" rx="0" ry="0"/></g></g><g id="shape-9a1be2dd-6c80-805e-8002-c1fdf1bcce3d"><g id="fills-9a1be2dd-6c80-805e-8002-c1fdf1bcce3d" class="fills"><rect id="rect9347" width="8.77" height="1.95" x="79.56" y="24.69" class="st0" rx="0" ry="0"/></g></g><g id="shape-9a1be2dd-6c80-805e-8002-c1fdf1bd1b74"><g id="fills-9a1be2dd-6c80-805e-8002-c1fdf1bd1b74" class="fills"><rect id="rect9351" width="8.77" height="1.95" x="160.19" y="311.54" class="st0" rx="0" ry="0"/></g></g><g id="shape-9a1be2dd-6c80-805e-8002-c1fdf1bd1b75"><g id="fills-9a1be2dd-6c80-805e-8002-c1fdf1bd1b75" class="fills"><rect id="rect9355" width="8.77" height="1.95" x="78.29" y="311.54" class="st0" rx="0" ry="0"/></g></g><g id="shape-9a1be2dd-6c80-805e-8002-c1fdf1bd5a68"><g id="fills-9a1be2dd-6c80-805e-8002-c1fdf1bd5a68" class="fills"><rect id="rect9359" width="8.77" height="1.95" x="64.64" y="311.54" class="st0" rx="0" ry="0"/></g></g><g id="shape-9a1be2dd-6c80-805e-8002-c1fdf1bd9221"><g id="fills-9a1be2dd-6c80-805e-8002-c1fdf1bd9221" class="fills"><path id="path9363" d="m35.88 34.05-1.17-1.56a43.14 43.14 0 0 0-6.73 5.95l1.47 1.27c1.95-2.15 4.09-4 6.43-5.66z" class="st0"/></g></g><g id="shape-9a1be2dd-6c80-805e-8002-c1fdf1bd9222"><g id="fills-9a1be2dd-6c80-805e-8002-c1fdf1bd9222" class="fills"><path id="path9367" d="M37.93 307.74a44.02 44.02 0 0 0 8.19 3.7l.58-1.85a37.49 37.49 0 0 1-7.8-3.51z" class="st0"/></g></g><g id="shape-9a1be2dd-6c80-805e-8002-c1fdf1be2fa6"><g id="fills-9a1be2dd-6c80-805e-8002-c1fdf1be2fa6" class="fills"><path id="path9371" d="m51.28 310.76-.39 1.95c2.73.49 5.46.78 8.3.78h.67v-1.95h-.68c-2.73 0-5.36-.2-7.9-.78z" class="st0"/></g></g><g id="shape-9a1be2dd-6c80-805e-8002-c1fdf1be2fa7"><g id="fills-9a1be2dd-6c80-805e-8002-c1fdf1be2fa7" class="fills"><path id="path9375" d="m47.77 28.2-.58-1.85a51.15 51.15 0 0 0-8.29 3.41l.98 1.76a46.68 46.68 0 0 1 7.9-3.32z" class="st0"/></g></g><g id="shape-9a1be2dd-6c80-805e-8002-c1fdf1be7986"><g id="fills-9a1be2dd-6c80-805e-8002-c1fdf1be7986" class="fills"><rect id="rect9379" width="8.77" height="1.95" x="120.51" y="24.69" class="st0" rx="0" ry="0"/></g></g><g id="shape-9a1be2dd-6c80-805e-8002-c1fdf1be7987"><g id="fills-9a1be2dd-6c80-805e-8002-c1fdf1be7987" class="fills"><rect id="rect9383" width="8.77" height="1.95" x="134.16" y="24.69" class="st0" rx="0" ry="0"/></g></g><g id="shape-9a1be2dd-6c80-805e-8002-c1fdf1beb0bf"><g id="fills-9a1be2dd-6c80-805e-8002-c1fdf1beb0bf" class="fills"><rect id="rect9387" width="8.77" height="1.95" x="132.89" y="311.54" class="st0" rx="0" ry="0"/></g></g><g id="shape-9a1be2dd-6c80-805e-8002-c1fdf1beb0c0"><g id="fills-9a1be2dd-6c80-805e-8002-c1fdf1beb0c0" class="fills"><rect id="rect9391" width="8.77" height="1.95" x="146.54" y="311.54" class="st0" rx="0" ry="0"/></g></g><g id="shape-9a1be2dd-6c80-805e-8002-c1fdf1bee9ab"><g id="fills-9a1be2dd-6c80-805e-8002-c1fdf1bee9ab" class="fills"><path id="path9395" d="m28.66 297.6-1.46 1.26a48.66 48.66 0 0 0 6.54 6.15l1.16-1.56a44.29 44.29 0 0 1-6.23-5.85z" class="st0"/></g></g><g id="shape-9a1be2dd-6c80-805e-8002-c1fdf1bee9ac"><g id="fills-9a1be2dd-6c80-805e-8002-c1fdf1bee9ac" class="fills"><rect id="rect9399" width="8.77" height="1.95" x="147.81" y="24.69" class="st0" rx="0" ry="0"/></g></g><g id="shape-9a1be2dd-6c80-805e-8002-c1fdf1bee9ad"><g id="fills-9a1be2dd-6c80-805e-8002-c1fdf1bee9ad" class="fills"><rect id="rect9403" width="8.77" height="1.95" x="105.59" y="311.54" class="st0" rx="0" ry="0"/></g></g><g id="shape-9a1be2dd-6c80-805e-8002-c1fdf1bf1950"><g id="fills-9a1be2dd-6c80-805e-8002-c1fdf1bf1950" class="fills"><rect id="rect9407" width="8.77" height="1.95" x="93.21" y="24.69" class="st0" rx="0" ry="0"/></g></g><g id="shape-9a1be2dd-6c80-805e-8002-c1fdf1bf1951"><g id="fills-9a1be2dd-6c80-805e-8002-c1fdf1bf1951" class="fills"><rect id="rect9411" width="8.77" height="1.95" x="91.94" y="311.54" class="st0" rx="0" ry="0"/></g></g><g id="shape-9a1be2dd-6c80-805e-8002-c1fdf1bf444d"><g id="fills-9a1be2dd-6c80-805e-8002-c1fdf1bf444d" class="fills"><rect id="rect9415" width="8.77" height="1.95" x="106.86" y="24.69" class="st0" rx="0" ry="0"/></g></g><g id="shape-9a1be2dd-6c80-805e-8002-c1fdf1bf444e"><g id="fills-9a1be2dd-6c80-805e-8002-c1fdf1bf444e" class="fills"><rect id="rect9419" width="8.77" height="1.95" x="119.24" y="311.54" class="st0" rx="0" ry="0"/></g></g><g id="shape-9a1be2dd-6c80-805e-8002-c1fdf1bf8d04"><g id="fills-9a1be2dd-6c80-805e-8002-c1fdf1bf8d04" class="fills"><path id="path9423" d="M59.18 26.64h1.86V24.7h-1.86c-2.34 0-4.68.2-7.02.59l.3 1.95c2.14-.4 4.38-.59 6.72-.59z" class="st0"/></g></g><g id="shape-9a1be2dd-6c80-805e-8002-c1fdf1bf8d05"><g id="fills-9a1be2dd-6c80-805e-8002-c1fdf1bf8d05" class="fills"><rect id="rect9427" width="1.95" height="8.77" x="17.06" y="123.17" class="st0" rx="0" ry="0"/></g></g><g id="shape-9a1be2dd-6c80-805e-8002-c1fdf1bff21f"><g id="fills-9a1be2dd-6c80-805e-8002-c1fdf1bff21f" class="fills"><rect id="rect9431" width="1.95" height="8.77" x="17.06" y="109.52" class="st0" rx="0" ry="0"/></g></g><g id="shape-9a1be2dd-6c80-805e-8002-c1fdf1bff220"><g id="fills-9a1be2dd-6c80-805e-8002-c1fdf1bff220" class="fills"><rect id="rect9435" width="1.95" height="8.77" x="17.06" y="95.87" class="st0" rx="0" ry="0"/></g></g><g id="shape-9a1be2dd-6c80-805e-8002-c1fdf1c000b4"><g id="fills-9a1be2dd-6c80-805e-8002-c1fdf1c000b4" class="fills"><rect id="rect9439" width="1.95" height="8.77" x="17.06" y="136.82" class="st0" rx="0" ry="0"/></g></g><g id="shape-9a1be2dd-6c80-805e-8002-c1fdf1c000b5"><g id="fills-9a1be2dd-6c80-805e-8002-c1fdf1c000b5" class="fills"><rect id="rect9443" width="1.95" height="8.77" x="17.06" y="150.47" class="st0" rx="0" ry="0"/></g></g><g id="shape-9a1be2dd-6c80-805e-8002-c1fdf1c051aa"><g id="fills-9a1be2dd-6c80-805e-8002-c1fdf1c051aa" class="fills"><path id="path9447" d="m20.48 50.04 1.75.78a39.33 39.33 0 0 1 4.2-7.4l-1.57-1.18a41.03 41.03 0 0 0-4.38 7.8z" class="st0"/></g></g><g id="shape-9a1be2dd-6c80-805e-8002-c1fdf1c051ab"><g id="fills-9a1be2dd-6c80-805e-8002-c1fdf1c051ab" class="fills"><rect id="rect9451" width="1.95" height="8.77" x="17.06" y="164.12" class="st0" rx="0" ry="0"/></g></g><g id="shape-9a1be2dd-6c80-805e-8002-c1fdf1c089a8"><g id="fills-9a1be2dd-6c80-805e-8002-c1fdf1c089a8" class="fills"><path id="path9455" d="m20.67 55.3-1.85-.58a38.62 38.62 0 0 0-1.56 8.78l1.95.1c.1-2.74.68-5.56 1.46-8.3z" class="st0"/></g></g><g id="shape-9a1be2dd-6c80-805e-8002-c1fdf1c0f619"><g id="fills-9a1be2dd-6c80-805e-8002-c1fdf1c0f619" class="fills"><path id="path9459" d="M332.96 57.84a37.69 37.69 0 0 0-2.82-8.48l-1.76.78a49.36 49.36 0 0 1 2.73 8.1z" class="st0"/></g></g><g id="shape-9a1be2dd-6c80-805e-8002-c1fdf1c10db0"><g id="fills-9a1be2dd-6c80-805e-8002-c1fdf1c10db0" class="fills"><rect id="rect9463" width="1.95" height="8.77" x="17.06" y="68.57" class="st0" rx="0" ry="0"/></g></g><g id="shape-9a1be2dd-6c80-805e-8002-c1fdf1c10db1"><g id="fills-9a1be2dd-6c80-805e-8002-c1fdf1c10db1" class="fills"><rect id="rect9467" width="1.95" height="8.77" x="17.06" y="82.22" class="st0" rx="0" ry="0"/></g></g><g id="shape-9a1be2dd-6c80-805e-8002-c1fdf1c10db2"><g id="fills-9a1be2dd-6c80-805e-8002-c1fdf1c10db2" class="fills"><rect id="rect9471" width="1.95" height="8.77" x="17.06" y="246.02" class="st0" rx="0" ry="0"/></g></g><g id="shape-9a1be2dd-6c80-805e-8002-c1fdf1c177fc"><g id="fills-9a1be2dd-6c80-805e-8002-c1fdf1c177fc" class="fills"><rect id="rect9475" width="1.95" height="8.77" x="17.06" y="177.77" class="st0" rx="0" ry="0"/></g></g><g id="shape-9a1be2dd-6c80-805e-8002-c1fdf1c177fd"><g id="fills-9a1be2dd-6c80-805e-8002-c1fdf1c177fd" class="fills"><path id="path9479" d="m19.01 273.22-1.95.1c.1 3.02.59 5.95 1.37 8.87l1.85-.49a48.04 48.04 0 0 1-1.27-8.48z" class="st0"/></g></g><g id="shape-9a1be2dd-6c80-805e-8002-c1fdf1c1aa98"><g id="fills-9a1be2dd-6c80-805e-8002-c1fdf1c1aa98" class="fills"><path id="path9483" d="M19.99 286.97a40.87 40.87 0 0 0 4.19 7.9l1.66-1.08a40.22 40.22 0 0 1-4-7.6z" class="st0"/></g></g><g id="shape-9a1be2dd-6c80-805e-8002-c1fdf1c1aa99"><g id="fills-9a1be2dd-6c80-805e-8002-c1fdf1c1aa99" class="fills"><rect id="rect9487" width="1.95" height="8.77" x="17.06" y="259.67" class="st0" rx="0" ry="0"/></g></g><g id="shape-9a1be2dd-6c80-805e-8002-c1fdf1c1c33f"><g id="fills-9a1be2dd-6c80-805e-8002-c1fdf1c1c33f" class="fills"><rect id="rect9491" width="1.95" height="8.77" x="17.06" y="205.07" class="st0" rx="0" ry="0"/></g></g><g id="shape-9a1be2dd-6c80-805e-8002-c1fdf1c2273f"><g id="fills-9a1be2dd-6c80-805e-8002-c1fdf1c2273f" class="fills"><rect id="rect9495" width="1.95" height="8.77" x="17.06" y="191.42" class="st0" rx="0" ry="0"/></g></g><g id="shape-9a1be2dd-6c80-805e-8002-c1fdf1c22740"><g id="fills-9a1be2dd-6c80-805e-8002-c1fdf1c22740" class="fills"><rect id="rect9499" width="1.95" height="8.77" x="17.06" y="232.37" class="st0" rx="0" ry="0"/></g></g><g id="shape-9a1be2dd-6c80-805e-8002-c1fdf1c22741"><g id="fills-9a1be2dd-6c80-805e-8002-c1fdf1c22741" class="fills"><rect id="rect9503" width="1.95" height="8.77" x="17.06" y="218.72" class="st0" rx="0" ry="0"/></g></g><g id="shape-9a1be2dd-6c80-805e-8002-c1fdf1c25513"><g id="fills-9a1be2dd-6c80-805e-8002-c1fdf1c25513" class="fills"><rect id="rect9507" width="8.77" height="1.95" x="255.74" y="311.54" class="st0" rx="0" ry="0"/></g></g><g id="shape-9a1be2dd-6c80-805e-8002-c1fdf1c25514"><g id="fills-9a1be2dd-6c80-805e-8002-c1fdf1c25514" class="fills"><rect id="rect9511" width="1.95" height="8.77" x="331.99" y="240.26" class="st0" rx="0" ry="0"/></g></g><g id="shape-9a1be2dd-6c80-805e-8002-c1fdf1c25515"><g id="fills-9a1be2dd-6c80-805e-8002-c1fdf1c25515" class="fills"><rect id="rect9515" width="1.95" height="8.77" x="331.99" y="253.91" class="st0" rx="0" ry="0"/></g></g><g id="shape-9a1be2dd-6c80-805e-8002-c1fdf1c2aa20"><g id="fills-9a1be2dd-6c80-805e-8002-c1fdf1c2aa20" class="fills"><rect id="rect9519" width="1.95" height="8.77" x="331.99" y="185.66" class="st0" rx="0" ry="0"/></g></g><g id="shape-9a1be2dd-6c80-805e-8002-c1fdf1c2aa21"><g id="fills-9a1be2dd-6c80-805e-8002-c1fdf1c2aa21" class="fills"><rect id="rect9523" width="1.95" height="8.77" x="331.99" y="212.97" class="st0" rx="0" ry="0"/></g></g><g id="shape-9a1be2dd-6c80-805e-8002-c1fdf1c2f409"><g id="fills-9a1be2dd-6c80-805e-8002-c1fdf1c2f409" class="fills"><rect id="rect9527" width="1.95" height="8.77" x="331.99" y="199.31" class="st0" rx="0" ry="0"/></g></g><g id="shape-9a1be2dd-6c80-805e-8002-c1fdf1c2f40a"><g id="fills-9a1be2dd-6c80-805e-8002-c1fdf1c2f40a" class="fills"><rect id="rect9531" width="1.95" height="8.77" x="331.99" y="226.62" class="st0" rx="0" ry="0"/></g></g><g id="shape-9a1be2dd-6c80-805e-8002-c1fdf1c3058a"><g id="fills-9a1be2dd-6c80-805e-8002-c1fdf1c3058a" class="fills"><path id="path9535" d="m320.29 299.74 1.36 1.36c2.15-2.14 4-4.48 5.66-7.02l-1.66-1.07a33.2 33.2 0 0 1-5.36 6.73z" class="st0"/></g></g><g id="shape-9a1be2dd-6c80-805e-8002-c1fdf1c363f2"><g id="fills-9a1be2dd-6c80-805e-8002-c1fdf1c363f2" class="fills"><path id="path9539" d="M331.99 271.46c0 1.56-.1 3.22-.3 4.78l1.96.2c.19-1.66.29-3.32.29-5.07v-3.8h-1.95z" class="st0"/></g></g><g id="shape-9a1be2dd-6c80-805e-8002-c1fdf1c363f3"><g id="fills-9a1be2dd-6c80-805e-8002-c1fdf1c363f3" class="fills"><path id="path9543" d="M327.8 44.88a43.12 43.12 0 0 0-5.46-7.12l-1.47 1.36a39.23 39.23 0 0 1 5.17 6.83z" class="st0"/></g></g><g id="shape-9a1be2dd-6c80-805e-8002-c1fdf1c3b820"><g id="fills-9a1be2dd-6c80-805e-8002-c1fdf1c3b820" class="fills"><path id="path9547" d="m327.99 288.92 1.75.87a43.98 43.98 0 0 0 3.03-8.48l-1.85-.49a38.13 38.13 0 0 1-2.93 8.1z" class="st0"/></g></g><g id="shape-9a1be2dd-6c80-805e-8002-c1fdf1c3c8a5"><g id="fills-9a1be2dd-6c80-805e-8002-c1fdf1c3c8a5" class="fills"><rect id="rect9551" width="8.77" height="1.95" x="161.46" y="24.69" class="st0" rx="0" ry="0"/></g></g><g id="shape-9a1be2dd-6c80-805e-8002-c1fdf1c3c8a6"><g id="fills-9a1be2dd-6c80-805e-8002-c1fdf1c3c8a6" class="fills"><rect id="rect9555" width="1.95" height="8.77" x="331.99" y="76.46" class="st0" rx="0" ry="0"/></g></g><g id="shape-9a1be2dd-6c80-805e-8002-c1fdf1c3c8a7"><g id="fills-9a1be2dd-6c80-805e-8002-c1fdf1c3c8a7" class="fills"><rect id="rect9559" width="1.95" height="8.77" x="331.99" y="103.77" class="st0" rx="0" ry="0"/></g></g><g id="shape-9a1be2dd-6c80-805e-8002-c1fdf1c42e93"><g id="fills-9a1be2dd-6c80-805e-8002-c1fdf1c42e93" class="fills"><rect id="rect9563" width="1.95" height="8.77" x="331.99" y="90.11" class="st0" rx="0" ry="0"/></g></g><g id="shape-9a1be2dd-6c80-805e-8002-c1fdf1c478b8"><g id="fills-9a1be2dd-6c80-805e-8002-c1fdf1c478b8" class="fills"><path id="path9567" d="m333.74 62.72-1.95.2c.1 1.26.2 2.53.2 3.8v4.87h1.95v-4.88c0-1.26-.1-2.63-.2-4z" class="st0"/></g></g><g id="shape-9a1be2dd-6c80-805e-8002-c1fdf1c478b9"><g id="fills-9a1be2dd-6c80-805e-8002-c1fdf1c478b9" class="fills"><rect id="rect9571" width="1.95" height="8.77" x="331.99" y="144.72" class="st0" rx="0" ry="0"/></g></g><g id="shape-9a1be2dd-6c80-805e-8002-c1fdf1c4a06b"><g id="fills-9a1be2dd-6c80-805e-8002-c1fdf1c4a06b" class="fills"><rect id="rect9575" width="1.95" height="8.77" x="331.99" y="172.01" class="st0" rx="0" ry="0"/></g></g><g id="shape-9a1be2dd-6c80-805e-8002-c1fdf1c4c6d4"><g id="fills-9a1be2dd-6c80-805e-8002-c1fdf1c4c6d4" class="fills"><path id="path9579" d="M318.73 34.34a38.57 38.57 0 0 0-7.51-4.97l-.88 1.76a43.26 43.26 0 0 1 7.12 4.77z" class="st0"/></g></g><g id="shape-9a1be2dd-6c80-805e-8002-c1fdf1c4c6d5"><g id="fills-9a1be2dd-6c80-805e-8002-c1fdf1c4c6d5" class="fills"><rect id="rect9583" width="1.95" height="8.77" x="331.99" y="158.37" class="st0" rx="0" ry="0"/></g></g><g id="shape-9a1be2dd-6c80-805e-8002-c1fdf1c52923"><g id="fills-9a1be2dd-6c80-805e-8002-c1fdf1c52923" class="fills"><rect id="rect9587" width="1.95" height="8.77" x="331.99" y="131.06" class="st0" rx="0" ry="0"/></g></g><g id="shape-9a1be2dd-6c80-805e-8002-c1fdf1c52924"><g id="fills-9a1be2dd-6c80-805e-8002-c1fdf1c52924" class="fills"><rect id="rect9591" width="1.95" height="8.77" x="331.99" y="117.42" class="st0" rx="0" ry="0"/></g></g><g id="shape-9a1be2dd-6c80-805e-8002-c1fdf1c52925"><g id="fills-9a1be2dd-6c80-805e-8002-c1fdf1c52925" class="fills"><rect id="rect9595" width="8.77" height="1.95" x="214.79" y="311.54" class="st0" rx="0" ry="0"/></g></g><g id="shape-9a1be2dd-6c80-805e-8002-c1fdf1c57276"><g id="fills-9a1be2dd-6c80-805e-8002-c1fdf1c57276" class="fills"><rect id="rect9599" width="8.77" height="1.95" x="202.41" y="24.69" class="st0" rx="0" ry="0"/></g></g><g id="shape-9a1be2dd-6c80-805e-8002-c1fdf1c57277"><g id="fills-9a1be2dd-6c80-805e-8002-c1fdf1c57277" class="fills"><rect id="rect9603" width="8.77" height="1.95" x="201.14" y="311.54" class="st0" rx="0" ry="0"/></g></g><g id="shape-9a1be2dd-6c80-805e-8002-c1fdf1c57278"><g id="fills-9a1be2dd-6c80-805e-8002-c1fdf1c57278" class="fills"><rect id="rect9607" width="8.77" height="1.95" x="228.44" y="311.54" class="st0" rx="0" ry="0"/></g></g><g id="shape-9a1be2dd-6c80-805e-8002-c1fdf1c5a5e8"><g id="fills-9a1be2dd-6c80-805e-8002-c1fdf1c5a5e8" class="fills"><rect id="rect9611" width="8.77" height="1.95" x="229.71" y="24.69" class="st0" rx="0" ry="0"/></g></g><g id="shape-9a1be2dd-6c80-805e-8002-c1fdf1c5a5e9"><g id="fills-9a1be2dd-6c80-805e-8002-c1fdf1c5a5e9" class="fills"><rect id="rect9615" width="8.77" height="1.95" x="216.06" y="24.69" class="st0" rx="0" ry="0"/></g></g><g id="shape-9a1be2dd-6c80-805e-8002-c1fdf1c5a5ea"><g id="fills-9a1be2dd-6c80-805e-8002-c1fdf1c5a5ea" class="fills"><rect id="rect9619" width="8.77" height="1.95" x="173.84" y="311.54" class="st0" rx="0" ry="0"/></g></g><g id="shape-9a1be2dd-6c80-805e-8002-c1fdf1c5d359"><g id="fills-9a1be2dd-6c80-805e-8002-c1fdf1c5d359" class="fills"><rect id="rect9623" width="8.77" height="1.95" x="188.76" y="24.69" class="st0" rx="0" ry="0"/></g></g><g id="shape-9a1be2dd-6c80-805e-8002-c1fdf1c5d35a"><g id="fills-9a1be2dd-6c80-805e-8002-c1fdf1c5d35a" class="fills"><rect id="rect9627" width="8.77" height="1.95" x="175.11" y="24.69" class="st0" rx="0" ry="0"/></g></g><g id="shape-9a1be2dd-6c80-805e-8002-c1fdf1c610cf"><g id="fills-9a1be2dd-6c80-805e-8002-c1fdf1c610cf" class="fills"><rect id="rect9631" width="8.77" height="1.95" x="187.49" y="311.54" class="st0" rx="0" ry="0"/></g></g><g id="shape-9a1be2dd-6c80-805e-8002-c1fdf1c67c01"><g id="fills-9a1be2dd-6c80-805e-8002-c1fdf1c67c01" class="fills"><path id="path9635" d="m296.79 311.25.2 1.95a45.92 45.92 0 0 0 8.77-2.05l-.68-1.86a34.2 34.2 0 0 1-8.29 1.95z" class="st0"/></g></g><g id="shape-9a1be2dd-6c80-805e-8002-c1fdf1c67c02"><g id="fills-9a1be2dd-6c80-805e-8002-c1fdf1c67c02" class="fills"><rect id="rect9639" width="8.77" height="1.95" x="242.09" y="311.54" class="st0" rx="0" ry="0"/></g></g><g id="shape-9a1be2dd-6c80-805e-8002-c1fdf1c6a961"><g id="fills-9a1be2dd-6c80-805e-8002-c1fdf1c6a961" class="fills"><path id="path9643" d="m309.46 307.44.88 1.76a38.34 38.34 0 0 0 7.6-4.78l-1.16-1.56a36.42 36.42 0 0 1-7.31 4.58z" class="st0"/></g></g><g id="shape-9a1be2dd-6c80-805e-8002-c1fdf1c6a962"><g id="fills-9a1be2dd-6c80-805e-8002-c1fdf1c6a962" class="fills"><path id="path9647" d="m293.08 26.64.1-1.95h-8.87v1.95h8.77z" class="st0"/></g></g><g id="shape-9a1be2dd-6c80-805e-8002-c1fdf1c6fb7c"><g id="fills-9a1be2dd-6c80-805e-8002-c1fdf1c6fb7c" class="fills"><path id="path9651" d="M306.74 27.32a39.22 39.22 0 0 0-8.68-2.24l-.3 1.95a39.9 39.9 0 0 1 8.3 2.15z" class="st0"/></g></g><g id="shape-9a1be2dd-6c80-805e-8002-c1fdf1c72990"><g id="fills-9a1be2dd-6c80-805e-8002-c1fdf1c72990" class="fills"><rect id="rect9655" width="8.97" height="1.95" x="283.04" y="311.54" class="st0" rx="0" ry="0"/></g></g><g id="shape-9a1be2dd-6c80-805e-8002-c1fdf1c72991"><g id="fills-9a1be2dd-6c80-805e-8002-c1fdf1c72991" class="fills"><rect id="rect9659" width="8.77" height="1.95" x="257.01" y="24.69" class="st0" rx="0" ry="0"/></g></g><g id="shape-9a1be2dd-6c80-805e-8002-c1fdf1c72992"><g id="fills-9a1be2dd-6c80-805e-8002-c1fdf1c72992" class="fills"><rect id="rect9663" width="8.77" height="1.95" x="270.66" y="24.69" class="st0" rx="0" ry="0"/></g></g><g id="shape-9a1be2dd-6c80-805e-8002-c1fdf1c74eb5"><g id="fills-9a1be2dd-6c80-805e-8002-c1fdf1c74eb5" class="fills"><rect id="rect9667" width="8.77" height="1.95" x="243.36" y="24.69" class="st0" rx="0" ry="0"/></g></g><g id="shape-9a1be2dd-6c80-805e-8002-c1fdf1c74eb6"><g id="fills-9a1be2dd-6c80-805e-8002-c1fdf1c74eb6" class="fills"><rect id="rect9671" width="8.77" height="1.95" x="269.39" y="311.54" class="st0" rx="0" ry="0"/></g></g><g id="shape-9a1be2dd-6c80-805e-8002-c1fdf1c94ed2"><g id="fills-9a1be2dd-6c80-805e-8002-c1fdf1c94ed2" class="fills"><path id="path9675" d="M52.36 304.52v-28.28l248.13.59v28.56h2.93v-28.56l25.16.1c.19 0 .39 0 .58-.1h.1c.1 0 .1-.1.2-.1l.09-.1.1-.1s0-.1.1-.1l.1-.09s0-.1.09-.1c0-.1.1-.1.1-.2v-.87l-27.6-133.09c-.1-.68-.78-1.17-1.46-1.17h-58.6l-2.24-10.14H117l-2.05 10.14H54.9c-.39 0-.78.2-1.07.4-.49.48-1.27 1.36-4.49 18.03h-.29V161c-1.95 10.04-4.58 25.25-8.48 48.55a4615.26 4615.26 0 0 0-10.34 64.94c-.1.39.1.87.3 1.17.29.29.68.48 1.07.48h17.75v28.28zm55.77-115.05zm0 0 3.02-15.12h22.52l-1.85 20.67h-24.96zm0 0zm7.4-36.86h20.1l-1.66 18.82h-22.23zm75.96 21.74 1.17 20.67h-28.27l.39-20.67zm-26.71-2.92.29-18.82h25.15l1.08 18.82zm-3.42 23.5h-26.52l1.85-20.67h25.06zm0 2.92-.39 21.16H132.8l1.85-21.16zm2.93 0h28.57l1.17 21.16H163.9zm31.49 0h26.52l2.83 21.16h-28.18Zm-.2-2.92-1.17-20.67H219l2.82 20.67zm-1.36-23.5-1.07-18.82h22.91l2.54 18.82zm-1.17-21.74-.88-16h21.36l2.14 16zm-2.92 0h-24.96l.29-16h23.79zm-27.89 0h-23.4l1.36-16h22.33zm-.1 2.92-.29 18.82h-24.86l1.65-18.82zm-55.77 45.24h25.25l-1.85 21.16h-27.69zm-4.87 24.09h28.08l-2.15 24.18-30.8.1zm31 0h28.37l-.39 24.08-30.02.1zm31.4 0h30.32l1.36 23.88-32.07.1zm34.51 23.88-1.36-23.88h28.37l3.22 23.79zm33.25-.1-3.22-23.69h29.06l5.26 23.6zm-3.6-26.71-2.84-21.16h26.91l4.68 21.16zm-3.23-24.08-2.82-20.67h24.86l4.58 20.67zm-3.21-23.5-2.54-18.82H242l4.2 18.82zm19.7-21.74h-22.73l-2.14-16h21.25zm-121.88-16h17.94l-1.37 16h-19.7zm-77.61 86.49H73.9v-2.92H42.3c3.42-21.06 6.83-41.05 9.46-55h31v-2.92H52.27c1.56-8 2.73-13.55 3.51-15.5h58.6l-8.68 42.7H73.13v2.93h31.98L93 249.14l173.36-.78-8.87-39.78h33.15v-2.93H256.9v.59l-9.85-44.07h31.89v-2.93h-32.47l-3.51-15.5h56.74l20.48 98.47h-38.7v2.93h39.28l5.95 28.67-293.47-.69c2.63-16.08 5.55-34.8 8.58-52.94z" class="st0"/></g></g><g id="shape-9a1be2dd-6c80-805e-8002-c1fdf1c94ed3"><g id="fills-9a1be2dd-6c80-805e-8002-c1fdf1c94ed3" class="fills"><rect id="rect9679" width="29.15" height="2.92" x="176.64" y="116.45" class="st0" rx="0" ry="0" transform="rotate(-34 191.22 117.91)"/></g></g><g id="shape-9a1be2dd-6c80-805e-8002-c1fdf1c9bd1c"><g id="fills-9a1be2dd-6c80-805e-8002-c1fdf1c9bd1c" class="fills"><rect id="rect9683" width="9.95" height="2.93" x="235.52" y="107.47" class="st0" rx="0" ry="0" transform="rotate(-59 240.5 108.93)"/></g></g><g id="shape-9a1be2dd-6c80-805e-8002-c1fdf1ca7a90"><g id="fills-9a1be2dd-6c80-805e-8002-c1fdf1ca7a90" class="fills"><path id="path9687" d="m263.15 35.71-.68 19.11c-1.66.1-3.32.49-4.78 1.07l-11.3-20.67-2.54 1.37 11.3 20.67a15.54 15.54 0 0 0-4.77 4.97l-40.76-26.42-1.56 2.43 41.05 26.62a15.93 15.93 0 0 0-.88 4.39v1.07h-40.56v2.93h40.95c.3 1.26.78 2.43 1.37 3.6l-22.52 15.02 1.65 2.44 22.53-15.02a16.54 16.54 0 0 0 3.02 2.83l-9.75 16.38 2.53 1.46 9.85-16.48a13.2 13.2 0 0 0 4.78 1.17l-.2 22.33h2.93l.2-22.42c1.55-.2 3.02-.59 4.38-1.17l26.81 45.04 2.54-1.46-26.81-45.05a14.02 14.02 0 0 0 3.21-3.12l38.32 19.6 1.37-2.63-38.13-19.5a16.83 16.83 0 0 0 1.47-4.58l40.26 2.24.2-2.93-40.37-2.24c-.1-1.75-.48-3.41-1.07-4.87l29.45-17.75-1.46-2.24-29.35 17.65a16.58 16.58 0 0 0-3.32-3.61l12.39-20.47-2.54-1.56-12.29 20.57a15.42 15.42 0 0 0-4.68-1.46l.69-19.21zm12.19 34.61a12.1 12.1 0 0 1-22.23 6.15 11.78 11.78 0 0 1-2.05-7.22c.3-6.53 5.66-11.6 12.1-11.6h.48c6.83.39 12 6.04 11.7 12.67z" class="st0"/></g></g><g id="shape-9a1be2dd-6c80-805e-8002-c1fdf1ca86ac"><g id="fills-9a1be2dd-6c80-805e-8002-c1fdf1ca86ac" class="fills"><rect id="rect9691" width="11.02" height="2.92" x="227.42" y="120.16" class="st0" rx="0" ry="0" transform="rotate(-59 232.92 121.62)"/></g></g><g id="shape-9a1be2dd-6c80-805e-8002-c1fdf1ca86ad"><g id="fills-9a1be2dd-6c80-805e-8002-c1fdf1ca86ad" class="fills"><rect id="rect9695" width="14.24" height="2.93" x="256.07" y="117.9" class="st0" rx="0" ry="0" transform="rotate(-90 263.19 119.36)"/></g></g><g id="shape-9a1be2dd-6c80-805e-8002-c1fdf1ca86ae"><g id="fills-9a1be2dd-6c80-805e-8002-c1fdf1ca86ae" class="fills"><rect id="rect9699" width="18.62" height="2.92" x="206.02" y="100.42" class="st0" rx="0" ry="0" transform="rotate(-34 215.33 101.88)"/></g></g></g></g></svg>