<?xml version="1.0" encoding="UTF-8" standalone="no"?>
<svg
   width="365"
   height="343.77499"
   id="screenshot-471d1b56-7c24-80ba-8002-caf9a74069cd"
   viewBox="0 -18.875 365.00001 343.775"
   style="-webkit-print-color-adjust:exact"
   fill="none"
   version="1.1"
   xmlns="http://www.w3.org/2000/svg"
   xmlns:svg="http://www.w3.org/2000/svg">
  <defs
     id="defs6101" />
  <g
     xml:space="preserve"
     x="0px"
     id="shape-471d1b56-7c24-80ba-8002-caf9a74069cd"
     style="fill:#000000"
     ry="0"
     rx="0"
     y="0px"
     version="1.1"
     transform="translate(1.5371821,-18.446186)"><g
       id="shape-471d1b56-7c24-80ba-8002-caf9a740f958"><style
         type="text/css"
         rx="0"
         ry="0"
         style="fill:#000000"
         id="style5705">.st0{fill:#004B00;}</style></g><g
       id="shape-471d1b56-7c24-80ba-8002-caf9a7411ee2"
       rx="0"
       ry="0"
       style="fill:#000000"><g
         id="shape-471d1b56-7c24-80ba-8002-caf9a7419916"><g
           class="fills"
           id="fills-471d1b56-7c24-80ba-8002-caf9a7419916"><rect
             class="st0"
             rx="0"
             ry="0"
             x="67.599998"
             y="23.799999"
             width="9"
             height="2"
             id="rect5708" /></g></g><g
         id="shape-471d1b56-7c24-80ba-8002-caf9a7423569"><g
           class="fills"
           id="fills-471d1b56-7c24-80ba-8002-caf9a7423569"><rect
             class="st0"
             rx="0"
             ry="0"
             x="81.599998"
             y="23.799999"
             width="9"
             height="2"
             id="rect5712" /></g></g><g
         id="shape-471d1b56-7c24-80ba-8002-caf9a7425dcf"><g
           class="fills"
           id="fills-471d1b56-7c24-80ba-8002-caf9a7425dcf"><rect
             class="st0"
             rx="0"
             ry="0"
             x="164.3"
             y="318.10001"
             width="9"
             height="2"
             id="rect5716" /></g></g><g
         id="shape-471d1b56-7c24-80ba-8002-caf9a7425dd0"><g
           class="fills"
           id="fills-471d1b56-7c24-80ba-8002-caf9a7425dd0"><rect
             class="st0"
             rx="0"
             ry="0"
             x="80.300003"
             y="318.10001"
             width="9"
             height="2"
             id="rect5720" /></g></g><g
         id="shape-471d1b56-7c24-80ba-8002-caf9a7429ebd"><g
           class="fills"
           id="fills-471d1b56-7c24-80ba-8002-caf9a7429ebd"><rect
             class="st0"
             rx="0"
             ry="0"
             x="66.300003"
             y="318.10001"
             width="9"
             height="2"
             id="rect5724" /></g></g><g
         id="shape-471d1b56-7c24-80ba-8002-caf9a742c8a1"><g
           class="fills"
           id="fills-471d1b56-7c24-80ba-8002-caf9a742c8a1"><path
             class="st0"
             rx="0"
             ry="0"
             d="m 28.7,37.9 1.5,1.3 c 2,-2.2 4.2,-4.1 6.6,-5.8 l -1.2,-1.6 c -2.5,1.8 -4.8,3.8 -6.9,6.1 z"
             id="path5728" /></g></g><g
         id="shape-471d1b56-7c24-80ba-8002-caf9a74330e7"><g
           class="fills"
           id="fills-471d1b56-7c24-80ba-8002-caf9a74330e7"><path
             class="st0"
             rx="0"
             ry="0"
             d="m 38.9,314.2 c 2.7,1.6 5.5,2.8 8.4,3.8 l 0.6,-1.9 c -2.8,-0.9 -5.5,-2.1 -8,-3.6 z"
             id="path5732" /></g></g><g
         id="shape-471d1b56-7c24-80ba-8002-caf9a743623d"><g
           class="fills"
           id="fills-471d1b56-7c24-80ba-8002-caf9a743623d"><path
             class="st0"
             rx="0"
             ry="0"
             d="m 52.6,317.3 -0.4,2 c 2.8,0.5 5.6,0.8 8.5,0.8 h 0.7 v -2 h -0.7 c -2.8,0 -5.5,-0.3 -8.1,-0.8 z"
             id="path5736" /></g></g><g
         id="shape-471d1b56-7c24-80ba-8002-caf9a74399b7"><g
           class="fills"
           id="fills-471d1b56-7c24-80ba-8002-caf9a74399b7"><path
             class="st0"
             rx="0"
             ry="0"
             d="m 49,27.5 -0.6,-1.9 c -2.9,0.9 -5.8,2.1 -8.5,3.5 l 1,1.8 c 2.6,-1.5 5.3,-2.6 8.1,-3.4 z"
             id="path5740" /></g></g><g
         id="shape-471d1b56-7c24-80ba-8002-caf9a743c29d"><g
           class="fills"
           id="fills-471d1b56-7c24-80ba-8002-caf9a743c29d"><rect
             class="st0"
             rx="0"
             ry="0"
             x="123.6"
             y="23.799999"
             width="9"
             height="2"
             id="rect5744" /></g></g><g
         id="shape-471d1b56-7c24-80ba-8002-caf9a743c29e"><g
           class="fills"
           id="fills-471d1b56-7c24-80ba-8002-caf9a743c29e"><rect
             class="st0"
             rx="0"
             ry="0"
             x="137.60001"
             y="23.799999"
             width="9"
             height="2"
             id="rect5748" /></g></g><g
         id="shape-471d1b56-7c24-80ba-8002-caf9a74437b7"><g
           class="fills"
           id="fills-471d1b56-7c24-80ba-8002-caf9a74437b7"><rect
             class="st0"
             rx="0"
             ry="0"
             x="136.3"
             y="318.10001"
             width="9"
             height="2"
             id="rect5752" /></g></g><g
         id="shape-471d1b56-7c24-80ba-8002-caf9a744498a"><g
           class="fills"
           id="fills-471d1b56-7c24-80ba-8002-caf9a744498a"><rect
             class="st0"
             rx="0"
             ry="0"
             x="150.3"
             y="318.10001"
             width="9"
             height="2"
             id="rect5756" /></g></g><g
         id="shape-471d1b56-7c24-80ba-8002-caf9a744498b"><g
           class="fills"
           id="fills-471d1b56-7c24-80ba-8002-caf9a744498b"><path
             class="st0"
             rx="0"
             ry="0"
             d="m 29.4,303.7 -1.5,1.3 c 2,2.3 4.3,4.4 6.7,6.3 l 1.2,-1.6 c -2.3,-1.7 -4.5,-3.7 -6.4,-6 z"
             id="path5760" /></g></g><g
         id="shape-471d1b56-7c24-80ba-8002-caf9a74484be"><g
           class="fills"
           id="fills-471d1b56-7c24-80ba-8002-caf9a74484be"><rect
             class="st0"
             rx="0"
             ry="0"
             x="151.60001"
             y="23.799999"
             width="9"
             height="2"
             id="rect5764" /></g></g><g
         id="shape-471d1b56-7c24-80ba-8002-caf9a744f6fb"><g
           class="fills"
           id="fills-471d1b56-7c24-80ba-8002-caf9a744f6fb"><rect
             class="st0"
             rx="0"
             ry="0"
             x="108.3"
             y="318.10001"
             width="9"
             height="2"
             id="rect5768" /></g></g><g
         id="shape-471d1b56-7c24-80ba-8002-caf9a744f6fc"><g
           class="fills"
           id="fills-471d1b56-7c24-80ba-8002-caf9a744f6fc"><rect
             class="st0"
             rx="0"
             ry="0"
             x="95.599998"
             y="23.799999"
             width="9"
             height="2"
             id="rect5772" /></g></g><g
         id="shape-471d1b56-7c24-80ba-8002-caf9a7452679"><g
           class="fills"
           id="fills-471d1b56-7c24-80ba-8002-caf9a7452679"><rect
             class="st0"
             rx="0"
             ry="0"
             x="94.300003"
             y="318.10001"
             width="9"
             height="2"
             id="rect5776" /></g></g><g
         id="shape-471d1b56-7c24-80ba-8002-caf9a745267a"><g
           class="fills"
           id="fills-471d1b56-7c24-80ba-8002-caf9a745267a"><rect
             class="st0"
             rx="0"
             ry="0"
             x="109.6"
             y="23.799999"
             width="9"
             height="2"
             id="rect5780" /></g></g><g
         id="shape-471d1b56-7c24-80ba-8002-caf9a74573e7"><g
           class="fills"
           id="fills-471d1b56-7c24-80ba-8002-caf9a74573e7"><rect
             class="st0"
             rx="0"
             ry="0"
             x="122.3"
             y="318.10001"
             width="9"
             height="2"
             id="rect5784" /></g></g><g
         id="shape-471d1b56-7c24-80ba-8002-caf9a745a5cd"><g
           class="fills"
           id="fills-471d1b56-7c24-80ba-8002-caf9a745a5cd"><path
             class="st0"
             rx="0"
             ry="0"
             d="m 60.7,25.8 h 1.9 v -2 h -1.9 c -2.4,0 -4.8,0.2 -7.2,0.6 l 0.3,2 C 56,26 58.3,25.8 60.7,25.8 Z"
             id="path5788" /></g></g><g
         id="shape-471d1b56-7c24-80ba-8002-caf9a745a5ce"><g
           class="fills"
           id="fills-471d1b56-7c24-80ba-8002-caf9a745a5ce"><rect
             class="st0"
             rx="0"
             ry="0"
             x="17.5"
             y="124.8"
             width="2"
             height="9"
             id="rect5792" /></g></g><g
         id="shape-471d1b56-7c24-80ba-8002-caf9a745f55b"><g
           class="fills"
           id="fills-471d1b56-7c24-80ba-8002-caf9a745f55b"><rect
             class="st0"
             rx="0"
             ry="0"
             x="17.5"
             y="110.8"
             width="2"
             height="9"
             id="rect5796" /></g></g><g
         id="shape-471d1b56-7c24-80ba-8002-caf9a74632fd"><g
           class="fills"
           id="fills-471d1b56-7c24-80ba-8002-caf9a74632fd"><rect
             class="st0"
             rx="0"
             ry="0"
             x="17.5"
             y="96.800003"
             width="2"
             height="9"
             id="rect5800" /></g></g><g
         id="shape-471d1b56-7c24-80ba-8002-caf9a74661f3"><g
           class="fills"
           id="fills-471d1b56-7c24-80ba-8002-caf9a74661f3"><rect
             class="st0"
             rx="0"
             ry="0"
             x="17.5"
             y="138.8"
             width="2"
             height="9"
             id="rect5804" /></g></g><g
         id="shape-471d1b56-7c24-80ba-8002-caf9a74661f4"><g
           class="fills"
           id="fills-471d1b56-7c24-80ba-8002-caf9a74661f4"><rect
             class="st0"
             rx="0"
             ry="0"
             x="17.5"
             y="152.8"
             width="2"
             height="9"
             id="rect5808" /></g></g><g
         id="shape-471d1b56-7c24-80ba-8002-caf9a74690c8"><g
           class="fills"
           id="fills-471d1b56-7c24-80ba-8002-caf9a74690c8"><path
             class="st0"
             rx="0"
             ry="0"
             d="m 21,49.9 1.8,0.8 C 24,48 25.4,45.4 27.1,43.1 l -1.6,-1.2 c -1.8,2.5 -3.3,5.2 -4.5,8 z"
             id="path5812" /></g></g><g
         id="shape-471d1b56-7c24-80ba-8002-caf9a746d15e"><g
           class="fills"
           id="fills-471d1b56-7c24-80ba-8002-caf9a746d15e"><rect
             class="st0"
             rx="0"
             ry="0"
             x="17.5"
             y="166.8"
             width="2"
             height="9"
             id="rect5816" /></g></g><g
         id="shape-471d1b56-7c24-80ba-8002-caf9a746d15f"><g
           class="fills"
           id="fills-471d1b56-7c24-80ba-8002-caf9a746d15f"><path
             class="st0"
             rx="0"
             ry="0"
             d="m 21.2,55.3 -1.9,-0.6 c -0.9,2.9 -1.4,6 -1.6,9 l 2,0.1 c 0.1,-2.8 0.7,-5.7 1.5,-8.5 z"
             id="path5820" /></g></g><g
         id="shape-471d1b56-7c24-80ba-8002-caf9a74715c9"><g
           class="fills"
           id="fills-471d1b56-7c24-80ba-8002-caf9a74715c9"><path
             class="st0"
             rx="0"
             ry="0"
             d="m 341.5,57.8 c -0.6,-3 -1.6,-5.9 -2.9,-8.7 l -1.8,0.8 c 1.2,2.7 2.1,5.5 2.8,8.3 z"
             id="path5824" /></g></g><g
         id="shape-471d1b56-7c24-80ba-8002-caf9a7477bab"><g
           class="fills"
           id="fills-471d1b56-7c24-80ba-8002-caf9a7477bab"><rect
             class="st0"
             rx="0"
             ry="0"
             x="17.5"
             y="68.800003"
             width="2"
             height="9"
             id="rect5828" /></g></g><g
         id="shape-471d1b56-7c24-80ba-8002-caf9a7477bac"><g
           class="fills"
           id="fills-471d1b56-7c24-80ba-8002-caf9a7477bac"><rect
             class="st0"
             rx="0"
             ry="0"
             x="17.5"
             y="82.800003"
             width="2"
             height="9"
             id="rect5832" /></g></g><g
         id="shape-471d1b56-7c24-80ba-8002-caf9a74791d6"><g
           class="fills"
           id="fills-471d1b56-7c24-80ba-8002-caf9a74791d6"><rect
             class="st0"
             rx="0"
             ry="0"
             x="17.5"
             y="250.8"
             width="2"
             height="9"
             id="rect5836" /></g></g><g
         id="shape-471d1b56-7c24-80ba-8002-caf9a747c08b"><g
           class="fills"
           id="fills-471d1b56-7c24-80ba-8002-caf9a747c08b"><rect
             class="st0"
             rx="0"
             ry="0"
             x="17.5"
             y="180.8"
             width="2"
             height="9"
             id="rect5840" /></g></g><g
         id="shape-471d1b56-7c24-80ba-8002-caf9a747c08c"><g
           class="fills"
           id="fills-471d1b56-7c24-80ba-8002-caf9a747c08c"><path
             class="st0"
             rx="0"
             ry="0"
             d="m 19.5,278.8 -2,0.1 c 0.1,3.1 0.6,6.1 1.4,9.1 l 1.9,-0.5 c -0.7,-2.9 -1.1,-5.8 -1.3,-8.7 z"
             id="path5844" /></g></g><g
         id="shape-471d1b56-7c24-80ba-8002-caf9a7481e3c"><g
           class="fills"
           id="fills-471d1b56-7c24-80ba-8002-caf9a7481e3c"><path
             class="st0"
             rx="0"
             ry="0"
             d="m 20.5,292.8 c 1.1,2.8 2.6,5.6 4.3,8.1 l 1.7,-1.1 c -1.6,-2.4 -3,-5 -4.1,-7.8 z"
             id="path5848" /></g></g><g
         id="shape-471d1b56-7c24-80ba-8002-caf9a7485b42"><g
           class="fills"
           id="fills-471d1b56-7c24-80ba-8002-caf9a7485b42"><rect
             class="st0"
             rx="0"
             ry="0"
             x="17.5"
             y="264.79999"
             width="2"
             height="9"
             id="rect5852" /></g></g><g
         id="shape-471d1b56-7c24-80ba-8002-caf9a7485b43"><g
           class="fills"
           id="fills-471d1b56-7c24-80ba-8002-caf9a7485b43"><rect
             class="st0"
             rx="0"
             ry="0"
             x="17.5"
             y="208.8"
             width="2"
             height="9"
             id="rect5856" /></g></g><g
         id="shape-471d1b56-7c24-80ba-8002-caf9a7488255"><g
           class="fills"
           id="fills-471d1b56-7c24-80ba-8002-caf9a7488255"><rect
             class="st0"
             rx="0"
             ry="0"
             x="17.5"
             y="194.8"
             width="2"
             height="9"
             id="rect5860" /></g></g><g
         id="shape-471d1b56-7c24-80ba-8002-caf9a7488256"><g
           class="fills"
           id="fills-471d1b56-7c24-80ba-8002-caf9a7488256"><rect
             class="st0"
             rx="0"
             ry="0"
             x="17.5"
             y="236.8"
             width="2"
             height="9"
             id="rect5864" /></g></g><g
         id="shape-471d1b56-7c24-80ba-8002-caf9a748cb5b"><g
           class="fills"
           id="fills-471d1b56-7c24-80ba-8002-caf9a748cb5b"><rect
             class="st0"
             rx="0"
             ry="0"
             x="17.5"
             y="222.8"
             width="2"
             height="9"
             id="rect5868" /></g></g><g
         id="shape-471d1b56-7c24-80ba-8002-caf9a748cb5c"><g
           class="fills"
           id="fills-471d1b56-7c24-80ba-8002-caf9a748cb5c"><rect
             class="st0"
             rx="0"
             ry="0"
             x="262.29999"
             y="318.10001"
             width="9"
             height="2"
             id="rect5872" /></g></g><g
         id="shape-471d1b56-7c24-80ba-8002-caf9a7491654"><g
           class="fills"
           id="fills-471d1b56-7c24-80ba-8002-caf9a7491654"><rect
             class="st0"
             rx="0"
             ry="0"
             x="340.5"
             y="245"
             width="2"
             height="9"
             id="rect5876" /></g></g><g
         id="shape-471d1b56-7c24-80ba-8002-caf9a749548e"><g
           class="fills"
           id="fills-471d1b56-7c24-80ba-8002-caf9a749548e"><rect
             class="st0"
             rx="0"
             ry="0"
             x="340.5"
             y="259"
             width="2"
             height="9"
             id="rect5880" /></g></g><g
         id="shape-471d1b56-7c24-80ba-8002-caf9a749548f"><g
           class="fills"
           id="fills-471d1b56-7c24-80ba-8002-caf9a749548f"><rect
             class="st0"
             rx="0"
             ry="0"
             x="340.5"
             y="189"
             width="2"
             height="9"
             id="rect5884" /></g></g><g
         id="shape-471d1b56-7c24-80ba-8002-caf9a749b0bb"><g
           class="fills"
           id="fills-471d1b56-7c24-80ba-8002-caf9a749b0bb"><rect
             class="st0"
             rx="0"
             ry="0"
             x="340.5"
             y="217"
             width="2"
             height="9"
             id="rect5888" /></g></g><g
         id="shape-471d1b56-7c24-80ba-8002-caf9a749e27b"><g
           class="fills"
           id="fills-471d1b56-7c24-80ba-8002-caf9a749e27b"><rect
             class="st0"
             rx="0"
             ry="0"
             x="340.5"
             y="203"
             width="2"
             height="9"
             id="rect5892" /></g></g><g
         id="shape-471d1b56-7c24-80ba-8002-caf9a749e27c"><g
           class="fills"
           id="fills-471d1b56-7c24-80ba-8002-caf9a749e27c"><rect
             class="st0"
             rx="0"
             ry="0"
             x="340.5"
             y="231"
             width="2"
             height="9"
             id="rect5896" /></g></g><g
         id="shape-471d1b56-7c24-80ba-8002-caf9a74a24a4"><g
           class="fills"
           id="fills-471d1b56-7c24-80ba-8002-caf9a74a24a4"><path
             class="st0"
             rx="0"
             ry="0"
             d="m 328.5,306 1.4,1.4 c 2.2,-2.2 4.1,-4.6 5.8,-7.2 l -1.7,-1.1 c -1.6,2.5 -3.4,4.8 -5.5,6.9 z"
             id="path5900" /></g></g><g
         id="shape-471d1b56-7c24-80ba-8002-caf9a74a4033"><g
           class="fills"
           id="fills-471d1b56-7c24-80ba-8002-caf9a74a4033"><path
             class="st0"
             rx="0"
             ry="0"
             d="m 340.5,276.9 c 0,1.6 -0.1,3.3 -0.3,4.9 l 2,0.2 c 0.2,-1.7 0.3,-3.4 0.3,-5.2 V 273 h -2 z"
             id="path5904" /></g></g><g
         id="shape-471d1b56-7c24-80ba-8002-caf9a74aac33"><g
           class="fills"
           id="fills-471d1b56-7c24-80ba-8002-caf9a74aac33"><path
             class="st0"
             rx="0"
             ry="0"
             d="m 329.2,38.7 c 2,2.1 3.8,4.5 5.3,7 l 1.7,-1 c -1.6,-2.6 -3.5,-5.1 -5.6,-7.3 z"
             id="path5908" /></g></g><g
         id="shape-471d1b56-7c24-80ba-8002-caf9a74ad400"><g
           class="fills"
           id="fills-471d1b56-7c24-80ba-8002-caf9a74ad400"><path
             class="st0"
             rx="0"
             ry="0"
             d="m 336.4,294.9 1.8,0.9 c 1.3,-2.8 2.4,-5.7 3.1,-8.7 l -1.9,-0.5 c -0.7,2.9 -1.7,5.7 -3,8.3 z"
             id="path5912" /></g></g><g
         id="shape-471d1b56-7c24-80ba-8002-caf9a74b0741"><g
           class="fills"
           id="fills-471d1b56-7c24-80ba-8002-caf9a74b0741"><rect
             class="st0"
             rx="0"
             ry="0"
             x="165.60001"
             y="23.799999"
             width="9"
             height="2"
             id="rect5916" /></g></g><g
         id="shape-471d1b56-7c24-80ba-8002-caf9a74b54d6"><g
           class="fills"
           id="fills-471d1b56-7c24-80ba-8002-caf9a74b54d6"><rect
             class="st0"
             rx="0"
             ry="0"
             x="340.5"
             y="77"
             width="2"
             height="9"
             id="rect5920" /></g></g><g
         id="shape-471d1b56-7c24-80ba-8002-caf9a74b54d7"><g
           class="fills"
           id="fills-471d1b56-7c24-80ba-8002-caf9a74b54d7"><rect
             class="st0"
             rx="0"
             ry="0"
             x="340.5"
             y="105"
             width="2"
             height="9"
             id="rect5924" /></g></g><g
         id="shape-471d1b56-7c24-80ba-8002-caf9a74ba276"><g
           class="fills"
           id="fills-471d1b56-7c24-80ba-8002-caf9a74ba276"><rect
             class="st0"
             rx="0"
             ry="0"
             x="340.5"
             y="91"
             width="2"
             height="9"
             id="rect5928" /></g></g><g
         id="shape-471d1b56-7c24-80ba-8002-caf9a74bfa80"><g
           class="fills"
           id="fills-471d1b56-7c24-80ba-8002-caf9a74bfa80"><path
             class="st0"
             rx="0"
             ry="0"
             d="m 342.3,62.9 -2,0.2 c 0.1,1.3 0.2,2.6 0.2,3.9 v 5 h 2 v -5 c 0,-1.4 -0.1,-2.8 -0.2,-4.1 z"
             id="path5932" /></g></g><g
         id="shape-471d1b56-7c24-80ba-8002-caf9a74bfa81"><g
           class="fills"
           id="fills-471d1b56-7c24-80ba-8002-caf9a74bfa81"><rect
             class="st0"
             rx="0"
             ry="0"
             x="340.5"
             y="147"
             width="2"
             height="9"
             id="rect5936" /></g></g><g
         id="shape-471d1b56-7c24-80ba-8002-caf9a74c1038"><g
           class="fills"
           id="fills-471d1b56-7c24-80ba-8002-caf9a74c1038"><rect
             class="st0"
             rx="0"
             ry="0"
             x="340.5"
             y="175"
             width="2"
             height="9"
             id="rect5940" /></g></g><g
         id="shape-471d1b56-7c24-80ba-8002-caf9a74c7769"><g
           class="fills"
           id="fills-471d1b56-7c24-80ba-8002-caf9a74c7769"><path
             class="st0"
             rx="0"
             ry="0"
             d="m 318.4,30.5 c 2.6,1.4 5,3 7.3,4.9 l 1.3,-1.5 c -2.4,-2 -4.9,-3.7 -7.7,-5.1 z"
             id="path5944" /></g></g><g
         id="shape-471d1b56-7c24-80ba-8002-caf9a74c776a"><g
           class="fills"
           id="fills-471d1b56-7c24-80ba-8002-caf9a74c776a"><rect
             class="st0"
             rx="0"
             ry="0"
             x="340.5"
             y="161"
             width="2"
             height="9"
             id="rect5948" /></g></g><g
         id="shape-471d1b56-7c24-80ba-8002-caf9a74caa94"><g
           class="fills"
           id="fills-471d1b56-7c24-80ba-8002-caf9a74caa94"><rect
             class="st0"
             rx="0"
             ry="0"
             x="340.5"
             y="133"
             width="2"
             height="9"
             id="rect5952" /></g></g><g
         id="shape-471d1b56-7c24-80ba-8002-caf9a74caa95"><g
           class="fills"
           id="fills-471d1b56-7c24-80ba-8002-caf9a74caa95"><rect
             class="st0"
             rx="0"
             ry="0"
             x="340.5"
             y="119"
             width="2"
             height="9"
             id="rect5956" /></g></g><g
         id="shape-471d1b56-7c24-80ba-8002-caf9a74cd200"><g
           class="fills"
           id="fills-471d1b56-7c24-80ba-8002-caf9a74cd200"><rect
             class="st0"
             rx="0"
             ry="0"
             x="220.3"
             y="318.10001"
             width="9"
             height="2"
             id="rect5960" /></g></g><g
         id="shape-471d1b56-7c24-80ba-8002-caf9a74cd201"><g
           class="fills"
           id="fills-471d1b56-7c24-80ba-8002-caf9a74cd201"><rect
             class="st0"
             rx="0"
             ry="0"
             x="207.60001"
             y="23.799999"
             width="9"
             height="2"
             id="rect5964" /></g></g><g
         id="shape-471d1b56-7c24-80ba-8002-caf9a74d1b60"><g
           class="fills"
           id="fills-471d1b56-7c24-80ba-8002-caf9a74d1b60"><rect
             class="st0"
             rx="0"
             ry="0"
             x="206.3"
             y="318.10001"
             width="9"
             height="2"
             id="rect5968" /></g></g><g
         id="shape-471d1b56-7c24-80ba-8002-caf9a74d46b6"><g
           class="fills"
           id="fills-471d1b56-7c24-80ba-8002-caf9a74d46b6"><rect
             class="st0"
             rx="0"
             ry="0"
             x="234.3"
             y="318.10001"
             width="9"
             height="2"
             id="rect5972" /></g></g><g
         id="shape-471d1b56-7c24-80ba-8002-caf9a74d46b7"><g
           class="fills"
           id="fills-471d1b56-7c24-80ba-8002-caf9a74d46b7"><rect
             class="st0"
             rx="0"
             ry="0"
             x="235.60001"
             y="23.799999"
             width="9"
             height="2"
             id="rect5976" /></g></g><g
         id="shape-471d1b56-7c24-80ba-8002-caf9a74dabc8"><g
           class="fills"
           id="fills-471d1b56-7c24-80ba-8002-caf9a74dabc8"><rect
             class="st0"
             rx="0"
             ry="0"
             x="221.60001"
             y="23.799999"
             width="9"
             height="2"
             id="rect5980" /></g></g><g
         id="shape-471d1b56-7c24-80ba-8002-caf9a74dc5bd"><g
           class="fills"
           id="fills-471d1b56-7c24-80ba-8002-caf9a74dc5bd"><rect
             class="st0"
             rx="0"
             ry="0"
             x="178.3"
             y="318.10001"
             width="9"
             height="2"
             id="rect5984" /></g></g><g
         id="shape-471d1b56-7c24-80ba-8002-caf9a74e33bd"><g
           class="fills"
           id="fills-471d1b56-7c24-80ba-8002-caf9a74e33bd"><rect
             class="st0"
             rx="0"
             ry="0"
             x="193.60001"
             y="23.799999"
             width="9"
             height="2"
             id="rect5988" /></g></g><g
         id="shape-471d1b56-7c24-80ba-8002-caf9a74e33be"><g
           class="fills"
           id="fills-471d1b56-7c24-80ba-8002-caf9a74e33be"><rect
             class="st0"
             rx="0"
             ry="0"
             x="179.60001"
             y="23.799999"
             width="9"
             height="2"
             id="rect5992" /></g></g><g
         id="shape-471d1b56-7c24-80ba-8002-caf9a74e4aa6"><g
           class="fills"
           id="fills-471d1b56-7c24-80ba-8002-caf9a74e4aa6"><rect
             class="st0"
             rx="0"
             ry="0"
             x="192.3"
             y="318.10001"
             width="9"
             height="2"
             id="rect5996" /></g></g><g
         id="shape-471d1b56-7c24-80ba-8002-caf9a74e4aa7"><g
           class="fills"
           id="fills-471d1b56-7c24-80ba-8002-caf9a74e4aa7"><path
             class="st0"
             rx="0"
             ry="0"
             d="m 304.4,317.8 0.2,2 c 3,-0.4 6.1,-1.1 9,-2.1 l -0.7,-1.9 c -2.7,1 -5.6,1.6 -8.5,2 z"
             id="path6000" /></g></g><g
         id="shape-471d1b56-7c24-80ba-8002-caf9a74e9cc8"><g
           class="fills"
           id="fills-471d1b56-7c24-80ba-8002-caf9a74e9cc8"><rect
             class="st0"
             rx="0"
             ry="0"
             x="248.3"
             y="318.10001"
             width="9"
             height="2"
             id="rect6004" /></g></g><g
         id="shape-471d1b56-7c24-80ba-8002-caf9a74e9cc9"><g
           class="fills"
           id="fills-471d1b56-7c24-80ba-8002-caf9a74e9cc9"><path
             class="st0"
             rx="0"
             ry="0"
             d="m 317.4,313.9 0.9,1.8 c 2.8,-1.3 5.4,-3 7.8,-4.9 l -1.2,-1.6 c -2.4,1.9 -4.9,3.4 -7.5,4.7 z"
             id="path6008" /></g></g><g
         id="shape-471d1b56-7c24-80ba-8002-caf9a74ed900"><g
           class="fills"
           id="fills-471d1b56-7c24-80ba-8002-caf9a74ed900"><path
             class="st0"
             rx="0"
             ry="0"
             d="m 300.6,25.8 0.1,-2 c -0.4,0 -0.8,0 -1.3,0 h -7.8 v 2 h 7.8 c 0.4,0 0.8,0 1.2,0 z"
             id="path6012" /></g></g><g
         id="shape-471d1b56-7c24-80ba-8002-caf9a74f0e4c"><g
           class="fills"
           id="fills-471d1b56-7c24-80ba-8002-caf9a74f0e4c"><path
             class="st0"
             rx="0"
             ry="0"
             d="m 314.6,26.6 c -2.9,-1.1 -5.9,-1.9 -8.9,-2.3 l -0.3,2 c 2.9,0.4 5.8,1.2 8.5,2.2 z"
             id="path6016" /></g></g><g
         id="shape-471d1b56-7c24-80ba-8002-caf9a74f0e4d"><g
           class="fills"
           id="fills-471d1b56-7c24-80ba-8002-caf9a74f0e4d"><rect
             class="st0"
             rx="0"
             ry="0"
             x="290.29999"
             y="318.10001"
             width="9.1999998"
             height="2"
             id="rect6020" /></g></g><g
         id="shape-471d1b56-7c24-80ba-8002-caf9a74f5328"><g
           class="fills"
           id="fills-471d1b56-7c24-80ba-8002-caf9a74f5328"><rect
             class="st0"
             rx="0"
             ry="0"
             x="263.60001"
             y="23.799999"
             width="9"
             height="2"
             id="rect6024" /></g></g><g
         id="shape-471d1b56-7c24-80ba-8002-caf9a74f5329"><g
           class="fills"
           id="fills-471d1b56-7c24-80ba-8002-caf9a74f5329"><rect
             class="st0"
             rx="0"
             ry="0"
             x="277.60001"
             y="23.799999"
             width="9"
             height="2"
             id="rect6028" /></g></g><g
         id="shape-471d1b56-7c24-80ba-8002-caf9a74fab64"><g
           class="fills"
           id="fills-471d1b56-7c24-80ba-8002-caf9a74fab64"><rect
             class="st0"
             rx="0"
             ry="0"
             x="249.60001"
             y="23.799999"
             width="9"
             height="2"
             id="rect6032" /></g></g><g
         id="shape-471d1b56-7c24-80ba-8002-caf9a74fab65"><g
           class="fills"
           id="fills-471d1b56-7c24-80ba-8002-caf9a74fab65"><rect
             class="st0"
             rx="0"
             ry="0"
             x="276.29999"
             y="318.10001"
             width="9"
             height="2"
             id="rect6036" /></g></g><g
         id="shape-471d1b56-7c24-80ba-8002-caf9a7502107"><g
           class="fills"
           id="fills-471d1b56-7c24-80ba-8002-caf9a7502107"><path
             class="st0"
             rx="0"
             ry="0"
             d="m 170.3,53.2 c -4.9,-0.6 -9.5,0.7 -12.5,3.6 -7.5,7.4 -6.4,17.8 2.9,27.2 l 2.1,-2.1 c -8,-8.2 -9.1,-16.8 -2.9,-23 2.3,-2.2 6,-3.2 10,-2.7 4.8,0.6 9.3,3.3 11.6,7 l 0.7,1.1 1.2,-0.5 c 3.4,-1.4 6.4,-1.5 8.9,-0.4 2.2,1.1 3.8,3.2 4.6,6.3 l 0.5,1.7 1.6,-0.7 c 2.6,-1.1 5.7,-0.5 8.3,1.6 2.2,1.8 4.2,5.1 3.9,9.1 -0.1,-0.1 -0.3,-0.2 -0.4,-0.2 -2.4,-1.2 -5.4,-1.3 -8.5,-0.2 -2.5,-3.3 -6.5,-5.5 -10.9,-6 -4.2,-0.5 -8,0.6 -10.6,3 -6.3,6.3 -5.4,15.1 2.4,23 l 2.1,-2.1 c -6.6,-6.7 -7.5,-13.7 -2.4,-18.7 1.9,-1.8 4.8,-2.6 8.1,-2.2 3.9,0.5 7.6,2.7 9.5,5.7 l 0.7,1.1 1.2,-0.5 c 2.7,-1.1 5.2,-1.3 7.2,-0.3 1.8,0.9 3,2.6 3.7,5.1 l 0.5,1.7 1.6,-0.7 c 2.1,-0.9 4.6,-0.4 6.6,1.3 2,1.7 3.8,4.9 2.9,8.7 l 2.9,0.7 c 1,-4.3 -0.5,-8.8 -3.9,-11.7 -2.5,-2.1 -5.4,-2.9 -8.2,-2.3 -0.4,-1.1 -1,-2.1 -1.7,-3 1.2,-5 -0.6,-10.3 -4.6,-13.7 -3,-2.5 -6.5,-3.4 -9.8,-2.6 -1.2,-3.1 -3.1,-5.4 -5.7,-6.7 -2.9,-1.4 -6.4,-1.5 -10.2,-0.2 -3.3,-4.1 -8.1,-6.8 -13.4,-7.4 z"
             id="path6040" /></g></g><g
         id="shape-471d1b56-7c24-80ba-8002-caf9a750677d"><g
           class="fills"
           id="fills-471d1b56-7c24-80ba-8002-caf9a750677d"><rect
             class="st0"
             rx="0"
             ry="0"
             x="87.400002"
             y="38.200001"
             width="2.4000001"
             height="23.5"
             id="rect6044" /></g></g><g
         id="shape-471d1b56-7c24-80ba-8002-caf9a750ce48"><g
           class="fills"
           id="fills-471d1b56-7c24-80ba-8002-caf9a750ce48"><path
             class="st0"
             rx="0"
             ry="0"
             d="m 73.1,90 c 1.4,1.9 3.1,3.5 5.2,4.8 l -10.7,14.6 2,1.4 10.9,-14.9 c 2.1,0.9 4.5,1.4 7,1.5 v 36.8 h 2.4 v -37 c 2.3,-0.3 4.4,-1 6.3,-2.1 l 32.9,57 2.1,-1.2 -33,-57.2 c 1.5,-1.2 2.9,-2.6 4,-4.2 l 44.5,25.7 1.2,-2.1 -44.5,-25.7 c 1,-2 1.6,-4.2 1.8,-6.6 h 40.3 V 78.4 H 105.2 C 105,76 104.4,73.8 103.4,71.8 l 26,-15 -1.2,-2.1 -26,15 c -1.1,-1.6 -2.4,-3 -4,-4.2 l 11.4,-19.7 -2.1,-1.2 -11.3,19.5 c -2.6,-1.5 -5.6,-2.3 -8.7,-2.3 -2.4,0 -4.8,0.5 -6.9,1.4 L 73.2,50.3 71,51.5 78.4,64.3 c -2.1,1.2 -3.9,2.9 -5.3,4.8 l -30,-18.8 -1.3,2.1 30,18.8 c -1.2,2.2 -1.9,4.6 -2.1,7.2 H 46.4 v 2.4 h 23.4 c 0.2,2.6 0.9,5 2,7.1 l -33.7,19.5 1.2,2.1 z M 87.5,64.2 c 8.5,0 15.3,6.9 15.3,15.3 0,8.5 -6.9,15.3 -15.3,15.3 C 79,94.8 72.2,87.9 72.2,79.5 72.1,71.1 79,64.2 87.5,64.2 Z"
             id="path6048" /></g></g><g
         id="shape-471d1b56-7c24-80ba-8002-caf9a7511c70"><g
           class="fills"
           id="fills-471d1b56-7c24-80ba-8002-caf9a7511c70"><rect
             class="st0"
             rx="0"
             ry="0"
             x="231.8"
             y="217.60001"
             width="4"
             height="13.8"
             id="rect6052" /></g></g><g
         id="shape-471d1b56-7c24-80ba-8002-caf9a7511c71"><g
           class="fills"
           id="fills-471d1b56-7c24-80ba-8002-caf9a7511c71"><rect
             class="st0"
             rx="0"
             ry="0"
             x="212.5"
             y="217.60001"
             width="4"
             height="13.8"
             id="rect6056" /></g></g><g
         id="shape-471d1b56-7c24-80ba-8002-caf9a751759f"><g
           class="fills"
           id="fills-471d1b56-7c24-80ba-8002-caf9a751759f"><rect
             class="st0"
             rx="0"
             ry="0"
             x="211.5"
             y="186.3"
             width="4"
             height="13.8"
             id="rect6060" /></g></g><g
         id="shape-471d1b56-7c24-80ba-8002-caf9a751b2ed"><g
           class="fills"
           id="fills-471d1b56-7c24-80ba-8002-caf9a751b2ed"><rect
             class="st0"
             rx="0"
             ry="0"
             x="231.8"
             y="186.3"
             width="4"
             height="13.8"
             id="rect6064" /></g></g><g
         id="shape-471d1b56-7c24-80ba-8002-caf9a751b2ee"><g
           class="fills"
           id="fills-471d1b56-7c24-80ba-8002-caf9a751b2ee"><rect
             class="st0"
             rx="0"
             ry="0"
             x="134.7"
             y="258.20001"
             width="3.0999999"
             height="11.7"
             id="rect6068" /></g></g><g
         id="shape-471d1b56-7c24-80ba-8002-caf9a751e638"><g
           class="fills"
           id="fills-471d1b56-7c24-80ba-8002-caf9a751e638"><rect
             class="st0"
             rx="0"
             ry="0"
             x="156.7"
             y="258.20001"
             width="3.0999999"
             height="11.7"
             id="rect6072" /></g></g><g
         id="shape-471d1b56-7c24-80ba-8002-caf9a751e639"><g
           class="fills"
           id="fills-471d1b56-7c24-80ba-8002-caf9a751e639"><rect
             class="st0"
             rx="0"
             ry="0"
             x="285.89999"
             y="207.8"
             width="4"
             height="13.5"
             id="rect6076" /></g></g><g
         id="shape-471d1b56-7c24-80ba-8002-caf9a7523646"><g
           class="fills"
           id="fills-471d1b56-7c24-80ba-8002-caf9a7523646"><rect
             class="st0"
             rx="0"
             ry="0"
             x="305.5"
             y="207.8"
             width="4"
             height="13.5"
             id="rect6080" /></g></g><g
         id="shape-471d1b56-7c24-80ba-8002-caf9a7523647"><g
           class="fills"
           id="fills-471d1b56-7c24-80ba-8002-caf9a7523647"><rect
             class="st0"
             rx="0"
             ry="0"
             x="285.89999"
             y="236.7"
             width="4"
             height="13.5"
             id="rect6084" /></g></g><g
         id="shape-471d1b56-7c24-80ba-8002-caf9a7526949"><g
           class="fills"
           id="fills-471d1b56-7c24-80ba-8002-caf9a7526949"><rect
             class="st0"
             rx="0"
             ry="0"
             x="305.5"
             y="236.7"
             width="4"
             height="13.5"
             id="rect6088" /></g></g><g
         id="shape-471d1b56-7c24-80ba-8002-caf9a7545f63"><g
           class="fills"
           id="fills-471d1b56-7c24-80ba-8002-caf9a7545f63"><path
             class="st0"
             rx="0"
             ry="0"
             d="m 306.2,296.8 h 17.2 V 175.4 l -17.7,9.1 v -5.7 l 7.6,-3.7 -4.2,-8.6 -34.6,17.1 4.2,8.6 4.7,-2.3 v 6.2 l -11.5,5.9 v 91.9 H 250 v -23.7 l 4.6,-6.2 -2.4,-1.8 -2.2,3 v -2.7 h -3 v 2.5 l -1.9,-2.7 -2.5,1.7 4.4,6.2 v 13.3 c -3.8,-1.4 -11.8,-5.6 -10.1,-15.5 0.5,-2.9 1.4,-4.5 2.2,-6 1.3,-2.4 2.5,-4.7 1.8,-10.9 -0.1,-3.1 0.5,-5.4 1.9,-6.8 1.6,-1.7 4,-2 5.7,-2 1.7,0 4.1,0.3 5.7,2 1.4,1.5 2,3.8 1.9,6.8 -0.7,6.3 0.4,8.5 1.8,11 0.8,1.5 1.6,3 2.2,5.8 1.6,7.7 -5.4,12.7 -5.7,12.9 -0.7,0.5 -0.9,1.4 -0.4,2.1 0.5,0.7 1.4,0.8 2.1,0.4 0.4,-0.3 9,-6.3 6.9,-16 -0.7,-3.2 -1.7,-5.1 -2.5,-6.6 -1.2,-2.3 -2.1,-3.9 -1.4,-9.3 0,0 0,-0.1 0,-0.1 0.2,-3.9 -0.8,-7 -2.8,-9.1 -1.4,-1.5 -3.3,-2.4 -5.6,-2.8 v -62.9 h 2.1 c 2.5,0 4.5,-2 4.5,-4.5 v -7.6 c 0,-2.5 -2,-4.5 -4.5,-4.5 h -24.1 v -7.8 h 18.4 c 0.4,0 0.8,-0.2 1,-0.5 0.3,-0.3 0.3,-0.7 0.2,-1.1 l -7.4,-27.6 c -0.2,-0.6 -0.7,-1 -1.3,-1 h -34.4 c -0.6,0 -1.1,0.4 -1.3,1 l -7.4,27.6 c -0.1,0.4 0,0.8 0.2,1.1 0.2,0.3 0.6,0.5 1,0.5 h 18.4 v 7.8 h -23 c -2.5,0 -4.5,2 -4.5,4.5 v 7.6 c 0,2.5 2,4.5 4.5,4.5 h 3.3 v 117.3 h -20.6 v -43.3 l 7.9,4.7 1.5,-2.6 -38.2,-22.9 -7.1,4.2 V 229 l 7.6,-3.7 -4.2,-8.6 -34.6,17.1 4.2,8.6 4.7,-2.3 v 7.1 h 0.1 l -8.9,5.3 1.5,2.6 7.5,-4.5 v 43.1 l -37,0.4 V 182.2 l 0.4,-1.7 c 0.7,-0.4 1.3,-1 1.8,-1.6 l 36.2,2.6 0.5,-8.1 -32.2,-8.7 -6.9,1.6 c -1,-0.5 -2,-0.9 -3.2,-1 l -18.1,-31.5 -7.1,4.1 10.8,31.5 5.2,4.8 c 0.1,0.8 0.3,1.6 0.6,2.4 l -19.3,30.7 6.9,4.3 15.1,-16.1 v 101.6 h 3 V 192.4 l 3.1,-3.3 v 105.1 0 3 l 43,-0.4 v -47.9 l 18.6,-11.1 h 0.4 v -0.3 l 7.1,-4.3 26.1,15.4 v 45.1 h -25.9 v 3 h 27.4 1.5 115.2 z m -218.5,-129 29,7.9 -0.2,2.7 -31.7,-2.4 c 0.9,-2.6 0.3,-4.8 -0.5,-6.3 -0.2,-0.3 -0.4,-0.6 -0.6,-0.9 0,0 0,0 0,0 0,0 -0.1,-0.1 -0.1,-0.2 z m -7.2,1.9 c 0,0 0.1,0.1 0.1,0.1 0.9,1 1.5,2.3 1.5,3.7 0,2.1 -1.3,4 -3.1,4.8 -0.1,0.1 -0.3,0.1 -0.5,0.2 -0.1,0 -0.1,0 -0.2,0.1 -0.2,0.1 -0.4,0.1 -0.6,0.2 -0.3,0.1 -0.6,0.1 -0.9,0.1 -2.9,0 -5.3,-2.4 -5.3,-5.3 0,0 0,0 0,0 0,-0.3 0,-0.6 0.1,-0.9 0,-0.1 0,-0.2 0,-0.2 0.5,-2.4 2.6,-4.1 5.2,-4.1 1.4,-0.2 2.7,0.4 3.7,1.3 z m -11.5,0.9 -3.1,-2.8 -9.7,-28.5 2.3,-1.4 15.8,27.6 c -3,0.8 -4.6,3 -5.3,5.1 z m 7.8,15.3 -20.6,22 -2.3,-1.4 16.9,-26.9 c 1.9,2 4.1,2.5 5.8,2.5 0.3,0 0.6,0 1,-0.1 0,0 0.1,0 0.1,0 0.1,0 0.1,0 0.2,0 v 0 z m 35.9,49.3 29.2,-14.4 1.6,3.2 -29.2,14.4 z m 7.9,3.4 16.3,-8.1 v 5.2 l -16.3,9.7 z m 95.3,-89.1 0.6,-6.6 h 12.3 l 0.6,6.6 z M 204,133.7 h 10.6 l -0.6,6.6 h -11.8 z m 13.3,0 H 228 l 0.6,6.6 h -11.8 z m 0.2,-2.6 0.6,-6.6 h 9 l 0.6,6.6 z m 25.5,9.2 h -11.8 l -0.6,-6.6 h 10.6 z m -11,9.2 -0.6,-6.6 h 12.3 l 1.7,6.6 z m 8.5,-18.4 h -10.2 l -0.6,-6.6 h 9 z m -34.1,-6.6 h 9 l -0.6,6.6 h -10.2 z m -4.9,18.4 h 12.3 l -0.6,6.6 h -13.4 z m 17.5,9.2 h 7 v 7.8 h -7 z m -25.6,21.4 c -0.8,0 -1.5,-0.7 -1.5,-1.5 v -7.6 c 0,-0.8 0.7,-1.5 1.5,-1.5 h 59.4 c 0.8,0 1.5,0.7 1.5,1.5 v 7.6 c 0,0.8 -0.7,1.5 -1.5,1.5 h -2.1 v 0 h -54.1 v 0 z m 6.3,3 h 48.1 v 62.8 c -3,0.1 -5.4,1.1 -7.1,2.9 -2,2.1 -2.9,5.1 -2.8,9.1 0,0 0,0.1 0,0.1 0.6,5.3 -0.3,6.9 -1.5,9.2 -0.9,1.6 -1.9,3.5 -2.5,6.9 -2.3,12.9 9.3,17.9 13,19.2 v 7.2 H 199.6 V 176.5 Z m 94.5,117.3 v -19.3 h 8.9 v 19.3 z m -15.7,-108.9 29.2,-14.4 1.6,3.2 -29.2,14.4 z m 7.9,3.4 16.3,-8.1 v 5.8 l -16.3,8.4 z m -11.5,105.5 v -90 l 45.5,-23.4 v 113.4 h -14.2 v -22.3 h -14.9 v 22.3 z"
             id="path6092" /></g></g></g></g>
</svg>
