<?xml version="1.0" encoding="UTF-8" standalone="no"?>
<svg
   width="360"
   height="346"
   id="screenshot-316d8937-66ad-809d-8002-c11874896264"
   viewBox="0 0 360 346.00001"
   style="-webkit-print-color-adjust:exact"
   fill="none"
   version="1.1"
   xmlns="http://www.w3.org/2000/svg"
   xmlns:svg="http://www.w3.org/2000/svg">
  <defs
     id="defs4991" />
  <g
     xml:space="preserve"
     x="0px"
     id="shape-316d8937-66ad-809d-8002-c11874896264"
     style="fill:#000000"
     ry="0"
     rx="0"
     y="0px"
     version="1.1"
     transform="translate(4)"><g
       id="shape-316d8937-66ad-809d-8002-c118748afdcc"><style
         type="text/css"
         rx="0"
         ry="0"
         style="fill:#000000"
         id="style4595">.st0{fill:#004B00;}</style></g><g
       id="shape-316d8937-66ad-809d-8002-c118748bf5cc"
       rx="0"
       ry="0"
       style="fill:#000000"><g
         id="shape-316d8937-66ad-809d-8002-c118748dbece"><g
           class="fills"
           id="fills-316d8937-66ad-809d-8002-c118748dbece"><path
             class="st0"
             rx="0"
             ry="0"
             d="m 54.99,107.737 2.047,-2.047 c -7.8,-7.995 -8.872,-16.38 -2.827,-22.425 2.243,-2.145 5.85,-3.12 9.75,-2.632 4.68,0.585 9.067,3.217 11.31,6.825 l 0.683,1.072 1.169,-0.487 c 3.316,-1.365 6.24,-1.463 8.678,-0.39 2.145,1.072 3.705,3.12 4.485,6.142 l 0.487,1.658 1.56,-0.683 c 2.535,-1.072 5.558,-0.487 8.093,1.56 2.145,1.755 4.095,4.973 3.802,8.873 -0.097,-0.098 -0.292,-0.195 -0.39,-0.195 -2.34,-1.17 -5.265,-1.268 -8.287,-0.195 -2.438,-3.218 -6.338,-5.363 -10.628,-5.85 -4.094,-0.488 -7.8,0.585 -10.335,2.925 -6.142,6.142 -5.265,14.722 2.341,22.424 l 2.047,-2.047 c -6.435,-6.533 -7.313,-13.357 -2.34,-18.232 1.852,-1.755 4.68,-2.535 7.898,-2.145 3.802,0.487 7.409,2.632 9.262,5.557 l 0.682,1.072 1.17,-0.487 c 2.633,-1.072 5.07,-1.267 7.02,-0.293 1.755,0.878 2.925,2.535 3.608,4.973 l 0.487,1.657 1.56,-0.682 c 2.048,-0.878 4.485,-0.39 6.435,1.267 1.95,1.658 3.705,4.778 2.828,8.483 l 2.827,0.682 c 0.975,-4.192 -0.487,-8.58 -3.802,-11.407 -2.438,-2.048 -5.265,-2.828 -7.995,-2.243 -0.39,-1.072 -0.975,-2.047 -1.658,-2.924 1.171,-4.875 -0.585,-10.043 -4.485,-13.358 C 99.547,91.748 96.135,90.87 92.917,91.65 91.747,88.628 89.895,86.385 87.36,85.118 84.533,83.753 81.12,83.655 77.415,84.923 74.587,81.12 69.908,78.488 64.642,77.805 59.865,77.22 55.38,78.488 52.455,81.315 44.947,88.433 46.02,98.573 54.99,107.737 Z"
             id="path4598" /></g></g><g
         id="shape-316d8937-66ad-809d-8002-c118748e8003"><g
           class="fills"
           id="fills-316d8937-66ad-809d-8002-c118748e8003"><rect
             class="st0"
             rx="0"
             ry="0"
             x="65.910004"
             y="23.692499"
             width="8.7749996"
             height="1.95"
             id="rect4602" /></g></g><g
         id="shape-316d8937-66ad-809d-8002-c118748f2f48"><g
           class="fills"
           id="fills-316d8937-66ad-809d-8002-c118748f2f48"><rect
             class="st0"
             rx="0"
             ry="0"
             x="79.559998"
             y="23.692499"
             width="8.7749996"
             height="1.95"
             id="rect4606" /></g></g><g
         id="shape-316d8937-66ad-809d-8002-c118748f9743"><g
           class="fills"
           id="fills-316d8937-66ad-809d-8002-c118748f9743"><rect
             class="st0"
             rx="0"
             ry="0"
             x="160.1925"
             y="310.53751"
             width="8.7749996"
             height="1.95"
             id="rect4610" /></g></g><g
         id="shape-316d8937-66ad-809d-8002-c1187490194d"><g
           class="fills"
           id="fills-316d8937-66ad-809d-8002-c1187490194d"><rect
             class="st0"
             rx="0"
             ry="0"
             x="78.292503"
             y="310.53751"
             width="8.7749996"
             height="1.95"
             id="rect4614" /></g></g><g
         id="shape-316d8937-66ad-809d-8002-c11874909055"><g
           class="fills"
           id="fills-316d8937-66ad-809d-8002-c11874909055"><rect
             class="st0"
             rx="0"
             ry="0"
             x="64.642502"
             y="310.53751"
             width="8.7749996"
             height="1.95"
             id="rect4618" /></g></g><g
         id="shape-316d8937-66ad-809d-8002-c1187491186e"><g
           class="fills"
           id="fills-316d8937-66ad-809d-8002-c1187491186e"><path
             class="st0"
             rx="0"
             ry="0"
             d="m 35.88,33.053 -1.17,-1.56 c -2.438,1.754 -4.68,3.704 -6.727,5.947 l 1.462,1.268 c 1.95,-2.145 4.095,-3.998 6.435,-5.655 z"
             id="path4622" /></g></g><g
         id="shape-316d8937-66ad-809d-8002-c1187491efe7"><g
           class="fills"
           id="fills-316d8937-66ad-809d-8002-c1187491efe7"><path
             class="st0"
             rx="0"
             ry="0"
             d="m 37.928,306.735 c 2.632,1.56 5.362,2.73 8.189,3.705 l 0.586,-1.852 c -2.731,-0.878 -5.363,-2.048 -7.801,-3.51 z"
             id="path4626" /></g></g><g
         id="shape-316d8937-66ad-809d-8002-c118749270c1"><g
           class="fills"
           id="fills-316d8937-66ad-809d-8002-c118749270c1"><path
             class="st0"
             rx="0"
             ry="0"
             d="m 51.285,309.758 -0.39,1.95 c 2.73,0.487 5.46,0.78 8.287,0.78 h 0.683 v -1.95 h -0.683 c -2.729,0 -5.362,-0.196 -7.897,-0.78 z"
             id="path4630" /></g></g><g
         id="shape-316d8937-66ad-809d-8002-c11874933a4a"><g
           class="fills"
           id="fills-316d8937-66ad-809d-8002-c11874933a4a"><path
             class="st0"
             rx="0"
             ry="0"
             d="M 47.775,27.203 47.19,25.35 c -2.828,0.878 -5.655,2.048 -8.288,3.413 l 0.976,1.755 c 2.534,-1.365 5.167,-2.438 7.897,-3.315 z"
             id="path4634" /></g></g><g
         id="shape-316d8937-66ad-809d-8002-c1187493ba76"><g
           class="fills"
           id="fills-316d8937-66ad-809d-8002-c1187493ba76"><rect
             class="st0"
             rx="0"
             ry="0"
             x="120.51"
             y="23.692499"
             width="8.7749996"
             height="1.95"
             id="rect4638" /></g></g><g
         id="shape-316d8937-66ad-809d-8002-c118749444d5"><g
           class="fills"
           id="fills-316d8937-66ad-809d-8002-c118749444d5"><rect
             class="st0"
             rx="0"
             ry="0"
             x="134.16"
             y="23.692499"
             width="8.7749996"
             height="1.95"
             id="rect4642" /></g></g><g
         id="shape-316d8937-66ad-809d-8002-c1187494f1b2"><g
           class="fills"
           id="fills-316d8937-66ad-809d-8002-c1187494f1b2"><rect
             class="st0"
             rx="0"
             ry="0"
             x="132.8925"
             y="310.53751"
             width="8.7749996"
             height="1.95"
             id="rect4646" /></g></g><g
         id="shape-316d8937-66ad-809d-8002-c1187495825a"><g
           class="fills"
           id="fills-316d8937-66ad-809d-8002-c1187495825a"><rect
             class="st0"
             rx="0"
             ry="0"
             x="146.5425"
             y="310.53751"
             width="8.7749996"
             height="1.95"
             id="rect4650" /></g></g><g
         id="shape-316d8937-66ad-809d-8002-c11874962805"><g
           class="fills"
           id="fills-316d8937-66ad-809d-8002-c11874962805"><path
             class="st0"
             rx="0"
             ry="0"
             d="m 28.665,296.595 -1.462,1.268 c 1.949,2.242 4.192,4.29 6.532,6.142 l 1.17,-1.56 c -2.243,-1.755 -4.388,-3.705 -6.24,-5.85 z"
             id="path4654" /></g></g><g
         id="shape-316d8937-66ad-809d-8002-c1187496ce7c"><g
           class="fills"
           id="fills-316d8937-66ad-809d-8002-c1187496ce7c"><rect
             class="st0"
             rx="0"
             ry="0"
             x="147.81"
             y="23.692499"
             width="8.7749996"
             height="1.95"
             id="rect4658" /></g></g><g
         id="shape-316d8937-66ad-809d-8002-c1187497755d"><g
           class="fills"
           id="fills-316d8937-66ad-809d-8002-c1187497755d"><rect
             class="st0"
             rx="0"
             ry="0"
             x="105.5925"
             y="310.53751"
             width="8.7749996"
             height="1.95"
             id="rect4662" /></g></g><g
         id="shape-316d8937-66ad-809d-8002-c1187497df1a"><g
           class="fills"
           id="fills-316d8937-66ad-809d-8002-c1187497df1a"><rect
             class="st0"
             rx="0"
             ry="0"
             x="93.209999"
             y="23.692499"
             width="8.7749996"
             height="1.95"
             id="rect4666" /></g></g><g
         id="shape-316d8937-66ad-809d-8002-c11874987bbf"><g
           class="fills"
           id="fills-316d8937-66ad-809d-8002-c11874987bbf"><rect
             class="st0"
             rx="0"
             ry="0"
             x="91.942497"
             y="310.53751"
             width="8.7749996"
             height="1.95"
             id="rect4670" /></g></g><g
         id="shape-316d8937-66ad-809d-8002-c11874992ca6"><g
           class="fills"
           id="fills-316d8937-66ad-809d-8002-c11874992ca6"><rect
             class="st0"
             rx="0"
             ry="0"
             x="106.86"
             y="23.692499"
             width="8.7749996"
             height="1.95"
             id="rect4674" /></g></g><g
         id="shape-316d8937-66ad-809d-8002-c11874999ddb"><g
           class="fills"
           id="fills-316d8937-66ad-809d-8002-c11874999ddb"><rect
             class="st0"
             rx="0"
             ry="0"
             x="119.2425"
             y="310.53751"
             width="8.7749996"
             height="1.95"
             id="rect4678" /></g></g><g
         id="shape-316d8937-66ad-809d-8002-c118749a6f7d"><g
           class="fills"
           id="fills-316d8937-66ad-809d-8002-c118749a6f7d"><path
             class="st0"
             rx="0"
             ry="0"
             d="m 59.182,25.643 h 1.853 v -1.95 h -1.853 c -2.34,0 -4.679,0.195 -7.02,0.585 l 0.293,1.95 c 2.145,-0.39 4.387,-0.585 6.727,-0.585 z"
             id="path4682" /></g></g><g
         id="shape-316d8937-66ad-809d-8002-c118749ae87d"><g
           class="fills"
           id="fills-316d8937-66ad-809d-8002-c118749ae87d"><rect
             class="st0"
             rx="0"
             ry="0"
             x="17.0625"
             y="122.1675"
             width="1.95"
             height="8.7749996"
             id="rect4686" /></g></g><g
         id="shape-316d8937-66ad-809d-8002-c118749b7391"><g
           class="fills"
           id="fills-316d8937-66ad-809d-8002-c118749b7391"><rect
             class="st0"
             rx="0"
             ry="0"
             x="17.0625"
             y="108.5175"
             width="1.95"
             height="8.7749996"
             id="rect4690" /></g></g><g
         id="shape-316d8937-66ad-809d-8002-c118749bfc05"><g
           class="fills"
           id="fills-316d8937-66ad-809d-8002-c118749bfc05"><rect
             class="st0"
             rx="0"
             ry="0"
             x="17.0625"
             y="94.8675"
             width="1.95"
             height="8.7749996"
             id="rect4694" /></g></g><g
         id="shape-316d8937-66ad-809d-8002-c118749c5633"><g
           class="fills"
           id="fills-316d8937-66ad-809d-8002-c118749c5633"><rect
             class="st0"
             rx="0"
             ry="0"
             x="17.0625"
             y="135.8175"
             width="1.95"
             height="8.7749996"
             id="rect4698" /></g></g><g
         id="shape-316d8937-66ad-809d-8002-c118749cd3b0"><g
           class="fills"
           id="fills-316d8937-66ad-809d-8002-c118749cd3b0"><rect
             class="st0"
             rx="0"
             ry="0"
             x="17.0625"
             y="149.4675"
             width="1.95"
             height="8.7749996"
             id="rect4702" /></g></g><g
         id="shape-316d8937-66ad-809d-8002-c118749d8c3e"><g
           class="fills"
           id="fills-316d8937-66ad-809d-8002-c118749d8c3e"><path
             class="st0"
             rx="0"
             ry="0"
             d="m 26.52,42.413 -1.56,-1.17 c -1.755,2.437 -3.218,5.07 -4.388,7.8 l 1.756,0.779 C 23.4,47.19 24.862,44.753 26.52,42.413 Z"
             id="path4706" /></g></g><g
         id="shape-316d8937-66ad-809d-8002-c118749e17d5"><g
           class="fills"
           id="fills-316d8937-66ad-809d-8002-c118749e17d5"><rect
             class="st0"
             rx="0"
             ry="0"
             x="17.0625"
             y="163.11749"
             width="1.95"
             height="8.7749996"
             id="rect4710" /></g></g><g
         id="shape-316d8937-66ad-809d-8002-c118749e8416"><g
           class="fills"
           id="fills-316d8937-66ad-809d-8002-c118749e8416"><path
             class="st0"
             rx="0"
             ry="0"
             d="m 20.67,54.308 -1.853,-0.585 c -0.877,2.827 -1.364,5.849 -1.56,8.774 l 1.95,0.098 c 0.098,-2.73 0.683,-5.557 1.463,-8.287 z"
             id="path4714" /></g></g><g
         id="shape-316d8937-66ad-809d-8002-c118749f05dc"><g
           class="fills"
           id="fills-316d8937-66ad-809d-8002-c118749f05dc"><path
             class="st0"
             rx="0"
             ry="0"
             d="m 332.962,56.842 c -0.584,-2.924 -1.56,-5.752 -2.827,-8.482 l -1.755,0.78 c 1.17,2.633 2.048,5.363 2.73,8.093 z"
             id="path4718" /></g></g><g
         id="shape-316d8937-66ad-809d-8002-c118749fdf66"><g
           class="fills"
           id="fills-316d8937-66ad-809d-8002-c118749fdf66"><rect
             class="st0"
             rx="0"
             ry="0"
             x="17.0625"
             y="67.567497"
             width="1.95"
             height="8.7749996"
             id="rect4722" /></g></g><g
         id="shape-316d8937-66ad-809d-8002-c11874a01bbf"><g
           class="fills"
           id="fills-316d8937-66ad-809d-8002-c11874a01bbf"><rect
             class="st0"
             rx="0"
             ry="0"
             x="17.0625"
             y="81.217499"
             width="1.95"
             height="8.7749996"
             id="rect4726" /></g></g><g
         id="shape-316d8937-66ad-809d-8002-c11874a084db"><g
           class="fills"
           id="fills-316d8937-66ad-809d-8002-c11874a084db"><rect
             class="st0"
             rx="0"
             ry="0"
             x="17.0625"
             y="245.0175"
             width="1.95"
             height="8.7749996"
             id="rect4730" /></g></g><g
         id="shape-316d8937-66ad-809d-8002-c11874a136aa"><g
           class="fills"
           id="fills-316d8937-66ad-809d-8002-c11874a136aa"><rect
             class="st0"
             rx="0"
             ry="0"
             x="17.0625"
             y="176.7675"
             width="1.95"
             height="8.7749996"
             id="rect4734" /></g></g><g
         id="shape-316d8937-66ad-809d-8002-c11874a19ff9"><g
           class="fills"
           id="fills-316d8937-66ad-809d-8002-c11874a19ff9"><path
             class="st0"
             rx="0"
             ry="0"
             d="m 19.012,272.22 -1.949,0.098 c 0.097,3.022 0.584,5.947 1.365,8.872 l 1.852,-0.487 c -0.683,-2.73 -1.073,-5.558 -1.268,-8.483 z"
             id="path4738" /></g></g><g
         id="shape-316d8937-66ad-809d-8002-c11874a23332"><g
           class="fills"
           id="fills-316d8937-66ad-809d-8002-c11874a23332"><path
             class="st0"
             rx="0"
             ry="0"
             d="m 19.987,285.967 c 1.073,2.73 2.535,5.461 4.193,7.898 l 1.657,-1.072 c -1.56,-2.34 -2.925,-4.875 -3.997,-7.605 z"
             id="path4742" /></g></g><g
         id="shape-316d8937-66ad-809d-8002-c11874a2b00f"><g
           class="fills"
           id="fills-316d8937-66ad-809d-8002-c11874a2b00f"><rect
             class="st0"
             rx="0"
             ry="0"
             x="17.0625"
             y="258.66751"
             width="1.95"
             height="8.7749996"
             id="rect4746" /></g></g><g
         id="shape-316d8937-66ad-809d-8002-c11874a323c8"><g
           class="fills"
           id="fills-316d8937-66ad-809d-8002-c11874a323c8"><rect
             class="st0"
             rx="0"
             ry="0"
             x="17.0625"
             y="204.0675"
             width="1.95"
             height="8.7749996"
             id="rect4750" /></g></g><g
         id="shape-316d8937-66ad-809d-8002-c11874a386bf"><g
           class="fills"
           id="fills-316d8937-66ad-809d-8002-c11874a386bf"><rect
             class="st0"
             rx="0"
             ry="0"
             x="17.0625"
             y="190.4175"
             width="1.95"
             height="8.7749996"
             id="rect4754" /></g></g><g
         id="shape-316d8937-66ad-809d-8002-c11874a3f200"><g
           class="fills"
           id="fills-316d8937-66ad-809d-8002-c11874a3f200"><rect
             class="st0"
             rx="0"
             ry="0"
             x="17.0625"
             y="231.36749"
             width="1.95"
             height="8.7749996"
             id="rect4758" /></g></g><g
         id="shape-316d8937-66ad-809d-8002-c11874a44e17"><g
           class="fills"
           id="fills-316d8937-66ad-809d-8002-c11874a44e17"><rect
             class="st0"
             rx="0"
             ry="0"
             x="17.0625"
             y="217.7175"
             width="1.95"
             height="8.7749996"
             id="rect4762" /></g></g><g
         id="shape-316d8937-66ad-809d-8002-c11874a4daa7"><g
           class="fills"
           id="fills-316d8937-66ad-809d-8002-c11874a4daa7"><rect
             class="st0"
             rx="0"
             ry="0"
             x="255.74249"
             y="310.53751"
             width="8.7749996"
             height="1.95"
             id="rect4766" /></g></g><g
         id="shape-316d8937-66ad-809d-8002-c11874a56e3a"><g
           class="fills"
           id="fills-316d8937-66ad-809d-8002-c11874a56e3a"><rect
             class="st0"
             rx="0"
             ry="0"
             x="331.98749"
             y="239.265"
             width="1.95"
             height="8.7749996"
             id="rect4770" /></g></g><g
         id="shape-316d8937-66ad-809d-8002-c11874a5c720"><g
           class="fills"
           id="fills-316d8937-66ad-809d-8002-c11874a5c720"><rect
             class="st0"
             rx="0"
             ry="0"
             x="331.98749"
             y="252.91499"
             width="1.95"
             height="8.7749996"
             id="rect4774" /></g></g><g
         id="shape-316d8937-66ad-809d-8002-c11874a631a5"><g
           class="fills"
           id="fills-316d8937-66ad-809d-8002-c11874a631a5"><rect
             class="st0"
             rx="0"
             ry="0"
             x="331.98749"
             y="184.66499"
             width="1.95"
             height="8.7749996"
             id="rect4778" /></g></g><g
         id="shape-316d8937-66ad-809d-8002-c11874a6a7fb"><g
           class="fills"
           id="fills-316d8937-66ad-809d-8002-c11874a6a7fb"><rect
             class="st0"
             rx="0"
             ry="0"
             x="331.98749"
             y="211.965"
             width="1.95"
             height="8.7749996"
             id="rect4782" /></g></g><g
         id="shape-316d8937-66ad-809d-8002-c11874a707fc"><g
           class="fills"
           id="fills-316d8937-66ad-809d-8002-c11874a707fc"><rect
             class="st0"
             rx="0"
             ry="0"
             x="331.98749"
             y="198.315"
             width="1.95"
             height="8.7749996"
             id="rect4786" /></g></g><g
         id="shape-316d8937-66ad-809d-8002-c11874a74b68"><g
           class="fills"
           id="fills-316d8937-66ad-809d-8002-c11874a74b68"><rect
             class="st0"
             rx="0"
             ry="0"
             x="331.98749"
             y="225.61501"
             width="1.95"
             height="8.7749996"
             id="rect4790" /></g></g><g
         id="shape-316d8937-66ad-809d-8002-c11874a7edca"><g
           class="fills"
           id="fills-316d8937-66ad-809d-8002-c11874a7edca"><path
             class="st0"
             rx="0"
             ry="0"
             d="m 320.287,298.74 1.365,1.365 c 2.145,-2.145 3.998,-4.485 5.655,-7.02 l -1.657,-1.072 c -1.56,2.534 -3.315,4.777 -5.363,6.727 z"
             id="path4794" /></g></g><g
         id="shape-316d8937-66ad-809d-8002-c11874a858d2"><g
           class="fills"
           id="fills-316d8937-66ad-809d-8002-c11874a858d2"><path
             class="st0"
             rx="0"
             ry="0"
             d="m 331.987,270.465 c 0,1.56 -0.097,3.218 -0.292,4.778 l 1.95,0.195 c 0.195,-1.658 0.293,-3.316 0.293,-5.07 v -3.803 h -1.951 z"
             id="path4798" /></g></g><g
         id="shape-316d8937-66ad-809d-8002-c11874a8e28a"><g
           class="fills"
           id="fills-316d8937-66ad-809d-8002-c11874a8e28a"><path
             class="st0"
             rx="0"
             ry="0"
             d="m 320.97,38.122 c 1.95,2.048 3.705,4.388 5.167,6.825 l 1.658,-0.974 c -1.56,-2.535 -3.413,-4.973 -5.46,-7.118 z"
             id="path4802" /></g></g><g
         id="shape-316d8937-66ad-809d-8002-c11874a9bf14"><g
           class="fills"
           id="fills-316d8937-66ad-809d-8002-c11874a9bf14"><path
             class="st0"
             rx="0"
             ry="0"
             d="m 327.99,287.918 1.755,0.877 c 1.267,-2.73 2.34,-5.557 3.022,-8.482 l -1.852,-0.488 c -0.682,2.828 -1.658,5.558 -2.925,8.093 z"
             id="path4806" /></g></g><g
         id="shape-316d8937-66ad-809d-8002-c11874aa0c03"><g
           class="fills"
           id="fills-316d8937-66ad-809d-8002-c11874aa0c03"><rect
             class="st0"
             rx="0"
             ry="0"
             x="161.46001"
             y="23.692499"
             width="8.7749996"
             height="1.95"
             id="rect4810" /></g></g><g
         id="shape-316d8937-66ad-809d-8002-c11874aa7b14"><g
           class="fills"
           id="fills-316d8937-66ad-809d-8002-c11874aa7b14"><rect
             class="st0"
             rx="0"
             ry="0"
             x="331.98749"
             y="75.464996"
             width="1.95"
             height="8.7749996"
             id="rect4814" /></g></g><g
         id="shape-316d8937-66ad-809d-8002-c11874aadee5"><g
           class="fills"
           id="fills-316d8937-66ad-809d-8002-c11874aadee5"><rect
             class="st0"
             rx="0"
             ry="0"
             x="331.98749"
             y="102.765"
             width="1.95"
             height="8.7749996"
             id="rect4818" /></g></g><g
         id="shape-316d8937-66ad-809d-8002-c11874ab0b97"><g
           class="fills"
           id="fills-316d8937-66ad-809d-8002-c11874ab0b97"><rect
             class="st0"
             rx="0"
             ry="0"
             x="331.98749"
             y="89.114998"
             width="1.95"
             height="8.7749996"
             id="rect4822" /></g></g><g
         id="shape-316d8937-66ad-809d-8002-c11874aba747"><g
           class="fills"
           id="fills-316d8937-66ad-809d-8002-c11874aba747"><path
             class="st0"
             rx="0"
             ry="0"
             d="m 333.742,61.717 -1.95,0.196 c 0.098,1.267 0.195,2.534 0.195,3.802 v 4.875 h 1.951 v -4.875 c 0,-1.268 -0.098,-2.632 -0.196,-3.998 z"
             id="path4826" /></g></g><g
         id="shape-316d8937-66ad-809d-8002-c11874ac395a"><g
           class="fills"
           id="fills-316d8937-66ad-809d-8002-c11874ac395a"><rect
             class="st0"
             rx="0"
             ry="0"
             x="331.98749"
             y="143.715"
             width="1.95"
             height="8.7749996"
             id="rect4830" /></g></g><g
         id="shape-316d8937-66ad-809d-8002-c11874ac8b2f"><g
           class="fills"
           id="fills-316d8937-66ad-809d-8002-c11874ac8b2f"><rect
             class="st0"
             rx="0"
             ry="0"
             x="331.98749"
             y="171.015"
             width="1.95"
             height="8.7749996"
             id="rect4834" /></g></g><g
         id="shape-316d8937-66ad-809d-8002-c11874ad0d6b"><g
           class="fills"
           id="fills-316d8937-66ad-809d-8002-c11874ad0d6b"><path
             class="st0"
             rx="0"
             ry="0"
             d="m 318.727,33.345 c -2.34,-1.95 -4.777,-3.607 -7.507,-4.973 l -0.878,1.756 c 2.536,1.365 4.875,2.925 7.118,4.777 z"
             id="path4838" /></g></g><g
         id="shape-316d8937-66ad-809d-8002-c11874ad80ea"><g
           class="fills"
           id="fills-316d8937-66ad-809d-8002-c11874ad80ea"><rect
             class="st0"
             rx="0"
             ry="0"
             x="331.98749"
             y="157.36501"
             width="1.95"
             height="8.7749996"
             id="rect4842" /></g></g><g
         id="shape-316d8937-66ad-809d-8002-c11874adeeb9"><g
           class="fills"
           id="fills-316d8937-66ad-809d-8002-c11874adeeb9"><rect
             class="st0"
             rx="0"
             ry="0"
             x="331.98749"
             y="130.065"
             width="1.95"
             height="8.7749996"
             id="rect4846" /></g></g><g
         id="shape-316d8937-66ad-809d-8002-c11874ae6105"><g
           class="fills"
           id="fills-316d8937-66ad-809d-8002-c11874ae6105"><rect
             class="st0"
             rx="0"
             ry="0"
             x="331.98749"
             y="116.415"
             width="1.95"
             height="8.7749996"
             id="rect4850" /></g></g><g
         id="shape-316d8937-66ad-809d-8002-c11874aee3d1"><g
           class="fills"
           id="fills-316d8937-66ad-809d-8002-c11874aee3d1"><rect
             class="st0"
             rx="0"
             ry="0"
             x="214.7925"
             y="310.53751"
             width="8.7749996"
             height="1.95"
             id="rect4854" /></g></g><g
         id="shape-316d8937-66ad-809d-8002-c11874af19d9"><g
           class="fills"
           id="fills-316d8937-66ad-809d-8002-c11874af19d9"><rect
             class="st0"
             rx="0"
             ry="0"
             x="202.41"
             y="23.692499"
             width="8.7749996"
             height="1.95"
             id="rect4858" /></g></g><g
         id="shape-316d8937-66ad-809d-8002-c11874afa7d9"><g
           class="fills"
           id="fills-316d8937-66ad-809d-8002-c11874afa7d9"><rect
             class="st0"
             rx="0"
             ry="0"
             x="201.1425"
             y="310.53751"
             width="8.7749996"
             height="1.95"
             id="rect4862" /></g></g><g
         id="shape-316d8937-66ad-809d-8002-c11874b00c92"><g
           class="fills"
           id="fills-316d8937-66ad-809d-8002-c11874b00c92"><rect
             class="st0"
             rx="0"
             ry="0"
             x="228.4425"
             y="310.53751"
             width="8.7749996"
             height="1.95"
             id="rect4866" /></g></g><g
         id="shape-316d8937-66ad-809d-8002-c11874b070d7"><g
           class="fills"
           id="fills-316d8937-66ad-809d-8002-c11874b070d7"><rect
             class="st0"
             rx="0"
             ry="0"
             x="229.71001"
             y="23.692499"
             width="8.7749996"
             height="1.95"
             id="rect4870" /></g></g><g
         id="shape-316d8937-66ad-809d-8002-c11874b0c066"><g
           class="fills"
           id="fills-316d8937-66ad-809d-8002-c11874b0c066"><rect
             class="st0"
             rx="0"
             ry="0"
             x="216.06"
             y="23.692499"
             width="8.7749996"
             height="1.95"
             id="rect4874" /></g></g><g
         id="shape-316d8937-66ad-809d-8002-c11874b14fb7"><g
           class="fills"
           id="fills-316d8937-66ad-809d-8002-c11874b14fb7"><rect
             class="st0"
             rx="0"
             ry="0"
             x="173.8425"
             y="310.53751"
             width="8.7749996"
             height="1.95"
             id="rect4878" /></g></g><g
         id="shape-316d8937-66ad-809d-8002-c11874b1ef47"><g
           class="fills"
           id="fills-316d8937-66ad-809d-8002-c11874b1ef47"><rect
             class="st0"
             rx="0"
             ry="0"
             x="188.75999"
             y="23.692499"
             width="8.7749996"
             height="1.95"
             id="rect4882" /></g></g><g
         id="shape-316d8937-66ad-809d-8002-c11874b273d2"><g
           class="fills"
           id="fills-316d8937-66ad-809d-8002-c11874b273d2"><rect
             class="st0"
             rx="0"
             ry="0"
             x="175.11"
             y="23.692499"
             width="8.7749996"
             height="1.95"
             id="rect4886" /></g></g><g
         id="shape-316d8937-66ad-809d-8002-c11874b2b07f"><g
           class="fills"
           id="fills-316d8937-66ad-809d-8002-c11874b2b07f"><rect
             class="st0"
             rx="0"
             ry="0"
             x="187.49249"
             y="310.53751"
             width="8.7749996"
             height="1.95"
             id="rect4890" /></g></g><g
         id="shape-316d8937-66ad-809d-8002-c11874b317e6"><g
           class="fills"
           id="fills-316d8937-66ad-809d-8002-c11874b317e6"><path
             class="st0"
             rx="0"
             ry="0"
             d="m 296.79,310.245 0.195,1.95 c 2.925,-0.39 5.947,-1.073 8.775,-2.047 l -0.682,-1.853 c -2.633,0.975 -5.461,1.658 -8.288,1.95 z"
             id="path4894" /></g></g><g
         id="shape-316d8937-66ad-809d-8002-c11874b3801c"><g
           class="fills"
           id="fills-316d8937-66ad-809d-8002-c11874b3801c"><rect
             class="st0"
             rx="0"
             ry="0"
             x="242.0925"
             y="310.53751"
             width="8.7749996"
             height="1.95"
             id="rect4898" /></g></g><g
         id="shape-316d8937-66ad-809d-8002-c11874b42ca9"><g
           class="fills"
           id="fills-316d8937-66ad-809d-8002-c11874b42ca9"><path
             class="st0"
             rx="0"
             ry="0"
             d="m 309.465,306.443 0.877,1.754 c 2.73,-1.267 5.265,-2.924 7.605,-4.777 l -1.17,-1.56 c -2.339,1.853 -4.777,3.413 -7.312,4.583 z"
             id="path4902" /></g></g><g
         id="shape-316d8937-66ad-809d-8002-c11874b4fcf2"><g
           class="fills"
           id="fills-316d8937-66ad-809d-8002-c11874b4fcf2"><path
             class="st0"
             rx="0"
             ry="0"
             d="m 293.085,25.643 0.097,-1.95 c -0.389,0 -0.78,0 -1.267,0 h -7.605 v 1.95 h 7.605 c 0.39,0 0.78,0 1.17,0 z"
             id="path4906" /></g></g><g
         id="shape-316d8937-66ad-809d-8002-c11874b57724"><g
           class="fills"
           id="fills-316d8937-66ad-809d-8002-c11874b57724"><path
             class="st0"
             rx="0"
             ry="0"
             d="m 306.735,26.325 c -2.827,-1.072 -5.752,-1.852 -8.678,-2.242 l -0.292,1.95 c 2.827,0.389 5.655,1.17 8.288,2.145 z"
             id="path4910" /></g></g><g
         id="shape-316d8937-66ad-809d-8002-c11874b5bb3a"><g
           class="fills"
           id="fills-316d8937-66ad-809d-8002-c11874b5bb3a"><rect
             class="st0"
             rx="0"
             ry="0"
             x="283.04251"
             y="310.53751"
             width="8.9700003"
             height="1.95"
             id="rect4914" /></g></g><g
         id="shape-316d8937-66ad-809d-8002-c11874b60027"><g
           class="fills"
           id="fills-316d8937-66ad-809d-8002-c11874b60027"><rect
             class="st0"
             rx="0"
             ry="0"
             x="257.01001"
             y="23.692499"
             width="8.7749996"
             height="1.95"
             id="rect4918" /></g></g><g
         id="shape-316d8937-66ad-809d-8002-c11874b6aa87"><g
           class="fills"
           id="fills-316d8937-66ad-809d-8002-c11874b6aa87"><rect
             class="st0"
             rx="0"
             ry="0"
             x="270.66"
             y="23.692499"
             width="8.7749996"
             height="1.95"
             id="rect4922" /></g></g><g
         id="shape-316d8937-66ad-809d-8002-c11874b727e3"><g
           class="fills"
           id="fills-316d8937-66ad-809d-8002-c11874b727e3"><rect
             class="st0"
             rx="0"
             ry="0"
             x="243.36"
             y="23.692499"
             width="8.7749996"
             height="1.95"
             id="rect4926" /></g></g><g
         id="shape-316d8937-66ad-809d-8002-c11874b743c7"><g
           class="fills"
           id="fills-316d8937-66ad-809d-8002-c11874b743c7"><rect
             class="st0"
             rx="0"
             ry="0"
             x="269.39249"
             y="310.53751"
             width="8.7749996"
             height="1.95"
             id="rect4930" /></g></g><g
         id="shape-316d8937-66ad-809d-8002-c11874b861ce"><g
           class="fills"
           id="fills-316d8937-66ad-809d-8002-c11874b861ce"><path
             class="st0"
             rx="0"
             ry="0"
             d="m 86.678,202.507 c 0.194,0.585 0.779,0.878 1.364,0.878 H 132.6 c 0.39,0 0.78,-0.195 1.072,-0.488 L 156.487,179.4 c 0.391,-0.39 0.488,-1.073 0.293,-1.56 -0.195,-0.585 -0.78,-0.878 -1.365,-0.878 h -44.557 c -0.391,0 -0.78,0.196 -1.073,0.488 L 86.97,200.947 c -0.39,0.39 -0.487,0.975 -0.292,1.56 z m 30.907,-15.21 h 11.505 l -4.583,4.778 h -11.504 z m -8.677,4.778 h -9.263 l 4.68,-4.778 h 9.165 z m 11.407,-7.703 4.192,-4.485 h 11.505 l -4.192,4.485 z m 12.772,2.925 h 11.7 l -4.679,4.778 H 128.505 Z M 121.68,195 l -5.168,5.46 h -11.505 l 5.168,-5.46 z m 10.335,5.46 H 120.51 l 5.168,-5.46 h 11.602 z m 15.697,-16.088 h -11.797 l 4.193,-4.485 h 11.895 z m -36.172,-4.387 h 8.97 l -4.193,4.485 H 107.25 Z M 96.817,195 h 9.263 l -5.168,5.46 h -9.457 z"
             id="path4934" /></g></g><g
         id="shape-316d8937-66ad-809d-8002-c11874b952dd"><g
           class="fills"
           id="fills-316d8937-66ad-809d-8002-c11874b952dd"><path
             class="st0"
             rx="0"
             ry="0"
             d="m 156.39,202.507 c 0.195,0.585 0.78,0.878 1.365,0.878 h 44.558 c 0.39,0 0.779,-0.195 1.072,-0.488 L 226.2,179.4 c 0.39,-0.39 0.488,-1.073 0.292,-1.56 -0.195,-0.488 -0.78,-0.878 -1.364,-0.878 H 180.57 c -0.39,0 -0.78,0.196 -1.073,0.488 l -22.815,23.497 c -0.487,0.39 -0.585,0.975 -0.292,1.56 z m 30.81,-15.21 h 11.505 l -4.583,4.778 h -11.505 z m -8.678,4.778 h -9.262 l 4.68,-4.778 h 9.165 z m 11.408,-7.703 4.192,-4.485 h 11.603 l -4.192,4.485 z m 12.773,2.925 h 11.699 l -4.68,4.778 H 198.12 Z m -11.311,7.703 -5.167,5.46 H 174.622 L 179.79,195 Z m 10.238,5.46 H 190.222 L 195.39,195 h 11.505 z m 15.698,-16.088 H 205.53 l 4.192,-4.485 h 11.895 z m -36.173,-4.387 h 8.97 l -4.193,4.485 h -9.067 z M 166.432,195 h 9.263 l -5.168,5.46 h -9.457 z"
             id="path4938" /></g></g><g
         id="shape-316d8937-66ad-809d-8002-c11874ba6a9a"><g
           class="fills"
           id="fills-316d8937-66ad-809d-8002-c11874ba6a9a"><path
             class="st0"
             rx="0"
             ry="0"
             d="m 126.945,209.722 c -0.195,-0.585 -0.78,-0.877 -1.365,-0.877 H 81.022 c -0.39,0 -0.78,0.195 -1.072,0.487 L 57.135,232.83 c -0.39,0.39 -0.488,1.072 -0.293,1.56 0.195,0.585 0.78,0.877 1.365,0.877 h 44.558 c 0.39,0 0.78,-0.195 1.072,-0.487 l 22.815,-23.498 c 0.39,-0.39 0.488,-0.975 0.293,-1.56 z m -31.98,13.845 H 83.46 l 4.387,-4.582 h 11.505 z m 8.482,-4.68 h 11.7 l -4.485,4.583 H 99.06 Z m -11.212,7.605 -5.557,5.85 H 75.075 l 5.557,-5.85 z M 79.462,223.567 H 70.2 l 4.485,-4.582 h 9.165 z m 11.213,-7.605 3.997,-4.192 h 11.506 l -3.998,4.192 z m -9.067,-4.192 h 9.067 l -3.997,4.192 H 77.61 Z m -14.236,14.722 h 9.263 l -5.557,5.85 H 61.62 Z m 34.71,5.85 H 90.675 l 5.558,-5.85 h 11.602 z m 15.893,-16.38 h -11.7 l 3.997,-4.192 h 11.895 z"
             id="path4942" /></g></g><g
         id="shape-316d8937-66ad-809d-8002-c11874bb491e"><g
           class="fills"
           id="fills-316d8937-66ad-809d-8002-c11874bb491e"><path
             class="st0"
             rx="0"
             ry="0"
             d="m 195.195,208.845 h -44.558 c -0.39,0 -0.779,0.195 -1.072,0.487 l -22.815,23.4 c -0.39,0.39 -0.488,1.073 -0.293,1.56 0.195,0.586 0.78,0.878 1.365,0.878 h 44.558 c 0.39,0 0.78,-0.195 1.073,-0.488 l 22.814,-23.497 c 0.391,-0.39 0.488,-1.073 0.293,-1.56 -0.195,-0.488 -0.78,-0.78 -1.365,-0.78 z m -30.517,14.722 h -11.603 l 4.387,-4.582 h 11.505 z m 8.385,-4.68 h 11.699 l -4.485,4.583 h -11.602 z m -11.213,7.605 -5.558,5.85 h -11.505 l 5.558,-5.85 z m -12.772,-2.925 h -9.263 l 4.485,-4.582 h 9.165 z m 11.212,-7.605 3.997,-4.192 h 11.505 l -3.997,4.192 z m -8.97,-4.192 h 8.97 l -3.998,4.192 h -9.067 z m -14.333,14.722 h 9.263 l -5.558,5.85 h -9.457 z m 34.808,5.85 H 160.29 l 5.557,-5.85 h 11.603 z m 15.893,-16.38 H 175.89 l 3.997,-4.192 h 11.896 z"
             id="path4946" /></g></g><g
         id="shape-316d8937-66ad-809d-8002-c11874bc451a"><g
           class="fills"
           id="fills-316d8937-66ad-809d-8002-c11874bc451a"><path
             class="st0"
             rx="0"
             ry="0"
             d="m 204.847,103.643 -30.907,20.669 1.657,2.438 30.908,-20.67 c 1.365,1.755 2.925,3.217 4.778,4.387 l -13.455,22.62 2.534,1.463 13.553,-22.718 c 2.243,1.073 4.68,1.658 7.215,1.853 l -0.195,30.81 h 2.925 l 0.195,-30.81 c 2.437,-0.195 4.68,-0.878 6.728,-1.853 l 25.057,42.12 2.535,-1.462 -25.058,-42.12 c 1.95,-1.268 3.608,-2.925 4.973,-4.68 l 71.565,36.66 1.365,-2.633 -71.37,-36.562 c 1.17,-2.145 1.853,-4.485 2.145,-6.922 l 78.097,4.387 0.195,-2.925 -78.195,-4.387 c -0.097,-2.535 -0.585,-5.07 -1.657,-7.313 L 286.065,58.5 284.602,55.965 239.07,83.363 C 238.387,82.29 237.705,81.315 236.828,80.438 235.95,79.56 235.072,78.683 234.097,78 L 253.5,45.922 250.965,44.363 231.563,76.342 c -2.146,-1.17 -4.583,-1.949 -7.118,-2.242 L 225.42,31.59 222.495,31.493 221.52,74.1 c -2.535,0.097 -4.973,0.585 -7.215,1.658 L 196.267,42.9 l -2.534,1.365 17.939,32.76 c -1.072,0.683 -2.047,1.463 -3.022,2.243 -1.56,1.462 -2.925,3.12 -3.9,4.972 l -57.33,-37.148 -1.56,2.438 57.72,37.343 c -0.683,1.95 -1.17,3.997 -1.267,6.142 0,0.683 0,1.365 0,1.95 h -71.176 v 2.925 h 71.566 c 0.389,2.048 1.169,3.998 2.144,5.753 z m 5.85,-22.23 c 3.12,-2.925 7.215,-4.485 11.506,-4.485 0.194,0 0.487,0 0.682,0 4.485,0.194 8.678,2.145 11.797,5.46 3.121,3.315 4.68,7.702 4.485,12.187 -0.39,9.36 -8.287,16.575 -17.647,16.282 -5.46,-0.195 -10.433,-3.022 -13.455,-7.604 -1.95,-3.023 -2.925,-6.435 -2.828,-10.043 0.195,-4.485 2.145,-8.677 5.46,-11.797 z"
             id="path4950" /></g></g><g
         id="shape-316d8937-66ad-809d-8002-c11874bd1427"><g
           class="fills"
           id="fills-316d8937-66ad-809d-8002-c11874bd1427"><rect
             class="st0"
             rx="0"
             ry="0"
             x="184.52003"
             y="145.43117"
             transform="rotate(-59.228876,191.24726,146.89357)"
             width="13.454725"
             height="2.9249403"
             id="rect4954" /></g></g><g
         id="shape-316d8937-66ad-809d-8002-c11874bd762b"><g
           class="fills"
           id="fills-316d8937-66ad-809d-8002-c11874bd762b"><rect
             class="st0"
             rx="0"
             ry="0"
             x="144.47862"
             y="135.81554"
             transform="rotate(-33.766328,157.10476,137.27816)"
             width="25.252163"
             height="2.9249611"
             id="rect4958" /></g></g><g
         id="shape-316d8937-66ad-809d-8002-c11874becf80"><g
           class="fills"
           id="fills-316d8937-66ad-809d-8002-c11874becf80"><path
             class="st0"
             rx="0"
             ry="0"
             d="m 316.192,266.955 c -1.56,-2.925 -2.73,-5.07 -1.852,-12.187 0,0 0,-0.098 0,-0.098 0.195,-3.998 -0.585,-7.215 -2.145,-9.653 v -18.232 l 6.923,6.63 2.047,-2.145 -64.545,-62.4 v 0 c -0.292,-0.293 -0.585,-0.39 -0.975,-0.39 h -32.077 l 0.097,-17.258 h -2.925 l -0.097,17.258 h -40.658 l 6.143,-10.335 -2.535,-1.463 -7.021,11.798 h -63.667 l 28.86,-19.305 -1.657,-2.438 -32.468,21.743 h -9.652 c -0.39,0 -0.781,0.195 -1.073,0.487 l -70.2,72.345 c -0.39,0.39 -0.488,1.073 -0.292,1.56 0.195,0.585 0.78,0.878 1.364,0.878 h 16.868 v 36.075 H 47.58 V 243.75 h 137.865 c 0.39,0 0.78,-0.195 1.073,-0.488 l 15.209,-15.6 v 72.346 h 2.925 V 224.64 l 51.091,-52.65 54.112,52.26 h -0.487 v 17.55 c -2.633,-1.755 -5.656,-2.243 -7.996,-2.243 -2.827,0 -6.824,0.585 -9.652,3.608 -2.437,2.535 -3.607,6.338 -3.412,11.213 0,0 0,0.097 0,0.097 0.78,6.923 -0.39,9.165 -1.95,11.895 -1.073,2.048 -2.34,4.388 -3.12,8.58 -2.048,11.7 4.972,18.135 10.822,21.45 h -56.452 v 2.925 h 63.667 v 0 c 0,0 0,0 0,0 0.682,0 1.267,-0.487 1.462,-1.072 0,-0.098 0,-0.195 0,-0.39 v 0 -19.695 l 6.046,-7.996 -2.341,-1.754 -3.705,4.875 v -4.778 h -2.924 v 4.583 l -3.218,-4.583 -2.437,1.657 5.655,7.996 v 17.745 c -1.756,-0.683 -4.583,-1.853 -7.216,-3.9 -5.557,-4.193 -7.702,-9.75 -6.532,-16.575 0.682,-3.803 1.755,-5.753 2.827,-7.703 1.561,-3.022 3.12,-5.85 2.243,-13.552 -0.195,-4.095 0.682,-7.118 2.632,-9.068 2.145,-2.243 5.266,-2.73 7.605,-2.73 2.34,0 5.46,0.487 7.605,2.73 1.853,1.95 2.73,4.973 2.633,9.068 -0.877,7.897 0.585,10.627 2.242,13.845 0.976,1.95 2.048,3.9 2.828,7.605 2.145,10.14 -7.02,16.672 -7.41,16.965 -0.683,0.487 -0.878,1.365 -0.39,2.047 0.487,0.683 1.365,0.78 2.048,0.39 0.487,-0.292 11.212,-7.897 8.677,-19.988 -1.17,-3.802 -2.34,-6.142 -3.413,-8.092 z M 184.762,240.922 H 31.2 l 67.372,-69.419 h 153.563 z"
             id="path4962" /></g></g><g
         id="shape-316d8937-66ad-809d-8002-c11874bf761e"><g
           class="fills"
           id="fills-316d8937-66ad-809d-8002-c11874bf761e"><rect
             class="st0"
             rx="0"
             ry="0"
             x="233.9025"
             y="232.44"
             width="3.9000001"
             height="17.647499"
             id="rect4966" /></g></g><g
         id="shape-316d8937-66ad-809d-8002-c11874bfe8d6"><g
           class="fills"
           id="fills-316d8937-66ad-809d-8002-c11874bfe8d6"><rect
             class="st0"
             rx="0"
             ry="0"
             x="86.970001"
             y="262.17749"
             width="3.9000001"
             height="17.647499"
             id="rect4970" /></g></g><g
         id="shape-316d8937-66ad-809d-8002-c11874c00f2e"><g
           class="fills"
           id="fills-316d8937-66ad-809d-8002-c11874c00f2e"><rect
             class="st0"
             rx="0"
             ry="0"
             x="148.6875"
             y="262.17749"
             width="3.9000001"
             height="17.647499"
             id="rect4974" /></g></g><g
         id="shape-316d8937-66ad-809d-8002-c11874c0b801"><g
           class="fills"
           id="fills-316d8937-66ad-809d-8002-c11874c0b801"><rect
             class="st0"
             rx="0"
             ry="0"
             x="276.2175"
             y="232.44"
             width="3.9000001"
             height="17.647499"
             id="rect4978" /></g></g><g
         id="shape-316d8937-66ad-809d-8002-c11874c10fd3"><g
           class="fills"
           id="fills-316d8937-66ad-809d-8002-c11874c10fd3"><rect
             class="st0"
             rx="0"
             ry="0"
             x="246.48"
             y="288.11249"
             width="27.495001"
             height="2.925"
             id="rect4982" /></g></g></g></g>
</svg>
