<svg xmlns:xlink="http://www.w3.org/1999/xlink" width="360" xmlns="http://www.w3.org/2000/svg" height="371.303" id="screenshot-471d1b56-7c24-80ba-8002-cb02677f65dc" viewBox="0 -36 360 371.303" style="-webkit-print-color-adjust: exact;" fill="none" version="1.1"><g xmlns:xlink="http://www.w3.org/1999/xlink" xml:space="preserve" x="0px" id="shape-471d1b56-7c24-80ba-8002-cb02677f65dc" style="fill: rgb(0, 0, 0);" ry="0" rx="0" y="0px" version="1.1"><g id="shape-471d1b56-7c24-80ba-8002-cb02678047c1"><style type="text/css" rx="0" ry="0" style="fill: rgb(0, 0, 0);">.st0{fill:#004B00;}</style></g><g id="shape-471d1b56-7c24-80ba-8002-cb026780c36e" rx="0" ry="0" style="fill: rgb(0, 0, 0);"><g id="shape-471d1b56-7c24-80ba-8002-cb026781c5a0"><g class="fills" id="fills-471d1b56-7c24-80ba-8002-cb026781c5a0"><rect class="st0" rx="0" ry="0" x="65.91" y="23.205000000000382" transform="matrix(1.000000, 0.000000, 0.000000, 1.000000, 0.000000, 0.000000)" width="8.774999999999977" height="1.949999999999818"/></g></g><g id="shape-471d1b56-7c24-80ba-8002-cb0267821362"><g class="fills" id="fills-471d1b56-7c24-80ba-8002-cb0267821362"><rect class="st0" rx="0" ry="0" x="79.56" y="23.205000000000382" transform="matrix(1.000000, 0.000000, 0.000000, 1.000000, 0.000000, 0.000000)" width="8.775000000000006" height="1.949999999999818"/></g></g><g id="shape-471d1b56-7c24-80ba-8002-cb026782703d"><g class="fills" id="fills-471d1b56-7c24-80ba-8002-cb026782703d"><rect class="st0" rx="0" ry="0" x="160.1925" y="310.14750000000004" transform="matrix(1.000000, 0.000000, 0.000000, 1.000000, 0.000000, 0.000000)" width="8.775000000000006" height="1.9500000000002728"/></g></g><g id="shape-471d1b56-7c24-80ba-8002-cb0267829331"><g class="fills" id="fills-471d1b56-7c24-80ba-8002-cb0267829331"><rect class="st0" rx="0" ry="0" x="78.29250000000002" y="310.14750000000004" transform="matrix(1.000000, 0.000000, 0.000000, 1.000000, 0.000000, 0.000000)" width="8.775000000000006" height="1.9500000000002728"/></g></g><g id="shape-471d1b56-7c24-80ba-8002-cb026782f397"><g class="fills" id="fills-471d1b56-7c24-80ba-8002-cb026782f397"><rect class="st0" rx="0" ry="0" x="64.64250000000001" y="310.14750000000004" transform="matrix(1.000000, 0.000000, 0.000000, 1.000000, 0.000000, 0.000000)" width="8.774999999999977" height="1.9500000000002728"/></g></g><g id="shape-471d1b56-7c24-80ba-8002-cb0267835b55"><g class="fills" id="fills-471d1b56-7c24-80ba-8002-cb0267835b55"><path class="st0" rx="0" ry="0" d="M27.982,36.953L29.445,38.220C31.395,36.075,33.540,34.223,35.880,32.565L34.710,31.005C32.272,32.760,30.030,34.710,27.982,36.953ZZ"/></g></g><g id="shape-471d1b56-7c24-80ba-8002-cb02678384eb"><g class="fills" id="fills-471d1b56-7c24-80ba-8002-cb02678384eb"><path class="st0" rx="0" ry="0" d="M37.928,306.345C40.560,307.905,43.290,309.075,46.118,310.050L46.702,308.198C43.972,307.320,41.340,306.150,38.903,304.688L37.928,306.345ZZ"/></g></g><g id="shape-471d1b56-7c24-80ba-8002-cb0267843778"><g class="fills" id="fills-471d1b56-7c24-80ba-8002-cb0267843778"><path class="st0" rx="0" ry="0" d="M51.285,309.368L50.895,311.318C53.625,311.805,56.355,312.098,59.182,312.098L59.865,312.098L59.865,310.148L59.182,310.148C56.452,310.148,53.820,309.855,51.285,309.368ZZ"/></g></g><g id="shape-471d1b56-7c24-80ba-8002-cb0267847ac1"><g class="fills" id="fills-471d1b56-7c24-80ba-8002-cb0267847ac1"><path class="st0" rx="0" ry="0" d="M47.775,26.813L47.190,24.960C44.362,25.838,41.535,27.008,38.903,28.372L39.877,30.128C42.412,28.665,45.045,27.593,47.775,26.813ZZ"/></g></g><g id="shape-471d1b56-7c24-80ba-8002-cb02678489f2"><g class="fills" id="fills-471d1b56-7c24-80ba-8002-cb02678489f2"><rect class="st0" rx="0" ry="0" x="120.50999999999999" y="23.205000000000382" transform="matrix(1.000000, 0.000000, 0.000000, 1.000000, 0.000000, 0.000000)" width="8.774999999999977" height="1.949999999999818"/></g></g><g id="shape-471d1b56-7c24-80ba-8002-cb026784eb3f"><g class="fills" id="fills-471d1b56-7c24-80ba-8002-cb026784eb3f"><rect class="st0" rx="0" ry="0" x="134.15999999999997" y="23.205000000000382" transform="matrix(1.000000, 0.000000, 0.000000, 1.000000, 0.000000, 0.000000)" width="8.775000000000034" height="1.949999999999818"/></g></g><g id="shape-471d1b56-7c24-80ba-8002-cb0267852ece"><g class="fills" id="fills-471d1b56-7c24-80ba-8002-cb0267852ece"><rect class="st0" rx="0" ry="0" x="132.89249999999998" y="310.14750000000004" transform="matrix(1.000000, 0.000000, 0.000000, 1.000000, 0.000000, 0.000000)" width="8.775000000000034" height="1.9500000000002728"/></g></g><g id="shape-471d1b56-7c24-80ba-8002-cb0267854a87"><g class="fills" id="fills-471d1b56-7c24-80ba-8002-cb0267854a87"><rect class="st0" rx="0" ry="0" x="146.54250000000002" y="310.14750000000004" transform="matrix(1.000000, 0.000000, 0.000000, 1.000000, 0.000000, 0.000000)" width="8.774999999999977" height="1.9500000000002728"/></g></g><g id="shape-471d1b56-7c24-80ba-8002-cb02678583aa"><g class="fills" id="fills-471d1b56-7c24-80ba-8002-cb02678583aa"><path class="st0" rx="0" ry="0" d="M28.665,296.108L27.202,297.375C29.153,299.618,31.395,301.665,33.735,303.518L34.905,301.957C32.662,300.300,30.518,298.350,28.665,296.108ZZ"/></g></g><g id="shape-471d1b56-7c24-80ba-8002-cb02678583ab"><g class="fills" id="fills-471d1b56-7c24-80ba-8002-cb02678583ab"><rect class="st0" rx="0" ry="0" x="147.81" y="23.205000000000382" transform="matrix(1.000000, 0.000000, 0.000000, 1.000000, 0.000000, 0.000000)" width="8.774999999999977" height="1.949999999999818"/></g></g><g id="shape-471d1b56-7c24-80ba-8002-cb026785c1c5"><g class="fills" id="fills-471d1b56-7c24-80ba-8002-cb026785c1c5"><rect class="st0" rx="0" ry="0" x="105.59250000000003" y="310.14750000000004" transform="matrix(1.000000, 0.000000, 0.000000, 1.000000, 0.000000, 0.000000)" width="8.775000000000006" height="1.9500000000002728"/></g></g><g id="shape-471d1b56-7c24-80ba-8002-cb026786278d"><g class="fills" id="fills-471d1b56-7c24-80ba-8002-cb026786278d"><rect class="st0" rx="0" ry="0" x="93.20999999999998" y="23.205000000000382" transform="matrix(1.000000, 0.000000, 0.000000, 1.000000, 0.000000, 0.000000)" width="8.775000000000006" height="1.949999999999818"/></g></g><g id="shape-471d1b56-7c24-80ba-8002-cb026786278e"><g class="fills" id="fills-471d1b56-7c24-80ba-8002-cb026786278e"><rect class="st0" rx="0" ry="0" x="91.9425" y="310.14750000000004" transform="matrix(1.000000, 0.000000, 0.000000, 1.000000, 0.000000, 0.000000)" width="8.775000000000006" height="1.9500000000002728"/></g></g><g id="shape-471d1b56-7c24-80ba-8002-cb026786495f"><g class="fills" id="fills-471d1b56-7c24-80ba-8002-cb026786495f"><rect class="st0" rx="0" ry="0" x="106.86000000000001" y="23.205000000000382" transform="matrix(1.000000, 0.000000, 0.000000, 1.000000, 0.000000, 0.000000)" width="8.775000000000006" height="1.949999999999818"/></g></g><g id="shape-471d1b56-7c24-80ba-8002-cb02678688b6"><g class="fills" id="fills-471d1b56-7c24-80ba-8002-cb02678688b6"><rect class="st0" rx="0" ry="0" x="119.2425" y="310.14750000000004" transform="matrix(1.000000, 0.000000, 0.000000, 1.000000, 0.000000, 0.000000)" width="8.774999999999977" height="1.9500000000002728"/></g></g><g id="shape-471d1b56-7c24-80ba-8002-cb026786df19"><g class="fills" id="fills-471d1b56-7c24-80ba-8002-cb026786df19"><path class="st0" rx="0" ry="0" d="M59.182,25.155L61.035,25.155L61.035,23.205L59.182,23.205C56.843,23.205,54.502,23.400,52.162,23.790L52.455,25.740C54.600,25.350,56.843,25.155,59.182,25.155ZZ"/></g></g><g id="shape-471d1b56-7c24-80ba-8002-cb02678714b5"><g class="fills" id="fills-471d1b56-7c24-80ba-8002-cb02678714b5"><rect class="st0" rx="0" ry="0" x="17.0625" y="121.68000000000029" transform="matrix(1.000000, 0.000000, 0.000000, 1.000000, 0.000000, 0.000000)" width="1.9499999999999886" height="8.775000000000091"/></g></g><g id="shape-471d1b56-7c24-80ba-8002-cb02678714b6"><g class="fills" id="fills-471d1b56-7c24-80ba-8002-cb02678714b6"><rect class="st0" rx="0" ry="0" x="17.0625" y="108.03000000000065" transform="matrix(1.000000, 0.000000, 0.000000, 1.000000, 0.000000, 0.000000)" width="1.9499999999999886" height="8.775000000000091"/></g></g><g id="shape-471d1b56-7c24-80ba-8002-cb026787681b"><g class="fills" id="fills-471d1b56-7c24-80ba-8002-cb026787681b"><rect class="st0" rx="0" ry="0" x="17.0625" y="94.38000000000056" transform="matrix(1.000000, 0.000000, 0.000000, 1.000000, 0.000000, 0.000000)" width="1.9499999999999886" height="8.774999999999636"/></g></g><g id="shape-471d1b56-7c24-80ba-8002-cb026787681c"><g class="fills" id="fills-471d1b56-7c24-80ba-8002-cb026787681c"><rect class="st0" rx="0" ry="0" x="17.0625" y="135.33000000000084" transform="matrix(1.000000, 0.000000, 0.000000, 1.000000, 0.000000, 0.000000)" width="1.9499999999999886" height="8.775000000000091"/></g></g><g id="shape-471d1b56-7c24-80ba-8002-cb026787b81e"><g class="fills" id="fills-471d1b56-7c24-80ba-8002-cb026787b81e"><rect class="st0" rx="0" ry="0" x="17.0625" y="148.98000000000047" transform="matrix(1.000000, 0.000000, 0.000000, 1.000000, 0.000000, 0.000000)" width="1.9499999999999886" height="8.775000000000091"/></g></g><g id="shape-471d1b56-7c24-80ba-8002-cb026787f27a"><g class="fills" id="fills-471d1b56-7c24-80ba-8002-cb026787f27a"><path class="st0" rx="0" ry="0" d="M20.475,48.653L22.230,49.432C23.400,46.800,24.765,44.265,26.422,42.023L24.862,40.853C23.107,43.290,21.645,45.923,20.475,48.653ZZ"/></g></g><g id="shape-471d1b56-7c24-80ba-8002-cb0267880981"><g class="fills" id="fills-471d1b56-7c24-80ba-8002-cb0267880981"><rect class="st0" rx="0" ry="0" x="17.0625" y="162.63000000000056" transform="matrix(1.000000, 0.000000, 0.000000, 1.000000, 0.000000, 0.000000)" width="1.9499999999999886" height="8.774999999999636"/></g></g><g id="shape-471d1b56-7c24-80ba-8002-cb0267886b48"><g class="fills" id="fills-471d1b56-7c24-80ba-8002-cb0267886b48"><path class="st0" rx="0" ry="0" d="M20.670,53.918L18.817,53.332C17.940,56.160,17.452,59.182,17.257,62.108L19.207,62.205C19.305,59.475,19.890,56.648,20.670,53.918ZZ"/></g></g><g id="shape-471d1b56-7c24-80ba-8002-cb026788a945"><g class="fills" id="fills-471d1b56-7c24-80ba-8002-cb026788a945"><path class="st0" rx="0" ry="0" d="M332.962,56.355C332.377,53.430,331.402,50.603,330.135,47.872L328.380,48.653C329.550,51.285,330.428,54.015,331.110,56.745L332.962,56.355ZZ"/></g></g><g id="shape-471d1b56-7c24-80ba-8002-cb026788a946"><g class="fills" id="fills-471d1b56-7c24-80ba-8002-cb026788a946"><rect class="st0" rx="0" ry="0" x="17.0625" y="67.08000000000084" transform="matrix(1.000000, 0.000000, 0.000000, 1.000000, 0.000000, 0.000000)" width="1.9499999999999886" height="8.775000000000091"/></g></g><g id="shape-471d1b56-7c24-80ba-8002-cb026788ccd0"><g class="fills" id="fills-471d1b56-7c24-80ba-8002-cb026788ccd0"><rect class="st0" rx="0" ry="0" x="17.0625" y="80.73000000000047" transform="matrix(1.000000, 0.000000, 0.000000, 1.000000, 0.000000, 0.000000)" width="1.9499999999999886" height="8.775000000000091"/></g></g><g id="shape-471d1b56-7c24-80ba-8002-cb026789172a"><g class="fills" id="fills-471d1b56-7c24-80ba-8002-cb026789172a"><rect class="st0" rx="0" ry="0" x="17.0625" y="244.53000000000065" transform="matrix(1.000000, 0.000000, 0.000000, 1.000000, 0.000000, 0.000000)" width="1.9499999999999886" height="8.775000000000091"/></g></g><g id="shape-471d1b56-7c24-80ba-8002-cb026789172b"><g class="fills" id="fills-471d1b56-7c24-80ba-8002-cb026789172b"><rect class="st0" rx="0" ry="0" x="17.0625" y="176.28000000000065" transform="matrix(1.000000, 0.000000, 0.000000, 1.000000, 0.000000, 0.000000)" width="1.9499999999999886" height="8.775000000000091"/></g></g><g id="shape-471d1b56-7c24-80ba-8002-cb0267896da7"><g class="fills" id="fills-471d1b56-7c24-80ba-8002-cb0267896da7"><path class="st0" rx="0" ry="0" d="M19.012,271.830L17.063,271.928C17.160,274.950,17.647,277.875,18.428,280.800L20.280,280.313C19.597,277.485,19.207,274.657,19.012,271.830ZZ"/></g></g><g id="shape-471d1b56-7c24-80ba-8002-cb026789a729"><g class="fills" id="fills-471d1b56-7c24-80ba-8002-cb026789a729"><path class="st0" rx="0" ry="0" d="M19.987,285.480C21.060,288.210,22.522,290.940,24.180,293.378L25.837,292.305C24.278,289.965,22.913,287.430,21.840,284.700L19.987,285.480ZZ"/></g></g><g id="shape-471d1b56-7c24-80ba-8002-cb026789db5c"><g class="fills" id="fills-471d1b56-7c24-80ba-8002-cb026789db5c"><rect class="st0" rx="0" ry="0" x="17.0625" y="258.1800000000003" transform="matrix(1.000000, 0.000000, 0.000000, 1.000000, 0.000000, 0.000000)" width="1.9499999999999886" height="8.775000000000091"/></g></g><g id="shape-471d1b56-7c24-80ba-8002-cb026789db5d"><g class="fills" id="fills-471d1b56-7c24-80ba-8002-cb026789db5d"><rect class="st0" rx="0" ry="0" x="17.0625" y="203.58000000000084" transform="matrix(1.000000, 0.000000, 0.000000, 1.000000, 0.000000, 0.000000)" width="1.9499999999999886" height="8.775000000000091"/></g></g><g id="shape-471d1b56-7c24-80ba-8002-cb02678a3eb0"><g class="fills" id="fills-471d1b56-7c24-80ba-8002-cb02678a3eb0"><rect class="st0" rx="0" ry="0" x="17.0625" y="189.9300000000003" transform="matrix(1.000000, 0.000000, 0.000000, 1.000000, 0.000000, 0.000000)" width="1.9499999999999886" height="8.775000000000091"/></g></g><g id="shape-471d1b56-7c24-80ba-8002-cb02678a50e9"><g class="fills" id="fills-471d1b56-7c24-80ba-8002-cb02678a50e9"><rect class="st0" rx="0" ry="0" x="17.0625" y="230.88000000000056" transform="matrix(1.000000, 0.000000, 0.000000, 1.000000, 0.000000, 0.000000)" width="1.9499999999999886" height="8.774999999999636"/></g></g><g id="shape-471d1b56-7c24-80ba-8002-cb02678a50ea"><g class="fills" id="fills-471d1b56-7c24-80ba-8002-cb02678a50ea"><rect class="st0" rx="0" ry="0" x="17.0625" y="217.23000000000047" transform="matrix(1.000000, 0.000000, 0.000000, 1.000000, 0.000000, 0.000000)" width="1.9499999999999886" height="8.775000000000091"/></g></g><g id="shape-471d1b56-7c24-80ba-8002-cb02678a9d1d"><g class="fills" id="fills-471d1b56-7c24-80ba-8002-cb02678a9d1d"><rect class="st0" rx="0" ry="0" x="255.7425" y="310.14750000000004" transform="matrix(1.000000, 0.000000, 0.000000, 1.000000, 0.000000, 0.000000)" width="8.774999999999977" height="1.9500000000002728"/></g></g><g id="shape-471d1b56-7c24-80ba-8002-cb02678ae352"><g class="fills" id="fills-471d1b56-7c24-80ba-8002-cb02678ae352"><rect class="st0" rx="0" ry="0" x="331.98749999999995" y="238.875" transform="matrix(1.000000, 0.000000, 0.000000, 1.000000, 0.000000, 0.000000)" width="1.9500000000000455" height="8.775000000000091"/></g></g><g id="shape-471d1b56-7c24-80ba-8002-cb02678ae353"><g class="fills" id="fills-471d1b56-7c24-80ba-8002-cb02678ae353"><rect class="st0" rx="0" ry="0" x="331.98749999999995" y="252.52500000000055" transform="matrix(1.000000, 0.000000, 0.000000, 1.000000, 0.000000, 0.000000)" width="1.9500000000000455" height="8.775000000000091"/></g></g><g id="shape-471d1b56-7c24-80ba-8002-cb02678b0269"><g class="fills" id="fills-471d1b56-7c24-80ba-8002-cb02678b0269"><rect class="st0" rx="0" ry="0" x="331.98749999999995" y="184.27500000000055" transform="matrix(1.000000, 0.000000, 0.000000, 1.000000, 0.000000, 0.000000)" width="1.9500000000000455" height="8.775000000000091"/></g></g><g id="shape-471d1b56-7c24-80ba-8002-cb02678b72a7"><g class="fills" id="fills-471d1b56-7c24-80ba-8002-cb02678b72a7"><rect class="st0" rx="0" ry="0" x="331.98749999999995" y="211.57500000000073" transform="matrix(1.000000, 0.000000, 0.000000, 1.000000, 0.000000, 0.000000)" width="1.9500000000000455" height="8.775000000000091"/></g></g><g id="shape-471d1b56-7c24-80ba-8002-cb02678b72a8"><g class="fills" id="fills-471d1b56-7c24-80ba-8002-cb02678b72a8"><rect class="st0" rx="0" ry="0" x="331.98749999999995" y="197.92500000000018" transform="matrix(1.000000, 0.000000, 0.000000, 1.000000, 0.000000, 0.000000)" width="1.9500000000000455" height="8.775000000000091"/></g></g><g id="shape-471d1b56-7c24-80ba-8002-cb02678ba98c"><g class="fills" id="fills-471d1b56-7c24-80ba-8002-cb02678ba98c"><rect class="st0" rx="0" ry="0" x="331.98749999999995" y="225.22500000000036" transform="matrix(1.000000, 0.000000, 0.000000, 1.000000, 0.000000, 0.000000)" width="1.9500000000000455" height="8.774999999999636"/></g></g><g id="shape-471d1b56-7c24-80ba-8002-cb02678bf6a9"><g class="fills" id="fills-471d1b56-7c24-80ba-8002-cb02678bf6a9"><path class="st0" rx="0" ry="0" d="M320.287,298.350L321.652,299.715C323.797,297.570,325.650,295.230,327.308,292.695L325.650,291.622C324.090,294.060,322.335,296.303,320.287,298.350ZZ"/></g></g><g id="shape-471d1b56-7c24-80ba-8002-cb02678c1203"><g class="fills" id="fills-471d1b56-7c24-80ba-8002-cb02678c1203"><path class="st0" rx="0" ry="0" d="M331.987,269.978C331.987,271.538,331.890,273.195,331.695,274.755L333.645,274.950C333.840,273.293,333.938,271.635,333.938,269.880L333.938,266.175L331.987,266.175L331.987,269.978ZZ"/></g></g><g id="shape-471d1b56-7c24-80ba-8002-cb02678c6785"><g class="fills" id="fills-471d1b56-7c24-80ba-8002-cb02678c6785"><path class="st0" rx="0" ry="0" d="M320.970,37.733C322.920,39.780,324.675,42.120,326.137,44.557L327.795,43.582C326.235,41.048,324.382,38.610,322.335,36.465L320.970,37.733ZZ"/></g></g><g id="shape-471d1b56-7c24-80ba-8002-cb02678c8079"><g class="fills" id="fills-471d1b56-7c24-80ba-8002-cb02678c8079"><path class="st0" rx="0" ry="0" d="M327.990,287.528L329.745,288.405C331.012,285.675,332.085,282.848,332.767,279.923L330.915,279.435C330.232,282.263,329.257,284.993,327.990,287.528ZZ"/></g></g><g id="shape-471d1b56-7c24-80ba-8002-cb02678cfff6"><g class="fills" id="fills-471d1b56-7c24-80ba-8002-cb02678cfff6"><rect class="st0" rx="0" ry="0" x="161.45999999999998" y="23.205000000000382" transform="matrix(1.000000, 0.000000, 0.000000, 1.000000, 0.000000, 0.000000)" width="8.775000000000006" height="1.949999999999818"/></g></g><g id="shape-471d1b56-7c24-80ba-8002-cb02678cfff7"><g class="fills" id="fills-471d1b56-7c24-80ba-8002-cb02678cfff7"><rect class="st0" rx="0" ry="0" x="331.98749999999995" y="75.07500000000073" transform="matrix(1.000000, 0.000000, 0.000000, 1.000000, 0.000000, 0.000000)" width="1.9500000000000455" height="8.775000000000091"/></g></g><g id="shape-471d1b56-7c24-80ba-8002-cb02678d01e4"><g class="fills" id="fills-471d1b56-7c24-80ba-8002-cb02678d01e4"><rect class="st0" rx="0" ry="0" x="331.98749999999995" y="102.375" transform="matrix(1.000000, 0.000000, 0.000000, 1.000000, 0.000000, 0.000000)" width="1.9500000000000455" height="8.775000000000091"/></g></g><g id="shape-471d1b56-7c24-80ba-8002-cb02678d40f3"><g class="fills" id="fills-471d1b56-7c24-80ba-8002-cb02678d40f3"><rect class="st0" rx="0" ry="0" x="331.98749999999995" y="88.72500000000036" transform="matrix(1.000000, 0.000000, 0.000000, 1.000000, 0.000000, 0.000000)" width="1.9500000000000455" height="8.774999999999636"/></g></g><g id="shape-471d1b56-7c24-80ba-8002-cb02678dbe46"><g class="fills" id="fills-471d1b56-7c24-80ba-8002-cb02678dbe46"><path class="st0" rx="0" ry="0" d="M333.743,61.328L331.793,61.523C331.890,62.790,331.987,64.057,331.987,65.325L331.987,70.200L333.938,70.200L333.938,65.325C333.938,63.960,333.840,62.595,333.743,61.328ZZ"/></g></g><g id="shape-471d1b56-7c24-80ba-8002-cb02678dbe47"><g class="fills" id="fills-471d1b56-7c24-80ba-8002-cb02678dbe47"><rect class="st0" rx="0" ry="0" x="331.98749999999995" y="143.32500000000073" transform="matrix(1.000000, 0.000000, 0.000000, 1.000000, 0.000000, 0.000000)" width="1.9500000000000455" height="8.775000000000091"/></g></g><g id="shape-471d1b56-7c24-80ba-8002-cb02678ddb6d"><g class="fills" id="fills-471d1b56-7c24-80ba-8002-cb02678ddb6d"><rect class="st0" rx="0" ry="0" x="331.98749999999995" y="170.625" transform="matrix(1.000000, 0.000000, 0.000000, 1.000000, 0.000000, 0.000000)" width="1.9500000000000455" height="8.775000000000091"/></g></g><g id="shape-471d1b56-7c24-80ba-8002-cb02678e2e3c"><g class="fills" id="fills-471d1b56-7c24-80ba-8002-cb02678e2e3c"><path class="st0" rx="0" ry="0" d="M310.440,29.738C312.975,31.103,315.315,32.663,317.558,34.515L318.825,33.053C316.485,31.103,314.048,29.445,311.317,28.080L310.440,29.738ZZ"/></g></g><g id="shape-471d1b56-7c24-80ba-8002-cb02678e66e7"><g class="fills" id="fills-471d1b56-7c24-80ba-8002-cb02678e66e7"><rect class="st0" rx="0" ry="0" x="331.98749999999995" y="156.97500000000036" transform="matrix(1.000000, 0.000000, 0.000000, 1.000000, 0.000000, 0.000000)" width="1.9500000000000455" height="8.774999999999636"/></g></g><g id="shape-471d1b56-7c24-80ba-8002-cb02678e66e8"><g class="fills" id="fills-471d1b56-7c24-80ba-8002-cb02678e66e8"><rect class="st0" rx="0" ry="0" x="331.98749999999995" y="129.67500000000018" transform="matrix(1.000000, 0.000000, 0.000000, 1.000000, 0.000000, 0.000000)" width="1.9500000000000455" height="8.775000000000091"/></g></g><g id="shape-471d1b56-7c24-80ba-8002-cb02678eb735"><g class="fills" id="fills-471d1b56-7c24-80ba-8002-cb02678eb735"><rect class="st0" rx="0" ry="0" x="331.98749999999995" y="116.02500000000055" transform="matrix(1.000000, 0.000000, 0.000000, 1.000000, 0.000000, 0.000000)" width="1.9500000000000455" height="8.775000000000091"/></g></g><g id="shape-471d1b56-7c24-80ba-8002-cb02678eb736"><g class="fills" id="fills-471d1b56-7c24-80ba-8002-cb02678eb736"><rect class="st0" rx="0" ry="0" x="214.79250000000002" y="310.14750000000004" transform="matrix(1.000000, 0.000000, 0.000000, 1.000000, 0.000000, 0.000000)" width="8.774999999999977" height="1.9500000000002728"/></g></g><g id="shape-471d1b56-7c24-80ba-8002-cb02678ec2f0"><g class="fills" id="fills-471d1b56-7c24-80ba-8002-cb02678ec2f0"><rect class="st0" rx="0" ry="0" x="202.40999999999997" y="23.205000000000382" transform="matrix(1.000000, 0.000000, 0.000000, 1.000000, 0.000000, 0.000000)" width="8.775000000000034" height="1.949999999999818"/></g></g><g id="shape-471d1b56-7c24-80ba-8002-cb02678f3e12"><g class="fills" id="fills-471d1b56-7c24-80ba-8002-cb02678f3e12"><rect class="st0" rx="0" ry="0" x="201.14249999999998" y="310.14750000000004" transform="matrix(1.000000, 0.000000, 0.000000, 1.000000, 0.000000, 0.000000)" width="8.775000000000034" height="1.9500000000002728"/></g></g><g id="shape-471d1b56-7c24-80ba-8002-cb02678f3e13"><g class="fills" id="fills-471d1b56-7c24-80ba-8002-cb02678f3e13"><rect class="st0" rx="0" ry="0" x="228.4425" y="310.14750000000004" transform="matrix(1.000000, 0.000000, 0.000000, 1.000000, 0.000000, 0.000000)" width="8.775000000000006" height="1.9500000000002728"/></g></g><g id="shape-471d1b56-7c24-80ba-8002-cb02678f7c9b"><g class="fills" id="fills-471d1b56-7c24-80ba-8002-cb02678f7c9b"><rect class="st0" rx="0" ry="0" x="229.70999999999998" y="23.205000000000382" transform="matrix(1.000000, 0.000000, 0.000000, 1.000000, 0.000000, 0.000000)" width="8.775000000000006" height="1.949999999999818"/></g></g><g id="shape-471d1b56-7c24-80ba-8002-cb02678f7c9c"><g class="fills" id="fills-471d1b56-7c24-80ba-8002-cb02678f7c9c"><rect class="st0" rx="0" ry="0" x="216.06" y="23.205000000000382" transform="matrix(1.000000, 0.000000, 0.000000, 1.000000, 0.000000, 0.000000)" width="8.774999999999977" height="1.949999999999818"/></g></g><g id="shape-471d1b56-7c24-80ba-8002-cb02678fb4f8"><g class="fills" id="fills-471d1b56-7c24-80ba-8002-cb02678fb4f8"><rect class="st0" rx="0" ry="0" x="173.8425" y="310.14750000000004" transform="matrix(1.000000, 0.000000, 0.000000, 1.000000, 0.000000, 0.000000)" width="8.775000000000006" height="1.9500000000002728"/></g></g><g id="shape-471d1b56-7c24-80ba-8002-cb02678ffd5d"><g class="fills" id="fills-471d1b56-7c24-80ba-8002-cb02678ffd5d"><rect class="st0" rx="0" ry="0" x="188.76" y="23.205000000000382" transform="matrix(1.000000, 0.000000, 0.000000, 1.000000, 0.000000, 0.000000)" width="8.774999999999977" height="1.949999999999818"/></g></g><g id="shape-471d1b56-7c24-80ba-8002-cb02678ffd5e"><g class="fills" id="fills-471d1b56-7c24-80ba-8002-cb02678ffd5e"><rect class="st0" rx="0" ry="0" x="175.10999999999999" y="23.205000000000382" transform="matrix(1.000000, 0.000000, 0.000000, 1.000000, 0.000000, 0.000000)" width="8.775000000000006" height="1.949999999999818"/></g></g><g id="shape-471d1b56-7c24-80ba-8002-cb0267901b99"><g class="fills" id="fills-471d1b56-7c24-80ba-8002-cb0267901b99"><rect class="st0" rx="0" ry="0" x="187.4925" y="310.14750000000004" transform="matrix(1.000000, 0.000000, 0.000000, 1.000000, 0.000000, 0.000000)" width="8.774999999999977" height="1.9500000000002728"/></g></g><g id="shape-471d1b56-7c24-80ba-8002-cb0267907566"><g class="fills" id="fills-471d1b56-7c24-80ba-8002-cb0267907566"><path class="st0" rx="0" ry="0" d="M296.790,309.855L296.985,311.805C299.910,311.415,302.933,310.733,305.760,309.758L305.077,307.905C302.445,308.880,299.618,309.465,296.790,309.855ZZ"/></g></g><g id="shape-471d1b56-7c24-80ba-8002-cb0267907567"><g class="fills" id="fills-471d1b56-7c24-80ba-8002-cb0267907567"><rect class="st0" rx="0" ry="0" x="242.0925" y="310.14750000000004" transform="matrix(1.000000, 0.000000, 0.000000, 1.000000, 0.000000, 0.000000)" width="8.775000000000006" height="1.9500000000002728"/></g></g><g id="shape-471d1b56-7c24-80ba-8002-cb026790b4b1"><g class="fills" id="fills-471d1b56-7c24-80ba-8002-cb026790b4b1"><path class="st0" rx="0" ry="0" d="M309.465,306.053L310.342,307.807C313.072,306.540,315.607,304.883,317.947,303.030L316.777,301.470C314.438,303.323,312.000,304.785,309.465,306.053ZZ"/></g></g><g id="shape-471d1b56-7c24-80ba-8002-cb026790f766"><g class="fills" id="fills-471d1b56-7c24-80ba-8002-cb026790f766"><path class="st0" rx="0" ry="0" d="M293.085,25.155L293.183,23.205C292.793,23.205,292.403,23.205,291.915,23.205L284.310,23.205L284.310,25.155L291.915,25.155C292.305,25.155,292.695,25.155,293.085,25.155ZZ"/></g></g><g id="shape-471d1b56-7c24-80ba-8002-cb026791324d"><g class="fills" id="fills-471d1b56-7c24-80ba-8002-cb026791324d"><path class="st0" rx="0" ry="0" d="M306.735,25.935C303.908,24.863,300.983,24.082,298.058,23.693L297.765,25.643C300.592,26.033,303.420,26.813,306.053,27.788L306.735,25.935ZZ"/></g></g><g id="shape-471d1b56-7c24-80ba-8002-cb02679148d6"><g class="fills" id="fills-471d1b56-7c24-80ba-8002-cb02679148d6"><rect class="st0" rx="0" ry="0" x="283.0425" y="310.14750000000004" transform="matrix(1.000000, 0.000000, 0.000000, 1.000000, 0.000000, 0.000000)" width="8.96999999999997" height="1.9500000000002728"/></g></g><g id="shape-471d1b56-7c24-80ba-8002-cb02679148d7"><g class="fills" id="fills-471d1b56-7c24-80ba-8002-cb02679148d7"><rect class="st0" rx="0" ry="0" x="257.01" y="23.205000000000382" transform="matrix(1.000000, 0.000000, 0.000000, 1.000000, 0.000000, 0.000000)" width="8.775000000000034" height="1.949999999999818"/></g></g><g id="shape-471d1b56-7c24-80ba-8002-cb026791a46d"><g class="fills" id="fills-471d1b56-7c24-80ba-8002-cb026791a46d"><rect class="st0" rx="0" ry="0" x="270.66" y="23.205000000000382" transform="matrix(1.000000, 0.000000, 0.000000, 1.000000, 0.000000, 0.000000)" width="8.774999999999977" height="1.949999999999818"/></g></g><g id="shape-471d1b56-7c24-80ba-8002-cb026791a46e"><g class="fills" id="fills-471d1b56-7c24-80ba-8002-cb026791a46e"><rect class="st0" rx="0" ry="0" x="243.35999999999999" y="23.205000000000382" transform="matrix(1.000000, 0.000000, 0.000000, 1.000000, 0.000000, 0.000000)" width="8.775000000000006" height="1.949999999999818"/></g></g><g id="shape-471d1b56-7c24-80ba-8002-cb026791e3c4"><g class="fills" id="fills-471d1b56-7c24-80ba-8002-cb026791e3c4"><rect class="st0" rx="0" ry="0" x="269.3925" y="310.14750000000004" transform="matrix(1.000000, 0.000000, 0.000000, 1.000000, 0.000000, 0.000000)" width="8.775000000000034" height="1.9500000000002728"/></g></g><g id="shape-471d1b56-7c24-80ba-8002-cb0267922a8b"><g class="fills" id="fills-471d1b56-7c24-80ba-8002-cb0267922a8b"><path class="st0" rx="0" ry="0" d="M148.102,79.268C148.102,79.268,148.102,79.268,148.102,79.268ZC148.882,79.268,149.565,78.682,149.565,77.805L149.565,77.805C149.565,77.415,149.565,77.025,149.662,76.635C149.662,76.245,149.760,75.855,149.857,75.465C149.955,74.685,149.467,73.905,148.688,73.807C148.297,73.710,147.907,73.807,147.615,74.003C147.322,74.198,147.127,74.588,147.030,74.978C146.933,75.465,146.933,75.953,146.835,76.440C146.835,76.928,146.738,77.415,146.738,77.903C146.738,78.585,147.322,79.170,148.102,79.268ZZ"/></g></g><g id="shape-471d1b56-7c24-80ba-8002-cb02679436e0"><g class="fills" id="fills-471d1b56-7c24-80ba-8002-cb02679436e0"><path class="st0" rx="0" ry="0" d="M137.085,74.100C136.012,75.563,135.720,77.707,136.305,81.315C136.402,82.095,137.182,82.582,137.865,82.485C138.255,82.485,138.645,82.290,138.840,81.900C139.035,81.608,139.230,81.218,139.132,80.828C138.742,78.098,138.840,76.635,139.425,75.758C139.912,75.075,140.887,74.783,142.642,74.685C142.642,74.880,142.545,75.173,142.545,75.368C142.155,78.878,142.740,82.485,144.202,85.800C146.055,89.895,149.175,93.503,153.563,96.525L153.563,103.253C153.563,105.788,155.610,107.835,158.145,107.835C159.315,107.835,160.387,107.348,161.265,106.568C162.045,105.690,162.630,104.618,162.825,103.448L163.312,100.913C164.677,101.303,165.945,101.595,167.310,101.790C171.015,102.375,174.720,102.375,178.425,101.888C179.692,101.693,180.862,101.497,182.032,101.205L182.617,103.545C182.910,104.715,183.397,105.690,184.177,106.568C184.957,107.348,186.030,107.835,187.102,107.835C187.102,107.835,187.102,107.835,187.102,107.835C189.637,107.835,191.685,105.788,191.685,103.253L191.685,97.013C193.927,95.550,195.975,93.893,197.730,91.943C199.387,90.090,200.655,88.043,201.727,85.800L205.140,85.800C207.577,85.800,209.625,83.753,209.625,81.315L209.625,76.050C209.625,73.613,207.577,71.565,205.140,71.565L202.800,71.565C202.410,70.005,201.727,68.543,200.947,67.080C200.070,65.520,199.095,63.960,197.925,62.693C198.997,58.793,198.997,54.600,197.827,50.700C197.632,50.018,196.852,49.530,196.170,49.725C194.220,50.115,192.270,50.798,190.515,51.773C189.053,52.553,187.590,53.528,186.322,54.698C185.835,54.503,185.250,54.307,184.762,54.113C184.372,54.015,183.982,53.820,183.593,53.723C183.885,51.578,183.690,49.432,183.007,47.483C180.668,40.560,173.063,36.758,166.043,39.195C159.218,41.535,155.512,48.848,157.560,55.673C152.880,57.915,148.882,61.425,146.055,65.813C144.787,67.763,143.813,69.810,143.227,72.053C140.107,71.955,138.157,72.638,137.085,74.100ZZM163.702,43.582C168.090,39.878,174.720,40.463,178.425,44.850C181.252,48.165,181.642,52.943,179.497,56.745C178.815,56.648,178.132,56.550,177.547,56.453C176.280,56.258,174.915,56.160,173.647,56.160C173.452,56.160,169.553,56.160,167.602,56.648C167.408,56.648,167.212,56.745,167.017,56.745C166.823,56.745,166.725,56.843,166.530,56.843C165.067,57.135,163.605,57.525,162.240,58.110C158.730,53.625,159.315,47.288,163.702,43.582ZZM145.373,75.758C145.762,72.735,146.835,69.713,148.492,67.178C151.027,63.278,154.537,60.158,158.730,58.207C159.022,58.695,159.217,59.085,159.510,59.475C159.315,59.865,159.315,60.353,159.510,60.743C159.705,61.133,159.998,61.328,160.290,61.523C160.680,61.620,161.070,61.620,161.363,61.523C163.118,60.743,165.067,60.158,166.920,59.768C168.870,59.378,170.917,59.182,172.867,59.182C174.232,59.182,175.597,59.280,176.962,59.475C178.230,59.670,179.595,59.963,180.862,60.255C181.642,60.450,182.422,60.060,182.617,59.280C182.812,58.695,182.617,58.110,182.227,57.720C182.422,57.330,182.617,56.940,182.812,56.453C183.105,56.550,183.495,56.648,183.787,56.745C184.567,57.038,185.250,57.330,186.030,57.622C186.615,57.818,187.297,57.720,187.687,57.330C189.832,55.283,192.465,53.723,195.390,52.943C195.682,54.307,195.877,55.673,195.877,57.135C195.877,58.988,195.585,60.938,195.000,62.693C194.805,63.180,195.000,63.765,195.390,64.155C196.657,65.520,197.730,66.983,198.510,68.543C199.290,70.005,199.972,71.663,200.265,73.320C200.362,74.003,200.947,74.588,201.727,74.588L205.237,74.588C206.115,74.588,206.797,75.270,206.797,76.148L206.797,81.510C206.797,82.388,206.115,83.070,205.237,83.070L200.850,83.070C200.265,83.070,199.680,83.460,199.485,84.045C198.607,86.288,197.340,88.335,195.682,90.188C193.927,92.138,191.880,93.795,189.735,95.063C189.247,95.355,188.955,95.843,188.955,96.330L188.955,103.350C188.955,104.325,188.175,105.105,187.200,105.105C186.907,105.105,186.517,105.008,186.322,104.715C185.932,104.228,185.640,103.643,185.445,103.057L184.567,99.255L184.567,99.158C184.470,98.768,184.177,98.475,183.885,98.280C183.690,98.182,183.397,98.085,183.202,98.085C183.105,98.085,182.910,98.085,182.812,98.182C181.252,98.670,179.692,98.963,178.132,99.158C174.720,99.645,171.307,99.645,167.895,99.060C166.140,98.768,164.385,98.378,162.727,97.793C162.630,97.793,162.532,97.695,162.435,97.695C161.655,97.598,160.875,98.182,160.875,98.963L160.095,103.057C159.997,103.643,159.705,104.130,159.315,104.618C159.022,104.910,158.730,105.008,158.340,105.008C157.365,105.008,156.585,104.228,156.585,103.253L156.585,95.745C156.585,95.258,156.292,94.770,155.902,94.478C151.710,91.747,148.687,88.432,147.030,84.630C145.470,81.900,145.080,78.878,145.373,75.758ZZ"/></g></g><g id="shape-471d1b56-7c24-80ba-8002-cb0267944111"><g class="fills" id="fills-471d1b56-7c24-80ba-8002-cb0267944111"><path class="st0" rx="0" ry="0" d="M149.272,79.755C148.980,79.560,148.590,79.463,148.200,79.560C147.810,79.658,147.517,79.853,147.322,80.243C147.127,80.535,147.030,80.925,147.127,81.315C147.517,82.778,148.005,84.143,148.688,85.410C149.468,86.775,150.345,88.043,151.320,89.115C151.613,89.408,152.002,89.603,152.392,89.603C152.685,89.603,153.075,89.505,153.367,89.213C153.952,88.725,154.050,87.750,153.465,87.165C152.587,86.190,151.807,85.118,151.222,84.045C150.637,82.973,150.247,81.900,149.955,80.730C149.857,80.243,149.565,79.950,149.272,79.755ZZ"/></g></g><g id="shape-471d1b56-7c24-80ba-8002-cb0267952f09"><g class="fills" id="fills-471d1b56-7c24-80ba-8002-cb0267952f09"><path class="st0" rx="0" ry="0" d="M189.150,71.175C189.150,71.175,189.247,71.175,189.150,71.175ZC189.637,71.175,189.930,71.078,190.222,70.785L190.320,70.688C190.807,70.298,191.392,70.103,191.977,70.103C192.757,70.103,193.537,70.395,194.122,70.883C194.415,71.078,194.805,71.175,195.195,71.078C195.585,70.980,195.877,70.785,196.170,70.493C196.657,69.810,196.462,68.932,195.780,68.445C194.707,67.665,193.342,67.178,191.977,67.178L191.977,67.178C190.612,67.178,189.345,67.665,188.272,68.543C187.980,68.835,187.785,69.128,187.785,69.518C187.785,69.908,187.882,70.298,188.077,70.590C188.370,70.980,188.760,71.175,189.150,71.175ZZ"/></g></g><g id="shape-471d1b56-7c24-80ba-8002-cb0267952f0a"><g class="fills" id="fills-471d1b56-7c24-80ba-8002-cb0267952f0a"><path class="st0" rx="0" ry="0" d="M208.942,36.563L205.627,41.730C205.140,42.510,205.335,43.582,206.115,44.070C206.407,44.265,206.700,44.363,206.993,44.363C207.577,44.363,208.065,44.070,208.455,43.582L211.770,38.415C212.257,37.635,212.063,36.563,211.282,36.075C210.405,35.588,209.430,35.783,208.942,36.563ZZ"/></g></g><g id="shape-471d1b56-7c24-80ba-8002-cb0267959387"><g class="fills" id="fills-471d1b56-7c24-80ba-8002-cb0267959387"><path class="st0" rx="0" ry="0" d="M210.990,47.970C211.282,48.653,211.868,49.043,212.550,49.043C212.745,49.043,212.940,49.043,213.135,48.945C214.305,48.555,215.475,48.263,216.645,47.970C217.620,47.678,218.595,47.483,219.472,47.190C220.350,46.898,220.837,45.923,220.545,45.045C220.252,44.168,219.277,43.680,218.400,43.973C217.620,44.265,216.743,44.460,215.767,44.655C214.500,44.948,213.233,45.338,211.965,45.728C211.087,46.118,210.600,47.093,210.990,47.970ZZ"/></g></g><g id="shape-471d1b56-7c24-80ba-8002-cb026795fc6e"><g class="fills" id="fills-471d1b56-7c24-80ba-8002-cb026795fc6e"><path class="st0" rx="0" ry="0" d="M219.180,59.865C219.375,59.963,219.668,60.060,219.960,60.060C220.545,60.060,221.130,59.768,221.423,59.085C221.813,58.207,221.520,57.233,220.642,56.843L214.695,53.820C213.817,53.430,212.843,53.723,212.452,54.600C212.063,55.478,212.355,56.453,213.233,56.843L219.180,59.865ZZ"/></g></g><g id="shape-471d1b56-7c24-80ba-8002-cb026796198a"><g class="fills" id="fills-471d1b56-7c24-80ba-8002-cb026796198a"><path class="st0" rx="0" ry="0" d="M143.130,109.785L141.863,115.830C141.668,116.707,142.252,117.585,143.130,117.780C143.227,117.780,143.325,117.780,143.520,117.780C144.300,117.780,144.983,117.195,145.178,116.415L146.445,110.370C146.640,109.493,146.055,108.615,145.178,108.420C144.202,108.323,143.325,108.908,143.130,109.785ZZ"/></g></g><g id="shape-471d1b56-7c24-80ba-8002-cb0267969636"><g class="fills" id="fills-471d1b56-7c24-80ba-8002-cb0267969636"><path class="st0" rx="0" ry="0" d="M136.793,106.470C135.915,107.250,134.843,107.932,133.868,108.615C132.990,109.200,132.210,109.785,131.528,110.370C130.845,110.955,130.748,112.028,131.333,112.710C131.625,113.100,132.113,113.295,132.600,113.295C132.990,113.295,133.380,113.198,133.673,112.905C134.257,112.418,135.038,111.832,135.817,111.345C136.890,110.565,137.962,109.883,138.938,109.005C139.620,108.420,139.718,107.348,139.132,106.665C138.547,105.983,137.475,105.885,136.793,106.470ZZ"/></g></g><g id="shape-471d1b56-7c24-80ba-8002-cb026796e6f9"><g class="fills" id="fills-471d1b56-7c24-80ba-8002-cb026796e6f9"><path class="st0" rx="0" ry="0" d="M125.385,100.035C125.287,101.010,125.970,101.790,126.847,101.888L133.477,102.570C133.575,102.570,133.575,102.570,133.672,102.570C134.550,102.570,135.232,101.888,135.330,101.010C135.427,100.133,134.745,99.255,133.867,99.158L127.237,98.475C126.262,98.378,125.482,99.060,125.385,100.035ZZ"/></g></g><g id="shape-471d1b56-7c24-80ba-8002-cb0267975d0e"><g class="fills" id="fills-471d1b56-7c24-80ba-8002-cb0267975d0e"><path class="st0" rx="0" ry="0" d="M165.067,49.823C164.580,49.823,164.190,50.213,164.190,50.700C164.190,51.188,164.580,51.578,165.067,51.578L166.238,51.578C166.725,52.845,167.700,53.918,168.968,54.600C169.845,55.088,170.723,55.283,171.600,55.283C172.185,55.283,172.770,55.185,173.257,54.990C173.550,54.893,173.940,54.795,174.232,54.600C174.427,54.503,174.623,54.307,174.720,54.015C174.817,53.723,174.817,53.528,174.623,53.235C174.330,52.747,173.745,52.553,173.257,52.845C171.600,53.723,169.455,53.138,168.480,51.578L171.112,51.578C171.307,51.578,171.600,51.480,171.697,51.285C171.892,51.090,171.990,50.895,171.990,50.700C171.990,50.213,171.600,49.823,171.112,49.823L167.895,49.823C167.895,49.628,167.895,49.335,167.895,49.140L171.112,49.140C171.307,49.140,171.600,49.043,171.697,48.848C171.892,48.653,171.990,48.457,171.990,48.263C171.990,47.775,171.600,47.385,171.112,47.385L168.480,47.385C169.455,45.923,171.307,45.338,172.965,46.020C173.062,46.020,173.160,46.118,173.257,46.118C173.745,46.410,174.330,46.215,174.623,45.728C174.720,45.533,174.817,45.240,174.720,44.948C174.623,44.655,174.427,44.460,174.232,44.363C171.405,42.900,167.992,43.973,166.530,46.800C166.432,46.995,166.335,47.190,166.237,47.385L165.067,47.385C164.580,47.385,164.190,47.775,164.190,48.263C164.190,48.750,164.580,49.140,165.067,49.140L165.945,49.140C165.945,49.335,165.945,49.628,165.945,49.823L165.067,49.823ZZ"/></g></g><g id="shape-471d1b56-7c24-80ba-8002-cb026797d102"><g class="fills" id="fills-471d1b56-7c24-80ba-8002-cb026797d102"><path class="st0" rx="0" ry="0" d="M269.977,215.963L269.977,228.443L266.370,228.443C265.688,228.443,265.200,229.028,265.200,229.613C265.200,230.295,265.785,230.782,266.370,230.782L293.962,230.782C294.645,230.782,295.132,230.198,295.132,229.613C295.132,228.930,294.547,228.443,293.962,228.443L272.512,228.443L272.512,216.353L276.120,212.745L284.993,221.618C285.480,222.105,286.260,222.105,286.650,221.618C287.040,221.130,287.137,220.350,286.650,219.960L267.150,200.460C266.662,199.973,265.882,199.973,265.493,200.460C265.493,200.460,265.493,200.460,265.493,200.460C265.005,200.948,265.005,201.728,265.493,202.118L274.365,210.990L270.270,214.988C270.173,215.280,269.977,215.573,269.977,215.963ZZ"/></g></g><g id="shape-471d1b56-7c24-80ba-8002-cb0267986fa6"><g class="fills" id="fills-471d1b56-7c24-80ba-8002-cb0267986fa6"><path class="st0" rx="0" ry="0" d="M235.657,215.475C235.560,215.573,235.560,215.768,235.560,215.963L235.560,228.443L231.952,228.443C231.270,228.443,230.782,229.028,230.782,229.613C230.782,230.295,231.368,230.782,231.952,230.782L259.545,230.782C260.227,230.782,260.715,230.198,260.715,229.613C260.715,228.930,260.130,228.443,259.545,228.443L238.095,228.443L238.095,216.353L241.702,212.745L250.575,221.618C251.063,222.105,251.843,222.105,252.330,221.618C252.817,221.130,252.817,220.350,252.330,219.863L232.830,200.363C232.343,199.875,231.563,199.875,231.075,200.363C230.587,200.850,230.587,201.630,231.075,202.118L239.947,210.990L235.852,214.988C235.852,215.182,235.755,215.280,235.657,215.475ZZ"/></g></g><g id="shape-471d1b56-7c24-80ba-8002-cb026798ad8c"><g class="fills" id="fills-471d1b56-7c24-80ba-8002-cb026798ad8c"><path class="st0" rx="0" ry="0" d="M196.365,229.613C196.365,230.295,196.950,230.782,197.535,230.782L225.127,230.782C225.810,230.782,226.297,230.198,226.297,229.613C226.297,228.930,225.712,228.443,225.127,228.443L203.678,228.443L203.678,216.353L207.285,212.745L216.157,221.618C216.352,221.813,216.645,222.008,217.035,222.008C217.327,222.008,217.620,221.910,217.912,221.618C217.912,221.618,217.912,221.618,217.912,221.618C218.400,221.130,218.400,220.350,217.912,219.960L198.412,200.460C197.925,199.973,197.145,199.973,196.657,200.460C196.170,200.948,196.170,201.728,196.657,202.215L205.530,211.088L201.435,215.085C201.337,215.182,201.240,215.378,201.142,215.475C201.045,215.573,201.045,215.768,201.045,215.963L201.045,228.540L197.438,228.540L197.438,228.443C196.852,228.443,196.365,228.930,196.365,229.613ZZ"/></g></g><g id="shape-471d1b56-7c24-80ba-8002-cb026799349e"><g class="fills" id="fills-471d1b56-7c24-80ba-8002-cb026799349e"><path class="st0" rx="0" ry="0" d="M279.727,179.303L279.727,191.782L276.120,191.782C275.438,191.782,274.950,192.368,274.950,192.953C274.950,193.635,275.535,194.122,276.120,194.122L303.712,194.122C304.395,194.122,304.882,193.538,304.882,192.953C304.882,192.270,304.297,191.782,303.712,191.782L282.262,191.782L282.262,179.693L285.870,176.085L294.743,184.957C295.230,185.445,296.010,185.445,296.400,184.957C296.790,184.470,296.887,183.690,296.400,183.300L276.900,163.800C276.412,163.313,275.632,163.313,275.243,163.800C275.243,163.800,275.243,163.800,275.243,163.800C274.755,164.288,274.755,165.068,275.243,165.457L284.115,174.330L280.020,178.328C279.923,178.620,279.727,178.913,279.727,179.303ZZ"/></g></g><g id="shape-471d1b56-7c24-80ba-8002-cb026799a234"><g class="fills" id="fills-471d1b56-7c24-80ba-8002-cb026799a234"><path class="st0" rx="0" ry="0" d="M270.465,192.953C270.465,192.270,269.880,191.782,269.295,191.782L247.845,191.782L247.845,179.693L251.452,176.085L260.325,184.957C260.813,185.445,261.592,185.445,262.080,184.957C262.567,184.470,262.567,183.690,262.080,183.203L242.580,163.703C242.093,163.215,241.313,163.215,240.825,163.703C240.337,164.190,240.337,164.970,240.825,165.457L249.698,174.330L245.700,178.425C245.602,178.523,245.505,178.718,245.407,178.815C245.310,178.913,245.310,179.108,245.310,179.303L245.310,191.782L241.702,191.782C241.020,191.782,240.532,192.368,240.532,192.953C240.532,193.635,241.118,194.122,241.702,194.122L269.295,194.122C269.977,194.220,270.465,193.635,270.465,192.953ZZ"/></g></g><g id="shape-471d1b56-7c24-80ba-8002-cb026799f6a3"><g class="fills" id="fills-471d1b56-7c24-80ba-8002-cb026799f6a3"><path class="st0" rx="0" ry="0" d="M206.115,192.953C206.115,193.635,206.700,194.122,207.285,194.122L234.877,194.122C235.560,194.122,236.047,193.538,236.047,192.953C236.047,192.270,235.462,191.782,234.877,191.782L213.428,191.782L213.428,179.693L217.035,176.085L225.907,184.957C226.102,185.153,226.395,185.348,226.785,185.348C227.077,185.348,227.370,185.250,227.662,184.957C227.662,184.957,227.662,184.957,227.662,184.957C228.150,184.470,228.150,183.690,227.662,183.300L208.162,163.800C207.675,163.313,206.895,163.313,206.407,163.800C205.920,164.288,205.920,165.068,206.407,165.555L215.280,174.428L211.185,178.425C211.087,178.523,210.990,178.718,210.892,178.815C210.795,178.913,210.795,179.108,210.795,179.303L210.795,191.880L207.188,191.880L207.188,191.782C206.602,191.782,206.115,192.270,206.115,192.953ZZ"/></g></g><g id="shape-471d1b56-7c24-80ba-8002-cb02679b2058"><g class="fills" id="fills-471d1b56-7c24-80ba-8002-cb02679b2058"><path class="st0" rx="0" ry="0" d="M289.770,136.305C289.185,136.695,288.990,137.475,289.380,138.158L292.403,142.935C291.428,143.520,290.550,144.300,289.770,145.178L284.993,142.643C284.310,142.253,283.530,142.545,283.140,143.228C282.750,143.910,283.043,144.690,283.725,145.080L288.210,147.518C287.625,148.590,287.235,149.760,287.040,151.028L282.165,151.223C281.385,151.223,280.800,151.905,280.898,152.588C280.898,153.270,281.483,153.855,282.263,153.855C282.263,153.855,282.263,153.855,282.263,153.855L286.845,153.660C286.845,153.953,286.845,154.245,286.943,154.538C287.040,155.318,287.723,155.805,288.405,155.707C289.185,155.610,289.673,154.928,289.575,154.245C289.478,153.660,289.478,153.173,289.478,152.588C289.478,152.490,289.478,152.393,289.478,152.295C289.478,152.295,289.478,152.295,289.478,152.295C289.770,148.590,292.305,145.470,296.010,144.300C298.350,143.618,300.885,143.813,303.030,144.983C305.175,146.153,306.833,148.103,307.515,150.443C308.880,154.830,306.833,159.413,302.835,161.363C302.153,161.655,301.860,162.532,302.250,163.118C302.445,163.605,302.933,163.898,303.420,163.898C303.615,163.898,303.810,163.898,304.005,163.800C304.200,163.703,304.298,163.605,304.493,163.605L307.028,167.700C307.320,168.090,307.710,168.285,308.198,168.285C308.393,168.285,308.685,168.188,308.880,168.090C309.465,167.700,309.660,166.920,309.270,166.238L306.638,161.948C307.515,161.168,308.295,160.193,308.978,159.120L313.755,161.655C313.950,161.753,314.145,161.850,314.340,161.850C314.827,161.850,315.315,161.557,315.510,161.168C315.900,160.485,315.608,159.705,314.925,159.315L310.050,156.682C310.342,155.610,310.537,154.538,310.635,153.368L316.583,153.173C317.363,153.173,317.947,152.490,317.850,151.807C317.850,151.028,317.168,150.540,316.485,150.540L310.440,150.735C310.343,150.345,310.245,149.955,310.148,149.565C309.953,148.980,309.758,148.395,309.465,147.810L314.828,144.495C315.413,144.105,315.608,143.325,315.218,142.643C314.828,142.057,313.950,141.863,313.365,142.253L308.003,145.568C307.418,144.788,306.638,144.105,305.858,143.520L308.880,137.865C309.270,137.182,308.978,136.403,308.295,136.013C307.613,135.622,306.833,135.915,306.443,136.598L303.420,142.253C302.445,141.863,301.470,141.570,300.495,141.375L300.300,135.038C300.300,134.258,299.618,133.673,298.935,133.770C298.155,133.770,297.570,134.453,297.668,135.135L297.863,141.278C296.985,141.375,296.108,141.473,295.230,141.765C295.035,141.765,294.938,141.863,294.743,141.960L291.623,136.890C291.232,136.110,290.355,135.915,289.770,136.305ZZ"/></g></g><g id="shape-471d1b56-7c24-80ba-8002-cb02679b758f"><g class="fills" id="fills-471d1b56-7c24-80ba-8002-cb02679b758f"><path class="st0" rx="0" ry="0" d="M187.005,148.590L274.950,148.590L274.950,145.470L183.787,145.470L183.787,227.468L187.005,227.468Z"/></g></g><g id="shape-471d1b56-7c24-80ba-8002-cb02679b90c7"><g class="fills" id="fills-471d1b56-7c24-80ba-8002-cb02679b90c7"><path class="st0" rx="0" ry="0" d="M314.340,173.843L311.220,173.843L311.220,250.380L223.178,250.380L223.178,253.500L314.340,253.500Z"/></g></g><g id="shape-471d1b56-7c24-80ba-8002-cb02679bf0b9"><g class="fills" id="fills-471d1b56-7c24-80ba-8002-cb02679bf0b9"><path class="st0" rx="0" ry="0" d="M123.825,175.500C126.262,177.157,127.822,179.985,127.822,182.910C127.822,183.690,128.505,184.372,129.285,184.372C129.285,184.372,129.285,184.372,129.285,184.372C130.065,184.372,130.748,183.690,130.748,182.910C130.748,179.010,128.700,175.207,125.482,173.063C124.800,172.575,123.922,172.770,123.435,173.453C122.947,174.135,123.142,175.013,123.825,175.500ZZ"/></g></g><g id="shape-471d1b56-7c24-80ba-8002-cb02679d859d"><g class="fills" id="fills-471d1b56-7c24-80ba-8002-cb02679d859d"><path class="st0" rx="0" ry="0" d="M133.282,235.560C132.892,235.073,124.507,222.983,103.447,224.055L103.447,211.088L127.627,191.978L137.962,184.568L137.962,183.788C137.962,183.495,137.767,176.475,131.625,171.795C126.750,168.090,124.215,163.215,118.657,152.685L116.903,149.370C109.980,136.305,93.990,131.138,92.723,130.747C75.173,123.923,68.640,130.747,66.202,133.380C66.007,133.575,65.715,133.868,65.618,133.965C59.573,136.695,57.915,140.010,55.868,143.813C55.282,144.885,54.698,146.055,53.917,147.323C50.895,152.295,41.827,168.675,40.755,177.548C39.195,189.345,62.887,209.820,68.835,212.745C68.932,212.842,69.127,212.940,69.420,213.038L69.420,224.055C64.448,223.763,49.335,223.372,43.290,228.832C41.340,230.490,40.560,233.415,40.852,237.023C41.730,248.235,53.332,267.247,76.635,282.457C76.830,282.653,77.123,282.653,77.415,282.653C77.610,282.653,77.805,282.653,78.000,282.555C78.487,282.360,78.780,281.872,78.877,281.385C78.877,281.288,80.730,267.443,101.985,257.010C102.765,256.718,109.395,254.280,116.317,250.868C126.458,245.895,132.210,241.118,133.673,236.828C133.672,236.438,133.575,235.950,133.282,235.560ZZM100.912,204.360C100.815,204.457,100.815,204.457,100.815,204.555C100.718,204.653,94.965,212.940,87.945,212.648L86.385,212.648C79.365,212.940,73.028,204.555,72.930,204.457C72.930,204.457,72.833,204.360,72.833,204.360C67.470,198.608,65.813,189.247,65.813,189.150C65.715,188.370,64.935,187.785,64.155,187.980C62.595,188.175,61.425,187.785,60.352,186.518C57.037,182.618,57.037,173.063,57.720,170.918C57.915,170.332,58.208,170.138,58.403,170.040C59.085,169.747,60.255,170.040,60.548,170.235C60.938,170.430,61.523,170.430,61.912,170.138C62.303,169.943,62.595,169.455,62.595,168.968C62.985,165.263,64.545,158.048,67.567,157.170C68.445,158.535,70.395,161.363,72.833,164.093C77.610,169.358,81.803,171.405,85.508,170.332C86.093,170.138,86.580,169.553,86.580,168.968L86.580,166.920C88.237,168.870,90.675,171.015,94.088,172.380C94.478,172.575,94.965,172.478,95.355,172.282C95.745,172.088,96.037,171.698,96.037,171.210L96.233,169.943C97.792,171.405,100.230,172.478,103.643,172.185C110.370,171.503,114.660,169.845,114.855,169.747C114.952,169.747,114.952,169.747,114.952,169.650C114.952,169.650,115.148,169.553,115.343,169.650C115.537,169.747,115.830,170.138,116.123,170.820C116.805,172.965,116.805,182.520,113.490,186.420C112.417,187.688,111.248,188.078,109.688,187.883C108.907,187.785,108.127,188.273,108.030,189.053C107.932,189.247,106.372,198.608,100.912,204.360ZZM72.150,210.990L72.150,208.163C74.782,210.990,80.145,215.768,86.287,215.573L87.750,215.573C87.945,215.573,88.042,215.573,88.237,215.573C93.405,215.573,97.792,212.063,100.425,209.332L100.425,224.738C97.792,225.907,87.847,229.613,72.053,224.543L72.053,212.258C72.345,211.965,72.345,211.575,72.150,210.990ZZM43.582,177.938C44.655,169.553,53.430,153.758,56.355,148.883C57.135,147.518,57.817,146.348,58.403,145.178C60.352,141.473,61.620,138.938,66.885,136.598C67.373,136.403,67.762,135.915,68.348,135.330C70.590,132.893,75.952,127.335,91.748,133.478L91.845,133.478C92.040,133.478,107.835,138.450,114.368,150.638L116.123,153.953C121.680,164.580,124.507,169.943,129.968,174.038C133.965,177.060,134.843,181.350,135.135,183.008L126.067,189.540L103.643,207.285L103.643,205.823C108.127,200.753,110.175,193.733,110.760,190.905C112.710,190.807,114.465,189.930,115.830,188.370C120.022,183.398,119.827,172.478,118.950,169.943C118.463,168.383,117.585,167.310,116.415,166.920C115.245,166.432,114.173,166.920,113.783,167.017C113.295,167.213,109.298,168.675,103.448,169.260C98.280,169.747,96.915,165.848,96.720,165.457C96.525,164.775,95.843,164.385,95.160,164.385C94.478,164.483,93.893,164.970,93.795,165.653L93.405,168.773C88.335,166.043,86.483,161.265,86.483,161.168C86.190,160.485,85.508,160.095,84.825,160.193C84.143,160.290,83.655,160.973,83.655,161.655L83.655,167.603C83.655,167.603,83.558,167.603,83.558,167.603C78.390,167.603,71.858,158.535,69.518,154.733C69.225,154.342,68.835,154.050,68.348,154.050C62.400,153.758,60.450,162.923,59.865,166.920C59.085,166.823,58.110,166.823,57.135,167.213C56.355,167.505,55.380,168.285,54.893,169.845C54.015,172.380,53.820,183.203,58.012,188.273C59.377,189.930,61.133,190.807,63.083,190.807C63.667,193.440,65.423,199.680,69.225,204.555L69.225,209.625C63.180,206.018,42.315,187.688,43.582,177.938ZZM43.582,236.828C43.387,234.098,43.875,232.050,45.045,230.978C48.945,227.565,58.305,226.785,65.032,226.883C64.448,227.565,63.862,228.443,63.375,229.418C58.792,237.705,56.843,252.818,64.838,269.978C51.188,257.790,44.265,245.018,43.582,236.828ZZM100.718,254.280C100.620,254.280,100.620,254.280,100.522,254.378C82.680,263.153,77.610,274.268,76.245,278.948C74.295,277.582,72.442,276.315,70.688,274.950C59.572,256.328,61.230,239.655,66.007,230.978C67.567,228.150,69.030,227.175,69.420,227.175C69.420,227.175,69.420,227.175,69.420,227.175C69.810,227.175,70.200,227.273,70.492,227.273C77.317,229.515,83.070,230.295,87.847,230.295C96.135,230.295,101.205,227.955,102.472,227.273C120.315,225.907,128.505,234.390,130.455,236.828C127.140,243.653,108.030,251.648,100.718,254.280ZZ"/></g></g><g id="shape-471d1b56-7c24-80ba-8002-cb02679de1dc"><g class="fills" id="fills-471d1b56-7c24-80ba-8002-cb02679de1dc"><path class="st0" rx="0" ry="0" d="M79.560,160.388C79.755,160.485,80.047,160.582,80.243,160.582C80.730,160.582,81.315,160.290,81.510,159.803C81.900,159.120,81.607,158.243,80.925,157.853C78.390,156.488,76.537,153.758,76.147,150.832C76.050,150.053,75.368,149.468,74.490,149.565C73.710,149.663,73.125,150.345,73.222,151.223C73.710,155.025,76.147,158.535,79.560,160.388ZZ"/></g></g><g id="shape-471d1b56-7c24-80ba-8002-cb02679e5aa4"><g class="fills" id="fills-471d1b56-7c24-80ba-8002-cb02679e5aa4"><path class="st0" rx="0" ry="0" d="M94.282,160.485C94.477,160.582,94.673,160.582,94.868,160.582C95.452,160.582,95.940,160.290,96.232,159.705C96.525,158.925,96.232,158.145,95.452,157.755C88.725,154.733,83.362,149.078,80.632,142.155C80.340,141.375,79.463,140.985,78.780,141.278C78.000,141.570,77.610,142.448,77.902,143.130C80.925,150.832,86.872,157.170,94.282,160.485ZZ"/></g></g><g id="shape-471d1b56-7c24-80ba-8002-cb02679eb210"><g class="fills" id="fills-471d1b56-7c24-80ba-8002-cb02679eb210"><path class="st0" rx="0" ry="0" d="M94.185,145.957C101.595,147.128,106.177,153.758,106.957,158.145C107.055,158.828,107.737,159.315,108.420,159.315C108.517,159.315,108.615,159.315,108.713,159.315C109.492,159.120,109.980,158.340,109.882,157.560C108.713,151.515,102.960,144.398,94.672,143.033C93.893,142.935,93.112,143.423,93.015,144.203C92.917,144.983,93.405,145.860,94.185,145.957ZZ"/></g></g><g id="shape-471d1b56-7c24-80ba-8002-cb02679ed5e9"><g class="fills" id="fills-471d1b56-7c24-80ba-8002-cb02679ed5e9"><path class="st0" rx="0" ry="0" d="M90.090,197.048C88.823,198.218,86.873,199.485,83.557,196.755C82.973,196.268,81.998,196.365,81.510,196.950C81.023,197.535,81.120,198.510,81.705,198.997C83.558,200.557,85.410,201.338,87.262,201.338C89.018,201.338,90.675,200.655,92.137,199.193C92.723,198.608,92.723,197.730,92.137,197.145C91.553,196.463,90.675,196.463,90.090,197.048ZZ"/></g></g><g id="shape-471d1b56-7c24-80ba-8002-cb02679f27e4"><g class="fills" id="fills-471d1b56-7c24-80ba-8002-cb02679f27e4"><path class="st0" rx="0" ry="0" d="M54.405,164.093C54.795,163.410,54.600,162.532,53.917,162.045C53.235,161.655,52.357,161.850,51.870,162.532C47.970,168.675,46.313,176.475,47.287,183.690C47.385,184.470,47.970,184.957,48.750,184.957C48.847,184.957,48.847,184.957,48.945,184.957C49.725,184.860,50.310,184.080,50.213,183.300C49.432,176.670,50.895,169.650,54.405,164.093ZZ"/></g></g><g id="shape-471d1b56-7c24-80ba-8002-cb02679f4b6e"><g class="fills" id="fills-471d1b56-7c24-80ba-8002-cb02679f4b6e"><path class="st0" rx="0" ry="0" d="M67.762,107.640L70.200,109.200C82.192,90.578,99.060,76.050,119.047,66.788L114.368,78.293L117.097,79.365L123.727,63.082L107.055,57.622L106.177,60.450L117.682,64.155C97.207,73.710,80.047,88.628,67.762,107.640ZZ"/></g></g><g id="shape-471d1b56-7c24-80ba-8002-cb02679f8c09"><g class="fills" id="fills-471d1b56-7c24-80ba-8002-cb02679f8c09"><path class="st0" rx="0" ry="0" d="M280.410,118.560L268.905,113.880L267.832,116.610L284.115,123.240L289.575,106.568L286.748,105.690L283.043,117.195C273.585,96.818,258.668,79.658,239.655,67.372L238.095,69.810C256.523,81.705,271.148,98.573,280.410,118.560ZZ"/></g></g><g id="shape-471d1b56-7c24-80ba-8002-cb02679fe8d0"><g class="fills" id="fills-471d1b56-7c24-80ba-8002-cb02679fe8d0"><path class="st0" rx="0" ry="0" d="M171.600,274.365C183.007,274.365,194.317,272.707,205.432,269.490L204.555,266.663C183.397,272.903,161.070,273.000,139.912,267.053L151.027,261.398L149.662,258.765L134.063,266.760L143.227,281.775L145.762,280.215L139.522,269.880C149.955,272.805,160.777,274.365,171.600,274.365ZZ"/></g></g><g id="shape-471d1b56-7c24-80ba-8002-cb0267a010b8"><g class="fills" id="fills-471d1b56-7c24-80ba-8002-cb0267a010b8"><path class="st0" rx="0" ry="0" d="M180.082,282.360L178.230,282.360L178.815,281.093C179.302,280.215,179.205,279.143,178.717,278.265C178.230,277.388,177.255,276.900,176.280,276.900L172.770,276.900C171.600,276.900,170.625,277.582,170.137,278.557L166.043,287.235C165.652,288.113,165.652,289.185,166.238,290.063C166.822,290.940,167.700,291.428,168.675,291.428L170.918,291.428L169.845,296.010C169.553,297.375,170.235,298.838,171.502,299.325C171.892,299.520,172.283,299.520,172.672,299.520C173.647,299.520,174.525,299.032,175.110,298.155L182.520,286.747C183.105,285.870,183.105,284.700,182.617,283.725C182.130,282.750,181.155,282.360,180.082,282.360ZZM172.672,296.693L174.525,288.503L168.675,288.503L172.770,279.825L176.280,279.825L173.550,285.285L180.082,285.285L172.672,296.693ZZ"/></g></g><g id="shape-471d1b56-7c24-80ba-8002-cb0267a0c1e1"><g class="fills" id="fills-471d1b56-7c24-80ba-8002-cb0267a0c1e1"><path class="st0" rx="0" ry="0" d="M177.938,257.790C177.645,257.693,177.450,257.693,177.157,257.888C175.695,258.668,173.842,258.180,172.965,256.815L175.207,256.815C175.695,256.815,175.988,256.425,175.988,256.035C175.988,255.645,175.597,255.255,175.207,255.255L172.380,255.255C172.380,255.060,172.380,254.865,172.380,254.768L175.207,254.768C175.695,254.768,175.988,254.378,175.988,253.988C175.988,253.598,175.597,253.207,175.207,253.207L172.965,253.207C173.842,251.940,175.500,251.453,176.865,252.038C176.962,252.038,177.060,252.135,177.157,252.135C177.352,252.233,177.645,252.233,177.938,252.233C178.230,252.135,178.425,251.940,178.522,251.745C178.620,251.550,178.620,251.258,178.620,250.965C178.522,250.673,178.327,250.478,178.132,250.380C176.865,249.698,175.500,249.600,174.135,250.088C172.770,250.478,171.697,251.453,171.113,252.622C171.015,252.818,170.918,252.915,170.918,253.110L169.845,253.110C169.358,253.110,169.065,253.500,169.065,253.890C169.065,254.280,169.455,254.670,169.845,254.670L170.527,254.670C170.527,254.865,170.527,255.060,170.527,255.157L169.845,255.157C169.358,255.157,169.065,255.548,169.065,255.938C169.065,256.328,169.455,256.718,169.845,256.718L170.918,256.718C171.698,258.765,173.648,260.032,175.793,260.032C176.280,260.032,176.865,259.935,177.352,259.838C177.645,259.740,177.938,259.643,178.230,259.448C178.425,259.350,178.620,259.155,178.718,258.863C178.815,258.668,178.815,258.375,178.620,258.082C178.425,257.790,178.230,257.888,177.938,257.790ZZ"/></g></g><g id="shape-471d1b56-7c24-80ba-8002-cb0267a13193"><g class="fills" id="fills-471d1b56-7c24-80ba-8002-cb0267a13193"><path class="st0" rx="0" ry="0" d="M173.843,243.165C167.212,243.165,161.752,248.625,161.752,255.255C161.752,261.885,167.212,267.345,173.843,267.345C180.473,267.345,185.933,261.885,185.933,255.255C185.932,248.625,180.472,243.165,173.843,243.165ZZM173.843,264.518C168.773,264.518,164.678,260.423,164.678,255.353C164.678,250.282,168.772,246.188,173.843,246.188C178.912,246.188,183.007,250.282,183.007,255.353C183.007,260.325,178.912,264.518,173.843,264.518ZZ"/></g></g></g></g></svg>