<svg xmlns="http://www.w3.org/2000/svg" id="screenshot-a69a3d53-f19f-809b-8002-c356a6e54a60" width="360" height="343" fill="none" style="-webkit-print-color-adjust:exact" version="1.1" viewBox="0 -191 360 343"><g xml:space="preserve" id="shape-a69a3d53-f19f-809b-8002-c356a6e54a60" style="fill:#000" transform="translate(4.46 -191.79)"><g id="shape-a69a3d53-f19f-809b-8002-c356a6e5fd4f"><style id="style1820" type="text/css">.st0{fill:#004b00}</style></g><g id="shape-a69a3d53-f19f-809b-8002-c356a6e618bb" style="fill:#000"><g id="shape-a69a3d53-f19f-809b-8002-c356a6e6ca3e"><g id="fills-a69a3d53-f19f-809b-8002-c356a6e6ca3e" class="fills"><rect id="rect1823" width="8.77" height="1.95" x="65.91" y="23.79" class="st0" rx="0" ry="0"/></g></g><g id="shape-a69a3d53-f19f-809b-8002-c356a6e6ca3f"><g id="fills-a69a3d53-f19f-809b-8002-c356a6e6ca3f" class="fills"><rect id="rect1827" width="8.77" height="1.95" x="79.56" y="23.79" class="st0" rx="0" ry="0"/></g></g><g id="shape-a69a3d53-f19f-809b-8002-c356a6e73481"><g id="fills-a69a3d53-f19f-809b-8002-c356a6e73481" class="fills"><rect id="rect1831" width="8.77" height="1.95" x="160.19" y="310.64" class="st0" rx="0" ry="0"/></g></g><g id="shape-a69a3d53-f19f-809b-8002-c356a6e74103"><g id="fills-a69a3d53-f19f-809b-8002-c356a6e74103" class="fills"><rect id="rect1835" width="8.77" height="1.95" x="78.29" y="310.64" class="st0" rx="0" ry="0"/></g></g><g id="shape-a69a3d53-f19f-809b-8002-c356a6e74104"><g id="fills-a69a3d53-f19f-809b-8002-c356a6e74104" class="fills"><rect id="rect1839" width="8.77" height="1.95" x="64.64" y="310.64" class="st0" rx="0" ry="0"/></g></g><g id="shape-a69a3d53-f19f-809b-8002-c356a6e7b7c5"><g id="fills-a69a3d53-f19f-809b-8002-c356a6e7b7c5" class="fills"><path id="path1843" d="m27.98 37.54 1.46 1.26c1.95-2.14 4.1-4 6.44-5.65l-1.17-1.56a38.72 38.72 0 0 0-6.73 5.95z" class="st0"/></g></g><g id="shape-a69a3d53-f19f-809b-8002-c356a6e7f66e"><g id="fills-a69a3d53-f19f-809b-8002-c356a6e7f66e" class="fills"><path id="path1847" d="M37.93 306.83a44.03 44.03 0 0 0 8.19 3.7l.58-1.84a37.45 37.45 0 0 1-7.8-3.51z" class="st0"/></g></g><g id="shape-a69a3d53-f19f-809b-8002-c356a6e81682"><g id="fills-a69a3d53-f19f-809b-8002-c356a6e81682" class="fills"><path id="path1851" d="m51.28 309.86-.39 1.95c2.73.48 5.46.78 8.3.78h.67v-1.95h-.68c-2.73 0-5.36-.2-7.9-.78z" class="st0"/></g></g><g id="shape-a69a3d53-f19f-809b-8002-c356a6e89908"><g id="fills-a69a3d53-f19f-809b-8002-c356a6e89908" class="fills"><path id="path1855" d="m47.77 27.3-.58-1.85a51.06 51.06 0 0 0-8.29 3.41l.98 1.75a46.64 46.64 0 0 1 7.9-3.31z" class="st0"/></g></g><g id="shape-a69a3d53-f19f-809b-8002-c356a6e8f17a"><g id="fills-a69a3d53-f19f-809b-8002-c356a6e8f17a" class="fills"><rect id="rect1859" width="8.77" height="1.95" x="120.51" y="23.79" class="st0" rx="0" ry="0"/></g></g><g id="shape-a69a3d53-f19f-809b-8002-c356a6e929ee"><g id="fills-a69a3d53-f19f-809b-8002-c356a6e929ee" class="fills"><rect id="rect1863" width="8.77" height="1.95" x="134.16" y="23.79" class="st0" rx="0" ry="0"/></g></g><g id="shape-a69a3d53-f19f-809b-8002-c356a6e929ef"><g id="fills-a69a3d53-f19f-809b-8002-c356a6e929ef" class="fills"><rect id="rect1867" width="8.77" height="1.95" x="132.89" y="310.64" class="st0" rx="0" ry="0"/></g></g><g id="shape-a69a3d53-f19f-809b-8002-c356a6e960ba"><g id="fills-a69a3d53-f19f-809b-8002-c356a6e960ba" class="fills"><rect id="rect1871" width="8.77" height="1.95" x="146.54" y="310.64" class="st0" rx="0" ry="0"/></g></g><g id="shape-a69a3d53-f19f-809b-8002-c356a6e9b40f"><g id="fills-a69a3d53-f19f-809b-8002-c356a6e9b40f" class="fills"><path id="path1875" d="m28.66 296.7-1.46 1.26a48.66 48.66 0 0 0 6.53 6.14l1.18-1.56a44.29 44.29 0 0 1-6.24-5.85z" class="st0"/></g></g><g id="shape-a69a3d53-f19f-809b-8002-c356a6e9b410"><g id="fills-a69a3d53-f19f-809b-8002-c356a6e9b410" class="fills"><rect id="rect1879" width="8.77" height="1.95" x="147.81" y="23.79" class="st0" rx="0" ry="0"/></g></g><g id="shape-a69a3d53-f19f-809b-8002-c356a6e9f54a"><g id="fills-a69a3d53-f19f-809b-8002-c356a6e9f54a" class="fills"><rect id="rect1883" width="8.77" height="1.95" x="105.59" y="310.64" class="st0" rx="0" ry="0"/></g></g><g id="shape-a69a3d53-f19f-809b-8002-c356a6ea2d9b"><g id="fills-a69a3d53-f19f-809b-8002-c356a6ea2d9b" class="fills"><rect id="rect1887" width="8.77" height="1.95" x="93.21" y="23.79" class="st0" rx="0" ry="0"/></g></g><g id="shape-a69a3d53-f19f-809b-8002-c356a6ea2d9c"><g id="fills-a69a3d53-f19f-809b-8002-c356a6ea2d9c" class="fills"><rect id="rect1891" width="8.77" height="1.95" x="91.94" y="310.64" class="st0" rx="0" ry="0"/></g></g><g id="shape-a69a3d53-f19f-809b-8002-c356a6ea452d"><g id="fills-a69a3d53-f19f-809b-8002-c356a6ea452d" class="fills"><rect id="rect1895" width="8.77" height="1.95" x="106.86" y="23.79" class="st0" rx="0" ry="0"/></g></g><g id="shape-a69a3d53-f19f-809b-8002-c356a6ea8980"><g id="fills-a69a3d53-f19f-809b-8002-c356a6ea8980" class="fills"><rect id="rect1899" width="8.77" height="1.95" x="119.24" y="310.64" class="st0" rx="0" ry="0"/></g></g><g id="shape-a69a3d53-f19f-809b-8002-c356a6eae9f1"><g id="fills-a69a3d53-f19f-809b-8002-c356a6eae9f1" class="fills"><path id="path1903" d="M59.18 25.74h1.86v-1.95h-1.86c-2.34 0-4.68.2-7.02.58l.3 1.95c2.14-.39 4.38-.58 6.72-.58z" class="st0"/></g></g><g id="shape-a69a3d53-f19f-809b-8002-c356a6eae9f2"><g id="fills-a69a3d53-f19f-809b-8002-c356a6eae9f2" class="fills"><rect id="rect1907" width="1.95" height="8.77" x="17.06" y="122.27" class="st0" rx="0" ry="0"/></g></g><g id="shape-a69a3d53-f19f-809b-8002-c356a6eb3393"><g id="fills-a69a3d53-f19f-809b-8002-c356a6eb3393" class="fills"><rect id="rect1911" width="1.95" height="8.77" x="17.06" y="108.61" class="st0" rx="0" ry="0"/></g></g><g id="shape-a69a3d53-f19f-809b-8002-c356a6eb3394"><g id="fills-a69a3d53-f19f-809b-8002-c356a6eb3394" class="fills"><rect id="rect1915" width="1.95" height="8.77" x="17.06" y="94.96" class="st0" rx="0" ry="0"/></g></g><g id="shape-a69a3d53-f19f-809b-8002-c356a6eb3395"><g id="fills-a69a3d53-f19f-809b-8002-c356a6eb3395" class="fills"><rect id="rect1919" width="1.95" height="8.77" x="17.06" y="135.91" class="st0" rx="0" ry="0"/></g></g><g id="shape-a69a3d53-f19f-809b-8002-c356a6eb7f91"><g id="fills-a69a3d53-f19f-809b-8002-c356a6eb7f91" class="fills"><rect id="rect1923" width="1.95" height="8.77" x="17.06" y="149.56" class="st0" rx="0" ry="0"/></g></g><g id="shape-a69a3d53-f19f-809b-8002-c356a6eb7f92"><g id="fills-a69a3d53-f19f-809b-8002-c356a6eb7f92" class="fills"><path id="path1927" d="m20.48 49.14 1.75.78a39.29 39.29 0 0 1 4.2-7.41l-1.57-1.17a41 41 0 0 0-4.38 7.8z" class="st0"/></g></g><g id="shape-a69a3d53-f19f-809b-8002-c356a6ebb8f1"><g id="fills-a69a3d53-f19f-809b-8002-c356a6ebb8f1" class="fills"><rect id="rect1931" width="1.95" height="8.77" x="17.06" y="163.22" class="st0" rx="0" ry="0"/></g></g><g id="shape-a69a3d53-f19f-809b-8002-c356a6ebc043"><g id="fills-a69a3d53-f19f-809b-8002-c356a6ebc043" class="fills"><path id="path1935" d="m20.67 54.4-1.85-.58a38.59 38.59 0 0 0-1.56 8.78l1.95.1c.1-2.74.68-5.57 1.46-8.3z" class="st0"/></g></g><g id="shape-a69a3d53-f19f-809b-8002-c356a6ebc044"><g id="fills-a69a3d53-f19f-809b-8002-c356a6ebc044" class="fills"><path id="path1939" d="M332.96 56.94a37.73 37.73 0 0 0-2.82-8.48l-1.76.78a49.33 49.33 0 0 1 2.73 8.09z" class="st0"/></g></g><g id="shape-a69a3d53-f19f-809b-8002-c356a6ec2f2d"><g id="fills-a69a3d53-f19f-809b-8002-c356a6ec2f2d" class="fills"><rect id="rect1943" width="1.95" height="8.77" x="17.06" y="67.67" class="st0" rx="0" ry="0"/></g></g><g id="shape-a69a3d53-f19f-809b-8002-c356a6ec2f2e"><g id="fills-a69a3d53-f19f-809b-8002-c356a6ec2f2e" class="fills"><rect id="rect1947" width="1.95" height="8.77" x="17.06" y="81.32" class="st0" rx="0" ry="0"/></g></g><g id="shape-a69a3d53-f19f-809b-8002-c356a6ec598c"><g id="fills-a69a3d53-f19f-809b-8002-c356a6ec598c" class="fills"><rect id="rect1951" width="1.95" height="8.77" x="17.06" y="245.12" class="st0" rx="0" ry="0"/></g></g><g id="shape-a69a3d53-f19f-809b-8002-c356a6ec598d"><g id="fills-a69a3d53-f19f-809b-8002-c356a6ec598d" class="fills"><rect id="rect1955" width="1.95" height="8.77" x="17.06" y="176.87" class="st0" rx="0" ry="0"/></g></g><g id="shape-a69a3d53-f19f-809b-8002-c356a6ecbbb2"><g id="fills-a69a3d53-f19f-809b-8002-c356a6ecbbb2" class="fills"><path id="path1959" d="m19.01 272.32-1.95.1c.1 3.02.59 5.94 1.37 8.87l1.85-.49a48.12 48.12 0 0 1-1.27-8.48z" class="st0"/></g></g><g id="shape-a69a3d53-f19f-809b-8002-c356a6ecd2dc"><g id="fills-a69a3d53-f19f-809b-8002-c356a6ecd2dc" class="fills"><path id="path1963" d="M19.99 286.06a40.84 40.84 0 0 0 4.19 7.9l1.66-1.07a40.22 40.22 0 0 1-4-7.6z" class="st0"/></g></g><g id="shape-a69a3d53-f19f-809b-8002-c356a6ecd2dd"><g id="fills-a69a3d53-f19f-809b-8002-c356a6ecd2dd" class="fills"><rect id="rect1967" width="1.95" height="8.77" x="17.06" y="258.77" class="st0" rx="0" ry="0"/></g></g><g id="shape-a69a3d53-f19f-809b-8002-c356a6ed0a14"><g id="fills-a69a3d53-f19f-809b-8002-c356a6ed0a14" class="fills"><rect id="rect1971" width="1.95" height="8.77" x="17.06" y="204.16" class="st0" rx="0" ry="0"/></g></g><g id="shape-a69a3d53-f19f-809b-8002-c356a6ed0a15"><g id="fills-a69a3d53-f19f-809b-8002-c356a6ed0a15" class="fills"><rect id="rect1975" width="1.95" height="8.77" x="17.06" y="190.51" class="st0" rx="0" ry="0"/></g></g><g id="shape-a69a3d53-f19f-809b-8002-c356a6ed0a16"><g id="fills-a69a3d53-f19f-809b-8002-c356a6ed0a16" class="fills"><rect id="rect1979" width="1.95" height="8.77" x="17.06" y="231.47" class="st0" rx="0" ry="0"/></g></g><g id="shape-a69a3d53-f19f-809b-8002-c356a6ed472c"><g id="fills-a69a3d53-f19f-809b-8002-c356a6ed472c" class="fills"><rect id="rect1983" width="1.95" height="8.77" x="17.06" y="217.81" class="st0" rx="0" ry="0"/></g></g><g id="shape-a69a3d53-f19f-809b-8002-c356a6ed472d"><g id="fills-a69a3d53-f19f-809b-8002-c356a6ed472d" class="fills"><rect id="rect1987" width="8.77" height="1.95" x="255.74" y="310.64" class="st0" rx="0" ry="0"/></g></g><g id="shape-a69a3d53-f19f-809b-8002-c356a6eda29a"><g id="fills-a69a3d53-f19f-809b-8002-c356a6eda29a" class="fills"><rect id="rect1991" width="1.95" height="8.77" x="331.99" y="239.36" class="st0" rx="0" ry="0"/></g></g><g id="shape-a69a3d53-f19f-809b-8002-c356a6eda29b"><g id="fills-a69a3d53-f19f-809b-8002-c356a6eda29b" class="fills"><rect id="rect1995" width="1.95" height="8.77" x="331.99" y="253.01" class="st0" rx="0" ry="0"/></g></g><g id="shape-a69a3d53-f19f-809b-8002-c356a6eda29c"><g id="fills-a69a3d53-f19f-809b-8002-c356a6eda29c" class="fills"><rect id="rect1999" width="1.95" height="8.77" x="331.99" y="184.76" class="st0" rx="0" ry="0"/></g></g><g id="shape-a69a3d53-f19f-809b-8002-c356a6edcbfa"><g id="fills-a69a3d53-f19f-809b-8002-c356a6edcbfa" class="fills"><rect id="rect2003" width="1.95" height="8.77" x="331.99" y="212.06" class="st0" rx="0" ry="0"/></g></g><g id="shape-a69a3d53-f19f-809b-8002-c356a6edcbfb"><g id="fills-a69a3d53-f19f-809b-8002-c356a6edcbfb" class="fills"><rect id="rect2007" width="1.95" height="8.77" x="331.99" y="198.41" class="st0" rx="0" ry="0"/></g></g><g id="shape-a69a3d53-f19f-809b-8002-c356a6edcbfc"><g id="fills-a69a3d53-f19f-809b-8002-c356a6edcbfc" class="fills"><rect id="rect2011" width="1.95" height="8.77" x="331.99" y="225.71" class="st0" rx="0" ry="0"/></g></g><g id="shape-a69a3d53-f19f-809b-8002-c356a6ee0fab"><g id="fills-a69a3d53-f19f-809b-8002-c356a6ee0fab" class="fills"><path id="path2015" d="m320.29 298.84 1.36 1.36c2.15-2.14 4-4.48 5.66-7.02l-1.66-1.07a33.2 33.2 0 0 1-5.36 6.73z" class="st0"/></g></g><g id="shape-a69a3d53-f19f-809b-8002-c356a6ee5c9a"><g id="fills-a69a3d53-f19f-809b-8002-c356a6ee5c9a" class="fills"><path id="path2019" d="M331.99 270.56c0 1.56-.1 3.22-.3 4.78l1.96.2c.19-1.66.29-3.32.29-5.08v-3.8h-1.95z" class="st0"/></g></g><g id="shape-a69a3d53-f19f-809b-8002-c356a6ee82f0"><g id="fills-a69a3d53-f19f-809b-8002-c356a6ee82f0" class="fills"><path id="path2023" d="M320.97 38.22a39.27 39.27 0 0 1 5.17 6.83l1.66-.98a43.11 43.11 0 0 0-5.46-7.12z" class="st0"/></g></g><g id="shape-a69a3d53-f19f-809b-8002-c356a6ee82f1"><g id="fills-a69a3d53-f19f-809b-8002-c356a6ee82f1" class="fills"><path id="path2027" d="m327.99 288.11 1.75.88a43.98 43.98 0 0 0 3.03-8.48l-1.85-.49a40.22 40.22 0 0 1-2.93 8.1z" class="st0"/></g></g><g id="shape-a69a3d53-f19f-809b-8002-c356a6eee1d9"><g id="fills-a69a3d53-f19f-809b-8002-c356a6eee1d9" class="fills"><rect id="rect2031" width="8.77" height="1.95" x="161.46" y="23.79" class="st0" rx="0" ry="0"/></g></g><g id="shape-a69a3d53-f19f-809b-8002-c356a6ef2d3b"><g id="fills-a69a3d53-f19f-809b-8002-c356a6ef2d3b" class="fills"><rect id="rect2035" width="1.95" height="8.77" x="331.99" y="75.56" class="st0" rx="0" ry="0"/></g></g><g id="shape-a69a3d53-f19f-809b-8002-c356a6ef2d3c"><g id="fills-a69a3d53-f19f-809b-8002-c356a6ef2d3c" class="fills"><rect id="rect2039" width="1.95" height="8.77" x="331.99" y="102.86" class="st0" rx="0" ry="0"/></g></g><g id="shape-a69a3d53-f19f-809b-8002-c356a6ef5145"><g id="fills-a69a3d53-f19f-809b-8002-c356a6ef5145" class="fills"><rect id="rect2043" width="1.95" height="8.77" x="331.99" y="89.21" class="st0" rx="0" ry="0"/></g></g><g id="shape-a69a3d53-f19f-809b-8002-c356a6ef5146"><g id="fills-a69a3d53-f19f-809b-8002-c356a6ef5146" class="fills"><path id="path2047" d="m333.74 61.81-1.95.2c.1 1.27.2 2.54.2 3.8v4.88h1.95V65.8c0-1.26-.1-2.63-.2-4z" class="st0"/></g></g><g id="shape-a69a3d53-f19f-809b-8002-c356a6ef8a05"><g id="fills-a69a3d53-f19f-809b-8002-c356a6ef8a05" class="fills"><rect id="rect2051" width="1.95" height="8.77" x="331.99" y="143.81" class="st0" rx="0" ry="0"/></g></g><g id="shape-a69a3d53-f19f-809b-8002-c356a6ef8a06"><g id="fills-a69a3d53-f19f-809b-8002-c356a6ef8a06" class="fills"><rect id="rect2055" width="1.95" height="8.77" x="331.99" y="171.11" class="st0" rx="0" ry="0"/></g></g><g id="shape-a69a3d53-f19f-809b-8002-c356a6efde2e"><g id="fills-a69a3d53-f19f-809b-8002-c356a6efde2e" class="fills"><path id="path2059" d="M310.44 30.23a43.25 43.25 0 0 1 7.12 4.77l1.27-1.46a38.5 38.5 0 0 0-7.51-4.97z" class="st0"/></g></g><g id="shape-a69a3d53-f19f-809b-8002-c356a6efde2f"><g id="fills-a69a3d53-f19f-809b-8002-c356a6efde2f" class="fills"><rect id="rect2063" width="1.95" height="8.77" x="331.99" y="157.46" class="st0" rx="0" ry="0"/></g></g><g id="shape-a69a3d53-f19f-809b-8002-c356a6f0136e"><g id="fills-a69a3d53-f19f-809b-8002-c356a6f0136e" class="fills"><rect id="rect2067" width="1.95" height="8.77" x="331.99" y="130.16" class="st0" rx="0" ry="0"/></g></g><g id="shape-a69a3d53-f19f-809b-8002-c356a6f0136f"><g id="fills-a69a3d53-f19f-809b-8002-c356a6f0136f" class="fills"><rect id="rect2071" width="1.95" height="8.77" x="331.99" y="116.51" class="st0" rx="0" ry="0"/></g></g><g id="shape-a69a3d53-f19f-809b-8002-c356a6f01370"><g id="fills-a69a3d53-f19f-809b-8002-c356a6f01370" class="fills"><rect id="rect2075" width="8.77" height="1.95" x="214.79" y="310.64" class="st0" rx="0" ry="0"/></g></g><g id="shape-a69a3d53-f19f-809b-8002-c356a6f07d98"><g id="fills-a69a3d53-f19f-809b-8002-c356a6f07d98" class="fills"><rect id="rect2079" width="8.77" height="1.95" x="202.41" y="23.79" class="st0" rx="0" ry="0"/></g></g><g id="shape-a69a3d53-f19f-809b-8002-c356a6f07d99"><g id="fills-a69a3d53-f19f-809b-8002-c356a6f07d99" class="fills"><rect id="rect2083" width="8.77" height="1.95" x="201.14" y="310.64" class="st0" rx="0" ry="0"/></g></g><g id="shape-a69a3d53-f19f-809b-8002-c356a6f09978"><g id="fills-a69a3d53-f19f-809b-8002-c356a6f09978" class="fills"><rect id="rect2087" width="8.77" height="1.95" x="228.44" y="310.64" class="st0" rx="0" ry="0"/></g></g><g id="shape-a69a3d53-f19f-809b-8002-c356a6f09979"><g id="fills-a69a3d53-f19f-809b-8002-c356a6f09979" class="fills"><rect id="rect2091" width="8.77" height="1.95" x="229.71" y="23.79" class="st0" rx="0" ry="0"/></g></g><g id="shape-a69a3d53-f19f-809b-8002-c356a6f0997a"><g id="fills-a69a3d53-f19f-809b-8002-c356a6f0997a" class="fills"><rect id="rect2095" width="8.77" height="1.95" x="216.06" y="23.79" class="st0" rx="0" ry="0"/></g></g><g id="shape-a69a3d53-f19f-809b-8002-c356a6f0ef73"><g id="fills-a69a3d53-f19f-809b-8002-c356a6f0ef73" class="fills"><rect id="rect2099" width="8.77" height="1.95" x="173.84" y="310.64" class="st0" rx="0" ry="0"/></g></g><g id="shape-a69a3d53-f19f-809b-8002-c356a6f0ef74"><g id="fills-a69a3d53-f19f-809b-8002-c356a6f0ef74" class="fills"><rect id="rect2103" width="8.77" height="1.95" x="188.76" y="23.79" class="st0" rx="0" ry="0"/></g></g><g id="shape-a69a3d53-f19f-809b-8002-c356a6f124d3"><g id="fills-a69a3d53-f19f-809b-8002-c356a6f124d3" class="fills"><rect id="rect2107" width="8.77" height="1.95" x="175.11" y="23.79" class="st0" rx="0" ry="0"/></g></g><g id="shape-a69a3d53-f19f-809b-8002-c356a6f124d4"><g id="fills-a69a3d53-f19f-809b-8002-c356a6f124d4" class="fills"><rect id="rect2111" width="8.77" height="1.95" x="187.49" y="310.64" class="st0" rx="0" ry="0"/></g></g><g id="shape-a69a3d53-f19f-809b-8002-c356a6f14d6e"><g id="fills-a69a3d53-f19f-809b-8002-c356a6f14d6e" class="fills"><path id="path2115" d="m296.79 310.34.2 1.95a45.85 45.85 0 0 0 8.77-2.05l-.68-1.85a34.22 34.22 0 0 1-8.29 1.95z" class="st0"/></g></g><g id="shape-a69a3d53-f19f-809b-8002-c356a6f14d6f"><g id="fills-a69a3d53-f19f-809b-8002-c356a6f14d6f" class="fills"><rect id="rect2119" width="8.77" height="1.95" x="242.09" y="310.64" class="st0" rx="0" ry="0"/></g></g><g id="shape-a69a3d53-f19f-809b-8002-c356a6f1bd8d"><g id="fills-a69a3d53-f19f-809b-8002-c356a6f1bd8d" class="fills"><path id="path2123" d="m309.46 306.64.88 1.75a38.39 38.39 0 0 0 7.6-4.78l-1.16-1.56a48.13 48.13 0 0 1-7.31 4.59z" class="st0"/></g></g><g id="shape-a69a3d53-f19f-809b-8002-c356a6f1bd8e"><g id="fills-a69a3d53-f19f-809b-8002-c356a6f1bd8e" class="fills"><path id="path2127" d="m293.08 25.74.1-1.95h-8.87v1.95h8.77z" class="st0"/></g></g><g id="shape-a69a3d53-f19f-809b-8002-c356a6f1ed67"><g id="fills-a69a3d53-f19f-809b-8002-c356a6f1ed67" class="fills"><path id="path2131" d="M306.74 26.42a39.17 39.17 0 0 0-8.68-2.24l-.3 1.95c2.83.39 5.66 1.17 8.3 2.15z" class="st0"/></g></g><g id="shape-a69a3d53-f19f-809b-8002-c356a6f1ed68"><g id="fills-a69a3d53-f19f-809b-8002-c356a6f1ed68" class="fills"><rect id="rect2135" width="8.97" height="1.95" x="283.04" y="310.64" class="st0" rx="0" ry="0"/></g></g><g id="shape-a69a3d53-f19f-809b-8002-c356a6f1ed69"><g id="fills-a69a3d53-f19f-809b-8002-c356a6f1ed69" class="fills"><rect id="rect2139" width="8.77" height="1.95" x="257.01" y="23.79" class="st0" rx="0" ry="0"/></g></g><g id="shape-a69a3d53-f19f-809b-8002-c356a6f202ce"><g id="fills-a69a3d53-f19f-809b-8002-c356a6f202ce" class="fills"><rect id="rect2143" width="8.77" height="1.95" x="270.66" y="23.79" class="st0" rx="0" ry="0"/></g></g><g id="shape-a69a3d53-f19f-809b-8002-c356a6f202cf"><g id="fills-a69a3d53-f19f-809b-8002-c356a6f202cf" class="fills"><rect id="rect2147" width="8.77" height="1.95" x="243.36" y="23.79" class="st0" rx="0" ry="0"/></g></g><g id="shape-a69a3d53-f19f-809b-8002-c356a6f202d0"><g id="fills-a69a3d53-f19f-809b-8002-c356a6f202d0" class="fills"><rect id="rect2151" width="8.77" height="1.95" x="269.39" y="310.64" class="st0" rx="0" ry="0"/></g></g><g id="shape-a69a3d53-f19f-809b-8002-c356a6f52ff9"><g id="fills-a69a3d53-f19f-809b-8002-c356a6f52ff9" class="fills"><path id="path2155" d="M209.33 176.47h13.94v13.26H172v2.93h54.21v-16.18h76.64v-2.93h-13.75a3.4 3.4 0 0 0 .97-2.34v-1.66a4.61 4.61 0 0 0 1.37-3.02v-4.68h6.53a1.5 1.5 0 0 0 1.46-1.46l.2-19.01c0-8.2-.98-13.07-3.22-16.19-2.34-3.31-6.04-4.78-12.09-4.78h-.1a7.14 7.14 0 0 0-7.11-7.02h-6.05a3.1 3.1 0 0 0-2.54-1.26h-1.17a3.14 3.14 0 0 0-3.12 3.12v.39h-3.31v2.92h3.31v6.73h-3.31v2.92h3.31v.4a3.14 3.14 0 0 0 3.12 3.11h1.17c.98 0 1.95-.48 2.54-1.26H277c3.9 0 7.11-3.22 7.11-7.12v-.3h.1c5.07 0 7.9 1.08 9.75 3.51 1.86 2.64 2.73 7.12 2.73 14.53l-.2 17.55h-5.26c-.58-3.9-2.73-6.63-6.82-8.58a4.52 4.52 0 0 1 4-1.46l.19-2.92a7.5 7.5 0 0 0-5.36 1.46c-1.17-4.39-4.68-7.12-9.46-7.12h-14.04c-4.49 0-8.1 2.93-9.46 7.12a7.39 7.39 0 0 0-5.26-1.46l.2 2.92c2.04-.2 3.21.68 3.9 1.46-4.98 2.34-7.12 5.85-6.93 11.22v4.97c0 .78.39 2.05 1.37 2.92v1.66c0 .88.39 1.76.97 2.34H226.2v-55.87h6.73v-2.92h-24.18v-8.78l-5.37-2.43v-4.49l4.59 2.24 4-8.09-32.18-15.9-4 8.1 5.75 2.83v5.56l-7.9-3.51-15.5 7.11v-11.9h16.1c.38 0 .67-.19.87-.48.2-.3.3-.68.2-.97l-6.44-24.09c-.1-.48-.58-.87-1.07-.87h-30.03c-.49 0-.98.38-1.08.87l-6.43 24.09c-.1.39 0 .68.2.97.19.3.58.49.87.49h16.09v17.45l-8.19 3.8v8.48h-24.77v2.93h7.41v55.77H87.85v-85.8l.39-1.46a7.14 7.14 0 0 0 1.56-1.37l30.9 2.24.5-6.92-27.4-7.4-5.86 1.36a6.44 6.44 0 0 0-2.73-.88l-15.5-26.91-6.04 3.51 9.16 26.91 4.39 4.1c.1.68.2 1.36.49 2.04L61.33 109.2l5.95 3.7 12.87-13.74v74.39H48.17v2.92h89.99zm59.28-47.38h-1.17c-.1 0-.2-.1-.2-.2v-13.45c0-.1.1-.2.2-.2h1.17c.1 0 .2.1.2.2v13.46c0 .1-.1.19-.2.19zm12.68-5.46c0 2.34-1.86 4.2-4.2 4.2h-5.26v-11.41h5.26c2.34 0 4.2 1.85 4.2 4.19zm.58 46.8.4.2h4.77v.58c0 .2-.2.39-.39.39h-4.39c-.2 0-.39-.2-.39-.39zm-36.76-8.87c-.1-4.58 1.66-7.12 6.44-9.07h13.65v-2.92h-12.38c.58-3.71 3.31-6.34 6.92-6.34h14.04c4.49 0 6.53 3.02 6.92 6.34h-5.85v2.92h7.22c4.78 1.95 6.53 4.39 6.43 9.07v4.87c0 .3-.2 1.08-.97 1.27h-4.49l-3.8-2.24h-24.86l-3.8 2.24h-4.49c-.78-.2-.88-.97-.97-1.27zm1.47 9.07h4.77l.4-.2v.88c0 .2-.2.39-.4.39h-4.38c-.2 0-.4-.2-.4-.4zm8.09.58v-2.53l.58-.3h23.3l.5.3v2.53c0 .88.38 1.76.97 2.34h-26.23a3.6 3.6 0 0 0 .88-2.34zM93.7 75.37l24.76 6.72-.2 2.25-27.1-1.95c.78-2.25.3-4.1-.48-5.37-.2-.29-.3-.48-.5-.68l-.09-.1zm47.28 98.18v-10.72h65.43v10.72zm15.22-55.87v42.22h-8v-42.22zm35 42.32v-42.22h8V160zm-2.93 0h-29.15v-42.22h29.15zm35 13.55h-13.94V159.9h-7.21v-42.22h21.15zm-42.11-92.14 26.9 13.26-1.36 2.83-26.91-13.26Zm3.4 8.49 15.9 7.8v4.58l-15.9-7.02zm-37.63-7.12.49-5.75h10.73l.48 5.75zM136.6 69.03h9.26l-.49 5.75h-10.33zm11.6 0h9.36l.49 5.75H147.7zm.2-2.34.48-5.75h7.9l.49 5.75zm22.23 8.1h-10.34l-.49-5.76h9.26zm-9.56 7.99-.49-5.75h10.73l1.56 5.75zm7.5-16.09h-8.86l-.5-5.75h7.9zm-29.83-5.66h7.9l-.49 5.76h-8.87zm-4.29 16.1h10.73l-.49 5.74h-11.7zm15.31 7.99h6.14V98.67l-6.14 2.83zm-7.6 23.1 31.59-14.62 32.07 14.33v6.83h-63.66zm-54.6-31.1.1.1a4.51 4.51 0 0 1-1.37 7.21c-.1 0-.2.1-.4.2-.09 0-.09 0-.19.1-.2.1-.29.1-.48.1-.3 0-.5.1-.78.1a4.58 4.58 0 0 1-4.59-4.59c0-.3 0-.59.1-.78v-.2a4.49 4.49 0 0 1 4.39-3.5c1.27 0 2.34.48 3.22 1.26zm-9.85.68-2.63-2.34-8.3-24.27 1.96-1.17 13.55 23.5c-2.54.58-3.9 2.53-4.58 4.28zM66.79 109.6l-1.95-1.17 14.43-23.01a6 6 0 0 0 4.97 2.05c.3 0 .58 0 .78-.1h.2l-.88 3.41zm15.89-13.16 2.63-2.83v79.95h-2.63Zm42.12 77.12v-55.87h20.48v42.22h-7.22v13.65z" class="st0"/></g></g><g id="shape-a69a3d53-f19f-809b-8002-c356a6f618f6"><g id="fills-a69a3d53-f19f-809b-8002-c356a6f618f6" class="fills"><path id="path2159" d="M121.68 47.87c-.68.78-1.17 1.76-1.56 2.64l-6.53-1.47a1.45 1.45 0 1 0-.69 2.83l6.24 1.36c-.19.88-.19 1.86-.19 2.83v.49L113 58.5a1.54 1.54 0 0 0-.97 1.85c.2.59.78.98 1.36.98.2 0 .3 0 .49-.1l5.66-1.85c.39 1.17.87 2.24 1.56 3.21l-3.8 4.2c-.6.58-.5 1.56.09 2.04.3.3.59.4.98.4s.78-.2 1.07-.5l3.6-3.99c.98.88 2.05 1.56 3.22 2.15l-1.07 4.97c-.2.78.3 1.56 1.07 1.75h.3c.68 0 1.26-.49 1.46-1.17l1.07-4.68c.3.1.59.1.88.2h.2c.68 0 1.36-.59 1.46-1.27.1-.78-.5-1.56-1.27-1.66-.59-.1-1.17-.2-1.66-.39-.1-.1-.2-.1-.3-.1a9.7 9.7 0 0 1 2.83-18.82 9.7 9.7 0 0 1 9.95 7.61c.2.78.97 1.27 1.75 1.17a1.6 1.6 0 0 0 1.17-1.75c0-.2-.1-.3-.1-.49l4.88-1.56c.78-.3 1.17-1.07.98-1.85a1.54 1.54 0 0 0-1.86-.98l-4.97 1.56a11.65 11.65 0 0 0-2.24-3.02l3.8-4.2c.59-.58.49-1.55-.1-2.04a1.41 1.41 0 0 0-2.04.1l-3.9 4.29a12.65 12.65 0 0 0-3.12-1.37l1.36-6.04a1.45 1.45 0 1 0-2.83-.69l-1.36 6.24h-1.27c-.68 0-1.27.1-1.95.3l-2.05-6.34a1.55 1.55 0 0 0-1.85-.98 1.54 1.54 0 0 0-.97 1.86l2.04 6.33c-.97.5-1.85.98-2.63 1.66l-4.97-4.58a1.41 1.41 0 0 0-2.05.1c-.58.58-.49 1.56.1 2.05z" class="st0"/></g></g><g id="shape-a69a3d53-f19f-809b-8002-c356a6f64b20"><g id="fills-a69a3d53-f19f-809b-8002-c356a6f64b20" class="fills"><path id="path2163" d="m132.01 178.91-2.82 8h1.75l.59-1.66h2.92l.49 1.66h1.85l-2.82-8zm-.1 4.98 1.08-3.12.97 3.12z" class="st0"/></g></g><g id="shape-a69a3d53-f19f-809b-8002-c356a6f69c74"><g id="fills-a69a3d53-f19f-809b-8002-c356a6f69c74" class="fills"><path id="path2167" d="M140.79 186.9v-3.02l2.73-4.97h-1.95l-1.56 3.51-1.66-3.5h-1.95l2.73 4.96v3.03z" class="st0"/></g></g><g id="shape-a69a3d53-f19f-809b-8002-c356a6f6cfe9"><g id="fills-a69a3d53-f19f-809b-8002-c356a6f6cfe9" class="fills"><path id="path2171" d="M144.69 178.91v4.88c0 .88.1 1.46.39 1.95.49.87 1.46 1.26 2.83 1.26 1.36 0 2.34-.39 2.82-1.26.3-.49.4-1.17.4-1.95v-4.88h-1.66v4.88c0 .58-.1.97-.2 1.17-.2.48-.68.68-1.27.68-.68 0-1.07-.2-1.36-.68-.1-.3-.2-.69-.2-1.17v-4.88z" class="st0"/></g></g><g id="shape-a69a3d53-f19f-809b-8002-c356a6f6cfea"><g id="fills-a69a3d53-f19f-809b-8002-c356a6f6cfea" class="fills"><path id="path2175" d="M154.73 178.91h-1.75v8h1.56v-5.66l3.22 5.66h1.75v-8h-1.56v5.56z" class="st0"/></g></g><g id="shape-a69a3d53-f19f-809b-8002-c356a6f70468"><g id="fills-a69a3d53-f19f-809b-8002-c356a6f70468" class="fills"><path id="path2179" d="M164.78 186.9v-6.53h2.34v-1.46h-6.44v1.47h2.34v6.53z" class="st0"/></g></g><g id="shape-a69a3d53-f19f-809b-8002-c356a6f70469"><g id="fills-a69a3d53-f19f-809b-8002-c356a6f70469" class="fills"><path id="path2183" d="M169.26 185.25h2.92l.5 1.66h1.84l-2.82-8h-1.85l-2.83 8h1.75zm1.46-4.49.98 3.12h-2.05z" class="st0"/></g></g><g id="shape-a69a3d53-f19f-809b-8002-c356a6f79fa0"><g id="fills-a69a3d53-f19f-809b-8002-c356a6f79fa0" class="fills"><path id="path2187" d="M182.03 181.54v5.37h1.56v-8h-2.43l-1.47 6.24-1.46-6.24h-2.44v8h1.56V180.18l1.47 6.73h1.65l1.56-6.73v1.36z" class="st0"/></g></g><g id="shape-a69a3d53-f19f-809b-8002-c356a6f79fa1"><g id="fills-a69a3d53-f19f-809b-8002-c356a6f79fa1" class="fills"><rect id="rect2191" width="1.66" height="7.99" x="185.25" y="178.91" class="st0" rx="0" ry="0"/></g></g><g id="shape-a69a3d53-f19f-809b-8002-c356a6f7fcd9"><g id="fills-a69a3d53-f19f-809b-8002-c356a6f7fcd9" class="fills"><path id="path2195" d="M194.61 180.38v-1.47h-5.85v8h6.05v-1.46h-4.4v-2.05h3.9v-1.37h-3.9v-1.65z" class="st0"/></g></g><g id="shape-a69a3d53-f19f-809b-8002-c356a6f7fcda"><g id="fills-a69a3d53-f19f-809b-8002-c356a6f7fcda" class="fills"><path id="path2199" d="M201.24 186.9h1.66v-7.99h-1.56v5.56l-3.22-5.56h-1.75v8h1.56v-5.66z" class="st0"/></g></g><g id="shape-a69a3d53-f19f-809b-8002-c356a6f821ba"><g id="fills-a69a3d53-f19f-809b-8002-c356a6f821ba" class="fills"><path id="path2203" d="M208.16 186.9v-6.53h2.34v-1.46h-6.43v1.47h2.44v6.53z" class="st0"/></g></g><g id="shape-a69a3d53-f19f-809b-8002-c356a6f8570a"><g id="fills-a69a3d53-f19f-809b-8002-c356a6f8570a" class="fills"><path id="path2207" d="M217.72 186.22c.78-.78 1.17-1.85 1.17-3.31s-.4-2.54-1.17-3.31a3.6 3.6 0 0 0-2.63-.98c-1.17 0-2.05.3-2.64.97-.78.78-1.17 1.86-1.17 3.32 0 1.46.4 2.54 1.17 3.31a3.6 3.6 0 0 0 2.64.98c1.17-.1 2.04-.39 2.63-.97zm-4.78-3.31c0-.88.2-1.56.59-2.05a1.9 1.9 0 0 1 1.56-.78c.68 0 1.17.3 1.56.78.39.49.58 1.17.58 2.05 0 .88-.2 1.56-.58 2.05a1.9 1.9 0 0 1-1.56.78 1.9 1.9 0 0 1-1.56-.78 3.2 3.2 0 0 1-.59-2.05z" class="st0"/></g></g><g id="shape-a69a3d53-f19f-809b-8002-c356a6f8b033"><g id="fills-a69a3d53-f19f-809b-8002-c356a6f8b033" class="fills"><path id="path2211" d="M249.4 164.19h6.44l.1-1.36c.2-3.42-1.17-5.76-3.51-5.95-.78-.1-2.63 0-2.93 0a2.93 2.93 0 0 0-2.92 2.92v1.46a2.79 2.79 0 0 0 2.83 2.93zm0-4.39zm0 0h2.64c.49.1.78.68.88 1.46h-3.51z" class="st0"/></g></g><g id="shape-a69a3d53-f19f-809b-8002-c356a6f8c2a9"><g id="fills-a69a3d53-f19f-809b-8002-c356a6f8c2a9" class="fills"><path id="path2215" d="M278.17 164.19h6.43a2.93 2.93 0 0 0 2.93-2.92v-1.47a2.93 2.93 0 0 0-2.93-2.92c-.39 0-2.24-.1-3.02 0-2.34.29-3.7 2.53-3.51 5.94zm3.8-4.49h2.63v1.47h-3.5c.09-.69.38-1.37.87-1.47z" class="st0"/></g></g><g id="shape-a69a3d53-f19f-809b-8002-c356a6f92dfa"><g id="fills-a69a3d53-f19f-809b-8002-c356a6f92dfa" class="fills"><rect id="rect2219" width="11.12" height="2.92" x="261.4" y="158.83" class="st0" rx="0" ry="0"/></g></g><g id="shape-a69a3d53-f19f-809b-8002-c356a6f92dfb"><g id="fills-a69a3d53-f19f-809b-8002-c356a6f92dfb" class="fills"><rect id="rect2223" width="3.02" height="11.51" x="208.16" y="247.94" class="st0" rx="0" ry="0"/></g></g><g id="shape-a69a3d53-f19f-809b-8002-c356a6f92dfc"><g id="fills-a69a3d53-f19f-809b-8002-c356a6f92dfc" class="fills"><rect id="rect2227" width="3.02" height="11.51" x="229.81" y="247.94" class="st0" rx="0" ry="0"/></g></g><g id="shape-a69a3d53-f19f-809b-8002-c356a6f9f43c"><g id="fills-a69a3d53-f19f-809b-8002-c356a6f9f43c" class="fills"><path id="path2231" d="M303.13 217.81h-1.27v-5.36h-2.92v5.37H288.1v-5.37h-2.92v5.37h-1.27a3.91 3.91 0 0 0-3.9 3.9v1.65c0 1.37.68 2.54 1.76 3.22v8.87a9.57 9.57 0 0 0 9.55 9.56h.59c0 5.26.19 25.83 0 33.24-.4 14.24-3.61 16.68-20.97 16.48l-22.03-.1v-51.57l7.8 4.68 1.46-2.54-37.83-22.42-37.73 22.52 1.46 2.53 7.41-4.48v45.53h40.07v-2.92h-37.14V241.6l25.93-15.4 25.74 15.21v54.7c0 .78.68 1.46 1.46 1.46l23.5.1h1.56c16.57 0 21.84-3.03 22.33-19.4.2-7.42.1-27.99 0-33.25h.78c5.26 0 9.55-4.3 9.55-9.56v-8.87a3.77 3.77 0 0 0 1.76-3.22v-1.66c0-2.14-1.76-3.9-3.9-3.9zm-20.18 3.9c0-.48.39-.97.97-.97h19.2c.5 0 .98.39.98.97v1.66c0 .49-.39.98-.97.98h-19.21a.98.98 0 0 1-.97-.98zm19.4 13.75c0 3.7-3.03 6.63-6.63 6.63h-4.3a6.64 6.64 0 0 1-6.62-6.63v-8.19h17.55z" class="st0"/></g></g><g id="shape-a69a3d53-f19f-809b-8002-c356a6f9f43d"><g id="fills-a69a3d53-f19f-809b-8002-c356a6f9f43d" class="fills"><rect id="rect2235" width="2.24" height="7.51" x="75.37" y="219.28" class="st0" rx="0" ry="0"/></g></g><g id="shape-a69a3d53-f19f-809b-8002-c356a6f9f43e"><g id="fills-a69a3d53-f19f-809b-8002-c356a6f9f43e" class="fills"><rect id="rect2239" width="2.24" height="7.51" x="91.55" y="219.28" class="st0" rx="0" ry="0"/></g></g><g id="shape-a69a3d53-f19f-809b-8002-c356a6fa0458"><g id="fills-a69a3d53-f19f-809b-8002-c356a6fa0458" class="fills"><rect id="rect2243" width="2.24" height="7.51" x="75.37" y="235.37" class="st0" rx="0" ry="0"/></g></g><g id="shape-a69a3d53-f19f-809b-8002-c356a6fa0459"><g id="fills-a69a3d53-f19f-809b-8002-c356a6fa0459" class="fills"><rect id="rect2247" width="2.24" height="7.51" x="91.55" y="235.37" class="st0" rx="0" ry="0"/></g></g><g id="shape-a69a3d53-f19f-809b-8002-c356a6fb1047"><g id="fills-a69a3d53-f19f-809b-8002-c356a6fb1047" class="fills"><path id="path2251" d="M164 247.26h.68a9.57 9.57 0 0 0 9.55-9.55v-8.88a3.77 3.77 0 0 0 1.76-3.22v-1.65c0-2.15-1.76-3.9-3.9-3.9h-1.27v-5.37h-2.92v5.37h-10.83v-5.37h-2.92v5.37h-1.27a3.91 3.91 0 0 0-3.9 3.9v1.65c0 1.37.68 2.54 1.75 3.22v8.87a9.57 9.57 0 0 0 9.56 9.56h.68c.1 6.24.2 24.57 0 31.5-.48 13.74-4.97 16.28-27.59 16.08l-29.05-.1v-82.97h.97c2.14 0 3.9-1.75 3.9-3.9v-1.17c0-2.14-1.76-3.9-3.9-3.9H61.82a3.91 3.91 0 0 0-3.9 3.9v1.17c0 2.15 1.75 3.9 3.9 3.9h1.85v19.8a8.91 8.91 0 0 0-4.59-1.57h-.78a9.45 9.45 0 0 0-7.21 3.22 10.15 10.15 0 0 0-2.24 8.1c.48 3.5-.1 4.57-1.27 6.72l-.1.1a15.9 15.9 0 0 0-.68 15.3c1.95 3.8 5.46 6.44 10.04 7.51v17.75h3.02V256.9l4.4-6.14-2.45-1.76-1.95 2.64v-2.05h-3.02v1.66l-1.66-2.34-2.43 1.75 4.1 5.75v11.31c-3.42-.97-5.96-2.92-7.32-5.85a12.7 12.7 0 0 1 .1-11.4c.2-.4.39-.69.48-.98l.1-.1c1.27-2.43 2.24-4.19 1.56-8.67-.29-2.15.3-4.2 1.56-5.66a6.76 6.76 0 0 1 5.07-2.14H59c1.65.1 3.31.97 4.48 2.34a6.73 6.73 0 0 1 1.47 5.46c-.69 4.48.29 6.24 1.56 8.67v.1c.19.3.39.68.48.98 3.22 6.33 2.24 10.82-3.5 15.8l-.2.19 2.04 2.24.2-.2c4.49-4 9.07-9.75 4.2-19.5-.2-.39-.4-.68-.6-.97l-.09-.1c-1.17-2.14-1.75-3.31-1.27-6.82.3-2.44-.2-4.68-1.36-6.63v-22.92h34.8v85.9l31.89.1h1.95c21.15 0 27.98-2.93 28.56-18.92.59-6.72.5-25.15.4-31.39zm-12.1-23.4c0-.49.4-.98.98-.98h19.2c.5 0 .98.4.98.98v1.66c0 .48-.39.97-.97.97h-19.21a.98.98 0 0 1-.97-.97zm1.86 13.75v-8.2h17.55v8.2c0 3.7-3.02 6.63-6.63 6.63h-4.3a6.52 6.52 0 0 1-6.62-6.63zm-90.1-28.86h-1.84a.98.98 0 0 1-.98-.98v-1.17c0-.48.39-.97.97-.97h43.59c.48 0 .97.39.97.97v1.17c0 .49-.39.98-.97.98h-.98z" class="st0"/></g></g><g id="shape-a69a3d53-f19f-809b-8002-c356a6fb64d4"><g id="fills-a69a3d53-f19f-809b-8002-c356a6fb64d4" class="fills"><rect id="rect2255" width="2.24" height="7.51" x="75.37" y="251.26" class="st0" rx="0" ry="0"/></g></g><g id="shape-a69a3d53-f19f-809b-8002-c356a6fb64d5"><g id="fills-a69a3d53-f19f-809b-8002-c356a6fb64d5" class="fills"><rect id="rect2259" width="2.24" height="7.51" x="91.55" y="251.26" class="st0" rx="0" ry="0"/></g></g><g id="shape-a69a3d53-f19f-809b-8002-c356a6fba666"><g id="fills-a69a3d53-f19f-809b-8002-c356a6fba666" class="fills"><path id="path2263" d="M63.67 270.66v18.14h18.42v-2.93H66.6v-15.21z" class="st0"/></g></g><g id="shape-a69a3d53-f19f-809b-8002-c356a6fba667"><g id="fills-a69a3d53-f19f-809b-8002-c356a6fba667" class="fills"><path id="path2267" d="M179.99 253.5a8.7 8.7 0 0 0-8.68 8.68c0 4.29 3.12 7.8 7.21 8.58v18.13h2.93v-18.13a8.7 8.7 0 0 0-1.46-17.26zm0 14.43a5.76 5.76 0 1 1 .02-11.53 5.76 5.76 0 0 1-.02 11.53z" class="st0"/></g></g></g></g></svg>