<svg xmlns="http://www.w3.org/2000/svg" id="screenshot-a69a3d53-f19f-809b-8002-c350c45b48ca" width="360" height="340" fill="none" style="-webkit-print-color-adjust:exact" version="1.1" viewBox="-3 -1335 360 340"><g xml:space="preserve" id="shape-a69a3d53-f19f-809b-8002-c350c45b48ca" style="fill:#000" transform="translate(1.29 -1334.88)"><g id="shape-a69a3d53-f19f-809b-8002-c350c45ce7a3"><style id="style2" type="text/css">.st0{fill:#004b00}</style></g><g id="shape-a69a3d53-f19f-809b-8002-c350c45d7f01" style="fill:#000"><g id="shape-a69a3d53-f19f-809b-8002-c350c45e4869"><g id="fills-a69a3d53-f19f-809b-8002-c350c45e4869" class="fills"><rect id="rect5" width="8.77" height="1.95" x="65.91" y="23.79" class="st0" rx="0" ry="0"/></g></g><g id="shape-a69a3d53-f19f-809b-8002-c350c45e486a"><g id="fills-a69a3d53-f19f-809b-8002-c350c45e486a" class="fills"><rect id="rect9" width="8.77" height="1.95" x="79.56" y="23.79" class="st0" rx="0" ry="0"/></g></g><g id="shape-a69a3d53-f19f-809b-8002-c350c45e9979"><g id="fills-a69a3d53-f19f-809b-8002-c350c45e9979" class="fills"><rect id="rect13" width="8.77" height="1.95" x="160.19" y="310.64" class="st0" rx="0" ry="0"/></g></g><g id="shape-a69a3d53-f19f-809b-8002-c350c45ef549"><g id="fills-a69a3d53-f19f-809b-8002-c350c45ef549" class="fills"><rect id="rect17" width="8.77" height="1.95" x="78.29" y="310.64" class="st0" rx="0" ry="0"/></g></g><g id="shape-a69a3d53-f19f-809b-8002-c350c45ef54a"><g id="fills-a69a3d53-f19f-809b-8002-c350c45ef54a" class="fills"><rect id="rect21" width="8.77" height="1.95" x="64.64" y="310.64" class="st0" rx="0" ry="0"/></g></g><g id="shape-a69a3d53-f19f-809b-8002-c350c45f88ac"><g id="fills-a69a3d53-f19f-809b-8002-c350c45f88ac" class="fills"><path id="path25" d="m35.88 33.15-1.17-1.56a43.24 43.24 0 0 0-6.73 5.95l1.47 1.26c1.95-2.14 4.09-4 6.43-5.65z" class="st0"/></g></g><g id="shape-a69a3d53-f19f-809b-8002-c350c45feccf"><g id="fills-a69a3d53-f19f-809b-8002-c350c45feccf" class="fills"><path id="path29" d="M37.93 306.83a44.06 44.06 0 0 0 8.19 3.7l.58-1.84a37.53 37.53 0 0 1-7.8-3.51z" class="st0"/></g></g><g id="shape-a69a3d53-f19f-809b-8002-c350c46065d8"><g id="fills-a69a3d53-f19f-809b-8002-c350c46065d8" class="fills"><path id="path33" d="m51.28 309.86-.39 1.95c2.73.48 5.46.78 8.3.78h.67v-1.95h-.68c-2.73 0-5.36-.2-7.9-.78z" class="st0"/></g></g><g id="shape-a69a3d53-f19f-809b-8002-c350c4608742"><g id="fills-a69a3d53-f19f-809b-8002-c350c4608742" class="fills"><path id="path37" d="m47.77 27.3-.58-1.85a51.15 51.15 0 0 0-8.29 3.41l.98 1.75a46.68 46.68 0 0 1 7.9-3.31z" class="st0"/></g></g><g id="shape-a69a3d53-f19f-809b-8002-c350c4608743"><g id="fills-a69a3d53-f19f-809b-8002-c350c4608743" class="fills"><rect id="rect41" width="8.77" height="1.95" x="120.51" y="23.79" class="st0" rx="0" ry="0"/></g></g><g id="shape-a69a3d53-f19f-809b-8002-c350c460f4c0"><g id="fills-a69a3d53-f19f-809b-8002-c350c460f4c0" class="fills"><rect id="rect45" width="8.77" height="1.95" x="134.16" y="23.79" class="st0" rx="0" ry="0"/></g></g><g id="shape-a69a3d53-f19f-809b-8002-c350c460f4c1"><g id="fills-a69a3d53-f19f-809b-8002-c350c460f4c1" class="fills"><rect id="rect49" width="8.77" height="1.95" x="132.89" y="310.64" class="st0" rx="0" ry="0"/></g></g><g id="shape-a69a3d53-f19f-809b-8002-c350c461200c"><g id="fills-a69a3d53-f19f-809b-8002-c350c461200c" class="fills"><rect id="rect53" width="8.77" height="1.95" x="146.54" y="310.64" class="st0" rx="0" ry="0"/></g></g><g id="shape-a69a3d53-f19f-809b-8002-c350c4615507"><g id="fills-a69a3d53-f19f-809b-8002-c350c4615507" class="fills"><path id="path57" d="m28.66 296.7-1.46 1.26a48.66 48.66 0 0 0 6.53 6.14l1.18-1.56a44.28 44.28 0 0 1-6.24-5.85z" class="st0"/></g></g><g id="shape-a69a3d53-f19f-809b-8002-c350c4615508"><g id="fills-a69a3d53-f19f-809b-8002-c350c4615508" class="fills"><rect id="rect61" width="8.77" height="1.95" x="147.81" y="23.79" class="st0" rx="0" ry="0"/></g></g><g id="shape-a69a3d53-f19f-809b-8002-c350c461a541"><g id="fills-a69a3d53-f19f-809b-8002-c350c461a541" class="fills"><rect id="rect65" width="8.77" height="1.95" x="105.59" y="310.64" class="st0" rx="0" ry="0"/></g></g><g id="shape-a69a3d53-f19f-809b-8002-c350c461a542"><g id="fills-a69a3d53-f19f-809b-8002-c350c461a542" class="fills"><rect id="rect69" width="8.77" height="1.95" x="93.21" y="23.79" class="st0" rx="0" ry="0"/></g></g><g id="shape-a69a3d53-f19f-809b-8002-c350c461e892"><g id="fills-a69a3d53-f19f-809b-8002-c350c461e892" class="fills"><rect id="rect73" width="8.77" height="1.95" x="91.94" y="310.64" class="st0" rx="0" ry="0"/></g></g><g id="shape-a69a3d53-f19f-809b-8002-c350c461e893"><g id="fills-a69a3d53-f19f-809b-8002-c350c461e893" class="fills"><rect id="rect77" width="8.77" height="1.95" x="106.86" y="23.79" class="st0" rx="0" ry="0"/></g></g><g id="shape-a69a3d53-f19f-809b-8002-c350c4622e8f"><g id="fills-a69a3d53-f19f-809b-8002-c350c4622e8f" class="fills"><rect id="rect81" width="8.77" height="1.95" x="119.24" y="310.64" class="st0" rx="0" ry="0"/></g></g><g id="shape-a69a3d53-f19f-809b-8002-c350c462468c"><g id="fills-a69a3d53-f19f-809b-8002-c350c462468c" class="fills"><path id="path85" d="M59.18 25.74h1.86v-1.95h-1.86c-2.34 0-4.68.2-7.02.58l.3 1.95c2.14-.39 4.38-.58 6.72-.58z" class="st0"/></g></g><g id="shape-a69a3d53-f19f-809b-8002-c350c462468d"><g id="fills-a69a3d53-f19f-809b-8002-c350c462468d" class="fills"><rect id="rect89" width="1.95" height="8.77" x="17.06" y="122.27" class="st0" rx="0" ry="0"/></g></g><g id="shape-a69a3d53-f19f-809b-8002-c350c46289e4"><g id="fills-a69a3d53-f19f-809b-8002-c350c46289e4" class="fills"><rect id="rect93" width="1.95" height="8.77" x="17.06" y="108.61" class="st0" rx="0" ry="0"/></g></g><g id="shape-a69a3d53-f19f-809b-8002-c350c46289e5"><g id="fills-a69a3d53-f19f-809b-8002-c350c46289e5" class="fills"><rect id="rect97" width="1.95" height="8.77" x="17.06" y="94.96" class="st0" rx="0" ry="0"/></g></g><g id="shape-a69a3d53-f19f-809b-8002-c350c462f877"><g id="fills-a69a3d53-f19f-809b-8002-c350c462f877" class="fills"><rect id="rect101" width="1.95" height="8.77" x="17.06" y="135.91" class="st0" rx="0" ry="0"/></g></g><g id="shape-a69a3d53-f19f-809b-8002-c350c462f878"><g id="fills-a69a3d53-f19f-809b-8002-c350c462f878" class="fills"><rect id="rect105" width="1.95" height="8.77" x="17.06" y="149.56" class="st0" rx="0" ry="0"/></g></g><g id="shape-a69a3d53-f19f-809b-8002-c350c463372b"><g id="fills-a69a3d53-f19f-809b-8002-c350c463372b" class="fills"><path id="path109" d="m20.48 49.14 1.75.78a39.32 39.32 0 0 1 4.2-7.41l-1.57-1.17a41.06 41.06 0 0 0-4.38 7.8z" class="st0"/></g></g><g id="shape-a69a3d53-f19f-809b-8002-c350c463692d"><g id="fills-a69a3d53-f19f-809b-8002-c350c463692d" class="fills"><rect id="rect113" width="1.95" height="8.77" x="17.06" y="163.22" class="st0" rx="0" ry="0"/></g></g><g id="shape-a69a3d53-f19f-809b-8002-c350c463692e"><g id="fills-a69a3d53-f19f-809b-8002-c350c463692e" class="fills"><path id="path117" d="m20.67 54.4-1.85-.58a38.54 38.54 0 0 0-1.56 8.78l1.95.1c.1-2.74.68-5.57 1.46-8.3z" class="st0"/></g></g><g id="shape-a69a3d53-f19f-809b-8002-c350c4639a35"><g id="fills-a69a3d53-f19f-809b-8002-c350c4639a35" class="fills"><path id="path121" d="M332.96 56.94a37.73 37.73 0 0 0-2.82-8.48l-1.76.78a49.33 49.33 0 0 1 2.73 8.09z" class="st0"/></g></g><g id="shape-a69a3d53-f19f-809b-8002-c350c463c823"><g id="fills-a69a3d53-f19f-809b-8002-c350c463c823" class="fills"><rect id="rect125" width="1.95" height="8.77" x="17.06" y="67.67" class="st0" rx="0" ry="0"/></g></g><g id="shape-a69a3d53-f19f-809b-8002-c350c463c824"><g id="fills-a69a3d53-f19f-809b-8002-c350c463c824" class="fills"><rect id="rect129" width="1.95" height="8.77" x="17.06" y="81.32" class="st0" rx="0" ry="0"/></g></g><g id="shape-a69a3d53-f19f-809b-8002-c350c4640610"><g id="fills-a69a3d53-f19f-809b-8002-c350c4640610" class="fills"><rect id="rect133" width="1.95" height="8.77" x="17.06" y="245.12" class="st0" rx="0" ry="0"/></g></g><g id="shape-a69a3d53-f19f-809b-8002-c350c464a4b7"><g id="fills-a69a3d53-f19f-809b-8002-c350c464a4b7" class="fills"><rect id="rect137" width="1.95" height="8.77" x="17.06" y="176.87" class="st0" rx="0" ry="0"/></g></g><g id="shape-a69a3d53-f19f-809b-8002-c350c464e82e"><g id="fills-a69a3d53-f19f-809b-8002-c350c464e82e" class="fills"><path id="path141" d="m19.01 272.32-1.95.1c.1 3.02.59 5.94 1.37 8.87l1.85-.49a48.03 48.03 0 0 1-1.27-8.48z" class="st0"/></g></g><g id="shape-a69a3d53-f19f-809b-8002-c350c4650390"><g id="fills-a69a3d53-f19f-809b-8002-c350c4650390" class="fills"><path id="path145" d="M19.99 286.06a40.92 40.92 0 0 0 4.19 7.9l1.66-1.07a40.17 40.17 0 0 1-4-7.6z" class="st0"/></g></g><g id="shape-a69a3d53-f19f-809b-8002-c350c4650391"><g id="fills-a69a3d53-f19f-809b-8002-c350c4650391" class="fills"><rect id="rect149" width="1.95" height="8.77" x="17.06" y="258.77" class="st0" rx="0" ry="0"/></g></g><g id="shape-a69a3d53-f19f-809b-8002-c350c4655bd1"><g id="fills-a69a3d53-f19f-809b-8002-c350c4655bd1" class="fills"><rect id="rect153" width="1.95" height="8.77" x="17.06" y="204.16" class="st0" rx="0" ry="0"/></g></g><g id="shape-a69a3d53-f19f-809b-8002-c350c4655bd2"><g id="fills-a69a3d53-f19f-809b-8002-c350c4655bd2" class="fills"><rect id="rect157" width="1.95" height="8.77" x="17.06" y="190.51" class="st0" rx="0" ry="0"/></g></g><g id="shape-a69a3d53-f19f-809b-8002-c350c465bdb1"><g id="fills-a69a3d53-f19f-809b-8002-c350c465bdb1" class="fills"><rect id="rect161" width="1.95" height="8.77" x="17.06" y="231.47" class="st0" rx="0" ry="0"/></g></g><g id="shape-a69a3d53-f19f-809b-8002-c350c465bdb2"><g id="fills-a69a3d53-f19f-809b-8002-c350c465bdb2" class="fills"><rect id="rect165" width="1.95" height="8.77" x="17.06" y="217.81" class="st0" rx="0" ry="0"/></g></g><g id="shape-a69a3d53-f19f-809b-8002-c350c465bdb3"><g id="fills-a69a3d53-f19f-809b-8002-c350c465bdb3" class="fills"><rect id="rect169" width="8.77" height="1.95" x="255.74" y="310.64" class="st0" rx="0" ry="0"/></g></g><g id="shape-a69a3d53-f19f-809b-8002-c350c465e222"><g id="fills-a69a3d53-f19f-809b-8002-c350c465e222" class="fills"><rect id="rect173" width="1.95" height="8.77" x="331.99" y="239.36" class="st0" rx="0" ry="0"/></g></g><g id="shape-a69a3d53-f19f-809b-8002-c350c465e223"><g id="fills-a69a3d53-f19f-809b-8002-c350c465e223" class="fills"><rect id="rect177" width="1.95" height="8.77" x="331.99" y="253.01" class="st0" rx="0" ry="0"/></g></g><g id="shape-a69a3d53-f19f-809b-8002-c350c4660b7e"><g id="fills-a69a3d53-f19f-809b-8002-c350c4660b7e" class="fills"><rect id="rect181" width="1.95" height="8.77" x="331.99" y="184.76" class="st0" rx="0" ry="0"/></g></g><g id="shape-a69a3d53-f19f-809b-8002-c350c4660b7f"><g id="fills-a69a3d53-f19f-809b-8002-c350c4660b7f" class="fills"><rect id="rect185" width="1.95" height="8.77" x="331.99" y="212.06" class="st0" rx="0" ry="0"/></g></g><g id="shape-a69a3d53-f19f-809b-8002-c350c4660b80"><g id="fills-a69a3d53-f19f-809b-8002-c350c4660b80" class="fills"><rect id="rect189" width="1.95" height="8.77" x="331.99" y="198.41" class="st0" rx="0" ry="0"/></g></g><g id="shape-a69a3d53-f19f-809b-8002-c350c4664e54"><g id="fills-a69a3d53-f19f-809b-8002-c350c4664e54" class="fills"><rect id="rect193" width="1.95" height="8.77" x="331.99" y="225.71" class="st0" rx="0" ry="0"/></g></g><g id="shape-a69a3d53-f19f-809b-8002-c350c4668d38"><g id="fills-a69a3d53-f19f-809b-8002-c350c4668d38" class="fills"><path id="path197" d="m320.29 298.84 1.36 1.36c2.15-2.14 4-4.48 5.66-7.02l-1.66-1.07a33.2 33.2 0 0 1-5.36 6.73z" class="st0"/></g></g><g id="shape-a69a3d53-f19f-809b-8002-c350c4668d39"><g id="fills-a69a3d53-f19f-809b-8002-c350c4668d39" class="fills"><path id="path201" d="M331.99 270.56c0 1.56-.1 3.22-.3 4.78l1.96.2c.19-1.66.29-3.32.29-5.08v-3.8h-1.95z" class="st0"/></g></g><g id="shape-a69a3d53-f19f-809b-8002-c350c466cf3a"><g id="fills-a69a3d53-f19f-809b-8002-c350c466cf3a" class="fills"><path id="path205" d="M320.97 38.22a39.32 39.32 0 0 1 5.17 6.83l1.66-.98a43.07 43.07 0 0 0-5.46-7.12z" class="st0"/></g></g><g id="shape-a69a3d53-f19f-809b-8002-c350c46712a4"><g id="fills-a69a3d53-f19f-809b-8002-c350c46712a4" class="fills"><path id="path209" d="m327.99 288.11 1.75.88a43.9 43.9 0 0 0 3.03-8.48l-1.85-.49a40.18 40.18 0 0 1-2.93 8.1z" class="st0"/></g></g><g id="shape-a69a3d53-f19f-809b-8002-c350c46712a5"><g id="fills-a69a3d53-f19f-809b-8002-c350c46712a5" class="fills"><rect id="rect213" width="8.77" height="1.95" x="161.46" y="23.79" class="st0" rx="0" ry="0"/></g></g><g id="shape-a69a3d53-f19f-809b-8002-c350c4677cce"><g id="fills-a69a3d53-f19f-809b-8002-c350c4677cce" class="fills"><rect id="rect217" width="1.95" height="8.77" x="331.99" y="75.56" class="st0" rx="0" ry="0"/></g></g><g id="shape-a69a3d53-f19f-809b-8002-c350c4677ccf"><g id="fills-a69a3d53-f19f-809b-8002-c350c4677ccf" class="fills"><rect id="rect221" width="1.95" height="8.77" x="331.99" y="102.86" class="st0" rx="0" ry="0"/></g></g><g id="shape-a69a3d53-f19f-809b-8002-c350c467832b"><g id="fills-a69a3d53-f19f-809b-8002-c350c467832b" class="fills"><rect id="rect225" width="1.95" height="8.77" x="331.99" y="89.21" class="st0" rx="0" ry="0"/></g></g><g id="shape-a69a3d53-f19f-809b-8002-c350c467e518"><g id="fills-a69a3d53-f19f-809b-8002-c350c467e518" class="fills"><path id="path229" d="m333.74 61.81-1.95.2c.1 1.27.2 2.54.2 3.8v4.88h1.95V65.8c0-1.26-.1-2.63-.2-4z" class="st0"/></g></g><g id="shape-a69a3d53-f19f-809b-8002-c350c467e519"><g id="fills-a69a3d53-f19f-809b-8002-c350c467e519" class="fills"><rect id="rect233" width="1.95" height="8.77" x="331.99" y="143.81" class="st0" rx="0" ry="0"/></g></g><g id="shape-a69a3d53-f19f-809b-8002-c350c4682806"><g id="fills-a69a3d53-f19f-809b-8002-c350c4682806" class="fills"><rect id="rect237" width="1.95" height="8.77" x="331.99" y="171.11" class="st0" rx="0" ry="0"/></g></g><g id="shape-a69a3d53-f19f-809b-8002-c350c4682807"><g id="fills-a69a3d53-f19f-809b-8002-c350c4682807" class="fills"><path id="path241" d="M318.73 33.44a38.54 38.54 0 0 0-7.51-4.97l-.88 1.75a43.2 43.2 0 0 1 7.12 4.78z" class="st0"/></g></g><g id="shape-a69a3d53-f19f-809b-8002-c350c4687438"><g id="fills-a69a3d53-f19f-809b-8002-c350c4687438" class="fills"><rect id="rect245" width="1.95" height="8.77" x="331.99" y="157.46" class="st0" rx="0" ry="0"/></g></g><g id="shape-a69a3d53-f19f-809b-8002-c350c4687439"><g id="fills-a69a3d53-f19f-809b-8002-c350c4687439" class="fills"><rect id="rect249" width="1.95" height="8.77" x="331.99" y="130.16" class="st0" rx="0" ry="0"/></g></g><g id="shape-a69a3d53-f19f-809b-8002-c350c468743a"><g id="fills-a69a3d53-f19f-809b-8002-c350c468743a" class="fills"><rect id="rect253" width="1.95" height="8.77" x="331.99" y="116.51" class="st0" rx="0" ry="0"/></g></g><g id="shape-a69a3d53-f19f-809b-8002-c350c468b371"><g id="fills-a69a3d53-f19f-809b-8002-c350c468b371" class="fills"><rect id="rect257" width="8.77" height="1.95" x="214.79" y="310.64" class="st0" rx="0" ry="0"/></g></g><g id="shape-a69a3d53-f19f-809b-8002-c350c468b372"><g id="fills-a69a3d53-f19f-809b-8002-c350c468b372" class="fills"><rect id="rect261" width="8.77" height="1.95" x="202.41" y="23.79" class="st0" rx="0" ry="0"/></g></g><g id="shape-a69a3d53-f19f-809b-8002-c350c468b373"><g id="fills-a69a3d53-f19f-809b-8002-c350c468b373" class="fills"><rect id="rect265" width="8.77" height="1.95" x="201.14" y="310.64" class="st0" rx="0" ry="0"/></g></g><g id="shape-a69a3d53-f19f-809b-8002-c350c468febd"><g id="fills-a69a3d53-f19f-809b-8002-c350c468febd" class="fills"><rect id="rect269" width="8.77" height="1.95" x="228.44" y="310.64" class="st0" rx="0" ry="0"/></g></g><g id="shape-a69a3d53-f19f-809b-8002-c350c468febe"><g id="fills-a69a3d53-f19f-809b-8002-c350c468febe" class="fills"><rect id="rect273" width="8.77" height="1.95" x="229.71" y="23.79" class="st0" rx="0" ry="0"/></g></g><g id="shape-a69a3d53-f19f-809b-8002-c350c4692aad"><g id="fills-a69a3d53-f19f-809b-8002-c350c4692aad" class="fills"><rect id="rect277" width="8.77" height="1.95" x="216.06" y="23.79" class="st0" rx="0" ry="0"/></g></g><g id="shape-a69a3d53-f19f-809b-8002-c350c4692aae"><g id="fills-a69a3d53-f19f-809b-8002-c350c4692aae" class="fills"><rect id="rect281" width="8.77" height="1.95" x="173.84" y="310.64" class="st0" rx="0" ry="0"/></g></g><g id="shape-a69a3d53-f19f-809b-8002-c350c4695825"><g id="fills-a69a3d53-f19f-809b-8002-c350c4695825" class="fills"><rect id="rect285" width="8.77" height="1.95" x="188.76" y="23.79" class="st0" rx="0" ry="0"/></g></g><g id="shape-a69a3d53-f19f-809b-8002-c350c4695826"><g id="fills-a69a3d53-f19f-809b-8002-c350c4695826" class="fills"><rect id="rect289" width="8.77" height="1.95" x="175.11" y="23.79" class="st0" rx="0" ry="0"/></g></g><g id="shape-a69a3d53-f19f-809b-8002-c350c4698e2a"><g id="fills-a69a3d53-f19f-809b-8002-c350c4698e2a" class="fills"><rect id="rect293" width="8.77" height="1.95" x="187.49" y="310.64" class="st0" rx="0" ry="0"/></g></g><g id="shape-a69a3d53-f19f-809b-8002-c350c4698e2b"><g id="fills-a69a3d53-f19f-809b-8002-c350c4698e2b" class="fills"><path id="path297" d="m296.79 310.34.2 1.95a45.77 45.77 0 0 0 8.77-2.04l-.68-1.86a34.17 34.17 0 0 1-8.29 1.95z" class="st0"/></g></g><g id="shape-a69a3d53-f19f-809b-8002-c350c469dffa"><g id="fills-a69a3d53-f19f-809b-8002-c350c469dffa" class="fills"><rect id="rect301" width="8.77" height="1.95" x="242.09" y="310.64" class="st0" rx="0" ry="0"/></g></g><g id="shape-a69a3d53-f19f-809b-8002-c350c469dffb"><g id="fills-a69a3d53-f19f-809b-8002-c350c469dffb" class="fills"><path id="path305" d="m309.46 306.64.88 1.75a38.34 38.34 0 0 0 7.6-4.77l-1.16-1.56a48.05 48.05 0 0 1-7.31 4.58z" class="st0"/></g></g><g id="shape-a69a3d53-f19f-809b-8002-c350c46a2fc3"><g id="fills-a69a3d53-f19f-809b-8002-c350c46a2fc3" class="fills"><path id="path309" d="m293.08 25.74.1-1.95h-8.87v1.95h8.77z" class="st0"/></g></g><g id="shape-a69a3d53-f19f-809b-8002-c350c46a474a"><g id="fills-a69a3d53-f19f-809b-8002-c350c46a474a" class="fills"><path id="path313" d="M306.74 26.42a39.17 39.17 0 0 0-8.68-2.24l-.3 1.95c2.83.39 5.66 1.17 8.3 2.15z" class="st0"/></g></g><g id="shape-a69a3d53-f19f-809b-8002-c350c46a474b"><g id="fills-a69a3d53-f19f-809b-8002-c350c46a474b" class="fills"><rect id="rect317" width="8.97" height="1.95" x="283.04" y="310.64" class="st0" rx="0" ry="0"/></g></g><g id="shape-a69a3d53-f19f-809b-8002-c350c46aa35b"><g id="fills-a69a3d53-f19f-809b-8002-c350c46aa35b" class="fills"><rect id="rect321" width="8.77" height="1.95" x="257.01" y="23.79" class="st0" rx="0" ry="0"/></g></g><g id="shape-a69a3d53-f19f-809b-8002-c350c46aa35c"><g id="fills-a69a3d53-f19f-809b-8002-c350c46aa35c" class="fills"><rect id="rect325" width="8.77" height="1.95" x="270.66" y="23.79" class="st0" rx="0" ry="0"/></g></g><g id="shape-a69a3d53-f19f-809b-8002-c350c46aa35d"><g id="fills-a69a3d53-f19f-809b-8002-c350c46aa35d" class="fills"><rect id="rect329" width="8.77" height="1.95" x="243.36" y="23.79" class="st0" rx="0" ry="0"/></g></g><g id="shape-a69a3d53-f19f-809b-8002-c350c46ad9d7"><g id="fills-a69a3d53-f19f-809b-8002-c350c46ad9d7" class="fills"><rect id="rect333" width="8.77" height="1.95" x="269.39" y="310.64" class="st0" rx="0" ry="0"/></g></g><g id="shape-a69a3d53-f19f-809b-8002-c350c46d7bc8"><g id="fills-a69a3d53-f19f-809b-8002-c350c46d7bc8" class="fills"><path id="path337" d="m84.24 180.47 36.66 21.75v63.37H84.43v2.92H276.9v-2.92h-41.34V81.71h62.2v116.12h2.93V81.7h4a4.37 4.37 0 0 0 4.38-4.38v-4.58a4.37 4.37 0 0 0-4.38-4.4h-77.61a4.37 4.37 0 0 0-4.39 4.4v4.58a4.37 4.37 0 0 0 4.39 4.39h5.55v24.57h-22.81a1.5 1.5 0 0 0-1.46 1.46v44.17c-.2 5.55-2.93 8.19-8.68 8.38h-42.12v-6.43c0-6.15-5.07-11.22-11.21-11.22h-19.6a4.42 4.42 0 0 0-4.2-3.02h-5.45a4.37 4.37 0 0 0-4.39 4.39v4.48h-10.34v2.93h10.34v20.86h-10.33v2.93h10.33v4.48a4.37 4.37 0 0 0 4.39 4.39h5.46c1.95 0 3.6-1.27 4.19-3.02h19.6c6.14 0 11.21-5.07 11.21-11.21v-6.44h42.22c7.31-.2 11.3-4 11.5-11.21v-43h21.35v156.39h-28.27v-21.74a12.97 12.97 0 1 0-3.12 0v21.74h-30.13v-33.73l5.17-7.22-2.53-1.76-2.64 3.71v-3.12h-3.02v2.63l-2.34-3.31-2.53 1.75 4.87 6.73v14.04c-4.29-1.17-7.6-3.6-9.36-7.22a15.5 15.5 0 0 1 .2-14.04c.19-.48.48-.87.68-1.26 1.56-2.83 2.63-4.98 1.85-10.24a8.42 8.42 0 0 1 1.95-7.02 8.26 8.26 0 0 1 6.24-2.73h.78c2.05.1 4.2 1.17 5.66 2.92a8.48 8.48 0 0 1 1.85 6.83c-.78 5.26.29 7.41 1.85 10.24.2.39.49.87.68 1.26 3.9 7.8 2.73 13.26-4.29 19.4l2.05 2.35c5.36-4.68 10.73-11.6 4.97-23.11-.29-.49-.48-.98-.68-1.37-1.46-2.73-2.14-4.09-1.56-8.38.49-3.41-.49-6.73-2.53-9.26a10.95 10.95 0 0 0-7.8-4h-.98c-3.31 0-6.43 1.36-8.48 3.8a11.9 11.9 0 0 0-2.63 9.46c.68 4.29-.1 5.65-1.56 8.29-.2.39-.5.87-.69 1.36a19 19 0 0 0-.2 16.87c2.35 4.58 6.64 7.7 12.1 8.97v16.96h-44.36v-61.71l11.89 7.02 1.46-2.54-53.04-31.4-16.08 9.66v-13.46H86c.39 0 .78-.19.97-.48.3-.3.3-.69.2-1.08l-7.22-26.9c-.2-.59-.68-.98-1.27-.98H45.34c-.59 0-1.08.39-1.27.97l-7.22 27.11c-.1.39 0 .78.2 1.07.2.3.58.49.97.49h17.94v20.67L31.5 208.45l1.47 2.54 11.3-6.73v62.89h2.93v-64.54h-.2ZM226.98 78.78a1.5 1.5 0 0 1-1.46-1.46v-4.58c0-.78.68-1.47 1.46-1.47h77.61c.78 0 1.46.69 1.46 1.47v4.58a1.5 1.5 0 0 1-1.46 1.46h-72.05zM122.56 180.96h-5.46a1.5 1.5 0 0 1-1.46-1.46V143.9c0-.78.68-1.46 1.46-1.46h5.46c.78 0 1.46.68 1.46 1.46v35.59a1.5 1.5 0 0 1-1.46 1.46zm32.08-11.31c0 4.58-3.71 8.29-8.3 8.29h-19.4v-32.47h19.4c4.59 0 8.3 3.7 8.3 8.29zm38.31 61.42a9.82 9.82 0 0 1 9.85-9.84 9.82 9.82 0 0 1 9.85 9.84 9.82 9.82 0 0 1-9.85 9.85 9.82 9.82 0 0 1-9.85-9.84zM55.48 170.72l.58-6.43h12l.58 6.43zm-11.6-15.4H54.2l-.58 6.43H42.22Zm12.96 0h10.43l.59 6.43h-11.5Zm.3-2.54.58-6.43h8.78l.58 6.43zM82 161.75H70.5l-.6-6.43h10.34zm-10.73 8.97-.58-6.43h11.99l1.66 6.43zm8.29-17.94h-9.95l-.58-6.43h8.78zm-33.25-6.43h8.78l-.59 6.43h-9.94zm-4.77 17.94h11.99l-.59 6.43H39.78Zm17.06 8.97h6.82v15.01l-6.82 4.1z" class="st0"/></g></g><g id="shape-a69a3d53-f19f-809b-8002-c350c46da98c"><g id="fills-a69a3d53-f19f-809b-8002-c350c46da98c" class="fills"><rect id="rect341" width="4.29" height="16.18" x="67.08" y="215.87" class="st0" rx="0" ry="0"/></g></g><g id="shape-a69a3d53-f19f-809b-8002-c350c46da98d"><g id="fills-a69a3d53-f19f-809b-8002-c350c46da98d" class="fills"><rect id="rect345" width="4.29" height="16.18" x="97.6" y="215.87" class="st0" rx="0" ry="0"/></g></g><g id="shape-a69a3d53-f19f-809b-8002-c350c46ee12e"><g id="fills-a69a3d53-f19f-809b-8002-c350c46ee12e" class="fills"><path id="path349" d="M63.57 126.46c.1 0 .1 0 0 0zm0 0 5.56-.2c0 .4 0 .78.1 1.17.1.78.87 1.37 1.65 1.27.78-.1 1.37-.88 1.27-1.66-.1-.68-.1-1.36-.1-1.95v-.39a11.1 11.1 0 0 1 7.7-9.55c5.76-1.76 12 1.46 13.75 7.31a10.98 10.98 0 0 1-5.65 13.06 1.59 1.59 0 0 0-.68 1.95c.29.5.77.78 1.26.78.2 0 .49-.1.68-.19l.59-.3 3.12 4.98c.3.49.78.68 1.27.68.29 0 .48-.1.78-.2.68-.38.87-1.36.48-2.04l-3.21-5.07a13.56 13.56 0 0 0 2.82-3.41l5.76 3.02c.2.1.48.2.68.2.49 0 1.07-.3 1.27-.78.39-.69.1-1.56-.59-1.95l-5.85-3.12c.4-1.27.68-2.64.68-4l7.12-.2c.78 0 1.46-.68 1.37-1.56-.1-.87-.69-1.46-1.56-1.36l-7.22.29c-.1-.49-.2-.97-.39-1.46a8.31 8.31 0 0 0-.88-2.15l6.44-4c.68-.38.88-1.36.49-2.04-.4-.69-1.37-.88-2.05-.49l-6.44 4a12.89 12.89 0 0 0-2.63-2.54l3.61-6.82c.39-.68.1-1.56-.58-1.95-.69-.4-1.56-.1-1.95.58l-3.61 6.73a15.38 15.38 0 0 0-3.61-1.07l-.3-7.6c0-.79-.68-1.47-1.55-1.37-.78 0-1.47.68-1.37 1.56l.3 7.31c-1.08.1-2.15.2-3.22.58-.2.1-.4.1-.59.2l-3.8-6.05c-.39-.68-1.36-.87-2.05-.48-.68.39-.87 1.36-.48 2.04l3.6 5.76a12.57 12.57 0 0 0-3.21 2.73l-5.76-3.03c-.68-.39-1.56-.1-1.95.59-.39.68-.1 1.56.59 1.95l5.46 2.92a13.97 13.97 0 0 0-1.46 4.3l-5.85.19c-.78 0-1.47.68-1.37 1.56.2.68.78 1.27 1.56 1.27z" class="st0"/></g></g><g id="shape-a69a3d53-f19f-809b-8002-c350c46f9040"><g id="fills-a69a3d53-f19f-809b-8002-c350c46f9040" class="fills"><path id="path353" d="m309.17 223.57-2.63 3.7v-3.02h-3.02v2.63l-2.34-3.31-2.54 1.75 4.88 6.73v14.04c-4.3-1.17-7.6-3.6-9.36-7.21a15.5 15.5 0 0 1 .2-14.04c.19-.5.48-.88.68-1.27 1.56-2.83 2.63-4.97 1.85-10.24a8.42 8.42 0 0 1 1.95-7.02 8.26 8.26 0 0 1 6.24-2.73h.78c2.04.1 4.19 1.17 5.65 2.93a8.48 8.48 0 0 1 1.85 6.82c-.78 5.27.3 7.41 1.86 10.24l.68 1.27c3.9 7.8 2.73 13.26-4.29 19.4l2.05 2.34c5.36-4.68 10.72-11.6 4.97-23.11-.3-.49-.49-.97-.68-1.36-1.47-2.73-2.15-4.1-1.56-8.39.48-3.41-.49-6.73-2.54-9.26a10.95 10.95 0 0 0-7.8-4h-.97c-3.32 0-6.44 1.37-8.49 3.8a11.9 11.9 0 0 0-2.63 9.46c.68 4.29-.1 5.66-1.56 8.29-.2.39-.49.88-.68 1.36a19.01 19.01 0 0 0-.2 16.87c2.34 4.58 6.63 7.7 12.1 8.97v18.92h3.02v-35.6l5.16-7.2z" class="st0"/></g></g><g id="shape-a69a3d53-f19f-809b-8002-c350c46f9041"><g id="fills-a69a3d53-f19f-809b-8002-c350c46f9041" class="fills"><rect id="rect357" width="3.9" height="12.97" x="251.75" y="101.89" class="st0" rx="0" ry="0"/></g></g><g id="shape-a69a3d53-f19f-809b-8002-c350c46f9042"><g id="fills-a69a3d53-f19f-809b-8002-c350c46f9042" class="fills"><rect id="rect361" width="3.9" height="12.97" x="279.44" y="101.89" class="st0" rx="0" ry="0"/></g></g><g id="shape-a69a3d53-f19f-809b-8002-c350c46fe4c7"><g id="fills-a69a3d53-f19f-809b-8002-c350c46fe4c7" class="fills"><rect id="rect365" width="3.9" height="12.97" x="251.75" y="129.68" class="st0" rx="0" ry="0"/></g></g><g id="shape-a69a3d53-f19f-809b-8002-c350c46fe4c8"><g id="fills-a69a3d53-f19f-809b-8002-c350c46fe4c8" class="fills"><rect id="rect369" width="3.9" height="12.97" x="279.44" y="129.68" class="st0" rx="0" ry="0"/></g></g><g id="shape-a69a3d53-f19f-809b-8002-c350c4701d39"><g id="fills-a69a3d53-f19f-809b-8002-c350c4701d39" class="fills"><rect id="rect373" width="3.9" height="12.97" x="251.75" y="165.55" class="st0" rx="0" ry="0"/></g></g><g id="shape-a69a3d53-f19f-809b-8002-c350c4701d3a"><g id="fills-a69a3d53-f19f-809b-8002-c350c4701d3a" class="fills"><rect id="rect377" width="3.9" height="12.97" x="279.44" y="165.55" class="st0" rx="0" ry="0"/></g></g><g id="shape-a69a3d53-f19f-809b-8002-c350c4701d3b"><g id="fills-a69a3d53-f19f-809b-8002-c350c4701d3b" class="fills"><rect id="rect381" width="3.9" height="12.97" x="251.75" y="194.12" class="st0" rx="0" ry="0"/></g></g><g id="shape-a69a3d53-f19f-809b-8002-c350c4705b43"><g id="fills-a69a3d53-f19f-809b-8002-c350c4705b43" class="fills"><rect id="rect385" width="3.9" height="12.97" x="279.44" y="194.12" class="st0" rx="0" ry="0"/></g></g><g id="shape-a69a3d53-f19f-809b-8002-c350c471050f"><g id="fills-a69a3d53-f19f-809b-8002-c350c471050f" class="fills"><path id="path389" d="m93.4 90.67 2.05-2.04c-7.8-8-8.87-16.38-2.83-22.43 2.25-2.14 5.85-3.12 9.75-2.63 4.68.58 9.07 3.22 11.31 6.83l.69 1.07 1.17-.49c3.31-1.37 6.24-1.46 8.68-.39 2.14 1.07 3.7 3.12 4.48 6.14l.49 1.66 1.56-.68c2.53-1.08 5.56-.49 8.09 1.56a10.6 10.6 0 0 1 3.8 8.87c-.1-.1-.29-.2-.39-.2-2.34-1.17-5.26-1.26-8.29-.19a15.54 15.54 0 0 0-10.62-5.85c-4.1-.49-7.8.58-10.34 2.92-6.14 6.15-5.26 14.73 2.34 22.43l2.05-2.05c-6.44-6.53-7.31-13.36-2.34-18.23 1.85-1.75 4.68-2.54 7.9-2.15 3.8.5 7.4 2.64 9.26 5.56l.68 1.08 1.17-.5c2.63-1.06 5.07-1.26 7.02-.28 1.76.87 2.93 2.53 3.61 4.97l.49 1.65 1.56-.68c2.04-.88 4.48-.39 6.43 1.27a8.57 8.57 0 0 1 2.83 8.48l2.83.68c.97-4.19-.49-8.58-3.8-11.4-2.44-2.05-5.27-2.83-8-2.25a10.81 10.81 0 0 0-1.66-2.92 13.47 13.47 0 0 0-4.48-13.36c-2.93-2.44-6.34-3.31-9.56-2.53-1.17-3.02-3.02-5.27-5.56-6.54-2.82-1.36-6.24-1.46-9.94-.19-2.83-3.8-7.5-6.43-12.77-7.12-4.78-.58-9.27.69-12.19 3.51-7.5 7.12-6.44 17.26 2.53 26.43z" class="st0"/></g></g><g id="shape-a69a3d53-f19f-809b-8002-c350c4714117"><g id="fills-a69a3d53-f19f-809b-8002-c350c4714117" class="fills"><path id="path393" d="M140.6 280.41c.19-.1.39-.3.87-.58l.69-.5c.58-.38.97-.77 1.17-1.06.38-.5.58-.98.58-1.66 0-.78-.3-1.46-.78-1.95-.49-.49-1.17-.68-2.05-.68-1.07 0-1.85.39-2.34 1.26-.2.4-.39.98-.39 1.76h1.56c0-.49.1-.78.2-.98.2-.39.48-.58.97-.58.4 0 .68.1.88.39.2.29.3.49.3.88s-.2.78-.5 1.17c-.19.19-.68.58-1.46 1.17a4.58 4.58 0 0 0-1.66 1.75 4.6 4.6 0 0 0-.38 1.66h5.65v-1.66h-3.6c.09-.2.19-.3.29-.39z" class="st0"/></g></g><g id="shape-a69a3d53-f19f-809b-8002-c350c4719ebc"><g id="fills-a69a3d53-f19f-809b-8002-c350c4719ebc" class="fills"><path id="path397" d="M155.8 273.78h-2.34l-3.21 3.51v-3.51h-1.76v8.48h1.76v-2.83l.88-.87 2.53 3.7h2.24l-3.6-4.97z" class="st0"/></g></g><g id="shape-a69a3d53-f19f-809b-8002-c350c471e3f3"><g id="fills-a69a3d53-f19f-809b-8002-c350c471e3f3" class="fills"><rect id="rect401" width="1.75" height="8.39" x="156.78" y="273.78" class="st0" rx="0" ry="0"/></g></g><g id="shape-a69a3d53-f19f-809b-8002-c350c4723c14"><g id="fills-a69a3d53-f19f-809b-8002-c350c4723c14" class="fills"><path id="path405" d="M166.14 280.7h-4.2v-6.92h-1.75v8.48h5.95z" class="st0"/></g></g><g id="shape-a69a3d53-f19f-809b-8002-c350c472588a"><g id="fills-a69a3d53-f19f-809b-8002-c350c472588a" class="fills"><path id="path409" d="M173.84 274.56c-.68-.68-1.56-.97-2.73-.97s-2.14.29-2.73.97c-.87.78-1.26 1.95-1.26 3.51 0 1.56.39 2.63 1.26 3.51.69.68 1.56.97 2.73.97s2.15-.29 2.73-.97c.88-.78 1.27-1.95 1.27-3.51a4.8 4.8 0 0 0-1.27-3.51zm-1.17 5.66c-.39.48-.97.77-1.65.77-.69 0-1.27-.29-1.66-.78a3.5 3.5 0 0 1-.59-2.14c0-.88.2-1.66.59-2.15.39-.48.97-.78 1.65-.78.69 0 1.27.3 1.66.79.4.48.59 1.26.59 2.14.1.88-.1 1.66-.59 2.15z" class="st0"/></g></g><g id="shape-a69a3d53-f19f-809b-8002-c350c472aadd"><g id="fills-a69a3d53-f19f-809b-8002-c350c472aadd" class="fills"><path id="path413" d="m171.3 272.9 1.66-1.75h-1.75l-1.07 1.75z" class="st0"/></g></g><g id="shape-a69a3d53-f19f-809b-8002-c350c472db7a"><g id="fills-a69a3d53-f19f-809b-8002-c350c472db7a" class="fills"><path id="path417" d="m180.47 280.41-1.56-6.63h-2.53v8.39h1.66v-7.02l1.56 7.02h1.75l1.56-7.02V282.17h1.66v-8.39h-2.54z" class="st0"/></g></g><g id="shape-a69a3d53-f19f-809b-8002-c350c472db7b"><g id="fills-a69a3d53-f19f-809b-8002-c350c472db7b" class="fills"><path id="path421" d="M192.66 280.7h-4.68v-2.14h4.1v-1.47h-4.1v-1.75h4.39v-1.56h-6.15v8.48h6.44z" class="st0"/></g></g><g id="shape-a69a3d53-f19f-809b-8002-c350c47311e4"><g id="fills-a69a3d53-f19f-809b-8002-c350c47311e4" class="fills"><path id="path425" d="M193.25 275.34h2.53v6.92h1.75v-6.92h2.54v-1.56h-6.83z" class="st0"/></g></g><g id="shape-a69a3d53-f19f-809b-8002-c350c473b060"><g id="fills-a69a3d53-f19f-809b-8002-c350c473b060" class="fills"><path id="path429" d="M202.9 278.95h1.75c.49 0 .78.1.98.29.2.2.29.58.29 1.07v.78c0 .3 0 .49.1.68 0 .1.1.3.1.5h1.95v-.2c-.2-.1-.3-.3-.3-.49v-1.37c0-.58-.1-1.07-.2-1.36-.09-.3-.38-.49-.77-.68.48-.2.78-.4.97-.78.2-.4.3-.78.3-1.17 0-.3-.1-.59-.2-.88-.1-.3-.3-.49-.39-.68a1.5 1.5 0 0 0-.78-.59c-.3-.1-.78-.2-1.36-.2h-4v8.4h1.75v-3.32zm0-3.7h1.95c.39 0 .58.09.78.19.29.2.49.48.49 1.07 0 .49-.2.78-.5.97-.19.1-.48.1-.87.1h-1.85z" class="st0"/></g></g><g id="shape-a69a3d53-f19f-809b-8002-c350c4742980"><g id="fills-a69a3d53-f19f-809b-8002-c350c4742980" class="fills"><path id="path433" d="M217.33 278.07c0-1.56-.4-2.73-1.27-3.51-.68-.68-1.56-.97-2.73-.97s-2.15.29-2.73.97c-.88.78-1.27 1.95-1.27 3.51 0 1.56.4 2.63 1.27 3.51.68.68 1.56.97 2.73.97s2.15-.29 2.73-.97a4.71 4.71 0 0 0 1.27-3.51zm-2.34 2.15c-.4.48-.98.77-1.66.77-.68 0-1.27-.29-1.66-.78a3.5 3.5 0 0 1-.58-2.14c0-.88.2-1.66.58-2.15.4-.48.98-.78 1.66-.78.68 0 1.27.3 1.66.79.39.48.58 1.26.58 2.14 0 .88-.2 1.66-.58 2.15z" class="st0"/></g></g><g id="shape-a69a3d53-f19f-809b-8002-c350c474a38e"><g id="fills-a69a3d53-f19f-809b-8002-c350c474a38e" class="fills"><path id="path437" d="m223.08 277.49-1.46-.4c-.59-.1-.98-.29-1.07-.38-.3-.2-.4-.4-.4-.69 0-.29.1-.58.4-.78.29-.2.68-.29 1.07-.29s.78.1 1.07.2c.39.19.68.58.68 1.07h1.66a2.6 2.6 0 0 0-.97-2.05c-.59-.49-1.37-.68-2.34-.68-1.08 0-1.86.29-2.44.78a2.4 2.4 0 0 0-.88 1.85c0 .78.3 1.46.88 1.85.29.2.97.49 1.85.68l.88.2c.49.1.88.3 1.17.39.29.2.39.39.39.68 0 .49-.3.78-.78.98-.3.1-.59.1-1.07.1-.69 0-1.17-.2-1.47-.5-.2-.19-.29-.48-.29-.87h-1.66c0 .88.3 1.56.98 2.05.68.48 1.46.78 2.63.78 1.07 0 1.95-.3 2.54-.78.58-.49.87-1.17.87-1.95s-.29-1.37-.78-1.76a5.2 5.2 0 0 0-1.46-.49z" class="st0"/></g></g></g></g></svg>