<?xml version="1.0" encoding="UTF-8" standalone="no"?>
<svg
   width="41"
   height="41"
   id="screenshot-5dab8220-b13d-805c-8002-c4fd5a0b538e"
   viewBox="-14.63 0 41 41.000001"
   style="-webkit-print-color-adjust:exact"
   fill="none"
   version="1.1"
   xmlns="http://www.w3.org/2000/svg"
   xmlns:svg="http://www.w3.org/2000/svg">
  <defs
     id="defs14" />
  <g
     id="shape-5dab8220-b13d-805c-8002-c4fd5a0b538e"
     rx="0"
     ry="0"
     style="fill:#000000"
     transform="translate(-14.63)">
    <g
       id="shape-5dab8220-b13d-805c-8002-c4fd5a0b5399">
      <g
         class="fills"
         id="fills-5dab8220-b13d-805c-8002-c4fd5a0b5399">
        <path
           class="cls-1"
           rx="0"
           ry="0"
           d="m 30.23,40.46 h -20 C 4.58,40.46 0,35.88 0,30.23 v -20 C 0,4.58 4.58,0 10.23,0 h 20 c 5.65,0 10.23,4.58 10.23,10.23 v 20 c 0,5.65 -4.58,10.23 -10.23,10.23 z"
           style="fill:#2ab20b;fill-opacity:1"
           id="path2" />
      </g>
    </g>
    <g
       id="shape-5dab8220-b13d-805c-8002-c4fd5a0b539a">
      <g
         class="fills"
         id="fills-5dab8220-b13d-805c-8002-c4fd5a0b539a">
        <path
           rx="0"
           ry="0"
           d="m 31.28,13.55 c -0.705,0.299 -1.444,0.511 -2.2,0.63 0.35,-0.06 0.87,-0.7 1.08,-1 0.327,-0.392 0.575,-0.843 0.73,-1.33 0,0 0,-0.08 0,-0.11 -0.038,-0.02 -0.082,-0.02 -0.12,0 -0.826,0.439 -1.702,0.775 -2.61,1 -0.055,0.034 -0.125,0.034 -0.18,0 -0.066,-0.086 -0.144,-0.164 -0.23,-0.23 -0.375,-0.327 -0.8,-0.59 -1.26,-0.78 -0.614,-0.251 -1.278,-0.357 -1.94,-0.31 -0.643,0.042 -1.27,0.219 -1.84,0.52 -0.572,0.3 -1.079,0.711 -1.49,1.21 -0.42,0.522 -0.72,1.129 -0.88,1.78 -0.142,0.614 -0.159,1.25 -0.05,1.87 0,0.11 0,0.12 -0.09,0.11 -3.464,-0.351 -6.673,-1.981 -9,-4.57 -0.11,-0.12 -0.16,-0.12 -0.25,0 -0.953,1.766 -0.636,3.948 0.78,5.37 0.171,0.176 0.355,0.34 0.55,0.49 -0.603,-0.048 -1.191,-0.214 -1.73,-0.49 -0.11,-0.06 -0.16,0 -0.17,0.1 -0.014,0.17 -0.014,0.34 0,0.51 0.213,1.644 1.294,3.046 2.83,3.67 0.187,0.078 0.381,0.135 0.58,0.17 -0.56,0.114 -1.135,0.131 -1.7,0.05 -0.12,0 -0.17,0 -0.12,0.16 0.585,1.551 1.933,2.686 3.56,3 0.17,0 0.33,0 0.49,0.06 v 0 c -0.693,0.627 -1.532,1.071 -2.44,1.29 -1.181,0.423 -2.44,0.587 -3.69,0.48 -0.2,0 -0.25,0 -0.3,0 -0.05,0 0,0.08 0.06,0.13 0.25,0.17 0.51,0.31 0.77,0.46 0.785,0.422 1.613,0.757 2.47,1 4.494,1.341 9.361,0.199 12.79,-3 2.62,-2.61 3.54,-6.2 3.54,-9.79 0,-0.15 0.17,-0.22 0.26,-0.3 0.671,-0.511 1.261,-1.122 1.75,-1.81 0.073,-0.098 0.112,-0.218 0.05,-0.34 z m 0,0 z m 0,0 c 0.06,-0.06 0.06,0 0,0 z"
           style="fill:#ffffff;fill-opacity:1"
           id="path6" />
      </g>
    </g>
  </g>
</svg>
