<?xml version="1.0" encoding="UTF-8" standalone="no"?>
<svg
   width="41"
   height="41"
   id="screenshot-5dab8220-b13d-805c-8002-c4fd5a0b538f"
   viewBox="0 0 41 41.000001"
   style="-webkit-print-color-adjust:exact"
   fill="none"
   version="1.1"
   xmlns="http://www.w3.org/2000/svg"
   xmlns:svg="http://www.w3.org/2000/svg">
  <defs
     id="defs18" />
  <g
     id="shape-5dab8220-b13d-805c-8002-c4fd5a0b538f"
     rx="0"
     ry="0"
     style="fill:#000000">
    <g
       id="shape-5dab8220-b13d-805c-8002-c4fd5a0b539f">
      <g
         class="fills"
         id="fills-5dab8220-b13d-805c-8002-c4fd5a0b539f">
        <path
           class="cls-1"
           rx="0"
           ry="0"
           d="m 30.23,40.47 h -20 C 4.579,40.464 0,35.881 0,30.23 v -20 C 0,7.517 1.078,4.915 2.996,2.996 4.915,1.078 7.517,0 10.23,0 h 20 c 2.713,0 5.315,1.078 7.234,2.996 1.918,1.919 2.996,4.521 2.996,7.234 v 20 c 0,5.651 -4.579,10.234 -10.23,10.24 z"
           style="fill:#2ab20b;fill-opacity:1"
           id="path2" />
      </g>
    </g>
    <g
       id="shape-5dab8220-b13d-805c-8002-c4fd5a0b53a0">
      <g
         class="fills"
         id="fills-5dab8220-b13d-805c-8002-c4fd5a0b53a0">
        <path
           class="cls-2"
           rx="0"
           ry="0"
           d="M 34.65,16.87 C 33.146,10.417 27.386,5.855 20.76,5.87 19.844,5.893 18.932,5.987 18.03,6.15 13.587,7.023 9.826,9.958 7.901,14.056 5.975,18.154 6.116,22.923 8.28,26.9 c 0.136,0.206 0.182,0.459 0.13,0.7 -0.67,2.17 -1.28,4.42 -1.87,6.62 -0.1,0.39 -0.1,0.39 0.27,0.28 2.31,-0.62 4.6,-1.21 6.9,-1.78 0.162,-0.076 0.348,-0.076 0.51,0 4.931,2.548 10.892,2.001 15.277,-1.401 4.385,-3.402 6.395,-9.04 5.153,-14.449 z m 0,0 z m -11.89,14.9 c -0.537,0.128 -1.089,0.175 -1.64,0.14 -2.252,0.056 -4.477,-0.508 -6.43,-1.63 -0.2,-0.168 -0.476,-0.214 -0.72,-0.12 -1.29,0.31 -2.55,0.65 -3.82,1 -0.27,0.09 -0.29,0 -0.23,-0.23 0.33,-1.18 0.65,-2.38 1,-3.6 0.098,-0.287 0.041,-0.605 -0.15,-0.84 -2.606,-4.088 -2.439,-9.355 0.42,-13.27 2.718,-3.777 7.402,-5.603 11.96,-4.664 4.557,0.94 8.137,4.47 9.14,9.014 0.734,3.162 0.127,6.487 -1.679,9.185 -1.806,2.698 -4.648,4.528 -7.851,5.015 z m 0,0 z"
           style="fill:#ffffff;fill-opacity:1"
           id="path6" />
      </g>
    </g>
    <g
       id="shape-5dab8220-b13d-805c-8002-c4fd5a0b53a1">
      <g
         class="fills"
         id="fills-5dab8220-b13d-805c-8002-c4fd5a0b53a1">
        <path
           class="cls-2"
           rx="0"
           ry="0"
           d="m 24.48,26.94 c -0.499,0.035 -1,-0.037 -1.47,-0.21 -3.138,-0.951 -5.858,-2.944 -7.71,-5.65 -0.806,-0.972 -1.375,-2.119 -1.66,-3.35 -0.313,-1.411 0.184,-2.879 1.29,-3.81 0.559,-0.374 1.253,-0.484 1.9,-0.3 0.121,0.119 0.225,0.253 0.31,0.4 0.41,1 0.84,1.94 1.25,2.91 0.065,0.2 0.043,0.417 -0.06,0.6 -0.238,0.429 -0.534,0.823 -0.88,1.17 -0.121,0.091 -0.198,0.227 -0.213,0.377 -0.015,0.151 0.033,0.3 0.133,0.413 1.089,1.911 2.806,3.384 4.86,4.17 0.25,0.144 0.569,0.069 0.73,-0.17 0.37,-0.41 0.73,-0.87 1.07,-1.32 0.171,-0.262 0.512,-0.353 0.79,-0.21 0.7,0.33 1.38,0.66 2.05,1 0.155,0.084 0.315,0.158 0.48,0.22 0.7,0.35 0.7,0.41 0.62,1.16 -0.09,1.48 -1.23,2.24 -2.54,2.61 -0.314,0.061 -0.637,0.058 -0.95,-0.01 z"
           style="fill:#ffffff;fill-opacity:1"
           id="path10" />
      </g>
    </g>
  </g>
</svg>
