<?xml version="1.0" encoding="UTF-8" standalone="no"?>
<svg
   width="41"
   height="41"
   id="screenshot-5dab8220-b13d-805c-8002-c4fd5a0b538d"
   viewBox="-199.09 0 41.000001 40.999999"
   style="-webkit-print-color-adjust:exact"
   fill="none"
   version="1.1"
   xmlns="http://www.w3.org/2000/svg"
   xmlns:svg="http://www.w3.org/2000/svg">
  <defs
     id="defs226" />
  <g
     id="shape-5dab8220-b13d-805c-8002-c4fd5a0b538d"
     rx="0"
     ry="0"
     style="fill:#000000"
     transform="translate(-199.09)">
    <g
       id="shape-5dab8220-b13d-805c-8002-c4fd5a0b5393">
      <g
         class="fills"
         id="fills-5dab8220-b13d-805c-8002-c4fd5a0b5393">
        <path
           class="cls-1"
           rx="0"
           ry="0"
           d="m 30.19,0 h -20 C 4.556,0.022 0,4.596 0,10.23 v 20 c 0.022,5.634 4.596,10.19 10.23,10.19 h 20 c 5.619,-0.022 10.168,-4.571 10.19,-10.19 v -20 C 40.42,7.517 39.342,4.915 37.424,2.996 35.505,1.078 32.903,0 30.19,0 Z"
           style="fill:#2ab20b;fill-opacity:1"
           id="path214" />
      </g>
    </g>
    <g
       id="shape-5dab8220-b13d-805c-8002-c4fd5a0b5394">
      <g
         class="fills"
         id="fills-5dab8220-b13d-805c-8002-c4fd5a0b5394">
        <path
           rx="0"
           ry="0"
           d="m 16.63,11.79 v 4.44 H 11.52 V 22 h 5.11 v 14.44 h 6.2 V 21.96 h 4.65 l 0.89,-5.77 h -5.54 v -3.74 c 0,-1.58 0.77,-3.12 3.26,-3.12 h 2.54 V 4.41 C 27.152,4.171 25.658,4.04 24.16,4.02 c -4.56,0 -7.54,2.77 -7.53,7.77 z"
           style="fill:#ffffff;fill-opacity:1"
           id="path218" />
      </g>
    </g>
  </g>
</svg>
