<svg xmlns="http://www.w3.org/2000/svg" width="41" height="41" fill="none" style="-webkit-print-color-adjust:exact" viewBox="-199.09 0 41 41"><g style="fill:#000"><g class="fills"><path d="M30.19 0h-20A10.23 10.23 0 0 0 0 10.23v20a10.23 10.23 0 0 0 10.23 10.19h20a10.23 10.23 0 0 0 10.19-10.19v-20A10.23 10.23 0 0 0 30.19 0Z" class="cls-1" style="fill:#2ab20b;fill-opacity:1" transform="translate(-199.09)"/></g><path d="M16.63 11.79v4.44h-5.11V22h5.11v14.44h6.2V21.96h4.65l.89-5.77h-5.54v-3.74c0-1.58.77-3.12 3.26-3.12h2.54V4.41a30.56 30.56 0 0 0-4.47-.39c-4.56 0-7.54 2.77-7.53 7.77z" class="fills" style="fill:#fff;fill-opacity:1" transform="translate(-199.09)"/></g></svg>