<svg xmlns="http://www.w3.org/2000/svg" xml:space="preserve" viewBox="0 0 184.25 29.1"><g fill="#6C0"><path d="M58.04 6.1c-.52.44-1.4.55-5.97 1.34 0 0-.18.02-.9.38-1.06 0-2.8.79-3.31 1.08-.21.12-.48.72-.56 1.83.3.36.46.34.85.34 2.2 0 5.32-1.1 5.7-1.03 1.42.31 2.08 2.5 2.08 3.64 0 .12-.14.82-.17.9-.17.47-1.03.87-2.07.97-4.92.44-7.22.83-7.79 1.23-.11.08-.28.62-.28.92 0 1.16 2.47 1.46 2.88 1.46 1.53 0 2.3-.81 2.85-.81.67 0 2.04 1.62 2.04 3.44 0 1.2-.7 3.14-3.74 3.14-.8 0-4.14-.58-6.55-2.28 0 0 .07-.48-.94-1.2-.33-.58-.96-2.65-.96-4.22 0-3.5 1.73-5.83 1.97-7.19l-1.15-1.59c-.18-.23-.37-.43-.37-1.3 0-2.74 1.79-3.25 1.88-3.25l.62.01s1.32-.6 1.5-.86l.98-.07c.58-.07 7.13-1.76 8.44-1.76 1.04 0 1.45.17 1.86.8.28.43 1.4 2.47 1.4 3.2 0 .17-.15.76-.29.87zM61.29 16.73c-.15.15-.31.7-.35 1.03-.05.41 1.48 1.08 2.87 1.15 4.05.2 3.53-1.66 4.71-1.07.78.38 1.46 2.34 1.46 3.48 0 2.62-2.55 3.36-4.81 3.36-3.1 0-5.89-1.45-5.89-1.45s-2.39-2.97-2.39-5.12c0-4.9 2.61-10.32 2.74-10.57l.35-2.33c.14-1.03.83-1.24 1.42-1.9 1.33-.13 3.68-1.17 11.08-1.97.94-.1 2.1 1.19 2.73 3.15.1.35-.07 1.72-.54 1.86-.28.09-1.02.18-7 .8-1.03.1-2.1.28-2.53.59a6.97 6.97 0 0 0-1.53 2.37c-.13.52.14.8.8.73 3.16-.33 5.29-1.71 5.53-1.71 1.13 0 2.2 1.5 2.51 3.14.19.96-.07 1.76-.38 1.95-.92.6-2.39.98-3.95 1.28-.68.13-1.16.11-1.44.09-.13-.02-.46.21-.65.24-2.28.32-4.34.5-4.74.9zM129.32 3.9c0 1.22-.35 2.03-.8 2.2-1.92.73-8.39 1.65-11.38 2.65-.54.18-1.51 1.8-1.51 2.44 0 .33.37.44.93.36 4.32-.57 5.07-.94 6.87-1.75.3.02.73.06.98.33a4.75 4.75 0 0 1 1.04 3.23c0 .97-.42 2-2.11 2.25-2.24.34-7.37 1.1-8.88 1.28-.75.09-1.19.28-1.26.38-.68.97-.4 3.02 4.2 2.01 1.93-.42 2.32-1.13 3.41-1.13.08 0 .21.01.29.03.94.8 1.15 1.75 1.15 3.04 0 1.55-.66 2.57-2.03 3.27-.11.06-.62.16-.67.17-.06 0-.68.36-.97.44-.8.21-1.42.26-1.72.26-3.16 0-8.19-1.46-8.19-7.3 0-5.3 3.6-9 4.55-12.5 0 0 .25-.25.48-.6.07-.61.61-2.02 1.3-2.1 1.68-.18 6.89-1.3 11.48-2.8a1.1 1.1 0 0 1 1.02.13c.8.57 1.82 2.13 1.82 3.7zM40.53 19.18c-.93-1.06-3.96-2.72-5-3.78.45-.51 2.88-3.93 2.88-6.63 0-3.82-2.77-8.4-6.5-8.4 0 0-1.08.02-2.4.13-.24.37-1.03.28-1.03.28-1.3.6-2.52 1.57-2.52 4.73 0 .57.79 1.15 1.27 1.6a16.61 16.61 0 0 1-.9 3.94c-.18.43-1.38.6-1.38.6l-.64.82c-.41 2.45 0 2.74.85 3.84.12 1.3-.39 3.54-.39 4.81 0 .92.35.82.17 1.76 0 0 .14.16.21.38a2.84 2.84 0 0 0 2.5 1.83c1.09 0 1.55-.82 1.55-1.21 0-1.09-.28-4.41-.25-4.72.09-1.05.52-1.62.52-1.62.72 0 3.9 2.89 6.62 5.66.4.42 1.23.84 1.95.84 1.65 0 2.33-1.86 2.8-2.3.27-.33.3-1.88-.3-2.56zm-9.49-7.36c-.16.09-.63-.08-.69-.14 0 0 .84-4.9.91-5.96 1.18-.33 2.75.32 2.75 1.88 0 1.35-.62 2.96-2.97 4.22zM108.72 1.71l-1.19-.34-.61-.31c-1.6-.31-5.43-.38-6.71-.24-.22.02-1.06-.19-1.43-.27-.96.56-1.8.81-1.8.81-.22 0-.83-.25-.83-.25-.9.07-3.3.64-4.38 1.28a2.9 2.9 0 0 0-1.01 1.21c-.04.09-.19.24-.2 0a4.78 4.78 0 0 0-.12-.65c-.3-1.12-1.68-1.98-2.53-1.98-.34 0-1.06.38-1.12.79-.08.51-.14 2.83-.39 5.08-.02.23-.02 4.46-.45 5.87-.1.02-.4.13-.49-.01-1.06-1.6-3.84-4.37-4.08-6.21-.22-1.7.06-4.36-.81-5.05A6.96 6.96 0 0 0 78.15.7c-.66 0-1.22.29-1.52.71l-.07.51-.48.73c-.15.48-.23 1.3-.28 3.05l.4 2.08s0 .49-.36.9l.1 1.61c0 1.81-1.66 8.03-1.66 9.9 0 4.22 3.69 3.88 3.9 3.7.26-.22.79-1.12.81-1.38.25-2.5.5-6.74 1.18-7.99.14-.25.49-.38.67-.2.59.55 1.24 1.8 1.32 1.92.66.93 2.57 3.24 2.92 5.33.03.17 0 .6.06.92.12.7.42 1.53 1.38 2.33.26.22 1.3.35 2 .23.7-.12 1.98-.26 1.98-3.55 0-2.13-.35-2.99-.32-3.4.03-.41.5-4.31.5-9.74 0 0-.25-.49-.35-.78.13-.47.2-.84.23-1.09.02-.13.09-.23.14-.12a3 3 0 0 0 .14.25c.27.43.9.8 1.63.8 1.17 0 2.7-1.36 3.76-1.11.14.03.3-.23 1.13-.3.02.5.03 1.6-.11 3.13-.06.7-.38.86-1.7.86-.47 0-.77.37-.91.68-.17.38-.5 2.22-.5 2.73 0 1.03 1.14 2.35 2.54 2.73.09.43-.33 3.75-.33 5.42 0 1.68.4 2.43.47 2.5.1.1 1.28.96 2.19.96.68 0 1.45-.39 1.58-.66.08-.16.28-.6.3-1.43.08-3.82.51-7.85 1-8 2.29-.67 4.52-1.53 6.79-3.19 1.17-.85 2.64-2.62 2.64-4.4 0-2.32-1.5-4.93-2.6-5.64zm-6.75 7.65c-.29 0-.47-.09-.55-.32-.27-.85-.39-2.65-.39-3.6 1-.21 5.4.06 5.4 1.19 0 1.02-2.96 2.74-4.46 2.73zM23.65 15.35c0-.68-.66-2.97-1.14-3.51-.62-.69-1.34-.85-2.23-.85-.58 0-10.4 1.51-11.63 2.27-.59.37-.8 1.2-.8 2.41 0 1.7 1.11 2.46 1.43 2.46.72 0 5.7-.97 7.5-1.3.36-.07.5.08.5.23 0 .44-.12.95-.32 1.16a6.11 6.11 0 0 1-2.64 1.55c-1.42-.27-2.6.93-4.03.23-.61 0-1.5.43-1.91-.25-1.43-.32-2.95-.42-4.09-1.36-.43-.4-.54-.9-.54-1.47 0-1.55 2.3-5.5 6.21-9.19.82-.76 3.73-2.9 5.02-2.9.86 0 1.16 1.91 1.84 2.64.17.18.88.2 1.23.05.75-.33 1.34-.74 1.34-1.62 0-1.98-.77-3.58-1.42-4.38a6.4 6.4 0 0 0-3.1-1.33c-1.65 0-2.42.98-3.02 1-2.44 1.5-3.6 2.87-4.1 3.32-.19.17-.43.24-.43.24s-.15.54-.4.89l-.95.62C4.85 7.35 0 13.41 0 15.68c0 2.13 1.41 5.1 1.94 5.58C3.7 22.92 7 24.1 10.71 24.1c2.6 0 5.03-1.03 5.76-1.43.17-.1.3-.09.27.1l-.06.77c-.02.25-.14 1.53-.14 2.39 0 1.5.4 2.28.82 2.68.2.19 1.47.5 2.3.5.4 0 1.7-.61 1.7-1.96 0-.79-.08-1.84-.07-2.1.37-6.73 2.35-8.58 2.35-9.7zM184.13 4.05c-.37-1.63-1.62-3.12-2.69-3.36-.95.22-8.82 1.72-13.98 2.4-.71.1-1.6.13-1.6.13l-.58.3s-1.03.08-1.52.44a4.55 4.55 0 0 0-1.81 2.93l.1 1.35c-1.6 3.18-2.68 5.72-2.68 9.18l.01.22c0 .26-.02.38-.1.32a3.43 3.43 0 0 0-.29-.4c-.61-.7-.82-.8-1.1-.8-.85 0-1.5 1.6-4.35 1.6-2.56 0-7.39-2.7-7.39-4.1 0-3.09 4.12-6.95 7.18-6.95.54 0 .68.15.68.52 0 .61-.46 1.57-.46 2.17 0 1.48 2.22 2.54 3.38 2.54.34 0 2.73-.88 2.73-4.36 0-2.05-1.49-5.42-3.94-5.42-3.08 0-7.7 1.64-10.78 3.8 0 0-.17.37-.44.63-.27.25-1.01.75-1.01.75a13.88 13.88 0 0 0-1.72 3.15c-.13.36-.35.48-.4.27l-.06-.7c-.1-1.31-.22-2.11-.42-3.08 0 0-.34-.93-.43-1.36-.03-.12-.04-.63-.04-.63-.72-2.76-2.41-4.57-2.65-4.66-1.12-.4-1.4-.51-1.88-.2-1.91 1.22-4.15 4.93-7.6 11.3 0 0-.56.62-1.33 1.09.09.97.02 1.49-.06 1.77-.69 2.19-2.68 4.94-2.59 5.5l.11.67-.07.79c0 .5 1.57 2.35 2.88 2.35.11 0 .23-.01.3-.03 1.33-1.17 1.7-3.45 2.88-5.37.13-.2.18-.24.5-.36.75-.29 2.29-.55 2.96-.63.67-.08 1.26.07 1.26.07l.58-.2c.55-.03.85.14.85.58 0 2.16.04 3.92.19 4.57.23 1.04 1.2 1.75 3.1 1.9.2 0 .98-.47 1.22-1.17.38-1.1.14-2.49.14-3.68 0-1.8.06-2.86.1-3.44.05-.2.2-.26.25-.07.19.49.5 1.21.94 1.73 2.37 2.83 6.39 6.13 11.99 6.49 2.23.14 3.88-1 4.74-3.2.19-.47.32-.9.39-1.13.04-.06.13-.04.19.08.11.2.3.5.6.88 1.92 2.42 4.66 3.18 8.1 2.66 3.85-.58 4.37-.98 4.7-1.4.53-.7.74-1.74.81-2.57.06-.62.14-1.35-.39-1.88-.6-.6-2.44 0-4.87.42-3.22.55-4.58-.81-4.54-1.23.03-.25.15-.76.48-.84.32-.08.98.05 1.28.12.12 0 1.91-.34 3.26-.34.5 0 1.07.07 1.27.08 0 0 2.12-.16 3.37-.4.77-.16 1.47-.84 1.54-1.26.18-1.24.04-1.98-.19-2.46-.88-1.83-1.94-2.03-2.16-1.99-1.12.24-3.37.9-6.38.74-.36-.01-.6-.44-.56-.73.1-.78 1.06-2.06 1.97-2.23a143.3 143.3 0 0 1 12.2-1.31c1.65-.09 3.39.42 3.72-.14.38-.65.2-2 .1-2.4zm-47.36 7.45c-.2.38-1.34.66-3.27.7-.09 0-.18-.18-.14-.29.8-1.9 2.35-5.26 2.56-5.28.21-.03.54.08.68.26.4.51.42 4.13.17 4.6z"/></g></svg>