<svg xmlns:xlink="http://www.w3.org/1999/xlink" width="36.902" xmlns="http://www.w3.org/2000/svg" height="26" id="screenshot-2245aef8-c4a4-80fe-8002-c0fa3cb5d1c4" viewBox="0 0 36.902 26" style="-webkit-print-color-adjust: exact;" fill="none" version="1.1"><g id="shape-2245aef8-c4a4-80fe-8002-c0fa3cb5d1c4" rx="0" ry="0" style="fill: rgb(0, 0, 0);"><g id="shape-2245aef8-c4a4-80fe-8002-c0fa3cb5d1c7"><g class="fills" id="fills-2245aef8-c4a4-80fe-8002-c0fa3cb5d1c7"><path rx="0" ry="0" d="M35.224,2.786L1.677,2.786C0.751,2.786,0.000,2.162,0.000,1.393C0.000,0.624,0.751,0.000,1.677,0.000L35.224,0.000C36.151,0.000,36.902,0.624,36.902,1.393C36.902,2.162,36.151,2.786,35.224,2.786ZZ" style="fill: rgb(0, 0, 0); fill-opacity: 1;"/></g></g><g id="shape-2245aef8-c4a4-80fe-8002-c0fa3cb5d1c8"><g class="fills" id="fills-2245aef8-c4a4-80fe-8002-c0fa3cb5d1c8"><path rx="0" ry="0" d="M35.224,14.393L1.677,14.393C0.751,14.393,0.000,13.769,0.000,13.000C0.000,12.231,0.751,11.607,1.677,11.607L35.224,11.607C36.151,11.607,36.902,12.231,36.902,13.000C36.902,13.769,36.151,14.393,35.224,14.393ZZ" style="fill: rgb(0, 0, 0); fill-opacity: 1;"/></g></g><g id="shape-2245aef8-c4a4-80fe-8002-c0fa3cb5d1c9"><g class="fills" id="fills-2245aef8-c4a4-80fe-8002-c0fa3cb5d1c9"><path rx="0" ry="0" d="M35.224,26.000L1.677,26.000C0.751,26.000,0.000,25.376,0.000,24.607C0.000,23.838,0.751,23.214,1.677,23.214L35.224,23.214C36.151,23.214,36.902,23.838,36.902,24.607C36.902,25.376,36.151,26.000,35.224,26.000ZZ" style="fill: rgb(0, 0, 0); fill-opacity: 1;"/></g></g></g></svg>