<svg xmlns="http://www.w3.org/2000/svg" id="screenshot-471d1b56-7c24-80ba-8002-caf9a74069cd" width="365" height="343.77" fill="none" style="-webkit-print-color-adjust:exact" version="1.1" viewBox="0 -18.88 365 343.77"><g xml:space="preserve" id="shape-471d1b56-7c24-80ba-8002-caf9a74069cd" style="fill:#000" transform="translate(1.54 -18.45)"><g id="shape-471d1b56-7c24-80ba-8002-caf9a740f958"><style id="style5705" type="text/css">.st0{fill:#004b00}</style></g><g id="shape-471d1b56-7c24-80ba-8002-caf9a7411ee2" style="fill:#000"><g id="shape-471d1b56-7c24-80ba-8002-caf9a7419916"><g id="fills-471d1b56-7c24-80ba-8002-caf9a7419916" class="fills"><rect id="rect5708" width="9" height="2" x="67.6" y="23.8" class="st0" rx="0" ry="0"/></g></g><g id="shape-471d1b56-7c24-80ba-8002-caf9a7423569"><g id="fills-471d1b56-7c24-80ba-8002-caf9a7423569" class="fills"><rect id="rect5712" width="9" height="2" x="81.6" y="23.8" class="st0" rx="0" ry="0"/></g></g><g id="shape-471d1b56-7c24-80ba-8002-caf9a7425dcf"><g id="fills-471d1b56-7c24-80ba-8002-caf9a7425dcf" class="fills"><rect id="rect5716" width="9" height="2" x="164.3" y="318.1" class="st0" rx="0" ry="0"/></g></g><g id="shape-471d1b56-7c24-80ba-8002-caf9a7425dd0"><g id="fills-471d1b56-7c24-80ba-8002-caf9a7425dd0" class="fills"><rect id="rect5720" width="9" height="2" x="80.3" y="318.1" class="st0" rx="0" ry="0"/></g></g><g id="shape-471d1b56-7c24-80ba-8002-caf9a7429ebd"><g id="fills-471d1b56-7c24-80ba-8002-caf9a7429ebd" class="fills"><rect id="rect5724" width="9" height="2" x="66.3" y="318.1" class="st0" rx="0" ry="0"/></g></g><g id="shape-471d1b56-7c24-80ba-8002-caf9a742c8a1"><g id="fills-471d1b56-7c24-80ba-8002-caf9a742c8a1" class="fills"><path id="path5728" d="m28.7 37.9 1.5 1.3c2-2.2 4.2-4.1 6.6-5.8l-1.2-1.6c-2.5 1.8-4.8 3.8-6.9 6.1z" class="st0"/></g></g><g id="shape-471d1b56-7c24-80ba-8002-caf9a74330e7"><g id="fills-471d1b56-7c24-80ba-8002-caf9a74330e7" class="fills"><path id="path5732" d="M38.9 314.2c2.7 1.6 5.5 2.8 8.4 3.8l.6-1.9c-2.8-.9-5.5-2.1-8-3.6z" class="st0"/></g></g><g id="shape-471d1b56-7c24-80ba-8002-caf9a743623d"><g id="fills-471d1b56-7c24-80ba-8002-caf9a743623d" class="fills"><path id="path5736" d="m52.6 317.3-.4 2c2.8.5 5.6.8 8.5.8h.7v-2h-.7c-2.8 0-5.5-.3-8.1-.8z" class="st0"/></g></g><g id="shape-471d1b56-7c24-80ba-8002-caf9a74399b7"><g id="fills-471d1b56-7c24-80ba-8002-caf9a74399b7" class="fills"><path id="path5740" d="m49 27.5-.6-1.9c-2.9.9-5.8 2.1-8.5 3.5l1 1.8c2.6-1.5 5.3-2.6 8.1-3.4z" class="st0"/></g></g><g id="shape-471d1b56-7c24-80ba-8002-caf9a743c29d"><g id="fills-471d1b56-7c24-80ba-8002-caf9a743c29d" class="fills"><rect id="rect5744" width="9" height="2" x="123.6" y="23.8" class="st0" rx="0" ry="0"/></g></g><g id="shape-471d1b56-7c24-80ba-8002-caf9a743c29e"><g id="fills-471d1b56-7c24-80ba-8002-caf9a743c29e" class="fills"><rect id="rect5748" width="9" height="2" x="137.6" y="23.8" class="st0" rx="0" ry="0"/></g></g><g id="shape-471d1b56-7c24-80ba-8002-caf9a74437b7"><g id="fills-471d1b56-7c24-80ba-8002-caf9a74437b7" class="fills"><rect id="rect5752" width="9" height="2" x="136.3" y="318.1" class="st0" rx="0" ry="0"/></g></g><g id="shape-471d1b56-7c24-80ba-8002-caf9a744498a"><g id="fills-471d1b56-7c24-80ba-8002-caf9a744498a" class="fills"><rect id="rect5756" width="9" height="2" x="150.3" y="318.1" class="st0" rx="0" ry="0"/></g></g><g id="shape-471d1b56-7c24-80ba-8002-caf9a744498b"><g id="fills-471d1b56-7c24-80ba-8002-caf9a744498b" class="fills"><path id="path5760" d="m29.4 303.7-1.5 1.3c2 2.3 4.3 4.4 6.7 6.3l1.2-1.6a36.2 36.2 0 0 1-6.4-6z" class="st0"/></g></g><g id="shape-471d1b56-7c24-80ba-8002-caf9a74484be"><g id="fills-471d1b56-7c24-80ba-8002-caf9a74484be" class="fills"><rect id="rect5764" width="9" height="2" x="151.6" y="23.8" class="st0" rx="0" ry="0"/></g></g><g id="shape-471d1b56-7c24-80ba-8002-caf9a744f6fb"><g id="fills-471d1b56-7c24-80ba-8002-caf9a744f6fb" class="fills"><rect id="rect5768" width="9" height="2" x="108.3" y="318.1" class="st0" rx="0" ry="0"/></g></g><g id="shape-471d1b56-7c24-80ba-8002-caf9a744f6fc"><g id="fills-471d1b56-7c24-80ba-8002-caf9a744f6fc" class="fills"><rect id="rect5772" width="9" height="2" x="95.6" y="23.8" class="st0" rx="0" ry="0"/></g></g><g id="shape-471d1b56-7c24-80ba-8002-caf9a7452679"><g id="fills-471d1b56-7c24-80ba-8002-caf9a7452679" class="fills"><rect id="rect5776" width="9" height="2" x="94.3" y="318.1" class="st0" rx="0" ry="0"/></g></g><g id="shape-471d1b56-7c24-80ba-8002-caf9a745267a"><g id="fills-471d1b56-7c24-80ba-8002-caf9a745267a" class="fills"><rect id="rect5780" width="9" height="2" x="109.6" y="23.8" class="st0" rx="0" ry="0"/></g></g><g id="shape-471d1b56-7c24-80ba-8002-caf9a74573e7"><g id="fills-471d1b56-7c24-80ba-8002-caf9a74573e7" class="fills"><rect id="rect5784" width="9" height="2" x="122.3" y="318.1" class="st0" rx="0" ry="0"/></g></g><g id="shape-471d1b56-7c24-80ba-8002-caf9a745a5cd"><g id="fills-471d1b56-7c24-80ba-8002-caf9a745a5cd" class="fills"><path id="path5788" d="M60.7 25.8h1.9v-2h-1.9c-2.4 0-4.8.2-7.2.6l.3 2c2.2-.4 4.5-.6 6.9-.6Z" class="st0"/></g></g><g id="shape-471d1b56-7c24-80ba-8002-caf9a745a5ce"><g id="fills-471d1b56-7c24-80ba-8002-caf9a745a5ce" class="fills"><rect id="rect5792" width="2" height="9" x="17.5" y="124.8" class="st0" rx="0" ry="0"/></g></g><g id="shape-471d1b56-7c24-80ba-8002-caf9a745f55b"><g id="fills-471d1b56-7c24-80ba-8002-caf9a745f55b" class="fills"><rect id="rect5796" width="2" height="9" x="17.5" y="110.8" class="st0" rx="0" ry="0"/></g></g><g id="shape-471d1b56-7c24-80ba-8002-caf9a74632fd"><g id="fills-471d1b56-7c24-80ba-8002-caf9a74632fd" class="fills"><rect id="rect5800" width="2" height="9" x="17.5" y="96.8" class="st0" rx="0" ry="0"/></g></g><g id="shape-471d1b56-7c24-80ba-8002-caf9a74661f3"><g id="fills-471d1b56-7c24-80ba-8002-caf9a74661f3" class="fills"><rect id="rect5804" width="2" height="9" x="17.5" y="138.8" class="st0" rx="0" ry="0"/></g></g><g id="shape-471d1b56-7c24-80ba-8002-caf9a74661f4"><g id="fills-471d1b56-7c24-80ba-8002-caf9a74661f4" class="fills"><rect id="rect5808" width="2" height="9" x="17.5" y="152.8" class="st0" rx="0" ry="0"/></g></g><g id="shape-471d1b56-7c24-80ba-8002-caf9a74690c8"><g id="fills-471d1b56-7c24-80ba-8002-caf9a74690c8" class="fills"><path id="path5812" d="m21 49.9 1.8.8c1.2-2.7 2.6-5.3 4.3-7.6l-1.6-1.2c-1.8 2.5-3.3 5.2-4.5 8z" class="st0"/></g></g><g id="shape-471d1b56-7c24-80ba-8002-caf9a746d15e"><g id="fills-471d1b56-7c24-80ba-8002-caf9a746d15e" class="fills"><rect id="rect5816" width="2" height="9" x="17.5" y="166.8" class="st0" rx="0" ry="0"/></g></g><g id="shape-471d1b56-7c24-80ba-8002-caf9a746d15f"><g id="fills-471d1b56-7c24-80ba-8002-caf9a746d15f" class="fills"><path id="path5820" d="m21.2 55.3-1.9-.6c-.9 2.9-1.4 6-1.6 9l2 .1c.1-2.8.7-5.7 1.5-8.5z" class="st0"/></g></g><g id="shape-471d1b56-7c24-80ba-8002-caf9a74715c9"><g id="fills-471d1b56-7c24-80ba-8002-caf9a74715c9" class="fills"><path id="path5824" d="M341.5 57.8c-.6-3-1.6-5.9-2.9-8.7l-1.8.8c1.2 2.7 2.1 5.5 2.8 8.3z" class="st0"/></g></g><g id="shape-471d1b56-7c24-80ba-8002-caf9a7477bab"><g id="fills-471d1b56-7c24-80ba-8002-caf9a7477bab" class="fills"><rect id="rect5828" width="2" height="9" x="17.5" y="68.8" class="st0" rx="0" ry="0"/></g></g><g id="shape-471d1b56-7c24-80ba-8002-caf9a7477bac"><g id="fills-471d1b56-7c24-80ba-8002-caf9a7477bac" class="fills"><rect id="rect5832" width="2" height="9" x="17.5" y="82.8" class="st0" rx="0" ry="0"/></g></g><g id="shape-471d1b56-7c24-80ba-8002-caf9a74791d6"><g id="fills-471d1b56-7c24-80ba-8002-caf9a74791d6" class="fills"><rect id="rect5836" width="2" height="9" x="17.5" y="250.8" class="st0" rx="0" ry="0"/></g></g><g id="shape-471d1b56-7c24-80ba-8002-caf9a747c08b"><g id="fills-471d1b56-7c24-80ba-8002-caf9a747c08b" class="fills"><rect id="rect5840" width="2" height="9" x="17.5" y="180.8" class="st0" rx="0" ry="0"/></g></g><g id="shape-471d1b56-7c24-80ba-8002-caf9a747c08c"><g id="fills-471d1b56-7c24-80ba-8002-caf9a747c08c" class="fills"><path id="path5844" d="m19.5 278.8-2 .1c.1 3.1.6 6.1 1.4 9.1l1.9-.5c-.7-2.9-1.1-5.8-1.3-8.7z" class="st0"/></g></g><g id="shape-471d1b56-7c24-80ba-8002-caf9a7481e3c"><g id="fills-471d1b56-7c24-80ba-8002-caf9a7481e3c" class="fills"><path id="path5848" d="M20.5 292.8c1.1 2.8 2.6 5.6 4.3 8.1l1.7-1.1c-1.6-2.4-3-5-4.1-7.8z" class="st0"/></g></g><g id="shape-471d1b56-7c24-80ba-8002-caf9a7485b42"><g id="fills-471d1b56-7c24-80ba-8002-caf9a7485b42" class="fills"><rect id="rect5852" width="2" height="9" x="17.5" y="264.8" class="st0" rx="0" ry="0"/></g></g><g id="shape-471d1b56-7c24-80ba-8002-caf9a7485b43"><g id="fills-471d1b56-7c24-80ba-8002-caf9a7485b43" class="fills"><rect id="rect5856" width="2" height="9" x="17.5" y="208.8" class="st0" rx="0" ry="0"/></g></g><g id="shape-471d1b56-7c24-80ba-8002-caf9a7488255"><g id="fills-471d1b56-7c24-80ba-8002-caf9a7488255" class="fills"><rect id="rect5860" width="2" height="9" x="17.5" y="194.8" class="st0" rx="0" ry="0"/></g></g><g id="shape-471d1b56-7c24-80ba-8002-caf9a7488256"><g id="fills-471d1b56-7c24-80ba-8002-caf9a7488256" class="fills"><rect id="rect5864" width="2" height="9" x="17.5" y="236.8" class="st0" rx="0" ry="0"/></g></g><g id="shape-471d1b56-7c24-80ba-8002-caf9a748cb5b"><g id="fills-471d1b56-7c24-80ba-8002-caf9a748cb5b" class="fills"><rect id="rect5868" width="2" height="9" x="17.5" y="222.8" class="st0" rx="0" ry="0"/></g></g><g id="shape-471d1b56-7c24-80ba-8002-caf9a748cb5c"><g id="fills-471d1b56-7c24-80ba-8002-caf9a748cb5c" class="fills"><rect id="rect5872" width="9" height="2" x="262.3" y="318.1" class="st0" rx="0" ry="0"/></g></g><g id="shape-471d1b56-7c24-80ba-8002-caf9a7491654"><g id="fills-471d1b56-7c24-80ba-8002-caf9a7491654" class="fills"><rect id="rect5876" width="2" height="9" x="340.5" y="245" class="st0" rx="0" ry="0"/></g></g><g id="shape-471d1b56-7c24-80ba-8002-caf9a749548e"><g id="fills-471d1b56-7c24-80ba-8002-caf9a749548e" class="fills"><rect id="rect5880" width="2" height="9" x="340.5" y="259" class="st0" rx="0" ry="0"/></g></g><g id="shape-471d1b56-7c24-80ba-8002-caf9a749548f"><g id="fills-471d1b56-7c24-80ba-8002-caf9a749548f" class="fills"><rect id="rect5884" width="2" height="9" x="340.5" y="189" class="st0" rx="0" ry="0"/></g></g><g id="shape-471d1b56-7c24-80ba-8002-caf9a749b0bb"><g id="fills-471d1b56-7c24-80ba-8002-caf9a749b0bb" class="fills"><rect id="rect5888" width="2" height="9" x="340.5" y="217" class="st0" rx="0" ry="0"/></g></g><g id="shape-471d1b56-7c24-80ba-8002-caf9a749e27b"><g id="fills-471d1b56-7c24-80ba-8002-caf9a749e27b" class="fills"><rect id="rect5892" width="2" height="9" x="340.5" y="203" class="st0" rx="0" ry="0"/></g></g><g id="shape-471d1b56-7c24-80ba-8002-caf9a749e27c"><g id="fills-471d1b56-7c24-80ba-8002-caf9a749e27c" class="fills"><rect id="rect5896" width="2" height="9" x="340.5" y="231" class="st0" rx="0" ry="0"/></g></g><g id="shape-471d1b56-7c24-80ba-8002-caf9a74a24a4"><g id="fills-471d1b56-7c24-80ba-8002-caf9a74a24a4" class="fills"><path id="path5900" d="m328.5 306 1.4 1.4c2.2-2.2 4.1-4.6 5.8-7.2l-1.7-1.1c-1.6 2.5-3.4 4.8-5.5 6.9z" class="st0"/></g></g><g id="shape-471d1b56-7c24-80ba-8002-caf9a74a4033"><g id="fills-471d1b56-7c24-80ba-8002-caf9a74a4033" class="fills"><path id="path5904" d="M340.5 276.9c0 1.6-.1 3.3-.3 4.9l2 .2c.2-1.7.3-3.4.3-5.2V273h-2z" class="st0"/></g></g><g id="shape-471d1b56-7c24-80ba-8002-caf9a74aac33"><g id="fills-471d1b56-7c24-80ba-8002-caf9a74aac33" class="fills"><path id="path5908" d="M329.2 38.7c2 2.1 3.8 4.5 5.3 7l1.7-1a44.2 44.2 0 0 0-5.6-7.3z" class="st0"/></g></g><g id="shape-471d1b56-7c24-80ba-8002-caf9a74ad400"><g id="fills-471d1b56-7c24-80ba-8002-caf9a74ad400" class="fills"><path id="path5912" d="m336.4 294.9 1.8.9c1.3-2.8 2.4-5.7 3.1-8.7l-1.9-.5c-.7 2.9-1.7 5.7-3 8.3z" class="st0"/></g></g><g id="shape-471d1b56-7c24-80ba-8002-caf9a74b0741"><g id="fills-471d1b56-7c24-80ba-8002-caf9a74b0741" class="fills"><rect id="rect5916" width="9" height="2" x="165.6" y="23.8" class="st0" rx="0" ry="0"/></g></g><g id="shape-471d1b56-7c24-80ba-8002-caf9a74b54d6"><g id="fills-471d1b56-7c24-80ba-8002-caf9a74b54d6" class="fills"><rect id="rect5920" width="2" height="9" x="340.5" y="77" class="st0" rx="0" ry="0"/></g></g><g id="shape-471d1b56-7c24-80ba-8002-caf9a74b54d7"><g id="fills-471d1b56-7c24-80ba-8002-caf9a74b54d7" class="fills"><rect id="rect5924" width="2" height="9" x="340.5" y="105" class="st0" rx="0" ry="0"/></g></g><g id="shape-471d1b56-7c24-80ba-8002-caf9a74ba276"><g id="fills-471d1b56-7c24-80ba-8002-caf9a74ba276" class="fills"><rect id="rect5928" width="2" height="9" x="340.5" y="91" class="st0" rx="0" ry="0"/></g></g><g id="shape-471d1b56-7c24-80ba-8002-caf9a74bfa80"><g id="fills-471d1b56-7c24-80ba-8002-caf9a74bfa80" class="fills"><path id="path5932" d="m342.3 62.9-2 .2c.1 1.3.2 2.6.2 3.9v5h2v-5c0-1.4-.1-2.8-.2-4.1z" class="st0"/></g></g><g id="shape-471d1b56-7c24-80ba-8002-caf9a74bfa81"><g id="fills-471d1b56-7c24-80ba-8002-caf9a74bfa81" class="fills"><rect id="rect5936" width="2" height="9" x="340.5" y="147" class="st0" rx="0" ry="0"/></g></g><g id="shape-471d1b56-7c24-80ba-8002-caf9a74c1038"><g id="fills-471d1b56-7c24-80ba-8002-caf9a74c1038" class="fills"><rect id="rect5940" width="2" height="9" x="340.5" y="175" class="st0" rx="0" ry="0"/></g></g><g id="shape-471d1b56-7c24-80ba-8002-caf9a74c7769"><g id="fills-471d1b56-7c24-80ba-8002-caf9a74c7769" class="fills"><path id="path5944" d="M318.4 30.5c2.6 1.4 5 3 7.3 4.9l1.3-1.5c-2.4-2-4.9-3.7-7.7-5.1z" class="st0"/></g></g><g id="shape-471d1b56-7c24-80ba-8002-caf9a74c776a"><g id="fills-471d1b56-7c24-80ba-8002-caf9a74c776a" class="fills"><rect id="rect5948" width="2" height="9" x="340.5" y="161" class="st0" rx="0" ry="0"/></g></g><g id="shape-471d1b56-7c24-80ba-8002-caf9a74caa94"><g id="fills-471d1b56-7c24-80ba-8002-caf9a74caa94" class="fills"><rect id="rect5952" width="2" height="9" x="340.5" y="133" class="st0" rx="0" ry="0"/></g></g><g id="shape-471d1b56-7c24-80ba-8002-caf9a74caa95"><g id="fills-471d1b56-7c24-80ba-8002-caf9a74caa95" class="fills"><rect id="rect5956" width="2" height="9" x="340.5" y="119" class="st0" rx="0" ry="0"/></g></g><g id="shape-471d1b56-7c24-80ba-8002-caf9a74cd200"><g id="fills-471d1b56-7c24-80ba-8002-caf9a74cd200" class="fills"><rect id="rect5960" width="9" height="2" x="220.3" y="318.1" class="st0" rx="0" ry="0"/></g></g><g id="shape-471d1b56-7c24-80ba-8002-caf9a74cd201"><g id="fills-471d1b56-7c24-80ba-8002-caf9a74cd201" class="fills"><rect id="rect5964" width="9" height="2" x="207.6" y="23.8" class="st0" rx="0" ry="0"/></g></g><g id="shape-471d1b56-7c24-80ba-8002-caf9a74d1b60"><g id="fills-471d1b56-7c24-80ba-8002-caf9a74d1b60" class="fills"><rect id="rect5968" width="9" height="2" x="206.3" y="318.1" class="st0" rx="0" ry="0"/></g></g><g id="shape-471d1b56-7c24-80ba-8002-caf9a74d46b6"><g id="fills-471d1b56-7c24-80ba-8002-caf9a74d46b6" class="fills"><rect id="rect5972" width="9" height="2" x="234.3" y="318.1" class="st0" rx="0" ry="0"/></g></g><g id="shape-471d1b56-7c24-80ba-8002-caf9a74d46b7"><g id="fills-471d1b56-7c24-80ba-8002-caf9a74d46b7" class="fills"><rect id="rect5976" width="9" height="2" x="235.6" y="23.8" class="st0" rx="0" ry="0"/></g></g><g id="shape-471d1b56-7c24-80ba-8002-caf9a74dabc8"><g id="fills-471d1b56-7c24-80ba-8002-caf9a74dabc8" class="fills"><rect id="rect5980" width="9" height="2" x="221.6" y="23.8" class="st0" rx="0" ry="0"/></g></g><g id="shape-471d1b56-7c24-80ba-8002-caf9a74dc5bd"><g id="fills-471d1b56-7c24-80ba-8002-caf9a74dc5bd" class="fills"><rect id="rect5984" width="9" height="2" x="178.3" y="318.1" class="st0" rx="0" ry="0"/></g></g><g id="shape-471d1b56-7c24-80ba-8002-caf9a74e33bd"><g id="fills-471d1b56-7c24-80ba-8002-caf9a74e33bd" class="fills"><rect id="rect5988" width="9" height="2" x="193.6" y="23.8" class="st0" rx="0" ry="0"/></g></g><g id="shape-471d1b56-7c24-80ba-8002-caf9a74e33be"><g id="fills-471d1b56-7c24-80ba-8002-caf9a74e33be" class="fills"><rect id="rect5992" width="9" height="2" x="179.6" y="23.8" class="st0" rx="0" ry="0"/></g></g><g id="shape-471d1b56-7c24-80ba-8002-caf9a74e4aa6"><g id="fills-471d1b56-7c24-80ba-8002-caf9a74e4aa6" class="fills"><rect id="rect5996" width="9" height="2" x="192.3" y="318.1" class="st0" rx="0" ry="0"/></g></g><g id="shape-471d1b56-7c24-80ba-8002-caf9a74e4aa7"><g id="fills-471d1b56-7c24-80ba-8002-caf9a74e4aa7" class="fills"><path id="path6000" d="m304.4 317.8.2 2c3-.4 6.1-1.1 9-2.1l-.7-1.9c-2.7 1-5.6 1.6-8.5 2z" class="st0"/></g></g><g id="shape-471d1b56-7c24-80ba-8002-caf9a74e9cc8"><g id="fills-471d1b56-7c24-80ba-8002-caf9a74e9cc8" class="fills"><rect id="rect6004" width="9" height="2" x="248.3" y="318.1" class="st0" rx="0" ry="0"/></g></g><g id="shape-471d1b56-7c24-80ba-8002-caf9a74e9cc9"><g id="fills-471d1b56-7c24-80ba-8002-caf9a74e9cc9" class="fills"><path id="path6008" d="m317.4 313.9.9 1.8c2.8-1.3 5.4-3 7.8-4.9l-1.2-1.6a42.6 42.6 0 0 1-7.5 4.7z" class="st0"/></g></g><g id="shape-471d1b56-7c24-80ba-8002-caf9a74ed900"><g id="fills-471d1b56-7c24-80ba-8002-caf9a74ed900" class="fills"><path id="path6012" d="m300.6 25.8.1-2h-9.1v2h9z" class="st0"/></g></g><g id="shape-471d1b56-7c24-80ba-8002-caf9a74f0e4c"><g id="fills-471d1b56-7c24-80ba-8002-caf9a74f0e4c" class="fills"><path id="path6016" d="M314.6 26.6c-2.9-1.1-5.9-1.9-8.9-2.3l-.3 2c2.9.4 5.8 1.2 8.5 2.2z" class="st0"/></g></g><g id="shape-471d1b56-7c24-80ba-8002-caf9a74f0e4d"><g id="fills-471d1b56-7c24-80ba-8002-caf9a74f0e4d" class="fills"><rect id="rect6020" width="9.2" height="2" x="290.3" y="318.1" class="st0" rx="0" ry="0"/></g></g><g id="shape-471d1b56-7c24-80ba-8002-caf9a74f5328"><g id="fills-471d1b56-7c24-80ba-8002-caf9a74f5328" class="fills"><rect id="rect6024" width="9" height="2" x="263.6" y="23.8" class="st0" rx="0" ry="0"/></g></g><g id="shape-471d1b56-7c24-80ba-8002-caf9a74f5329"><g id="fills-471d1b56-7c24-80ba-8002-caf9a74f5329" class="fills"><rect id="rect6028" width="9" height="2" x="277.6" y="23.8" class="st0" rx="0" ry="0"/></g></g><g id="shape-471d1b56-7c24-80ba-8002-caf9a74fab64"><g id="fills-471d1b56-7c24-80ba-8002-caf9a74fab64" class="fills"><rect id="rect6032" width="9" height="2" x="249.6" y="23.8" class="st0" rx="0" ry="0"/></g></g><g id="shape-471d1b56-7c24-80ba-8002-caf9a74fab65"><g id="fills-471d1b56-7c24-80ba-8002-caf9a74fab65" class="fills"><rect id="rect6036" width="9" height="2" x="276.3" y="318.1" class="st0" rx="0" ry="0"/></g></g><g id="shape-471d1b56-7c24-80ba-8002-caf9a7502107"><g id="fills-471d1b56-7c24-80ba-8002-caf9a7502107" class="fills"><path id="path6040" d="M170.3 53.2c-4.9-.6-9.5.7-12.5 3.6-7.5 7.4-6.4 17.8 2.9 27.2l2.1-2.1c-8-8.2-9.1-16.8-2.9-23 2.3-2.2 6-3.2 10-2.7 4.8.6 9.3 3.3 11.6 7l.7 1.1 1.2-.5c3.4-1.4 6.4-1.5 8.9-.4 2.2 1.1 3.8 3.2 4.6 6.3l.5 1.7 1.6-.7c2.6-1.1 5.7-.5 8.3 1.6 2.2 1.8 4.2 5.1 3.9 9.1-.1-.1-.3-.2-.4-.2-2.4-1.2-5.4-1.3-8.5-.2-2.5-3.3-6.5-5.5-10.9-6-4.2-.5-8 .6-10.6 3-6.3 6.3-5.4 15.1 2.4 23l2.1-2.1c-6.6-6.7-7.5-13.7-2.4-18.7 1.9-1.8 4.8-2.6 8.1-2.2 3.9.5 7.6 2.7 9.5 5.7l.7 1.1 1.2-.5c2.7-1.1 5.2-1.3 7.2-.3 1.8.9 3 2.6 3.7 5.1l.5 1.7 1.6-.7c2.1-.9 4.6-.4 6.6 1.3 2 1.7 3.8 4.9 2.9 8.7l2.9.7c1-4.3-.5-8.8-3.9-11.7-2.5-2.1-5.4-2.9-8.2-2.3-.4-1.1-1-2.1-1.7-3 1.2-5-.6-10.3-4.6-13.7-3-2.5-6.5-3.4-9.8-2.6-1.2-3.1-3.1-5.4-5.7-6.7-2.9-1.4-6.4-1.5-10.2-.2-3.3-4.1-8.1-6.8-13.4-7.4z" class="st0"/></g></g><g id="shape-471d1b56-7c24-80ba-8002-caf9a750677d"><g id="fills-471d1b56-7c24-80ba-8002-caf9a750677d" class="fills"><rect id="rect6044" width="2.4" height="23.5" x="87.4" y="38.2" class="st0" rx="0" ry="0"/></g></g><g id="shape-471d1b56-7c24-80ba-8002-caf9a750ce48"><g id="fills-471d1b56-7c24-80ba-8002-caf9a750ce48" class="fills"><path id="path6048" d="M73.1 90c1.4 1.9 3.1 3.5 5.2 4.8l-10.7 14.6 2 1.4 10.9-14.9c2.1.9 4.5 1.4 7 1.5v36.8h2.4v-37c2.3-.3 4.4-1 6.3-2.1l32.9 57 2.1-1.2-33-57.2c1.5-1.2 2.9-2.6 4-4.2l44.5 25.7 1.2-2.1-44.5-25.7c1-2 1.6-4.2 1.8-6.6h40.3v-2.4h-40.3c-.2-2.4-.8-4.6-1.8-6.6l26-15-1.2-2.1-26 15c-1.1-1.6-2.4-3-4-4.2l11.4-19.7-2.1-1.2-11.3 19.5a17.72 17.72 0 0 0-15.6-.9l-7.4-12.9-2.2 1.2 7.4 12.8c-2.1 1.2-3.9 2.9-5.3 4.8l-30-18.8-1.3 2.1 30 18.8c-1.2 2.2-1.9 4.6-2.1 7.2H46.4v2.4h23.4c.2 2.6.9 5 2 7.1l-33.7 19.5 1.2 2.1zm14.4-25.8a15.3 15.3 0 1 1-15.3 15.3c-.1-8.4 6.8-15.3 15.3-15.3Z" class="st0"/></g></g><g id="shape-471d1b56-7c24-80ba-8002-caf9a7511c70"><g id="fills-471d1b56-7c24-80ba-8002-caf9a7511c70" class="fills"><rect id="rect6052" width="4" height="13.8" x="231.8" y="217.6" class="st0" rx="0" ry="0"/></g></g><g id="shape-471d1b56-7c24-80ba-8002-caf9a7511c71"><g id="fills-471d1b56-7c24-80ba-8002-caf9a7511c71" class="fills"><rect id="rect6056" width="4" height="13.8" x="212.5" y="217.6" class="st0" rx="0" ry="0"/></g></g><g id="shape-471d1b56-7c24-80ba-8002-caf9a751759f"><g id="fills-471d1b56-7c24-80ba-8002-caf9a751759f" class="fills"><rect id="rect6060" width="4" height="13.8" x="211.5" y="186.3" class="st0" rx="0" ry="0"/></g></g><g id="shape-471d1b56-7c24-80ba-8002-caf9a751b2ed"><g id="fills-471d1b56-7c24-80ba-8002-caf9a751b2ed" class="fills"><rect id="rect6064" width="4" height="13.8" x="231.8" y="186.3" class="st0" rx="0" ry="0"/></g></g><g id="shape-471d1b56-7c24-80ba-8002-caf9a751b2ee"><g id="fills-471d1b56-7c24-80ba-8002-caf9a751b2ee" class="fills"><rect id="rect6068" width="3.1" height="11.7" x="134.7" y="258.2" class="st0" rx="0" ry="0"/></g></g><g id="shape-471d1b56-7c24-80ba-8002-caf9a751e638"><g id="fills-471d1b56-7c24-80ba-8002-caf9a751e638" class="fills"><rect id="rect6072" width="3.1" height="11.7" x="156.7" y="258.2" class="st0" rx="0" ry="0"/></g></g><g id="shape-471d1b56-7c24-80ba-8002-caf9a751e639"><g id="fills-471d1b56-7c24-80ba-8002-caf9a751e639" class="fills"><rect id="rect6076" width="4" height="13.5" x="285.9" y="207.8" class="st0" rx="0" ry="0"/></g></g><g id="shape-471d1b56-7c24-80ba-8002-caf9a7523646"><g id="fills-471d1b56-7c24-80ba-8002-caf9a7523646" class="fills"><rect id="rect6080" width="4" height="13.5" x="305.5" y="207.8" class="st0" rx="0" ry="0"/></g></g><g id="shape-471d1b56-7c24-80ba-8002-caf9a7523647"><g id="fills-471d1b56-7c24-80ba-8002-caf9a7523647" class="fills"><rect id="rect6084" width="4" height="13.5" x="285.9" y="236.7" class="st0" rx="0" ry="0"/></g></g><g id="shape-471d1b56-7c24-80ba-8002-caf9a7526949"><g id="fills-471d1b56-7c24-80ba-8002-caf9a7526949" class="fills"><rect id="rect6088" width="4" height="13.5" x="305.5" y="236.7" class="st0" rx="0" ry="0"/></g></g><g id="shape-471d1b56-7c24-80ba-8002-caf9a7545f63"><g id="fills-471d1b56-7c24-80ba-8002-caf9a7545f63" class="fills"><path id="path6092" d="M306.2 296.8h17.2V175.4l-17.7 9.1v-5.7l7.6-3.7-4.2-8.6-34.6 17.1 4.2 8.6 4.7-2.3v6.2l-11.5 5.9v91.9H250v-23.7l4.6-6.2-2.4-1.8-2.2 3v-2.7h-3v2.5l-1.9-2.7-2.5 1.7 4.4 6.2v13.3c-3.8-1.4-11.8-5.6-10.1-15.5.5-2.9 1.4-4.5 2.2-6 1.3-2.4 2.5-4.7 1.8-10.9-.1-3.1.5-5.4 1.9-6.8 1.6-1.7 4-2 5.7-2 1.7 0 4.1.3 5.7 2 1.4 1.5 2 3.8 1.9 6.8-.7 6.3.4 8.5 1.8 11 .8 1.5 1.6 3 2.2 5.8 1.6 7.7-5.4 12.7-5.7 12.9-.7.5-.9 1.4-.4 2.1.5.7 1.4.8 2.1.4.4-.3 9-6.3 6.9-16-.7-3.2-1.7-5.1-2.5-6.6-1.2-2.3-2.1-3.9-1.4-9.3v-.1c.2-3.9-.8-7-2.8-9.1a9.67 9.67 0 0 0-5.6-2.8v-62.9h2.1c2.5 0 4.5-2 4.5-4.5v-7.6c0-2.5-2-4.5-4.5-4.5h-24.1v-7.8h18.4c.4 0 .8-.2 1-.5.3-.3.3-.7.2-1.1l-7.4-27.6c-.2-.6-.7-1-1.3-1h-34.4c-.6 0-1.1.4-1.3 1l-7.4 27.6c-.1.4 0 .8.2 1.1.2.3.6.5 1 .5h18.4v7.8h-23c-2.5 0-4.5 2-4.5 4.5v7.6c0 2.5 2 4.5 4.5 4.5h3.3v117.3h-20.6v-43.3l7.9 4.7 1.5-2.6-38.2-22.9-7.1 4.2V229l7.6-3.7-4.2-8.6-34.6 17.1 4.2 8.6 4.7-2.3v7.1h.1l-8.9 5.3 1.5 2.6 7.5-4.5v43.1l-37 .4V182.2l.4-1.7c.7-.4 1.3-1 1.8-1.6l36.2 2.6.5-8.1-32.2-8.7-6.9 1.6c-1-.5-2-.9-3.2-1l-18.1-31.5-7.1 4.1L63 169.4l5.2 4.8c.1.8.3 1.6.6 2.4l-19.3 30.7 6.9 4.3 15.1-16.1v101.6h3V192.4l3.1-3.3v108.1l43-.4v-47.9l18.6-11.1h.4v-.3l7.1-4.3 26.1 15.4v45.1h-25.9v3H291zm-218.5-129 29 7.9-.2 2.7-31.7-2.4c.9-2.6.3-4.8-.5-6.3l-.6-.9s-.1-.1-.1-.2zm-7.2 1.9.1.1c.9 1 1.5 2.3 1.5 3.7 0 2.1-1.3 4-3.1 4.8-.1.1-.3.1-.5.2-.1 0-.1 0-.2.1-.2.1-.4.1-.6.2-.3.1-.6.1-.9.1-2.9 0-5.3-2.4-5.3-5.3 0-.3 0-.6.1-.9v-.2c.5-2.4 2.6-4.1 5.2-4.1 1.4-.2 2.7.4 3.7 1.3zm-11.5.9-3.1-2.8-9.7-28.5 2.3-1.4 15.8 27.6c-3 .8-4.6 3-5.3 5.1zm7.8 15.3-20.6 22-2.3-1.4 16.9-26.9c1.9 2 4.1 2.5 5.8 2.5.3 0 .6 0 1-.1H77.9zm35.9 49.3 29.2-14.4 1.6 3.2-29.2 14.4zm7.9 3.4 16.3-8.1v5.2l-16.3 9.7zm95.3-89.1.6-6.6h12.3l.6 6.6zM204 133.7h10.6l-.6 6.6h-11.8zm13.3 0H228l.6 6.6h-11.8zm.2-2.6.6-6.6h9l.6 6.6zm25.5 9.2h-11.8l-.6-6.6h10.6zm-11 9.2-.6-6.6h12.3l1.7 6.6zm8.5-18.4h-10.2l-.6-6.6h9zm-34.1-6.6h9l-.6 6.6h-10.2zm-4.9 18.4h12.3l-.6 6.6h-13.4zm17.5 9.2h7v7.8h-7zm-25.6 21.4c-.8 0-1.5-.7-1.5-1.5v-7.6c0-.8.7-1.5 1.5-1.5h59.4c.8 0 1.5.7 1.5 1.5v7.6c0 .8-.7 1.5-1.5 1.5h-56.2zm6.3 3h48.1v62.8c-3 .1-5.4 1.1-7.1 2.9-2 2.1-2.9 5.1-2.8 9.1v.1c.6 5.3-.3 6.9-1.5 9.2-.9 1.6-1.9 3.5-2.5 6.9-2.3 12.9 9.3 17.9 13 19.2v7.2h-47.3V176.5Zm94.5 117.3v-19.3h8.9v19.3zm-15.7-108.9 29.2-14.4 1.6 3.2-29.2 14.4zm7.9 3.4 16.3-8.1v5.8l-16.3 8.4zm-11.5 105.5v-90l45.5-23.4v113.4h-14.2v-22.3h-14.9v22.3z" class="st0"/></g></g></g></g></svg>