<svg xmlns="http://www.w3.org/2000/svg" id="screenshot-316d8937-66ad-809d-8002-c11874896264" width="360" height="346" fill="none" style="-webkit-print-color-adjust:exact" version="1.1"><g xml:space="preserve" id="shape-316d8937-66ad-809d-8002-c11874896264" style="fill:#000" transform="translate(4)"><g id="shape-316d8937-66ad-809d-8002-c118748afdcc"><style id="style4595" type="text/css">.st0{fill:#004b00}</style></g><g id="shape-316d8937-66ad-809d-8002-c118748bf5cc" style="fill:#000"><g id="shape-316d8937-66ad-809d-8002-c118748dbece"><g id="fills-316d8937-66ad-809d-8002-c118748dbece" class="fills"><path id="path4598" d="m54.99 107.74 2.05-2.05c-7.8-8-8.88-16.38-2.83-22.43 2.24-2.14 5.85-3.12 9.75-2.63 4.68.59 9.07 3.22 11.31 6.83l.68 1.07 1.17-.49c3.32-1.36 6.24-1.46 8.68-.39 2.15 1.08 3.7 3.12 4.49 6.15l.48 1.65 1.56-.68c2.54-1.07 5.56-.49 8.1 1.56a10.59 10.59 0 0 1 3.8 8.87c-.1-.1-.3-.2-.4-.2-2.33-1.16-5.26-1.26-8.28-.19a15.54 15.54 0 0 0-10.63-5.85c-4.1-.48-7.8.59-10.33 2.93-6.15 6.14-5.27 14.72 2.34 22.42l2.04-2.04c-6.43-6.54-7.3-13.36-2.34-18.24 1.86-1.75 4.68-2.53 7.9-2.14 3.8.49 7.41 2.63 9.26 5.56l.69 1.07 1.17-.49c2.63-1.07 5.07-1.27 7.02-.3 1.75.89 2.92 2.54 3.6 4.98l.5 1.66 1.55-.68c2.05-.88 4.49-.4 6.44 1.26a8.58 8.58 0 0 1 2.82 8.49l2.83.68c.98-4.2-.49-8.58-3.8-11.41-2.44-2.05-5.27-2.83-8-2.24a10.8 10.8 0 0 0-1.65-2.93 13.47 13.47 0 0 0-4.49-13.35c-2.92-2.44-6.33-3.32-9.55-2.54-1.17-3.02-3.03-5.27-5.56-6.53-2.83-1.37-6.24-1.47-9.94-.2-2.83-3.8-7.51-6.43-12.78-7.11-4.77-.59-9.26.68-12.19 3.5-7.5 7.12-6.43 17.26 2.54 26.43Z" class="st0"/></g></g><g id="shape-316d8937-66ad-809d-8002-c118748e8003"><g id="fills-316d8937-66ad-809d-8002-c118748e8003" class="fills"><rect id="rect4602" width="8.77" height="1.95" x="65.91" y="23.69" class="st0" rx="0" ry="0"/></g></g><g id="shape-316d8937-66ad-809d-8002-c118748f2f48"><g id="fills-316d8937-66ad-809d-8002-c118748f2f48" class="fills"><rect id="rect4606" width="8.77" height="1.95" x="79.56" y="23.69" class="st0" rx="0" ry="0"/></g></g><g id="shape-316d8937-66ad-809d-8002-c118748f9743"><g id="fills-316d8937-66ad-809d-8002-c118748f9743" class="fills"><rect id="rect4610" width="8.77" height="1.95" x="160.19" y="310.54" class="st0" rx="0" ry="0"/></g></g><g id="shape-316d8937-66ad-809d-8002-c1187490194d"><g id="fills-316d8937-66ad-809d-8002-c1187490194d" class="fills"><rect id="rect4614" width="8.77" height="1.95" x="78.29" y="310.54" class="st0" rx="0" ry="0"/></g></g><g id="shape-316d8937-66ad-809d-8002-c11874909055"><g id="fills-316d8937-66ad-809d-8002-c11874909055" class="fills"><rect id="rect4618" width="8.77" height="1.95" x="64.64" y="310.54" class="st0" rx="0" ry="0"/></g></g><g id="shape-316d8937-66ad-809d-8002-c1187491186e"><g id="fills-316d8937-66ad-809d-8002-c1187491186e" class="fills"><path id="path4622" d="m35.88 33.05-1.17-1.56a43.1 43.1 0 0 0-6.73 5.95l1.47 1.27c1.95-2.15 4.09-4 6.43-5.66z" class="st0"/></g></g><g id="shape-316d8937-66ad-809d-8002-c1187491efe7"><g id="fills-316d8937-66ad-809d-8002-c1187491efe7" class="fills"><path id="path4626" d="M37.93 306.74a44.02 44.02 0 0 0 8.19 3.7l.58-1.85a37.49 37.49 0 0 1-7.8-3.51z" class="st0"/></g></g><g id="shape-316d8937-66ad-809d-8002-c118749270c1"><g id="fills-316d8937-66ad-809d-8002-c118749270c1" class="fills"><path id="path4630" d="m51.28 309.76-.39 1.95c2.73.48 5.46.78 8.3.78h.67v-1.95h-.68c-2.73 0-5.36-.2-7.9-.78z" class="st0"/></g></g><g id="shape-316d8937-66ad-809d-8002-c11874933a4a"><g id="fills-316d8937-66ad-809d-8002-c11874933a4a" class="fills"><path id="path4634" d="m47.77 27.2-.58-1.85a51.15 51.15 0 0 0-8.29 3.41l.98 1.76a46.6 46.6 0 0 1 7.9-3.32z" class="st0"/></g></g><g id="shape-316d8937-66ad-809d-8002-c1187493ba76"><g id="fills-316d8937-66ad-809d-8002-c1187493ba76" class="fills"><rect id="rect4638" width="8.77" height="1.95" x="120.51" y="23.69" class="st0" rx="0" ry="0"/></g></g><g id="shape-316d8937-66ad-809d-8002-c118749444d5"><g id="fills-316d8937-66ad-809d-8002-c118749444d5" class="fills"><rect id="rect4642" width="8.77" height="1.95" x="134.16" y="23.69" class="st0" rx="0" ry="0"/></g></g><g id="shape-316d8937-66ad-809d-8002-c1187494f1b2"><g id="fills-316d8937-66ad-809d-8002-c1187494f1b2" class="fills"><rect id="rect4646" width="8.77" height="1.95" x="132.89" y="310.54" class="st0" rx="0" ry="0"/></g></g><g id="shape-316d8937-66ad-809d-8002-c1187495825a"><g id="fills-316d8937-66ad-809d-8002-c1187495825a" class="fills"><rect id="rect4650" width="8.77" height="1.95" x="146.54" y="310.54" class="st0" rx="0" ry="0"/></g></g><g id="shape-316d8937-66ad-809d-8002-c11874962805"><g id="fills-316d8937-66ad-809d-8002-c11874962805" class="fills"><path id="path4654" d="m28.66 296.6-1.46 1.26a48.65 48.65 0 0 0 6.54 6.14l1.16-1.56a44.29 44.29 0 0 1-6.23-5.85z" class="st0"/></g></g><g id="shape-316d8937-66ad-809d-8002-c1187496ce7c"><g id="fills-316d8937-66ad-809d-8002-c1187496ce7c" class="fills"><rect id="rect4658" width="8.77" height="1.95" x="147.81" y="23.69" class="st0" rx="0" ry="0"/></g></g><g id="shape-316d8937-66ad-809d-8002-c1187497755d"><g id="fills-316d8937-66ad-809d-8002-c1187497755d" class="fills"><rect id="rect4662" width="8.77" height="1.95" x="105.59" y="310.54" class="st0" rx="0" ry="0"/></g></g><g id="shape-316d8937-66ad-809d-8002-c1187497df1a"><g id="fills-316d8937-66ad-809d-8002-c1187497df1a" class="fills"><rect id="rect4666" width="8.77" height="1.95" x="93.21" y="23.69" class="st0" rx="0" ry="0"/></g></g><g id="shape-316d8937-66ad-809d-8002-c11874987bbf"><g id="fills-316d8937-66ad-809d-8002-c11874987bbf" class="fills"><rect id="rect4670" width="8.77" height="1.95" x="91.94" y="310.54" class="st0" rx="0" ry="0"/></g></g><g id="shape-316d8937-66ad-809d-8002-c11874992ca6"><g id="fills-316d8937-66ad-809d-8002-c11874992ca6" class="fills"><rect id="rect4674" width="8.77" height="1.95" x="106.86" y="23.69" class="st0" rx="0" ry="0"/></g></g><g id="shape-316d8937-66ad-809d-8002-c11874999ddb"><g id="fills-316d8937-66ad-809d-8002-c11874999ddb" class="fills"><rect id="rect4678" width="8.77" height="1.95" x="119.24" y="310.54" class="st0" rx="0" ry="0"/></g></g><g id="shape-316d8937-66ad-809d-8002-c118749a6f7d"><g id="fills-316d8937-66ad-809d-8002-c118749a6f7d" class="fills"><path id="path4682" d="M59.18 25.64h1.86V23.7h-1.86c-2.34 0-4.68.2-7.02.59l.3 1.95c2.14-.4 4.38-.59 6.72-.59z" class="st0"/></g></g><g id="shape-316d8937-66ad-809d-8002-c118749ae87d"><g id="fills-316d8937-66ad-809d-8002-c118749ae87d" class="fills"><rect id="rect4686" width="1.95" height="8.77" x="17.06" y="122.17" class="st0" rx="0" ry="0"/></g></g><g id="shape-316d8937-66ad-809d-8002-c118749b7391"><g id="fills-316d8937-66ad-809d-8002-c118749b7391" class="fills"><rect id="rect4690" width="1.95" height="8.77" x="17.06" y="108.52" class="st0" rx="0" ry="0"/></g></g><g id="shape-316d8937-66ad-809d-8002-c118749bfc05"><g id="fills-316d8937-66ad-809d-8002-c118749bfc05" class="fills"><rect id="rect4694" width="1.95" height="8.77" x="17.06" y="94.87" class="st0" rx="0" ry="0"/></g></g><g id="shape-316d8937-66ad-809d-8002-c118749c5633"><g id="fills-316d8937-66ad-809d-8002-c118749c5633" class="fills"><rect id="rect4698" width="1.95" height="8.77" x="17.06" y="135.82" class="st0" rx="0" ry="0"/></g></g><g id="shape-316d8937-66ad-809d-8002-c118749cd3b0"><g id="fills-316d8937-66ad-809d-8002-c118749cd3b0" class="fills"><rect id="rect4702" width="1.95" height="8.77" x="17.06" y="149.47" class="st0" rx="0" ry="0"/></g></g><g id="shape-316d8937-66ad-809d-8002-c118749d8c3e"><g id="fills-316d8937-66ad-809d-8002-c118749d8c3e" class="fills"><path id="path4706" d="m26.52 42.41-1.56-1.17a40.98 40.98 0 0 0-4.39 7.8l1.76.78a37.07 37.07 0 0 1 4.19-7.4Z" class="st0"/></g></g><g id="shape-316d8937-66ad-809d-8002-c118749e17d5"><g id="fills-316d8937-66ad-809d-8002-c118749e17d5" class="fills"><rect id="rect4710" width="1.95" height="8.77" x="17.06" y="163.12" class="st0" rx="0" ry="0"/></g></g><g id="shape-316d8937-66ad-809d-8002-c118749e8416"><g id="fills-316d8937-66ad-809d-8002-c118749e8416" class="fills"><path id="path4714" d="m20.67 54.3-1.85-.58a38.63 38.63 0 0 0-1.56 8.78l1.95.1c.1-2.74.68-5.56 1.46-8.3z" class="st0"/></g></g><g id="shape-316d8937-66ad-809d-8002-c118749f05dc"><g id="fills-316d8937-66ad-809d-8002-c118749f05dc" class="fills"><path id="path4718" d="M332.96 56.84a37.7 37.7 0 0 0-2.82-8.48l-1.76.78a49.37 49.37 0 0 1 2.73 8.1z" class="st0"/></g></g><g id="shape-316d8937-66ad-809d-8002-c118749fdf66"><g id="fills-316d8937-66ad-809d-8002-c118749fdf66" class="fills"><rect id="rect4722" width="1.95" height="8.77" x="17.06" y="67.57" class="st0" rx="0" ry="0"/></g></g><g id="shape-316d8937-66ad-809d-8002-c11874a01bbf"><g id="fills-316d8937-66ad-809d-8002-c11874a01bbf" class="fills"><rect id="rect4726" width="1.95" height="8.77" x="17.06" y="81.22" class="st0" rx="0" ry="0"/></g></g><g id="shape-316d8937-66ad-809d-8002-c11874a084db"><g id="fills-316d8937-66ad-809d-8002-c11874a084db" class="fills"><rect id="rect4730" width="1.95" height="8.77" x="17.06" y="245.02" class="st0" rx="0" ry="0"/></g></g><g id="shape-316d8937-66ad-809d-8002-c11874a136aa"><g id="fills-316d8937-66ad-809d-8002-c11874a136aa" class="fills"><rect id="rect4734" width="1.95" height="8.77" x="17.06" y="176.77" class="st0" rx="0" ry="0"/></g></g><g id="shape-316d8937-66ad-809d-8002-c11874a19ff9"><g id="fills-316d8937-66ad-809d-8002-c11874a19ff9" class="fills"><path id="path4738" d="m19.01 272.22-1.95.1c.1 3.02.59 5.95 1.37 8.87l1.85-.49a48.04 48.04 0 0 1-1.27-8.48z" class="st0"/></g></g><g id="shape-316d8937-66ad-809d-8002-c11874a23332"><g id="fills-316d8937-66ad-809d-8002-c11874a23332" class="fills"><path id="path4742" d="M19.99 285.97a40.87 40.87 0 0 0 4.19 7.9l1.66-1.08a40.22 40.22 0 0 1-4-7.6z" class="st0"/></g></g><g id="shape-316d8937-66ad-809d-8002-c11874a2b00f"><g id="fills-316d8937-66ad-809d-8002-c11874a2b00f" class="fills"><rect id="rect4746" width="1.95" height="8.77" x="17.06" y="258.67" class="st0" rx="0" ry="0"/></g></g><g id="shape-316d8937-66ad-809d-8002-c11874a323c8"><g id="fills-316d8937-66ad-809d-8002-c11874a323c8" class="fills"><rect id="rect4750" width="1.95" height="8.77" x="17.06" y="204.07" class="st0" rx="0" ry="0"/></g></g><g id="shape-316d8937-66ad-809d-8002-c11874a386bf"><g id="fills-316d8937-66ad-809d-8002-c11874a386bf" class="fills"><rect id="rect4754" width="1.95" height="8.77" x="17.06" y="190.42" class="st0" rx="0" ry="0"/></g></g><g id="shape-316d8937-66ad-809d-8002-c11874a3f200"><g id="fills-316d8937-66ad-809d-8002-c11874a3f200" class="fills"><rect id="rect4758" width="1.95" height="8.77" x="17.06" y="231.37" class="st0" rx="0" ry="0"/></g></g><g id="shape-316d8937-66ad-809d-8002-c11874a44e17"><g id="fills-316d8937-66ad-809d-8002-c11874a44e17" class="fills"><rect id="rect4762" width="1.95" height="8.77" x="17.06" y="217.72" class="st0" rx="0" ry="0"/></g></g><g id="shape-316d8937-66ad-809d-8002-c11874a4daa7"><g id="fills-316d8937-66ad-809d-8002-c11874a4daa7" class="fills"><rect id="rect4766" width="8.77" height="1.95" x="255.74" y="310.54" class="st0" rx="0" ry="0"/></g></g><g id="shape-316d8937-66ad-809d-8002-c11874a56e3a"><g id="fills-316d8937-66ad-809d-8002-c11874a56e3a" class="fills"><rect id="rect4770" width="1.95" height="8.77" x="331.99" y="239.26" class="st0" rx="0" ry="0"/></g></g><g id="shape-316d8937-66ad-809d-8002-c11874a5c720"><g id="fills-316d8937-66ad-809d-8002-c11874a5c720" class="fills"><rect id="rect4774" width="1.95" height="8.77" x="331.99" y="252.91" class="st0" rx="0" ry="0"/></g></g><g id="shape-316d8937-66ad-809d-8002-c11874a631a5"><g id="fills-316d8937-66ad-809d-8002-c11874a631a5" class="fills"><rect id="rect4778" width="1.95" height="8.77" x="331.99" y="184.66" class="st0" rx="0" ry="0"/></g></g><g id="shape-316d8937-66ad-809d-8002-c11874a6a7fb"><g id="fills-316d8937-66ad-809d-8002-c11874a6a7fb" class="fills"><rect id="rect4782" width="1.95" height="8.77" x="331.99" y="211.97" class="st0" rx="0" ry="0"/></g></g><g id="shape-316d8937-66ad-809d-8002-c11874a707fc"><g id="fills-316d8937-66ad-809d-8002-c11874a707fc" class="fills"><rect id="rect4786" width="1.95" height="8.77" x="331.99" y="198.31" class="st0" rx="0" ry="0"/></g></g><g id="shape-316d8937-66ad-809d-8002-c11874a74b68"><g id="fills-316d8937-66ad-809d-8002-c11874a74b68" class="fills"><rect id="rect4790" width="1.95" height="8.77" x="331.99" y="225.62" class="st0" rx="0" ry="0"/></g></g><g id="shape-316d8937-66ad-809d-8002-c11874a7edca"><g id="fills-316d8937-66ad-809d-8002-c11874a7edca" class="fills"><path id="path4794" d="m320.29 298.74 1.36 1.36c2.15-2.14 4-4.48 5.66-7.02l-1.66-1.07a33.22 33.22 0 0 1-5.36 6.73z" class="st0"/></g></g><g id="shape-316d8937-66ad-809d-8002-c11874a858d2"><g id="fills-316d8937-66ad-809d-8002-c11874a858d2" class="fills"><path id="path4798" d="M331.99 270.46c0 1.56-.1 3.22-.3 4.78l1.96.2c.19-1.66.29-3.32.29-5.07v-3.8h-1.95z" class="st0"/></g></g><g id="shape-316d8937-66ad-809d-8002-c11874a8e28a"><g id="fills-316d8937-66ad-809d-8002-c11874a8e28a" class="fills"><path id="path4802" d="M320.97 38.12a39.27 39.27 0 0 1 5.17 6.83l1.66-.98a43.12 43.12 0 0 0-5.46-7.11z" class="st0"/></g></g><g id="shape-316d8937-66ad-809d-8002-c11874a9bf14"><g id="fills-316d8937-66ad-809d-8002-c11874a9bf14" class="fills"><path id="path4806" d="m327.99 287.92 1.75.87a43.95 43.95 0 0 0 3.03-8.48l-1.85-.49a38.11 38.11 0 0 1-2.93 8.1z" class="st0"/></g></g><g id="shape-316d8937-66ad-809d-8002-c11874aa0c03"><g id="fills-316d8937-66ad-809d-8002-c11874aa0c03" class="fills"><rect id="rect4810" width="8.77" height="1.95" x="161.46" y="23.69" class="st0" rx="0" ry="0"/></g></g><g id="shape-316d8937-66ad-809d-8002-c11874aa7b14"><g id="fills-316d8937-66ad-809d-8002-c11874aa7b14" class="fills"><rect id="rect4814" width="1.95" height="8.77" x="331.99" y="75.46" class="st0" rx="0" ry="0"/></g></g><g id="shape-316d8937-66ad-809d-8002-c11874aadee5"><g id="fills-316d8937-66ad-809d-8002-c11874aadee5" class="fills"><rect id="rect4818" width="1.95" height="8.77" x="331.99" y="102.77" class="st0" rx="0" ry="0"/></g></g><g id="shape-316d8937-66ad-809d-8002-c11874ab0b97"><g id="fills-316d8937-66ad-809d-8002-c11874ab0b97" class="fills"><rect id="rect4822" width="1.95" height="8.77" x="331.99" y="89.11" class="st0" rx="0" ry="0"/></g></g><g id="shape-316d8937-66ad-809d-8002-c11874aba747"><g id="fills-316d8937-66ad-809d-8002-c11874aba747" class="fills"><path id="path4826" d="m333.74 61.72-1.95.2c.1 1.26.2 2.53.2 3.8v4.87h1.95v-4.88c0-1.26-.1-2.63-.2-4z" class="st0"/></g></g><g id="shape-316d8937-66ad-809d-8002-c11874ac395a"><g id="fills-316d8937-66ad-809d-8002-c11874ac395a" class="fills"><rect id="rect4830" width="1.95" height="8.77" x="331.99" y="143.72" class="st0" rx="0" ry="0"/></g></g><g id="shape-316d8937-66ad-809d-8002-c11874ac8b2f"><g id="fills-316d8937-66ad-809d-8002-c11874ac8b2f" class="fills"><rect id="rect4834" width="1.95" height="8.77" x="331.99" y="171.01" class="st0" rx="0" ry="0"/></g></g><g id="shape-316d8937-66ad-809d-8002-c11874ad0d6b"><g id="fills-316d8937-66ad-809d-8002-c11874ad0d6b" class="fills"><path id="path4838" d="M318.73 33.34a38.62 38.62 0 0 0-7.51-4.97l-.88 1.76a43.26 43.26 0 0 1 7.12 4.78z" class="st0"/></g></g><g id="shape-316d8937-66ad-809d-8002-c11874ad80ea"><g id="fills-316d8937-66ad-809d-8002-c11874ad80ea" class="fills"><rect id="rect4842" width="1.95" height="8.77" x="331.99" y="157.37" class="st0" rx="0" ry="0"/></g></g><g id="shape-316d8937-66ad-809d-8002-c11874adeeb9"><g id="fills-316d8937-66ad-809d-8002-c11874adeeb9" class="fills"><rect id="rect4846" width="1.95" height="8.77" x="331.99" y="130.06" class="st0" rx="0" ry="0"/></g></g><g id="shape-316d8937-66ad-809d-8002-c11874ae6105"><g id="fills-316d8937-66ad-809d-8002-c11874ae6105" class="fills"><rect id="rect4850" width="1.95" height="8.77" x="331.99" y="116.42" class="st0" rx="0" ry="0"/></g></g><g id="shape-316d8937-66ad-809d-8002-c11874aee3d1"><g id="fills-316d8937-66ad-809d-8002-c11874aee3d1" class="fills"><rect id="rect4854" width="8.77" height="1.95" x="214.79" y="310.54" class="st0" rx="0" ry="0"/></g></g><g id="shape-316d8937-66ad-809d-8002-c11874af19d9"><g id="fills-316d8937-66ad-809d-8002-c11874af19d9" class="fills"><rect id="rect4858" width="8.77" height="1.95" x="202.41" y="23.69" class="st0" rx="0" ry="0"/></g></g><g id="shape-316d8937-66ad-809d-8002-c11874afa7d9"><g id="fills-316d8937-66ad-809d-8002-c11874afa7d9" class="fills"><rect id="rect4862" width="8.77" height="1.95" x="201.14" y="310.54" class="st0" rx="0" ry="0"/></g></g><g id="shape-316d8937-66ad-809d-8002-c11874b00c92"><g id="fills-316d8937-66ad-809d-8002-c11874b00c92" class="fills"><rect id="rect4866" width="8.77" height="1.95" x="228.44" y="310.54" class="st0" rx="0" ry="0"/></g></g><g id="shape-316d8937-66ad-809d-8002-c11874b070d7"><g id="fills-316d8937-66ad-809d-8002-c11874b070d7" class="fills"><rect id="rect4870" width="8.77" height="1.95" x="229.71" y="23.69" class="st0" rx="0" ry="0"/></g></g><g id="shape-316d8937-66ad-809d-8002-c11874b0c066"><g id="fills-316d8937-66ad-809d-8002-c11874b0c066" class="fills"><rect id="rect4874" width="8.77" height="1.95" x="216.06" y="23.69" class="st0" rx="0" ry="0"/></g></g><g id="shape-316d8937-66ad-809d-8002-c11874b14fb7"><g id="fills-316d8937-66ad-809d-8002-c11874b14fb7" class="fills"><rect id="rect4878" width="8.77" height="1.95" x="173.84" y="310.54" class="st0" rx="0" ry="0"/></g></g><g id="shape-316d8937-66ad-809d-8002-c11874b1ef47"><g id="fills-316d8937-66ad-809d-8002-c11874b1ef47" class="fills"><rect id="rect4882" width="8.77" height="1.95" x="188.76" y="23.69" class="st0" rx="0" ry="0"/></g></g><g id="shape-316d8937-66ad-809d-8002-c11874b273d2"><g id="fills-316d8937-66ad-809d-8002-c11874b273d2" class="fills"><rect id="rect4886" width="8.77" height="1.95" x="175.11" y="23.69" class="st0" rx="0" ry="0"/></g></g><g id="shape-316d8937-66ad-809d-8002-c11874b2b07f"><g id="fills-316d8937-66ad-809d-8002-c11874b2b07f" class="fills"><rect id="rect4890" width="8.77" height="1.95" x="187.49" y="310.54" class="st0" rx="0" ry="0"/></g></g><g id="shape-316d8937-66ad-809d-8002-c11874b317e6"><g id="fills-316d8937-66ad-809d-8002-c11874b317e6" class="fills"><path id="path4894" d="m296.79 310.25.2 1.95a45.92 45.92 0 0 0 8.77-2.05l-.68-1.86a34.2 34.2 0 0 1-8.29 1.95z" class="st0"/></g></g><g id="shape-316d8937-66ad-809d-8002-c11874b3801c"><g id="fills-316d8937-66ad-809d-8002-c11874b3801c" class="fills"><rect id="rect4898" width="8.77" height="1.95" x="242.09" y="310.54" class="st0" rx="0" ry="0"/></g></g><g id="shape-316d8937-66ad-809d-8002-c11874b42ca9"><g id="fills-316d8937-66ad-809d-8002-c11874b42ca9" class="fills"><path id="path4902" d="m309.46 306.44.88 1.76a38.34 38.34 0 0 0 7.6-4.78l-1.16-1.56a36.47 36.47 0 0 1-7.31 4.58z" class="st0"/></g></g><g id="shape-316d8937-66ad-809d-8002-c11874b4fcf2"><g id="fills-316d8937-66ad-809d-8002-c11874b4fcf2" class="fills"><path id="path4906" d="m293.08 25.64.1-1.95h-8.87v1.95h8.77z" class="st0"/></g></g><g id="shape-316d8937-66ad-809d-8002-c11874b57724"><g id="fills-316d8937-66ad-809d-8002-c11874b57724" class="fills"><path id="path4910" d="M306.74 26.32a39.21 39.21 0 0 0-8.68-2.24l-.3 1.95c2.83.4 5.66 1.17 8.3 2.15z" class="st0"/></g></g><g id="shape-316d8937-66ad-809d-8002-c11874b5bb3a"><g id="fills-316d8937-66ad-809d-8002-c11874b5bb3a" class="fills"><rect id="rect4914" width="8.97" height="1.95" x="283.04" y="310.54" class="st0" rx="0" ry="0"/></g></g><g id="shape-316d8937-66ad-809d-8002-c11874b60027"><g id="fills-316d8937-66ad-809d-8002-c11874b60027" class="fills"><rect id="rect4918" width="8.77" height="1.95" x="257.01" y="23.69" class="st0" rx="0" ry="0"/></g></g><g id="shape-316d8937-66ad-809d-8002-c11874b6aa87"><g id="fills-316d8937-66ad-809d-8002-c11874b6aa87" class="fills"><rect id="rect4922" width="8.77" height="1.95" x="270.66" y="23.69" class="st0" rx="0" ry="0"/></g></g><g id="shape-316d8937-66ad-809d-8002-c11874b727e3"><g id="fills-316d8937-66ad-809d-8002-c11874b727e3" class="fills"><rect id="rect4926" width="8.77" height="1.95" x="243.36" y="23.69" class="st0" rx="0" ry="0"/></g></g><g id="shape-316d8937-66ad-809d-8002-c11874b743c7"><g id="fills-316d8937-66ad-809d-8002-c11874b743c7" class="fills"><rect id="rect4930" width="8.77" height="1.95" x="269.39" y="310.54" class="st0" rx="0" ry="0"/></g></g><g id="shape-316d8937-66ad-809d-8002-c11874b861ce"><g id="fills-316d8937-66ad-809d-8002-c11874b861ce" class="fills"><path id="path4934" d="M86.68 202.5c.2.6.78.89 1.36.89h44.56c.39 0 .78-.2 1.07-.5l22.82-23.49c.39-.39.48-1.07.29-1.56-.2-.58-.78-.88-1.36-.88h-44.56c-.4 0-.78.2-1.08.49l-22.81 23.5c-.39.39-.49.97-.3 1.56zm30.9-15.2h11.51l-4.58 4.77H113zm-8.67 4.77h-9.27l4.68-4.77h9.17zm11.4-7.7 4.2-4.48H136l-4.19 4.48zm12.78 2.93h11.7l-4.68 4.77h-11.6Zm-11.41 7.7-5.17 5.46h-11.5l5.17-5.46zm10.34 5.46H120.5l5.17-5.46h11.6zm15.7-16.09h-11.8l4.19-4.48H152zM111.53 180h8.97l-4.2 4.48h-9.06ZM96.82 195h9.26l-5.17 5.46h-9.46z" class="st0"/></g></g><g id="shape-316d8937-66ad-809d-8002-c11874b952dd"><g id="fills-316d8937-66ad-809d-8002-c11874b952dd" class="fills"><path id="path4938" d="M156.39 202.5c.2.6.78.89 1.36.89h44.56c.4 0 .78-.2 1.07-.5l22.82-23.49c.39-.39.49-1.07.3-1.56-.2-.49-.79-.88-1.37-.88h-44.56c-.39 0-.78.2-1.07.49l-22.82 23.5c-.49.39-.58.97-.29 1.56zm30.81-15.2h11.5l-4.58 4.77h-11.5zm-8.68 4.77h-9.26l4.68-4.77h9.16zm11.41-7.7 4.2-4.48h11.6l-4.2 4.48zm12.77 2.93h11.7l-4.68 4.77h-11.6Zm-11.3 7.7-5.18 5.46h-11.6l5.17-5.46Zm10.23 5.46h-11.4l5.16-5.46h11.5zm15.7-16.09h-11.8l4.2-4.48h11.89zM181.15 180h8.97l-4.19 4.48h-9.07zM166.43 195h9.26l-5.16 5.46h-9.46z" class="st0"/></g></g><g id="shape-316d8937-66ad-809d-8002-c11874ba6a9a"><g id="fills-316d8937-66ad-809d-8002-c11874ba6a9a" class="fills"><path id="path4942" d="M126.94 209.72c-.19-.58-.78-.87-1.36-.87H81.02c-.39 0-.78.19-1.07.48l-22.82 23.5a1.53 1.53 0 0 0-.29 1.56c.2.59.78.88 1.37.88h44.55c.4 0 .78-.2 1.08-.49l22.81-23.5c.4-.39.49-.97.3-1.56zm-31.98 13.85h-11.5l4.39-4.58h11.5zm8.49-4.68h11.7l-4.49 4.58h-11.6Zm-11.22 7.6-5.55 5.85h-11.6l5.55-5.85zm-12.77-2.92H70.2l4.49-4.58h9.16zm11.22-7.6 4-4.2h11.5l-4 4.2zm-9.07-4.2h9.07l-4 4.2H77.6Zm-14.24 14.72h9.26l-5.55 5.85h-9.46Zm34.71 5.85h-11.4l5.55-5.85h11.6zm15.9-16.38h-11.7l4-4.19h11.89z" class="st0"/></g></g><g id="shape-316d8937-66ad-809d-8002-c11874bb491e"><g id="fills-316d8937-66ad-809d-8002-c11874bb491e" class="fills"><path id="path4946" d="M195.2 208.84h-44.56c-.4 0-.78.2-1.07.5l-22.82 23.4a1.53 1.53 0 0 0-.3 1.55c.2.59.79.88 1.37.88h44.56c.39 0 .78-.2 1.07-.49l22.82-23.5c.39-.39.48-1.07.29-1.56-.2-.48-.78-.78-1.36-.78zm-30.52 14.73h-11.6l4.38-4.58h11.5zm8.38-4.68h11.7l-4.48 4.58h-11.6zm-11.21 7.6-5.56 5.85h-11.5l5.56-5.85zm-12.77-2.92h-9.27l4.49-4.59h9.16zm11.21-7.6 4-4.2h11.5l-4 4.2zm-8.97-4.2h8.97l-4 4.2h-9.06zm-14.33 14.72h9.26l-5.56 5.85h-9.45zm34.8 5.85h-11.5l5.56-5.85h11.6zm15.9-16.38h-11.8l4-4.19h11.9z" class="st0"/></g></g><g id="shape-316d8937-66ad-809d-8002-c11874bc451a"><g id="fills-316d8937-66ad-809d-8002-c11874bc451a" class="fills"><path id="path4950" d="m204.85 103.64-30.91 20.67 1.66 2.44 30.9-20.67a18.57 18.57 0 0 0 4.78 4.39l-13.45 22.62 2.53 1.46 13.55-22.72a20.21 20.21 0 0 0 7.22 1.85l-.2 30.81h2.93l.2-30.8c2.43-.2 4.67-.88 6.72-1.86l25.06 42.12 2.53-1.46-25.05-42.12a20.71 20.71 0 0 0 4.97-4.68l71.57 36.66 1.36-2.63-71.37-36.57a19.1 19.1 0 0 0 2.15-6.92l78.1 4.39.19-2.93-78.2-4.38c-.1-2.54-.58-5.07-1.65-7.32l45.63-27.49-1.47-2.53-45.53 27.4a16.62 16.62 0 0 0-2.24-2.93A21.3 21.3 0 0 0 234.1 78l19.4-32.08-2.53-1.56-19.4 31.98a19.65 19.65 0 0 0-7.13-2.24l.98-42.51-2.92-.1-.98 42.61c-2.54.1-4.97.58-7.21 1.66L196.27 42.9l-2.54 1.36 17.94 32.77a34.82 34.82 0 0 0-3.02 2.24 19.12 19.12 0 0 0-3.9 4.97l-57.33-37.15-1.56 2.44 57.72 37.34c-.68 1.95-1.17 4-1.27 6.14v1.95h-71.17v2.93h71.56c.4 2.05 1.17 4 2.15 5.75zm5.85-22.23a16.73 16.73 0 0 1 11.5-4.48h.69c4.48.2 8.67 2.14 11.8 5.46a16.65 16.65 0 0 1 4.48 12.18 17.05 17.05 0 0 1-17.65 16.29 16.8 16.8 0 0 1-13.46-7.6 17.44 17.44 0 0 1-2.82-10.05c.2-4.49 2.14-8.68 5.46-11.8z" class="st0"/></g></g><g id="shape-316d8937-66ad-809d-8002-c11874bd1427"><g id="fills-316d8937-66ad-809d-8002-c11874bd1427" class="fills"><rect id="rect4954" width="13.45" height="2.92" x="184.52" y="145.43" class="st0" rx="0" ry="0" transform="rotate(-59 191.25 146.9)"/></g></g><g id="shape-316d8937-66ad-809d-8002-c11874bd762b"><g id="fills-316d8937-66ad-809d-8002-c11874bd762b" class="fills"><rect id="rect4958" width="25.25" height="2.92" x="144.48" y="135.82" class="st0" rx="0" ry="0" transform="rotate(-34 157.1 137.28)"/></g></g><g id="shape-316d8937-66ad-809d-8002-c11874becf80"><g id="fills-316d8937-66ad-809d-8002-c11874becf80" class="fills"><path id="path4962" d="M316.2 266.95c-1.57-2.92-2.74-5.07-1.86-12.18v-.1c.2-4-.58-7.22-2.14-9.65v-18.24l6.92 6.63 2.05-2.14-64.55-62.4c-.3-.3-.58-.39-.97-.39h-32.08l.1-17.26h-2.93l-.1 17.26H180l6.14-10.34-2.54-1.46-7.02 11.8h-63.66l28.86-19.3-1.66-2.44-32.47 21.74h-9.65c-.4 0-.78.2-1.07.49l-70.2 72.34a1.53 1.53 0 0 0-.3 1.56c.2.59.78.88 1.37.88h16.87v36.07h2.92v-36.07h137.87c.39 0 .78-.2 1.07-.49l15.2-15.6v72.35h2.93v-75.37l51.1-52.65 54.1 52.26h-.48v17.55a14.51 14.51 0 0 0-8-2.24c-2.82 0-6.82.58-9.65 3.6-2.44 2.54-3.6 6.34-3.41 11.22v.1c.78 6.92-.4 9.16-1.95 11.89-1.07 2.05-2.34 4.39-3.12 8.58-2.05 11.7 4.97 18.14 10.82 21.45h-56.45v2.92h63.67c.68 0 1.26-.48 1.46-1.07v-20.09l6.04-7.99-2.34-1.75-3.7 4.87v-4.78h-2.93v4.59l-3.21-4.59-2.44 1.66 5.65 8v17.74a28.31 28.31 0 0 1-7.21-3.9c-5.56-4.19-7.7-9.75-6.53-16.57.68-3.8 1.75-5.76 2.82-7.7 1.56-3.03 3.12-5.85 2.25-13.56-.2-4.1.68-7.11 2.63-9.06 2.14-2.25 5.26-2.73 7.6-2.73s5.46.48 7.6 2.73c1.86 1.95 2.74 4.97 2.64 9.06-.88 7.9.59 10.63 2.24 13.85.98 1.95 2.05 3.9 2.83 7.6 2.15 10.14-7.02 16.68-7.41 16.97-.68.48-.88 1.36-.39 2.04.49.69 1.37.79 2.05.4.49-.3 11.21-7.9 8.68-20a40 40 0 0 0-3.42-8.08zm-131.44-26.03H31.2l67.37-69.42h153.56z" class="st0"/></g></g><g id="shape-316d8937-66ad-809d-8002-c11874bf761e"><g id="fills-316d8937-66ad-809d-8002-c11874bf761e" class="fills"><rect id="rect4966" width="3.9" height="17.65" x="233.9" y="232.44" class="st0" rx="0" ry="0"/></g></g><g id="shape-316d8937-66ad-809d-8002-c11874bfe8d6"><g id="fills-316d8937-66ad-809d-8002-c11874bfe8d6" class="fills"><rect id="rect4970" width="3.9" height="17.65" x="86.97" y="262.18" class="st0" rx="0" ry="0"/></g></g><g id="shape-316d8937-66ad-809d-8002-c11874c00f2e"><g id="fills-316d8937-66ad-809d-8002-c11874c00f2e" class="fills"><rect id="rect4974" width="3.9" height="17.65" x="148.69" y="262.18" class="st0" rx="0" ry="0"/></g></g><g id="shape-316d8937-66ad-809d-8002-c11874c0b801"><g id="fills-316d8937-66ad-809d-8002-c11874c0b801" class="fills"><rect id="rect4978" width="3.9" height="17.65" x="276.22" y="232.44" class="st0" rx="0" ry="0"/></g></g><g id="shape-316d8937-66ad-809d-8002-c11874c10fd3"><g id="fills-316d8937-66ad-809d-8002-c11874c10fd3" class="fills"><rect id="rect4982" width="27.5" height="2.92" x="246.48" y="288.11" class="st0" rx="0" ry="0"/></g></g></g></g></svg>