<svg xmlns:xlink="http://www.w3.org/1999/xlink" width="362" xmlns="http://www.w3.org/2000/svg" height="350.9" id="screenshot-537296e8-edae-8085-8002-c25c67a15189" viewBox="0 0 362 350.9" style="-webkit-print-color-adjust: exact;" fill="none" version="1.1"><g xmlns:xlink="http://www.w3.org/1999/xlink" xml:space="preserve" x="0px" id="shape-537296e8-edae-8085-8002-c25c67a15189" style="fill: rgb(0, 0, 0);" ry="0" rx="0" y="0px" version="1.1"><g id="shape-537296e8-edae-8085-8002-c25c67a2380d"><style type="text/css" rx="0" ry="0" style="fill: rgb(0, 0, 0);">.st0{fill:#004B00;}</style></g><g id="shape-537296e8-edae-8085-8002-c25c67a27458" rx="0" ry="0" style="fill: rgb(0, 0, 0);"><g id="shape-537296e8-edae-8085-8002-c25c67a2dbcb"><g class="fills" id="fills-537296e8-edae-8085-8002-c25c67a2dbcb"><rect class="st0" rx="0" ry="0" x="65.90999999999997" y="23.789999999999964" transform="matrix(1.000000, 0.000000, 0.000000, 1.000000, 0.000000, 0.000000)" width="8.775000000000006" height="1.9500000000000455"/></g></g><g id="shape-537296e8-edae-8085-8002-c25c67a3024e"><g class="fills" id="fills-537296e8-edae-8085-8002-c25c67a3024e"><rect class="st0" rx="0" ry="0" x="79.56" y="23.789999999999964" transform="matrix(1.000000, 0.000000, 0.000000, 1.000000, 0.000000, 0.000000)" width="8.775000000000006" height="1.9500000000000455"/></g></g><g id="shape-537296e8-edae-8085-8002-c25c67a3024f"><g class="fills" id="fills-537296e8-edae-8085-8002-c25c67a3024f"><rect class="st0" rx="0" ry="0" x="160.1925" y="310.63499999999976" transform="matrix(1.000000, 0.000000, 0.000000, 1.000000, 0.000000, 0.000000)" width="8.774999999999977" height="1.9500000000000455"/></g></g><g id="shape-537296e8-edae-8085-8002-c25c67a30250"><g class="fills" id="fills-537296e8-edae-8085-8002-c25c67a30250"><rect class="st0" rx="0" ry="0" x="78.29250000000002" y="310.63499999999976" transform="matrix(1.000000, 0.000000, 0.000000, 1.000000, 0.000000, 0.000000)" width="8.775000000000006" height="1.9500000000000455"/></g></g><g id="shape-537296e8-edae-8085-8002-c25c67a34e21"><g class="fills" id="fills-537296e8-edae-8085-8002-c25c67a34e21"><rect class="st0" rx="0" ry="0" x="64.64249999999998" y="310.63499999999976" transform="matrix(1.000000, 0.000000, 0.000000, 1.000000, 0.000000, 0.000000)" width="8.775000000000006" height="1.9500000000000455"/></g></g><g id="shape-537296e8-edae-8085-8002-c25c67a38d06"><g class="fills" id="fills-537296e8-edae-8085-8002-c25c67a38d06"><path class="st0" rx="0" ry="0" d="M35.880,33.150L34.710,31.590C32.272,33.345,30.030,35.295,27.982,37.537L29.445,38.805C31.395,36.660,33.540,34.808,35.880,33.150ZZ"/></g></g><g id="shape-537296e8-edae-8085-8002-c25c67a3ee19"><g class="fills" id="fills-537296e8-edae-8085-8002-c25c67a3ee19"><path class="st0" rx="0" ry="0" d="M37.927,306.832C40.560,308.392,43.290,309.563,46.118,310.537L46.702,308.685C43.972,307.807,41.340,306.638,38.902,305.175L37.927,306.832ZZ"/></g></g><g id="shape-537296e8-edae-8085-8002-c25c67a41b6e"><g class="fills" id="fills-537296e8-edae-8085-8002-c25c67a41b6e"><path class="st0" rx="0" ry="0" d="M51.285,309.855L50.895,311.805C53.625,312.293,56.355,312.585,59.182,312.585L59.865,312.585L59.865,310.635L59.182,310.635C56.452,310.635,53.820,310.440,51.285,309.855ZZ"/></g></g><g id="shape-537296e8-edae-8085-8002-c25c67a451cc"><g class="fills" id="fills-537296e8-edae-8085-8002-c25c67a451cc"><path class="st0" rx="0" ry="0" d="M47.775,27.300L47.190,25.447C44.362,26.325,41.535,27.495,38.902,28.860L39.877,30.615C42.412,29.250,45.045,28.178,47.775,27.300ZZ"/></g></g><g id="shape-537296e8-edae-8085-8002-c25c67a4a8b1"><g class="fills" id="fills-537296e8-edae-8085-8002-c25c67a4a8b1"><rect class="st0" rx="0" ry="0" x="120.50999999999999" y="23.789999999999964" transform="matrix(1.000000, 0.000000, 0.000000, 1.000000, 0.000000, 0.000000)" width="8.775000000000006" height="1.9500000000000455"/></g></g><g id="shape-537296e8-edae-8085-8002-c25c67a4a8b2"><g class="fills" id="fills-537296e8-edae-8085-8002-c25c67a4a8b2"><rect class="st0" rx="0" ry="0" x="134.15999999999997" y="23.789999999999964" transform="matrix(1.000000, 0.000000, 0.000000, 1.000000, 0.000000, 0.000000)" width="8.775000000000006" height="1.9500000000000455"/></g></g><g id="shape-537296e8-edae-8085-8002-c25c67a4c9a8"><g class="fills" id="fills-537296e8-edae-8085-8002-c25c67a4c9a8"><rect class="st0" rx="0" ry="0" x="132.89249999999998" y="310.63499999999976" transform="matrix(1.000000, 0.000000, 0.000000, 1.000000, 0.000000, 0.000000)" width="8.775000000000006" height="1.9500000000000455"/></g></g><g id="shape-537296e8-edae-8085-8002-c25c67a5675a"><g class="fills" id="fills-537296e8-edae-8085-8002-c25c67a5675a"><rect class="st0" rx="0" ry="0" x="146.54250000000002" y="310.63499999999976" transform="matrix(1.000000, 0.000000, 0.000000, 1.000000, 0.000000, 0.000000)" width="8.775000000000006" height="1.9500000000000455"/></g></g><g id="shape-537296e8-edae-8085-8002-c25c67a5af20"><g class="fills" id="fills-537296e8-edae-8085-8002-c25c67a5af20"><path class="st0" rx="0" ry="0" d="M28.665,296.692L27.202,297.960C29.152,300.203,31.395,302.250,33.735,304.102L34.905,302.543C32.662,300.787,30.517,298.837,28.665,296.692ZZ"/></g></g><g id="shape-537296e8-edae-8085-8002-c25c67a5af21"><g class="fills" id="fills-537296e8-edae-8085-8002-c25c67a5af21"><rect class="st0" rx="0" ry="0" x="147.81" y="23.789999999999964" transform="matrix(1.000000, 0.000000, 0.000000, 1.000000, 0.000000, 0.000000)" width="8.775000000000006" height="1.9500000000000455"/></g></g><g id="shape-537296e8-edae-8085-8002-c25c67a5c035"><g class="fills" id="fills-537296e8-edae-8085-8002-c25c67a5c035"><rect class="st0" rx="0" ry="0" x="105.5925" y="310.63499999999976" transform="matrix(1.000000, 0.000000, 0.000000, 1.000000, 0.000000, 0.000000)" width="8.774999999999977" height="1.9500000000000455"/></g></g><g id="shape-537296e8-edae-8085-8002-c25c67a5c036"><g class="fills" id="fills-537296e8-edae-8085-8002-c25c67a5c036"><rect class="st0" rx="0" ry="0" x="93.20999999999998" y="23.789999999999964" transform="matrix(1.000000, 0.000000, 0.000000, 1.000000, 0.000000, 0.000000)" width="8.775000000000006" height="1.9500000000000455"/></g></g><g id="shape-537296e8-edae-8085-8002-c25c67a634b0"><g class="fills" id="fills-537296e8-edae-8085-8002-c25c67a634b0"><rect class="st0" rx="0" ry="0" x="91.9425" y="310.63499999999976" transform="matrix(1.000000, 0.000000, 0.000000, 1.000000, 0.000000, 0.000000)" width="8.775000000000006" height="1.9500000000000455"/></g></g><g id="shape-537296e8-edae-8085-8002-c25c67a634b1"><g class="fills" id="fills-537296e8-edae-8085-8002-c25c67a634b1"><rect class="st0" rx="0" ry="0" x="106.85999999999999" y="23.789999999999964" transform="matrix(1.000000, 0.000000, 0.000000, 1.000000, 0.000000, 0.000000)" width="8.774999999999977" height="1.9500000000000455"/></g></g><g id="shape-537296e8-edae-8085-8002-c25c67a634b2"><g class="fills" id="fills-537296e8-edae-8085-8002-c25c67a634b2"><rect class="st0" rx="0" ry="0" x="119.2425" y="310.63499999999976" transform="matrix(1.000000, 0.000000, 0.000000, 1.000000, 0.000000, 0.000000)" width="8.775000000000006" height="1.9500000000000455"/></g></g><g id="shape-537296e8-edae-8085-8002-c25c67a6690f"><g class="fills" id="fills-537296e8-edae-8085-8002-c25c67a6690f"><path class="st0" rx="0" ry="0" d="M59.182,25.740L61.035,25.740L61.035,23.790L59.182,23.790C56.843,23.790,54.502,23.985,52.162,24.375L52.455,26.325C54.600,25.935,56.843,25.740,59.182,25.740ZZ"/></g></g><g id="shape-537296e8-edae-8085-8002-c25c67a6925a"><g class="fills" id="fills-537296e8-edae-8085-8002-c25c67a6925a"><rect class="st0" rx="0" ry="0" x="17.0625" y="122.26500000000033" transform="matrix(1.000000, 0.000000, 0.000000, 1.000000, 0.000000, 0.000000)" width="1.9499999999999886" height="8.774999999999864"/></g></g><g id="shape-537296e8-edae-8085-8002-c25c67a6925b"><g class="fills" id="fills-537296e8-edae-8085-8002-c25c67a6925b"><rect class="st0" rx="0" ry="0" x="17.0625" y="108.61500000000001" transform="matrix(1.000000, 0.000000, 0.000000, 1.000000, 0.000000, 0.000000)" width="1.9499999999999886" height="8.775000000000091"/></g></g><g id="shape-537296e8-edae-8085-8002-c25c67a6925c"><g class="fills" id="fills-537296e8-edae-8085-8002-c25c67a6925c"><rect class="st0" rx="0" ry="0" x="17.0625" y="94.96500000000015" transform="matrix(1.000000, 0.000000, 0.000000, 1.000000, 0.000000, 0.000000)" width="1.9499999999999886" height="8.774999999999864"/></g></g><g id="shape-537296e8-edae-8085-8002-c25c67a6eb6c"><g class="fills" id="fills-537296e8-edae-8085-8002-c25c67a6eb6c"><rect class="st0" rx="0" ry="0" x="17.0625" y="135.91499999999996" transform="matrix(1.000000, 0.000000, 0.000000, 1.000000, 0.000000, 0.000000)" width="1.9499999999999886" height="8.775000000000091"/></g></g><g id="shape-537296e8-edae-8085-8002-c25c67a6eb6d"><g class="fills" id="fills-537296e8-edae-8085-8002-c25c67a6eb6d"><rect class="st0" rx="0" ry="0" x="17.0625" y="149.56500000000005" transform="matrix(1.000000, 0.000000, 0.000000, 1.000000, 0.000000, 0.000000)" width="1.9499999999999886" height="8.775000000000091"/></g></g><g id="shape-537296e8-edae-8085-8002-c25c67a71a29"><g class="fills" id="fills-537296e8-edae-8085-8002-c25c67a71a29"><path class="st0" rx="0" ry="0" d="M26.520,42.510L24.960,41.340C23.205,43.778,21.743,46.410,20.572,49.140L22.327,49.920C23.400,47.385,24.862,44.850,26.520,42.510ZZ"/></g></g><g id="shape-537296e8-edae-8085-8002-c25c67a71a2a"><g class="fills" id="fills-537296e8-edae-8085-8002-c25c67a71a2a"><rect class="st0" rx="0" ry="0" x="17.0625" y="163.21500000000015" transform="matrix(1.000000, 0.000000, 0.000000, 1.000000, 0.000000, 0.000000)" width="1.9499999999999886" height="8.774999999999864"/></g></g><g id="shape-537296e8-edae-8085-8002-c25c67a751db"><g class="fills" id="fills-537296e8-edae-8085-8002-c25c67a751db"><path class="st0" rx="0" ry="0" d="M20.670,54.405L18.817,53.820C17.940,56.647,17.452,59.670,17.257,62.595L19.207,62.692C19.305,59.962,19.890,57.135,20.670,54.405ZZ"/></g></g><g id="shape-537296e8-edae-8085-8002-c25c67a7b69f"><g class="fills" id="fills-537296e8-edae-8085-8002-c25c67a7b69f"><path class="st0" rx="0" ry="0" d="M332.962,56.940C332.377,54.015,331.402,51.188,330.135,48.457L328.380,49.237C329.550,51.870,330.428,54.600,331.110,57.330L332.962,56.940ZZ"/></g></g><g id="shape-537296e8-edae-8085-8002-c25c67a7f7e4"><g class="fills" id="fills-537296e8-edae-8085-8002-c25c67a7f7e4"><rect class="st0" rx="0" ry="0" x="17.0625" y="67.66499999999996" transform="matrix(1.000000, 0.000000, 0.000000, 1.000000, 0.000000, 0.000000)" width="1.9499999999999886" height="8.775000000000091"/></g></g><g id="shape-537296e8-edae-8085-8002-c25c67a7f7e5"><g class="fills" id="fills-537296e8-edae-8085-8002-c25c67a7f7e5"><rect class="st0" rx="0" ry="0" x="17.0625" y="81.31500000000005" transform="matrix(1.000000, 0.000000, 0.000000, 1.000000, 0.000000, 0.000000)" width="1.9499999999999886" height="8.775000000000091"/></g></g><g id="shape-537296e8-edae-8085-8002-c25c67a83862"><g class="fills" id="fills-537296e8-edae-8085-8002-c25c67a83862"><rect class="st0" rx="0" ry="0" x="17.0625" y="245.115" transform="matrix(1.000000, 0.000000, 0.000000, 1.000000, 0.000000, 0.000000)" width="1.9499999999999886" height="8.775000000000091"/></g></g><g id="shape-537296e8-edae-8085-8002-c25c67a83863"><g class="fills" id="fills-537296e8-edae-8085-8002-c25c67a83863"><rect class="st0" rx="0" ry="0" x="17.0625" y="176.865" transform="matrix(1.000000, 0.000000, 0.000000, 1.000000, 0.000000, 0.000000)" width="1.9499999999999886" height="8.775000000000091"/></g></g><g id="shape-537296e8-edae-8085-8002-c25c67a86564"><g class="fills" id="fills-537296e8-edae-8085-8002-c25c67a86564"><path class="st0" rx="0" ry="0" d="M19.012,272.317L17.063,272.415C17.160,275.438,17.647,278.362,18.427,281.287L20.280,280.800C19.598,278.070,19.207,275.242,19.012,272.317ZZ"/></g></g><g id="shape-537296e8-edae-8085-8002-c25c67a86565"><g class="fills" id="fills-537296e8-edae-8085-8002-c25c67a86565"><path class="st0" rx="0" ry="0" d="M19.988,286.065C21.060,288.795,22.522,291.525,24.180,293.962L25.837,292.890C24.277,290.550,22.912,288.015,21.840,285.285L19.988,286.065ZZ"/></g></g><g id="shape-537296e8-edae-8085-8002-c25c67a8b25f"><g class="fills" id="fills-537296e8-edae-8085-8002-c25c67a8b25f"><rect class="st0" rx="0" ry="0" x="17.0625" y="258.7650000000003" transform="matrix(1.000000, 0.000000, 0.000000, 1.000000, 0.000000, 0.000000)" width="1.9499999999999886" height="8.774999999999864"/></g></g><g id="shape-537296e8-edae-8085-8002-c25c67a8b260"><g class="fills" id="fills-537296e8-edae-8085-8002-c25c67a8b260"><rect class="st0" rx="0" ry="0" x="17.0625" y="204.16499999999996" transform="matrix(1.000000, 0.000000, 0.000000, 1.000000, 0.000000, 0.000000)" width="1.9499999999999886" height="8.775000000000091"/></g></g><g id="shape-537296e8-edae-8085-8002-c25c67a8fa50"><g class="fills" id="fills-537296e8-edae-8085-8002-c25c67a8fa50"><rect class="st0" rx="0" ry="0" x="17.0625" y="190.51500000000033" transform="matrix(1.000000, 0.000000, 0.000000, 1.000000, 0.000000, 0.000000)" width="1.9499999999999886" height="8.774999999999864"/></g></g><g id="shape-537296e8-edae-8085-8002-c25c67a8fa51"><g class="fills" id="fills-537296e8-edae-8085-8002-c25c67a8fa51"><rect class="st0" rx="0" ry="0" x="17.0625" y="231.46500000000015" transform="matrix(1.000000, 0.000000, 0.000000, 1.000000, 0.000000, 0.000000)" width="1.9499999999999886" height="8.774999999999864"/></g></g><g id="shape-537296e8-edae-8085-8002-c25c67a8fa52"><g class="fills" id="fills-537296e8-edae-8085-8002-c25c67a8fa52"><rect class="st0" rx="0" ry="0" x="17.0625" y="217.81500000000005" transform="matrix(1.000000, 0.000000, 0.000000, 1.000000, 0.000000, 0.000000)" width="1.9499999999999886" height="8.775000000000091"/></g></g><g id="shape-537296e8-edae-8085-8002-c25c67a925a4"><g class="fills" id="fills-537296e8-edae-8085-8002-c25c67a925a4"><rect class="st0" rx="0" ry="0" x="255.74249999999998" y="310.63499999999976" transform="matrix(1.000000, 0.000000, 0.000000, 1.000000, 0.000000, 0.000000)" width="8.775000000000006" height="1.9500000000000455"/></g></g><g id="shape-537296e8-edae-8085-8002-c25c67a925a5"><g class="fills" id="fills-537296e8-edae-8085-8002-c25c67a925a5"><rect class="st0" rx="0" ry="0" x="331.98749999999995" y="239.36249999999995" transform="matrix(1.000000, 0.000000, 0.000000, 1.000000, 0.000000, 0.000000)" width="1.9500000000000455" height="8.775000000000091"/></g></g><g id="shape-537296e8-edae-8085-8002-c25c67a96374"><g class="fills" id="fills-537296e8-edae-8085-8002-c25c67a96374"><rect class="st0" rx="0" ry="0" x="331.98749999999995" y="253.01250000000027" transform="matrix(1.000000, 0.000000, 0.000000, 1.000000, 0.000000, 0.000000)" width="1.9500000000000455" height="8.774999999999864"/></g></g><g id="shape-537296e8-edae-8085-8002-c25c67a96375"><g class="fills" id="fills-537296e8-edae-8085-8002-c25c67a96375"><rect class="st0" rx="0" ry="0" x="331.98749999999995" y="184.76250000000027" transform="matrix(1.000000, 0.000000, 0.000000, 1.000000, 0.000000, 0.000000)" width="1.9500000000000455" height="8.774999999999864"/></g></g><g id="shape-537296e8-edae-8085-8002-c25c67a96376"><g class="fills" id="fills-537296e8-edae-8085-8002-c25c67a96376"><rect class="st0" rx="0" ry="0" x="331.98749999999995" y="212.0625" transform="matrix(1.000000, 0.000000, 0.000000, 1.000000, 0.000000, 0.000000)" width="1.9500000000000455" height="8.774999999999864"/></g></g><g id="shape-537296e8-edae-8085-8002-c25c67a9a63d"><g class="fills" id="fills-537296e8-edae-8085-8002-c25c67a9a63d"><rect class="st0" rx="0" ry="0" x="331.98749999999995" y="198.4124999999999" transform="matrix(1.000000, 0.000000, 0.000000, 1.000000, 0.000000, 0.000000)" width="1.9500000000000455" height="8.775000000000091"/></g></g><g id="shape-537296e8-edae-8085-8002-c25c67a9a63e"><g class="fills" id="fills-537296e8-edae-8085-8002-c25c67a9a63e"><rect class="st0" rx="0" ry="0" x="331.98749999999995" y="225.71249999999986" transform="matrix(1.000000, 0.000000, 0.000000, 1.000000, 0.000000, 0.000000)" width="1.9500000000000455" height="8.775000000000091"/></g></g><g id="shape-537296e8-edae-8085-8002-c25c67a9ea35"><g class="fills" id="fills-537296e8-edae-8085-8002-c25c67a9ea35"><path class="st0" rx="0" ry="0" d="M320.287,298.837L321.652,300.203C323.797,298.057,325.650,295.717,327.307,293.182L325.650,292.110C324.090,294.645,322.335,296.888,320.287,298.837ZZ"/></g></g><g id="shape-537296e8-edae-8085-8002-c25c67aa3d1b"><g class="fills" id="fills-537296e8-edae-8085-8002-c25c67aa3d1b"><path class="st0" rx="0" ry="0" d="M331.987,270.563C331.987,272.122,331.890,273.780,331.695,275.340L333.645,275.535C333.840,273.878,333.938,272.220,333.938,270.465L333.938,266.662L331.987,266.662L331.987,270.563ZZ"/></g></g><g id="shape-537296e8-edae-8085-8002-c25c67aa63e3"><g class="fills" id="fills-537296e8-edae-8085-8002-c25c67aa63e3"><path class="st0" rx="0" ry="0" d="M320.970,38.220C322.920,40.267,324.675,42.608,326.137,45.045L327.795,44.070C326.235,41.535,324.382,39.097,322.335,36.953L320.970,38.220ZZ"/></g></g><g id="shape-537296e8-edae-8085-8002-c25c67aa8086"><g class="fills" id="fills-537296e8-edae-8085-8002-c25c67aa8086"><path class="st0" rx="0" ry="0" d="M327.990,288.112L329.745,288.990C331.012,286.260,332.085,283.432,332.767,280.507L330.915,280.020C330.232,282.847,329.257,285.480,327.990,288.112ZZ"/></g></g><g id="shape-537296e8-edae-8085-8002-c25c67aa8087"><g class="fills" id="fills-537296e8-edae-8085-8002-c25c67aa8087"><rect class="st0" rx="0" ry="0" x="161.45999999999998" y="23.789999999999964" transform="matrix(1.000000, 0.000000, 0.000000, 1.000000, 0.000000, 0.000000)" width="8.774999999999977" height="1.9500000000000455"/></g></g><g id="shape-537296e8-edae-8085-8002-c25c67aa8088"><g class="fills" id="fills-537296e8-edae-8085-8002-c25c67aa8088"><rect class="st0" rx="0" ry="0" x="331.98749999999995" y="75.5625" transform="matrix(1.000000, 0.000000, 0.000000, 1.000000, 0.000000, 0.000000)" width="1.9500000000000455" height="8.774999999999864"/></g></g><g id="shape-537296e8-edae-8085-8002-c25c67aaed6b"><g class="fills" id="fills-537296e8-edae-8085-8002-c25c67aaed6b"><rect class="st0" rx="0" ry="0" x="331.98749999999995" y="102.86249999999995" transform="matrix(1.000000, 0.000000, 0.000000, 1.000000, 0.000000, 0.000000)" width="1.9500000000000455" height="8.775000000000091"/></g></g><g id="shape-537296e8-edae-8085-8002-c25c67aaed6c"><g class="fills" id="fills-537296e8-edae-8085-8002-c25c67aaed6c"><rect class="st0" rx="0" ry="0" x="331.98749999999995" y="89.21249999999986" transform="matrix(1.000000, 0.000000, 0.000000, 1.000000, 0.000000, 0.000000)" width="1.9500000000000455" height="8.775000000000091"/></g></g><g id="shape-537296e8-edae-8085-8002-c25c67ab3357"><g class="fills" id="fills-537296e8-edae-8085-8002-c25c67ab3357"><path class="st0" rx="0" ry="0" d="M333.743,61.815L331.793,62.010C331.890,63.278,331.987,64.545,331.987,65.813L331.987,70.688L333.938,70.688L333.938,65.813C333.938,64.545,333.840,63.180,333.743,61.815ZZ"/></g></g><g id="shape-537296e8-edae-8085-8002-c25c67ab5e60"><g class="fills" id="fills-537296e8-edae-8085-8002-c25c67ab5e60"><rect class="st0" rx="0" ry="0" x="331.98749999999995" y="143.8125" transform="matrix(1.000000, 0.000000, 0.000000, 1.000000, 0.000000, 0.000000)" width="1.9500000000000455" height="8.774999999999864"/></g></g><g id="shape-537296e8-edae-8085-8002-c25c67ab5e61"><g class="fills" id="fills-537296e8-edae-8085-8002-c25c67ab5e61"><rect class="st0" rx="0" ry="0" x="331.98749999999995" y="171.11249999999995" transform="matrix(1.000000, 0.000000, 0.000000, 1.000000, 0.000000, 0.000000)" width="1.9500000000000455" height="8.775000000000091"/></g></g><g id="shape-537296e8-edae-8085-8002-c25c67abb11c"><g class="fills" id="fills-537296e8-edae-8085-8002-c25c67abb11c"><path class="st0" rx="0" ry="0" d="M318.727,33.442C316.387,31.492,313.950,29.835,311.220,28.470L310.342,30.225C312.877,31.590,315.217,33.150,317.460,35.003L318.727,33.442ZZ"/></g></g><g id="shape-537296e8-edae-8085-8002-c25c67abb11d"><g class="fills" id="fills-537296e8-edae-8085-8002-c25c67abb11d"><rect class="st0" rx="0" ry="0" x="331.98749999999995" y="157.46249999999986" transform="matrix(1.000000, 0.000000, 0.000000, 1.000000, 0.000000, 0.000000)" width="1.9500000000000455" height="8.775000000000091"/></g></g><g id="shape-537296e8-edae-8085-8002-c25c67abf1a4"><g class="fills" id="fills-537296e8-edae-8085-8002-c25c67abf1a4"><rect class="st0" rx="0" ry="0" x="331.98749999999995" y="130.1624999999999" transform="matrix(1.000000, 0.000000, 0.000000, 1.000000, 0.000000, 0.000000)" width="1.9500000000000455" height="8.775000000000091"/></g></g><g id="shape-537296e8-edae-8085-8002-c25c67abf1a5"><g class="fills" id="fills-537296e8-edae-8085-8002-c25c67abf1a5"><rect class="st0" rx="0" ry="0" x="331.98749999999995" y="116.51250000000027" transform="matrix(1.000000, 0.000000, 0.000000, 1.000000, 0.000000, 0.000000)" width="1.9500000000000455" height="8.774999999999864"/></g></g><g id="shape-537296e8-edae-8085-8002-c25c67abf1a6"><g class="fills" id="fills-537296e8-edae-8085-8002-c25c67abf1a6"><rect class="st0" rx="0" ry="0" x="214.7925" y="310.63499999999976" transform="matrix(1.000000, 0.000000, 0.000000, 1.000000, 0.000000, 0.000000)" width="8.775000000000006" height="1.9500000000000455"/></g></g><g id="shape-537296e8-edae-8085-8002-c25c67ac1ded"><g class="fills" id="fills-537296e8-edae-8085-8002-c25c67ac1ded"><rect class="st0" rx="0" ry="0" x="202.40999999999997" y="23.789999999999964" transform="matrix(1.000000, 0.000000, 0.000000, 1.000000, 0.000000, 0.000000)" width="8.775000000000006" height="1.9500000000000455"/></g></g><g id="shape-537296e8-edae-8085-8002-c25c67ac1dee"><g class="fills" id="fills-537296e8-edae-8085-8002-c25c67ac1dee"><rect class="st0" rx="0" ry="0" x="201.14249999999998" y="310.63499999999976" transform="matrix(1.000000, 0.000000, 0.000000, 1.000000, 0.000000, 0.000000)" width="8.775000000000006" height="1.9500000000000455"/></g></g><g id="shape-537296e8-edae-8085-8002-c25c67ac5164"><g class="fills" id="fills-537296e8-edae-8085-8002-c25c67ac5164"><rect class="st0" rx="0" ry="0" x="228.4425" y="310.63499999999976" transform="matrix(1.000000, 0.000000, 0.000000, 1.000000, 0.000000, 0.000000)" width="8.774999999999977" height="1.9500000000000455"/></g></g><g id="shape-537296e8-edae-8085-8002-c25c67ac5165"><g class="fills" id="fills-537296e8-edae-8085-8002-c25c67ac5165"><rect class="st0" rx="0" ry="0" x="229.70999999999998" y="23.789999999999964" transform="matrix(1.000000, 0.000000, 0.000000, 1.000000, 0.000000, 0.000000)" width="8.774999999999977" height="1.9500000000000455"/></g></g><g id="shape-537296e8-edae-8085-8002-c25c67ac8395"><g class="fills" id="fills-537296e8-edae-8085-8002-c25c67ac8395"><rect class="st0" rx="0" ry="0" x="216.05999999999997" y="23.789999999999964" transform="matrix(1.000000, 0.000000, 0.000000, 1.000000, 0.000000, 0.000000)" width="8.775000000000006" height="1.9500000000000455"/></g></g><g id="shape-537296e8-edae-8085-8002-c25c67acdfa1"><g class="fills" id="fills-537296e8-edae-8085-8002-c25c67acdfa1"><rect class="st0" rx="0" ry="0" x="173.84249999999997" y="310.63499999999976" transform="matrix(1.000000, 0.000000, 0.000000, 1.000000, 0.000000, 0.000000)" width="8.775000000000034" height="1.9500000000000455"/></g></g><g id="shape-537296e8-edae-8085-8002-c25c67acdfa2"><g class="fills" id="fills-537296e8-edae-8085-8002-c25c67acdfa2"><rect class="st0" rx="0" ry="0" x="188.76" y="23.789999999999964" transform="matrix(1.000000, 0.000000, 0.000000, 1.000000, 0.000000, 0.000000)" width="8.774999999999977" height="1.9500000000000455"/></g></g><g id="shape-537296e8-edae-8085-8002-c25c67acdfa3"><g class="fills" id="fills-537296e8-edae-8085-8002-c25c67acdfa3"><rect class="st0" rx="0" ry="0" x="175.10999999999996" y="23.789999999999964" transform="matrix(1.000000, 0.000000, 0.000000, 1.000000, 0.000000, 0.000000)" width="8.775000000000034" height="1.9500000000000455"/></g></g><g id="shape-537296e8-edae-8085-8002-c25c67ad39bf"><g class="fills" id="fills-537296e8-edae-8085-8002-c25c67ad39bf"><rect class="st0" rx="0" ry="0" x="187.4925" y="310.63499999999976" transform="matrix(1.000000, 0.000000, 0.000000, 1.000000, 0.000000, 0.000000)" width="8.774999999999977" height="1.9500000000000455"/></g></g><g id="shape-537296e8-edae-8085-8002-c25c67ad39c0"><g class="fills" id="fills-537296e8-edae-8085-8002-c25c67ad39c0"><path class="st0" rx="0" ry="0" d="M296.790,310.342L296.985,312.293C299.910,311.903,302.932,311.220,305.760,310.245L305.077,308.392C302.445,309.367,299.618,310.050,296.790,310.342ZZ"/></g></g><g id="shape-537296e8-edae-8085-8002-c25c67ad4ee1"><g class="fills" id="fills-537296e8-edae-8085-8002-c25c67ad4ee1"><rect class="st0" rx="0" ry="0" x="242.09249999999997" y="310.63499999999976" transform="matrix(1.000000, 0.000000, 0.000000, 1.000000, 0.000000, 0.000000)" width="8.775000000000034" height="1.9500000000000455"/></g></g><g id="shape-537296e8-edae-8085-8002-c25c67ad4ee2"><g class="fills" id="fills-537296e8-edae-8085-8002-c25c67ad4ee2"><path class="st0" rx="0" ry="0" d="M309.465,306.638L310.342,308.392C313.072,307.125,315.607,305.467,317.947,303.615L316.777,302.055C314.438,303.810,312.000,305.370,309.465,306.638ZZ"/></g></g><g id="shape-537296e8-edae-8085-8002-c25c67adb535"><g class="fills" id="fills-537296e8-edae-8085-8002-c25c67adb535"><path class="st0" rx="0" ry="0" d="M293.085,25.740L293.183,23.790C292.793,23.790,292.403,23.790,291.915,23.790L284.310,23.790L284.310,25.740L291.915,25.740C292.305,25.740,292.695,25.740,293.085,25.740ZZ"/></g></g><g id="shape-537296e8-edae-8085-8002-c25c67add048"><g class="fills" id="fills-537296e8-edae-8085-8002-c25c67add048"><path class="st0" rx="0" ry="0" d="M306.735,26.422C303.908,25.350,300.983,24.570,298.058,24.180L297.765,26.130C300.592,26.520,303.420,27.300,306.053,28.275L306.735,26.422ZZ"/></g></g><g id="shape-537296e8-edae-8085-8002-c25c67add049"><g class="fills" id="fills-537296e8-edae-8085-8002-c25c67add049"><rect class="st0" rx="0" ry="0" x="283.04249999999996" y="310.63499999999976" transform="matrix(1.000000, 0.000000, 0.000000, 1.000000, 0.000000, 0.000000)" width="8.970000000000027" height="1.9500000000000455"/></g></g><g id="shape-537296e8-edae-8085-8002-c25c67ae0215"><g class="fills" id="fills-537296e8-edae-8085-8002-c25c67ae0215"><rect class="st0" rx="0" ry="0" x="257.01" y="23.789999999999964" transform="matrix(1.000000, 0.000000, 0.000000, 1.000000, 0.000000, 0.000000)" width="8.775000000000034" height="1.9500000000000455"/></g></g><g id="shape-537296e8-edae-8085-8002-c25c67ae0216"><g class="fills" id="fills-537296e8-edae-8085-8002-c25c67ae0216"><rect class="st0" rx="0" ry="0" x="270.66" y="23.789999999999964" transform="matrix(1.000000, 0.000000, 0.000000, 1.000000, 0.000000, 0.000000)" width="8.774999999999977" height="1.9500000000000455"/></g></g><g id="shape-537296e8-edae-8085-8002-c25c67ae0217"><g class="fills" id="fills-537296e8-edae-8085-8002-c25c67ae0217"><rect class="st0" rx="0" ry="0" x="243.35999999999996" y="23.789999999999964" transform="matrix(1.000000, 0.000000, 0.000000, 1.000000, 0.000000, 0.000000)" width="8.775000000000034" height="1.9500000000000455"/></g></g><g id="shape-537296e8-edae-8085-8002-c25c67ae45b2"><g class="fills" id="fills-537296e8-edae-8085-8002-c25c67ae45b2"><rect class="st0" rx="0" ry="0" x="269.3925" y="310.63499999999976" transform="matrix(1.000000, 0.000000, 0.000000, 1.000000, 0.000000, 0.000000)" width="8.774999999999977" height="1.9500000000000455"/></g></g><g id="shape-537296e8-edae-8085-8002-c25c67aeb899"><g class="fills" id="fills-537296e8-edae-8085-8002-c25c67aeb899"><path class="st0" rx="0" ry="0" d="M62.302,171.697C61.522,171.600,60.840,172.283,60.840,173.160C60.547,184.470,58.890,194.220,55.770,203.678C55.477,204.457,55.965,205.237,56.745,205.530C56.940,205.628,57.037,205.628,57.232,205.628C57.817,205.628,58.402,205.237,58.597,204.653C61.815,194.805,63.472,184.860,63.765,173.257C63.765,172.380,63.180,171.697,62.302,171.697ZZ"/></g></g><g id="shape-537296e8-edae-8085-8002-c25c67b13c81"><g class="fills" id="fills-537296e8-edae-8085-8002-c25c67b13c81"><path class="st0" rx="0" ry="0" d="M133.770,290.257C134.452,289.965,134.842,289.283,134.647,288.600C134.355,287.332,126.847,256.815,123.240,250.380C120.607,245.797,117.780,240.825,112.222,237.608C112.222,237.608,112.222,237.608,112.222,237.608C109.980,236.340,107.347,235.365,104.130,234.780C103.935,234.780,103.740,234.780,103.545,234.780L103.350,210.795C105.787,211.087,108.127,211.185,110.370,211.185C122.167,211.185,130.942,207.578,133.477,205.433C137.377,202.215,138.352,197.340,138.352,195.878C138.352,195.195,138.060,194.707,137.670,194.415C137.280,194.122,134.940,191.977,134.160,191.197C134.257,191.197,134.355,191.295,134.550,191.295C137.085,192.367,139.328,192.367,139.425,192.367L140.693,192.367L140.888,191.100C140.888,191.100,141.472,187.882,141.863,186.128C142.155,184.860,143.130,183.300,147.030,179.497C148.688,177.840,149.468,176.280,149.370,174.622C149.175,172.770,147.908,171.697,147.615,171.405C141.863,166.725,139.523,156.000,138.938,152.977C140.888,151.125,146.055,145.275,145.080,135.330C144.398,128.602,137.475,114.952,124.410,113.392C122.168,112.027,109.005,104.813,84.533,110.662C84.240,110.760,53.625,116.415,47.678,145.860C47.483,146.640,47.385,147.420,47.190,148.297C46.020,154.733,44.460,163.507,37.830,167.992C37.440,168.285,34.223,170.430,34.515,173.452C34.710,175.402,36.270,176.865,39.195,178.035C39.195,178.035,39.878,178.327,40.073,179.107C40.170,179.692,40.073,181.447,36.855,184.665C36.270,185.250,35.490,185.932,34.613,186.712C30.128,190.612,23.498,196.560,25.838,203.970C25.838,204.165,29.640,218.400,47.190,216.060C48.360,217.620,51.285,220.837,55.575,221.617C56.258,221.715,56.843,221.813,57.525,221.813C59.768,221.813,62.010,221.032,64.253,219.570C65.715,220.155,68.933,221.032,71.858,219.960C72.443,219.765,73.028,219.472,73.515,219.082L72.540,234.390C72.248,234.195,72.150,234.000,72.150,234.000C71.858,233.610,71.370,233.415,70.883,233.415C70.395,233.415,59.768,234.585,52.650,241.117C52.163,241.605,52.065,242.287,52.358,242.872C52.553,243.263,57.135,252.135,83.948,260.422C109.395,268.320,114.855,273.390,114.953,273.390C114.953,273.390,115.050,273.487,115.050,273.487C115.245,273.682,115.538,273.877,115.830,274.072C115.830,274.072,115.830,274.072,115.830,274.072C121.875,279.240,130.748,287.040,132.113,289.380C132.405,289.867,132.893,290.063,133.380,290.063C133.380,290.355,133.575,290.355,133.770,290.257ZZM145.665,173.940C145.665,173.940,146.250,174.330,146.250,175.013C146.250,175.695,145.762,176.572,144.787,177.547C140.887,181.350,139.327,183.397,138.840,185.640C138.547,186.712,138.255,188.272,138.060,189.442C137.377,189.345,136.500,189.150,135.525,188.760C133.185,187.785,131.917,189.150,131.625,189.540C130.845,190.612,130.845,192.172,131.625,193.050C132.210,193.733,134.257,195.585,135.330,196.560C135.232,197.828,134.257,201.142,131.625,203.385C128.700,205.822,112.320,212.063,92.820,205.628L90.773,182.325C90.675,181.740,90.285,181.253,89.798,181.058C89.212,180.862,88.627,181.058,88.237,181.545C88.042,181.740,83.265,187.297,78.000,183.300C75.953,181.740,74.782,178.912,74.685,175.500C74.587,171.990,75.757,169.065,76.927,168.090L77.220,167.797C78.780,166.433,80.632,164.872,87.067,167.212C87.262,167.310,87.457,167.310,87.652,167.310C87.847,167.310,106.665,165.750,112.320,144.300C113.100,148.492,113.782,153.075,114.367,156.195C114.465,156.975,115.245,157.560,116.025,157.365C116.220,157.365,119.925,156.780,123.727,153.465C126.457,151.125,129.577,146.835,131.040,139.620L135.720,153.172C136.012,154.635,138.352,168.090,145.665,173.940ZZM70.785,217.425C68.055,218.497,64.642,216.840,64.642,216.840C64.155,216.645,63.570,216.645,63.082,216.938C60.645,218.692,58.305,219.375,55.965,218.888C51.675,218.108,48.945,213.915,48.847,213.817C48.555,213.428,48.067,213.135,47.580,213.135C47.482,213.135,47.385,213.135,47.385,213.135C31.785,215.767,28.567,203.872,28.373,203.287C26.520,197.535,32.175,192.563,36.270,188.955C37.148,188.175,37.927,187.492,38.610,186.810C41.730,183.690,43.095,180.862,42.607,178.620C42.120,176.378,40.267,175.598,39.975,175.500C38.220,174.818,37.148,174.037,37.148,173.355C37.050,172.477,38.317,171.210,39.195,170.625C46.898,165.360,48.652,155.513,49.822,148.980C50.017,148.102,50.115,147.322,50.310,146.543C55.770,119.145,84.532,113.783,84.825,113.685C109.980,107.640,122.655,116.025,122.752,116.123C122.947,116.220,123.142,116.318,123.435,116.415C135.330,117.683,141.375,130.553,141.862,135.818C142.642,143.033,139.620,147.712,137.670,149.955L131.625,132.405C131.430,131.723,130.747,131.332,130.065,131.430C129.382,131.528,128.797,132.112,128.797,132.795C128.212,148.493,120.218,152.783,117.000,153.953C116.025,148.102,114.465,139.132,113.685,135.330C113.490,134.648,112.905,134.160,112.125,134.160C111.442,134.160,110.857,134.745,110.760,135.525C108.712,160.875,90.382,163.898,87.750,164.190C80.535,161.558,77.610,163.313,75.270,165.360L74.977,165.653C72.832,167.408,71.565,171.210,71.662,175.403C71.760,179.693,73.417,183.398,76.147,185.445C80.632,188.858,85.118,187.493,88.042,185.445L89.895,206.310C85.118,216.548,75.952,213.428,75.660,213.330C75.660,213.330,75.660,213.330,75.562,213.330C75.562,213.330,75.465,213.330,75.465,213.330C75.368,213.330,75.368,213.330,75.270,213.330C75.270,213.330,75.270,213.330,75.173,213.330C75.173,213.330,75.173,213.330,75.075,213.330C74.978,213.330,74.978,213.330,74.880,213.330C74.880,213.330,74.783,213.330,74.783,213.330C74.685,213.330,74.685,213.330,74.588,213.330C74.588,213.330,74.490,213.330,74.490,213.330C74.490,213.330,74.393,213.330,74.393,213.428C74.393,213.428,74.295,213.428,74.295,213.525C74.295,213.525,74.198,213.525,74.198,213.623C74.198,213.623,74.100,213.720,74.100,213.720C74.100,213.720,74.003,213.818,74.003,213.818C74.003,213.818,73.905,213.915,73.905,213.915C73.905,213.915,73.905,214.013,73.808,214.013C73.808,214.110,73.710,214.110,73.710,214.207C73.710,214.207,73.710,214.207,73.710,214.207C73.125,215.865,72.150,216.938,70.785,217.425ZZM76.537,216.547C81.022,217.425,88.042,216.450,92.235,208.358C95.062,209.235,97.695,209.918,100.327,210.405L100.522,237.022C98.475,238.192,94.477,239.558,87.555,239.168C81.510,238.778,77.610,237.510,75.172,236.340L76.537,216.547ZZM84.727,257.888C64.350,251.550,57.427,245.017,55.477,242.775C60.840,238.388,68.152,237.022,70.395,236.730C70.882,237.217,71.760,237.803,72.930,238.582C73.027,238.582,73.125,238.680,73.125,238.680C75.855,240.142,80.340,241.800,87.457,242.190C95.648,242.678,100.230,240.825,102.667,239.265C102.765,239.168,102.862,239.168,102.960,239.070C103.545,238.680,104.032,238.290,104.325,237.900C106.762,238.388,108.712,239.168,110.468,240.142C111.930,242.092,116.805,252.330,116.902,260.910C117.000,265.980,116.317,269.197,115.830,270.953C113.490,269.100,105.787,264.517,84.727,257.888ZZM118.365,272.903C118.950,271.147,120.023,267.345,119.925,260.813C119.827,255.450,118.072,249.503,116.220,245.017C117.975,247.162,119.340,249.503,120.607,251.940C123.142,256.425,127.920,274.462,130.357,283.725C126.555,279.922,121.095,275.242,118.365,272.903ZZ"/></g></g><g id="shape-537296e8-edae-8085-8002-c25c67b1a682"><g class="fills" id="fills-537296e8-edae-8085-8002-c25c67b1a682"><path class="st0" rx="0" ry="0" d="M79.657,128.310C79.657,127.530,78.975,126.847,78.097,126.945C71.273,127.237,61.718,132.503,57.135,145.957C55.380,151.125,54.600,156.585,53.820,161.850C53.235,165.847,52.650,169.942,51.675,173.842C49.042,184.372,42.998,191.783,35.685,193.830C34.905,194.025,34.417,194.805,34.710,195.585C34.905,196.267,35.490,196.658,36.075,196.658C36.173,196.658,36.368,196.658,36.465,196.560C44.850,194.220,51.577,186.030,54.502,174.428C55.575,170.332,56.160,166.140,56.745,162.142C57.525,156.975,58.305,151.710,59.962,146.737C62.692,138.547,69.420,130.065,78.292,129.675C79.072,129.772,79.755,129.090,79.657,128.310ZZ"/></g></g><g id="shape-537296e8-edae-8085-8002-c25c67b1d7bd"><g class="fills" id="fills-537296e8-edae-8085-8002-c25c67b1d7bd"><path class="st0" rx="0" ry="0" d="M73.417,151.320C85.020,144.787,92.917,132.503,94.087,119.242C94.185,118.462,93.600,117.683,92.722,117.683C91.942,117.585,91.162,118.170,91.162,119.047C90.090,131.332,82.680,142.740,71.955,148.785C71.272,149.175,70.980,150.053,71.370,150.735C71.662,151.222,72.150,151.515,72.637,151.515C72.930,151.515,73.222,151.418,73.417,151.320ZZ"/></g></g><g id="shape-537296e8-edae-8085-8002-c25c67b21ac1"><g class="fills" id="fills-537296e8-edae-8085-8002-c25c67b21ac1"><path class="st0" rx="0" ry="0" d="M89.310,150.247C88.725,150.832,88.725,151.710,89.310,152.295C89.602,152.587,89.993,152.783,90.382,152.783C90.772,152.783,91.065,152.685,91.357,152.392C94.087,149.858,97.110,146.640,99.352,142.935C101.010,140.108,102.960,135.622,102.472,130.650C102.375,129.870,101.692,129.285,100.912,129.285C100.132,129.382,99.547,130.065,99.547,130.845C99.937,135.037,98.280,138.938,96.817,141.375C94.672,144.885,91.845,147.810,89.310,150.247ZZ"/></g></g><g id="shape-537296e8-edae-8085-8002-c25c67b244e6"><g class="fills" id="fills-537296e8-edae-8085-8002-c25c67b244e6"><path class="st0" rx="0" ry="0" d="M121.192,135.135C120.900,135.915,121.192,136.695,121.972,137.085C122.167,137.183,122.362,137.183,122.557,137.183C123.142,137.183,123.630,136.890,123.922,136.305C125.970,131.625,125.287,125.872,122.265,121.778C121.777,121.095,120.900,120.997,120.218,121.485C119.535,121.972,119.437,122.850,119.925,123.533C122.362,126.750,122.850,131.430,121.192,135.135ZZ"/></g></g><g id="shape-537296e8-edae-8085-8002-c25c67b28290"><g class="fills" id="fills-537296e8-edae-8085-8002-c25c67b28290"><path class="st0" rx="0" ry="0" d="M74.587,208.260C75.270,208.260,75.952,207.772,76.050,206.992C76.732,201.825,76.732,196.658,76.050,191.490C75.952,190.710,75.172,190.125,74.392,190.222C73.612,190.320,73.027,191.100,73.125,191.880C73.807,196.755,73.710,201.727,73.125,206.602C73.027,207.382,73.612,208.162,74.392,208.260C74.490,208.260,74.587,208.260,74.587,208.260ZZ"/></g></g><g id="shape-537296e8-edae-8085-8002-c25c67b4b797"><g class="fills" id="fills-537296e8-edae-8085-8002-c25c67b4b797"><path class="st0" rx="0" ry="0" d="M323.212,178.815C319.702,149.078,310.342,129.285,295.327,120.022C280.995,111.150,266.565,115.245,263.932,116.122C230.587,109.102,221.812,117.780,214.597,128.992C214.597,128.992,214.500,129.090,214.500,129.090C208.747,140.303,211.477,145.080,213.817,149.370C214.987,151.418,215.962,153.172,215.865,155.610C215.670,161.753,208.455,164.678,208.455,164.678C207.870,164.872,207.480,165.457,207.577,166.140C207.675,166.822,208.065,167.310,208.650,167.505C215.670,169.162,220.935,168.773,224.542,166.335C223.567,170.138,221.715,175.403,217.815,178.523C217.522,178.717,216.157,179.888,216.060,181.740C215.962,183.398,216.742,184.957,218.400,186.615C220.545,188.662,221.812,190.125,222.592,191.197C218.010,195.195,214.110,195.000,210.405,194.707C209.917,194.707,209.527,194.610,209.040,194.610C204.457,194.415,198.608,196.658,196.365,201.337C194.805,204.457,194.415,209.723,200.850,217.230C203.775,220.643,207.480,222.593,214.695,224.445C216.742,225.030,218.010,226.102,218.497,227.858C219.277,230.587,218.205,234.195,216.937,235.560C213.427,239.558,209.722,246.870,211.087,254.085C212.160,259.545,215.865,264.128,222.105,267.638C220.447,272.220,219.180,277.680,218.400,284.115C218.400,284.212,217.327,291.720,216.937,296.205C216.840,296.790,217.230,297.472,217.815,297.668C218.010,297.765,218.205,297.765,218.400,297.765C218.790,297.765,219.180,297.570,219.472,297.278C219.667,297.082,237.997,276.900,254.377,274.755C257.887,274.267,261.007,273.975,263.737,273.682C275.048,272.610,282.555,271.830,294.060,263.640C307.028,254.475,307.320,244.335,307.223,241.897C327.600,210.795,323.212,179.108,323.212,178.815ZZM223.762,163.215C221.520,165.263,217.912,165.945,213.135,165.360C215.670,163.507,218.692,160.388,218.790,155.707C218.887,152.490,217.620,150.150,216.352,147.908C214.110,143.910,212.063,140.205,217.035,130.455C223.957,119.828,231.757,112.320,263.640,119.047C263.932,119.145,264.225,119.047,264.420,118.950C264.615,118.852,279.435,113.685,293.767,122.558C300.105,126.457,305.467,132.503,309.660,140.595C314.827,150.442,318.337,163.410,320.287,179.205C320.287,179.497,324.480,209.722,305.370,239.558C296.400,235.852,287.332,235.170,278.460,237.315L278.460,211.965C289.380,203.092,288.990,189.638,288.600,185.835C290.842,184.178,291.622,180.862,291.915,178.230C292.402,174.135,291.427,170.918,289.185,168.772C285.187,165.067,278.265,165.750,276.412,166.043C269.197,162.630,264.127,156.195,261.397,146.933C259.350,139.815,259.545,133.575,259.545,133.477C259.545,132.795,259.155,132.210,258.570,132.015C257.985,131.820,257.302,132.015,256.912,132.600C250.380,141.960,241.215,145.860,228.735,144.495C228.247,144.495,227.857,144.592,227.565,144.885C227.272,145.177,227.077,145.665,227.175,146.055C228.150,154.635,226.980,160.388,223.762,163.215ZZM252.720,218.108C259.057,218.400,266.467,217.522,274.267,214.793C274.365,214.793,274.462,214.695,274.560,214.695C274.853,214.500,275.243,214.305,275.535,214.110L275.535,238.485C273.585,239.753,266.077,243.945,252.817,241.605L252.720,218.108ZZM220.447,184.372C219.472,183.397,218.985,182.520,218.985,181.837C218.985,181.155,219.570,180.765,219.570,180.765C219.570,180.765,219.667,180.765,219.667,180.668C226.687,175.013,228.052,164.092,228.345,161.947C230.197,158.535,230.782,153.757,230.197,147.517C241.215,148.297,250.185,144.983,256.717,137.475C257.303,145.275,260.423,161.947,275.535,168.772C275.827,168.870,276.120,168.967,276.412,168.870C276.510,168.870,283.627,167.505,287.137,170.820C288.697,172.283,289.380,174.622,288.990,177.742C288.600,180.765,287.625,183.007,286.357,183.592C285.772,183.885,285.382,184.470,285.480,185.153C285.577,185.835,288.307,202.995,273.098,211.867C253.208,218.790,236.535,212.355,233.512,209.918C230.880,207.772,229.905,204.360,229.808,203.092C230.880,202.215,232.927,200.362,233.512,199.582C234.293,198.608,234.293,197.047,233.512,196.072C233.220,195.683,231.953,194.317,229.613,195.293C228.637,195.683,227.760,195.878,227.078,195.975C226.883,194.903,226.590,193.245,226.298,192.172C225.907,190.320,224.347,188.175,220.447,184.372ZZM214.012,253.500C212.745,246.870,216.645,240.337,219.180,237.412C220.740,235.560,222.592,231.075,221.325,226.980C220.740,225.128,219.277,222.592,215.475,221.617C207.967,219.668,205.237,217.717,203.092,215.280C198.802,210.308,197.438,205.920,198.998,202.507C200.752,198.997,205.335,197.242,208.942,197.438C209.332,197.438,209.820,197.438,210.210,197.535C213.915,197.730,218.498,198.022,223.762,193.928C224.153,195.683,224.543,198.022,224.543,198.022C224.640,198.705,225.225,199.290,226.005,199.290C226.103,199.290,228.345,199.290,230.880,198.217C231.075,198.120,231.173,198.120,231.270,198.120C230.490,198.900,228.150,201.045,227.760,201.337C227.273,201.630,227.078,202.118,226.980,202.800C226.883,204.263,227.955,209.138,231.855,212.355C234.000,214.110,240.630,217.035,249.893,217.815L249.893,241.507C245.408,242.287,231.173,246.188,223.275,264.712C217.912,261.787,214.890,257.985,214.012,253.500ZZM220.350,292.110C220.837,288.307,221.325,284.408,221.325,284.310C222.105,277.680,223.470,272.122,225.225,267.540C225.225,267.540,225.225,267.540,225.225,267.540C225.322,267.442,225.322,267.345,225.322,267.247C231.172,252.037,241.312,246.870,247.065,245.212C243.067,250.185,236.535,261.007,234.683,280.215C228.540,284.310,223.470,289.087,220.350,292.110ZZM292.500,261.203C281.677,268.905,274.462,269.587,263.543,270.660C260.715,270.953,257.595,271.245,254.085,271.733C248.625,272.415,242.970,274.950,237.803,278.070C240.435,256.132,249.502,246.382,251.648,244.335C254.865,244.920,257.790,245.212,260.423,245.212C270.563,245.212,276.217,241.507,277.485,240.533C277.583,240.533,277.778,240.435,277.973,240.435C286.650,238.095,295.522,238.680,304.395,242.385C304.493,245.017,303.615,253.305,292.500,261.203ZZ"/></g></g><g id="shape-537296e8-edae-8085-8002-c25c67b4dba1"><g class="fills" id="fills-537296e8-edae-8085-8002-c25c67b4dba1"><path class="st0" rx="0" ry="0" d="M275.048,153.660C278.070,156.585,281.775,158.730,285.383,160.680C290.258,163.410,294.743,165.945,297.473,170.332C301.275,176.572,300.008,184.763,297.960,192.660L297.862,193.147C295.912,200.753,293.670,209.430,296.887,217.132C297.082,217.717,297.667,218.010,298.252,218.010C298.447,218.010,298.642,218.010,298.837,217.912C299.618,217.620,299.910,216.742,299.618,215.962C296.790,209.138,298.837,201.337,300.690,193.733L300.788,193.245C302.933,184.763,304.298,175.890,300.008,168.675C296.985,163.605,291.818,160.778,286.845,158.047C283.433,156.097,279.825,154.147,277.095,151.418C271.928,146.347,269.685,138.742,268.028,132.112C267.833,131.332,267.053,130.845,266.272,131.040C265.493,131.235,265.005,132.015,265.200,132.795C266.955,140.108,269.392,148.102,275.048,153.660ZZ"/></g></g><g id="shape-537296e8-edae-8085-8002-c25c67b510ad"><g class="fills" id="fills-537296e8-edae-8085-8002-c25c67b510ad"><path class="st0" rx="0" ry="0" d="M275.730,130.553C286.748,132.990,297.180,141.472,303.420,153.270C308.490,162.825,311.317,174.330,312.293,189.540C312.390,190.320,312.975,190.905,313.755,190.905C313.755,190.905,313.853,190.905,313.853,190.905C314.633,190.808,315.315,190.125,315.217,189.345C314.243,173.648,311.220,161.753,305.955,151.905C299.228,139.328,288.210,130.260,276.315,127.628C275.535,127.433,274.755,127.920,274.560,128.700C274.365,129.480,274.950,130.358,275.730,130.553ZZ"/></g></g><g id="shape-537296e8-edae-8085-8002-c25c67b577c5"><g class="fills" id="fills-537296e8-edae-8085-8002-c25c67b577c5"><path class="st0" rx="0" ry="0" d="M231.562,136.695C230.782,136.695,230.100,137.280,230.002,138.060C230.002,138.840,230.587,139.522,231.368,139.620C231.855,139.620,232.245,139.620,232.732,139.620C239.363,139.620,246.480,136.793,253.890,131.332C254.572,130.845,254.670,129.967,254.183,129.285C253.695,128.602,252.818,128.505,252.135,128.992C244.822,134.453,237.802,137.085,231.562,136.695ZZ"/></g></g><g id="shape-537296e8-edae-8085-8002-c25c67b58716"><g class="fills" id="fills-537296e8-edae-8085-8002-c25c67b58716"><path class="st0" rx="0" ry="0" d="M244.432,125.678C245.212,125.775,245.992,125.190,246.090,124.410C246.187,123.630,245.602,122.850,244.822,122.753C235.072,121.582,226.687,125.190,222.202,132.405C221.812,133.087,222.007,133.965,222.690,134.453C222.885,134.647,223.177,134.647,223.470,134.647C223.957,134.647,224.445,134.355,224.737,133.965C228.540,127.628,235.755,124.605,244.432,125.678ZZ"/></g></g><g id="shape-537296e8-edae-8085-8002-c25c67b5e178"><g class="fills" id="fills-537296e8-edae-8085-8002-c25c67b5e178"><path class="st0" rx="0" ry="0" d="M224.835,217.522C224.152,217.035,223.372,216.645,222.592,216.352C221.715,215.962,220.935,215.475,220.252,214.987C218.887,213.915,218.010,212.063,218.010,210.015C218.010,207.967,218.790,206.115,220.155,204.945C220.740,204.457,220.837,203.483,220.350,202.897C219.862,202.313,218.887,202.215,218.302,202.703C216.255,204.360,214.987,207.090,214.987,210.015C214.987,212.940,216.255,215.670,218.400,217.328C219.277,218.010,220.252,218.497,221.227,218.985C221.910,219.375,222.592,219.668,223.177,220.058C226.297,222.105,228.150,226.297,228.247,231.270C228.345,234.000,227.955,236.730,227.565,239.655C227.272,241.507,227.077,243.457,226.882,245.310C226.785,246.090,227.467,246.772,228.247,246.870C228.247,246.870,228.345,246.870,228.345,246.870C229.125,246.870,229.710,246.285,229.807,245.505C229.905,243.653,230.197,241.800,230.490,240.045C230.880,237.217,231.270,234.195,231.270,231.172C231.075,225.128,228.735,220.155,224.835,217.522ZZ"/></g></g><g id="shape-537296e8-edae-8085-8002-c25c67b62a27"><g class="fills" id="fills-537296e8-edae-8085-8002-c25c67b62a27"><path class="st0" rx="0" ry="0" d="M237.315,235.560C236.925,236.242,237.217,237.120,237.900,237.510C238.095,237.608,238.387,237.705,238.582,237.705C239.070,237.705,239.655,237.412,239.850,236.925C241.995,232.928,241.410,227.662,238.485,224.153C237.997,223.567,237.022,223.470,236.437,223.957C235.852,224.445,235.755,225.420,236.243,226.005C238.485,228.638,238.875,232.537,237.315,235.560ZZ"/></g></g><g id="shape-537296e8-edae-8085-8002-c25c67b62a28"><g class="fills" id="fills-537296e8-edae-8085-8002-c25c67b62a28"><path class="st0" rx="0" ry="0" d="M312.195,201.727C312.195,201.727,312.195,201.727,312.195,201.727ZC311.415,201.727,310.732,202.410,310.732,203.190C310.537,214.403,306.150,225.712,298.642,234.097C298.057,234.683,298.155,235.658,298.740,236.145C299.033,236.438,299.325,236.535,299.715,236.535C300.105,236.535,300.495,236.340,300.788,236.047C308.783,227.175,313.365,215.183,313.560,203.190C313.657,202.410,312.975,201.727,312.195,201.727ZZ"/></g></g><g id="shape-537296e8-edae-8085-8002-c25c67b6b180"><g class="fills" id="fills-537296e8-edae-8085-8002-c25c67b6b180"><path class="st0" rx="0" ry="0" d="M209.137,106.178C210.210,106.372,213.915,107.835,216.645,109.005C224.055,112.028,225.322,112.418,226.395,112.028C228.247,111.247,227.662,108.712,226.687,104.130C226.395,102.570,225.907,100.328,225.907,99.352C233.415,94.965,237.705,88.530,238.680,80.242C240.240,66.105,228.735,53.528,207.090,45.727C181.350,36.465,144.690,35.977,135.915,49.335C122.850,69.225,140.887,90.967,143.617,94.087L145.860,113.003C145.957,113.587,146.250,113.977,146.835,114.172C147.030,114.270,147.127,114.270,147.322,114.270C147.712,114.270,148.005,114.172,148.297,113.880L159.997,103.155C164.775,104.813,187.980,112.710,209.137,106.178ZZM158.632,100.230L148.297,109.688L146.347,93.210C146.347,92.918,146.152,92.625,145.957,92.332C145.860,92.235,140.692,86.678,137.182,78.780C132.600,68.347,132.892,58.987,138.255,50.895C142.155,44.947,153.855,41.828,168.090,41.828C179.985,41.828,193.635,43.972,206.017,48.457C215.572,51.870,237.705,61.912,235.755,79.852C234.877,87.360,230.977,93.112,224.055,97.013C222.495,97.890,222.982,100.132,223.957,104.617C224.250,105.885,224.640,107.737,224.737,108.908C223.080,108.420,220.057,107.153,217.912,106.275C210.892,103.447,209.625,103.058,208.650,103.350C186.420,110.272,160.680,100.035,160.387,99.938C159.705,99.742,159.120,99.840,158.632,100.230ZZ"/></g></g><g id="shape-537296e8-edae-8085-8002-c25c67b6dc61"><g class="fills" id="fills-537296e8-edae-8085-8002-c25c67b6dc61"><path class="st0" rx="0" ry="0" d="M147.420,194.415C147.517,194.415,147.615,194.415,147.615,194.415L153.757,193.537C154.635,193.440,155.317,192.563,155.220,191.685C155.122,190.808,154.245,190.125,153.367,190.222L147.225,191.100C146.347,191.197,145.665,192.075,145.762,192.953C145.860,193.733,146.640,194.415,147.420,194.415ZZ"/></g></g><g id="shape-537296e8-edae-8085-8002-c25c67b726c3"><g class="fills" id="fills-537296e8-edae-8085-8002-c25c67b726c3"><path class="st0" rx="0" ry="0" d="M149.662,203.483C150.540,204.067,151.320,204.653,152.100,205.140C152.392,205.335,152.685,205.335,152.977,205.335C153.563,205.335,154.147,205.043,154.440,204.555C154.927,203.775,154.635,202.702,153.855,202.215C153.173,201.825,152.392,201.240,151.612,200.752C150.540,199.972,149.468,199.290,148.297,198.608C147.517,198.120,146.445,198.412,145.957,199.192C145.470,199.972,145.762,201.045,146.542,201.533C147.712,202.020,148.687,202.703,149.662,203.483ZZ"/></g></g><g id="shape-537296e8-edae-8085-8002-c25c67b76479"><g class="fills" id="fills-537296e8-edae-8085-8002-c25c67b76479"><path class="st0" rx="0" ry="0" d="M144.007,205.920C143.812,205.043,142.837,204.457,141.960,204.653C141.082,204.847,140.497,205.822,140.692,206.700L142.252,213.135C142.447,213.915,143.130,214.403,143.910,214.403C144.007,214.403,144.202,214.403,144.300,214.305C145.177,214.110,145.762,213.135,145.567,212.257L144.007,205.920ZZ"/></g></g><g id="shape-537296e8-edae-8085-8002-c25c67b7f34d"><g class="fills" id="fills-537296e8-edae-8085-8002-c25c67b7f34d"><path class="st0" rx="0" ry="0" d="M202.020,87.750C202.410,87.750,202.800,87.555,202.995,87.263C203.190,86.970,203.287,86.580,203.190,86.190L196.365,60.450C196.267,59.865,195.780,59.572,195.195,59.572L163.117,59.572C162.532,59.572,162.045,59.962,161.947,60.450L155.122,86.190C155.025,86.580,155.122,86.970,155.317,87.263C155.512,87.555,155.902,87.750,156.292,87.750L173.355,87.750L173.355,102.082C173.355,102.765,173.940,103.350,174.622,103.350C175.305,103.350,175.890,102.765,175.890,102.082L175.890,87.750L182.422,87.750L182.422,102.082C182.422,102.765,183.007,103.350,183.690,103.350C184.372,103.350,184.957,102.765,184.957,102.082L184.957,87.750L202.020,87.750ZZM172.868,85.313L173.452,79.170L184.957,79.170L185.542,85.313L172.868,85.313ZZM161.850,70.590L171.795,70.590L171.210,76.733L160.192,76.733L161.850,70.590ZZM174.232,70.590L184.177,70.590L184.762,76.733L173.745,76.733L174.232,70.590ZZM174.427,68.153L175.012,62.010L183.397,62.010L183.982,68.153L174.427,68.153ZZM198.120,76.733L187.200,76.733L186.615,70.590L196.560,70.590L198.120,76.733ZZM187.882,85.313L187.297,79.170L198.705,79.170L200.362,85.313L187.882,85.313ZZM195.877,68.153L186.420,68.153L185.835,62.010L194.220,62.010L195.877,68.153ZZM164.092,62.108L172.477,62.108L171.892,68.250L162.435,68.250L164.092,62.108ZZM159.510,79.170L170.917,79.170L170.332,85.313L157.950,85.313L159.510,79.170ZZ"/></g></g><g id="shape-537296e8-edae-8085-8002-c25c67b8acb1"><g class="fills" id="fills-537296e8-edae-8085-8002-c25c67b8acb1"><path class="st0" rx="0" ry="0" d="M155.415,71.370C155.512,71.370,155.610,71.467,155.805,71.467C156.195,71.467,156.487,71.272,156.683,70.882L158.048,67.470C158.243,67.567,158.535,67.665,158.730,67.763C158.827,67.763,158.925,67.763,159.023,67.763C159.413,67.763,159.803,67.470,159.900,67.080C159.998,66.592,159.803,66.105,159.218,65.910C158.730,65.813,158.243,65.617,157.853,65.325C157.853,65.325,157.853,65.325,157.853,65.325C157.853,65.325,157.853,65.325,157.853,65.325C155.318,63.960,153.758,61.132,154.148,58.207C154.635,54.210,158.145,51.382,162.142,51.870C165.652,52.260,168.382,55.087,168.480,58.695C168.480,59.183,168.967,59.572,169.455,59.572C169.942,59.572,170.332,59.085,170.332,58.597C170.332,58.403,170.332,58.305,170.332,58.110L174.135,57.525C174.623,57.428,175.012,56.940,174.915,56.453C174.818,55.965,174.330,55.575,173.843,55.672L169.943,56.257C169.650,55.283,169.163,54.405,168.578,53.625L171.893,50.992C172.283,50.700,172.380,50.115,172.088,49.628C171.795,49.237,171.210,49.140,170.722,49.433L167.310,52.162C166.627,51.578,165.847,51.090,165.067,50.700L166.822,46.410C167.017,45.922,166.822,45.337,166.335,45.240C165.847,45.045,165.262,45.240,165.165,45.727L163.410,50.115C163.118,50.017,162.728,50.017,162.435,49.920C161.947,49.822,161.363,49.822,160.875,49.920L160.193,45.045C160.095,44.558,159.608,44.168,159.120,44.265C158.633,44.362,158.243,44.850,158.340,45.337L159.023,50.212C158.243,50.408,157.463,50.700,156.780,51.188L153.660,47.190C153.368,46.800,152.782,46.703,152.295,46.995C151.905,47.287,151.808,47.872,152.100,48.360L155.220,52.260C154.635,52.845,154.050,53.430,153.660,54.112L149.078,52.260C148.590,52.065,148.005,52.260,147.908,52.747C147.713,53.235,147.908,53.820,148.395,53.918L152.880,55.672C152.588,56.355,152.490,57.037,152.393,57.817C152.393,58.013,152.393,58.110,152.393,58.305L147.713,58.987C147.225,59.085,146.835,59.572,146.933,60.060C147.030,60.547,147.420,60.840,147.907,60.840C147.907,60.840,148.005,60.840,148.005,60.840L152.392,60.158C152.490,61.132,152.782,62.010,153.173,62.790L149.857,65.422C149.468,65.715,149.370,66.300,149.662,66.787C149.857,66.983,150.150,67.178,150.443,67.178C150.638,67.178,150.833,67.080,151.028,66.983L154.148,64.447C154.733,65.227,155.512,65.910,156.390,66.495L155.025,70.102C154.732,70.590,154.927,71.175,155.415,71.370ZZ"/></g></g><g id="shape-537296e8-edae-8085-8002-c25c67b90236"><g class="fills" id="fills-537296e8-edae-8085-8002-c25c67b90236"><path class="st0" rx="0" ry="0" d="M204.847,80.047C204.847,80.632,205.335,81.217,206.017,81.217L208.455,81.217C209.235,83.558,210.892,85.507,213.135,86.678C214.597,87.457,216.157,87.847,217.717,87.847C218.692,87.847,219.667,87.653,220.642,87.360C221.227,87.165,221.715,86.970,222.300,86.678C222.592,86.483,222.885,86.190,222.982,85.800C223.080,85.410,223.080,85.020,222.885,84.727C222.495,84.045,221.715,83.753,221.130,84.045L221.032,84.142C219.375,85.020,217.522,85.117,215.670,84.630C213.915,84.045,212.452,82.875,211.672,81.217L216.937,81.217C217.522,81.217,218.107,80.730,218.107,80.047C218.107,79.462,217.620,78.878,216.937,78.878L210.892,78.878C210.795,78.195,210.795,77.513,210.892,76.928L216.937,76.928C217.522,76.928,218.107,76.440,218.107,75.757C218.107,75.075,217.620,74.587,216.937,74.587L211.575,74.587C213.232,71.467,217.035,70.005,220.350,71.370C220.545,71.467,220.740,71.565,220.935,71.662C221.617,72.053,222.495,71.760,222.885,71.078C223.275,70.395,222.982,69.517,222.300,69.128C219.960,67.957,217.327,67.665,214.792,68.445C212.257,69.225,210.210,70.980,209.040,73.320C208.845,73.710,208.650,74.100,208.552,74.587L206.115,74.587C205.822,74.587,205.530,74.685,205.335,74.880C205.140,75.075,205.042,75.367,205.042,75.660C205.042,76.245,205.530,76.830,206.212,76.830L208.162,76.830C208.065,77.513,208.065,78.195,208.162,78.780L206.212,78.780C205.432,78.975,204.847,79.462,204.847,80.047ZZ"/></g></g></g></g></svg>