<svg xmlns="http://www.w3.org/2000/svg" id="screenshot-471d1b56-7c24-80ba-8002-caf7809200e6" width="362" height="343.9" fill="none" style="-webkit-print-color-adjust:exact" version="1.1" viewBox="-11 -1 362 343.9"><g xml:space="preserve" id="shape-471d1b56-7c24-80ba-8002-caf7809200e6" style="fill:#000" transform="translate(-4)"><g id="shape-471d1b56-7c24-80ba-8002-caf780936edd"><style id="style3095" type="text/css">.st0{fill:#004b00}</style></g><g id="shape-471d1b56-7c24-80ba-8002-caf78093fd5f" style="fill:#000"><g id="shape-471d1b56-7c24-80ba-8002-caf7809652d5"><g id="fills-471d1b56-7c24-80ba-8002-caf7809652d5" class="fills"><path id="path3098" d="m264.32 78.68-15.89 10.63 1.66 2.44 15.89-10.63a6.73 6.73 0 0 0 1.75 1.56l-6.82 11.5 2.54 1.47 6.82-11.5c.88.38 1.85.58 2.83.67l-.1 10.54h2.92l.1-10.53c.88-.1 1.76-.4 2.64-.69l18.03 30.32 2.54-1.46-17.94-30.22c.29-.2.58-.49.88-.69.39-.39.78-.78 1.07-1.17l37.53 19.21 1.37-2.63-37.44-19.11c.39-.88.68-1.75.78-2.63l40.85 2.34.2-2.93-40.95-2.34a10.5 10.5 0 0 0-.69-3.02l23.9-14.23-1.47-2.54-23.7 14.24c-.29-.4-.58-.78-.87-1.08-.3-.39-.68-.68-1.07-.97l10.04-16.48-2.54-1.56-9.94 16.48a13.6 13.6 0 0 0-2.83-.88l.49-21.94-2.92-.1-.5 21.94c-.97.1-1.94.3-2.82.59L261.3 46.3l-2.54 1.37 9.27 16.87a11.53 11.53 0 0 0-3.03 3.12l-29.83-19.31-1.56 2.44 30.22 19.6c-.29.97-.48 1.95-.48 2.92v.39H226.2v2.93h37.44c.1.68.39 1.36.68 2.04zm10.14-13.26h.4a8.37 8.37 0 0 1 5.74 2.64 9.03 9.03 0 0 1 2.25 5.94 8.37 8.37 0 0 1-2.64 5.76 8.67 8.67 0 0 1-5.94 2.24 8.33 8.33 0 0 1-8-8.68c0-4.39 3.7-7.9 8.2-7.9z" class="st0"/></g></g><g id="shape-471d1b56-7c24-80ba-8002-caf780969a99"><g id="fills-471d1b56-7c24-80ba-8002-caf780969a99" class="fills"><rect id="rect3102" width="20.96" height="2.92" x="212.08" y="106.97" class="st0" rx="0" ry="0" transform="rotate(-34 222.56 108.43)"/></g></g><g id="shape-471d1b56-7c24-80ba-8002-caf780972434"><g id="fills-471d1b56-7c24-80ba-8002-caf780972434" class="fills"><rect id="rect3106" width="7.21" height="2.92" x="254.46" y="100.37" class="st0" rx="0" ry="0" transform="rotate(-59 258.07 101.83)"/></g></g><g id="shape-471d1b56-7c24-80ba-8002-caf780977e29"><g id="fills-471d1b56-7c24-80ba-8002-caf780977e29" class="fills"><rect id="rect3110" width="7.99" height="2.92" x="248.57" y="109.48" class="st0" rx="0" ry="0" transform="rotate(-59 252.57 110.95)"/></g></g><g id="shape-471d1b56-7c24-80ba-8002-caf780980184"><g id="fills-471d1b56-7c24-80ba-8002-caf780980184" class="fills"><rect id="rect3114" width="9.36" height="2.93" x="269.77" y="102.27" class="st0" rx="0" ry="0" transform="rotate(-90 274.45 103.74)"/></g></g><g id="shape-471d1b56-7c24-80ba-8002-caf7809851d5"><g id="fills-471d1b56-7c24-80ba-8002-caf7809851d5" class="fills"><rect id="rect3118" width="13.36" height="2.92" x="233.21" y="95.34" class="st0" rx="0" ry="0" transform="rotate(-34 239.9 96.8)"/></g></g><g id="shape-471d1b56-7c24-80ba-8002-caf78098b408"><g id="fills-471d1b56-7c24-80ba-8002-caf78098b408" class="fills"><rect id="rect3122" width="8.77" height="1.95" x="65.91" y="23.2" class="st0" rx="0" ry="0"/></g></g><g id="shape-471d1b56-7c24-80ba-8002-caf78098fd70"><g id="fills-471d1b56-7c24-80ba-8002-caf78098fd70" class="fills"><rect id="rect3126" width="8.77" height="1.95" x="79.56" y="23.2" class="st0" rx="0" ry="0"/></g></g><g id="shape-471d1b56-7c24-80ba-8002-caf78098fd71"><g id="fills-471d1b56-7c24-80ba-8002-caf78098fd71" class="fills"><rect id="rect3130" width="8.77" height="1.95" x="160.19" y="310.15" class="st0" rx="0" ry="0"/></g></g><g id="shape-471d1b56-7c24-80ba-8002-caf780992f46"><g id="fills-471d1b56-7c24-80ba-8002-caf780992f46" class="fills"><rect id="rect3134" width="8.77" height="1.95" x="78.29" y="310.15" class="st0" rx="0" ry="0"/></g></g><g id="shape-471d1b56-7c24-80ba-8002-caf780994933"><g id="fills-471d1b56-7c24-80ba-8002-caf780994933" class="fills"><rect id="rect3138" width="8.77" height="1.95" x="64.64" y="310.15" class="st0" rx="0" ry="0"/></g></g><g id="shape-471d1b56-7c24-80ba-8002-caf78099841b"><g id="fills-471d1b56-7c24-80ba-8002-caf78099841b" class="fills"><path id="path3142" d="M35.88 32.56 34.71 31a43.2 43.2 0 0 0-6.73 5.95l1.47 1.27c1.95-2.05 4.09-4 6.43-5.65z" class="st0"/></g></g><g id="shape-471d1b56-7c24-80ba-8002-caf7809a2835"><g id="fills-471d1b56-7c24-80ba-8002-caf7809a2835" class="fills"><path id="path3146" d="M37.93 306.35a44 44 0 0 0 8.19 3.7l.58-1.85a37.48 37.48 0 0 1-7.8-3.51z" class="st0"/></g></g><g id="shape-471d1b56-7c24-80ba-8002-caf7809a4860"><g id="fills-471d1b56-7c24-80ba-8002-caf7809a4860" class="fills"><path id="path3150" d="m51.28 309.37-.39 1.95c2.73.48 5.46.78 8.3.78h.67v-1.95h-.68c-2.73 0-5.36-.3-7.9-.78z" class="st0"/></g></g><g id="shape-471d1b56-7c24-80ba-8002-caf7809abf80"><g id="fills-471d1b56-7c24-80ba-8002-caf7809abf80" class="fills"><path id="path3154" d="m47.77 26.81-.58-1.85a51.22 51.22 0 0 0-8.29 3.41l.98 1.76a34.8 34.8 0 0 1 7.9-3.32z" class="st0"/></g></g><g id="shape-471d1b56-7c24-80ba-8002-caf7809af0c7"><g id="fills-471d1b56-7c24-80ba-8002-caf7809af0c7" class="fills"><rect id="rect3158" width="8.77" height="1.95" x="120.51" y="23.2" class="st0" rx="0" ry="0"/></g></g><g id="shape-471d1b56-7c24-80ba-8002-caf7809af0c8"><g id="fills-471d1b56-7c24-80ba-8002-caf7809af0c8" class="fills"><rect id="rect3162" width="8.77" height="1.95" x="134.16" y="23.2" class="st0" rx="0" ry="0"/></g></g><g id="shape-471d1b56-7c24-80ba-8002-caf7809b73ef"><g id="fills-471d1b56-7c24-80ba-8002-caf7809b73ef" class="fills"><rect id="rect3166" width="8.77" height="1.95" x="132.89" y="310.15" class="st0" rx="0" ry="0"/></g></g><g id="shape-471d1b56-7c24-80ba-8002-caf7809b73f0"><g id="fills-471d1b56-7c24-80ba-8002-caf7809b73f0" class="fills"><rect id="rect3170" width="8.77" height="1.95" x="146.54" y="310.15" class="st0" rx="0" ry="0"/></g></g><g id="shape-471d1b56-7c24-80ba-8002-caf7809ba796"><g id="fills-471d1b56-7c24-80ba-8002-caf7809ba796" class="fills"><path id="path3174" d="m28.66 296.1-1.46 1.27a48.72 48.72 0 0 0 6.54 6.15l1.16-1.56a35.32 35.32 0 0 1-6.23-5.85z" class="st0"/></g></g><g id="shape-471d1b56-7c24-80ba-8002-caf7809c0c7b"><g id="fills-471d1b56-7c24-80ba-8002-caf7809c0c7b" class="fills"><rect id="rect3178" width="8.77" height="1.95" x="147.81" y="23.2" class="st0" rx="0" ry="0"/></g></g><g id="shape-471d1b56-7c24-80ba-8002-caf7809c0c7c"><g id="fills-471d1b56-7c24-80ba-8002-caf7809c0c7c" class="fills"><rect id="rect3182" width="8.77" height="1.95" x="105.59" y="310.15" class="st0" rx="0" ry="0"/></g></g><g id="shape-471d1b56-7c24-80ba-8002-caf7809c75f8"><g id="fills-471d1b56-7c24-80ba-8002-caf7809c75f8" class="fills"><rect id="rect3186" width="8.77" height="1.95" x="93.21" y="23.2" class="st0" rx="0" ry="0"/></g></g><g id="shape-471d1b56-7c24-80ba-8002-caf7809c9493"><g id="fills-471d1b56-7c24-80ba-8002-caf7809c9493" class="fills"><rect id="rect3190" width="8.77" height="1.95" x="91.94" y="310.15" class="st0" rx="0" ry="0"/></g></g><g id="shape-471d1b56-7c24-80ba-8002-caf7809ce079"><g id="fills-471d1b56-7c24-80ba-8002-caf7809ce079" class="fills"><rect id="rect3194" width="8.77" height="1.95" x="106.86" y="23.2" class="st0" rx="0" ry="0"/></g></g><g id="shape-471d1b56-7c24-80ba-8002-caf7809ce07a"><g id="fills-471d1b56-7c24-80ba-8002-caf7809ce07a" class="fills"><rect id="rect3198" width="8.77" height="1.95" x="119.24" y="310.15" class="st0" rx="0" ry="0"/></g></g><g id="shape-471d1b56-7c24-80ba-8002-caf7809d6f2e"><g id="fills-471d1b56-7c24-80ba-8002-caf7809d6f2e" class="fills"><path id="path3202" d="M59.18 25.16h1.86V23.2h-1.86c-2.34 0-4.68.19-7.02.58l.3 1.95c2.14-.39 4.38-.58 6.72-.58z" class="st0"/></g></g><g id="shape-471d1b56-7c24-80ba-8002-caf7809d80e6"><g id="fills-471d1b56-7c24-80ba-8002-caf7809d80e6" class="fills"><rect id="rect3206" width="1.95" height="8.77" x="17.06" y="121.68" class="st0" rx="0" ry="0"/></g></g><g id="shape-471d1b56-7c24-80ba-8002-caf7809d80e7"><g id="fills-471d1b56-7c24-80ba-8002-caf7809d80e7" class="fills"><rect id="rect3210" width="1.95" height="8.77" x="17.06" y="108.03" class="st0" rx="0" ry="0"/></g></g><g id="shape-471d1b56-7c24-80ba-8002-caf7809ddc9e"><g id="fills-471d1b56-7c24-80ba-8002-caf7809ddc9e" class="fills"><rect id="rect3214" width="1.95" height="8.77" x="17.06" y="94.38" class="st0" rx="0" ry="0"/></g></g><g id="shape-471d1b56-7c24-80ba-8002-caf7809e3b0b"><g id="fills-471d1b56-7c24-80ba-8002-caf7809e3b0b" class="fills"><rect id="rect3218" width="1.95" height="8.77" x="17.06" y="135.33" class="st0" rx="0" ry="0"/></g></g><g id="shape-471d1b56-7c24-80ba-8002-caf7809e6dba"><g id="fills-471d1b56-7c24-80ba-8002-caf7809e6dba" class="fills"><rect id="rect3222" width="1.95" height="8.77" x="17.06" y="148.98" class="st0" rx="0" ry="0"/></g></g><g id="shape-471d1b56-7c24-80ba-8002-caf7809ebb26"><g id="fills-471d1b56-7c24-80ba-8002-caf7809ebb26" class="fills"><path id="path3226" d="m20.48 48.65 1.75.78a39.28 39.28 0 0 1 4.2-7.4l-1.57-1.18a40.98 40.98 0 0 0-4.38 7.8z" class="st0"/></g></g><g id="shape-471d1b56-7c24-80ba-8002-caf7809ebb27"><g id="fills-471d1b56-7c24-80ba-8002-caf7809ebb27" class="fills"><rect id="rect3230" width="1.95" height="8.77" x="17.06" y="162.63" class="st0" rx="0" ry="0"/></g></g><g id="shape-471d1b56-7c24-80ba-8002-caf7809edd1e"><g id="fills-471d1b56-7c24-80ba-8002-caf7809edd1e" class="fills"><path id="path3234" d="m20.67 53.92-1.85-.59a38.53 38.53 0 0 0-1.56 8.78l1.95.1c.1-2.73.68-5.56 1.46-8.3z" class="st0"/></g></g><g id="shape-471d1b56-7c24-80ba-8002-caf7809f3dab"><g id="fills-471d1b56-7c24-80ba-8002-caf7809f3dab" class="fills"><path id="path3238" d="M332.96 56.35a37.7 37.7 0 0 0-2.82-8.48l-1.76.78a49.33 49.33 0 0 1 2.73 8.1z" class="st0"/></g></g><g id="shape-471d1b56-7c24-80ba-8002-caf7809f6641"><g id="fills-471d1b56-7c24-80ba-8002-caf7809f6641" class="fills"><rect id="rect3242" width="1.95" height="8.77" x="17.06" y="67.08" class="st0" rx="0" ry="0"/></g></g><g id="shape-471d1b56-7c24-80ba-8002-caf7809f8670"><g id="fills-471d1b56-7c24-80ba-8002-caf7809f8670" class="fills"><rect id="rect3246" width="1.95" height="8.77" x="17.06" y="80.73" class="st0" rx="0" ry="0"/></g></g><g id="shape-471d1b56-7c24-80ba-8002-caf7809f8671"><g id="fills-471d1b56-7c24-80ba-8002-caf7809f8671" class="fills"><rect id="rect3250" width="1.95" height="8.77" x="17.06" y="244.53" class="st0" rx="0" ry="0"/></g></g><g id="shape-471d1b56-7c24-80ba-8002-caf7809fe324"><g id="fills-471d1b56-7c24-80ba-8002-caf7809fe324" class="fills"><rect id="rect3254" width="1.95" height="8.77" x="17.06" y="176.28" class="st0" rx="0" ry="0"/></g></g><g id="shape-471d1b56-7c24-80ba-8002-caf780a02007"><g id="fills-471d1b56-7c24-80ba-8002-caf780a02007" class="fills"><path id="path3258" d="m19.01 271.83-1.95.1c.1 3.02.59 5.94 1.37 8.87l1.85-.49a51.02 51.02 0 0 1-1.27-8.48z" class="st0"/></g></g><g id="shape-471d1b56-7c24-80ba-8002-caf780a06c7b"><g id="fills-471d1b56-7c24-80ba-8002-caf780a06c7b" class="fills"><path id="path3262" d="M19.99 285.48a40.9 40.9 0 0 0 4.19 7.9l1.66-1.07a40.28 40.28 0 0 1-4-7.61z" class="st0"/></g></g><g id="shape-471d1b56-7c24-80ba-8002-caf780a06c7c"><g id="fills-471d1b56-7c24-80ba-8002-caf780a06c7c" class="fills"><rect id="rect3266" width="1.95" height="8.77" x="17.06" y="258.18" class="st0" rx="0" ry="0"/></g></g><g id="shape-471d1b56-7c24-80ba-8002-caf780a095c1"><g id="fills-471d1b56-7c24-80ba-8002-caf780a095c1" class="fills"><rect id="rect3270" width="1.95" height="8.77" x="17.06" y="203.58" class="st0" rx="0" ry="0"/></g></g><g id="shape-471d1b56-7c24-80ba-8002-caf780a095c2"><g id="fills-471d1b56-7c24-80ba-8002-caf780a095c2" class="fills"><rect id="rect3274" width="1.95" height="8.77" x="17.06" y="189.93" class="st0" rx="0" ry="0"/></g></g><g id="shape-471d1b56-7c24-80ba-8002-caf780a0c522"><g id="fills-471d1b56-7c24-80ba-8002-caf780a0c522" class="fills"><rect id="rect3278" width="1.95" height="8.77" x="17.06" y="230.88" class="st0" rx="0" ry="0"/></g></g><g id="shape-471d1b56-7c24-80ba-8002-caf780a0c523"><g id="fills-471d1b56-7c24-80ba-8002-caf780a0c523" class="fills"><rect id="rect3282" width="1.95" height="8.77" x="17.06" y="217.23" class="st0" rx="0" ry="0"/></g></g><g id="shape-471d1b56-7c24-80ba-8002-caf780a11ff7"><g id="fills-471d1b56-7c24-80ba-8002-caf780a11ff7" class="fills"><rect id="rect3286" width="8.77" height="1.95" x="255.74" y="310.15" class="st0" rx="0" ry="0"/></g></g><g id="shape-471d1b56-7c24-80ba-8002-caf780a11ff8"><g id="fills-471d1b56-7c24-80ba-8002-caf780a11ff8" class="fills"><rect id="rect3290" width="1.95" height="8.77" x="331.99" y="238.88" class="st0" rx="0" ry="0"/></g></g><g id="shape-471d1b56-7c24-80ba-8002-caf780a15453"><g id="fills-471d1b56-7c24-80ba-8002-caf780a15453" class="fills"><rect id="rect3294" width="1.95" height="8.77" x="331.99" y="252.52" class="st0" rx="0" ry="0"/></g></g><g id="shape-471d1b56-7c24-80ba-8002-caf780a1b53b"><g id="fills-471d1b56-7c24-80ba-8002-caf780a1b53b" class="fills"><rect id="rect3298" width="1.95" height="8.77" x="331.99" y="184.27" class="st0" rx="0" ry="0"/></g></g><g id="shape-471d1b56-7c24-80ba-8002-caf780a1b53c"><g id="fills-471d1b56-7c24-80ba-8002-caf780a1b53c" class="fills"><rect id="rect3302" width="1.95" height="8.77" x="331.99" y="211.57" class="st0" rx="0" ry="0"/></g></g><g id="shape-471d1b56-7c24-80ba-8002-caf780a1ee39"><g id="fills-471d1b56-7c24-80ba-8002-caf780a1ee39" class="fills"><rect id="rect3306" width="1.95" height="8.77" x="331.99" y="197.93" class="st0" rx="0" ry="0"/></g></g><g id="shape-471d1b56-7c24-80ba-8002-caf780a1ee3a"><g id="fills-471d1b56-7c24-80ba-8002-caf780a1ee3a" class="fills"><rect id="rect3310" width="1.95" height="8.77" x="331.99" y="225.23" class="st0" rx="0" ry="0"/></g></g><g id="shape-471d1b56-7c24-80ba-8002-caf780a21cf6"><g id="fills-471d1b56-7c24-80ba-8002-caf780a21cf6" class="fills"><path id="path3314" d="m320.29 298.35 1.36 1.36c2.15-2.14 4-4.48 5.66-7.01l-1.66-1.08a39.62 39.62 0 0 1-5.36 6.73z" class="st0"/></g></g><g id="shape-471d1b56-7c24-80ba-8002-caf780a24708"><g id="fills-471d1b56-7c24-80ba-8002-caf780a24708" class="fills"><path id="path3318" d="M331.99 269.98c0 1.56-.1 3.21-.3 4.77l1.95.2c.2-1.66.3-3.31.3-5.07v-3.7h-1.95z" class="st0"/></g></g><g id="shape-471d1b56-7c24-80ba-8002-caf780a2a8b8"><g id="fills-471d1b56-7c24-80ba-8002-caf780a2a8b8" class="fills"><path id="path3322" d="M320.97 37.73a39.28 39.28 0 0 1 5.17 6.83l1.66-.98a43.1 43.1 0 0 0-5.46-7.12z" class="st0"/></g></g><g id="shape-471d1b56-7c24-80ba-8002-caf780a2f3b4"><g id="fills-471d1b56-7c24-80ba-8002-caf780a2f3b4" class="fills"><path id="path3326" d="m327.99 287.53 1.75.88a43.98 43.98 0 0 0 3.03-8.49l-1.85-.49a38.05 38.05 0 0 1-2.93 8.1z" class="st0"/></g></g><g id="shape-471d1b56-7c24-80ba-8002-caf780a2f3b5"><g id="fills-471d1b56-7c24-80ba-8002-caf780a2f3b5" class="fills"><rect id="rect3330" width="8.77" height="1.95" x="161.46" y="23.2" class="st0" rx="0" ry="0"/></g></g><g id="shape-471d1b56-7c24-80ba-8002-caf780a300ed"><g id="fills-471d1b56-7c24-80ba-8002-caf780a300ed" class="fills"><rect id="rect3334" width="1.95" height="8.77" x="331.99" y="75.07" class="st0" rx="0" ry="0"/></g></g><g id="shape-471d1b56-7c24-80ba-8002-caf780a300ee"><g id="fills-471d1b56-7c24-80ba-8002-caf780a300ee" class="fills"><rect id="rect3338" width="1.95" height="8.77" x="331.99" y="102.38" class="st0" rx="0" ry="0"/></g></g><g id="shape-471d1b56-7c24-80ba-8002-caf780a37b43"><g id="fills-471d1b56-7c24-80ba-8002-caf780a37b43" class="fills"><rect id="rect3342" width="1.95" height="8.77" x="331.99" y="88.72" class="st0" rx="0" ry="0"/></g></g><g id="shape-471d1b56-7c24-80ba-8002-caf780a37b44"><g id="fills-471d1b56-7c24-80ba-8002-caf780a37b44" class="fills"><path id="path3346" d="m333.74 61.33-1.95.2c.1 1.26.2 2.53.2 3.8v4.87h1.95v-4.88c0-1.36-.1-2.72-.2-4z" class="st0"/></g></g><g id="shape-471d1b56-7c24-80ba-8002-caf780a3b77c"><g id="fills-471d1b56-7c24-80ba-8002-caf780a3b77c" class="fills"><rect id="rect3350" width="1.95" height="8.77" x="331.99" y="143.32" class="st0" rx="0" ry="0"/></g></g><g id="shape-471d1b56-7c24-80ba-8002-caf780a3f50f"><g id="fills-471d1b56-7c24-80ba-8002-caf780a3f50f" class="fills"><rect id="rect3354" width="1.95" height="8.77" x="331.99" y="170.63" class="st0" rx="0" ry="0"/></g></g><g id="shape-471d1b56-7c24-80ba-8002-caf780a3f510"><g id="fills-471d1b56-7c24-80ba-8002-caf780a3f510" class="fills"><path id="path3358" d="M318.73 32.95a38.53 38.53 0 0 0-7.51-4.97l-.88 1.76a43.2 43.2 0 0 1 7.12 4.77z" class="st0"/></g></g><g id="shape-471d1b56-7c24-80ba-8002-caf780a4070d"><g id="fills-471d1b56-7c24-80ba-8002-caf780a4070d" class="fills"><rect id="rect3362" width="1.95" height="8.77" x="331.99" y="156.98" class="st0" rx="0" ry="0"/></g></g><g id="shape-471d1b56-7c24-80ba-8002-caf780a4070e"><g id="fills-471d1b56-7c24-80ba-8002-caf780a4070e" class="fills"><rect id="rect3366" width="1.95" height="8.77" x="331.99" y="129.68" class="st0" rx="0" ry="0"/></g></g><g id="shape-471d1b56-7c24-80ba-8002-caf780a44a00"><g id="fills-471d1b56-7c24-80ba-8002-caf780a44a00" class="fills"><rect id="rect3370" width="1.95" height="8.77" x="331.99" y="116.03" class="st0" rx="0" ry="0"/></g></g><g id="shape-471d1b56-7c24-80ba-8002-caf780a44a01"><g id="fills-471d1b56-7c24-80ba-8002-caf780a44a01" class="fills"><rect id="rect3374" width="8.77" height="1.95" x="214.79" y="310.15" class="st0" rx="0" ry="0"/></g></g><g id="shape-471d1b56-7c24-80ba-8002-caf780a4a349"><g id="fills-471d1b56-7c24-80ba-8002-caf780a4a349" class="fills"><rect id="rect3378" width="8.77" height="1.95" x="202.41" y="23.2" class="st0" rx="0" ry="0"/></g></g><g id="shape-471d1b56-7c24-80ba-8002-caf780a4a34a"><g id="fills-471d1b56-7c24-80ba-8002-caf780a4a34a" class="fills"><rect id="rect3382" width="8.77" height="1.95" x="201.14" y="310.15" class="st0" rx="0" ry="0"/></g></g><g id="shape-471d1b56-7c24-80ba-8002-caf780a4eb72"><g id="fills-471d1b56-7c24-80ba-8002-caf780a4eb72" class="fills"><rect id="rect3386" width="8.77" height="1.95" x="228.44" y="310.15" class="st0" rx="0" ry="0"/></g></g><g id="shape-471d1b56-7c24-80ba-8002-caf780a4eb73"><g id="fills-471d1b56-7c24-80ba-8002-caf780a4eb73" class="fills"><rect id="rect3390" width="8.77" height="1.95" x="229.71" y="23.2" class="st0" rx="0" ry="0"/></g></g><g id="shape-471d1b56-7c24-80ba-8002-caf780a53a68"><g id="fills-471d1b56-7c24-80ba-8002-caf780a53a68" class="fills"><rect id="rect3394" width="8.77" height="1.95" x="216.06" y="23.2" class="st0" rx="0" ry="0"/></g></g><g id="shape-471d1b56-7c24-80ba-8002-caf780a53a69"><g id="fills-471d1b56-7c24-80ba-8002-caf780a53a69" class="fills"><rect id="rect3398" width="8.77" height="1.95" x="173.84" y="310.15" class="st0" rx="0" ry="0"/></g></g><g id="shape-471d1b56-7c24-80ba-8002-caf780a561b7"><g id="fills-471d1b56-7c24-80ba-8002-caf780a561b7" class="fills"><rect id="rect3402" width="8.77" height="1.95" x="188.76" y="23.2" class="st0" rx="0" ry="0"/></g></g><g id="shape-471d1b56-7c24-80ba-8002-caf780a561b8"><g id="fills-471d1b56-7c24-80ba-8002-caf780a561b8" class="fills"><rect id="rect3406" width="8.77" height="1.95" x="175.11" y="23.2" class="st0" rx="0" ry="0"/></g></g><g id="shape-471d1b56-7c24-80ba-8002-caf780a5b902"><g id="fills-471d1b56-7c24-80ba-8002-caf780a5b902" class="fills"><rect id="rect3410" width="8.77" height="1.95" x="187.49" y="310.15" class="st0" rx="0" ry="0"/></g></g><g id="shape-471d1b56-7c24-80ba-8002-caf780a5c3e4"><g id="fills-471d1b56-7c24-80ba-8002-caf780a5c3e4" class="fills"><path id="path3414" d="m296.79 309.86.2 1.95a45.76 45.76 0 0 0 8.77-2.05l-.68-1.85a39.46 39.46 0 0 1-8.29 1.95z" class="st0"/></g></g><g id="shape-471d1b56-7c24-80ba-8002-caf780a5c3e5"><g id="fills-471d1b56-7c24-80ba-8002-caf780a5c3e5" class="fills"><rect id="rect3418" width="8.77" height="1.95" x="242.09" y="310.15" class="st0" rx="0" ry="0"/></g></g><g id="shape-471d1b56-7c24-80ba-8002-caf780a60a9d"><g id="fills-471d1b56-7c24-80ba-8002-caf780a60a9d" class="fills"><path id="path3422" d="m309.46 306.05.88 1.76a38.38 38.38 0 0 0 7.6-4.78l-1.16-1.56a41.54 41.54 0 0 1-7.31 4.58z" class="st0"/></g></g><g id="shape-471d1b56-7c24-80ba-8002-caf780a653b4"><g id="fills-471d1b56-7c24-80ba-8002-caf780a653b4" class="fills"><path id="path3426" d="m293.08 25.16.1-1.95h-8.87v1.95h8.77z" class="st0"/></g></g><g id="shape-471d1b56-7c24-80ba-8002-caf780a6883c"><g id="fills-471d1b56-7c24-80ba-8002-caf780a6883c" class="fills"><path id="path3430" d="M306.74 25.93a39.17 39.17 0 0 0-8.68-2.24l-.3 1.95c2.83.4 5.66 1.17 8.3 2.15z" class="st0"/></g></g><g id="shape-471d1b56-7c24-80ba-8002-caf780a6883d"><g id="fills-471d1b56-7c24-80ba-8002-caf780a6883d" class="fills"><rect id="rect3434" width="8.97" height="1.95" x="283.04" y="310.15" class="st0" rx="0" ry="0"/></g></g><g id="shape-471d1b56-7c24-80ba-8002-caf780a6c2b7"><g id="fills-471d1b56-7c24-80ba-8002-caf780a6c2b7" class="fills"><rect id="rect3438" width="8.77" height="1.95" x="257.01" y="23.2" class="st0" rx="0" ry="0"/></g></g><g id="shape-471d1b56-7c24-80ba-8002-caf780a6c2b8"><g id="fills-471d1b56-7c24-80ba-8002-caf780a6c2b8" class="fills"><rect id="rect3442" width="8.77" height="1.95" x="270.66" y="23.2" class="st0" rx="0" ry="0"/></g></g><g id="shape-471d1b56-7c24-80ba-8002-caf780a72fd5"><g id="fills-471d1b56-7c24-80ba-8002-caf780a72fd5" class="fills"><rect id="rect3446" width="8.77" height="1.95" x="243.36" y="23.2" class="st0" rx="0" ry="0"/></g></g><g id="shape-471d1b56-7c24-80ba-8002-caf780a72fd6"><g id="fills-471d1b56-7c24-80ba-8002-caf780a72fd6" class="fills"><rect id="rect3450" width="8.77" height="1.95" x="269.39" y="310.15" class="st0" rx="0" ry="0"/></g></g><g id="shape-471d1b56-7c24-80ba-8002-caf780a9a240"><g id="fills-471d1b56-7c24-80ba-8002-caf780a9a240" class="fills"><path id="path3454" d="M128.21 100.62a4.37 4.37 0 0 0 4.39 4.39h5.56v166.63H113.2V226h10.72a3.45 3.45 0 0 0 3.41-3.42v-6.73a3.45 3.45 0 0 0-3.4-3.4H95.54v-16.49l10.63-3.7-5.76-8.29-46.99 16.38 5.75 8.29 6.73-2.34v6.14H33.74a3.46 3.46 0 0 0-3.42 3.41v6.73a3.46 3.46 0 0 0 3.41 3.41h7.9v47.1h2.93V226h65.71v48.56h29.35a1.5 1.5 0 0 0 1.46-1.46V105h62.2v167.22c0 .78.69 1.46 1.47 1.46l98.77-.2v-2.92l-29.93.1v-11.6h20.57c.48 0 .87-.2 1.17-.59.29-.39.39-.88.29-1.27l-7.8-28.17c-.2-.59-.78-1.08-1.36-1.08h-42.8c-.69 0-1.28.5-1.47 1.08l-7.12 28.17c-.1.4 0 .88.3 1.27.29.4.68.59 1.17.59h21.74v11.7l-52.07.1V105.1h4a4.37 4.37 0 0 0 4.39-4.38v-4.59a4.37 4.37 0 0 0-4.39-4.38h-31.88V77.5h17.94c.39 0 .78-.2.97-.48.3-.3.3-.69.2-1.08l-7.22-26.9c-.2-.6-.68-.98-1.27-.98h-33.54c-.58 0-1.07.39-1.26.97l-7.22 26.91c-.1.4 0 .78.2 1.08.2.29.58.48.97.48h17.94v14.14H132.6a4.37 4.37 0 0 0-4.39 4.39zm-70.2 101.3 41.24-14.33 2.25 3.22-41.24 14.33zm10.73 3.42 23.79-8.3v15.41h-23.8zm-35.5 17.25v-6.72c0-.3.2-.5.5-.5h90.18c.3 0 .49.2.49.5v6.72c0 .3-.2.49-.49.49H33.73c-.19 0-.48-.2-.48-.49zm220.84 15.31h9.75l.1 7.21H253.5Zm-3.6 7.21h-9.36l1.85-7.21h8.19zm38.7 0h-8.87l-.58-7.21h7.5zm-11.8 0h-10.52l-.1-7.21h10.04zm-10.62-10.14v-4.19h9.46l.39 4.2zm-2.92 0h-9.46l.39-4.19h9.06zm.1 13.07.09 8.1h-11.5l.68-8.1zm3.01 8-.1-8.1h10.73l.69 8.1zm14.24 0-.68-8.1h9.45l2.25 8.1zm5.26-21.06h-6.92l-.39-4.2h6.14zm-34.7-4.2-.4 4.2h-7.7l1.07-4.2zm-11.32 17.26h9.85l-.68 8.1h-11.12zm20.77 10.92h9.46v11.6h-9.46zM165.75 74.98l.58-6.44h12l.58 6.44zm-11.6-15.4h10.33L163.9 66h-11.5zm12.96 0h10.44l.58 6.43h-11.5zm.2-2.54.58-6.44h8.78l.59 6.44zM192.17 66h-11.5l-.59-6.44h10.34zm-10.72 8.97-.59-6.44h12l1.65 6.44zm8.38-17.94h-9.94l-.59-6.44h8.78zm-33.25-6.44h8.78l-.58 6.44h-9.95zm-4.87 17.94h12l-.6 6.44h-13.06zm17.16 8.97h6.83v14.14h-6.83zm-37.73 18.53c0-.78.68-1.47 1.46-1.47h77.61c.78 0 1.46.69 1.46 1.47v4.58a1.5 1.5 0 0 1-1.46 1.46H132.6a1.5 1.5 0 0 1-1.46-1.46z" class="st0"/></g></g><g id="shape-471d1b56-7c24-80ba-8002-caf780a9ccd4"><g id="fills-471d1b56-7c24-80ba-8002-caf780a9ccd4" class="fills"><rect id="rect3458" width="3.9" height="17.65" x="157.27" y="160.09" class="st0" rx="0" ry="0"/></g></g><g id="shape-471d1b56-7c24-80ba-8002-caf780aa1424"><g id="fills-471d1b56-7c24-80ba-8002-caf780aa1424" class="fills"><rect id="rect3462" width="3.9" height="17.65" x="157.27" y="199" class="st0" rx="0" ry="0"/></g></g><g id="shape-471d1b56-7c24-80ba-8002-caf780aa1425"><g id="fills-471d1b56-7c24-80ba-8002-caf780aa1425" class="fills"><rect id="rect3466" width="3.9" height="17.65" x="183.1" y="160.09" class="st0" rx="0" ry="0"/></g></g><g id="shape-471d1b56-7c24-80ba-8002-caf780aa63fd"><g id="fills-471d1b56-7c24-80ba-8002-caf780aa63fd" class="fills"><rect id="rect3470" width="3.9" height="17.65" x="157.27" y="120.12" class="st0" rx="0" ry="0"/></g></g><g id="shape-471d1b56-7c24-80ba-8002-caf780aaa031"><g id="fills-471d1b56-7c24-80ba-8002-caf780aaa031" class="fills"><rect id="rect3474" width="3.9" height="17.65" x="183.1" y="120.12" class="st0" rx="0" ry="0"/></g></g><g id="shape-471d1b56-7c24-80ba-8002-caf780abad0a"><g id="fills-471d1b56-7c24-80ba-8002-caf780abad0a" class="fills"><path id="path3478" d="M97.2 245.12a5.48 5.48 0 0 1 4.88-1.95l.2-2.93a8.7 8.7 0 0 0-6.24 1.85c-1.27-5.07-5.27-8.38-10.73-8.38H69.22c-5.16 0-9.26 3.41-10.72 8.38a8.6 8.6 0 0 0-6.14-1.85l.2 2.92c2.53-.19 4.09.98 4.87 1.96-5.76 2.73-8.2 6.63-8.1 12.77v5.75c0 .88.5 2.34 1.56 3.32V269c0 1.95 1.66 3.61 3.61 3.61h4.97c1.95 0 3.61-1.66 3.61-3.6v-3.03l.78-.49h26.81l.78.4v3.02c0 1.95 1.66 3.6 3.61 3.6h4.98c1.94 0 3.6-1.65 3.6-3.6v-1.95a5.11 5.11 0 0 0 1.66-3.42V258c.1-6.24-2.34-10.14-8.1-12.87zM60.26 268.9c0 .39-.29.68-.68.68H54.6a.67.67 0 0 1-.68-.68v-.98h5.65l.69-.39zm2.93-6.44-4.39 2.54h-5.17c-1.07-.3-1.26-1.37-1.26-1.66v-5.56c-.1-5.46 1.95-8.29 7.5-10.53h15.7v-2.92H61.03c.59-4.49 3.8-7.7 8.2-7.7H85.3c5.46 0 7.7 3.7 8.2 7.7h-6.93v2.92h8.29c5.56 2.24 7.6 5.17 7.5 10.63v5.56c0 .1-.1 1.36-1.26 1.65h-5.17l-4.39-2.53zm36.85 7.12h-4.97a.67.67 0 0 1-.68-.68v-1.37l.68.39h5.66v.88c0 .49-.3.78-.69.78z" class="st0"/></g></g><g id="shape-471d1b56-7c24-80ba-8002-caf780abff8c"><g id="fills-471d1b56-7c24-80ba-8002-caf780abff8c" class="fills"><path id="path3482" d="M60.74 252.62c-.87-.1-3.21 0-3.41 0a3.25 3.25 0 0 0-3.22 3.22v1.66a3.25 3.25 0 0 0 3.22 3.22h7.12l.1-1.37c.29-3.9-1.17-6.43-3.8-6.73zm-3.41 5.07c-.1 0-.3-.1-.3-.29v-1.66c0-.1.1-.29.3-.29h3.02c.78.1 1.08 1.17 1.17 2.15z" class="st0"/></g></g><g id="shape-471d1b56-7c24-80ba-8002-caf780ac6f54"><g id="fills-471d1b56-7c24-80ba-8002-caf780ac6f54" class="fills"><path id="path3486" d="M100.81 257.4v-1.66a3.23 3.23 0 0 0-3.12-3.22c-.29 0-2.53-.1-3.4 0-2.64.3-4.1 2.83-3.81 6.63l.1 1.37h7.11c1.76.1 3.12-1.36 3.12-3.12zm-6.24-1.95c.5-.1 2.15 0 3.03 0 .1 0 .29.1.29.3v1.65c0 .1-.1.3-.3.3h-4.28c.2-1.08.48-2.15 1.26-2.25z" class="st0"/></g></g><g id="shape-471d1b56-7c24-80ba-8002-caf780acaa58"><g id="fills-471d1b56-7c24-80ba-8002-caf780acaa58" class="fills"><rect id="rect3490" width="12.68" height="2.92" x="71.08" y="254.87" class="st0" rx="0" ry="0"/></g></g><g id="shape-471d1b56-7c24-80ba-8002-caf780acaa59"><g id="fills-471d1b56-7c24-80ba-8002-caf780acaa59" class="fills"><rect id="rect3494" width="30.52" height="2.92" x="284.02" y="279.63" class="st0" rx="0" ry="0"/></g></g><g id="shape-471d1b56-7c24-80ba-8002-caf780acfe2d"><g id="fills-471d1b56-7c24-80ba-8002-caf780acfe2d" class="fills"><path id="path3498" d="m113.3 147.22-1.08-2.73a80.78 80.78 0 0 0-37.83 31.3l2.44 1.56a77.66 77.66 0 0 1 36.47-30.12z" class="st0"/></g></g><g id="shape-471d1b56-7c24-80ba-8002-caf780ad1edd"><g id="fills-471d1b56-7c24-80ba-8002-caf780ad1edd" class="fills"><path id="path3502" d="m262.86 177.45 2.44-1.56a81.36 81.36 0 0 0-37.83-31.3l-1.08 2.73a78.12 78.12 0 0 1 36.47 30.13z" class="st0"/></g></g></g></g></svg>