<svg xmlns="http://www.w3.org/2000/svg" id="screenshot-537296e8-edae-8085-8002-c25c67a15189" width="360" height="336.9" fill="none" style="-webkit-print-color-adjust:exact" version="1.1"><g xml:space="preserve" id="shape-537296e8-edae-8085-8002-c25c67a15189" style="fill:#000" transform="translate(2.97 -4.46)"><g id="shape-537296e8-edae-8085-8002-c25c67a2380d"><style id="style8134" type="text/css">.st0{fill:#004b00}</style></g><g id="shape-537296e8-edae-8085-8002-c25c67a27458" style="fill:#000"><g id="shape-537296e8-edae-8085-8002-c25c67a2dbcb"><g id="fills-537296e8-edae-8085-8002-c25c67a2dbcb" class="fills"><rect id="rect8137" width="8.77" height="1.95" x="65.91" y="23.79" class="st0" rx="0" ry="0"/></g></g><g id="shape-537296e8-edae-8085-8002-c25c67a3024e"><g id="fills-537296e8-edae-8085-8002-c25c67a3024e" class="fills"><rect id="rect8141" width="8.77" height="1.95" x="79.56" y="23.79" class="st0" rx="0" ry="0"/></g></g><g id="shape-537296e8-edae-8085-8002-c25c67a3024f"><g id="fills-537296e8-edae-8085-8002-c25c67a3024f" class="fills"><rect id="rect8145" width="8.77" height="1.95" x="160.19" y="310.64" class="st0" rx="0" ry="0"/></g></g><g id="shape-537296e8-edae-8085-8002-c25c67a30250"><g id="fills-537296e8-edae-8085-8002-c25c67a30250" class="fills"><rect id="rect8149" width="8.77" height="1.95" x="78.29" y="310.64" class="st0" rx="0" ry="0"/></g></g><g id="shape-537296e8-edae-8085-8002-c25c67a34e21"><g id="fills-537296e8-edae-8085-8002-c25c67a34e21" class="fills"><rect id="rect8153" width="8.77" height="1.95" x="64.64" y="310.64" class="st0" rx="0" ry="0"/></g></g><g id="shape-537296e8-edae-8085-8002-c25c67a38d06"><g id="fills-537296e8-edae-8085-8002-c25c67a38d06" class="fills"><path id="path8157" d="m35.88 33.15-1.17-1.56a43.25 43.25 0 0 0-6.73 5.95l1.46 1.26c1.95-2.14 4.1-4 6.44-5.65z" class="st0"/></g></g><g id="shape-537296e8-edae-8085-8002-c25c67a3ee19"><g id="fills-537296e8-edae-8085-8002-c25c67a3ee19" class="fills"><path id="path8161" d="M37.93 306.83a43.97 43.97 0 0 0 8.19 3.7l.58-1.84a37.45 37.45 0 0 1-7.8-3.51z" class="st0"/></g></g><g id="shape-537296e8-edae-8085-8002-c25c67a41b6e"><g id="fills-537296e8-edae-8085-8002-c25c67a41b6e" class="fills"><path id="path8165" d="m51.28 309.86-.39 1.95c2.73.48 5.46.78 8.3.78h.67v-1.95h-.68c-2.73 0-5.36-.2-7.9-.78z" class="st0"/></g></g><g id="shape-537296e8-edae-8085-8002-c25c67a451cc"><g id="fills-537296e8-edae-8085-8002-c25c67a451cc" class="fills"><path id="path8169" d="m47.77 27.3-.58-1.85a51.15 51.15 0 0 0-8.29 3.41l.98 1.75a46.72 46.72 0 0 1 7.9-3.31z" class="st0"/></g></g><g id="shape-537296e8-edae-8085-8002-c25c67a4a8b1"><g id="fills-537296e8-edae-8085-8002-c25c67a4a8b1" class="fills"><rect id="rect8173" width="8.77" height="1.95" x="120.51" y="23.79" class="st0" rx="0" ry="0"/></g></g><g id="shape-537296e8-edae-8085-8002-c25c67a4a8b2"><g id="fills-537296e8-edae-8085-8002-c25c67a4a8b2" class="fills"><rect id="rect8177" width="8.77" height="1.95" x="134.16" y="23.79" class="st0" rx="0" ry="0"/></g></g><g id="shape-537296e8-edae-8085-8002-c25c67a4c9a8"><g id="fills-537296e8-edae-8085-8002-c25c67a4c9a8" class="fills"><rect id="rect8181" width="8.77" height="1.95" x="132.89" y="310.64" class="st0" rx="0" ry="0"/></g></g><g id="shape-537296e8-edae-8085-8002-c25c67a5675a"><g id="fills-537296e8-edae-8085-8002-c25c67a5675a" class="fills"><rect id="rect8185" width="8.77" height="1.95" x="146.54" y="310.64" class="st0" rx="0" ry="0"/></g></g><g id="shape-537296e8-edae-8085-8002-c25c67a5af20"><g id="fills-537296e8-edae-8085-8002-c25c67a5af20" class="fills"><path id="path8189" d="m28.66 296.7-1.46 1.26a48.66 48.66 0 0 0 6.53 6.14l1.18-1.56a44.35 44.35 0 0 1-6.24-5.85z" class="st0"/></g></g><g id="shape-537296e8-edae-8085-8002-c25c67a5af21"><g id="fills-537296e8-edae-8085-8002-c25c67a5af21" class="fills"><rect id="rect8193" width="8.77" height="1.95" x="147.81" y="23.79" class="st0" rx="0" ry="0"/></g></g><g id="shape-537296e8-edae-8085-8002-c25c67a5c035"><g id="fills-537296e8-edae-8085-8002-c25c67a5c035" class="fills"><rect id="rect8197" width="8.77" height="1.95" x="105.59" y="310.64" class="st0" rx="0" ry="0"/></g></g><g id="shape-537296e8-edae-8085-8002-c25c67a5c036"><g id="fills-537296e8-edae-8085-8002-c25c67a5c036" class="fills"><rect id="rect8201" width="8.77" height="1.95" x="93.21" y="23.79" class="st0" rx="0" ry="0"/></g></g><g id="shape-537296e8-edae-8085-8002-c25c67a634b0"><g id="fills-537296e8-edae-8085-8002-c25c67a634b0" class="fills"><rect id="rect8205" width="8.77" height="1.95" x="91.94" y="310.64" class="st0" rx="0" ry="0"/></g></g><g id="shape-537296e8-edae-8085-8002-c25c67a634b1"><g id="fills-537296e8-edae-8085-8002-c25c67a634b1" class="fills"><rect id="rect8209" width="8.77" height="1.95" x="106.86" y="23.79" class="st0" rx="0" ry="0"/></g></g><g id="shape-537296e8-edae-8085-8002-c25c67a634b2"><g id="fills-537296e8-edae-8085-8002-c25c67a634b2" class="fills"><rect id="rect8213" width="8.77" height="1.95" x="119.24" y="310.64" class="st0" rx="0" ry="0"/></g></g><g id="shape-537296e8-edae-8085-8002-c25c67a6690f"><g id="fills-537296e8-edae-8085-8002-c25c67a6690f" class="fills"><path id="path8217" d="M59.18 25.74h1.86v-1.95h-1.86c-2.34 0-4.68.2-7.02.58l.3 1.95c2.14-.39 4.38-.58 6.72-.58z" class="st0"/></g></g><g id="shape-537296e8-edae-8085-8002-c25c67a6925a"><g id="fills-537296e8-edae-8085-8002-c25c67a6925a" class="fills"><rect id="rect8221" width="1.95" height="8.77" x="17.06" y="122.27" class="st0" rx="0" ry="0"/></g></g><g id="shape-537296e8-edae-8085-8002-c25c67a6925b"><g id="fills-537296e8-edae-8085-8002-c25c67a6925b" class="fills"><rect id="rect8225" width="1.95" height="8.77" x="17.06" y="108.61" class="st0" rx="0" ry="0"/></g></g><g id="shape-537296e8-edae-8085-8002-c25c67a6925c"><g id="fills-537296e8-edae-8085-8002-c25c67a6925c" class="fills"><rect id="rect8229" width="1.95" height="8.77" x="17.06" y="94.96" class="st0" rx="0" ry="0"/></g></g><g id="shape-537296e8-edae-8085-8002-c25c67a6eb6c"><g id="fills-537296e8-edae-8085-8002-c25c67a6eb6c" class="fills"><rect id="rect8233" width="1.95" height="8.77" x="17.06" y="135.91" class="st0" rx="0" ry="0"/></g></g><g id="shape-537296e8-edae-8085-8002-c25c67a6eb6d"><g id="fills-537296e8-edae-8085-8002-c25c67a6eb6d" class="fills"><rect id="rect8237" width="1.95" height="8.77" x="17.06" y="149.56" class="st0" rx="0" ry="0"/></g></g><g id="shape-537296e8-edae-8085-8002-c25c67a71a29"><g id="fills-537296e8-edae-8085-8002-c25c67a71a29" class="fills"><path id="path8241" d="m26.52 42.51-1.56-1.17a41.06 41.06 0 0 0-4.39 7.8l1.76.78a40.04 40.04 0 0 1 4.19-7.41z" class="st0"/></g></g><g id="shape-537296e8-edae-8085-8002-c25c67a71a2a"><g id="fills-537296e8-edae-8085-8002-c25c67a71a2a" class="fills"><rect id="rect8245" width="1.95" height="8.77" x="17.06" y="163.22" class="st0" rx="0" ry="0"/></g></g><g id="shape-537296e8-edae-8085-8002-c25c67a751db"><g id="fills-537296e8-edae-8085-8002-c25c67a751db" class="fills"><path id="path8249" d="m20.67 54.4-1.85-.58a38.58 38.58 0 0 0-1.56 8.78l1.95.1c.1-2.74.68-5.57 1.46-8.3z" class="st0"/></g></g><g id="shape-537296e8-edae-8085-8002-c25c67a7b69f"><g id="fills-537296e8-edae-8085-8002-c25c67a7b69f" class="fills"><path id="path8253" d="M332.96 56.94a37.76 37.76 0 0 0-2.82-8.48l-1.76.78a49.37 49.37 0 0 1 2.73 8.09z" class="st0"/></g></g><g id="shape-537296e8-edae-8085-8002-c25c67a7f7e4"><g id="fills-537296e8-edae-8085-8002-c25c67a7f7e4" class="fills"><rect id="rect8257" width="1.95" height="8.77" x="17.06" y="67.67" class="st0" rx="0" ry="0"/></g></g><g id="shape-537296e8-edae-8085-8002-c25c67a7f7e5"><g id="fills-537296e8-edae-8085-8002-c25c67a7f7e5" class="fills"><rect id="rect8261" width="1.95" height="8.77" x="17.06" y="81.32" class="st0" rx="0" ry="0"/></g></g><g id="shape-537296e8-edae-8085-8002-c25c67a83862"><g id="fills-537296e8-edae-8085-8002-c25c67a83862" class="fills"><rect id="rect8265" width="1.95" height="8.77" x="17.06" y="245.12" class="st0" rx="0" ry="0"/></g></g><g id="shape-537296e8-edae-8085-8002-c25c67a83863"><g id="fills-537296e8-edae-8085-8002-c25c67a83863" class="fills"><rect id="rect8269" width="1.95" height="8.77" x="17.06" y="176.87" class="st0" rx="0" ry="0"/></g></g><g id="shape-537296e8-edae-8085-8002-c25c67a86564"><g id="fills-537296e8-edae-8085-8002-c25c67a86564" class="fills"><path id="path8273" d="m19.01 272.32-1.95.1c.1 3.02.59 5.94 1.37 8.87l1.85-.49a48.13 48.13 0 0 1-1.27-8.48z" class="st0"/></g></g><g id="shape-537296e8-edae-8085-8002-c25c67a86565"><g id="fills-537296e8-edae-8085-8002-c25c67a86565" class="fills"><path id="path8277" d="M19.99 286.06a40.8 40.8 0 0 0 4.19 7.9l1.66-1.07a40.22 40.22 0 0 1-4-7.6z" class="st0"/></g></g><g id="shape-537296e8-edae-8085-8002-c25c67a8b25f"><g id="fills-537296e8-edae-8085-8002-c25c67a8b25f" class="fills"><rect id="rect8281" width="1.95" height="8.77" x="17.06" y="258.77" class="st0" rx="0" ry="0"/></g></g><g id="shape-537296e8-edae-8085-8002-c25c67a8b260"><g id="fills-537296e8-edae-8085-8002-c25c67a8b260" class="fills"><rect id="rect8285" width="1.95" height="8.77" x="17.06" y="204.16" class="st0" rx="0" ry="0"/></g></g><g id="shape-537296e8-edae-8085-8002-c25c67a8fa50"><g id="fills-537296e8-edae-8085-8002-c25c67a8fa50" class="fills"><rect id="rect8289" width="1.95" height="8.77" x="17.06" y="190.51" class="st0" rx="0" ry="0"/></g></g><g id="shape-537296e8-edae-8085-8002-c25c67a8fa51"><g id="fills-537296e8-edae-8085-8002-c25c67a8fa51" class="fills"><rect id="rect8293" width="1.95" height="8.77" x="17.06" y="231.47" class="st0" rx="0" ry="0"/></g></g><g id="shape-537296e8-edae-8085-8002-c25c67a8fa52"><g id="fills-537296e8-edae-8085-8002-c25c67a8fa52" class="fills"><rect id="rect8297" width="1.95" height="8.77" x="17.06" y="217.81" class="st0" rx="0" ry="0"/></g></g><g id="shape-537296e8-edae-8085-8002-c25c67a925a4"><g id="fills-537296e8-edae-8085-8002-c25c67a925a4" class="fills"><rect id="rect8301" width="8.77" height="1.95" x="255.74" y="310.64" class="st0" rx="0" ry="0"/></g></g><g id="shape-537296e8-edae-8085-8002-c25c67a925a5"><g id="fills-537296e8-edae-8085-8002-c25c67a925a5" class="fills"><rect id="rect8305" width="1.95" height="8.77" x="331.99" y="239.36" class="st0" rx="0" ry="0"/></g></g><g id="shape-537296e8-edae-8085-8002-c25c67a96374"><g id="fills-537296e8-edae-8085-8002-c25c67a96374" class="fills"><rect id="rect8309" width="1.95" height="8.77" x="331.99" y="253.01" class="st0" rx="0" ry="0"/></g></g><g id="shape-537296e8-edae-8085-8002-c25c67a96375"><g id="fills-537296e8-edae-8085-8002-c25c67a96375" class="fills"><rect id="rect8313" width="1.95" height="8.77" x="331.99" y="184.76" class="st0" rx="0" ry="0"/></g></g><g id="shape-537296e8-edae-8085-8002-c25c67a96376"><g id="fills-537296e8-edae-8085-8002-c25c67a96376" class="fills"><rect id="rect8317" width="1.95" height="8.77" x="331.99" y="212.06" class="st0" rx="0" ry="0"/></g></g><g id="shape-537296e8-edae-8085-8002-c25c67a9a63d"><g id="fills-537296e8-edae-8085-8002-c25c67a9a63d" class="fills"><rect id="rect8321" width="1.95" height="8.77" x="331.99" y="198.41" class="st0" rx="0" ry="0"/></g></g><g id="shape-537296e8-edae-8085-8002-c25c67a9a63e"><g id="fills-537296e8-edae-8085-8002-c25c67a9a63e" class="fills"><rect id="rect8325" width="1.95" height="8.77" x="331.99" y="225.71" class="st0" rx="0" ry="0"/></g></g><g id="shape-537296e8-edae-8085-8002-c25c67a9ea35"><g id="fills-537296e8-edae-8085-8002-c25c67a9ea35" class="fills"><path id="path8329" d="m320.29 298.84 1.36 1.36c2.15-2.14 4-4.48 5.66-7.02l-1.66-1.07a33.17 33.17 0 0 1-5.36 6.73z" class="st0"/></g></g><g id="shape-537296e8-edae-8085-8002-c25c67aa3d1b"><g id="fills-537296e8-edae-8085-8002-c25c67aa3d1b" class="fills"><path id="path8333" d="M331.99 270.56c0 1.56-.1 3.22-.3 4.78l1.96.2c.19-1.66.29-3.32.29-5.08v-3.8h-1.95z" class="st0"/></g></g><g id="shape-537296e8-edae-8085-8002-c25c67aa63e3"><g id="fills-537296e8-edae-8085-8002-c25c67aa63e3" class="fills"><path id="path8337" d="M320.97 38.22a39.23 39.23 0 0 1 5.17 6.83l1.66-.98a43.07 43.07 0 0 0-5.46-7.12z" class="st0"/></g></g><g id="shape-537296e8-edae-8085-8002-c25c67aa8086"><g id="fills-537296e8-edae-8085-8002-c25c67aa8086" class="fills"><path id="path8341" d="m327.99 288.11 1.75.88a43.96 43.96 0 0 0 3.03-8.48l-1.85-.49a40.21 40.21 0 0 1-2.93 8.1z" class="st0"/></g></g><g id="shape-537296e8-edae-8085-8002-c25c67aa8087"><g id="fills-537296e8-edae-8085-8002-c25c67aa8087" class="fills"><rect id="rect8345" width="8.77" height="1.95" x="161.46" y="23.79" class="st0" rx="0" ry="0"/></g></g><g id="shape-537296e8-edae-8085-8002-c25c67aa8088"><g id="fills-537296e8-edae-8085-8002-c25c67aa8088" class="fills"><rect id="rect8349" width="1.95" height="8.77" x="331.99" y="75.56" class="st0" rx="0" ry="0"/></g></g><g id="shape-537296e8-edae-8085-8002-c25c67aaed6b"><g id="fills-537296e8-edae-8085-8002-c25c67aaed6b" class="fills"><rect id="rect8353" width="1.95" height="8.77" x="331.99" y="102.86" class="st0" rx="0" ry="0"/></g></g><g id="shape-537296e8-edae-8085-8002-c25c67aaed6c"><g id="fills-537296e8-edae-8085-8002-c25c67aaed6c" class="fills"><rect id="rect8357" width="1.95" height="8.77" x="331.99" y="89.21" class="st0" rx="0" ry="0"/></g></g><g id="shape-537296e8-edae-8085-8002-c25c67ab3357"><g id="fills-537296e8-edae-8085-8002-c25c67ab3357" class="fills"><path id="path8361" d="m333.74 61.81-1.95.2c.1 1.27.2 2.54.2 3.8v4.88h1.95V65.8c0-1.26-.1-2.63-.2-4z" class="st0"/></g></g><g id="shape-537296e8-edae-8085-8002-c25c67ab5e60"><g id="fills-537296e8-edae-8085-8002-c25c67ab5e60" class="fills"><rect id="rect8365" width="1.95" height="8.77" x="331.99" y="143.81" class="st0" rx="0" ry="0"/></g></g><g id="shape-537296e8-edae-8085-8002-c25c67ab5e61"><g id="fills-537296e8-edae-8085-8002-c25c67ab5e61" class="fills"><rect id="rect8369" width="1.95" height="8.77" x="331.99" y="171.11" class="st0" rx="0" ry="0"/></g></g><g id="shape-537296e8-edae-8085-8002-c25c67abb11c"><g id="fills-537296e8-edae-8085-8002-c25c67abb11c" class="fills"><path id="path8373" d="M318.73 33.44a38.57 38.57 0 0 0-7.51-4.97l-.88 1.75a43.24 43.24 0 0 1 7.12 4.78z" class="st0"/></g></g><g id="shape-537296e8-edae-8085-8002-c25c67abb11d"><g id="fills-537296e8-edae-8085-8002-c25c67abb11d" class="fills"><rect id="rect8377" width="1.95" height="8.77" x="331.99" y="157.46" class="st0" rx="0" ry="0"/></g></g><g id="shape-537296e8-edae-8085-8002-c25c67abf1a4"><g id="fills-537296e8-edae-8085-8002-c25c67abf1a4" class="fills"><rect id="rect8381" width="1.95" height="8.77" x="331.99" y="130.16" class="st0" rx="0" ry="0"/></g></g><g id="shape-537296e8-edae-8085-8002-c25c67abf1a5"><g id="fills-537296e8-edae-8085-8002-c25c67abf1a5" class="fills"><rect id="rect8385" width="1.95" height="8.77" x="331.99" y="116.51" class="st0" rx="0" ry="0"/></g></g><g id="shape-537296e8-edae-8085-8002-c25c67abf1a6"><g id="fills-537296e8-edae-8085-8002-c25c67abf1a6" class="fills"><rect id="rect8389" width="8.77" height="1.95" x="214.79" y="310.64" class="st0" rx="0" ry="0"/></g></g><g id="shape-537296e8-edae-8085-8002-c25c67ac1ded"><g id="fills-537296e8-edae-8085-8002-c25c67ac1ded" class="fills"><rect id="rect8393" width="8.77" height="1.95" x="202.41" y="23.79" class="st0" rx="0" ry="0"/></g></g><g id="shape-537296e8-edae-8085-8002-c25c67ac1dee"><g id="fills-537296e8-edae-8085-8002-c25c67ac1dee" class="fills"><rect id="rect8397" width="8.77" height="1.95" x="201.14" y="310.64" class="st0" rx="0" ry="0"/></g></g><g id="shape-537296e8-edae-8085-8002-c25c67ac5164"><g id="fills-537296e8-edae-8085-8002-c25c67ac5164" class="fills"><rect id="rect8401" width="8.77" height="1.95" x="228.44" y="310.64" class="st0" rx="0" ry="0"/></g></g><g id="shape-537296e8-edae-8085-8002-c25c67ac5165"><g id="fills-537296e8-edae-8085-8002-c25c67ac5165" class="fills"><rect id="rect8405" width="8.77" height="1.95" x="229.71" y="23.79" class="st0" rx="0" ry="0"/></g></g><g id="shape-537296e8-edae-8085-8002-c25c67ac8395"><g id="fills-537296e8-edae-8085-8002-c25c67ac8395" class="fills"><rect id="rect8409" width="8.77" height="1.95" x="216.06" y="23.79" class="st0" rx="0" ry="0"/></g></g><g id="shape-537296e8-edae-8085-8002-c25c67acdfa1"><g id="fills-537296e8-edae-8085-8002-c25c67acdfa1" class="fills"><rect id="rect8413" width="8.77" height="1.95" x="173.84" y="310.64" class="st0" rx="0" ry="0"/></g></g><g id="shape-537296e8-edae-8085-8002-c25c67acdfa2"><g id="fills-537296e8-edae-8085-8002-c25c67acdfa2" class="fills"><rect id="rect8417" width="8.77" height="1.95" x="188.76" y="23.79" class="st0" rx="0" ry="0"/></g></g><g id="shape-537296e8-edae-8085-8002-c25c67acdfa3"><g id="fills-537296e8-edae-8085-8002-c25c67acdfa3" class="fills"><rect id="rect8421" width="8.77" height="1.95" x="175.11" y="23.79" class="st0" rx="0" ry="0"/></g></g><g id="shape-537296e8-edae-8085-8002-c25c67ad39bf"><g id="fills-537296e8-edae-8085-8002-c25c67ad39bf" class="fills"><rect id="rect8425" width="8.77" height="1.95" x="187.49" y="310.64" class="st0" rx="0" ry="0"/></g></g><g id="shape-537296e8-edae-8085-8002-c25c67ad39c0"><g id="fills-537296e8-edae-8085-8002-c25c67ad39c0" class="fills"><path id="path8429" d="m296.79 310.34.2 1.95a45.85 45.85 0 0 0 8.77-2.05l-.68-1.85a34.17 34.17 0 0 1-8.29 1.95z" class="st0"/></g></g><g id="shape-537296e8-edae-8085-8002-c25c67ad4ee1"><g id="fills-537296e8-edae-8085-8002-c25c67ad4ee1" class="fills"><rect id="rect8433" width="8.77" height="1.95" x="242.09" y="310.64" class="st0" rx="0" ry="0"/></g></g><g id="shape-537296e8-edae-8085-8002-c25c67ad4ee2"><g id="fills-537296e8-edae-8085-8002-c25c67ad4ee2" class="fills"><path id="path8437" d="m309.46 306.64.88 1.75a38.38 38.38 0 0 0 7.6-4.77l-1.16-1.56a48.13 48.13 0 0 1-7.31 4.58z" class="st0"/></g></g><g id="shape-537296e8-edae-8085-8002-c25c67adb535"><g id="fills-537296e8-edae-8085-8002-c25c67adb535" class="fills"><path id="path8441" d="m293.08 25.74.1-1.95h-8.87v1.95h8.77z" class="st0"/></g></g><g id="shape-537296e8-edae-8085-8002-c25c67add048"><g id="fills-537296e8-edae-8085-8002-c25c67add048" class="fills"><path id="path8445" d="M306.74 26.42a39.22 39.22 0 0 0-8.68-2.24l-.3 1.95c2.83.39 5.66 1.17 8.3 2.15z" class="st0"/></g></g><g id="shape-537296e8-edae-8085-8002-c25c67add049"><g id="fills-537296e8-edae-8085-8002-c25c67add049" class="fills"><rect id="rect8449" width="8.97" height="1.95" x="283.04" y="310.64" class="st0" rx="0" ry="0"/></g></g><g id="shape-537296e8-edae-8085-8002-c25c67ae0215"><g id="fills-537296e8-edae-8085-8002-c25c67ae0215" class="fills"><rect id="rect8453" width="8.77" height="1.95" x="257.01" y="23.79" class="st0" rx="0" ry="0"/></g></g><g id="shape-537296e8-edae-8085-8002-c25c67ae0216"><g id="fills-537296e8-edae-8085-8002-c25c67ae0216" class="fills"><rect id="rect8457" width="8.77" height="1.95" x="270.66" y="23.79" class="st0" rx="0" ry="0"/></g></g><g id="shape-537296e8-edae-8085-8002-c25c67ae0217"><g id="fills-537296e8-edae-8085-8002-c25c67ae0217" class="fills"><rect id="rect8461" width="8.77" height="1.95" x="243.36" y="23.79" class="st0" rx="0" ry="0"/></g></g><g id="shape-537296e8-edae-8085-8002-c25c67ae45b2"><g id="fills-537296e8-edae-8085-8002-c25c67ae45b2" class="fills"><rect id="rect8465" width="8.77" height="1.95" x="269.39" y="310.64" class="st0" rx="0" ry="0"/></g></g><g id="shape-537296e8-edae-8085-8002-c25c67aeb899"><g id="fills-537296e8-edae-8085-8002-c25c67aeb899" class="fills"><path id="path8469" d="M62.3 171.7c-.78-.1-1.46.58-1.46 1.46-.3 11.31-1.95 21.06-5.07 30.52-.3.78.2 1.56.97 1.85.2.1.3.1.5.1.58 0 1.16-.4 1.36-.98 3.21-9.84 4.87-19.79 5.17-31.4 0-.87-.59-1.55-1.47-1.55z" class="st0"/></g></g><g id="shape-537296e8-edae-8085-8002-c25c67b13c81"><g id="fills-537296e8-edae-8085-8002-c25c67b13c81" class="fills"><path id="path8473" d="M133.77 290.26c.68-.3 1.07-.98.88-1.66-.3-1.27-7.8-31.79-11.41-38.22-2.63-4.58-5.46-9.55-11.02-12.77a25.43 25.43 0 0 0-8.09-2.83h-.58l-.2-23.98c2.44.29 4.78.39 7.02.39 11.8 0 20.57-3.61 23.1-5.76 3.9-3.22 4.88-8.09 4.88-9.55 0-.69-.29-1.17-.68-1.47-.39-.29-2.73-2.43-3.51-3.21.1 0 .2.1.39.1 2.54 1.07 4.78 1.07 4.88 1.07h1.26l.2-1.27s.58-3.22.97-4.97c.3-1.27 1.27-2.83 5.17-6.63 1.66-1.66 2.44-3.22 2.34-4.88-.2-1.85-1.46-2.92-1.75-3.21-5.76-4.68-8.1-15.41-8.68-18.43 1.95-1.85 7.12-7.7 6.14-17.65-.68-6.73-7.6-20.38-20.67-21.94-2.24-1.36-15.4-8.58-39.88-2.73-.29.1-30.9 5.76-36.85 35.2-.2.78-.3 1.56-.49 2.44-1.17 6.43-2.73 15.2-9.36 19.7-.39.29-3.6 2.43-3.31 5.45.19 1.95 1.75 3.42 4.68 4.59 0 0 .68.29.87 1.07.1.58 0 2.34-3.21 5.56-.59.58-1.37 1.26-2.25 2.04-4.48 3.9-11.11 9.85-8.77 17.26 0 .2 3.8 14.43 21.35 12.09 1.17 1.56 4.1 4.78 8.39 5.56.68.1 1.26.2 1.95.2 2.24 0 4.48-.79 6.72-2.25 1.47.59 4.68 1.46 7.6.39.6-.2 1.18-.49 1.67-.88l-.98 15.31c-.3-.2-.39-.39-.39-.39-.3-.39-.78-.58-1.27-.58-.48 0-11.11 1.17-18.23 7.7a1.5 1.5 0 0 0-.3 1.75c.2.4 4.79 9.26 31.6 17.55 25.45 7.9 30.9 12.97 31 12.97l.1.1c.2.2.49.39.78.58 6.04 5.17 14.92 12.97 16.28 15.31.3.49.78.68 1.27.68 0 .3.2.3.39.2zm11.9-116.32s.58.39.58 1.07c0 .69-.49 1.56-1.46 2.54-3.9 3.8-5.46 5.85-5.95 8.09-.3 1.07-.58 2.63-.78 3.8-.68-.1-1.56-.29-2.54-.68-2.34-.97-3.6.39-3.9.78-.78 1.07-.78 2.63 0 3.51.59.68 2.64 2.53 3.71 3.51a11.31 11.31 0 0 1-3.7 6.82c-2.93 2.44-19.31 8.68-38.81 2.25l-2.05-23.3a1.66 1.66 0 0 0-.97-1.27c-.59-.2-1.17 0-1.56.48-.2.2-4.98 5.76-10.24 1.76-2.05-1.56-3.22-4.39-3.31-7.8-.1-3.51 1.07-6.44 2.24-7.41l.29-.3c1.56-1.36 3.41-2.92 9.85-.58.2.1.39.1.58.1.2 0 19.01-1.56 24.67-23.01.78 4.2 1.46 8.77 2.05 11.9.1.77.87 1.36 1.65 1.16.2 0 3.9-.58 7.7-3.9 2.74-2.34 5.86-6.63 7.32-13.84l4.68 13.55c.3 1.46 2.63 14.92 9.95 20.77zm-74.88 43.48c-2.74 1.08-6.15-.58-6.15-.58-.49-.2-1.07-.2-1.56.1-2.44 1.75-4.78 2.44-7.12 1.95-4.29-.78-7.02-4.97-7.11-5.07-.3-.4-.78-.68-1.27-.68h-.2c-15.6 2.63-18.81-9.27-19-9.85-1.86-5.75 3.8-10.73 7.89-14.33.88-.78 1.66-1.47 2.34-2.15 3.12-3.12 4.48-5.95 4-8.19a4.31 4.31 0 0 0-2.64-3.12c-1.75-.68-2.82-1.46-2.82-2.15-.1-.87 1.17-2.14 2.04-2.73 7.7-5.26 9.46-15.1 10.63-21.64.2-.88.3-1.66.49-2.44 5.46-27.4 34.22-32.76 34.51-32.86 25.16-6.04 37.83 2.34 37.93 2.44.2.1.4.2.68.3 11.9 1.26 17.94 14.13 18.43 19.4.78 7.21-2.24 11.9-4.19 14.13l-6.04-17.55a1.4 1.4 0 0 0-1.56-.97c-.69.1-1.27.68-1.27 1.36-.59 15.7-8.58 20-11.8 21.16a709.04 709.04 0 0 0-3.31-18.62 1.58 1.58 0 0 0-1.56-1.17c-.69 0-1.27.58-1.37 1.36-2.05 25.35-20.38 28.38-23.01 28.67-7.21-2.63-10.14-.88-12.48 1.17l-.3.3c-2.14 1.75-3.4 5.55-3.3 9.74.09 4.3 1.75 8 4.48 10.04 4.48 3.42 8.97 2.05 11.9 0l1.84 20.87c-4.77 10.24-13.94 7.12-14.23 7.02H74.49s-.1 0-.1.1c0 0-.1 0-.1.1 0 0-.1 0-.1.1l-.09.09-.1.1-.1.1s0 .1-.1.1c0 .09-.09.09-.09.19-.58 1.66-1.56 2.73-2.92 3.22zm5.75-.87c4.48.88 11.5-.1 15.7-8.2 2.82.89 5.45 1.57 8.09 2.06l.2 26.61c-2.06 1.17-6.05 2.54-12.98 2.15-6.04-.4-9.94-1.66-12.38-2.83zm8.19 41.34c-20.38-6.34-27.3-12.87-29.25-15.11 5.36-4.4 12.67-5.76 14.91-6.05a19.1 19.1 0 0 0 2.54 1.85c.1 0 .2.1.2.1 2.72 1.46 7.21 3.12 14.33 3.51 8.19.49 12.77-1.36 15.2-2.92.1-.1.2-.1.3-.2a5.66 5.66 0 0 0 1.36-1.17c2.44.49 4.4 1.27 6.15 2.24 1.46 1.95 6.33 12.19 6.43 20.77.1 5.07-.58 8.29-1.07 10.04-2.34-1.85-10.04-6.43-31.1-13.06zm33.63 15.01c.59-1.75 1.66-5.55 1.56-12.09-.1-5.36-1.85-11.3-3.7-15.8a39.5 39.5 0 0 1 4.39 6.93c2.53 4.49 7.31 22.52 9.75 31.79-3.8-3.8-9.27-8.49-12-10.83z" class="st0"/></g></g><g id="shape-537296e8-edae-8085-8002-c25c67b1a682"><g id="fills-537296e8-edae-8085-8002-c25c67b1a682" class="fills"><path id="path8477" d="M79.66 128.31c0-.78-.69-1.46-1.56-1.36-6.83.29-16.38 5.55-20.96 19-1.76 5.18-2.54 10.64-3.32 15.9-.59 4-1.17 8.1-2.15 12-2.63 10.52-8.67 17.93-15.99 19.98-.78.2-1.26.97-.97 1.75.2.69.78 1.08 1.36 1.08.1 0 .3 0 .4-.1 8.38-2.34 15.1-10.53 18.03-22.13 1.07-4.1 1.66-8.29 2.24-12.29.78-5.17 1.56-10.43 3.22-15.4 2.73-8.2 9.46-16.68 18.33-17.07.78.1 1.46-.58 1.37-1.36z" class="st0"/></g></g><g id="shape-537296e8-edae-8085-8002-c25c67b1d7bd"><g id="fills-537296e8-edae-8085-8002-c25c67b1d7bd" class="fills"><path id="path8481" d="M73.42 151.32a41.43 41.43 0 0 0 20.67-32.08c.1-.78-.49-1.56-1.37-1.56-.78-.1-1.56.49-1.56 1.37a38.5 38.5 0 0 1-19.2 29.73c-.69.4-.98 1.27-.59 1.95.3.5.78.78 1.27.78.29 0 .58-.1.78-.19z" class="st0"/></g></g><g id="shape-537296e8-edae-8085-8002-c25c67b21ac1"><g id="fills-537296e8-edae-8085-8002-c25c67b21ac1" class="fills"><path id="path8485" d="M89.31 150.25a1.41 1.41 0 0 0 0 2.05c.3.29.68.48 1.07.48.4 0 .69-.1.98-.39a45.45 45.45 0 0 0 8-9.45c1.65-2.83 3.6-7.32 3.11-12.29a1.58 1.58 0 0 0-1.56-1.36c-.78.1-1.36.78-1.36 1.56.39 4.19-1.27 8.09-2.73 10.53-2.15 3.5-4.97 6.43-7.51 8.87z" class="st0"/></g></g><g id="shape-537296e8-edae-8085-8002-c25c67b244e6"><g id="fills-537296e8-edae-8085-8002-c25c67b244e6" class="fills"><path id="path8489" d="M121.2 135.13c-.3.78 0 1.56.77 1.95.2.1.4.1.59.1.58 0 1.07-.29 1.36-.88a14.92 14.92 0 0 0-1.66-14.52c-.48-.68-1.36-.78-2.04-.3-.69.5-.78 1.37-.3 2.05a11.78 11.78 0 0 1 1.27 11.6z" class="st0"/></g></g><g id="shape-537296e8-edae-8085-8002-c25c67b28290"><g id="fills-537296e8-edae-8085-8002-c25c67b28290" class="fills"><path id="path8493" d="M74.59 208.26c.68 0 1.36-.49 1.46-1.27.68-5.17.68-10.33 0-15.5a1.52 1.52 0 0 0-1.66-1.27c-.78.1-1.36.88-1.27 1.66.69 4.87.59 9.85 0 14.72-.1.78.5 1.56 1.27 1.66h.2z" class="st0"/></g></g><g id="shape-537296e8-edae-8085-8002-c25c67b4b797"><g id="fills-537296e8-edae-8085-8002-c25c67b4b797" class="fills"><path id="path8497" d="M323.21 178.81c-3.5-29.73-12.87-49.53-27.88-58.79-14.33-8.87-28.76-4.78-31.4-3.9-33.34-7.02-42.12 1.66-49.33 12.87l-.1.1c-5.75 11.21-3.02 15.99-.68 20.28 1.17 2.05 2.14 3.8 2.05 6.24-.2 6.14-7.41 9.07-7.41 9.07-.59.2-.98.78-.88 1.46.1.68.49 1.17 1.07 1.37 7.02 1.65 12.29 1.26 15.9-1.17-.98 3.8-2.83 9.06-6.73 12.18-.3.2-1.66 1.37-1.76 3.22-.1 1.66.68 3.22 2.34 4.88a35.46 35.46 0 0 1 4.2 4.58c-4.59 4-8.49 3.8-12.2 3.5-.48 0-.87-.09-1.36-.09-4.58-.2-10.43 2.05-12.67 6.73-1.56 3.12-1.95 8.38 4.48 15.89 2.93 3.41 6.63 5.36 13.85 7.22 2.04.58 3.31 1.65 3.8 3.4.78 2.74-.3 6.35-1.56 7.71-3.51 4-7.22 11.31-5.85 18.53 1.07 5.46 4.78 10.04 11.02 13.55a75.12 75.12 0 0 0-3.71 16.48c0 .1-1.07 7.6-1.46 12.09-.1.58.29 1.26.88 1.46.19.1.39.1.58.1.39 0 .78-.2 1.07-.5.2-.19 18.53-20.37 34.9-22.52 3.52-.48 6.64-.78 9.37-1.07 11.3-1.07 18.82-1.85 30.32-10.04 12.97-9.16 13.26-19.3 13.16-21.74 20.38-31.1 16-62.8 16-63.09zm-99.45-15.6c-2.24 2.05-5.85 2.73-10.62 2.15 2.53-1.85 5.55-4.97 5.65-9.65.1-3.22-1.17-5.56-2.44-7.8-2.24-4-4.29-7.7.69-17.45 6.92-10.63 14.72-18.14 46.6-11.41.3.1.58 0 .78-.1.2-.1 15.01-5.26 29.35 3.6 6.33 3.9 11.7 9.95 15.89 18.05 5.17 9.84 8.68 22.81 10.63 38.6 0 .3 4.19 30.52-14.92 60.36a42.83 42.83 0 0 0-26.91-2.24v-25.35c10.92-8.88 10.53-22.33 10.14-26.13 2.24-1.66 3.02-4.98 3.31-7.61.5-4.1-.48-7.31-2.73-9.46-4-3.7-10.92-3.02-12.77-2.73-7.21-3.41-12.28-9.84-15.01-19.1-2.05-7.12-1.86-13.36-1.86-13.46a1.5 1.5 0 0 0-.97-1.46c-.59-.2-1.27 0-1.66.58-6.53 9.36-15.7 13.26-28.18 11.9-.48 0-.87.1-1.17.39-.29.29-.48.78-.39 1.17.98 8.58-.19 14.33-3.4 17.16zm28.96 54.9a57.6 57.6 0 0 0 21.55-3.32c.1 0 .2-.1.29-.1.3-.19.68-.39.97-.58v24.37c-1.94 1.27-9.45 5.46-22.71 3.12zm-32.27-33.74c-.98-.97-1.46-1.85-1.46-2.53 0-.68.58-1.07.58-1.07s.1 0 .1-.1c7.02-5.66 8.38-16.58 8.68-18.72 1.85-3.41 2.43-8.2 1.85-14.43 11.02.78 19.99-2.54 26.52-10.05.58 7.8 3.7 24.48 18.82 31.3.29.1.58.2.87.1.1 0 7.22-1.36 10.73 1.95 1.56 1.46 2.24 3.8 1.85 6.92-.39 3.02-1.36 5.27-2.63 5.85-.59.3-.98.88-.88 1.56.1.68 2.83 17.84-12.38 26.72-19.9 6.92-36.56.48-39.59-1.95a11.07 11.07 0 0 1-3.7-6.83 32.73 32.73 0 0 0 3.7-3.5c.78-.98.78-2.54 0-3.52-.29-.39-1.56-1.75-3.9-.78-.97.4-1.85.59-2.53.69-.2-1.08-.49-2.73-.78-3.8-.4-1.86-1.95-4-5.85-7.8zM214 253.5c-1.26-6.63 2.64-13.16 5.17-16.09 1.56-1.85 3.41-6.33 2.15-10.43a7.8 7.8 0 0 0-5.85-5.36c-7.51-1.95-10.24-3.9-12.39-6.34-4.29-4.97-5.65-9.36-4.1-12.77 1.76-3.51 6.35-5.27 9.95-5.07.4 0 .88 0 1.27.1 3.7.19 8.29.48 13.55-3.61.4 1.75.78 4.1.78 4.1.1.68.69 1.26 1.47 1.26.1 0 2.34 0 4.87-1.07.2-.1.3-.1.39-.1-.78.78-3.12 2.93-3.51 3.22-.49.29-.68.78-.78 1.46-.1 1.46.97 6.34 4.88 9.56 2.14 1.75 8.77 4.68 18.03 5.46v23.69c-4.48.78-18.72 4.68-26.61 23.2-5.37-2.92-8.39-6.72-9.27-11.21zm6.34 38.61c.49-3.8.97-7.7.97-7.8a69.76 69.76 0 0 1 3.9-16.77c.1-.1.1-.2.1-.3 5.85-15.2 16-20.37 21.75-22.03-4 4.98-10.53 15.8-12.39 35-6.14 4.1-11.21 8.88-14.33 11.9zm72.15-30.9c-10.82 7.7-18.04 8.38-28.96 9.45-2.83.3-5.95.58-9.46 1.07-5.46.68-11.11 3.22-16.28 6.34 2.63-21.94 11.7-31.69 13.85-33.73 3.21.58 6.14.87 8.77.87 10.14 0 15.8-3.7 17.06-4.68.1 0 .3-.1.5-.1 8.67-2.34 17.54-1.75 26.41 1.95.1 2.64-.77 10.92-11.89 18.82z" class="st0"/></g></g><g id="shape-537296e8-edae-8085-8002-c25c67b4dba1"><g id="fills-537296e8-edae-8085-8002-c25c67b4dba1" class="fills"><path id="path8501" d="M275.05 153.66c3.02 2.92 6.72 5.07 10.33 7.02 4.88 2.73 9.36 5.26 12.1 9.65 3.8 6.24 2.53 14.43.48 22.33l-.1.49c-1.95 7.6-4.19 16.28-.97 23.98.2.59.78.88 1.36.88.2 0 .4 0 .59-.1.78-.29 1.07-1.17.78-1.95-2.83-6.82-.78-14.62 1.07-22.23l.1-.48c2.14-8.49 3.5-17.36-.78-24.57-3.03-5.07-8.2-7.9-13.17-10.63-3.4-1.95-7.02-3.9-9.75-6.63-5.16-5.07-7.4-12.68-9.06-19.3a1.45 1.45 0 1 0-2.83.68c1.75 7.3 4.2 15.3 9.85 20.86z" class="st0"/></g></g><g id="shape-537296e8-edae-8085-8002-c25c67b510ad"><g id="fills-537296e8-edae-8085-8002-c25c67b510ad" class="fills"><path id="path8505" d="M275.73 130.55c11.02 2.44 21.45 10.92 27.69 22.72 5.07 9.55 7.9 21.06 8.87 36.27.1.78.68 1.36 1.46 1.36h.1c.78-.1 1.46-.78 1.37-1.56-.98-15.7-4-27.59-9.27-37.44-6.72-12.57-17.74-21.64-29.64-24.27-.78-.2-1.56.29-1.75 1.07-.2.78.39 1.66 1.17 1.85z" class="st0"/></g></g><g id="shape-537296e8-edae-8085-8002-c25c67b577c5"><g id="fills-537296e8-edae-8085-8002-c25c67b577c5" class="fills"><path id="path8509" d="M231.56 136.7c-.78 0-1.46.58-1.56 1.36 0 .78.59 1.46 1.37 1.56h1.36c6.63 0 13.75-2.83 21.16-8.29.68-.49.78-1.36.3-2.05-.5-.68-1.37-.78-2.05-.29-7.32 5.46-14.34 8.1-20.58 7.7z" class="st0"/></g></g><g id="shape-537296e8-edae-8085-8002-c25c67b58716"><g id="fills-537296e8-edae-8085-8002-c25c67b58716" class="fills"><path id="path8513" d="M244.43 125.68c.78.1 1.56-.49 1.66-1.27.1-.78-.49-1.56-1.27-1.66-9.75-1.17-18.13 2.44-22.62 9.65-.39.69-.2 1.56.49 2.05.2.2.49.2.78.2.49 0 .97-.3 1.27-.69 3.8-6.33 11.01-9.36 19.7-8.28z" class="st0"/></g></g><g id="shape-537296e8-edae-8085-8002-c25c67b5e178"><g id="fills-537296e8-edae-8085-8002-c25c67b5e178" class="fills"><path id="path8517" d="M224.84 217.52a9.88 9.88 0 0 0-2.25-1.17c-.87-.39-1.65-.87-2.34-1.36a6.32 6.32 0 0 1-2.24-4.98c0-2.04.78-3.9 2.15-5.07.58-.48.68-1.46.19-2.04a1.51 1.51 0 0 0-2.05-.2 9.44 9.44 0 0 0-3.31 7.32 9.22 9.22 0 0 0 3.41 7.3c.88.69 1.85 1.18 2.83 1.67.68.39 1.36.68 1.95 1.07 3.12 2.05 4.97 6.24 5.07 11.21.1 2.73-.3 5.46-.68 8.38-.3 1.86-.5 3.8-.69 5.66-.1.78.59 1.46 1.37 1.56h.1c.78 0 1.36-.58 1.46-1.36.1-1.86.39-3.71.68-5.46.39-2.83.78-5.86.78-8.88-.2-6.04-2.53-11.01-6.43-13.65z" class="st0"/></g></g><g id="shape-537296e8-edae-8085-8002-c25c67b62a27"><g id="fills-537296e8-edae-8085-8002-c25c67b62a27" class="fills"><path id="path8521" d="M237.31 235.56c-.39.68-.1 1.56.59 1.95.2.1.49.2.68.2.49 0 1.07-.3 1.27-.79 2.15-4 1.56-9.26-1.36-12.77a1.51 1.51 0 0 0-2.05-.2 1.51 1.51 0 0 0-.2 2.06 8.78 8.78 0 0 1 1.07 9.55z" class="st0"/></g></g><g id="shape-537296e8-edae-8085-8002-c25c67b62a28"><g id="fills-537296e8-edae-8085-8002-c25c67b62a28" class="fills"><path id="path8525" d="M312.2 201.73zm0 0a1.5 1.5 0 0 0-1.47 1.46 48.3 48.3 0 0 1-12.09 30.9c-.58.6-.48 1.57.1 2.06.3.29.58.39.97.39.4 0 .79-.2 1.08-.5a50.88 50.88 0 0 0 12.77-32.85c.1-.78-.58-1.46-1.36-1.46z" class="st0"/></g></g><g id="shape-537296e8-edae-8085-8002-c25c67b6b180"><g id="fills-537296e8-edae-8085-8002-c25c67b6b180" class="fills"><path id="path8529" d="M209.14 106.18c1.07.2 4.78 1.65 7.5 2.82 7.42 3.03 8.68 3.42 9.76 3.03 1.85-.78 1.26-3.32.29-7.9-.3-1.56-.78-3.8-.78-4.78 7.5-4.39 11.8-10.82 12.77-19.1 1.56-14.15-9.95-26.72-31.59-34.52-25.74-9.27-62.4-9.75-71.17 3.6-13.07 19.9 4.97 41.64 7.7 44.76l2.24 18.91c.1.59.39.98.97 1.17.2.1.3.1.5.1.38 0 .67-.1.97-.39l11.7-10.73c4.77 1.66 27.98 9.56 49.14 3.03zm-50.5-5.95-10.34 9.46-1.95-16.48c0-.3-.2-.59-.4-.88a53.9 53.9 0 0 1-8.77-13.55c-4.58-10.43-4.29-19.8 1.08-27.89 3.9-5.94 15.6-9.06 29.83-9.06 11.9 0 25.55 2.14 37.93 6.63 9.55 3.41 31.69 13.45 29.74 31.4-.88 7.5-4.78 13.25-11.7 17.15-1.56.88-1.08 3.12-.1 7.6.29 1.27.68 3.13.78 4.3-1.66-.49-4.68-1.76-6.83-2.64-7.02-2.82-8.28-3.21-9.26-2.92-22.23 6.92-47.97-3.32-48.26-3.41-.68-.2-1.27-.1-1.76.29z" class="st0"/></g></g><g id="shape-537296e8-edae-8085-8002-c25c67b6dc61"><g id="fills-537296e8-edae-8085-8002-c25c67b6dc61" class="fills"><path id="path8533" d="M147.42 194.41h.2l6.14-.87c.87-.1 1.56-.98 1.46-1.85a1.72 1.72 0 0 0-1.85-1.47l-6.15.88c-.87.1-1.56.97-1.46 1.85.1.78.88 1.47 1.66 1.47z" class="st0"/></g></g><g id="shape-537296e8-edae-8085-8002-c25c67b726c3"><g id="fills-537296e8-edae-8085-8002-c25c67b726c3" class="fills"><path id="path8537" d="M149.66 203.48c.88.59 1.66 1.17 2.44 1.66.3.2.58.2.88.2.58 0 1.17-.3 1.46-.78.49-.78.2-1.86-.58-2.34-.69-.4-1.47-.98-2.25-1.47a38.21 38.21 0 0 0-3.31-2.14 1.73 1.73 0 0 0-2.34.58c-.49.78-.2 1.86.58 2.34a12.9 12.9 0 0 1 3.12 1.95z" class="st0"/></g></g><g id="shape-537296e8-edae-8085-8002-c25c67b76479"><g id="fills-537296e8-edae-8085-8002-c25c67b76479" class="fills"><path id="path8541" d="M144 205.92a1.76 1.76 0 0 0-2.04-1.27 1.76 1.76 0 0 0-1.27 2.05l1.56 6.43c.2.78.88 1.27 1.66 1.27.1 0 .3 0 .39-.1a1.76 1.76 0 0 0 1.27-2.04z" class="st0"/></g></g><g id="shape-537296e8-edae-8085-8002-c25c67b7f34d"><g id="fills-537296e8-edae-8085-8002-c25c67b7f34d" class="fills"><path id="path8545" d="M202.02 87.75c.39 0 .78-.2.97-.49.2-.29.3-.68.2-1.07l-6.83-25.74c-.1-.58-.58-.88-1.17-.88h-32.07c-.59 0-1.07.4-1.17.88l-6.83 25.74c-.1.39 0 .78.2 1.07.2.3.58.49.97.49h17.07v14.33c0 .68.58 1.27 1.26 1.27a1.3 1.3 0 0 0 1.27-1.27V87.75h6.53v14.33c0 .68.59 1.27 1.27 1.27a1.3 1.3 0 0 0 1.27-1.27V87.75Zm-29.15-2.44.58-6.14h11.5l.6 6.14zM161.85 70.6h9.95l-.59 6.14h-11.02zm12.38 0h9.95l.58 6.14h-11.01zm.2-2.44.58-6.14h8.39l.58 6.14zm23.69 8.58H187.2l-.58-6.14h9.94zm-10.24 8.58-.58-6.14h11.4l1.66 6.14zm8-17.16h-9.46l-.58-6.14h8.38zm-31.79-6.04h8.39l-.59 6.14h-9.45zm-4.58 17.06h11.4l-.58 6.14h-12.38Z" class="st0"/></g></g><g id="shape-537296e8-edae-8085-8002-c25c67b8acb1"><g id="fills-537296e8-edae-8085-8002-c25c67b8acb1" class="fills"><path id="path8549" d="M155.41 71.37c.1 0 .2.1.4.1.38 0 .68-.2.87-.59l1.37-3.41c.2.1.48.2.68.3h.3c.38 0 .77-.3.87-.69.1-.49-.1-.97-.68-1.17-.49-.1-.98-.3-1.37-.58a7.1 7.1 0 0 1-3.7-7.12c.48-4 4-6.83 8-6.34a7.05 7.05 0 0 1 6.33 6.83c0 .48.49.87.97.87.5 0 .88-.48.88-.97v-.49l3.8-.58c.5-.1.88-.59.78-1.08-.1-.48-.58-.87-1.07-.78l-3.9.59a8.47 8.47 0 0 0-1.36-2.63l3.31-2.64c.4-.29.49-.87.2-1.36-.3-.4-.88-.49-1.37-.2l-3.41 2.73a11.13 11.13 0 0 0-2.24-1.46l1.75-4.29c.2-.49 0-1.07-.49-1.17-.48-.2-1.07 0-1.17.49l-1.75 4.39c-.3-.1-.68-.1-.98-.2-.48-.1-1.07-.1-1.56 0l-.68-4.88c-.1-.48-.58-.87-1.07-.77-.49.1-.88.58-.78 1.07l.68 4.87c-.78.2-1.56.49-2.24.98l-3.12-4c-.3-.39-.88-.49-1.37-.2-.39.3-.48.88-.19 1.37l3.12 3.9c-.59.59-1.17 1.17-1.56 1.85l-4.58-1.85c-.49-.2-1.08 0-1.17.49-.2.49 0 1.07.48 1.17l4.49 1.75c-.3.69-.39 1.37-.49 2.15v.49l-4.68.68c-.49.1-.88.58-.78 1.07.1.49.49.78.98.78h.1l4.38-.68c.1.97.4 1.85.78 2.63l-3.31 2.63c-.4.3-.49.88-.2 1.37.2.2.49.39.78.39.2 0 .4-.1.59-.2l3.12-2.53a9.06 9.06 0 0 0 2.24 2.05l-1.36 3.6c-.3.49-.1 1.08.38 1.27z" class="st0"/></g></g><g id="shape-537296e8-edae-8085-8002-c25c67b90236"><g id="fills-537296e8-edae-8085-8002-c25c67b90236" class="fills"><path id="path8553" d="M204.85 80.05c0 .58.49 1.17 1.17 1.17h2.43a9.56 9.56 0 0 0 4.68 5.46 9.71 9.71 0 0 0 4.59 1.17 10.2 10.2 0 0 0 4.58-1.17c.3-.2.58-.49.68-.88.1-.39.1-.78-.1-1.07-.39-.69-1.17-.98-1.75-.69l-.1.1a7.27 7.27 0 0 1-5.36.49 6.63 6.63 0 0 1-4-3.41h5.27c.58 0 1.17-.49 1.17-1.17 0-.59-.49-1.17-1.17-1.17h-6.05c-.1-.68-.1-1.37 0-1.95h6.05c.58 0 1.17-.49 1.17-1.17 0-.69-.49-1.17-1.17-1.17h-5.37a6.99 6.99 0 0 1 8.78-3.22l.58.3c.69.38 1.56.09 1.95-.6.4-.68.1-1.55-.58-1.94a10.03 10.03 0 0 0-7.5-.69 9.53 9.53 0 0 0-5.76 4.88c-.2.39-.39.78-.49 1.27h-2.44c-.29 0-.58.1-.78.29-.19.2-.29.49-.29.78 0 .58.49 1.17 1.17 1.17h1.95c-.1.68-.1 1.36 0 1.95h-1.95c-.78.2-1.36.68-1.36 1.27z" class="st0"/></g></g></g></g></svg>