<?xml version="1.0" encoding="UTF-8" standalone="no"?>
<svg
   width="360"
   height="340.89999"
   id="screenshot-9a1be2dd-6c80-805e-8002-c1fdf1ba6ab1"
   viewBox="-3 -3 360 340.9"
   style="-webkit-print-color-adjust:exact"
   fill="none"
   version="1.1"
   xmlns="http://www.w3.org/2000/svg"
   xmlns:svg="http://www.w3.org/2000/svg">
  <defs
     id="defs9708" />
  <g
     xml:space="preserve"
     x="0px"
     id="shape-9a1be2dd-6c80-805e-8002-c1fdf1ba6ab1"
     style="fill:#000000"
     ry="0"
     rx="0"
     y="0px"
     version="1.1"
     transform="translate(1.4572034,-1.4572034)"><g
       id="shape-9a1be2dd-6c80-805e-8002-c1fdf1bae052"><g
         class="fills"
         id="fills-9a1be2dd-6c80-805e-8002-c1fdf1bae052"><rect
           width="351"
           height="335.30249"
           x="0"
           style="fill:none"
           ry="0"
           fill="none"
           rx="0"
           y="0"
           id="rect9332" /></g></g><g
       id="shape-9a1be2dd-6c80-805e-8002-c1fdf1bae053"><style
         type="text/css"
         rx="0"
         ry="0"
         style="fill:#000000"
         id="style9336">.st0{fill:#004B00;}</style></g><g
       id="shape-9a1be2dd-6c80-805e-8002-c1fdf1bb03e4"
       rx="0"
       ry="0"
       style="fill:#000000"><g
         id="shape-9a1be2dd-6c80-805e-8002-c1fdf1bcbe26"><g
           class="fills"
           id="fills-9a1be2dd-6c80-805e-8002-c1fdf1bcbe26"><path
             class="st0"
             rx="0"
             ry="0"
             d="m 141.472,75.002 c -7.8,-7.995 -8.872,-16.379 -2.827,-22.425 2.242,-2.144 5.85,-3.12 9.75,-2.632 4.68,0.585 9.067,3.218 11.31,6.825 l 0.682,1.073 1.17,-0.488 c 3.315,-1.365 6.24,-1.463 8.678,-0.39 2.145,1.073 3.705,3.12 4.485,6.142 l 0.487,1.658 1.56,-0.683 c 2.535,-1.072 5.558,-0.487 8.093,1.56 2.145,1.756 4.095,4.973 3.802,8.873 -0.097,-0.097 -0.292,-0.195 -0.39,-0.195 -2.34,-1.17 -5.265,-1.268 -8.287,-0.195 -2.438,-3.218 -6.338,-5.363 -10.627,-5.85 -4.096,-0.487 -7.801,0.585 -10.336,2.925 -6.142,6.142 -5.265,14.722 2.34,22.425 l 2.048,-2.048 c -6.435,-6.532 -7.313,-13.357 -2.34,-18.232 1.852,-1.755 4.68,-2.535 7.897,-2.145 3.803,0.488 7.41,2.632 9.263,5.557 l 0.682,1.073 1.17,-0.488 c 2.633,-1.072 5.07,-1.267 7.02,-0.292 1.755,0.877 2.925,2.535 3.608,4.972 l 0.487,1.658 1.56,-0.683 c 2.048,-0.877 4.485,-0.39 6.435,1.268 1.95,1.657 3.705,4.777 2.828,8.482 l 2.827,0.683 c 0.975,-4.192 -0.487,-8.58 -3.802,-11.408 -2.438,-2.047 -5.265,-2.827 -7.995,-2.242 -0.39,-1.073 -0.975,-2.048 -1.658,-2.925 1.171,-4.875 -0.585,-10.042 -4.485,-13.358 -2.925,-2.437 -6.337,-3.314 -9.555,-2.535 -1.17,-3.022 -3.022,-5.265 -5.557,-6.532 -2.828,-1.365 -6.24,-1.463 -9.945,-0.195 -2.828,-3.802 -7.508,-6.435 -12.773,-7.118 -4.777,-0.585 -9.262,0.683 -12.187,3.51 -7.313,7.215 -6.24,17.355 2.827,26.52 z"
             id="path9339" /></g></g><g
         id="shape-9a1be2dd-6c80-805e-8002-c1fdf1bcce3c"><g
           class="fills"
           id="fills-9a1be2dd-6c80-805e-8002-c1fdf1bcce3c"><rect
             class="st0"
             rx="0"
             ry="0"
             x="65.910004"
             y="24.692499"
             width="8.7749996"
             height="1.95"
             id="rect9343" /></g></g><g
         id="shape-9a1be2dd-6c80-805e-8002-c1fdf1bcce3d"><g
           class="fills"
           id="fills-9a1be2dd-6c80-805e-8002-c1fdf1bcce3d"><rect
             class="st0"
             rx="0"
             ry="0"
             x="79.559998"
             y="24.692499"
             width="8.7749996"
             height="1.95"
             id="rect9347" /></g></g><g
         id="shape-9a1be2dd-6c80-805e-8002-c1fdf1bd1b74"><g
           class="fills"
           id="fills-9a1be2dd-6c80-805e-8002-c1fdf1bd1b74"><rect
             class="st0"
             rx="0"
             ry="0"
             x="160.1925"
             y="311.53751"
             width="8.7749996"
             height="1.95"
             id="rect9351" /></g></g><g
         id="shape-9a1be2dd-6c80-805e-8002-c1fdf1bd1b75"><g
           class="fills"
           id="fills-9a1be2dd-6c80-805e-8002-c1fdf1bd1b75"><rect
             class="st0"
             rx="0"
             ry="0"
             x="78.292503"
             y="311.53751"
             width="8.7749996"
             height="1.95"
             id="rect9355" /></g></g><g
         id="shape-9a1be2dd-6c80-805e-8002-c1fdf1bd5a68"><g
           class="fills"
           id="fills-9a1be2dd-6c80-805e-8002-c1fdf1bd5a68"><rect
             class="st0"
             rx="0"
             ry="0"
             x="64.642502"
             y="311.53751"
             width="8.7749996"
             height="1.95"
             id="rect9359" /></g></g><g
         id="shape-9a1be2dd-6c80-805e-8002-c1fdf1bd9221"><g
           class="fills"
           id="fills-9a1be2dd-6c80-805e-8002-c1fdf1bd9221"><path
             class="st0"
             rx="0"
             ry="0"
             d="m 35.88,34.052 -1.17,-1.559 c -2.438,1.755 -4.68,3.704 -6.727,5.947 l 1.462,1.267 c 1.95,-2.144 4.095,-3.997 6.435,-5.655 z"
             id="path9363" /></g></g><g
         id="shape-9a1be2dd-6c80-805e-8002-c1fdf1bd9222"><g
           class="fills"
           id="fills-9a1be2dd-6c80-805e-8002-c1fdf1bd9222"><path
             class="st0"
             rx="0"
             ry="0"
             d="m 37.928,307.735 c 2.632,1.56 5.362,2.73 8.189,3.705 l 0.586,-1.852 c -2.731,-0.878 -5.363,-2.048 -7.801,-3.51 z"
             id="path9367" /></g></g><g
         id="shape-9a1be2dd-6c80-805e-8002-c1fdf1be2fa6"><g
           class="fills"
           id="fills-9a1be2dd-6c80-805e-8002-c1fdf1be2fa6"><path
             class="st0"
             rx="0"
             ry="0"
             d="m 51.285,310.758 -0.39,1.949 c 2.73,0.488 5.46,0.78 8.287,0.78 h 0.683 v -1.95 h -0.683 c -2.729,0 -5.362,-0.195 -7.897,-0.779 z"
             id="path9371" /></g></g><g
         id="shape-9a1be2dd-6c80-805e-8002-c1fdf1be2fa7"><g
           class="fills"
           id="fills-9a1be2dd-6c80-805e-8002-c1fdf1be2fa7"><path
             class="st0"
             rx="0"
             ry="0"
             d="M 47.775,28.202 47.19,26.35 c -2.828,0.877 -5.655,2.048 -8.288,3.412 l 0.976,1.755 c 2.534,-1.365 5.167,-2.437 7.897,-3.315 z"
             id="path9375" /></g></g><g
         id="shape-9a1be2dd-6c80-805e-8002-c1fdf1be7986"><g
           class="fills"
           id="fills-9a1be2dd-6c80-805e-8002-c1fdf1be7986"><rect
             class="st0"
             rx="0"
             ry="0"
             x="120.51"
             y="24.692499"
             width="8.7749996"
             height="1.95"
             id="rect9379" /></g></g><g
         id="shape-9a1be2dd-6c80-805e-8002-c1fdf1be7987"><g
           class="fills"
           id="fills-9a1be2dd-6c80-805e-8002-c1fdf1be7987"><rect
             class="st0"
             rx="0"
             ry="0"
             x="134.16"
             y="24.692499"
             width="8.7749996"
             height="1.95"
             id="rect9383" /></g></g><g
         id="shape-9a1be2dd-6c80-805e-8002-c1fdf1beb0bf"><g
           class="fills"
           id="fills-9a1be2dd-6c80-805e-8002-c1fdf1beb0bf"><rect
             class="st0"
             rx="0"
             ry="0"
             x="132.8925"
             y="311.53751"
             width="8.7749996"
             height="1.95"
             id="rect9387" /></g></g><g
         id="shape-9a1be2dd-6c80-805e-8002-c1fdf1beb0c0"><g
           class="fills"
           id="fills-9a1be2dd-6c80-805e-8002-c1fdf1beb0c0"><rect
             class="st0"
             rx="0"
             ry="0"
             x="146.5425"
             y="311.53751"
             width="8.7749996"
             height="1.95"
             id="rect9391" /></g></g><g
         id="shape-9a1be2dd-6c80-805e-8002-c1fdf1bee9ab"><g
           class="fills"
           id="fills-9a1be2dd-6c80-805e-8002-c1fdf1bee9ab"><path
             class="st0"
             rx="0"
             ry="0"
             d="m 28.665,297.595 -1.462,1.267 c 1.949,2.243 4.192,4.29 6.532,6.143 l 1.17,-1.56 c -2.243,-1.755 -4.388,-3.705 -6.24,-5.85 z"
             id="path9395" /></g></g><g
         id="shape-9a1be2dd-6c80-805e-8002-c1fdf1bee9ac"><g
           class="fills"
           id="fills-9a1be2dd-6c80-805e-8002-c1fdf1bee9ac"><rect
             class="st0"
             rx="0"
             ry="0"
             x="147.81"
             y="24.692499"
             width="8.7749996"
             height="1.95"
             id="rect9399" /></g></g><g
         id="shape-9a1be2dd-6c80-805e-8002-c1fdf1bee9ad"><g
           class="fills"
           id="fills-9a1be2dd-6c80-805e-8002-c1fdf1bee9ad"><rect
             class="st0"
             rx="0"
             ry="0"
             x="105.5925"
             y="311.53751"
             width="8.7749996"
             height="1.95"
             id="rect9403" /></g></g><g
         id="shape-9a1be2dd-6c80-805e-8002-c1fdf1bf1950"><g
           class="fills"
           id="fills-9a1be2dd-6c80-805e-8002-c1fdf1bf1950"><rect
             class="st0"
             rx="0"
             ry="0"
             x="93.209999"
             y="24.692499"
             width="8.7749996"
             height="1.95"
             id="rect9407" /></g></g><g
         id="shape-9a1be2dd-6c80-805e-8002-c1fdf1bf1951"><g
           class="fills"
           id="fills-9a1be2dd-6c80-805e-8002-c1fdf1bf1951"><rect
             class="st0"
             rx="0"
             ry="0"
             x="91.942497"
             y="311.53751"
             width="8.7749996"
             height="1.95"
             id="rect9411" /></g></g><g
         id="shape-9a1be2dd-6c80-805e-8002-c1fdf1bf444d"><g
           class="fills"
           id="fills-9a1be2dd-6c80-805e-8002-c1fdf1bf444d"><rect
             class="st0"
             rx="0"
             ry="0"
             x="106.86"
             y="24.692499"
             width="8.7749996"
             height="1.95"
             id="rect9415" /></g></g><g
         id="shape-9a1be2dd-6c80-805e-8002-c1fdf1bf444e"><g
           class="fills"
           id="fills-9a1be2dd-6c80-805e-8002-c1fdf1bf444e"><rect
             class="st0"
             rx="0"
             ry="0"
             x="119.2425"
             y="311.53751"
             width="8.7749996"
             height="1.95"
             id="rect9419" /></g></g><g
         id="shape-9a1be2dd-6c80-805e-8002-c1fdf1bf8d04"><g
           class="fills"
           id="fills-9a1be2dd-6c80-805e-8002-c1fdf1bf8d04"><path
             class="st0"
             rx="0"
             ry="0"
             d="m 59.182,26.642 h 1.853 v -1.95 h -1.853 c -2.34,0 -4.679,0.195 -7.02,0.585 l 0.293,1.95 c 2.145,-0.39 4.387,-0.585 6.727,-0.585 z"
             id="path9423" /></g></g><g
         id="shape-9a1be2dd-6c80-805e-8002-c1fdf1bf8d05"><g
           class="fills"
           id="fills-9a1be2dd-6c80-805e-8002-c1fdf1bf8d05"><rect
             class="st0"
             rx="0"
             ry="0"
             x="17.0625"
             y="123.1675"
             width="1.95"
             height="8.7749996"
             id="rect9427" /></g></g><g
         id="shape-9a1be2dd-6c80-805e-8002-c1fdf1bff21f"><g
           class="fills"
           id="fills-9a1be2dd-6c80-805e-8002-c1fdf1bff21f"><rect
             class="st0"
             rx="0"
             ry="0"
             x="17.0625"
             y="109.5175"
             width="1.95"
             height="8.7749996"
             id="rect9431" /></g></g><g
         id="shape-9a1be2dd-6c80-805e-8002-c1fdf1bff220"><g
           class="fills"
           id="fills-9a1be2dd-6c80-805e-8002-c1fdf1bff220"><rect
             class="st0"
             rx="0"
             ry="0"
             x="17.0625"
             y="95.8675"
             width="1.95"
             height="8.7749996"
             id="rect9435" /></g></g><g
         id="shape-9a1be2dd-6c80-805e-8002-c1fdf1c000b4"><g
           class="fills"
           id="fills-9a1be2dd-6c80-805e-8002-c1fdf1c000b4"><rect
             class="st0"
             rx="0"
             ry="0"
             x="17.0625"
             y="136.8175"
             width="1.95"
             height="8.7749996"
             id="rect9439" /></g></g><g
         id="shape-9a1be2dd-6c80-805e-8002-c1fdf1c000b5"><g
           class="fills"
           id="fills-9a1be2dd-6c80-805e-8002-c1fdf1c000b5"><rect
             class="st0"
             rx="0"
             ry="0"
             x="17.0625"
             y="150.4675"
             width="1.95"
             height="8.7749996"
             id="rect9443" /></g></g><g
         id="shape-9a1be2dd-6c80-805e-8002-c1fdf1c051aa"><g
           class="fills"
           id="fills-9a1be2dd-6c80-805e-8002-c1fdf1c051aa"><path
             class="st0"
             rx="0"
             ry="0"
             d="m 20.475,50.043 1.755,0.779 c 1.17,-2.632 2.535,-5.167 4.192,-7.409 l -1.56,-1.17 c -1.754,2.437 -3.217,5.07 -4.387,7.8 z"
             id="path9447" /></g></g><g
         id="shape-9a1be2dd-6c80-805e-8002-c1fdf1c051ab"><g
           class="fills"
           id="fills-9a1be2dd-6c80-805e-8002-c1fdf1c051ab"><rect
             class="st0"
             rx="0"
             ry="0"
             x="17.0625"
             y="164.11749"
             width="1.95"
             height="8.7749996"
             id="rect9451" /></g></g><g
         id="shape-9a1be2dd-6c80-805e-8002-c1fdf1c089a8"><g
           class="fills"
           id="fills-9a1be2dd-6c80-805e-8002-c1fdf1c089a8"><path
             class="st0"
             rx="0"
             ry="0"
             d="m 20.67,55.308 -1.853,-0.585 c -0.877,2.827 -1.364,5.849 -1.56,8.775 l 1.95,0.097 c 0.098,-2.73 0.683,-5.557 1.463,-8.287 z"
             id="path9455" /></g></g><g
         id="shape-9a1be2dd-6c80-805e-8002-c1fdf1c0f619"><g
           class="fills"
           id="fills-9a1be2dd-6c80-805e-8002-c1fdf1c0f619"><path
             class="st0"
             rx="0"
             ry="0"
             d="m 332.962,57.843 c -0.584,-2.925 -1.56,-5.753 -2.827,-8.483 l -1.755,0.78 c 1.17,2.633 2.048,5.362 2.73,8.092 z"
             id="path9459" /></g></g><g
         id="shape-9a1be2dd-6c80-805e-8002-c1fdf1c10db0"><g
           class="fills"
           id="fills-9a1be2dd-6c80-805e-8002-c1fdf1c10db0"><rect
             class="st0"
             rx="0"
             ry="0"
             x="17.0625"
             y="68.567497"
             width="1.95"
             height="8.7749996"
             id="rect9463" /></g></g><g
         id="shape-9a1be2dd-6c80-805e-8002-c1fdf1c10db1"><g
           class="fills"
           id="fills-9a1be2dd-6c80-805e-8002-c1fdf1c10db1"><rect
             class="st0"
             rx="0"
             ry="0"
             x="17.0625"
             y="82.217499"
             width="1.95"
             height="8.7749996"
             id="rect9467" /></g></g><g
         id="shape-9a1be2dd-6c80-805e-8002-c1fdf1c10db2"><g
           class="fills"
           id="fills-9a1be2dd-6c80-805e-8002-c1fdf1c10db2"><rect
             class="st0"
             rx="0"
             ry="0"
             x="17.0625"
             y="246.0175"
             width="1.95"
             height="8.7749996"
             id="rect9471" /></g></g><g
         id="shape-9a1be2dd-6c80-805e-8002-c1fdf1c177fc"><g
           class="fills"
           id="fills-9a1be2dd-6c80-805e-8002-c1fdf1c177fc"><rect
             class="st0"
             rx="0"
             ry="0"
             x="17.0625"
             y="177.7675"
             width="1.95"
             height="8.7749996"
             id="rect9475" /></g></g><g
         id="shape-9a1be2dd-6c80-805e-8002-c1fdf1c177fd"><g
           class="fills"
           id="fills-9a1be2dd-6c80-805e-8002-c1fdf1c177fd"><path
             class="st0"
             rx="0"
             ry="0"
             d="m 19.012,273.22 -1.949,0.097 c 0.097,3.023 0.584,5.948 1.365,8.873 l 1.852,-0.487 c -0.683,-2.73 -1.073,-5.558 -1.268,-8.483 z"
             id="path9479" /></g></g><g
         id="shape-9a1be2dd-6c80-805e-8002-c1fdf1c1aa98"><g
           class="fills"
           id="fills-9a1be2dd-6c80-805e-8002-c1fdf1c1aa98"><path
             class="st0"
             rx="0"
             ry="0"
             d="m 19.987,286.967 c 1.073,2.73 2.535,5.461 4.193,7.898 l 1.657,-1.072 c -1.56,-2.34 -2.925,-4.875 -3.997,-7.605 z"
             id="path9483" /></g></g><g
         id="shape-9a1be2dd-6c80-805e-8002-c1fdf1c1aa99"><g
           class="fills"
           id="fills-9a1be2dd-6c80-805e-8002-c1fdf1c1aa99"><rect
             class="st0"
             rx="0"
             ry="0"
             x="17.0625"
             y="259.66751"
             width="1.95"
             height="8.7749996"
             id="rect9487" /></g></g><g
         id="shape-9a1be2dd-6c80-805e-8002-c1fdf1c1c33f"><g
           class="fills"
           id="fills-9a1be2dd-6c80-805e-8002-c1fdf1c1c33f"><rect
             class="st0"
             rx="0"
             ry="0"
             x="17.0625"
             y="205.0675"
             width="1.95"
             height="8.7749996"
             id="rect9491" /></g></g><g
         id="shape-9a1be2dd-6c80-805e-8002-c1fdf1c2273f"><g
           class="fills"
           id="fills-9a1be2dd-6c80-805e-8002-c1fdf1c2273f"><rect
             class="st0"
             rx="0"
             ry="0"
             x="17.0625"
             y="191.4175"
             width="1.95"
             height="8.7749996"
             id="rect9495" /></g></g><g
         id="shape-9a1be2dd-6c80-805e-8002-c1fdf1c22740"><g
           class="fills"
           id="fills-9a1be2dd-6c80-805e-8002-c1fdf1c22740"><rect
             class="st0"
             rx="0"
             ry="0"
             x="17.0625"
             y="232.36749"
             width="1.95"
             height="8.7749996"
             id="rect9499" /></g></g><g
         id="shape-9a1be2dd-6c80-805e-8002-c1fdf1c22741"><g
           class="fills"
           id="fills-9a1be2dd-6c80-805e-8002-c1fdf1c22741"><rect
             class="st0"
             rx="0"
             ry="0"
             x="17.0625"
             y="218.7175"
             width="1.95"
             height="8.7749996"
             id="rect9503" /></g></g><g
         id="shape-9a1be2dd-6c80-805e-8002-c1fdf1c25513"><g
           class="fills"
           id="fills-9a1be2dd-6c80-805e-8002-c1fdf1c25513"><rect
             class="st0"
             rx="0"
             ry="0"
             x="255.74249"
             y="311.53751"
             width="8.7749996"
             height="1.95"
             id="rect9507" /></g></g><g
         id="shape-9a1be2dd-6c80-805e-8002-c1fdf1c25514"><g
           class="fills"
           id="fills-9a1be2dd-6c80-805e-8002-c1fdf1c25514"><rect
             class="st0"
             rx="0"
             ry="0"
             x="331.98749"
             y="240.265"
             width="1.95"
             height="8.7749996"
             id="rect9511" /></g></g><g
         id="shape-9a1be2dd-6c80-805e-8002-c1fdf1c25515"><g
           class="fills"
           id="fills-9a1be2dd-6c80-805e-8002-c1fdf1c25515"><rect
             class="st0"
             rx="0"
             ry="0"
             x="331.98749"
             y="253.91499"
             width="1.95"
             height="8.7749996"
             id="rect9515" /></g></g><g
         id="shape-9a1be2dd-6c80-805e-8002-c1fdf1c2aa20"><g
           class="fills"
           id="fills-9a1be2dd-6c80-805e-8002-c1fdf1c2aa20"><rect
             class="st0"
             rx="0"
             ry="0"
             x="331.98749"
             y="185.66499"
             width="1.95"
             height="8.7749996"
             id="rect9519" /></g></g><g
         id="shape-9a1be2dd-6c80-805e-8002-c1fdf1c2aa21"><g
           class="fills"
           id="fills-9a1be2dd-6c80-805e-8002-c1fdf1c2aa21"><rect
             class="st0"
             rx="0"
             ry="0"
             x="331.98749"
             y="212.965"
             width="1.95"
             height="8.7749996"
             id="rect9523" /></g></g><g
         id="shape-9a1be2dd-6c80-805e-8002-c1fdf1c2f409"><g
           class="fills"
           id="fills-9a1be2dd-6c80-805e-8002-c1fdf1c2f409"><rect
             class="st0"
             rx="0"
             ry="0"
             x="331.98749"
             y="199.315"
             width="1.95"
             height="8.7749996"
             id="rect9527" /></g></g><g
         id="shape-9a1be2dd-6c80-805e-8002-c1fdf1c2f40a"><g
           class="fills"
           id="fills-9a1be2dd-6c80-805e-8002-c1fdf1c2f40a"><rect
             class="st0"
             rx="0"
             ry="0"
             x="331.98749"
             y="226.61501"
             width="1.95"
             height="8.7749996"
             id="rect9531" /></g></g><g
         id="shape-9a1be2dd-6c80-805e-8002-c1fdf1c3058a"><g
           class="fills"
           id="fills-9a1be2dd-6c80-805e-8002-c1fdf1c3058a"><path
             class="st0"
             rx="0"
             ry="0"
             d="m 320.287,299.74 1.365,1.365 c 2.145,-2.145 3.998,-4.485 5.655,-7.02 l -1.657,-1.072 c -1.56,2.535 -3.315,4.777 -5.363,6.727 z"
             id="path9535" /></g></g><g
         id="shape-9a1be2dd-6c80-805e-8002-c1fdf1c363f2"><g
           class="fills"
           id="fills-9a1be2dd-6c80-805e-8002-c1fdf1c363f2"><path
             class="st0"
             rx="0"
             ry="0"
             d="m 331.987,271.465 c 0,1.56 -0.097,3.218 -0.292,4.778 l 1.95,0.195 c 0.195,-1.658 0.293,-3.316 0.293,-5.07 v -3.803 h -1.951 z"
             id="path9539" /></g></g><g
         id="shape-9a1be2dd-6c80-805e-8002-c1fdf1c363f3"><g
           class="fills"
           id="fills-9a1be2dd-6c80-805e-8002-c1fdf1c363f3"><path
             class="st0"
             rx="0"
             ry="0"
             d="m 327.795,44.875 c -1.56,-2.535 -3.413,-4.973 -5.46,-7.118 l -1.463,1.366 c 1.95,2.047 3.706,4.387 5.168,6.824 z"
             id="path9543" /></g></g><g
         id="shape-9a1be2dd-6c80-805e-8002-c1fdf1c3b820"><g
           class="fills"
           id="fills-9a1be2dd-6c80-805e-8002-c1fdf1c3b820"><path
             class="st0"
             rx="0"
             ry="0"
             d="m 327.99,288.918 1.755,0.877 c 1.267,-2.73 2.34,-5.558 3.022,-8.482 l -1.852,-0.488 c -0.682,2.827 -1.658,5.558 -2.925,8.093 z"
             id="path9547" /></g></g><g
         id="shape-9a1be2dd-6c80-805e-8002-c1fdf1c3c8a5"><g
           class="fills"
           id="fills-9a1be2dd-6c80-805e-8002-c1fdf1c3c8a5"><rect
             class="st0"
             rx="0"
             ry="0"
             x="161.46001"
             y="24.692499"
             width="8.7749996"
             height="1.95"
             id="rect9551" /></g></g><g
         id="shape-9a1be2dd-6c80-805e-8002-c1fdf1c3c8a6"><g
           class="fills"
           id="fills-9a1be2dd-6c80-805e-8002-c1fdf1c3c8a6"><rect
             class="st0"
             rx="0"
             ry="0"
             x="331.98749"
             y="76.464996"
             width="1.95"
             height="8.7749996"
             id="rect9555" /></g></g><g
         id="shape-9a1be2dd-6c80-805e-8002-c1fdf1c3c8a7"><g
           class="fills"
           id="fills-9a1be2dd-6c80-805e-8002-c1fdf1c3c8a7"><rect
             class="st0"
             rx="0"
             ry="0"
             x="331.98749"
             y="103.765"
             width="1.95"
             height="8.7749996"
             id="rect9559" /></g></g><g
         id="shape-9a1be2dd-6c80-805e-8002-c1fdf1c42e93"><g
           class="fills"
           id="fills-9a1be2dd-6c80-805e-8002-c1fdf1c42e93"><rect
             class="st0"
             rx="0"
             ry="0"
             x="331.98749"
             y="90.114998"
             width="1.95"
             height="8.7749996"
             id="rect9563" /></g></g><g
         id="shape-9a1be2dd-6c80-805e-8002-c1fdf1c478b8"><g
           class="fills"
           id="fills-9a1be2dd-6c80-805e-8002-c1fdf1c478b8"><path
             class="st0"
             rx="0"
             ry="0"
             d="m 333.742,62.718 -1.95,0.195 c 0.098,1.267 0.195,2.534 0.195,3.802 v 4.875 h 1.951 v -4.875 c 0,-1.268 -0.098,-2.633 -0.196,-3.997 z"
             id="path9567" /></g></g><g
         id="shape-9a1be2dd-6c80-805e-8002-c1fdf1c478b9"><g
           class="fills"
           id="fills-9a1be2dd-6c80-805e-8002-c1fdf1c478b9"><rect
             class="st0"
             rx="0"
             ry="0"
             x="331.98749"
             y="144.715"
             width="1.95"
             height="8.7749996"
             id="rect9571" /></g></g><g
         id="shape-9a1be2dd-6c80-805e-8002-c1fdf1c4a06b"><g
           class="fills"
           id="fills-9a1be2dd-6c80-805e-8002-c1fdf1c4a06b"><rect
             class="st0"
             rx="0"
             ry="0"
             x="331.98749"
             y="172.015"
             width="1.95"
             height="8.7749996"
             id="rect9575" /></g></g><g
         id="shape-9a1be2dd-6c80-805e-8002-c1fdf1c4c6d4"><g
           class="fills"
           id="fills-9a1be2dd-6c80-805e-8002-c1fdf1c4c6d4"><path
             class="st0"
             rx="0"
             ry="0"
             d="m 318.727,34.345 c -2.34,-1.95 -4.777,-3.607 -7.507,-4.972 l -0.878,1.754 c 2.536,1.366 4.875,2.925 7.118,4.778 z"
             id="path9579" /></g></g><g
         id="shape-9a1be2dd-6c80-805e-8002-c1fdf1c4c6d5"><g
           class="fills"
           id="fills-9a1be2dd-6c80-805e-8002-c1fdf1c4c6d5"><rect
             class="st0"
             rx="0"
             ry="0"
             x="331.98749"
             y="158.36501"
             width="1.95"
             height="8.7749996"
             id="rect9583" /></g></g><g
         id="shape-9a1be2dd-6c80-805e-8002-c1fdf1c52923"><g
           class="fills"
           id="fills-9a1be2dd-6c80-805e-8002-c1fdf1c52923"><rect
             class="st0"
             rx="0"
             ry="0"
             x="331.98749"
             y="131.065"
             width="1.95"
             height="8.7749996"
             id="rect9587" /></g></g><g
         id="shape-9a1be2dd-6c80-805e-8002-c1fdf1c52924"><g
           class="fills"
           id="fills-9a1be2dd-6c80-805e-8002-c1fdf1c52924"><rect
             class="st0"
             rx="0"
             ry="0"
             x="331.98749"
             y="117.415"
             width="1.95"
             height="8.7749996"
             id="rect9591" /></g></g><g
         id="shape-9a1be2dd-6c80-805e-8002-c1fdf1c52925"><g
           class="fills"
           id="fills-9a1be2dd-6c80-805e-8002-c1fdf1c52925"><rect
             class="st0"
             rx="0"
             ry="0"
             x="214.7925"
             y="311.53751"
             width="8.7749996"
             height="1.95"
             id="rect9595" /></g></g><g
         id="shape-9a1be2dd-6c80-805e-8002-c1fdf1c57276"><g
           class="fills"
           id="fills-9a1be2dd-6c80-805e-8002-c1fdf1c57276"><rect
             class="st0"
             rx="0"
             ry="0"
             x="202.41"
             y="24.692499"
             width="8.7749996"
             height="1.95"
             id="rect9599" /></g></g><g
         id="shape-9a1be2dd-6c80-805e-8002-c1fdf1c57277"><g
           class="fills"
           id="fills-9a1be2dd-6c80-805e-8002-c1fdf1c57277"><rect
             class="st0"
             rx="0"
             ry="0"
             x="201.1425"
             y="311.53751"
             width="8.7749996"
             height="1.95"
             id="rect9603" /></g></g><g
         id="shape-9a1be2dd-6c80-805e-8002-c1fdf1c57278"><g
           class="fills"
           id="fills-9a1be2dd-6c80-805e-8002-c1fdf1c57278"><rect
             class="st0"
             rx="0"
             ry="0"
             x="228.4425"
             y="311.53751"
             width="8.7749996"
             height="1.95"
             id="rect9607" /></g></g><g
         id="shape-9a1be2dd-6c80-805e-8002-c1fdf1c5a5e8"><g
           class="fills"
           id="fills-9a1be2dd-6c80-805e-8002-c1fdf1c5a5e8"><rect
             class="st0"
             rx="0"
             ry="0"
             x="229.71001"
             y="24.692499"
             width="8.7749996"
             height="1.95"
             id="rect9611" /></g></g><g
         id="shape-9a1be2dd-6c80-805e-8002-c1fdf1c5a5e9"><g
           class="fills"
           id="fills-9a1be2dd-6c80-805e-8002-c1fdf1c5a5e9"><rect
             class="st0"
             rx="0"
             ry="0"
             x="216.06"
             y="24.692499"
             width="8.7749996"
             height="1.95"
             id="rect9615" /></g></g><g
         id="shape-9a1be2dd-6c80-805e-8002-c1fdf1c5a5ea"><g
           class="fills"
           id="fills-9a1be2dd-6c80-805e-8002-c1fdf1c5a5ea"><rect
             class="st0"
             rx="0"
             ry="0"
             x="173.8425"
             y="311.53751"
             width="8.7749996"
             height="1.95"
             id="rect9619" /></g></g><g
         id="shape-9a1be2dd-6c80-805e-8002-c1fdf1c5d359"><g
           class="fills"
           id="fills-9a1be2dd-6c80-805e-8002-c1fdf1c5d359"><rect
             class="st0"
             rx="0"
             ry="0"
             x="188.75999"
             y="24.692499"
             width="8.7749996"
             height="1.95"
             id="rect9623" /></g></g><g
         id="shape-9a1be2dd-6c80-805e-8002-c1fdf1c5d35a"><g
           class="fills"
           id="fills-9a1be2dd-6c80-805e-8002-c1fdf1c5d35a"><rect
             class="st0"
             rx="0"
             ry="0"
             x="175.11"
             y="24.692499"
             width="8.7749996"
             height="1.95"
             id="rect9627" /></g></g><g
         id="shape-9a1be2dd-6c80-805e-8002-c1fdf1c610cf"><g
           class="fills"
           id="fills-9a1be2dd-6c80-805e-8002-c1fdf1c610cf"><rect
             class="st0"
             rx="0"
             ry="0"
             x="187.49249"
             y="311.53751"
             width="8.7749996"
             height="1.95"
             id="rect9631" /></g></g><g
         id="shape-9a1be2dd-6c80-805e-8002-c1fdf1c67c01"><g
           class="fills"
           id="fills-9a1be2dd-6c80-805e-8002-c1fdf1c67c01"><path
             class="st0"
             rx="0"
             ry="0"
             d="m 296.79,311.245 0.195,1.95 c 2.925,-0.39 5.947,-1.073 8.775,-2.047 l -0.682,-1.853 c -2.633,0.975 -5.461,1.658 -8.288,1.95 z"
             id="path9635" /></g></g><g
         id="shape-9a1be2dd-6c80-805e-8002-c1fdf1c67c02"><g
           class="fills"
           id="fills-9a1be2dd-6c80-805e-8002-c1fdf1c67c02"><rect
             class="st0"
             rx="0"
             ry="0"
             x="242.0925"
             y="311.53751"
             width="8.7749996"
             height="1.95"
             id="rect9639" /></g></g><g
         id="shape-9a1be2dd-6c80-805e-8002-c1fdf1c6a961"><g
           class="fills"
           id="fills-9a1be2dd-6c80-805e-8002-c1fdf1c6a961"><path
             class="st0"
             rx="0"
             ry="0"
             d="m 309.465,307.442 0.877,1.755 c 2.73,-1.267 5.265,-2.924 7.605,-4.777 l -1.17,-1.56 c -2.339,1.853 -4.777,3.413 -7.312,4.582 z"
             id="path9643" /></g></g><g
         id="shape-9a1be2dd-6c80-805e-8002-c1fdf1c6a962"><g
           class="fills"
           id="fills-9a1be2dd-6c80-805e-8002-c1fdf1c6a962"><path
             class="st0"
             rx="0"
             ry="0"
             d="m 293.085,26.642 0.097,-1.95 c -0.389,0 -0.78,0 -1.267,0 h -7.605 v 1.95 h 7.605 c 0.39,0 0.78,0 1.17,0 z"
             id="path9647" /></g></g><g
         id="shape-9a1be2dd-6c80-805e-8002-c1fdf1c6fb7c"><g
           class="fills"
           id="fills-9a1be2dd-6c80-805e-8002-c1fdf1c6fb7c"><path
             class="st0"
             rx="0"
             ry="0"
             d="m 306.735,27.325 c -2.827,-1.073 -5.752,-1.852 -8.678,-2.243 l -0.292,1.95 c 2.827,0.391 5.655,1.17 8.288,2.145 z"
             id="path9651" /></g></g><g
         id="shape-9a1be2dd-6c80-805e-8002-c1fdf1c72990"><g
           class="fills"
           id="fills-9a1be2dd-6c80-805e-8002-c1fdf1c72990"><rect
             class="st0"
             rx="0"
             ry="0"
             x="283.04251"
             y="311.53751"
             width="8.9700003"
             height="1.95"
             id="rect9655" /></g></g><g
         id="shape-9a1be2dd-6c80-805e-8002-c1fdf1c72991"><g
           class="fills"
           id="fills-9a1be2dd-6c80-805e-8002-c1fdf1c72991"><rect
             class="st0"
             rx="0"
             ry="0"
             x="257.01001"
             y="24.692499"
             width="8.7749996"
             height="1.95"
             id="rect9659" /></g></g><g
         id="shape-9a1be2dd-6c80-805e-8002-c1fdf1c72992"><g
           class="fills"
           id="fills-9a1be2dd-6c80-805e-8002-c1fdf1c72992"><rect
             class="st0"
             rx="0"
             ry="0"
             x="270.66"
             y="24.692499"
             width="8.7749996"
             height="1.95"
             id="rect9663" /></g></g><g
         id="shape-9a1be2dd-6c80-805e-8002-c1fdf1c74eb5"><g
           class="fills"
           id="fills-9a1be2dd-6c80-805e-8002-c1fdf1c74eb5"><rect
             class="st0"
             rx="0"
             ry="0"
             x="243.36"
             y="24.692499"
             width="8.7749996"
             height="1.95"
             id="rect9667" /></g></g><g
         id="shape-9a1be2dd-6c80-805e-8002-c1fdf1c74eb6"><g
           class="fills"
           id="fills-9a1be2dd-6c80-805e-8002-c1fdf1c74eb6"><rect
             class="st0"
             rx="0"
             ry="0"
             x="269.39249"
             y="311.53751"
             width="8.7749996"
             height="1.95"
             id="rect9671" /></g></g><g
         id="shape-9a1be2dd-6c80-805e-8002-c1fdf1c94ed2"><g
           class="fills"
           id="fills-9a1be2dd-6c80-805e-8002-c1fdf1c94ed2"><path
             class="st0"
             rx="0"
             ry="0"
             d="m 52.358,304.517 v -28.274 l 248.137,0.585 v 28.567 h 2.925 v -28.567 l 25.155,0.097 c 0,0 0,0 0,0 0.195,0 0.39,0 0.585,-0.097 0,0 0.097,0 0.097,0 0.098,0 0.098,-0.098 0.196,-0.098 0,0 0.097,-0.098 0.097,-0.098 0,0 0.098,-0.097 0.098,-0.097 0,0 0,-0.097 0.097,-0.097 0,0 0.098,-0.098 0.098,-0.098 0,0 0,-0.098 0.097,-0.098 0,-0.097 0.098,-0.097 0.098,-0.195 0,0 0,-0.097 0,-0.097 0,0 0,-0.098 0,-0.195 0,-0.098 0,-0.195 0,-0.195 0,0 0,0 0,-0.098 0,0 0,0 0,0 0,-0.097 0,-0.097 0,-0.195 0,0 0,-0.097 0,-0.097 0,0 0,0 0,0 L 302.445,142.082 c -0.097,-0.682 -0.78,-1.17 -1.462,-1.17 h -58.598 l -2.242,-10.14 H 117 l -2.047,10.14 H 54.892 c -0.389,0 -0.78,0.195 -1.072,0.39 -0.488,0.488 -1.267,1.365 -4.485,18.038 h -0.293 v 1.657 c -1.95,10.043 -4.582,25.253 -8.482,48.555 -5.363,32.273 -10.335,64.643 -10.335,64.935 -0.097,0.391 0.097,0.878 0.292,1.171 0.293,0.292 0.683,0.487 1.073,0.487 h 17.745 v 28.275 z m 55.77,-115.05 z m 0,0 3.022,-15.112 h 22.522 l -1.852,20.67 h -24.96 z m 0,0 z m 7.409,-36.855 h 20.085 l -1.657,18.818 h -22.23 z m 75.953,21.743 1.17,20.67 h -28.275 l 0.39,-20.67 z m -26.715,-2.925 0.292,-18.818 h 25.155 l 1.073,18.818 z m -3.413,23.498 h -26.52 l 1.853,-20.67 h 25.058 z m 0,2.924 -0.39,21.158 h -28.177 l 1.852,-21.158 z m 2.925,0 h 28.568 l 1.17,21.158 h -30.128 z m 31.493,0 h 26.52 l 2.828,21.158 H 196.95 Z m -0.195,-2.924 -1.17,-20.67 h 24.57 l 2.828,20.67 z m -1.365,-23.498 -1.073,-18.818 h 22.913 l 2.535,18.818 z m -1.17,-21.742 -0.878,-15.991 h 21.353 l 2.145,15.991 z m -2.925,0 h -24.96 l 0.292,-15.991 h 23.79 z m -27.885,0 h -23.4 l 1.365,-15.991 h 22.328 z m -0.098,2.924 -0.292,18.818 h -24.863 l 1.658,-18.818 z m -55.77,45.24 h 25.253 l -1.853,21.158 h -27.69 z m -4.875,24.083 h 28.081 l -2.146,24.18 -30.81,0.098 z m 31.006,0 h 28.372 l -0.39,24.082 -30.03,0.098 z m 31.394,0 h 30.323 l 1.365,23.887 -32.078,0.098 z m 34.515,23.887 -1.365,-23.887 h 28.373 l 3.217,23.79 z m 33.248,-0.097 -3.218,-23.692 h 29.055 l 5.265,23.595 z m -3.607,-26.715 -2.828,-21.158 h 26.91 l 4.68,21.158 z m -3.218,-24.082 -2.828,-20.67 h 24.863 l 4.583,20.67 z m -3.218,-23.498 -2.535,-18.818 h 22.913 l 4.193,18.818 z m 19.696,-21.742 h -22.718 l -2.145,-15.991 h 21.255 z M 119.438,133.697 h 17.94 l -1.366,15.991 h -19.695 z m -77.61,86.483 h 32.077 v -2.925 h -31.59 c 3.412,-21.06 6.825,-41.048 9.457,-54.99 H 82.777 V 159.34 H 52.26 c 1.56,-7.995 2.73,-13.552 3.51,-15.503 h 58.597 l -8.677,42.706 H 73.125 v 2.924 h 31.98 l -12.09,59.671 173.355,-0.78 -8.873,-39.781 h 33.15 v -2.925 h -33.735 v 0.585 l -9.847,-44.069 h 31.882 v -2.926 H 246.48 l -3.51,-15.502 h 56.745 l 20.475,98.475 h -38.707 v 2.925 h 39.292 l 5.947,28.665 -293.475,-0.683 c 2.633,-16.087 5.558,-34.807 8.581,-52.942 z"
             id="path9675" /></g></g><g
         id="shape-9a1be2dd-6c80-805e-8002-c1fdf1c94ed3"><g
           class="fills"
           id="fills-9a1be2dd-6c80-805e-8002-c1fdf1c94ed3"><rect
             class="st0"
             rx="0"
             ry="0"
             x="176.64165"
             y="116.44724"
             transform="rotate(-33.766328,191.21778,117.90986)"
             width="29.152111"
             height="2.9249611"
             id="rect9679" /></g></g><g
         id="shape-9a1be2dd-6c80-805e-8002-c1fdf1c9bd1c"><g
           class="fills"
           id="fills-9a1be2dd-6c80-805e-8002-c1fdf1c9bd1c"><rect
             class="st0"
             rx="0"
             ry="0"
             x="235.51892"
             y="107.46889"
             transform="rotate(-59.244548,240.49166,108.93139)"
             width="9.9454889"
             height="2.9251437"
             id="rect9683" /></g></g><g
         id="shape-9a1be2dd-6c80-805e-8002-c1fdf1ca7a90"><g
           class="fills"
           id="fills-9a1be2dd-6c80-805e-8002-c1fdf1ca7a90"><path
             class="st0"
             rx="0"
             ry="0"
             d="m 263.152,35.71 -0.682,19.11 c -1.657,0.098 -3.315,0.488 -4.778,1.072 l -11.31,-20.669 -2.535,1.364 11.311,20.67 c -1.951,1.268 -3.511,2.926 -4.778,4.973 l -40.755,-26.422 -1.56,2.437 41.047,26.618 c -0.487,1.364 -0.78,2.827 -0.877,4.387 0,0.39 0,0.78 0,1.073 h -40.56 v 2.925 h 40.95 c 0.292,1.267 0.78,2.437 1.365,3.607 l -22.523,15.015 1.658,2.438 22.522,-15.015 c 0.878,1.072 1.95,2.047 3.023,2.827 l -9.75,16.38 2.535,1.462 9.848,-16.477 c 1.462,0.683 3.119,1.073 4.777,1.17 l -0.195,22.328 h 2.925 l 0.195,-22.425 c 1.56,-0.195 3.022,-0.585 4.387,-1.171 l 26.813,45.046 2.535,-1.463 -26.812,-45.045 c 1.267,-0.878 2.339,-1.95 3.217,-3.12 l 38.317,19.597 1.366,-2.632 -38.123,-19.5 c 0.682,-1.365 1.17,-2.925 1.462,-4.582 l 40.268,2.242 0.195,-2.925 -40.365,-2.243 c -0.098,-1.755 -0.488,-3.412 -1.073,-4.875 L 306.637,46.142 305.175,43.9 275.828,61.548 c -0.878,-1.365 -2.048,-2.536 -3.316,-3.608 l 12.383,-20.475 -2.535,-1.56 -12.285,20.572 c -1.463,-0.682 -3.022,-1.267 -4.68,-1.462 l 0.683,-19.207 z m 12.188,34.613 c -0.293,6.629 -5.85,11.895 -12.578,11.602 -3.9,-0.195 -7.507,-2.145 -9.652,-5.46 -1.463,-2.145 -2.145,-4.583 -2.047,-7.215 0.292,-6.532 5.654,-11.602 12.089,-11.602 0.195,0 0.293,0 0.488,0 6.825,0.39 11.992,6.044 11.7,12.675 z"
             id="path9687" /></g></g><g
         id="shape-9a1be2dd-6c80-805e-8002-c1fdf1ca86ac"><g
           class="fills"
           id="fills-9a1be2dd-6c80-805e-8002-c1fdf1ca86ac"><rect
             class="st0"
             rx="0"
             ry="0"
             x="227.41643"
             y="120.16132"
             transform="rotate(-59.228876,232.9249,121.62374)"
             width="11.017275"
             height="2.9249403"
             id="rect9691" /></g></g><g
         id="shape-9a1be2dd-6c80-805e-8002-c1fdf1ca86ad"><g
           class="fills"
           id="fills-9a1be2dd-6c80-805e-8002-c1fdf1ca86ad"><rect
             class="st0"
             rx="0"
             ry="0"
             x="256.06885"
             y="117.89514"
             transform="rotate(-89.571023,263.18664,119.35764)"
             width="14.235399"
             height="2.925082"
             id="rect9695" /></g></g><g
         id="shape-9a1be2dd-6c80-805e-8002-c1fdf1ca86ae"><g
           class="fills"
           id="fills-9a1be2dd-6c80-805e-8002-c1fdf1ca86ae"><rect
             class="st0"
             rx="0"
             ry="0"
             x="206.02319"
             y="100.41796"
             transform="rotate(-33.766328,215.33441,101.88058)"
             width="18.622252"
             height="2.9249611"
             id="rect9699" /></g></g></g></g>
</svg>
