<svg xmlns:xlink="http://www.w3.org/1999/xlink" width="360" xmlns="http://www.w3.org/2000/svg" height="343.9" id="screenshot-9a1be2dd-6c80-805e-8002-c1fdf1ba6ab1" viewBox="-3 -3 360 343.9" style="-webkit-print-color-adjust: exact;" fill="none" version="1.1"><g xmlns:xlink="http://www.w3.org/1999/xlink" xml:space="preserve" x="0px" id="shape-9a1be2dd-6c80-805e-8002-c1fdf1ba6ab1" style="fill: rgb(0, 0, 0);" ry="0" rx="0" y="0px" version="1.1"><g id="shape-9a1be2dd-6c80-805e-8002-c1fdf1bae052"><g class="fills" id="fills-9a1be2dd-6c80-805e-8002-c1fdf1bae052"><rect width="351" height="335.3025" x="0" transform="matrix(1.000000, 0.000000, 0.000000, 1.000000, 0.000000, 0.000000)" style="fill: none;" ry="0" fill="none" rx="0" y="0"/></g></g><g id="shape-9a1be2dd-6c80-805e-8002-c1fdf1bae053"><style type="text/css" rx="0" ry="0" style="fill: rgb(0, 0, 0);">.st0{fill:#004B00;}</style></g><g id="shape-9a1be2dd-6c80-805e-8002-c1fdf1bb03e4" rx="0" ry="0" style="fill: rgb(0, 0, 0);"><g id="shape-9a1be2dd-6c80-805e-8002-c1fdf1bcbe26"><g class="fills" id="fills-9a1be2dd-6c80-805e-8002-c1fdf1bcbe26"><path class="st0" rx="0" ry="0" d="M141.472,75.002C133.672,67.007,132.600,58.623,138.645,52.577C140.887,50.433,144.495,49.457,148.395,49.945C153.075,50.530,157.462,53.163,159.705,56.770L160.387,57.843L161.557,57.355C164.872,55.990,167.797,55.892,170.235,56.965C172.380,58.038,173.940,60.085,174.720,63.107L175.207,64.765L176.767,64.082C179.302,63.010,182.325,63.595,184.860,65.642C187.005,67.398,188.955,70.615,188.662,74.515C188.565,74.418,188.370,74.320,188.272,74.320C185.932,73.150,183.007,73.052,179.985,74.125C177.547,70.907,173.647,68.762,169.358,68.275C165.262,67.788,161.557,68.860,159.022,71.200C152.880,77.342,153.757,85.922,161.362,93.625L163.410,91.577C156.975,85.045,156.097,78.220,161.070,73.345C162.922,71.590,165.750,70.810,168.967,71.200C172.770,71.688,176.377,73.832,178.230,76.757L178.912,77.830L180.082,77.342C182.715,76.270,185.152,76.075,187.102,77.050C188.857,77.927,190.027,79.585,190.710,82.022L191.197,83.680L192.757,82.997C194.805,82.120,197.242,82.607,199.192,84.265C201.142,85.922,202.897,89.042,202.020,92.747L204.847,93.430C205.822,89.238,204.360,84.850,201.045,82.022C198.607,79.975,195.780,79.195,193.050,79.780C192.660,78.707,192.075,77.732,191.392,76.855C192.563,71.980,190.807,66.813,186.907,63.497C183.982,61.060,180.570,60.183,177.352,60.962C176.182,57.940,174.330,55.697,171.795,54.430C168.967,53.065,165.555,52.967,161.850,54.235C159.022,50.433,154.342,47.800,149.077,47.117C144.300,46.532,139.815,47.800,136.890,50.627C129.577,57.842,130.650,67.982,139.717,77.147L141.472,75.002ZZ"/></g></g><g id="shape-9a1be2dd-6c80-805e-8002-c1fdf1bcce3c"><g class="fills" id="fills-9a1be2dd-6c80-805e-8002-c1fdf1bcce3c"><rect class="st0" rx="0" ry="0" x="65.90999999999985" y="24.692499999999995" transform="matrix(1.000000, 0.000000, 0.000000, 1.000000, 0.000000, 0.000000)" width="8.775000000000091" height="1.9499999999999886"/></g></g><g id="shape-9a1be2dd-6c80-805e-8002-c1fdf1bcce3d"><g class="fills" id="fills-9a1be2dd-6c80-805e-8002-c1fdf1bcce3d"><rect class="st0" rx="0" ry="0" x="79.55999999999995" y="24.692499999999995" transform="matrix(1.000000, 0.000000, 0.000000, 1.000000, 0.000000, 0.000000)" width="8.774999999999864" height="1.9499999999999886"/></g></g><g id="shape-9a1be2dd-6c80-805e-8002-c1fdf1bd1b74"><g class="fills" id="fills-9a1be2dd-6c80-805e-8002-c1fdf1bd1b74"><rect class="st0" rx="0" ry="0" x="160.19249999999988" y="311.5374999999999" transform="matrix(1.000000, 0.000000, 0.000000, 1.000000, 0.000000, 0.000000)" width="8.775000000000091" height="1.9500000000000455"/></g></g><g id="shape-9a1be2dd-6c80-805e-8002-c1fdf1bd1b75"><g class="fills" id="fills-9a1be2dd-6c80-805e-8002-c1fdf1bd1b75"><rect class="st0" rx="0" ry="0" x="78.29249999999979" y="311.5374999999999" transform="matrix(1.000000, 0.000000, 0.000000, 1.000000, 0.000000, 0.000000)" width="8.775000000000091" height="1.9500000000000455"/></g></g><g id="shape-9a1be2dd-6c80-805e-8002-c1fdf1bd5a68"><g class="fills" id="fills-9a1be2dd-6c80-805e-8002-c1fdf1bd5a68"><rect class="st0" rx="0" ry="0" x="64.64249999999993" y="311.5374999999999" transform="matrix(1.000000, 0.000000, 0.000000, 1.000000, 0.000000, 0.000000)" width="8.774999999999864" height="1.9500000000000455"/></g></g><g id="shape-9a1be2dd-6c80-805e-8002-c1fdf1bd9221"><g class="fills" id="fills-9a1be2dd-6c80-805e-8002-c1fdf1bd9221"><path class="st0" rx="0" ry="0" d="M35.880,34.052L34.710,32.493C32.272,34.248,30.030,36.197,27.983,38.440L29.445,39.707C31.395,37.563,33.540,35.710,35.880,34.052ZZ"/></g></g><g id="shape-9a1be2dd-6c80-805e-8002-c1fdf1bd9222"><g class="fills" id="fills-9a1be2dd-6c80-805e-8002-c1fdf1bd9222"><path class="st0" rx="0" ry="0" d="M37.928,307.735C40.560,309.295,43.290,310.465,46.117,311.440L46.703,309.588C43.972,308.710,41.340,307.540,38.902,306.078L37.928,307.735ZZ"/></g></g><g id="shape-9a1be2dd-6c80-805e-8002-c1fdf1be2fa6"><g class="fills" id="fills-9a1be2dd-6c80-805e-8002-c1fdf1be2fa6"><path class="st0" rx="0" ry="0" d="M51.285,310.758L50.895,312.707C53.625,313.195,56.355,313.487,59.182,313.487L59.865,313.487L59.865,311.537L59.182,311.537C56.453,311.537,53.820,311.342,51.285,310.758ZZ"/></g></g><g id="shape-9a1be2dd-6c80-805e-8002-c1fdf1be2fa7"><g class="fills" id="fills-9a1be2dd-6c80-805e-8002-c1fdf1be2fa7"><path class="st0" rx="0" ry="0" d="M47.775,28.202L47.190,26.350C44.362,27.227,41.535,28.398,38.902,29.762L39.878,31.517C42.412,30.152,45.045,29.080,47.775,28.202ZZ"/></g></g><g id="shape-9a1be2dd-6c80-805e-8002-c1fdf1be7986"><g class="fills" id="fills-9a1be2dd-6c80-805e-8002-c1fdf1be7986"><rect class="st0" rx="0" ry="0" x="120.50999999999976" y="24.692499999999995" transform="matrix(1.000000, 0.000000, 0.000000, 1.000000, 0.000000, 0.000000)" width="8.775000000000091" height="1.9499999999999886"/></g></g><g id="shape-9a1be2dd-6c80-805e-8002-c1fdf1be7987"><g class="fills" id="fills-9a1be2dd-6c80-805e-8002-c1fdf1be7987"><rect class="st0" rx="0" ry="0" x="134.15999999999985" y="24.692499999999995" transform="matrix(1.000000, 0.000000, 0.000000, 1.000000, 0.000000, 0.000000)" width="8.775000000000091" height="1.9499999999999886"/></g></g><g id="shape-9a1be2dd-6c80-805e-8002-c1fdf1beb0bf"><g class="fills" id="fills-9a1be2dd-6c80-805e-8002-c1fdf1beb0bf"><rect class="st0" rx="0" ry="0" x="132.89249999999993" y="311.5374999999999" transform="matrix(1.000000, 0.000000, 0.000000, 1.000000, 0.000000, 0.000000)" width="8.774999999999864" height="1.9500000000000455"/></g></g><g id="shape-9a1be2dd-6c80-805e-8002-c1fdf1beb0c0"><g class="fills" id="fills-9a1be2dd-6c80-805e-8002-c1fdf1beb0c0"><rect class="st0" rx="0" ry="0" x="146.5424999999998" y="311.5374999999999" transform="matrix(1.000000, 0.000000, 0.000000, 1.000000, 0.000000, 0.000000)" width="8.775000000000091" height="1.9500000000000455"/></g></g><g id="shape-9a1be2dd-6c80-805e-8002-c1fdf1bee9ab"><g class="fills" id="fills-9a1be2dd-6c80-805e-8002-c1fdf1bee9ab"><path class="st0" rx="0" ry="0" d="M28.665,297.595L27.203,298.862C29.152,301.105,31.395,303.152,33.735,305.005L34.905,303.445C32.662,301.690,30.517,299.740,28.665,297.595ZZ"/></g></g><g id="shape-9a1be2dd-6c80-805e-8002-c1fdf1bee9ac"><g class="fills" id="fills-9a1be2dd-6c80-805e-8002-c1fdf1bee9ac"><rect class="st0" rx="0" ry="0" x="147.80999999999995" y="24.692499999999995" transform="matrix(1.000000, 0.000000, 0.000000, 1.000000, 0.000000, 0.000000)" width="8.774999999999864" height="1.9499999999999886"/></g></g><g id="shape-9a1be2dd-6c80-805e-8002-c1fdf1bee9ad"><g class="fills" id="fills-9a1be2dd-6c80-805e-8002-c1fdf1bee9ad"><rect class="st0" rx="0" ry="0" x="105.5925000000002" y="311.5374999999999" transform="matrix(1.000000, 0.000000, 0.000000, 1.000000, 0.000000, 0.000000)" width="8.774999999999864" height="1.9500000000000455"/></g></g><g id="shape-9a1be2dd-6c80-805e-8002-c1fdf1bf1950"><g class="fills" id="fills-9a1be2dd-6c80-805e-8002-c1fdf1bf1950"><rect class="st0" rx="0" ry="0" x="93.20999999999981" y="24.692499999999995" transform="matrix(1.000000, 0.000000, 0.000000, 1.000000, 0.000000, 0.000000)" width="8.775000000000091" height="1.9499999999999886"/></g></g><g id="shape-9a1be2dd-6c80-805e-8002-c1fdf1bf1951"><g class="fills" id="fills-9a1be2dd-6c80-805e-8002-c1fdf1bf1951"><rect class="st0" rx="0" ry="0" x="91.94249999999988" y="311.5374999999999" transform="matrix(1.000000, 0.000000, 0.000000, 1.000000, 0.000000, 0.000000)" width="8.775000000000091" height="1.9500000000000455"/></g></g><g id="shape-9a1be2dd-6c80-805e-8002-c1fdf1bf444d"><g class="fills" id="fills-9a1be2dd-6c80-805e-8002-c1fdf1bf444d"><rect class="st0" rx="0" ry="0" x="106.86000000000013" y="24.692499999999995" transform="matrix(1.000000, 0.000000, 0.000000, 1.000000, 0.000000, 0.000000)" width="8.774999999999864" height="1.9499999999999886"/></g></g><g id="shape-9a1be2dd-6c80-805e-8002-c1fdf1bf444e"><g class="fills" id="fills-9a1be2dd-6c80-805e-8002-c1fdf1bf444e"><rect class="st0" rx="0" ry="0" x="119.24249999999984" y="311.5374999999999" transform="matrix(1.000000, 0.000000, 0.000000, 1.000000, 0.000000, 0.000000)" width="8.775000000000091" height="1.9500000000000455"/></g></g><g id="shape-9a1be2dd-6c80-805e-8002-c1fdf1bf8d04"><g class="fills" id="fills-9a1be2dd-6c80-805e-8002-c1fdf1bf8d04"><path class="st0" rx="0" ry="0" d="M59.182,26.642L61.035,26.642L61.035,24.692L59.182,24.692C56.842,24.692,54.503,24.887,52.162,25.277L52.455,27.227C54.600,26.837,56.842,26.642,59.182,26.642ZZ"/></g></g><g id="shape-9a1be2dd-6c80-805e-8002-c1fdf1bf8d05"><g class="fills" id="fills-9a1be2dd-6c80-805e-8002-c1fdf1bf8d05"><rect class="st0" rx="0" ry="0" x="17.0625" y="123.16750000000002" transform="matrix(1.000000, 0.000000, 0.000000, 1.000000, 0.000000, 0.000000)" width="1.949999999999818" height="8.774999999999977"/></g></g><g id="shape-9a1be2dd-6c80-805e-8002-c1fdf1bff21f"><g class="fills" id="fills-9a1be2dd-6c80-805e-8002-c1fdf1bff21f"><rect class="st0" rx="0" ry="0" x="17.0625" y="109.51749999999993" transform="matrix(1.000000, 0.000000, 0.000000, 1.000000, 0.000000, 0.000000)" width="1.949999999999818" height="8.775000000000091"/></g></g><g id="shape-9a1be2dd-6c80-805e-8002-c1fdf1bff220"><g class="fills" id="fills-9a1be2dd-6c80-805e-8002-c1fdf1bff220"><rect class="st0" rx="0" ry="0" x="17.0625" y="95.8675" transform="matrix(1.000000, 0.000000, 0.000000, 1.000000, 0.000000, 0.000000)" width="1.949999999999818" height="8.774999999999977"/></g></g><g id="shape-9a1be2dd-6c80-805e-8002-c1fdf1c000b4"><g class="fills" id="fills-9a1be2dd-6c80-805e-8002-c1fdf1c000b4"><rect class="st0" rx="0" ry="0" x="17.0625" y="136.8175" transform="matrix(1.000000, 0.000000, 0.000000, 1.000000, 0.000000, 0.000000)" width="1.949999999999818" height="8.774999999999977"/></g></g><g id="shape-9a1be2dd-6c80-805e-8002-c1fdf1c000b5"><g class="fills" id="fills-9a1be2dd-6c80-805e-8002-c1fdf1c000b5"><rect class="st0" rx="0" ry="0" x="17.0625" y="150.46749999999997" transform="matrix(1.000000, 0.000000, 0.000000, 1.000000, 0.000000, 0.000000)" width="1.949999999999818" height="8.775000000000091"/></g></g><g id="shape-9a1be2dd-6c80-805e-8002-c1fdf1c051aa"><g class="fills" id="fills-9a1be2dd-6c80-805e-8002-c1fdf1c051aa"><path class="st0" rx="0" ry="0" d="M20.475,50.043L22.230,50.822C23.400,48.190,24.765,45.655,26.422,43.413L24.862,42.243C23.108,44.680,21.645,47.313,20.475,50.043ZZ"/></g></g><g id="shape-9a1be2dd-6c80-805e-8002-c1fdf1c051ab"><g class="fills" id="fills-9a1be2dd-6c80-805e-8002-c1fdf1c051ab"><rect class="st0" rx="0" ry="0" x="17.0625" y="164.11749999999995" transform="matrix(1.000000, 0.000000, 0.000000, 1.000000, 0.000000, 0.000000)" width="1.949999999999818" height="8.774999999999977"/></g></g><g id="shape-9a1be2dd-6c80-805e-8002-c1fdf1c089a8"><g class="fills" id="fills-9a1be2dd-6c80-805e-8002-c1fdf1c089a8"><path class="st0" rx="0" ry="0" d="M20.670,55.308L18.817,54.723C17.940,57.550,17.453,60.572,17.257,63.498L19.207,63.595C19.305,60.865,19.890,58.038,20.670,55.308ZZ"/></g></g><g id="shape-9a1be2dd-6c80-805e-8002-c1fdf1c0f619"><g class="fills" id="fills-9a1be2dd-6c80-805e-8002-c1fdf1c0f619"><path class="st0" rx="0" ry="0" d="M332.962,57.843C332.378,54.918,331.402,52.090,330.135,49.360L328.380,50.140C329.550,52.773,330.428,55.502,331.110,58.232L332.962,57.843ZZ"/></g></g><g id="shape-9a1be2dd-6c80-805e-8002-c1fdf1c10db0"><g class="fills" id="fills-9a1be2dd-6c80-805e-8002-c1fdf1c10db0"><rect class="st0" rx="0" ry="0" x="17.0625" y="68.5675" transform="matrix(1.000000, 0.000000, 0.000000, 1.000000, 0.000000, 0.000000)" width="1.949999999999818" height="8.775000000000034"/></g></g><g id="shape-9a1be2dd-6c80-805e-8002-c1fdf1c10db1"><g class="fills" id="fills-9a1be2dd-6c80-805e-8002-c1fdf1c10db1"><rect class="st0" rx="0" ry="0" x="17.0625" y="82.21750000000003" transform="matrix(1.000000, 0.000000, 0.000000, 1.000000, 0.000000, 0.000000)" width="1.949999999999818" height="8.774999999999977"/></g></g><g id="shape-9a1be2dd-6c80-805e-8002-c1fdf1c10db2"><g class="fills" id="fills-9a1be2dd-6c80-805e-8002-c1fdf1c10db2"><rect class="st0" rx="0" ry="0" x="17.0625" y="246.01749999999993" transform="matrix(1.000000, 0.000000, 0.000000, 1.000000, 0.000000, 0.000000)" width="1.949999999999818" height="8.775000000000091"/></g></g><g id="shape-9a1be2dd-6c80-805e-8002-c1fdf1c177fc"><g class="fills" id="fills-9a1be2dd-6c80-805e-8002-c1fdf1c177fc"><rect class="st0" rx="0" ry="0" x="17.0625" y="177.76750000000004" transform="matrix(1.000000, 0.000000, 0.000000, 1.000000, 0.000000, 0.000000)" width="1.949999999999818" height="8.774999999999977"/></g></g><g id="shape-9a1be2dd-6c80-805e-8002-c1fdf1c177fd"><g class="fills" id="fills-9a1be2dd-6c80-805e-8002-c1fdf1c177fd"><path class="st0" rx="0" ry="0" d="M19.012,273.220L17.063,273.317C17.160,276.340,17.647,279.265,18.428,282.190L20.280,281.703C19.597,278.973,19.207,276.145,19.012,273.220ZZ"/></g></g><g id="shape-9a1be2dd-6c80-805e-8002-c1fdf1c1aa98"><g class="fills" id="fills-9a1be2dd-6c80-805e-8002-c1fdf1c1aa98"><path class="st0" rx="0" ry="0" d="M19.987,286.967C21.060,289.697,22.522,292.428,24.180,294.865L25.837,293.793C24.277,291.453,22.912,288.918,21.840,286.188L19.987,286.967ZZ"/></g></g><g id="shape-9a1be2dd-6c80-805e-8002-c1fdf1c1aa99"><g class="fills" id="fills-9a1be2dd-6c80-805e-8002-c1fdf1c1aa99"><rect class="st0" rx="0" ry="0" x="17.0625" y="259.6675" transform="matrix(1.000000, 0.000000, 0.000000, 1.000000, 0.000000, 0.000000)" width="1.949999999999818" height="8.774999999999864"/></g></g><g id="shape-9a1be2dd-6c80-805e-8002-c1fdf1c1c33f"><g class="fills" id="fills-9a1be2dd-6c80-805e-8002-c1fdf1c1c33f"><rect class="st0" rx="0" ry="0" x="17.0625" y="205.0675" transform="matrix(1.000000, 0.000000, 0.000000, 1.000000, 0.000000, 0.000000)" width="1.949999999999818" height="8.774999999999977"/></g></g><g id="shape-9a1be2dd-6c80-805e-8002-c1fdf1c2273f"><g class="fills" id="fills-9a1be2dd-6c80-805e-8002-c1fdf1c2273f"><rect class="st0" rx="0" ry="0" x="17.0625" y="191.41750000000002" transform="matrix(1.000000, 0.000000, 0.000000, 1.000000, 0.000000, 0.000000)" width="1.949999999999818" height="8.774999999999977"/></g></g><g id="shape-9a1be2dd-6c80-805e-8002-c1fdf1c22740"><g class="fills" id="fills-9a1be2dd-6c80-805e-8002-c1fdf1c22740"><rect class="st0" rx="0" ry="0" x="17.0625" y="232.36749999999984" transform="matrix(1.000000, 0.000000, 0.000000, 1.000000, 0.000000, 0.000000)" width="1.949999999999818" height="8.774999999999977"/></g></g><g id="shape-9a1be2dd-6c80-805e-8002-c1fdf1c22741"><g class="fills" id="fills-9a1be2dd-6c80-805e-8002-c1fdf1c22741"><rect class="st0" rx="0" ry="0" x="17.0625" y="218.7175000000001" transform="matrix(1.000000, 0.000000, 0.000000, 1.000000, 0.000000, 0.000000)" width="1.949999999999818" height="8.774999999999977"/></g></g><g id="shape-9a1be2dd-6c80-805e-8002-c1fdf1c25513"><g class="fills" id="fills-9a1be2dd-6c80-805e-8002-c1fdf1c25513"><rect class="st0" rx="0" ry="0" x="255.74249999999984" y="311.5374999999999" transform="matrix(1.000000, 0.000000, 0.000000, 1.000000, 0.000000, 0.000000)" width="8.775000000000091" height="1.9500000000000455"/></g></g><g id="shape-9a1be2dd-6c80-805e-8002-c1fdf1c25514"><g class="fills" id="fills-9a1be2dd-6c80-805e-8002-c1fdf1c25514"><rect class="st0" rx="0" ry="0" x="331.9875000000002" y="240.2650000000001" transform="matrix(1.000000, 0.000000, 0.000000, 1.000000, 0.000000, 0.000000)" width="1.9500000000000455" height="8.774999999999864"/></g></g><g id="shape-9a1be2dd-6c80-805e-8002-c1fdf1c25515"><g class="fills" id="fills-9a1be2dd-6c80-805e-8002-c1fdf1c25515"><rect class="st0" rx="0" ry="0" x="331.9875000000002" y="253.91499999999996" transform="matrix(1.000000, 0.000000, 0.000000, 1.000000, 0.000000, 0.000000)" width="1.9500000000000455" height="8.775000000000091"/></g></g><g id="shape-9a1be2dd-6c80-805e-8002-c1fdf1c2aa20"><g class="fills" id="fills-9a1be2dd-6c80-805e-8002-c1fdf1c2aa20"><rect class="st0" rx="0" ry="0" x="331.9875000000002" y="185.66499999999996" transform="matrix(1.000000, 0.000000, 0.000000, 1.000000, 0.000000, 0.000000)" width="1.9500000000000455" height="8.775000000000091"/></g></g><g id="shape-9a1be2dd-6c80-805e-8002-c1fdf1c2aa21"><g class="fills" id="fills-9a1be2dd-6c80-805e-8002-c1fdf1c2aa21"><rect class="st0" rx="0" ry="0" x="331.9875000000002" y="212.96499999999992" transform="matrix(1.000000, 0.000000, 0.000000, 1.000000, 0.000000, 0.000000)" width="1.9500000000000455" height="8.775000000000091"/></g></g><g id="shape-9a1be2dd-6c80-805e-8002-c1fdf1c2f409"><g class="fills" id="fills-9a1be2dd-6c80-805e-8002-c1fdf1c2f409"><rect class="st0" rx="0" ry="0" x="331.9875000000002" y="199.31500000000005" transform="matrix(1.000000, 0.000000, 0.000000, 1.000000, 0.000000, 0.000000)" width="1.9500000000000455" height="8.774999999999864"/></g></g><g id="shape-9a1be2dd-6c80-805e-8002-c1fdf1c2f40a"><g class="fills" id="fills-9a1be2dd-6c80-805e-8002-c1fdf1c2f40a"><rect class="st0" rx="0" ry="0" x="331.9875000000002" y="226.615" transform="matrix(1.000000, 0.000000, 0.000000, 1.000000, 0.000000, 0.000000)" width="1.9500000000000455" height="8.775000000000091"/></g></g><g id="shape-9a1be2dd-6c80-805e-8002-c1fdf1c3058a"><g class="fills" id="fills-9a1be2dd-6c80-805e-8002-c1fdf1c3058a"><path class="st0" rx="0" ry="0" d="M320.287,299.740L321.652,301.105C323.797,298.960,325.650,296.620,327.307,294.085L325.650,293.013C324.090,295.548,322.335,297.790,320.287,299.740ZZ"/></g></g><g id="shape-9a1be2dd-6c80-805e-8002-c1fdf1c363f2"><g class="fills" id="fills-9a1be2dd-6c80-805e-8002-c1fdf1c363f2"><path class="st0" rx="0" ry="0" d="M331.987,271.465C331.987,273.025,331.890,274.683,331.695,276.243L333.645,276.438C333.840,274.780,333.938,273.122,333.938,271.368L333.938,267.565L331.987,267.565L331.987,271.465ZZ"/></g></g><g id="shape-9a1be2dd-6c80-805e-8002-c1fdf1c363f3"><g class="fills" id="fills-9a1be2dd-6c80-805e-8002-c1fdf1c363f3"><path class="st0" rx="0" ry="0" d="M327.795,44.875C326.235,42.340,324.382,39.902,322.335,37.757L320.872,39.123C322.822,41.170,324.578,43.510,326.040,45.947L327.795,44.875ZZ"/></g></g><g id="shape-9a1be2dd-6c80-805e-8002-c1fdf1c3b820"><g class="fills" id="fills-9a1be2dd-6c80-805e-8002-c1fdf1c3b820"><path class="st0" rx="0" ry="0" d="M327.990,288.918L329.745,289.795C331.012,287.065,332.085,284.237,332.767,281.313L330.915,280.825C330.233,283.652,329.257,286.383,327.990,288.918ZZ"/></g></g><g id="shape-9a1be2dd-6c80-805e-8002-c1fdf1c3c8a5"><g class="fills" id="fills-9a1be2dd-6c80-805e-8002-c1fdf1c3c8a5"><rect class="st0" rx="0" ry="0" x="161.4599999999998" y="24.692499999999995" transform="matrix(1.000000, 0.000000, 0.000000, 1.000000, 0.000000, 0.000000)" width="8.775000000000091" height="1.9499999999999886"/></g></g><g id="shape-9a1be2dd-6c80-805e-8002-c1fdf1c3c8a6"><g class="fills" id="fills-9a1be2dd-6c80-805e-8002-c1fdf1c3c8a6"><rect class="st0" rx="0" ry="0" x="331.9875000000002" y="76.46499999999997" transform="matrix(1.000000, 0.000000, 0.000000, 1.000000, 0.000000, 0.000000)" width="1.9500000000000455" height="8.774999999999977"/></g></g><g id="shape-9a1be2dd-6c80-805e-8002-c1fdf1c3c8a7"><g class="fills" id="fills-9a1be2dd-6c80-805e-8002-c1fdf1c3c8a7"><rect class="st0" rx="0" ry="0" x="331.9875000000002" y="103.76499999999999" transform="matrix(1.000000, 0.000000, 0.000000, 1.000000, 0.000000, 0.000000)" width="1.9500000000000455" height="8.774999999999977"/></g></g><g id="shape-9a1be2dd-6c80-805e-8002-c1fdf1c42e93"><g class="fills" id="fills-9a1be2dd-6c80-805e-8002-c1fdf1c42e93"><rect class="st0" rx="0" ry="0" x="331.9875000000002" y="90.1149999999999" transform="matrix(1.000000, 0.000000, 0.000000, 1.000000, 0.000000, 0.000000)" width="1.9500000000000455" height="8.775000000000034"/></g></g><g id="shape-9a1be2dd-6c80-805e-8002-c1fdf1c478b8"><g class="fills" id="fills-9a1be2dd-6c80-805e-8002-c1fdf1c478b8"><path class="st0" rx="0" ry="0" d="M333.742,62.718L331.792,62.913C331.890,64.180,331.987,65.447,331.987,66.715L331.987,71.590L333.938,71.590L333.938,66.715C333.938,65.447,333.840,64.082,333.742,62.718ZZ"/></g></g><g id="shape-9a1be2dd-6c80-805e-8002-c1fdf1c478b9"><g class="fills" id="fills-9a1be2dd-6c80-805e-8002-c1fdf1c478b9"><rect class="st0" rx="0" ry="0" x="331.9875000000002" y="144.71499999999992" transform="matrix(1.000000, 0.000000, 0.000000, 1.000000, 0.000000, 0.000000)" width="1.9500000000000455" height="8.775000000000091"/></g></g><g id="shape-9a1be2dd-6c80-805e-8002-c1fdf1c4a06b"><g class="fills" id="fills-9a1be2dd-6c80-805e-8002-c1fdf1c4a06b"><rect class="st0" rx="0" ry="0" x="331.9875000000002" y="172.015" transform="matrix(1.000000, 0.000000, 0.000000, 1.000000, 0.000000, 0.000000)" width="1.9500000000000455" height="8.774999999999977"/></g></g><g id="shape-9a1be2dd-6c80-805e-8002-c1fdf1c4c6d4"><g class="fills" id="fills-9a1be2dd-6c80-805e-8002-c1fdf1c4c6d4"><path class="st0" rx="0" ry="0" d="M318.727,34.345C316.387,32.395,313.950,30.738,311.220,29.373L310.342,31.127C312.878,32.493,315.217,34.052,317.460,35.905L318.727,34.345ZZ"/></g></g><g id="shape-9a1be2dd-6c80-805e-8002-c1fdf1c4c6d5"><g class="fills" id="fills-9a1be2dd-6c80-805e-8002-c1fdf1c4c6d5"><rect class="st0" rx="0" ry="0" x="331.9875000000002" y="158.365" transform="matrix(1.000000, 0.000000, 0.000000, 1.000000, 0.000000, 0.000000)" width="1.9500000000000455" height="8.774999999999977"/></g></g><g id="shape-9a1be2dd-6c80-805e-8002-c1fdf1c52923"><g class="fills" id="fills-9a1be2dd-6c80-805e-8002-c1fdf1c52923"><rect class="st0" rx="0" ry="0" x="331.9875000000002" y="131.06500000000005" transform="matrix(1.000000, 0.000000, 0.000000, 1.000000, 0.000000, 0.000000)" width="1.9500000000000455" height="8.774999999999864"/></g></g><g id="shape-9a1be2dd-6c80-805e-8002-c1fdf1c52924"><g class="fills" id="fills-9a1be2dd-6c80-805e-8002-c1fdf1c52924"><rect class="st0" rx="0" ry="0" x="331.9875000000002" y="117.41499999999996" transform="matrix(1.000000, 0.000000, 0.000000, 1.000000, 0.000000, 0.000000)" width="1.9500000000000455" height="8.775000000000091"/></g></g><g id="shape-9a1be2dd-6c80-805e-8002-c1fdf1c52925"><g class="fills" id="fills-9a1be2dd-6c80-805e-8002-c1fdf1c52925"><rect class="st0" rx="0" ry="0" x="214.7924999999998" y="311.5374999999999" transform="matrix(1.000000, 0.000000, 0.000000, 1.000000, 0.000000, 0.000000)" width="8.775000000000091" height="1.9500000000000455"/></g></g><g id="shape-9a1be2dd-6c80-805e-8002-c1fdf1c57276"><g class="fills" id="fills-9a1be2dd-6c80-805e-8002-c1fdf1c57276"><rect class="st0" rx="0" ry="0" x="202.40999999999985" y="24.692499999999995" transform="matrix(1.000000, 0.000000, 0.000000, 1.000000, 0.000000, 0.000000)" width="8.775000000000091" height="1.9499999999999886"/></g></g><g id="shape-9a1be2dd-6c80-805e-8002-c1fdf1c57277"><g class="fills" id="fills-9a1be2dd-6c80-805e-8002-c1fdf1c57277"><rect class="st0" rx="0" ry="0" x="201.14249999999993" y="311.5374999999999" transform="matrix(1.000000, 0.000000, 0.000000, 1.000000, 0.000000, 0.000000)" width="8.774999999999864" height="1.9500000000000455"/></g></g><g id="shape-9a1be2dd-6c80-805e-8002-c1fdf1c57278"><g class="fills" id="fills-9a1be2dd-6c80-805e-8002-c1fdf1c57278"><rect class="st0" rx="0" ry="0" x="228.44249999999988" y="311.5374999999999" transform="matrix(1.000000, 0.000000, 0.000000, 1.000000, 0.000000, 0.000000)" width="8.775000000000091" height="1.9500000000000455"/></g></g><g id="shape-9a1be2dd-6c80-805e-8002-c1fdf1c5a5e8"><g class="fills" id="fills-9a1be2dd-6c80-805e-8002-c1fdf1c5a5e8"><rect class="st0" rx="0" ry="0" x="229.7099999999998" y="24.692499999999995" transform="matrix(1.000000, 0.000000, 0.000000, 1.000000, 0.000000, 0.000000)" width="8.775000000000091" height="1.9499999999999886"/></g></g><g id="shape-9a1be2dd-6c80-805e-8002-c1fdf1c5a5e9"><g class="fills" id="fills-9a1be2dd-6c80-805e-8002-c1fdf1c5a5e9"><rect class="st0" rx="0" ry="0" x="216.05999999999995" y="24.692499999999995" transform="matrix(1.000000, 0.000000, 0.000000, 1.000000, 0.000000, 0.000000)" width="8.774999999999864" height="1.9499999999999886"/></g></g><g id="shape-9a1be2dd-6c80-805e-8002-c1fdf1c5a5ea"><g class="fills" id="fills-9a1be2dd-6c80-805e-8002-c1fdf1c5a5ea"><rect class="st0" rx="0" ry="0" x="173.8425000000002" y="311.5374999999999" transform="matrix(1.000000, 0.000000, 0.000000, 1.000000, 0.000000, 0.000000)" width="8.774999999999864" height="1.9500000000000455"/></g></g><g id="shape-9a1be2dd-6c80-805e-8002-c1fdf1c5d359"><g class="fills" id="fills-9a1be2dd-6c80-805e-8002-c1fdf1c5d359"><rect class="st0" rx="0" ry="0" x="188.75999999999976" y="24.692499999999995" transform="matrix(1.000000, 0.000000, 0.000000, 1.000000, 0.000000, 0.000000)" width="8.775000000000091" height="1.9499999999999886"/></g></g><g id="shape-9a1be2dd-6c80-805e-8002-c1fdf1c5d35a"><g class="fills" id="fills-9a1be2dd-6c80-805e-8002-c1fdf1c5d35a"><rect class="st0" rx="0" ry="0" x="175.11000000000013" y="24.692499999999995" transform="matrix(1.000000, 0.000000, 0.000000, 1.000000, 0.000000, 0.000000)" width="8.774999999999864" height="1.9499999999999886"/></g></g><g id="shape-9a1be2dd-6c80-805e-8002-c1fdf1c610cf"><g class="fills" id="fills-9a1be2dd-6c80-805e-8002-c1fdf1c610cf"><rect class="st0" rx="0" ry="0" x="187.49249999999984" y="311.5374999999999" transform="matrix(1.000000, 0.000000, 0.000000, 1.000000, 0.000000, 0.000000)" width="8.775000000000091" height="1.9500000000000455"/></g></g><g id="shape-9a1be2dd-6c80-805e-8002-c1fdf1c67c01"><g class="fills" id="fills-9a1be2dd-6c80-805e-8002-c1fdf1c67c01"><path class="st0" rx="0" ry="0" d="M296.790,311.245L296.985,313.195C299.910,312.805,302.932,312.122,305.760,311.148L305.078,309.295C302.445,310.270,299.617,310.953,296.790,311.245ZZ"/></g></g><g id="shape-9a1be2dd-6c80-805e-8002-c1fdf1c67c02"><g class="fills" id="fills-9a1be2dd-6c80-805e-8002-c1fdf1c67c02"><rect class="st0" rx="0" ry="0" x="242.0925000000002" y="311.5374999999999" transform="matrix(1.000000, 0.000000, 0.000000, 1.000000, 0.000000, 0.000000)" width="8.774999999999864" height="1.9500000000000455"/></g></g><g id="shape-9a1be2dd-6c80-805e-8002-c1fdf1c6a961"><g class="fills" id="fills-9a1be2dd-6c80-805e-8002-c1fdf1c6a961"><path class="st0" rx="0" ry="0" d="M309.465,307.442L310.342,309.197C313.072,307.930,315.607,306.273,317.947,304.420L316.777,302.860C314.438,304.713,312.000,306.273,309.465,307.442ZZ"/></g></g><g id="shape-9a1be2dd-6c80-805e-8002-c1fdf1c6a962"><g class="fills" id="fills-9a1be2dd-6c80-805e-8002-c1fdf1c6a962"><path class="st0" rx="0" ry="0" d="M293.085,26.642L293.182,24.692C292.793,24.692,292.402,24.692,291.915,24.692L284.310,24.692L284.310,26.642L291.915,26.642C292.305,26.642,292.695,26.642,293.085,26.642ZZ"/></g></g><g id="shape-9a1be2dd-6c80-805e-8002-c1fdf1c6fb7c"><g class="fills" id="fills-9a1be2dd-6c80-805e-8002-c1fdf1c6fb7c"><path class="st0" rx="0" ry="0" d="M306.735,27.325C303.908,26.252,300.983,25.473,298.057,25.082L297.765,27.032C300.592,27.423,303.420,28.202,306.053,29.177L306.735,27.325ZZ"/></g></g><g id="shape-9a1be2dd-6c80-805e-8002-c1fdf1c72990"><g class="fills" id="fills-9a1be2dd-6c80-805e-8002-c1fdf1c72990"><rect class="st0" rx="0" ry="0" x="283.04249999999956" y="311.5374999999999" transform="matrix(1.000000, 0.000000, 0.000000, 1.000000, 0.000000, 0.000000)" width="8.970000000000027" height="1.9500000000000455"/></g></g><g id="shape-9a1be2dd-6c80-805e-8002-c1fdf1c72991"><g class="fills" id="fills-9a1be2dd-6c80-805e-8002-c1fdf1c72991"><rect class="st0" rx="0" ry="0" x="257.00999999999976" y="24.692499999999995" transform="matrix(1.000000, 0.000000, 0.000000, 1.000000, 0.000000, 0.000000)" width="8.775000000000091" height="1.9499999999999886"/></g></g><g id="shape-9a1be2dd-6c80-805e-8002-c1fdf1c72992"><g class="fills" id="fills-9a1be2dd-6c80-805e-8002-c1fdf1c72992"><rect class="st0" rx="0" ry="0" x="270.65999999999985" y="24.692499999999995" transform="matrix(1.000000, 0.000000, 0.000000, 1.000000, 0.000000, 0.000000)" width="8.775000000000091" height="1.9499999999999886"/></g></g><g id="shape-9a1be2dd-6c80-805e-8002-c1fdf1c74eb5"><g class="fills" id="fills-9a1be2dd-6c80-805e-8002-c1fdf1c74eb5"><rect class="st0" rx="0" ry="0" x="243.36000000000013" y="24.692499999999995" transform="matrix(1.000000, 0.000000, 0.000000, 1.000000, 0.000000, 0.000000)" width="8.774999999999864" height="1.9499999999999886"/></g></g><g id="shape-9a1be2dd-6c80-805e-8002-c1fdf1c74eb6"><g class="fills" id="fills-9a1be2dd-6c80-805e-8002-c1fdf1c74eb6"><rect class="st0" rx="0" ry="0" x="269.3924999999999" y="311.5374999999999" transform="matrix(1.000000, 0.000000, 0.000000, 1.000000, 0.000000, 0.000000)" width="8.774999999999864" height="1.9500000000000455"/></g></g><g id="shape-9a1be2dd-6c80-805e-8002-c1fdf1c94ed2"><g class="fills" id="fills-9a1be2dd-6c80-805e-8002-c1fdf1c94ed2"><path class="st0" rx="0" ry="0" d="M52.358,304.517L52.358,276.243L300.495,276.828L300.495,305.395L303.420,305.395L303.420,276.828L328.575,276.925C328.575,276.925,328.575,276.925,328.575,276.925C328.770,276.925,328.965,276.925,329.160,276.828C329.160,276.828,329.257,276.828,329.257,276.828C329.355,276.828,329.355,276.730,329.453,276.730C329.453,276.730,329.550,276.632,329.550,276.632C329.550,276.632,329.648,276.535,329.648,276.535C329.648,276.535,329.648,276.438,329.745,276.438C329.745,276.438,329.843,276.340,329.843,276.340C329.843,276.340,329.843,276.242,329.940,276.242C329.940,276.145,330.038,276.145,330.038,276.047C330.038,276.047,330.038,275.950,330.038,275.950C330.038,275.950,330.038,275.852,330.038,275.755C330.038,275.657,330.038,275.560,330.038,275.560C330.038,275.560,330.038,275.560,330.038,275.462C330.038,275.462,330.038,275.462,330.038,275.462C330.038,275.365,330.038,275.365,330.038,275.267C330.038,275.267,330.038,275.170,330.038,275.170C330.038,275.170,330.038,275.170,330.038,275.170L302.445,142.082C302.348,141.400,301.665,140.912,300.983,140.912L242.385,140.912L240.143,130.772L117.000,130.772L114.953,140.912L54.892,140.912C54.503,140.912,54.112,141.107,53.820,141.302C53.332,141.790,52.553,142.667,49.335,159.340L49.042,159.340L49.042,160.997C47.092,171.040,44.460,186.250,40.560,209.552C35.197,241.825,30.225,274.195,30.225,274.487C30.128,274.878,30.322,275.365,30.517,275.658C30.810,275.950,31.200,276.145,31.590,276.145L49.335,276.145L49.335,304.420L52.358,304.517ZZM108.128,189.467L108.128,189.467ZL111.150,174.355L133.672,174.355L131.820,195.025L106.860,195.025L108.128,189.467ZL108.128,189.467ZZM115.537,152.612L135.622,152.612L133.965,171.430L111.735,171.430L115.537,152.612ZZM191.490,174.355L192.660,195.025L164.385,195.025L164.775,174.355L191.490,174.355ZZM164.775,171.430L165.067,152.612L190.222,152.612L191.295,171.430L164.775,171.430ZZM161.362,194.928L134.842,194.928L136.695,174.258L161.753,174.258L161.362,194.928ZZM161.362,197.852L160.972,219.010L132.795,219.010L134.647,197.852L161.362,197.852ZZM164.287,197.852L192.855,197.852L194.025,219.010L163.897,219.010L164.287,197.852ZZM195.780,197.852L222.300,197.852L225.128,219.010L196.950,219.010L195.780,197.852ZZM195.585,194.928L194.415,174.258L218.985,174.258L221.813,194.928L195.585,194.928ZZM194.220,171.430L193.147,152.612L216.060,152.612L218.595,171.430L194.220,171.430ZZM193.050,149.688L192.172,133.697L213.525,133.697L215.670,149.688L193.050,149.688ZZM190.125,149.688L165.165,149.688L165.457,133.697L189.247,133.697L190.125,149.688ZZM162.240,149.688L138.840,149.688L140.205,133.697L162.533,133.697L162.240,149.688ZZM162.142,152.612L161.850,171.430L136.987,171.430L138.645,152.612L162.142,152.612ZZM106.372,197.852L131.625,197.852L129.772,219.010L102.082,219.010L106.372,197.852ZZM101.497,221.935L129.578,221.935L127.432,246.115L96.622,246.213L101.497,221.935ZZM132.503,221.935L160.875,221.935L160.485,246.017L130.455,246.115L132.503,221.935ZZM163.897,221.935L194.220,221.935L195.585,245.822L163.507,245.920L163.897,221.935ZZM198.412,245.822L197.047,221.935L225.420,221.935L228.637,245.725L198.412,245.822ZZM231.660,245.725L228.442,222.033L257.497,222.033L262.762,245.628L231.660,245.725ZZM228.053,219.010L225.225,197.852L252.135,197.852L256.815,219.010L228.053,219.010ZZM224.835,194.928L222.007,174.258L246.870,174.258L251.453,194.928L224.835,194.928ZZM221.617,171.430L219.082,152.612L241.995,152.612L246.188,171.430L221.617,171.430ZZM241.313,149.688L218.595,149.688L216.450,133.697L237.705,133.697L241.313,149.688ZZM119.438,133.697L137.378,133.697L136.012,149.688L116.317,149.688L119.438,133.697ZZM41.828,220.180L73.905,220.180L73.905,217.255L42.315,217.255C45.727,196.195,49.140,176.207,51.772,162.265L82.777,162.265L82.777,159.340L52.260,159.340C53.820,151.345,54.990,145.788,55.770,143.837L114.367,143.837L105.690,186.543L73.125,186.543L73.125,189.467L105.105,189.467L93.015,249.138L266.370,248.358L257.497,208.577L290.647,208.577L290.647,205.652L256.912,205.652L256.912,206.237L247.065,162.168L278.947,162.168L278.947,159.242L246.480,159.242L242.970,143.740L299.715,143.740L320.190,242.215L281.483,242.215L281.483,245.140L320.775,245.140L326.722,273.805L33.247,273.122C35.880,257.035,38.805,238.315,41.828,220.180ZZ"/></g></g><g id="shape-9a1be2dd-6c80-805e-8002-c1fdf1c94ed3"><g class="fills" id="fills-9a1be2dd-6c80-805e-8002-c1fdf1c94ed3"><rect class="st0" rx="0" ry="0" x="176.64164150058969" y="116.44723450256743" transform="matrix(0.831311, -0.555807, 0.555807, 0.831311, -33.278788, 126.170275)" width="29.152111248820802" height="2.924960994865046"/></g></g><g id="shape-9a1be2dd-6c80-805e-8002-c1fdf1c9bd1c"><g class="fills" id="fills-9a1be2dd-6c80-805e-8002-c1fdf1c9bd1c"><rect class="st0" rx="0" ry="0" x="235.5189225579079" y="107.468894605267" transform="matrix(0.511375, -0.859358, 0.859358, 0.511375, 23.899174, 259.895032)" width="9.945488884183533" height="2.9251437894656647"/></g></g><g id="shape-9a1be2dd-6c80-805e-8002-c1fdf1ca7a90"><g class="fills" id="fills-9a1be2dd-6c80-805e-8002-c1fdf1ca7a90"><path class="st0" rx="0" ry="0" d="M263.152,35.710L262.470,54.820C260.813,54.918,259.155,55.308,257.692,55.892L246.382,35.223L243.847,36.587L255.158,57.257C253.207,58.525,251.647,60.183,250.380,62.230L209.625,35.808L208.065,38.245L249.112,64.863C248.625,66.227,248.332,67.690,248.235,69.250C248.235,69.640,248.235,70.030,248.235,70.323L207.675,70.323L207.675,73.248L248.625,73.248C248.917,74.515,249.405,75.685,249.990,76.855L227.467,91.870L229.125,94.308L251.647,79.293C252.525,80.365,253.597,81.340,254.670,82.120L244.920,98.500L247.455,99.962L257.303,83.485C258.765,84.168,260.422,84.558,262.080,84.655L261.885,106.983L264.810,106.983L265.005,84.558C266.565,84.363,268.027,83.973,269.392,83.387L296.205,128.433L298.740,126.970L271.928,81.925C273.195,81.047,274.267,79.975,275.145,78.805L313.462,98.402L314.828,95.770L276.705,76.270C277.387,74.905,277.875,73.345,278.167,71.688L318.435,73.930L318.630,71.005L278.265,68.762C278.167,67.007,277.777,65.350,277.192,63.887L306.637,46.142L305.175,43.900L275.828,61.548C274.950,60.183,273.780,59.012,272.512,57.940L284.895,37.465L282.360,35.905L270.075,56.477C268.612,55.795,267.053,55.210,265.395,55.015L266.078,35.808L263.152,35.710ZZM275.340,70.323C275.047,76.952,269.490,82.218,262.762,81.925C258.862,81.730,255.255,79.780,253.110,76.465C251.647,74.320,250.965,71.882,251.063,69.250C251.355,62.718,256.717,57.648,263.152,57.648C263.347,57.648,263.445,57.648,263.640,57.648C270.465,58.038,275.632,63.692,275.340,70.323ZZ"/></g></g><g id="shape-9a1be2dd-6c80-805e-8002-c1fdf1ca86ac"><g class="fills" id="fills-9a1be2dd-6c80-805e-8002-c1fdf1ca86ac"><rect class="st0" rx="0" ry="0" x="227.41642487964623" y="120.16131233530427" transform="matrix(0.511610, -0.859218, 0.859218, 0.511610, 9.256884, 259.533082)" width="11.017275240707477" height="2.9249403293913474"/></g></g><g id="shape-9a1be2dd-6c80-805e-8002-c1fdf1ca86ad"><g class="fills" id="fills-9a1be2dd-6c80-805e-8002-c1fdf1ca86ad"><rect class="st0" rx="0" ry="0" x="256.0688549680219" y="117.89514042544624" transform="matrix(0.007487, -0.999972, 0.999972, 0.007487, 141.861856, 381.643282)" width="14.235398942455959" height="2.925081974477507"/></g></g><g id="shape-9a1be2dd-6c80-805e-8002-c1fdf1ca86ae"><g class="fills" id="fills-9a1be2dd-6c80-805e-8002-c1fdf1ca86ae"><rect class="st0" rx="0" ry="0" x="206.02318654134683" y="100.41796150256761" transform="matrix(0.831311, -0.555807, 0.555807, 0.831311, -20.301393, 136.870508)" width="18.622251667306728" height="2.924960994864989"/></g></g></g></g></svg>