<svg xmlns="http://www.w3.org/2000/svg" id="screenshot-471d1b56-7c24-80ba-8002-cb02677f65dc" width="360" height="343.3" fill="none" style="-webkit-print-color-adjust:exact" version="1.1" viewBox="0 -36 360 343.3"><g xml:space="preserve" id="shape-471d1b56-7c24-80ba-8002-cb02677f65dc" style="fill:#000" transform="translate(6.3 -33.04)"><g id="shape-471d1b56-7c24-80ba-8002-cb02678047c1"><style id="style6815" type="text/css">.st0{fill:#004b00}</style></g><g id="shape-471d1b56-7c24-80ba-8002-cb026780c36e" style="fill:#000"><g id="shape-471d1b56-7c24-80ba-8002-cb026781c5a0"><g id="fills-471d1b56-7c24-80ba-8002-cb026781c5a0" class="fills"><rect id="rect6818" width="8.77" height="1.95" x="65.91" y="23.2" class="st0" rx="0" ry="0"/></g></g><g id="shape-471d1b56-7c24-80ba-8002-cb0267821362"><g id="fills-471d1b56-7c24-80ba-8002-cb0267821362" class="fills"><rect id="rect6822" width="8.77" height="1.95" x="79.56" y="23.2" class="st0" rx="0" ry="0"/></g></g><g id="shape-471d1b56-7c24-80ba-8002-cb026782703d"><g id="fills-471d1b56-7c24-80ba-8002-cb026782703d" class="fills"><rect id="rect6826" width="8.77" height="1.95" x="160.19" y="310.15" class="st0" rx="0" ry="0"/></g></g><g id="shape-471d1b56-7c24-80ba-8002-cb0267829331"><g id="fills-471d1b56-7c24-80ba-8002-cb0267829331" class="fills"><rect id="rect6830" width="8.77" height="1.95" x="78.29" y="310.15" class="st0" rx="0" ry="0"/></g></g><g id="shape-471d1b56-7c24-80ba-8002-cb026782f397"><g id="fills-471d1b56-7c24-80ba-8002-cb026782f397" class="fills"><rect id="rect6834" width="8.77" height="1.95" x="64.64" y="310.15" class="st0" rx="0" ry="0"/></g></g><g id="shape-471d1b56-7c24-80ba-8002-cb0267835b55"><g id="fills-471d1b56-7c24-80ba-8002-cb0267835b55" class="fills"><path id="path6838" d="m27.98 36.95 1.46 1.27c1.95-2.14 4.1-4 6.44-5.65L34.71 31a43.2 43.2 0 0 0-6.73 5.94z" class="st0"/></g></g><g id="shape-471d1b56-7c24-80ba-8002-cb02678384eb"><g id="fills-471d1b56-7c24-80ba-8002-cb02678384eb" class="fills"><path id="path6842" d="M37.93 306.35a44 44 0 0 0 8.19 3.7l.58-1.85a37.47 37.47 0 0 1-7.8-3.51z" class="st0"/></g></g><g id="shape-471d1b56-7c24-80ba-8002-cb0267843778"><g id="fills-471d1b56-7c24-80ba-8002-cb0267843778" class="fills"><path id="path6846" d="m51.28 309.37-.39 1.95c2.73.48 5.46.78 8.3.78h.67v-1.95h-.68c-2.73 0-5.36-.3-7.9-.78z" class="st0"/></g></g><g id="shape-471d1b56-7c24-80ba-8002-cb0267847ac1"><g id="fills-471d1b56-7c24-80ba-8002-cb0267847ac1" class="fills"><path id="path6850" d="m47.77 26.81-.58-1.85a51.19 51.19 0 0 0-8.29 3.41l.98 1.76a34.8 34.8 0 0 1 7.9-3.32z" class="st0"/></g></g><g id="shape-471d1b56-7c24-80ba-8002-cb02678489f2"><g id="fills-471d1b56-7c24-80ba-8002-cb02678489f2" class="fills"><rect id="rect6854" width="8.77" height="1.95" x="120.51" y="23.2" class="st0" rx="0" ry="0"/></g></g><g id="shape-471d1b56-7c24-80ba-8002-cb026784eb3f"><g id="fills-471d1b56-7c24-80ba-8002-cb026784eb3f" class="fills"><rect id="rect6858" width="8.77" height="1.95" x="134.16" y="23.2" class="st0" rx="0" ry="0"/></g></g><g id="shape-471d1b56-7c24-80ba-8002-cb0267852ece"><g id="fills-471d1b56-7c24-80ba-8002-cb0267852ece" class="fills"><rect id="rect6862" width="8.77" height="1.95" x="132.89" y="310.15" class="st0" rx="0" ry="0"/></g></g><g id="shape-471d1b56-7c24-80ba-8002-cb0267854a87"><g id="fills-471d1b56-7c24-80ba-8002-cb0267854a87" class="fills"><rect id="rect6866" width="8.77" height="1.95" x="146.54" y="310.15" class="st0" rx="0" ry="0"/></g></g><g id="shape-471d1b56-7c24-80ba-8002-cb02678583aa"><g id="fills-471d1b56-7c24-80ba-8002-cb02678583aa" class="fills"><path id="path6870" d="m28.66 296.1-1.46 1.27a48.79 48.79 0 0 0 6.53 6.15l1.18-1.56a35.28 35.28 0 0 1-6.24-5.85z" class="st0"/></g></g><g id="shape-471d1b56-7c24-80ba-8002-cb02678583ab"><g id="fills-471d1b56-7c24-80ba-8002-cb02678583ab" class="fills"><rect id="rect6874" width="8.77" height="1.95" x="147.81" y="23.2" class="st0" rx="0" ry="0"/></g></g><g id="shape-471d1b56-7c24-80ba-8002-cb026785c1c5"><g id="fills-471d1b56-7c24-80ba-8002-cb026785c1c5" class="fills"><rect id="rect6878" width="8.77" height="1.95" x="105.59" y="310.15" class="st0" rx="0" ry="0"/></g></g><g id="shape-471d1b56-7c24-80ba-8002-cb026786278d"><g id="fills-471d1b56-7c24-80ba-8002-cb026786278d" class="fills"><rect id="rect6882" width="8.77" height="1.95" x="93.21" y="23.2" class="st0" rx="0" ry="0"/></g></g><g id="shape-471d1b56-7c24-80ba-8002-cb026786278e"><g id="fills-471d1b56-7c24-80ba-8002-cb026786278e" class="fills"><rect id="rect6886" width="8.77" height="1.95" x="91.94" y="310.15" class="st0" rx="0" ry="0"/></g></g><g id="shape-471d1b56-7c24-80ba-8002-cb026786495f"><g id="fills-471d1b56-7c24-80ba-8002-cb026786495f" class="fills"><rect id="rect6890" width="8.77" height="1.95" x="106.86" y="23.2" class="st0" rx="0" ry="0"/></g></g><g id="shape-471d1b56-7c24-80ba-8002-cb02678688b6"><g id="fills-471d1b56-7c24-80ba-8002-cb02678688b6" class="fills"><rect id="rect6894" width="8.77" height="1.95" x="119.24" y="310.15" class="st0" rx="0" ry="0"/></g></g><g id="shape-471d1b56-7c24-80ba-8002-cb026786df19"><g id="fills-471d1b56-7c24-80ba-8002-cb026786df19" class="fills"><path id="path6898" d="M59.18 25.16h1.86V23.2h-1.86c-2.34 0-4.68.19-7.02.58l.3 1.95c2.14-.39 4.38-.58 6.72-.58z" class="st0"/></g></g><g id="shape-471d1b56-7c24-80ba-8002-cb02678714b5"><g id="fills-471d1b56-7c24-80ba-8002-cb02678714b5" class="fills"><rect id="rect6902" width="1.95" height="8.77" x="17.06" y="121.68" class="st0" rx="0" ry="0"/></g></g><g id="shape-471d1b56-7c24-80ba-8002-cb02678714b6"><g id="fills-471d1b56-7c24-80ba-8002-cb02678714b6" class="fills"><rect id="rect6906" width="1.95" height="8.77" x="17.06" y="108.03" class="st0" rx="0" ry="0"/></g></g><g id="shape-471d1b56-7c24-80ba-8002-cb026787681b"><g id="fills-471d1b56-7c24-80ba-8002-cb026787681b" class="fills"><rect id="rect6910" width="1.95" height="8.77" x="17.06" y="94.38" class="st0" rx="0" ry="0"/></g></g><g id="shape-471d1b56-7c24-80ba-8002-cb026787681c"><g id="fills-471d1b56-7c24-80ba-8002-cb026787681c" class="fills"><rect id="rect6914" width="1.95" height="8.77" x="17.06" y="135.33" class="st0" rx="0" ry="0"/></g></g><g id="shape-471d1b56-7c24-80ba-8002-cb026787b81e"><g id="fills-471d1b56-7c24-80ba-8002-cb026787b81e" class="fills"><rect id="rect6918" width="1.95" height="8.77" x="17.06" y="148.98" class="st0" rx="0" ry="0"/></g></g><g id="shape-471d1b56-7c24-80ba-8002-cb026787f27a"><g id="fills-471d1b56-7c24-80ba-8002-cb026787f27a" class="fills"><path id="path6922" d="m20.48 48.65 1.75.78a39.33 39.33 0 0 1 4.2-7.4l-1.57-1.18a40.97 40.97 0 0 0-4.38 7.8z" class="st0"/></g></g><g id="shape-471d1b56-7c24-80ba-8002-cb0267880981"><g id="fills-471d1b56-7c24-80ba-8002-cb0267880981" class="fills"><rect id="rect6926" width="1.95" height="8.77" x="17.06" y="162.63" class="st0" rx="0" ry="0"/></g></g><g id="shape-471d1b56-7c24-80ba-8002-cb0267886b48"><g id="fills-471d1b56-7c24-80ba-8002-cb0267886b48" class="fills"><path id="path6930" d="m20.67 53.92-1.85-.59a38.59 38.59 0 0 0-1.56 8.78l1.95.1c.1-2.73.68-5.56 1.46-8.3z" class="st0"/></g></g><g id="shape-471d1b56-7c24-80ba-8002-cb026788a945"><g id="fills-471d1b56-7c24-80ba-8002-cb026788a945" class="fills"><path id="path6934" d="M332.96 56.35a37.76 37.76 0 0 0-2.82-8.48l-1.76.78a49.33 49.33 0 0 1 2.73 8.1z" class="st0"/></g></g><g id="shape-471d1b56-7c24-80ba-8002-cb026788a946"><g id="fills-471d1b56-7c24-80ba-8002-cb026788a946" class="fills"><rect id="rect6938" width="1.95" height="8.77" x="17.06" y="67.08" class="st0" rx="0" ry="0"/></g></g><g id="shape-471d1b56-7c24-80ba-8002-cb026788ccd0"><g id="fills-471d1b56-7c24-80ba-8002-cb026788ccd0" class="fills"><rect id="rect6942" width="1.95" height="8.77" x="17.06" y="80.73" class="st0" rx="0" ry="0"/></g></g><g id="shape-471d1b56-7c24-80ba-8002-cb026789172a"><g id="fills-471d1b56-7c24-80ba-8002-cb026789172a" class="fills"><rect id="rect6946" width="1.95" height="8.77" x="17.06" y="244.53" class="st0" rx="0" ry="0"/></g></g><g id="shape-471d1b56-7c24-80ba-8002-cb026789172b"><g id="fills-471d1b56-7c24-80ba-8002-cb026789172b" class="fills"><rect id="rect6950" width="1.95" height="8.77" x="17.06" y="176.28" class="st0" rx="0" ry="0"/></g></g><g id="shape-471d1b56-7c24-80ba-8002-cb0267896da7"><g id="fills-471d1b56-7c24-80ba-8002-cb0267896da7" class="fills"><path id="path6954" d="m19.01 271.83-1.95.1c.1 3.02.59 5.94 1.37 8.87l1.85-.49a50.91 50.91 0 0 1-1.27-8.48z" class="st0"/></g></g><g id="shape-471d1b56-7c24-80ba-8002-cb026789a729"><g id="fills-471d1b56-7c24-80ba-8002-cb026789a729" class="fills"><path id="path6958" d="M19.99 285.48a40.9 40.9 0 0 0 4.19 7.9l1.66-1.07a40.34 40.34 0 0 1-4-7.61z" class="st0"/></g></g><g id="shape-471d1b56-7c24-80ba-8002-cb026789db5c"><g id="fills-471d1b56-7c24-80ba-8002-cb026789db5c" class="fills"><rect id="rect6962" width="1.95" height="8.77" x="17.06" y="258.18" class="st0" rx="0" ry="0"/></g></g><g id="shape-471d1b56-7c24-80ba-8002-cb026789db5d"><g id="fills-471d1b56-7c24-80ba-8002-cb026789db5d" class="fills"><rect id="rect6966" width="1.95" height="8.77" x="17.06" y="203.58" class="st0" rx="0" ry="0"/></g></g><g id="shape-471d1b56-7c24-80ba-8002-cb02678a3eb0"><g id="fills-471d1b56-7c24-80ba-8002-cb02678a3eb0" class="fills"><rect id="rect6970" width="1.95" height="8.77" x="17.06" y="189.93" class="st0" rx="0" ry="0"/></g></g><g id="shape-471d1b56-7c24-80ba-8002-cb02678a50e9"><g id="fills-471d1b56-7c24-80ba-8002-cb02678a50e9" class="fills"><rect id="rect6974" width="1.95" height="8.77" x="17.06" y="230.88" class="st0" rx="0" ry="0"/></g></g><g id="shape-471d1b56-7c24-80ba-8002-cb02678a50ea"><g id="fills-471d1b56-7c24-80ba-8002-cb02678a50ea" class="fills"><rect id="rect6978" width="1.95" height="8.77" x="17.06" y="217.23" class="st0" rx="0" ry="0"/></g></g><g id="shape-471d1b56-7c24-80ba-8002-cb02678a9d1d"><g id="fills-471d1b56-7c24-80ba-8002-cb02678a9d1d" class="fills"><rect id="rect6982" width="8.77" height="1.95" x="255.74" y="310.15" class="st0" rx="0" ry="0"/></g></g><g id="shape-471d1b56-7c24-80ba-8002-cb02678ae352"><g id="fills-471d1b56-7c24-80ba-8002-cb02678ae352" class="fills"><rect id="rect6986" width="1.95" height="8.77" x="331.99" y="238.88" class="st0" rx="0" ry="0"/></g></g><g id="shape-471d1b56-7c24-80ba-8002-cb02678ae353"><g id="fills-471d1b56-7c24-80ba-8002-cb02678ae353" class="fills"><rect id="rect6990" width="1.95" height="8.77" x="331.99" y="252.52" class="st0" rx="0" ry="0"/></g></g><g id="shape-471d1b56-7c24-80ba-8002-cb02678b0269"><g id="fills-471d1b56-7c24-80ba-8002-cb02678b0269" class="fills"><rect id="rect6994" width="1.95" height="8.77" x="331.99" y="184.27" class="st0" rx="0" ry="0"/></g></g><g id="shape-471d1b56-7c24-80ba-8002-cb02678b72a7"><g id="fills-471d1b56-7c24-80ba-8002-cb02678b72a7" class="fills"><rect id="rect6998" width="1.95" height="8.77" x="331.99" y="211.57" class="st0" rx="0" ry="0"/></g></g><g id="shape-471d1b56-7c24-80ba-8002-cb02678b72a8"><g id="fills-471d1b56-7c24-80ba-8002-cb02678b72a8" class="fills"><rect id="rect7002" width="1.95" height="8.77" x="331.99" y="197.93" class="st0" rx="0" ry="0"/></g></g><g id="shape-471d1b56-7c24-80ba-8002-cb02678ba98c"><g id="fills-471d1b56-7c24-80ba-8002-cb02678ba98c" class="fills"><rect id="rect7006" width="1.95" height="8.77" x="331.99" y="225.23" class="st0" rx="0" ry="0"/></g></g><g id="shape-471d1b56-7c24-80ba-8002-cb02678bf6a9"><g id="fills-471d1b56-7c24-80ba-8002-cb02678bf6a9" class="fills"><path id="path7010" d="m320.29 298.35 1.36 1.36c2.15-2.14 4-4.48 5.66-7.01l-1.66-1.08a39.58 39.58 0 0 1-5.36 6.73z" class="st0"/></g></g><g id="shape-471d1b56-7c24-80ba-8002-cb02678c1203"><g id="fills-471d1b56-7c24-80ba-8002-cb02678c1203" class="fills"><path id="path7014" d="M331.99 269.98c0 1.56-.1 3.21-.3 4.77l1.96.2c.19-1.66.29-3.31.29-5.07v-3.7h-1.95z" class="st0"/></g></g><g id="shape-471d1b56-7c24-80ba-8002-cb02678c6785"><g id="fills-471d1b56-7c24-80ba-8002-cb02678c6785" class="fills"><path id="path7018" d="M320.97 37.73a39.22 39.22 0 0 1 5.17 6.83l1.66-.98a43.16 43.16 0 0 0-5.46-7.12z" class="st0"/></g></g><g id="shape-471d1b56-7c24-80ba-8002-cb02678c8079"><g id="fills-471d1b56-7c24-80ba-8002-cb02678c8079" class="fills"><path id="path7022" d="m327.99 287.53 1.75.88a43.95 43.95 0 0 0 3.03-8.49l-1.85-.49a38.16 38.16 0 0 1-2.93 8.1z" class="st0"/></g></g><g id="shape-471d1b56-7c24-80ba-8002-cb02678cfff6"><g id="fills-471d1b56-7c24-80ba-8002-cb02678cfff6" class="fills"><rect id="rect7026" width="8.77" height="1.95" x="161.46" y="23.2" class="st0" rx="0" ry="0"/></g></g><g id="shape-471d1b56-7c24-80ba-8002-cb02678cfff7"><g id="fills-471d1b56-7c24-80ba-8002-cb02678cfff7" class="fills"><rect id="rect7030" width="1.95" height="8.77" x="331.99" y="75.07" class="st0" rx="0" ry="0"/></g></g><g id="shape-471d1b56-7c24-80ba-8002-cb02678d01e4"><g id="fills-471d1b56-7c24-80ba-8002-cb02678d01e4" class="fills"><rect id="rect7034" width="1.95" height="8.77" x="331.99" y="102.38" class="st0" rx="0" ry="0"/></g></g><g id="shape-471d1b56-7c24-80ba-8002-cb02678d40f3"><g id="fills-471d1b56-7c24-80ba-8002-cb02678d40f3" class="fills"><rect id="rect7038" width="1.95" height="8.77" x="331.99" y="88.72" class="st0" rx="0" ry="0"/></g></g><g id="shape-471d1b56-7c24-80ba-8002-cb02678dbe46"><g id="fills-471d1b56-7c24-80ba-8002-cb02678dbe46" class="fills"><path id="path7042" d="m333.74 61.33-1.95.2c.1 1.26.2 2.53.2 3.8v4.87h1.95v-4.88c0-1.36-.1-2.72-.2-4z" class="st0"/></g></g><g id="shape-471d1b56-7c24-80ba-8002-cb02678dbe47"><g id="fills-471d1b56-7c24-80ba-8002-cb02678dbe47" class="fills"><rect id="rect7046" width="1.95" height="8.77" x="331.99" y="143.32" class="st0" rx="0" ry="0"/></g></g><g id="shape-471d1b56-7c24-80ba-8002-cb02678ddb6d"><g id="fills-471d1b56-7c24-80ba-8002-cb02678ddb6d" class="fills"><rect id="rect7050" width="1.95" height="8.77" x="331.99" y="170.63" class="st0" rx="0" ry="0"/></g></g><g id="shape-471d1b56-7c24-80ba-8002-cb02678e2e3c"><g id="fills-471d1b56-7c24-80ba-8002-cb02678e2e3c" class="fills"><path id="path7054" d="M310.44 29.74a43.3 43.3 0 0 1 7.12 4.78l1.26-1.47a38.55 38.55 0 0 0-7.5-4.97z" class="st0"/></g></g><g id="shape-471d1b56-7c24-80ba-8002-cb02678e66e7"><g id="fills-471d1b56-7c24-80ba-8002-cb02678e66e7" class="fills"><rect id="rect7058" width="1.95" height="8.77" x="331.99" y="156.98" class="st0" rx="0" ry="0"/></g></g><g id="shape-471d1b56-7c24-80ba-8002-cb02678e66e8"><g id="fills-471d1b56-7c24-80ba-8002-cb02678e66e8" class="fills"><rect id="rect7062" width="1.95" height="8.77" x="331.99" y="129.68" class="st0" rx="0" ry="0"/></g></g><g id="shape-471d1b56-7c24-80ba-8002-cb02678eb735"><g id="fills-471d1b56-7c24-80ba-8002-cb02678eb735" class="fills"><rect id="rect7066" width="1.95" height="8.77" x="331.99" y="116.03" class="st0" rx="0" ry="0"/></g></g><g id="shape-471d1b56-7c24-80ba-8002-cb02678eb736"><g id="fills-471d1b56-7c24-80ba-8002-cb02678eb736" class="fills"><rect id="rect7070" width="8.77" height="1.95" x="214.79" y="310.15" class="st0" rx="0" ry="0"/></g></g><g id="shape-471d1b56-7c24-80ba-8002-cb02678ec2f0"><g id="fills-471d1b56-7c24-80ba-8002-cb02678ec2f0" class="fills"><rect id="rect7074" width="8.77" height="1.95" x="202.41" y="23.2" class="st0" rx="0" ry="0"/></g></g><g id="shape-471d1b56-7c24-80ba-8002-cb02678f3e12"><g id="fills-471d1b56-7c24-80ba-8002-cb02678f3e12" class="fills"><rect id="rect7078" width="8.77" height="1.95" x="201.14" y="310.15" class="st0" rx="0" ry="0"/></g></g><g id="shape-471d1b56-7c24-80ba-8002-cb02678f3e13"><g id="fills-471d1b56-7c24-80ba-8002-cb02678f3e13" class="fills"><rect id="rect7082" width="8.77" height="1.95" x="228.44" y="310.15" class="st0" rx="0" ry="0"/></g></g><g id="shape-471d1b56-7c24-80ba-8002-cb02678f7c9b"><g id="fills-471d1b56-7c24-80ba-8002-cb02678f7c9b" class="fills"><rect id="rect7086" width="8.77" height="1.95" x="229.71" y="23.2" class="st0" rx="0" ry="0"/></g></g><g id="shape-471d1b56-7c24-80ba-8002-cb02678f7c9c"><g id="fills-471d1b56-7c24-80ba-8002-cb02678f7c9c" class="fills"><rect id="rect7090" width="8.77" height="1.95" x="216.06" y="23.2" class="st0" rx="0" ry="0"/></g></g><g id="shape-471d1b56-7c24-80ba-8002-cb02678fb4f8"><g id="fills-471d1b56-7c24-80ba-8002-cb02678fb4f8" class="fills"><rect id="rect7094" width="8.77" height="1.95" x="173.84" y="310.15" class="st0" rx="0" ry="0"/></g></g><g id="shape-471d1b56-7c24-80ba-8002-cb02678ffd5d"><g id="fills-471d1b56-7c24-80ba-8002-cb02678ffd5d" class="fills"><rect id="rect7098" width="8.77" height="1.95" x="188.76" y="23.2" class="st0" rx="0" ry="0"/></g></g><g id="shape-471d1b56-7c24-80ba-8002-cb02678ffd5e"><g id="fills-471d1b56-7c24-80ba-8002-cb02678ffd5e" class="fills"><rect id="rect7102" width="8.77" height="1.95" x="175.11" y="23.2" class="st0" rx="0" ry="0"/></g></g><g id="shape-471d1b56-7c24-80ba-8002-cb0267901b99"><g id="fills-471d1b56-7c24-80ba-8002-cb0267901b99" class="fills"><rect id="rect7106" width="8.77" height="1.95" x="187.49" y="310.15" class="st0" rx="0" ry="0"/></g></g><g id="shape-471d1b56-7c24-80ba-8002-cb0267907566"><g id="fills-471d1b56-7c24-80ba-8002-cb0267907566" class="fills"><path id="path7110" d="m296.79 309.86.2 1.95a45.83 45.83 0 0 0 8.77-2.05l-.68-1.86a39.44 39.44 0 0 1-8.29 1.95z" class="st0"/></g></g><g id="shape-471d1b56-7c24-80ba-8002-cb0267907567"><g id="fills-471d1b56-7c24-80ba-8002-cb0267907567" class="fills"><rect id="rect7114" width="8.77" height="1.95" x="242.09" y="310.15" class="st0" rx="0" ry="0"/></g></g><g id="shape-471d1b56-7c24-80ba-8002-cb026790b4b1"><g id="fills-471d1b56-7c24-80ba-8002-cb026790b4b1" class="fills"><path id="path7118" d="m309.46 306.05.88 1.76a38.34 38.34 0 0 0 7.6-4.78l-1.16-1.56a41.5 41.5 0 0 1-7.31 4.58z" class="st0"/></g></g><g id="shape-471d1b56-7c24-80ba-8002-cb026790f766"><g id="fills-471d1b56-7c24-80ba-8002-cb026790f766" class="fills"><path id="path7122" d="m293.08 25.16.1-1.95h-8.87v1.95h8.77z" class="st0"/></g></g><g id="shape-471d1b56-7c24-80ba-8002-cb026791324d"><g id="fills-471d1b56-7c24-80ba-8002-cb026791324d" class="fills"><path id="path7126" d="M306.74 25.93a39.17 39.17 0 0 0-8.68-2.24l-.3 1.95c2.83.4 5.66 1.17 8.3 2.15z" class="st0"/></g></g><g id="shape-471d1b56-7c24-80ba-8002-cb02679148d6"><g id="fills-471d1b56-7c24-80ba-8002-cb02679148d6" class="fills"><rect id="rect7130" width="8.97" height="1.95" x="283.04" y="310.15" class="st0" rx="0" ry="0"/></g></g><g id="shape-471d1b56-7c24-80ba-8002-cb02679148d7"><g id="fills-471d1b56-7c24-80ba-8002-cb02679148d7" class="fills"><rect id="rect7134" width="8.77" height="1.95" x="257.01" y="23.2" class="st0" rx="0" ry="0"/></g></g><g id="shape-471d1b56-7c24-80ba-8002-cb026791a46d"><g id="fills-471d1b56-7c24-80ba-8002-cb026791a46d" class="fills"><rect id="rect7138" width="8.77" height="1.95" x="270.66" y="23.2" class="st0" rx="0" ry="0"/></g></g><g id="shape-471d1b56-7c24-80ba-8002-cb026791a46e"><g id="fills-471d1b56-7c24-80ba-8002-cb026791a46e" class="fills"><rect id="rect7142" width="8.77" height="1.95" x="243.36" y="23.2" class="st0" rx="0" ry="0"/></g></g><g id="shape-471d1b56-7c24-80ba-8002-cb026791e3c4"><g id="fills-471d1b56-7c24-80ba-8002-cb026791e3c4" class="fills"><rect id="rect7146" width="8.77" height="1.95" x="269.39" y="310.15" class="st0" rx="0" ry="0"/></g></g><g id="shape-471d1b56-7c24-80ba-8002-cb0267922a8b"><g id="fills-471d1b56-7c24-80ba-8002-cb0267922a8b" class="fills"><path id="path7150" d="M148.1 79.27zm0 0c.78 0 1.47-.59 1.47-1.46 0-.4 0-.78.1-1.17 0-.4.09-.78.19-1.17.1-.78-.4-1.56-1.17-1.66-.4-.1-.78 0-1.08.2-.29.19-.48.58-.58.97-.1.48-.1.97-.2 1.46 0 .49-.1.97-.1 1.46 0 .68.6 1.27 1.37 1.37z" class="st0"/></g></g><g id="shape-471d1b56-7c24-80ba-8002-cb02679436e0"><g id="fills-471d1b56-7c24-80ba-8002-cb02679436e0" class="fills"><path id="path7154" d="M137.09 74.1c-1.08 1.46-1.37 3.6-.78 7.21.1.78.87 1.27 1.56 1.17.39 0 .78-.19.97-.58.2-.3.39-.68.3-1.07-.4-2.73-.3-4.2.29-5.07.48-.68 1.46-.98 3.21-1.07 0 .19-.1.48-.1.68-.38 3.5.2 7.12 1.66 10.43 1.86 4.1 4.98 7.7 9.36 10.73v6.72a4.58 4.58 0 0 0 4.59 4.59 4.7 4.7 0 0 0 3.12-1.27 6.33 6.33 0 0 0 1.56-3.12l.48-2.54c1.37.4 2.64.69 4 .88a38.62 38.62 0 0 0 14.72-.59l.59 2.34c.29 1.17.78 2.15 1.56 3.03a4.23 4.23 0 0 0 2.92 1.27 4.58 4.58 0 0 0 4.59-4.59v-6.24a30.37 30.37 0 0 0 6.04-5.07 25.6 25.6 0 0 0 4-6.14h3.41a4.54 4.54 0 0 0 4.49-4.48v-5.27a4.54 4.54 0 0 0-4.49-4.49h-2.34a19.82 19.82 0 0 0-1.85-4.48 23.29 23.29 0 0 0-3.02-4.39 21.8 21.8 0 0 0-.1-11.99c-.2-.68-.98-1.17-1.66-.98-1.95.4-3.9 1.08-5.65 2.05a20.3 20.3 0 0 0-4.2 2.93c-.48-.2-1.07-.4-1.56-.59-.39-.1-.78-.29-1.17-.39a13.32 13.32 0 0 0-17.55-14.53 13.38 13.38 0 0 0-8.48 16.48 28.18 28.18 0 0 0-11.5 10.14c-1.27 1.95-2.25 4-2.83 6.24-3.12-.1-5.07.59-6.15 2.05zm26.61-30.52a10.49 10.49 0 0 1 14.73 1.27 10.45 10.45 0 0 1 1.07 11.9c-.68-.1-1.37-.2-1.95-.3-1.27-.2-2.63-.29-3.9-.29-.2 0-4.1 0-6.05.49-.2 0-.39.1-.58.1-.2 0-.3.1-.49.1-1.46.28-2.92.67-4.29 1.26a10.44 10.44 0 0 1 1.46-14.53zm-18.33 32.18a20.7 20.7 0 0 1 3.12-8.58 24.62 24.62 0 0 1 10.24-8.97c.3.48.49.87.78 1.26-.2.4-.2.88 0 1.27.2.4.49.59.78.78a2 2 0 0 0 1.07 0 28.28 28.28 0 0 1 11.5-2.34c1.37 0 2.74.1 4.1.3 1.27.19 2.63.48 3.9.77.78.2 1.56-.19 1.76-.97.2-.59 0-1.17-.4-1.56.2-.39.4-.78.6-1.27l.97.3c.78.29 1.46.58 2.24.87.58.2 1.27.1 1.66-.29a17.9 17.9 0 0 1 7.7-4.39 17.9 17.9 0 0 1-.39 9.75c-.2.49 0 1.07.39 1.46a19.04 19.04 0 0 1 3.12 4.4 16.56 16.56 0 0 1 1.75 4.77c.1.68.69 1.27 1.47 1.27h3.5c.88 0 1.57.68 1.57 1.56v5.36c0 .88-.69 1.56-1.56 1.56h-4.39c-.59 0-1.17.39-1.37.97a20.2 20.2 0 0 1-3.8 6.15 25.58 25.58 0 0 1-5.95 4.87c-.48.3-.78.78-.78 1.27v7.02c0 .97-.78 1.75-1.75 1.75-.3 0-.68-.1-.88-.39a5.4 5.4 0 0 1-.88-1.65l-.87-3.8v-.1c-.1-.4-.4-.69-.69-.88-.19-.1-.48-.2-.68-.2-.1 0-.29 0-.39.1-1.56.49-3.12.78-4.68.98a32.8 32.8 0 0 1-10.23-.1c-1.76-.3-3.51-.68-5.17-1.27-.1 0-.2-.1-.3-.1-.78-.1-1.56.5-1.56 1.27l-.78 4.1c-.1.58-.39 1.07-.78 1.56-.29.29-.58.39-.97.39-.97 0-1.75-.78-1.75-1.76v-7.5c0-.5-.3-.98-.69-1.27-4.19-2.73-7.21-6.05-8.87-9.85-1.56-2.73-1.95-5.75-1.66-8.87z" class="st0"/></g></g><g id="shape-471d1b56-7c24-80ba-8002-cb0267944111"><g id="fills-471d1b56-7c24-80ba-8002-cb0267944111" class="fills"><path id="path7158" d="M149.27 79.75c-.29-.19-.68-.29-1.07-.19-.39.1-.68.3-.88.68-.2.3-.29.69-.2 1.08a18.7 18.7 0 0 0 1.57 4.09 21 21 0 0 0 2.63 3.7c.3.3.68.5 1.07.5.3 0 .69-.1.98-.4.58-.48.68-1.46.1-2.04a16.73 16.73 0 0 1-2.25-3.12 13.66 13.66 0 0 1-1.26-3.32 1.5 1.5 0 0 0-.69-.97z" class="st0"/></g></g><g id="shape-471d1b56-7c24-80ba-8002-cb0267952f09"><g id="fills-471d1b56-7c24-80ba-8002-cb0267952f09" class="fills"><path id="path7162" d="M189.15 71.17s.1 0 0 0zm0 0c.49 0 .78-.1 1.07-.39l.1-.1a2.65 2.65 0 0 1 1.66-.58c.78 0 1.56.3 2.14.78.3.2.69.3 1.08.2.39-.1.68-.3.97-.59.49-.68.3-1.56-.39-2.04a6.6 6.6 0 0 0-3.8-1.27 5.8 5.8 0 0 0-3.7 1.36c-.3.3-.5.59-.5.98s.1.78.3 1.07c.29.39.68.58 1.07.58z" class="st0"/></g></g><g id="shape-471d1b56-7c24-80ba-8002-cb0267952f0a"><g id="fills-471d1b56-7c24-80ba-8002-cb0267952f0a" class="fills"><path id="path7166" d="m208.94 36.56-3.31 5.17a1.7 1.7 0 0 0 .49 2.34c.29.2.58.3.87.3.59 0 1.07-.3 1.46-.79l3.32-5.16a1.7 1.7 0 0 0-.49-2.34c-.88-.5-1.85-.3-2.34.48z" class="st0"/></g></g><g id="shape-471d1b56-7c24-80ba-8002-cb0267959387"><g id="fills-471d1b56-7c24-80ba-8002-cb0267959387" class="fills"><path id="path7170" d="M210.99 47.97c.3.68.88 1.07 1.56 1.07.2 0 .39 0 .58-.1 1.18-.38 2.35-.68 3.52-.97.97-.3 1.95-.49 2.82-.78a1.71 1.71 0 0 0 1.08-2.15 1.71 1.71 0 0 0-2.15-1.07c-.78.3-1.66.49-2.63.68-1.27.3-2.54.69-3.8 1.08-.88.39-1.37 1.36-.98 2.24z" class="st0"/></g></g><g id="shape-471d1b56-7c24-80ba-8002-cb026795fc6e"><g id="fills-471d1b56-7c24-80ba-8002-cb026795fc6e" class="fills"><path id="path7174" d="M219.18 59.87c.2.1.49.19.78.19.58 0 1.17-.3 1.46-.97.4-.88.1-1.86-.78-2.25l-5.94-3.02c-.88-.39-1.86-.1-2.25.78-.39.88-.1 1.85.78 2.24z" class="st0"/></g></g><g id="shape-471d1b56-7c24-80ba-8002-cb026796198a"><g id="fills-471d1b56-7c24-80ba-8002-cb026796198a" class="fills"><path id="path7178" d="m143.13 109.78-1.27 6.05c-.2.88.4 1.75 1.27 1.95h.39c.78 0 1.46-.58 1.66-1.36l1.26-6.05c.2-.88-.39-1.75-1.26-1.95-.98-.1-1.86.49-2.05 1.36z" class="st0"/></g></g><g id="shape-471d1b56-7c24-80ba-8002-cb0267969636"><g id="fills-471d1b56-7c24-80ba-8002-cb0267969636" class="fills"><path id="path7182" d="M136.8 106.47c-.89.78-1.96 1.46-2.93 2.15-.88.58-1.66 1.16-2.34 1.75a1.68 1.68 0 0 0-.2 2.34c.3.39.78.58 1.27.58.39 0 .78-.1 1.07-.39a20.4 20.4 0 0 1 2.15-1.56c1.07-.78 2.14-1.46 3.12-2.34.68-.58.78-1.65.2-2.34a1.68 1.68 0 0 0-2.35-.19z" class="st0"/></g></g><g id="shape-471d1b56-7c24-80ba-8002-cb026796e6f9"><g id="fills-471d1b56-7c24-80ba-8002-cb026796e6f9" class="fills"><path id="path7186" d="M125.39 100.03c-.1.98.58 1.76 1.46 1.86l6.63.68h.2a1.7 1.7 0 0 0 1.65-1.56c.1-.88-.59-1.76-1.46-1.85l-6.63-.69c-.98-.1-1.76.59-1.86 1.56z" class="st0"/></g></g><g id="shape-471d1b56-7c24-80ba-8002-cb0267975d0e"><g id="fills-471d1b56-7c24-80ba-8002-cb0267975d0e" class="fills"><path id="path7190" d="M165.07 49.82a.87.87 0 0 0-.88.88c0 .49.39.88.88.88h1.17a5.87 5.87 0 0 0 2.73 3.02 5.3 5.3 0 0 0 4.29.39c.29-.1.68-.2.97-.39.2-.1.4-.3.49-.58.1-.3.1-.5-.1-.79-.29-.48-.88-.68-1.36-.38a3.7 3.7 0 0 1-4.78-1.27h2.63c.2 0 .49-.1.59-.3.2-.19.29-.39.29-.58a.87.87 0 0 0-.88-.88h-3.21v-.68h3.21c.2 0 .49-.1.59-.3.2-.19.29-.38.29-.58a.87.87 0 0 0-.88-.88h-2.63a3.68 3.68 0 0 1 4.49-1.36c.1 0 .19.1.29.1.49.29 1.07.1 1.36-.4.1-.19.2-.48.1-.77a1 1 0 0 0-.49-.59 5.68 5.68 0 0 0-7.7 2.44l-.3.58h-1.16a.87.87 0 0 0-.88.88c0 .49.39.88.88.88h.88v.68z" class="st0"/></g></g><g id="shape-471d1b56-7c24-80ba-8002-cb026797d102"><g id="fills-471d1b56-7c24-80ba-8002-cb026797d102" class="fills"><path id="path7194" d="M269.98 215.96v12.48h-3.61c-.68 0-1.17.59-1.17 1.17 0 .68.58 1.17 1.17 1.17h27.6c.67 0 1.16-.58 1.16-1.17 0-.68-.58-1.17-1.17-1.17h-21.45v-12.09l3.61-3.6 8.87 8.87c.49.48 1.27.48 1.66 0 .39-.49.49-1.27 0-1.66l-19.5-19.5c-.49-.49-1.27-.49-1.66 0-.49.49-.49 1.27 0 1.66l8.87 8.87-4.09 4c-.1.29-.3.58-.3.97z" class="st0"/></g></g><g id="shape-471d1b56-7c24-80ba-8002-cb0267986fa6"><g id="fills-471d1b56-7c24-80ba-8002-cb0267986fa6" class="fills"><path id="path7198" d="M235.66 215.47c-.1.1-.1.3-.1.5v12.47h-3.6c-.69 0-1.18.59-1.18 1.17 0 .68.59 1.17 1.17 1.17h27.6c.68 0 1.17-.58 1.17-1.17 0-.68-.59-1.17-1.17-1.17H238.1v-12.09l3.6-3.6 8.88 8.87a1.24 1.24 0 1 0 1.75-1.75l-19.5-19.5a1.23 1.23 0 0 0-1.75 0 1.23 1.23 0 0 0 0 1.75l8.87 8.87-4.1 4c0 .2-.1.29-.2.48z" class="st0"/></g></g><g id="shape-471d1b56-7c24-80ba-8002-cb026798ad8c"><g id="fills-471d1b56-7c24-80ba-8002-cb026798ad8c" class="fills"><path id="path7202" d="M196.37 229.61c0 .68.58 1.17 1.17 1.17h27.59c.68 0 1.17-.58 1.17-1.17 0-.68-.59-1.17-1.17-1.17h-21.45v-12.09l3.6-3.6 8.88 8.87c.2.2.48.39.87.39.3 0 .59-.1.88-.4.49-.48.49-1.26 0-1.65l-19.5-19.5a1.24 1.24 0 0 0-1.75 0 1.24 1.24 0 0 0 0 1.75l8.87 8.88-4.1 4c-.1.1-.19.29-.29.38-.1.1-.1.3-.1.5v12.57h-3.6v-.1c-.59 0-1.08.49-1.08 1.17z" class="st0"/></g></g><g id="shape-471d1b56-7c24-80ba-8002-cb026799349e"><g id="fills-471d1b56-7c24-80ba-8002-cb026799349e" class="fills"><path id="path7206" d="M279.73 179.3v12.48h-3.61c-.68 0-1.17.59-1.17 1.17 0 .68.58 1.17 1.17 1.17h27.6c.67 0 1.16-.58 1.16-1.17 0-.68-.58-1.17-1.17-1.17h-21.45V179.7l3.61-3.6 8.87 8.87c.49.48 1.27.48 1.66 0 .39-.49.49-1.27 0-1.66l-19.5-19.5c-.49-.49-1.27-.49-1.66 0-.49.49-.49 1.27 0 1.66l8.87 8.87-4.09 4c-.1.29-.3.58-.3.97z" class="st0"/></g></g><g id="shape-471d1b56-7c24-80ba-8002-cb026799a234"><g id="fills-471d1b56-7c24-80ba-8002-cb026799a234" class="fills"><path id="path7210" d="M270.46 192.95c0-.68-.58-1.17-1.17-1.17h-21.45V179.7l3.61-3.6 8.87 8.87c.5.48 1.27.48 1.76 0 .49-.49.49-1.27 0-1.76l-19.5-19.5a1.23 1.23 0 0 0-1.76 0 1.23 1.23 0 0 0 0 1.76l8.88 8.87-4 4.1c-.1.1-.2.29-.3.38-.09.1-.09.3-.09.5v12.47h-3.6c-.69 0-1.18.59-1.18 1.17 0 .68.59 1.17 1.17 1.17h27.6c.68.1 1.16-.49 1.16-1.17z" class="st0"/></g></g><g id="shape-471d1b56-7c24-80ba-8002-cb026799f6a3"><g id="fills-471d1b56-7c24-80ba-8002-cb026799f6a3" class="fills"><path id="path7214" d="M206.12 192.95c0 .69.58 1.17 1.17 1.17h27.59c.68 0 1.17-.58 1.17-1.17 0-.68-.59-1.17-1.17-1.17h-21.45V179.7l3.6-3.6 8.88 8.87c.2.2.48.39.87.39.3 0 .59-.1.88-.4.49-.48.49-1.26 0-1.65l-19.5-19.5a1.24 1.24 0 0 0-1.75 0 1.24 1.24 0 0 0 0 1.75l8.87 8.88-4.1 4c-.1.1-.19.29-.29.38-.1.1-.1.3-.1.5v12.57h-3.6v-.1c-.59 0-1.08.49-1.08 1.17z" class="st0"/></g></g><g id="shape-471d1b56-7c24-80ba-8002-cb02679b2058"><g id="fills-471d1b56-7c24-80ba-8002-cb02679b2058" class="fills"><path id="path7218" d="M289.77 136.3a1.37 1.37 0 0 0-.39 1.86l3.02 4.78c-.97.58-1.85 1.36-2.63 2.24l-4.78-2.54c-.68-.39-1.46-.1-1.85.59-.39.68-.1 1.46.59 1.85l4.48 2.44a10.64 10.64 0 0 0-1.17 3.5l-4.88.2c-.78 0-1.36.68-1.26 1.37 0 .68.58 1.26 1.36 1.26l4.59-.19c0 .3 0 .58.1.88.09.78.77 1.26 1.46 1.17a1.3 1.3 0 0 0 1.17-1.47c-.1-.58-.1-1.07-.1-1.65v-.3a9.16 9.16 0 0 1 6.53-7.99 9.25 9.25 0 0 1 11.5 6.14 9.1 9.1 0 0 1-4.67 10.92c-.69.3-.98 1.17-.59 1.76.2.48.68.78 1.17.78.2 0 .39 0 .59-.1.19-.1.29-.2.48-.2l2.54 4.1c.29.39.68.58 1.17.58.2 0 .49-.1.68-.19.59-.39.78-1.17.39-1.85l-2.63-4.3c.88-.77 1.66-1.75 2.34-2.82l4.78 2.53c.19.1.39.2.58.2.49 0 .98-.3 1.17-.68.39-.69.1-1.47-.58-1.86l-4.88-2.63c.3-1.07.49-2.14.59-3.31l5.94-.2c.78 0 1.37-.68 1.27-1.36 0-.78-.68-1.27-1.36-1.27l-6.05.2-.3-1.18c-.19-.58-.38-1.17-.67-1.75l5.36-3.32c.58-.39.78-1.17.39-1.85a1.39 1.39 0 0 0-1.86-.39l-5.36 3.32a10.69 10.69 0 0 0-2.14-2.05l3.02-5.66c.39-.68.1-1.46-.58-1.85-.69-.39-1.47-.1-1.86.59l-3.02 5.65c-.97-.39-1.95-.68-2.92-.88l-.2-6.33c0-.78-.68-1.37-1.36-1.27-.78 0-1.37.68-1.27 1.36l.2 6.15c-.89.1-1.76.2-2.64.49-.2 0-.3.1-.49.19l-3.12-5.07c-.39-.78-1.27-.97-1.85-.58z" class="st0"/></g></g><g id="shape-471d1b56-7c24-80ba-8002-cb02679b758f"><g id="fills-471d1b56-7c24-80ba-8002-cb02679b758f" class="fills"><path id="path7222" d="M187 148.59h87.95v-3.12h-91.16v82H187z" class="st0"/></g></g><g id="shape-471d1b56-7c24-80ba-8002-cb02679b90c7"><g id="fills-471d1b56-7c24-80ba-8002-cb02679b90c7" class="fills"><path id="path7226" d="M314.34 173.84h-3.12v76.54h-88.04v3.12h91.16z" class="st0"/></g></g><g id="shape-471d1b56-7c24-80ba-8002-cb02679bf0b9"><g id="fills-471d1b56-7c24-80ba-8002-cb02679bf0b9" class="fills"><path id="path7230" d="M123.83 175.5a9.12 9.12 0 0 1 4 7.41c0 .78.68 1.46 1.46 1.46a1.5 1.5 0 0 0 1.46-1.46c0-3.9-2.05-7.7-5.27-9.85-.68-.49-1.56-.29-2.05.4-.48.67-.29 1.55.4 2.04z" class="st0"/></g></g><g id="shape-471d1b56-7c24-80ba-8002-cb02679d859d"><g id="fills-471d1b56-7c24-80ba-8002-cb02679d859d" class="fills"><path id="path7234" d="M133.28 235.56c-.39-.49-8.77-12.58-29.83-11.5v-12.97l24.18-19.11 10.33-7.41v-.78c0-.3-.2-7.31-6.33-12-4.88-3.7-7.41-8.57-12.97-19.1l-1.76-3.32c-6.92-13.06-22.91-18.23-24.18-18.62-17.55-6.83-24.08 0-26.52 2.63l-.58.59c-6.05 2.73-7.7 6.04-9.75 9.84-.59 1.08-1.17 2.25-1.95 3.51-3.02 4.98-12.1 21.36-13.16 30.23-1.56 11.8 22.13 32.27 28.08 35.2.1.1.29.19.58.29v11.02c-4.97-.3-20.09-.69-26.13 4.77-1.95 1.66-2.73 4.59-2.44 8.2.88 11.2 12.48 30.22 35.79 45.43.19.2.48.2.78.2.19 0 .39 0 .58-.1.49-.2.78-.69.88-1.17 0-.1 1.85-13.95 23.1-24.38.78-.3 7.41-2.73 14.34-6.14 10.14-4.98 15.89-9.75 17.35-14.04 0-.4-.1-.88-.39-1.27zm-32.37-31.2c-.1.1-.1.1-.1.2-.1.1-5.84 8.38-12.86 8.09h-1.56c-7.02.29-13.36-8.1-13.46-8.2l-.1-.09c-5.36-5.75-7.02-15.11-7.02-15.21a1.38 1.38 0 0 0-1.65-1.17c-1.56.2-2.73-.2-3.8-1.46-3.32-3.9-3.32-13.46-2.64-15.6.2-.59.49-.78.68-.88.69-.3 1.86 0 2.15.2.39.19.97.19 1.36-.1.4-.2.69-.68.69-1.17.39-3.7 1.95-10.92 4.97-11.8.88 1.37 2.83 4.2 5.26 6.92 4.78 5.27 8.97 7.32 12.68 6.24.58-.2 1.07-.78 1.07-1.36v-2.05c1.66 1.95 4.1 4.1 7.5 5.46.4.2.89.1 1.28-.1s.68-.58.68-1.07l.2-1.27c1.55 1.47 3.99 2.54 7.4 2.25 6.73-.69 11.02-2.34 11.22-2.44.1 0 .1 0 .1-.1 0 0 .19-.1.38 0 .2.1.49.49.78 1.17.69 2.15.69 11.7-2.63 15.6a3.88 3.88 0 0 1-3.8 1.46c-.78-.1-1.56.4-1.66 1.17-.1.2-1.66 9.56-7.12 15.31zm-28.76 6.63v-2.83c2.63 2.83 8 7.6 14.14 7.41h1.95c5.17 0 9.55-3.5 12.19-6.24v15.4c-2.64 1.18-12.58 4.88-28.38-.19v-12.28c.3-.3.3-.68.1-1.27zm-28.57-33.05c1.08-8.39 9.85-24.18 12.78-29.06.78-1.36 1.46-2.53 2.04-3.7 1.95-3.7 3.22-6.24 8.49-8.58.48-.2.87-.69 1.46-1.27 2.24-2.44 7.6-8 23.4-1.85h.1c.19 0 15.98 4.97 22.52 17.16l1.75 3.31c5.56 10.63 8.39 16 13.85 20.09 4 3.02 4.87 7.31 5.16 8.97l-9.06 6.53-22.43 17.74v-1.46c4.49-5.07 6.54-12.09 7.12-14.92 1.95-.1 3.7-.97 5.07-2.53 4.2-4.97 4-15.9 3.12-18.43-.49-1.56-1.36-2.63-2.53-3.02-1.17-.49-2.25 0-2.64.1-.48.2-4.48 1.65-10.33 2.24-5.17.49-6.53-3.41-6.73-3.8-.2-.69-.88-1.08-1.56-1.08-.68.1-1.27.59-1.36 1.27l-.4 3.12a15.6 15.6 0 0 1-6.92-7.6 1.58 1.58 0 0 0-1.65-.98c-.69.1-1.17.78-1.17 1.47v5.94h-.1c-5.17 0-11.7-9.06-14.04-12.87-.3-.39-.68-.68-1.17-.68-5.95-.3-7.9 8.87-8.48 12.87-.78-.1-1.76-.1-2.73.3-.78.29-1.76 1.07-2.25 2.63-.87 2.53-1.07 13.35 3.12 18.42a6.47 6.47 0 0 0 5.07 2.54c.59 2.63 2.34 8.87 6.15 13.75v5.07c-6.05-3.61-26.92-21.94-25.65-31.7Zm0 58.89c-.2-2.73.3-4.78 1.47-5.85 3.9-3.42 13.26-4.2 19.98-4.1-.58.68-1.17 1.56-1.66 2.54-4.58 8.28-6.53 23.4 1.47 40.56-13.65-12.19-20.58-24.96-21.26-33.15zm57.14 17.45c-.1 0-.1 0-.2.1-17.84 8.77-22.91 19.89-24.27 24.57-1.95-1.37-3.8-2.64-5.56-4-11.12-18.62-9.46-35.3-4.68-43.97 1.56-2.83 3.02-3.8 3.41-3.8.39 0 .78.1 1.07.1 6.83 2.23 12.58 3.01 17.36 3.01 8.29 0 13.36-2.34 14.62-3.02 17.85-1.36 26.04 7.12 27.99 9.56-3.32 6.82-22.43 14.82-29.74 17.45z" class="st0"/></g></g><g id="shape-471d1b56-7c24-80ba-8002-cb02679de1dc"><g id="fills-471d1b56-7c24-80ba-8002-cb02679de1dc" class="fills"><path id="path7238" d="M79.56 160.39c.2.1.49.2.68.2.49 0 1.08-.3 1.27-.79.39-.68.1-1.56-.58-1.95a9.56 9.56 0 0 1-4.78-7.02 1.46 1.46 0 0 0-1.66-1.26c-.78.1-1.36.78-1.27 1.65.49 3.8 2.93 7.32 6.34 9.17z" class="st0"/></g></g><g id="shape-471d1b56-7c24-80ba-8002-cb02679e5aa4"><g id="fills-471d1b56-7c24-80ba-8002-cb02679e5aa4" class="fills"><path id="path7242" d="M94.28 160.49c.2.1.4.1.59.1.58 0 1.07-.3 1.36-.88.3-.78 0-1.56-.78-1.95a28.68 28.68 0 0 1-14.82-15.6c-.29-.78-1.17-1.17-1.85-.88-.78.29-1.17 1.17-.88 1.85a31.77 31.77 0 0 0 16.38 17.36z" class="st0"/></g></g><g id="shape-471d1b56-7c24-80ba-8002-cb02679eb210"><g id="fills-471d1b56-7c24-80ba-8002-cb02679eb210" class="fills"><path id="path7246" d="M94.19 145.96c7.4 1.17 11.99 7.8 12.77 12.18.1.69.78 1.17 1.46 1.17h.3a1.6 1.6 0 0 0 1.16-1.75c-1.17-6.05-6.92-13.16-15.2-14.53-.79-.1-1.57.4-1.67 1.17-.1.78.4 1.66 1.17 1.76z" class="st0"/></g></g><g id="shape-471d1b56-7c24-80ba-8002-cb02679ed5e9"><g id="fills-471d1b56-7c24-80ba-8002-cb02679ed5e9" class="fills"><path id="path7250" d="M90.09 197.05c-1.27 1.17-3.22 2.43-6.53-.3a1.51 1.51 0 0 0-2.05.2c-.49.58-.39 1.56.2 2.05 1.85 1.56 3.7 2.34 5.55 2.34 1.76 0 3.41-.69 4.88-2.15.58-.58.58-1.46 0-2.05a1.34 1.34 0 0 0-2.05-.1z" class="st0"/></g></g><g id="shape-471d1b56-7c24-80ba-8002-cb02679f27e4"><g id="fills-471d1b56-7c24-80ba-8002-cb02679f27e4" class="fills"><path id="path7254" d="M54.4 164.1c.4-.69.2-1.57-.48-2.06a1.56 1.56 0 0 0-2.05.5 32.24 32.24 0 0 0-4.58 21.15c.1.78.68 1.27 1.46 1.27h.2c.78-.1 1.36-.88 1.26-1.66a29.97 29.97 0 0 1 4.2-19.2z" class="st0"/></g></g><g id="shape-471d1b56-7c24-80ba-8002-cb02679f4b6e"><g id="fills-471d1b56-7c24-80ba-8002-cb02679f4b6e" class="fills"><path id="path7258" d="m67.76 107.64 2.44 1.56a115.63 115.63 0 0 1 48.85-42.41l-4.68 11.5 2.73 1.07 6.63-16.28-16.68-5.46-.87 2.83 11.5 3.7a119.13 119.13 0 0 0-49.92 43.49Z" class="st0"/></g></g><g id="shape-471d1b56-7c24-80ba-8002-cb02679f8c09"><g id="fills-471d1b56-7c24-80ba-8002-cb02679f8c09" class="fills"><path id="path7262" d="m280.41 118.56-11.5-4.68-1.08 2.73 16.29 6.63 5.46-16.67-2.83-.88-3.7 11.5a118.56 118.56 0 0 0-43.4-49.82l-1.56 2.44a115.9 115.9 0 0 1 42.32 48.75z" class="st0"/></g></g><g id="shape-471d1b56-7c24-80ba-8002-cb02679fe8d0"><g id="fills-471d1b56-7c24-80ba-8002-cb02679fe8d0" class="fills"><path id="path7266" d="M171.6 274.37c11.4 0 22.72-1.66 33.83-4.88l-.88-2.83a116.59 116.59 0 0 1-64.64.4l11.12-5.66-1.37-2.63-15.6 7.99 9.17 15.02 2.53-1.56-6.24-10.34a119.06 119.06 0 0 0 32.08 4.49z" class="st0"/></g></g><g id="shape-471d1b56-7c24-80ba-8002-cb0267a010b8"><g id="fills-471d1b56-7c24-80ba-8002-cb0267a010b8" class="fills"><path id="path7270" d="M180.08 282.36h-1.85l.58-1.27c.5-.87.4-1.95-.1-2.82a2.78 2.78 0 0 0-2.43-1.37h-3.51c-1.17 0-2.15.68-2.63 1.66l-4.1 8.68c-.39.87-.39 1.95.2 2.82a2.9 2.9 0 0 0 2.43 1.37h2.25l-1.08 4.58c-.29 1.36.4 2.83 1.66 3.31.4.2.78.2 1.17.2a2.9 2.9 0 0 0 2.44-1.36l7.41-11.41c.58-.88.58-2.05.1-3.03-.49-.97-1.47-1.36-2.54-1.36zm-7.4 14.33 1.84-8.19h-5.85l4.1-8.67h3.51l-2.73 5.46h6.53z" class="st0"/></g></g><g id="shape-471d1b56-7c24-80ba-8002-cb0267a0c1e1"><g id="fills-471d1b56-7c24-80ba-8002-cb0267a0c1e1" class="fills"><path id="path7274" d="M177.94 257.79c-.3-.1-.49-.1-.78.1-1.47.78-3.32.29-4.2-1.07h2.25c.48 0 .78-.4.78-.78 0-.4-.4-.78-.78-.78h-2.83v-.5h2.83c.48 0 .78-.38.78-.77 0-.4-.4-.78-.78-.78h-2.25a3.25 3.25 0 0 1 3.9-1.17c.1 0 .2.1.3.1.2.1.48.1.78.1a1 1 0 0 0 .58-.5c.1-.19.1-.48.1-.77a1 1 0 0 0-.49-.59 4.78 4.78 0 0 0-4-.3 4.92 4.92 0 0 0-3.02 2.54c-.1.2-.2.3-.2.49h-1.06a.77.77 0 0 0-.78.78c0 .39.39.78.78.78h.68v.49h-.69c-.48 0-.78.39-.78.78s.4.78.78.78h1.08a5.17 5.17 0 0 0 4.87 3.31c.49 0 1.08-.1 1.56-.2.3-.09.59-.19.88-.38a1 1 0 0 0 .49-.59c.1-.2.1-.48-.1-.78-.2-.29-.39-.2-.68-.29z" class="st0"/></g></g><g id="shape-471d1b56-7c24-80ba-8002-cb0267a13193"><g id="fills-471d1b56-7c24-80ba-8002-cb0267a13193" class="fills"><path id="path7278" d="M173.84 243.16c-6.63 0-12.09 5.46-12.09 12.1 0 6.63 5.46 12.09 12.1 12.09 6.62 0 12.08-5.47 12.08-12.1s-5.46-12.09-12.09-12.09zm0 21.36a9.15 9.15 0 1 1 0-18.33 9.15 9.15 0 1 1 0 18.33z" class="st0"/></g></g></g></g></svg>