<?xml version="1.0" encoding="UTF-8" standalone="no"?>
<svg
   width="360"
   height="343.30301"
   id="screenshot-471d1b56-7c24-80ba-8002-cb02677f65dc"
   viewBox="0 -36 360 343.303"
   style="-webkit-print-color-adjust:exact"
   fill="none"
   version="1.1"
   xmlns="http://www.w3.org/2000/svg"
   xmlns:svg="http://www.w3.org/2000/svg">
  <defs
     id="defs7287" />
  <g
     xml:space="preserve"
     x="0px"
     id="shape-471d1b56-7c24-80ba-8002-cb02677f65dc"
     style="fill:#000000"
     ry="0"
     rx="0"
     y="0px"
     version="1.1"
     transform="translate(6.2932713,-33.039675)"><g
       id="shape-471d1b56-7c24-80ba-8002-cb02678047c1"><style
         type="text/css"
         rx="0"
         ry="0"
         style="fill:#000000"
         id="style6815">.st0{fill:#004B00;}</style></g><g
       id="shape-471d1b56-7c24-80ba-8002-cb026780c36e"
       rx="0"
       ry="0"
       style="fill:#000000"><g
         id="shape-471d1b56-7c24-80ba-8002-cb026781c5a0"><g
           class="fills"
           id="fills-471d1b56-7c24-80ba-8002-cb026781c5a0"><rect
             class="st0"
             rx="0"
             ry="0"
             x="65.910004"
             y="23.205"
             width="8.7749996"
             height="1.95"
             id="rect6818" /></g></g><g
         id="shape-471d1b56-7c24-80ba-8002-cb0267821362"><g
           class="fills"
           id="fills-471d1b56-7c24-80ba-8002-cb0267821362"><rect
             class="st0"
             rx="0"
             ry="0"
             x="79.559998"
             y="23.205"
             width="8.7749996"
             height="1.95"
             id="rect6822" /></g></g><g
         id="shape-471d1b56-7c24-80ba-8002-cb026782703d"><g
           class="fills"
           id="fills-471d1b56-7c24-80ba-8002-cb026782703d"><rect
             class="st0"
             rx="0"
             ry="0"
             x="160.1925"
             y="310.14749"
             width="8.7749996"
             height="1.95"
             id="rect6826" /></g></g><g
         id="shape-471d1b56-7c24-80ba-8002-cb0267829331"><g
           class="fills"
           id="fills-471d1b56-7c24-80ba-8002-cb0267829331"><rect
             class="st0"
             rx="0"
             ry="0"
             x="78.292503"
             y="310.14749"
             width="8.7749996"
             height="1.95"
             id="rect6830" /></g></g><g
         id="shape-471d1b56-7c24-80ba-8002-cb026782f397"><g
           class="fills"
           id="fills-471d1b56-7c24-80ba-8002-cb026782f397"><rect
             class="st0"
             rx="0"
             ry="0"
             x="64.642502"
             y="310.14749"
             width="8.7749996"
             height="1.95"
             id="rect6834" /></g></g><g
         id="shape-471d1b56-7c24-80ba-8002-cb0267835b55"><g
           class="fills"
           id="fills-471d1b56-7c24-80ba-8002-cb0267835b55"><path
             class="st0"
             rx="0"
             ry="0"
             d="m 27.982,36.953 1.463,1.267 c 1.95,-2.145 4.095,-3.997 6.435,-5.655 l -1.17,-1.56 c -2.438,1.755 -4.68,3.705 -6.728,5.948 z"
             id="path6838" /></g></g><g
         id="shape-471d1b56-7c24-80ba-8002-cb02678384eb"><g
           class="fills"
           id="fills-471d1b56-7c24-80ba-8002-cb02678384eb"><path
             class="st0"
             rx="0"
             ry="0"
             d="m 37.928,306.345 c 2.632,1.56 5.362,2.73 8.19,3.705 l 0.584,-1.852 c -2.73,-0.878 -5.362,-2.048 -7.799,-3.51 z"
             id="path6842" /></g></g><g
         id="shape-471d1b56-7c24-80ba-8002-cb0267843778"><g
           class="fills"
           id="fills-471d1b56-7c24-80ba-8002-cb0267843778"><path
             class="st0"
             rx="0"
             ry="0"
             d="m 51.285,309.368 -0.39,1.95 c 2.73,0.487 5.46,0.78 8.287,0.78 h 0.683 v -1.95 h -0.683 c -2.73,0 -5.362,-0.293 -7.897,-0.78 z"
             id="path6846" /></g></g><g
         id="shape-471d1b56-7c24-80ba-8002-cb0267847ac1"><g
           class="fills"
           id="fills-471d1b56-7c24-80ba-8002-cb0267847ac1"><path
             class="st0"
             rx="0"
             ry="0"
             d="M 47.775,26.813 47.19,24.96 c -2.828,0.878 -5.655,2.048 -8.287,3.412 l 0.974,1.756 c 2.535,-1.463 5.168,-2.535 7.898,-3.315 z"
             id="path6850" /></g></g><g
         id="shape-471d1b56-7c24-80ba-8002-cb02678489f2"><g
           class="fills"
           id="fills-471d1b56-7c24-80ba-8002-cb02678489f2"><rect
             class="st0"
             rx="0"
             ry="0"
             x="120.51"
             y="23.205"
             width="8.7749996"
             height="1.95"
             id="rect6854" /></g></g><g
         id="shape-471d1b56-7c24-80ba-8002-cb026784eb3f"><g
           class="fills"
           id="fills-471d1b56-7c24-80ba-8002-cb026784eb3f"><rect
             class="st0"
             rx="0"
             ry="0"
             x="134.16"
             y="23.205"
             width="8.7749996"
             height="1.95"
             id="rect6858" /></g></g><g
         id="shape-471d1b56-7c24-80ba-8002-cb0267852ece"><g
           class="fills"
           id="fills-471d1b56-7c24-80ba-8002-cb0267852ece"><rect
             class="st0"
             rx="0"
             ry="0"
             x="132.8925"
             y="310.14749"
             width="8.7749996"
             height="1.95"
             id="rect6862" /></g></g><g
         id="shape-471d1b56-7c24-80ba-8002-cb0267854a87"><g
           class="fills"
           id="fills-471d1b56-7c24-80ba-8002-cb0267854a87"><rect
             class="st0"
             rx="0"
             ry="0"
             x="146.5425"
             y="310.14749"
             width="8.7749996"
             height="1.95"
             id="rect6866" /></g></g><g
         id="shape-471d1b56-7c24-80ba-8002-cb02678583aa"><g
           class="fills"
           id="fills-471d1b56-7c24-80ba-8002-cb02678583aa"><path
             class="st0"
             rx="0"
             ry="0"
             d="m 28.665,296.108 -1.463,1.267 c 1.951,2.243 4.193,4.29 6.533,6.143 l 1.17,-1.561 c -2.243,-1.657 -4.387,-3.607 -6.24,-5.849 z"
             id="path6870" /></g></g><g
         id="shape-471d1b56-7c24-80ba-8002-cb02678583ab"><g
           class="fills"
           id="fills-471d1b56-7c24-80ba-8002-cb02678583ab"><rect
             class="st0"
             rx="0"
             ry="0"
             x="147.81"
             y="23.205"
             width="8.7749996"
             height="1.95"
             id="rect6874" /></g></g><g
         id="shape-471d1b56-7c24-80ba-8002-cb026785c1c5"><g
           class="fills"
           id="fills-471d1b56-7c24-80ba-8002-cb026785c1c5"><rect
             class="st0"
             rx="0"
             ry="0"
             x="105.5925"
             y="310.14749"
             width="8.7749996"
             height="1.95"
             id="rect6878" /></g></g><g
         id="shape-471d1b56-7c24-80ba-8002-cb026786278d"><g
           class="fills"
           id="fills-471d1b56-7c24-80ba-8002-cb026786278d"><rect
             class="st0"
             rx="0"
             ry="0"
             x="93.209999"
             y="23.205"
             width="8.7749996"
             height="1.95"
             id="rect6882" /></g></g><g
         id="shape-471d1b56-7c24-80ba-8002-cb026786278e"><g
           class="fills"
           id="fills-471d1b56-7c24-80ba-8002-cb026786278e"><rect
             class="st0"
             rx="0"
             ry="0"
             x="91.942497"
             y="310.14749"
             width="8.7749996"
             height="1.95"
             id="rect6886" /></g></g><g
         id="shape-471d1b56-7c24-80ba-8002-cb026786495f"><g
           class="fills"
           id="fills-471d1b56-7c24-80ba-8002-cb026786495f"><rect
             class="st0"
             rx="0"
             ry="0"
             x="106.86"
             y="23.205"
             width="8.7749996"
             height="1.95"
             id="rect6890" /></g></g><g
         id="shape-471d1b56-7c24-80ba-8002-cb02678688b6"><g
           class="fills"
           id="fills-471d1b56-7c24-80ba-8002-cb02678688b6"><rect
             class="st0"
             rx="0"
             ry="0"
             x="119.2425"
             y="310.14749"
             width="8.7749996"
             height="1.95"
             id="rect6894" /></g></g><g
         id="shape-471d1b56-7c24-80ba-8002-cb026786df19"><g
           class="fills"
           id="fills-471d1b56-7c24-80ba-8002-cb026786df19"><path
             class="st0"
             rx="0"
             ry="0"
             d="m 59.182,25.155 h 1.853 v -1.95 h -1.853 c -2.339,0 -4.68,0.195 -7.02,0.585 l 0.293,1.95 c 2.145,-0.39 4.388,-0.585 6.727,-0.585 z"
             id="path6898" /></g></g><g
         id="shape-471d1b56-7c24-80ba-8002-cb02678714b5"><g
           class="fills"
           id="fills-471d1b56-7c24-80ba-8002-cb02678714b5"><rect
             class="st0"
             rx="0"
             ry="0"
             x="17.0625"
             y="121.68"
             width="1.95"
             height="8.7749996"
             id="rect6902" /></g></g><g
         id="shape-471d1b56-7c24-80ba-8002-cb02678714b6"><g
           class="fills"
           id="fills-471d1b56-7c24-80ba-8002-cb02678714b6"><rect
             class="st0"
             rx="0"
             ry="0"
             x="17.0625"
             y="108.03"
             width="1.95"
             height="8.7749996"
             id="rect6906" /></g></g><g
         id="shape-471d1b56-7c24-80ba-8002-cb026787681b"><g
           class="fills"
           id="fills-471d1b56-7c24-80ba-8002-cb026787681b"><rect
             class="st0"
             rx="0"
             ry="0"
             x="17.0625"
             y="94.379997"
             width="1.95"
             height="8.7749996"
             id="rect6910" /></g></g><g
         id="shape-471d1b56-7c24-80ba-8002-cb026787681c"><g
           class="fills"
           id="fills-471d1b56-7c24-80ba-8002-cb026787681c"><rect
             class="st0"
             rx="0"
             ry="0"
             x="17.0625"
             y="135.33"
             width="1.95"
             height="8.7749996"
             id="rect6914" /></g></g><g
         id="shape-471d1b56-7c24-80ba-8002-cb026787b81e"><g
           class="fills"
           id="fills-471d1b56-7c24-80ba-8002-cb026787b81e"><rect
             class="st0"
             rx="0"
             ry="0"
             x="17.0625"
             y="148.98"
             width="1.95"
             height="8.7749996"
             id="rect6918" /></g></g><g
         id="shape-471d1b56-7c24-80ba-8002-cb026787f27a"><g
           class="fills"
           id="fills-471d1b56-7c24-80ba-8002-cb026787f27a"><path
             class="st0"
             rx="0"
             ry="0"
             d="m 20.475,48.653 1.755,0.779 c 1.17,-2.632 2.535,-5.167 4.192,-7.409 l -1.56,-1.17 c -1.755,2.437 -3.217,5.07 -4.387,7.8 z"
             id="path6922" /></g></g><g
         id="shape-471d1b56-7c24-80ba-8002-cb0267880981"><g
           class="fills"
           id="fills-471d1b56-7c24-80ba-8002-cb0267880981"><rect
             class="st0"
             rx="0"
             ry="0"
             x="17.0625"
             y="162.63"
             width="1.95"
             height="8.7749996"
             id="rect6926" /></g></g><g
         id="shape-471d1b56-7c24-80ba-8002-cb0267886b48"><g
           class="fills"
           id="fills-471d1b56-7c24-80ba-8002-cb0267886b48"><path
             class="st0"
             rx="0"
             ry="0"
             d="m 20.67,53.918 -1.853,-0.586 c -0.877,2.828 -1.365,5.85 -1.56,8.776 l 1.95,0.097 c 0.098,-2.73 0.683,-5.557 1.463,-8.287 z"
             id="path6930" /></g></g><g
         id="shape-471d1b56-7c24-80ba-8002-cb026788a945"><g
           class="fills"
           id="fills-471d1b56-7c24-80ba-8002-cb026788a945"><path
             class="st0"
             rx="0"
             ry="0"
             d="m 332.962,56.355 c -0.585,-2.925 -1.56,-5.752 -2.827,-8.483 l -1.755,0.781 c 1.17,2.632 2.048,5.362 2.73,8.092 z"
             id="path6934" /></g></g><g
         id="shape-471d1b56-7c24-80ba-8002-cb026788a946"><g
           class="fills"
           id="fills-471d1b56-7c24-80ba-8002-cb026788a946"><rect
             class="st0"
             rx="0"
             ry="0"
             x="17.0625"
             y="67.080002"
             width="1.95"
             height="8.7749996"
             id="rect6938" /></g></g><g
         id="shape-471d1b56-7c24-80ba-8002-cb026788ccd0"><g
           class="fills"
           id="fills-471d1b56-7c24-80ba-8002-cb026788ccd0"><rect
             class="st0"
             rx="0"
             ry="0"
             x="17.0625"
             y="80.730003"
             width="1.95"
             height="8.7749996"
             id="rect6942" /></g></g><g
         id="shape-471d1b56-7c24-80ba-8002-cb026789172a"><g
           class="fills"
           id="fills-471d1b56-7c24-80ba-8002-cb026789172a"><rect
             class="st0"
             rx="0"
             ry="0"
             x="17.0625"
             y="244.53"
             width="1.95"
             height="8.7749996"
             id="rect6946" /></g></g><g
         id="shape-471d1b56-7c24-80ba-8002-cb026789172b"><g
           class="fills"
           id="fills-471d1b56-7c24-80ba-8002-cb026789172b"><rect
             class="st0"
             rx="0"
             ry="0"
             x="17.0625"
             y="176.28"
             width="1.95"
             height="8.7749996"
             id="rect6950" /></g></g><g
         id="shape-471d1b56-7c24-80ba-8002-cb0267896da7"><g
           class="fills"
           id="fills-471d1b56-7c24-80ba-8002-cb0267896da7"><path
             class="st0"
             rx="0"
             ry="0"
             d="m 19.012,271.83 -1.949,0.098 c 0.097,3.022 0.584,5.947 1.365,8.872 l 1.852,-0.487 c -0.683,-2.828 -1.073,-5.656 -1.268,-8.483 z"
             id="path6954" /></g></g><g
         id="shape-471d1b56-7c24-80ba-8002-cb026789a729"><g
           class="fills"
           id="fills-471d1b56-7c24-80ba-8002-cb026789a729"><path
             class="st0"
             rx="0"
             ry="0"
             d="m 19.987,285.48 c 1.073,2.73 2.535,5.46 4.193,7.898 l 1.657,-1.073 c -1.559,-2.34 -2.924,-4.875 -3.997,-7.605 z"
             id="path6958" /></g></g><g
         id="shape-471d1b56-7c24-80ba-8002-cb026789db5c"><g
           class="fills"
           id="fills-471d1b56-7c24-80ba-8002-cb026789db5c"><rect
             class="st0"
             rx="0"
             ry="0"
             x="17.0625"
             y="258.17999"
             width="1.95"
             height="8.7749996"
             id="rect6962" /></g></g><g
         id="shape-471d1b56-7c24-80ba-8002-cb026789db5d"><g
           class="fills"
           id="fills-471d1b56-7c24-80ba-8002-cb026789db5d"><rect
             class="st0"
             rx="0"
             ry="0"
             x="17.0625"
             y="203.58"
             width="1.95"
             height="8.7749996"
             id="rect6966" /></g></g><g
         id="shape-471d1b56-7c24-80ba-8002-cb02678a3eb0"><g
           class="fills"
           id="fills-471d1b56-7c24-80ba-8002-cb02678a3eb0"><rect
             class="st0"
             rx="0"
             ry="0"
             x="17.0625"
             y="189.92999"
             width="1.95"
             height="8.7749996"
             id="rect6970" /></g></g><g
         id="shape-471d1b56-7c24-80ba-8002-cb02678a50e9"><g
           class="fills"
           id="fills-471d1b56-7c24-80ba-8002-cb02678a50e9"><rect
             class="st0"
             rx="0"
             ry="0"
             x="17.0625"
             y="230.88"
             width="1.95"
             height="8.7749996"
             id="rect6974" /></g></g><g
         id="shape-471d1b56-7c24-80ba-8002-cb02678a50ea"><g
           class="fills"
           id="fills-471d1b56-7c24-80ba-8002-cb02678a50ea"><rect
             class="st0"
             rx="0"
             ry="0"
             x="17.0625"
             y="217.23"
             width="1.95"
             height="8.7749996"
             id="rect6978" /></g></g><g
         id="shape-471d1b56-7c24-80ba-8002-cb02678a9d1d"><g
           class="fills"
           id="fills-471d1b56-7c24-80ba-8002-cb02678a9d1d"><rect
             class="st0"
             rx="0"
             ry="0"
             x="255.74249"
             y="310.14749"
             width="8.7749996"
             height="1.95"
             id="rect6982" /></g></g><g
         id="shape-471d1b56-7c24-80ba-8002-cb02678ae352"><g
           class="fills"
           id="fills-471d1b56-7c24-80ba-8002-cb02678ae352"><rect
             class="st0"
             rx="0"
             ry="0"
             x="331.98749"
             y="238.875"
             width="1.95"
             height="8.7749996"
             id="rect6986" /></g></g><g
         id="shape-471d1b56-7c24-80ba-8002-cb02678ae353"><g
           class="fills"
           id="fills-471d1b56-7c24-80ba-8002-cb02678ae353"><rect
             class="st0"
             rx="0"
             ry="0"
             x="331.98749"
             y="252.52499"
             width="1.95"
             height="8.7749996"
             id="rect6990" /></g></g><g
         id="shape-471d1b56-7c24-80ba-8002-cb02678b0269"><g
           class="fills"
           id="fills-471d1b56-7c24-80ba-8002-cb02678b0269"><rect
             class="st0"
             rx="0"
             ry="0"
             x="331.98749"
             y="184.27499"
             width="1.95"
             height="8.7749996"
             id="rect6994" /></g></g><g
         id="shape-471d1b56-7c24-80ba-8002-cb02678b72a7"><g
           class="fills"
           id="fills-471d1b56-7c24-80ba-8002-cb02678b72a7"><rect
             class="st0"
             rx="0"
             ry="0"
             x="331.98749"
             y="211.575"
             width="1.95"
             height="8.7749996"
             id="rect6998" /></g></g><g
         id="shape-471d1b56-7c24-80ba-8002-cb02678b72a8"><g
           class="fills"
           id="fills-471d1b56-7c24-80ba-8002-cb02678b72a8"><rect
             class="st0"
             rx="0"
             ry="0"
             x="331.98749"
             y="197.925"
             width="1.95"
             height="8.7749996"
             id="rect7002" /></g></g><g
         id="shape-471d1b56-7c24-80ba-8002-cb02678ba98c"><g
           class="fills"
           id="fills-471d1b56-7c24-80ba-8002-cb02678ba98c"><rect
             class="st0"
             rx="0"
             ry="0"
             x="331.98749"
             y="225.22501"
             width="1.95"
             height="8.7749996"
             id="rect7006" /></g></g><g
         id="shape-471d1b56-7c24-80ba-8002-cb02678bf6a9"><g
           class="fills"
           id="fills-471d1b56-7c24-80ba-8002-cb02678bf6a9"><path
             class="st0"
             rx="0"
             ry="0"
             d="m 320.287,298.35 1.365,1.365 c 2.145,-2.145 3.998,-4.485 5.656,-7.02 l -1.658,-1.073 c -1.56,2.438 -3.315,4.681 -5.363,6.728 z"
             id="path7010" /></g></g><g
         id="shape-471d1b56-7c24-80ba-8002-cb02678c1203"><g
           class="fills"
           id="fills-471d1b56-7c24-80ba-8002-cb02678c1203"><path
             class="st0"
             rx="0"
             ry="0"
             d="m 331.987,269.978 c 0,1.56 -0.097,3.217 -0.292,4.777 l 1.95,0.195 c 0.195,-1.657 0.293,-3.315 0.293,-5.07 v -3.705 h -1.951 z"
             id="path7014" /></g></g><g
         id="shape-471d1b56-7c24-80ba-8002-cb02678c6785"><g
           class="fills"
           id="fills-471d1b56-7c24-80ba-8002-cb02678c6785"><path
             class="st0"
             rx="0"
             ry="0"
             d="m 320.97,37.733 c 1.95,2.047 3.705,4.387 5.167,6.824 l 1.658,-0.975 c -1.56,-2.534 -3.413,-4.972 -5.46,-7.117 z"
             id="path7018" /></g></g><g
         id="shape-471d1b56-7c24-80ba-8002-cb02678c8079"><g
           class="fills"
           id="fills-471d1b56-7c24-80ba-8002-cb02678c8079"><path
             class="st0"
             rx="0"
             ry="0"
             d="m 327.99,287.528 1.755,0.877 c 1.267,-2.73 2.34,-5.557 3.022,-8.482 l -1.852,-0.488 c -0.683,2.828 -1.658,5.558 -2.925,8.093 z"
             id="path7022" /></g></g><g
         id="shape-471d1b56-7c24-80ba-8002-cb02678cfff6"><g
           class="fills"
           id="fills-471d1b56-7c24-80ba-8002-cb02678cfff6"><rect
             class="st0"
             rx="0"
             ry="0"
             x="161.46001"
             y="23.205"
             width="8.7749996"
             height="1.95"
             id="rect7026" /></g></g><g
         id="shape-471d1b56-7c24-80ba-8002-cb02678cfff7"><g
           class="fills"
           id="fills-471d1b56-7c24-80ba-8002-cb02678cfff7"><rect
             class="st0"
             rx="0"
             ry="0"
             x="331.98749"
             y="75.074997"
             width="1.95"
             height="8.7749996"
             id="rect7030" /></g></g><g
         id="shape-471d1b56-7c24-80ba-8002-cb02678d01e4"><g
           class="fills"
           id="fills-471d1b56-7c24-80ba-8002-cb02678d01e4"><rect
             class="st0"
             rx="0"
             ry="0"
             x="331.98749"
             y="102.375"
             width="1.95"
             height="8.7749996"
             id="rect7034" /></g></g><g
         id="shape-471d1b56-7c24-80ba-8002-cb02678d40f3"><g
           class="fills"
           id="fills-471d1b56-7c24-80ba-8002-cb02678d40f3"><rect
             class="st0"
             rx="0"
             ry="0"
             x="331.98749"
             y="88.724998"
             width="1.95"
             height="8.7749996"
             id="rect7038" /></g></g><g
         id="shape-471d1b56-7c24-80ba-8002-cb02678dbe46"><g
           class="fills"
           id="fills-471d1b56-7c24-80ba-8002-cb02678dbe46"><path
             class="st0"
             rx="0"
             ry="0"
             d="m 333.743,61.328 -1.95,0.195 c 0.097,1.267 0.194,2.534 0.194,3.802 V 70.2 h 1.951 v -4.875 c 0,-1.365 -0.098,-2.73 -0.195,-3.997 z"
             id="path7042" /></g></g><g
         id="shape-471d1b56-7c24-80ba-8002-cb02678dbe47"><g
           class="fills"
           id="fills-471d1b56-7c24-80ba-8002-cb02678dbe47"><rect
             class="st0"
             rx="0"
             ry="0"
             x="331.98749"
             y="143.325"
             width="1.95"
             height="8.7749996"
             id="rect7046" /></g></g><g
         id="shape-471d1b56-7c24-80ba-8002-cb02678ddb6d"><g
           class="fills"
           id="fills-471d1b56-7c24-80ba-8002-cb02678ddb6d"><rect
             class="st0"
             rx="0"
             ry="0"
             x="331.98749"
             y="170.625"
             width="1.95"
             height="8.7749996"
             id="rect7050" /></g></g><g
         id="shape-471d1b56-7c24-80ba-8002-cb02678e2e3c"><g
           class="fills"
           id="fills-471d1b56-7c24-80ba-8002-cb02678e2e3c"><path
             class="st0"
             rx="0"
             ry="0"
             d="m 310.44,29.738 c 2.535,1.365 4.875,2.925 7.118,4.777 l 1.267,-1.462 c -2.34,-1.95 -4.777,-3.608 -7.508,-4.973 z"
             id="path7054" /></g></g><g
         id="shape-471d1b56-7c24-80ba-8002-cb02678e66e7"><g
           class="fills"
           id="fills-471d1b56-7c24-80ba-8002-cb02678e66e7"><rect
             class="st0"
             rx="0"
             ry="0"
             x="331.98749"
             y="156.97501"
             width="1.95"
             height="8.7749996"
             id="rect7058" /></g></g><g
         id="shape-471d1b56-7c24-80ba-8002-cb02678e66e8"><g
           class="fills"
           id="fills-471d1b56-7c24-80ba-8002-cb02678e66e8"><rect
             class="st0"
             rx="0"
             ry="0"
             x="331.98749"
             y="129.675"
             width="1.95"
             height="8.7749996"
             id="rect7062" /></g></g><g
         id="shape-471d1b56-7c24-80ba-8002-cb02678eb735"><g
           class="fills"
           id="fills-471d1b56-7c24-80ba-8002-cb02678eb735"><rect
             class="st0"
             rx="0"
             ry="0"
             x="331.98749"
             y="116.025"
             width="1.95"
             height="8.7749996"
             id="rect7066" /></g></g><g
         id="shape-471d1b56-7c24-80ba-8002-cb02678eb736"><g
           class="fills"
           id="fills-471d1b56-7c24-80ba-8002-cb02678eb736"><rect
             class="st0"
             rx="0"
             ry="0"
             x="214.7925"
             y="310.14749"
             width="8.7749996"
             height="1.95"
             id="rect7070" /></g></g><g
         id="shape-471d1b56-7c24-80ba-8002-cb02678ec2f0"><g
           class="fills"
           id="fills-471d1b56-7c24-80ba-8002-cb02678ec2f0"><rect
             class="st0"
             rx="0"
             ry="0"
             x="202.41"
             y="23.205"
             width="8.7749996"
             height="1.95"
             id="rect7074" /></g></g><g
         id="shape-471d1b56-7c24-80ba-8002-cb02678f3e12"><g
           class="fills"
           id="fills-471d1b56-7c24-80ba-8002-cb02678f3e12"><rect
             class="st0"
             rx="0"
             ry="0"
             x="201.1425"
             y="310.14749"
             width="8.7749996"
             height="1.95"
             id="rect7078" /></g></g><g
         id="shape-471d1b56-7c24-80ba-8002-cb02678f3e13"><g
           class="fills"
           id="fills-471d1b56-7c24-80ba-8002-cb02678f3e13"><rect
             class="st0"
             rx="0"
             ry="0"
             x="228.4425"
             y="310.14749"
             width="8.7749996"
             height="1.95"
             id="rect7082" /></g></g><g
         id="shape-471d1b56-7c24-80ba-8002-cb02678f7c9b"><g
           class="fills"
           id="fills-471d1b56-7c24-80ba-8002-cb02678f7c9b"><rect
             class="st0"
             rx="0"
             ry="0"
             x="229.71001"
             y="23.205"
             width="8.7749996"
             height="1.95"
             id="rect7086" /></g></g><g
         id="shape-471d1b56-7c24-80ba-8002-cb02678f7c9c"><g
           class="fills"
           id="fills-471d1b56-7c24-80ba-8002-cb02678f7c9c"><rect
             class="st0"
             rx="0"
             ry="0"
             x="216.06"
             y="23.205"
             width="8.7749996"
             height="1.95"
             id="rect7090" /></g></g><g
         id="shape-471d1b56-7c24-80ba-8002-cb02678fb4f8"><g
           class="fills"
           id="fills-471d1b56-7c24-80ba-8002-cb02678fb4f8"><rect
             class="st0"
             rx="0"
             ry="0"
             x="173.8425"
             y="310.14749"
             width="8.7749996"
             height="1.95"
             id="rect7094" /></g></g><g
         id="shape-471d1b56-7c24-80ba-8002-cb02678ffd5d"><g
           class="fills"
           id="fills-471d1b56-7c24-80ba-8002-cb02678ffd5d"><rect
             class="st0"
             rx="0"
             ry="0"
             x="188.75999"
             y="23.205"
             width="8.7749996"
             height="1.95"
             id="rect7098" /></g></g><g
         id="shape-471d1b56-7c24-80ba-8002-cb02678ffd5e"><g
           class="fills"
           id="fills-471d1b56-7c24-80ba-8002-cb02678ffd5e"><rect
             class="st0"
             rx="0"
             ry="0"
             x="175.11"
             y="23.205"
             width="8.7749996"
             height="1.95"
             id="rect7102" /></g></g><g
         id="shape-471d1b56-7c24-80ba-8002-cb0267901b99"><g
           class="fills"
           id="fills-471d1b56-7c24-80ba-8002-cb0267901b99"><rect
             class="st0"
             rx="0"
             ry="0"
             x="187.49249"
             y="310.14749"
             width="8.7749996"
             height="1.95"
             id="rect7106" /></g></g><g
         id="shape-471d1b56-7c24-80ba-8002-cb0267907566"><g
           class="fills"
           id="fills-471d1b56-7c24-80ba-8002-cb0267907566"><path
             class="st0"
             rx="0"
             ry="0"
             d="m 296.79,309.855 0.195,1.95 c 2.925,-0.39 5.948,-1.072 8.775,-2.047 l -0.683,-1.853 c -2.632,0.975 -5.459,1.56 -8.287,1.95 z"
             id="path7110" /></g></g><g
         id="shape-471d1b56-7c24-80ba-8002-cb0267907567"><g
           class="fills"
           id="fills-471d1b56-7c24-80ba-8002-cb0267907567"><rect
             class="st0"
             rx="0"
             ry="0"
             x="242.0925"
             y="310.14749"
             width="8.7749996"
             height="1.95"
             id="rect7114" /></g></g><g
         id="shape-471d1b56-7c24-80ba-8002-cb026790b4b1"><g
           class="fills"
           id="fills-471d1b56-7c24-80ba-8002-cb026790b4b1"><path
             class="st0"
             rx="0"
             ry="0"
             d="m 309.465,306.053 0.877,1.754 c 2.73,-1.267 5.265,-2.924 7.605,-4.777 l -1.17,-1.56 c -2.339,1.853 -4.777,3.315 -7.312,4.583 z"
             id="path7118" /></g></g><g
         id="shape-471d1b56-7c24-80ba-8002-cb026790f766"><g
           class="fills"
           id="fills-471d1b56-7c24-80ba-8002-cb026790f766"><path
             class="st0"
             rx="0"
             ry="0"
             d="m 293.085,25.155 0.098,-1.95 c -0.39,0 -0.78,0 -1.268,0 h -7.605 v 1.95 h 7.605 c 0.39,0 0.78,0 1.17,0 z"
             id="path7122" /></g></g><g
         id="shape-471d1b56-7c24-80ba-8002-cb026791324d"><g
           class="fills"
           id="fills-471d1b56-7c24-80ba-8002-cb026791324d"><path
             class="st0"
             rx="0"
             ry="0"
             d="m 306.735,25.935 c -2.827,-1.072 -5.752,-1.853 -8.677,-2.242 l -0.293,1.95 c 2.827,0.39 5.655,1.17 8.288,2.145 z"
             id="path7126" /></g></g><g
         id="shape-471d1b56-7c24-80ba-8002-cb02679148d6"><g
           class="fills"
           id="fills-471d1b56-7c24-80ba-8002-cb02679148d6"><rect
             class="st0"
             rx="0"
             ry="0"
             x="283.04251"
             y="310.14749"
             width="8.9700003"
             height="1.95"
             id="rect7130" /></g></g><g
         id="shape-471d1b56-7c24-80ba-8002-cb02679148d7"><g
           class="fills"
           id="fills-471d1b56-7c24-80ba-8002-cb02679148d7"><rect
             class="st0"
             rx="0"
             ry="0"
             x="257.01001"
             y="23.205"
             width="8.7749996"
             height="1.95"
             id="rect7134" /></g></g><g
         id="shape-471d1b56-7c24-80ba-8002-cb026791a46d"><g
           class="fills"
           id="fills-471d1b56-7c24-80ba-8002-cb026791a46d"><rect
             class="st0"
             rx="0"
             ry="0"
             x="270.66"
             y="23.205"
             width="8.7749996"
             height="1.95"
             id="rect7138" /></g></g><g
         id="shape-471d1b56-7c24-80ba-8002-cb026791a46e"><g
           class="fills"
           id="fills-471d1b56-7c24-80ba-8002-cb026791a46e"><rect
             class="st0"
             rx="0"
             ry="0"
             x="243.36"
             y="23.205"
             width="8.7749996"
             height="1.95"
             id="rect7142" /></g></g><g
         id="shape-471d1b56-7c24-80ba-8002-cb026791e3c4"><g
           class="fills"
           id="fills-471d1b56-7c24-80ba-8002-cb026791e3c4"><rect
             class="st0"
             rx="0"
             ry="0"
             x="269.39249"
             y="310.14749"
             width="8.7749996"
             height="1.95"
             id="rect7146" /></g></g><g
         id="shape-471d1b56-7c24-80ba-8002-cb0267922a8b"><g
           class="fills"
           id="fills-471d1b56-7c24-80ba-8002-cb0267922a8b"><path
             class="st0"
             rx="0"
             ry="0"
             d="m 148.102,79.268 c 0,0 0,0 0,0 z m 0,0 c 0.78,0 1.463,-0.586 1.463,-1.463 v 0 c 0,-0.39 0,-0.78 0.097,-1.17 0,-0.39 0.098,-0.78 0.195,-1.17 0.098,-0.78 -0.39,-1.56 -1.169,-1.658 -0.391,-0.097 -0.781,0 -1.073,0.196 -0.293,0.195 -0.488,0.585 -0.585,0.975 -0.097,0.487 -0.097,0.975 -0.195,1.462 0,0.488 -0.097,0.975 -0.097,1.463 0,0.682 0.584,1.267 1.364,1.365 z"
             id="path7150" /></g></g><g
         id="shape-471d1b56-7c24-80ba-8002-cb02679436e0"><g
           class="fills"
           id="fills-471d1b56-7c24-80ba-8002-cb02679436e0"><path
             class="st0"
             rx="0"
             ry="0"
             d="m 137.085,74.1 c -1.073,1.463 -1.365,3.607 -0.78,7.215 0.097,0.78 0.877,1.267 1.56,1.17 0.39,0 0.78,-0.195 0.975,-0.585 0.195,-0.292 0.39,-0.682 0.292,-1.072 -0.39,-2.73 -0.292,-4.193 0.293,-5.07 0.487,-0.683 1.462,-0.975 3.217,-1.073 0,0.195 -0.097,0.488 -0.097,0.683 -0.39,3.51 0.195,7.117 1.657,10.432 1.853,4.095 4.973,7.703 9.361,10.725 v 6.728 c 0,2.535 2.047,4.582 4.582,4.582 1.17,0 2.242,-0.487 3.12,-1.267 0.78,-0.878 1.365,-1.95 1.56,-3.12 l 0.487,-2.535 c 1.365,0.39 2.633,0.682 3.998,0.877 3.705,0.585 7.41,0.585 11.115,0.098 1.267,-0.195 2.437,-0.391 3.607,-0.683 l 0.585,2.34 c 0.293,1.17 0.78,2.145 1.56,3.023 0.78,0.78 1.853,1.267 2.925,1.267 0,0 0,0 0,0 2.535,0 4.583,-2.047 4.583,-4.582 v -6.24 c 2.242,-1.463 4.29,-3.12 6.045,-5.07 1.657,-1.853 2.925,-3.9 3.997,-6.143 h 3.413 c 2.437,0 4.485,-2.047 4.485,-4.485 V 76.05 c 0,-2.437 -2.048,-4.485 -4.485,-4.485 h -2.34 c -0.39,-1.56 -1.073,-3.022 -1.853,-4.485 -0.877,-1.56 -1.852,-3.12 -3.022,-4.387 1.072,-3.9 1.072,-8.093 -0.098,-11.993 -0.195,-0.682 -0.975,-1.17 -1.657,-0.975 -1.95,0.39 -3.9,1.073 -5.655,2.048 -1.462,0.78 -2.925,1.755 -4.193,2.925 -0.487,-0.195 -1.072,-0.391 -1.56,-0.585 -0.39,-0.098 -0.78,-0.293 -1.169,-0.39 0.292,-2.145 0.097,-4.291 -0.586,-6.24 -2.339,-6.923 -9.944,-10.725 -16.964,-8.288 -6.825,2.34 -10.531,9.653 -8.483,16.478 -4.68,2.242 -8.678,5.752 -11.505,10.14 -1.268,1.95 -2.242,3.997 -2.828,6.24 -3.12,-0.098 -5.07,0.585 -6.142,2.047 z m 26.617,-30.518 c 4.388,-3.704 11.018,-3.119 14.723,1.268 2.827,3.315 3.217,8.093 1.072,11.895 -0.682,-0.097 -1.365,-0.195 -1.95,-0.292 -1.267,-0.195 -2.632,-0.293 -3.9,-0.293 -0.195,0 -4.094,0 -6.045,0.488 -0.194,0 -0.39,0.097 -0.585,0.097 -0.194,0 -0.292,0.098 -0.487,0.098 -1.463,0.292 -2.925,0.682 -4.29,1.267 -3.51,-4.485 -2.925,-10.822 1.462,-14.528 z m -18.329,32.176 c 0.389,-3.023 1.462,-6.045 3.119,-8.58 2.535,-3.9 6.045,-7.02 10.238,-8.971 0.292,0.488 0.487,0.878 0.78,1.268 -0.195,0.39 -0.195,0.878 0,1.268 0.195,0.39 0.488,0.585 0.78,0.78 0.39,0.097 0.78,0.097 1.073,0 1.755,-0.78 3.704,-1.365 5.557,-1.755 1.95,-0.39 3.997,-0.586 5.947,-0.586 1.365,0 2.73,0.098 4.095,0.293 1.268,0.195 2.633,0.488 3.9,0.78 0.78,0.195 1.56,-0.195 1.755,-0.975 0.195,-0.585 0,-1.17 -0.39,-1.56 0.195,-0.39 0.39,-0.78 0.585,-1.267 0.293,0.097 0.683,0.195 0.975,0.292 0.78,0.293 1.463,0.585 2.243,0.877 0.585,0.196 1.267,0.098 1.657,-0.292 2.145,-2.047 4.778,-3.607 7.703,-4.387 0.292,1.364 0.487,2.73 0.487,4.192 0,1.853 -0.292,3.803 -0.877,5.558 -0.195,0.487 0,1.072 0.39,1.462 1.267,1.365 2.34,2.828 3.12,4.388 0.78,1.462 1.462,3.12 1.755,4.777 0.097,0.683 0.682,1.268 1.462,1.268 h 3.51 c 0.878,0 1.56,0.682 1.56,1.56 v 5.362 c 0,0.878 -0.682,1.56 -1.56,1.56 h -4.387 c -0.585,0 -1.17,0.39 -1.365,0.975 -0.878,2.243 -2.145,4.29 -3.803,6.143 -1.755,1.95 -3.802,3.607 -5.947,4.875 -0.488,0.292 -0.78,0.78 -0.78,1.267 v 7.02 c 0,0.975 -0.78,1.755 -1.755,1.755 -0.293,0 -0.683,-0.097 -0.878,-0.39 -0.39,-0.487 -0.682,-1.072 -0.877,-1.658 l -0.878,-3.802 v -0.097 c -0.097,-0.39 -0.39,-0.683 -0.682,-0.878 -0.195,-0.098 -0.488,-0.195 -0.683,-0.195 -0.097,0 -0.292,0 -0.39,0.097 -1.56,0.488 -3.12,0.781 -4.68,0.976 -3.412,0.487 -6.825,0.487 -10.237,-0.098 -1.755,-0.292 -3.51,-0.682 -5.168,-1.267 -0.097,0 -0.195,-0.098 -0.292,-0.098 -0.78,-0.097 -1.56,0.487 -1.56,1.268 l -0.78,4.094 c -0.098,0.586 -0.39,1.073 -0.78,1.561 -0.293,0.292 -0.585,0.39 -0.975,0.39 -0.975,0 -1.755,-0.78 -1.755,-1.755 v -7.508 c 0,-0.487 -0.293,-0.975 -0.683,-1.267 -4.192,-2.731 -7.215,-6.046 -8.872,-9.848 -1.56,-2.73 -1.95,-5.752 -1.657,-8.872 z"
             id="path7154" /></g></g><g
         id="shape-471d1b56-7c24-80ba-8002-cb0267944111"><g
           class="fills"
           id="fills-471d1b56-7c24-80ba-8002-cb0267944111"><path
             class="st0"
             rx="0"
             ry="0"
             d="M 149.272,79.755 C 148.98,79.56 148.59,79.463 148.2,79.56 c -0.39,0.098 -0.683,0.293 -0.878,0.683 -0.195,0.292 -0.292,0.682 -0.195,1.072 0.39,1.463 0.878,2.828 1.561,4.095 0.78,1.365 1.657,2.633 2.632,3.705 0.293,0.293 0.682,0.488 1.072,0.488 0.293,0 0.683,-0.098 0.975,-0.39 0.585,-0.488 0.683,-1.463 0.098,-2.048 -0.878,-0.975 -1.658,-2.047 -2.243,-3.12 -0.585,-1.072 -0.975,-2.145 -1.267,-3.315 -0.098,-0.487 -0.39,-0.78 -0.683,-0.975 z"
             id="path7158" /></g></g><g
         id="shape-471d1b56-7c24-80ba-8002-cb0267952f09"><g
           class="fills"
           id="fills-471d1b56-7c24-80ba-8002-cb0267952f09"><path
             class="st0"
             rx="0"
             ry="0"
             d="m 189.15,71.175 c 0,0 0.097,0 0,0 z m 0,0 c 0.487,0 0.78,-0.097 1.072,-0.39 l 0.098,-0.097 c 0.487,-0.39 1.072,-0.585 1.657,-0.585 0.78,0 1.56,0.292 2.145,0.78 0.293,0.195 0.683,0.292 1.073,0.195 0.39,-0.098 0.682,-0.293 0.975,-0.585 0.487,-0.683 0.292,-1.561 -0.39,-2.048 -1.073,-0.78 -2.438,-1.267 -3.803,-1.267 v 0 c -1.365,0 -2.632,0.487 -3.705,1.365 -0.292,0.292 -0.487,0.585 -0.487,0.975 0,0.39 0.097,0.78 0.292,1.072 0.293,0.39 0.683,0.585 1.073,0.585 z"
             id="path7162" /></g></g><g
         id="shape-471d1b56-7c24-80ba-8002-cb0267952f0a"><g
           class="fills"
           id="fills-471d1b56-7c24-80ba-8002-cb0267952f0a"><path
             class="st0"
             rx="0"
             ry="0"
             d="m 208.942,36.563 -3.315,5.167 c -0.487,0.78 -0.292,1.852 0.488,2.34 0.292,0.195 0.585,0.293 0.878,0.293 0.584,0 1.072,-0.293 1.462,-0.781 l 3.315,-5.167 c 0.487,-0.78 0.293,-1.852 -0.488,-2.34 -0.877,-0.487 -1.852,-0.292 -2.34,0.488 z"
             id="path7166" /></g></g><g
         id="shape-471d1b56-7c24-80ba-8002-cb0267959387"><g
           class="fills"
           id="fills-471d1b56-7c24-80ba-8002-cb0267959387"><path
             class="st0"
             rx="0"
             ry="0"
             d="m 210.99,47.97 c 0.292,0.683 0.878,1.073 1.56,1.073 0.195,0 0.39,0 0.585,-0.098 1.17,-0.39 2.34,-0.682 3.51,-0.975 0.975,-0.292 1.95,-0.487 2.827,-0.78 0.878,-0.292 1.365,-1.267 1.073,-2.145 -0.293,-0.877 -1.268,-1.365 -2.145,-1.072 -0.78,0.292 -1.657,0.487 -2.633,0.682 -1.267,0.293 -2.534,0.683 -3.802,1.073 -0.878,0.39 -1.365,1.365 -0.975,2.242 z"
             id="path7170" /></g></g><g
         id="shape-471d1b56-7c24-80ba-8002-cb026795fc6e"><g
           class="fills"
           id="fills-471d1b56-7c24-80ba-8002-cb026795fc6e"><path
             class="st0"
             rx="0"
             ry="0"
             d="m 219.18,59.865 c 0.195,0.098 0.488,0.195 0.78,0.195 0.585,0 1.17,-0.292 1.463,-0.975 0.39,-0.878 0.097,-1.852 -0.781,-2.242 l -5.947,-3.023 c -0.878,-0.39 -1.852,-0.097 -2.243,0.78 -0.389,0.878 -0.097,1.853 0.781,2.243 z"
             id="path7174" /></g></g><g
         id="shape-471d1b56-7c24-80ba-8002-cb026796198a"><g
           class="fills"
           id="fills-471d1b56-7c24-80ba-8002-cb026796198a"><path
             class="st0"
             rx="0"
             ry="0"
             d="m 143.13,109.785 -1.267,6.045 c -0.195,0.877 0.389,1.755 1.267,1.95 0.097,0 0.195,0 0.39,0 0.78,0 1.463,-0.585 1.658,-1.365 l 1.267,-6.045 c 0.195,-0.877 -0.39,-1.755 -1.267,-1.95 -0.976,-0.097 -1.853,0.488 -2.048,1.365 z"
             id="path7178" /></g></g><g
         id="shape-471d1b56-7c24-80ba-8002-cb0267969636"><g
           class="fills"
           id="fills-471d1b56-7c24-80ba-8002-cb0267969636"><path
             class="st0"
             rx="0"
             ry="0"
             d="m 136.793,106.47 c -0.878,0.78 -1.95,1.462 -2.925,2.145 -0.878,0.585 -1.658,1.17 -2.34,1.755 -0.683,0.585 -0.78,1.658 -0.195,2.34 0.292,0.39 0.78,0.585 1.267,0.585 0.39,0 0.78,-0.097 1.073,-0.39 0.584,-0.487 1.365,-1.073 2.144,-1.56 1.073,-0.78 2.145,-1.462 3.121,-2.34 0.682,-0.585 0.78,-1.657 0.194,-2.34 -0.585,-0.682 -1.657,-0.78 -2.339,-0.195 z"
             id="path7182" /></g></g><g
         id="shape-471d1b56-7c24-80ba-8002-cb026796e6f9"><g
           class="fills"
           id="fills-471d1b56-7c24-80ba-8002-cb026796e6f9"><path
             class="st0"
             rx="0"
             ry="0"
             d="m 125.385,100.035 c -0.098,0.975 0.585,1.755 1.462,1.853 l 6.63,0.682 c 0.098,0 0.098,0 0.195,0 0.878,0 1.56,-0.682 1.658,-1.56 0.097,-0.877 -0.585,-1.755 -1.463,-1.852 l -6.63,-0.683 c -0.975,-0.097 -1.755,0.585 -1.852,1.56 z"
             id="path7186" /></g></g><g
         id="shape-471d1b56-7c24-80ba-8002-cb0267975d0e"><g
           class="fills"
           id="fills-471d1b56-7c24-80ba-8002-cb0267975d0e"><path
             class="st0"
             rx="0"
             ry="0"
             d="m 165.067,49.823 c -0.487,0 -0.877,0.39 -0.877,0.877 0,0.488 0.39,0.878 0.877,0.878 h 1.171 c 0.487,1.267 1.462,2.34 2.73,3.022 0.877,0.488 1.755,0.683 2.632,0.683 0.585,0 1.17,-0.098 1.657,-0.293 0.293,-0.097 0.683,-0.195 0.975,-0.39 0.195,-0.097 0.391,-0.293 0.488,-0.585 0.097,-0.292 0.097,-0.487 -0.097,-0.78 -0.293,-0.488 -0.878,-0.682 -1.366,-0.39 -1.657,0.878 -3.802,0.293 -4.777,-1.267 h 2.632 c 0.195,0 0.488,-0.098 0.585,-0.293 0.195,-0.195 0.293,-0.39 0.293,-0.585 0,-0.487 -0.39,-0.877 -0.878,-0.877 h -3.217 c 0,-0.195 0,-0.488 0,-0.683 h 3.217 c 0.195,0 0.488,-0.097 0.585,-0.292 0.195,-0.195 0.293,-0.391 0.293,-0.585 0,-0.488 -0.39,-0.878 -0.878,-0.878 h -2.632 c 0.975,-1.462 2.827,-2.047 4.485,-1.365 0.097,0 0.195,0.098 0.292,0.098 0.488,0.292 1.073,0.097 1.366,-0.39 0.097,-0.195 0.194,-0.488 0.097,-0.78 -0.097,-0.293 -0.293,-0.488 -0.488,-0.585 -2.827,-1.463 -6.24,-0.39 -7.702,2.437 -0.098,0.195 -0.195,0.39 -0.293,0.585 h -1.17 c -0.487,0 -0.877,0.39 -0.877,0.878 0,0.487 0.39,0.877 0.877,0.877 h 0.878 c 0,0.195 0,0.488 0,0.683 z"
             id="path7190" /></g></g><g
         id="shape-471d1b56-7c24-80ba-8002-cb026797d102"><g
           class="fills"
           id="fills-471d1b56-7c24-80ba-8002-cb026797d102"><path
             class="st0"
             rx="0"
             ry="0"
             d="m 269.977,215.963 v 12.48 h -3.607 c -0.682,0 -1.17,0.585 -1.17,1.17 0,0.682 0.585,1.169 1.17,1.169 h 27.592 c 0.683,0 1.17,-0.584 1.17,-1.169 0,-0.683 -0.585,-1.17 -1.17,-1.17 h -21.45 v -12.09 l 3.608,-3.608 8.873,8.873 c 0.487,0.487 1.267,0.487 1.657,0 0.39,-0.488 0.487,-1.268 0,-1.658 l -19.5,-19.5 c -0.488,-0.487 -1.268,-0.487 -1.657,0 0,0 0,0 0,0 -0.488,0.488 -0.488,1.268 0,1.658 l 8.872,8.872 -4.095,3.998 c -0.097,0.292 -0.293,0.585 -0.293,0.975 z"
             id="path7194" /></g></g><g
         id="shape-471d1b56-7c24-80ba-8002-cb0267986fa6"><g
           class="fills"
           id="fills-471d1b56-7c24-80ba-8002-cb0267986fa6"><path
             class="st0"
             rx="0"
             ry="0"
             d="m 235.657,215.475 c -0.097,0.098 -0.097,0.293 -0.097,0.488 v 12.48 h -3.608 c -0.682,0 -1.17,0.585 -1.17,1.17 0,0.682 0.586,1.169 1.17,1.169 h 27.593 c 0.682,0 1.17,-0.584 1.17,-1.169 0,-0.683 -0.585,-1.17 -1.17,-1.17 h -21.45 v -12.09 l 3.607,-3.608 8.873,8.873 c 0.488,0.487 1.268,0.487 1.755,0 0.487,-0.488 0.487,-1.268 0,-1.755 l -19.5,-19.5 c -0.487,-0.488 -1.267,-0.488 -1.755,0 -0.488,0.487 -0.488,1.267 0,1.755 l 8.872,8.872 -4.095,3.998 c 0,0.194 -0.097,0.292 -0.195,0.487 z"
             id="path7198" /></g></g><g
         id="shape-471d1b56-7c24-80ba-8002-cb026798ad8c"><g
           class="fills"
           id="fills-471d1b56-7c24-80ba-8002-cb026798ad8c"><path
             class="st0"
             rx="0"
             ry="0"
             d="m 196.365,229.613 c 0,0.682 0.585,1.169 1.17,1.169 h 27.592 c 0.683,0 1.17,-0.584 1.17,-1.169 0,-0.683 -0.585,-1.17 -1.17,-1.17 h -21.449 v -12.09 l 3.607,-3.608 8.872,8.873 c 0.195,0.195 0.488,0.39 0.878,0.39 0.292,0 0.585,-0.098 0.877,-0.39 0,0 0,0 0,0 0.488,-0.488 0.488,-1.268 0,-1.658 l -19.5,-19.5 c -0.487,-0.487 -1.267,-0.487 -1.755,0 -0.487,0.488 -0.487,1.268 0,1.755 l 8.873,8.873 -4.095,3.997 c -0.098,0.097 -0.195,0.293 -0.293,0.39 -0.097,0.098 -0.097,0.293 -0.097,0.488 v 12.577 h -3.607 v -0.097 c -0.586,0 -1.073,0.487 -1.073,1.17 z"
             id="path7202" /></g></g><g
         id="shape-471d1b56-7c24-80ba-8002-cb026799349e"><g
           class="fills"
           id="fills-471d1b56-7c24-80ba-8002-cb026799349e"><path
             class="st0"
             rx="0"
             ry="0"
             d="m 279.727,179.303 v 12.479 h -3.607 c -0.682,0 -1.17,0.586 -1.17,1.171 0,0.682 0.585,1.169 1.17,1.169 h 27.592 c 0.683,0 1.17,-0.584 1.17,-1.169 0,-0.683 -0.585,-1.171 -1.17,-1.171 h -21.45 v -12.089 l 3.608,-3.608 8.873,8.872 c 0.487,0.488 1.267,0.488 1.657,0 0.39,-0.487 0.487,-1.267 0,-1.657 l -19.5,-19.5 c -0.488,-0.487 -1.268,-0.487 -1.657,0 0,0 0,0 0,0 -0.488,0.488 -0.488,1.268 0,1.657 l 8.872,8.873 -4.095,3.998 c -0.097,0.292 -0.293,0.585 -0.293,0.975 z"
             id="path7206" /></g></g><g
         id="shape-471d1b56-7c24-80ba-8002-cb026799a234"><g
           class="fills"
           id="fills-471d1b56-7c24-80ba-8002-cb026799a234"><path
             class="st0"
             rx="0"
             ry="0"
             d="m 270.465,192.953 c 0,-0.683 -0.585,-1.171 -1.17,-1.171 h -21.45 v -12.089 l 3.607,-3.608 8.873,8.872 c 0.488,0.488 1.267,0.488 1.755,0 0.487,-0.487 0.487,-1.267 0,-1.754 l -19.5,-19.5 c -0.487,-0.488 -1.267,-0.488 -1.755,0 -0.488,0.487 -0.488,1.267 0,1.754 l 8.873,8.873 -3.998,4.095 c -0.098,0.098 -0.195,0.293 -0.293,0.39 -0.097,0.098 -0.097,0.293 -0.097,0.488 v 12.479 h -3.608 c -0.682,0 -1.17,0.586 -1.17,1.171 0,0.682 0.586,1.169 1.17,1.169 h 27.593 c 0.682,0.098 1.17,-0.487 1.17,-1.169 z"
             id="path7210" /></g></g><g
         id="shape-471d1b56-7c24-80ba-8002-cb026799f6a3"><g
           class="fills"
           id="fills-471d1b56-7c24-80ba-8002-cb026799f6a3"><path
             class="st0"
             rx="0"
             ry="0"
             d="m 206.115,192.953 c 0,0.682 0.585,1.169 1.17,1.169 h 27.592 c 0.683,0 1.17,-0.584 1.17,-1.169 0,-0.683 -0.585,-1.171 -1.17,-1.171 h -21.449 v -12.089 l 3.607,-3.608 8.872,8.872 c 0.195,0.196 0.488,0.391 0.878,0.391 0.292,0 0.585,-0.098 0.877,-0.391 0,0 0,0 0,0 0.488,-0.487 0.488,-1.267 0,-1.657 l -19.5,-19.5 c -0.487,-0.487 -1.267,-0.487 -1.755,0 -0.487,0.488 -0.487,1.268 0,1.755 l 8.873,8.873 -4.095,3.997 c -0.098,0.098 -0.195,0.293 -0.293,0.39 -0.097,0.098 -0.097,0.293 -0.097,0.488 v 12.577 h -3.607 v -0.098 c -0.586,0 -1.073,0.488 -1.073,1.171 z"
             id="path7214" /></g></g><g
         id="shape-471d1b56-7c24-80ba-8002-cb02679b2058"><g
           class="fills"
           id="fills-471d1b56-7c24-80ba-8002-cb02679b2058"><path
             class="st0"
             rx="0"
             ry="0"
             d="m 289.77,136.305 c -0.585,0.39 -0.78,1.17 -0.39,1.853 l 3.023,4.777 c -0.975,0.585 -1.853,1.365 -2.633,2.243 l -4.777,-2.535 c -0.683,-0.39 -1.463,-0.098 -1.853,0.585 -0.39,0.682 -0.097,1.462 0.585,1.852 l 4.485,2.438 c -0.585,1.072 -0.975,2.242 -1.17,3.51 l -4.875,0.195 c -0.78,0 -1.365,0.682 -1.267,1.365 0,0.682 0.585,1.267 1.365,1.267 0,0 0,0 0,0 l 4.582,-0.195 c 0,0.293 0,0.585 0.098,0.878 0.097,0.78 0.78,1.267 1.462,1.169 0.78,-0.097 1.268,-0.779 1.17,-1.462 -0.097,-0.585 -0.097,-1.072 -0.097,-1.657 0,-0.098 0,-0.195 0,-0.293 0,0 0,0 0,0 0.292,-3.705 2.827,-6.825 6.532,-7.995 2.34,-0.682 4.875,-0.487 7.02,0.683 2.145,1.17 3.803,3.12 4.485,5.46 1.365,4.387 -0.682,8.97 -4.68,10.92 -0.682,0.292 -0.975,1.169 -0.585,1.755 0.195,0.487 0.683,0.78 1.17,0.78 0.195,0 0.39,0 0.585,-0.098 0.195,-0.097 0.293,-0.195 0.488,-0.195 l 2.535,4.095 c 0.292,0.39 0.682,0.585 1.17,0.585 0.195,0 0.487,-0.097 0.682,-0.195 0.585,-0.39 0.78,-1.17 0.39,-1.852 l -2.632,-4.29 c 0.877,-0.78 1.657,-1.755 2.34,-2.828 l 4.777,2.535 c 0.195,0.098 0.39,0.195 0.585,0.195 0.487,0 0.975,-0.293 1.17,-0.682 0.39,-0.683 0.098,-1.463 -0.585,-1.853 l -4.875,-2.633 c 0.292,-1.072 0.487,-2.144 0.585,-3.314 l 5.948,-0.195 c 0.78,0 1.364,-0.683 1.267,-1.366 0,-0.779 -0.682,-1.267 -1.365,-1.267 l -6.045,0.195 c -0.097,-0.39 -0.195,-0.78 -0.292,-1.17 -0.195,-0.585 -0.39,-1.17 -0.683,-1.755 l 5.363,-3.315 c 0.585,-0.39 0.78,-1.17 0.39,-1.852 -0.39,-0.586 -1.268,-0.78 -1.853,-0.39 l -5.362,3.315 c -0.585,-0.78 -1.365,-1.463 -2.145,-2.048 l 3.022,-5.655 c 0.39,-0.683 0.098,-1.462 -0.585,-1.852 -0.682,-0.391 -1.462,-0.098 -1.852,0.585 l -3.023,5.655 c -0.975,-0.39 -1.95,-0.683 -2.925,-0.878 l -0.195,-6.337 c 0,-0.78 -0.682,-1.365 -1.365,-1.268 -0.78,0 -1.365,0.683 -1.267,1.365 l 0.195,6.143 c -0.878,0.097 -1.755,0.195 -2.633,0.487 -0.195,0 -0.292,0.098 -0.487,0.195 l -3.12,-5.07 c -0.391,-0.78 -1.268,-0.975 -1.853,-0.585 z"
             id="path7218" /></g></g><g
         id="shape-471d1b56-7c24-80ba-8002-cb02679b758f"><g
           class="fills"
           id="fills-471d1b56-7c24-80ba-8002-cb02679b758f"><path
             class="st0"
             rx="0"
             ry="0"
             d="m 187.005,148.59 h 87.945 v -3.12 h -91.163 v 81.998 h 3.218 z"
             id="path7222" /></g></g><g
         id="shape-471d1b56-7c24-80ba-8002-cb02679b90c7"><g
           class="fills"
           id="fills-471d1b56-7c24-80ba-8002-cb02679b90c7"><path
             class="st0"
             rx="0"
             ry="0"
             d="m 314.34,173.843 h -3.12 v 76.537 h -88.042 v 3.12 h 91.162 z"
             id="path7226" /></g></g><g
         id="shape-471d1b56-7c24-80ba-8002-cb02679bf0b9"><g
           class="fills"
           id="fills-471d1b56-7c24-80ba-8002-cb02679bf0b9"><path
             class="st0"
             rx="0"
             ry="0"
             d="m 123.825,175.5 c 2.437,1.657 3.997,4.485 3.997,7.41 0,0.78 0.683,1.462 1.463,1.462 0,0 0,0 0,0 0.78,0 1.463,-0.682 1.463,-1.462 0,-3.9 -2.048,-7.703 -5.266,-9.847 -0.682,-0.488 -1.56,-0.293 -2.047,0.39 -0.488,0.682 -0.293,1.56 0.39,2.047 z"
             id="path7230" /></g></g><g
         id="shape-471d1b56-7c24-80ba-8002-cb02679d859d"><g
           class="fills"
           id="fills-471d1b56-7c24-80ba-8002-cb02679d859d"><path
             class="st0"
             rx="0"
             ry="0"
             d="m 133.282,235.56 c -0.39,-0.487 -8.775,-12.577 -29.835,-11.505 v -12.967 l 24.18,-19.11 10.335,-7.41 v -0.78 c 0,-0.293 -0.195,-7.313 -6.337,-11.993 -4.875,-3.705 -7.41,-8.58 -12.968,-19.11 l -1.754,-3.315 c -6.923,-13.065 -22.913,-18.232 -24.18,-18.623 -17.55,-6.824 -24.083,0 -26.521,2.633 -0.195,0.195 -0.487,0.488 -0.584,0.585 -6.045,2.73 -7.703,6.045 -9.75,9.848 -0.586,1.072 -1.17,2.242 -1.951,3.51 -3.022,4.972 -12.09,21.352 -13.162,30.225 -1.56,11.797 22.132,32.272 28.08,35.197 0.097,0.097 0.292,0.195 0.585,0.293 v 11.017 c -4.972,-0.292 -20.085,-0.683 -26.13,4.777 -1.95,1.658 -2.73,4.583 -2.438,8.191 0.878,11.212 12.48,30.224 35.783,45.434 0.195,0.196 0.488,0.196 0.78,0.196 0.195,0 0.39,0 0.585,-0.098 0.487,-0.195 0.78,-0.683 0.877,-1.17 0,-0.097 1.853,-13.942 23.108,-24.375 0.78,-0.292 7.41,-2.73 14.332,-6.142 10.141,-4.973 15.893,-9.75 17.356,-14.04 -0.001,-0.39 -0.098,-0.878 -0.391,-1.268 z m -32.37,-31.2 c -0.097,0.097 -0.097,0.097 -0.097,0.195 -0.097,0.098 -5.85,8.385 -12.87,8.093 h -1.56 c -7.02,0.292 -13.357,-8.093 -13.455,-8.191 0,0 -0.097,-0.097 -0.097,-0.097 -5.363,-5.752 -7.02,-15.113 -7.02,-15.21 -0.098,-0.78 -0.878,-1.365 -1.658,-1.17 -1.56,0.195 -2.73,-0.195 -3.803,-1.462 -3.315,-3.9 -3.315,-13.455 -2.632,-15.6 0.195,-0.586 0.488,-0.78 0.683,-0.878 0.682,-0.293 1.852,0 2.145,0.195 0.39,0.195 0.975,0.195 1.364,-0.097 0.391,-0.195 0.683,-0.683 0.683,-1.17 0.39,-3.705 1.95,-10.92 4.972,-11.798 0.878,1.365 2.828,4.193 5.266,6.923 4.777,5.265 8.97,7.312 12.675,6.239 0.585,-0.194 1.072,-0.779 1.072,-1.364 v -2.048 c 1.657,1.95 4.095,4.095 7.508,5.46 0.39,0.195 0.877,0.098 1.267,-0.098 0.39,-0.194 0.682,-0.584 0.682,-1.072 l 0.196,-1.267 c 1.559,1.462 3.997,2.535 7.41,2.242 6.727,-0.682 11.017,-2.34 11.212,-2.438 0.097,0 0.097,0 0.097,-0.097 0,0 0.196,-0.097 0.391,0 0.194,0.097 0.487,0.488 0.78,1.17 0.682,2.145 0.682,11.7 -2.633,15.6 -1.073,1.268 -2.242,1.658 -3.802,1.463 -0.781,-0.098 -1.561,0.39 -1.658,1.17 -0.098,0.194 -1.658,9.555 -7.118,15.307 z m -28.762,6.63 v -2.827 c 2.632,2.827 7.995,7.605 14.137,7.41 h 1.463 c 0.195,0 0.292,0 0.487,0 5.168,0 9.555,-3.51 12.188,-6.241 v 15.406 c -2.633,1.169 -12.578,4.875 -28.372,-0.195 v -12.285 c 0.292,-0.293 0.292,-0.683 0.097,-1.268 z M 43.582,177.938 c 1.073,-8.385 9.848,-24.18 12.773,-29.055 0.78,-1.365 1.462,-2.535 2.048,-3.705 1.949,-3.705 3.217,-6.24 8.482,-8.58 0.488,-0.195 0.877,-0.683 1.463,-1.268 2.242,-2.437 7.604,-7.995 23.4,-1.852 h 0.097 c 0.195,0 15.99,4.972 22.523,17.16 l 1.755,3.315 c 5.557,10.627 8.384,15.99 13.845,20.085 3.997,3.022 4.875,7.312 5.167,8.97 l -9.068,6.532 -22.424,17.745 v -1.462 c 4.484,-5.07 6.532,-12.09 7.117,-14.918 1.95,-0.098 3.705,-0.975 5.07,-2.535 4.192,-4.972 3.997,-15.892 3.12,-18.427 -0.487,-1.56 -1.365,-2.633 -2.535,-3.023 -1.17,-0.488 -2.242,0 -2.632,0.097 -0.488,0.196 -4.485,1.658 -10.335,2.243 -5.168,0.487 -6.533,-3.412 -6.728,-3.803 -0.195,-0.682 -0.877,-1.072 -1.56,-1.072 -0.682,0.098 -1.267,0.585 -1.365,1.268 l -0.39,3.12 c -5.07,-2.73 -6.922,-7.508 -6.922,-7.605 -0.293,-0.683 -0.975,-1.073 -1.658,-0.975 -0.682,0.097 -1.17,0.78 -1.17,1.462 v 5.948 c 0,0 -0.097,0 -0.097,0 -5.168,0 -11.7,-9.068 -14.04,-12.87 -0.293,-0.391 -0.683,-0.683 -1.17,-0.683 -5.948,-0.292 -7.898,8.873 -8.483,12.87 -0.78,-0.097 -1.755,-0.097 -2.73,0.293 -0.78,0.292 -1.755,1.072 -2.242,2.632 -0.878,2.535 -1.073,13.358 3.119,18.428 1.365,1.657 3.121,2.534 5.071,2.534 0.584,2.633 2.34,8.873 6.142,13.748 v 5.07 C 63.18,206.018 42.315,187.688 43.582,177.938 Z m 0,58.89 c -0.195,-2.73 0.293,-4.778 1.463,-5.85 3.9,-3.413 13.26,-4.193 19.987,-4.095 -0.584,0.682 -1.17,1.56 -1.657,2.535 -4.583,8.287 -6.532,23.4 1.463,40.56 -13.65,-12.188 -20.573,-24.96 -21.256,-33.15 z m 57.136,17.452 c -0.098,0 -0.098,0 -0.196,0.098 -17.842,8.775 -22.912,19.89 -24.277,24.57 -1.95,-1.366 -3.803,-2.633 -5.557,-3.998 -11.116,-18.622 -9.458,-35.295 -4.681,-43.972 1.56,-2.828 3.023,-3.803 3.413,-3.803 0,0 0,0 0,0 0.39,0 0.78,0.098 1.072,0.098 6.825,2.242 12.578,3.022 17.355,3.022 8.288,0 13.358,-2.34 14.625,-3.022 17.843,-1.366 26.033,7.117 27.983,9.555 -3.315,6.825 -22.425,14.82 -29.737,17.452 z"
             id="path7234" /></g></g><g
         id="shape-471d1b56-7c24-80ba-8002-cb02679de1dc"><g
           class="fills"
           id="fills-471d1b56-7c24-80ba-8002-cb02679de1dc"><path
             class="st0"
             rx="0"
             ry="0"
             d="m 79.56,160.388 c 0.195,0.097 0.487,0.194 0.683,0.194 0.487,0 1.072,-0.292 1.267,-0.779 0.39,-0.683 0.097,-1.56 -0.585,-1.95 -2.535,-1.365 -4.388,-4.095 -4.778,-7.021 -0.097,-0.779 -0.779,-1.364 -1.657,-1.267 -0.78,0.098 -1.365,0.78 -1.268,1.658 0.488,3.802 2.925,7.312 6.338,9.165 z"
             id="path7238" /></g></g><g
         id="shape-471d1b56-7c24-80ba-8002-cb02679e5aa4"><g
           class="fills"
           id="fills-471d1b56-7c24-80ba-8002-cb02679e5aa4"><path
             class="st0"
             rx="0"
             ry="0"
             d="m 94.282,160.485 c 0.195,0.097 0.391,0.097 0.586,0.097 0.584,0 1.072,-0.292 1.364,-0.877 0.293,-0.78 0,-1.56 -0.78,-1.95 -6.727,-3.022 -12.09,-8.677 -14.82,-15.6 -0.292,-0.78 -1.169,-1.17 -1.852,-0.877 -0.78,0.292 -1.17,1.17 -0.878,1.852 3.023,7.702 8.97,14.04 16.38,17.355 z"
             id="path7242" /></g></g><g
         id="shape-471d1b56-7c24-80ba-8002-cb02679eb210"><g
           class="fills"
           id="fills-471d1b56-7c24-80ba-8002-cb02679eb210"><path
             class="st0"
             rx="0"
             ry="0"
             d="m 94.185,145.957 c 7.41,1.171 11.992,7.801 12.772,12.188 0.098,0.683 0.78,1.17 1.463,1.17 0.097,0 0.195,0 0.293,0 0.779,-0.195 1.267,-0.975 1.169,-1.755 -1.169,-6.045 -6.922,-13.162 -15.21,-14.527 -0.779,-0.098 -1.56,0.39 -1.657,1.17 -0.098,0.78 0.39,1.657 1.17,1.754 z"
             id="path7246" /></g></g><g
         id="shape-471d1b56-7c24-80ba-8002-cb02679ed5e9"><g
           class="fills"
           id="fills-471d1b56-7c24-80ba-8002-cb02679ed5e9"><path
             class="st0"
             rx="0"
             ry="0"
             d="m 90.09,197.048 c -1.267,1.17 -3.217,2.437 -6.533,-0.293 -0.584,-0.487 -1.559,-0.39 -2.047,0.195 -0.487,0.585 -0.39,1.56 0.195,2.047 1.853,1.56 3.705,2.341 5.557,2.341 1.756,0 3.413,-0.683 4.875,-2.145 0.586,-0.585 0.586,-1.463 0,-2.048 -0.584,-0.682 -1.462,-0.682 -2.047,-0.097 z"
             id="path7250" /></g></g><g
         id="shape-471d1b56-7c24-80ba-8002-cb02679f27e4"><g
           class="fills"
           id="fills-471d1b56-7c24-80ba-8002-cb02679f27e4"><path
             class="st0"
             rx="0"
             ry="0"
             d="m 54.405,164.093 c 0.39,-0.683 0.195,-1.561 -0.488,-2.048 -0.682,-0.39 -1.56,-0.195 -2.047,0.487 -3.9,6.143 -5.557,13.943 -4.583,21.158 0.098,0.78 0.683,1.267 1.463,1.267 0.097,0 0.097,0 0.195,0 0.78,-0.097 1.365,-0.877 1.268,-1.657 -0.781,-6.63 0.682,-13.65 4.192,-19.207 z"
             id="path7254" /></g></g><g
         id="shape-471d1b56-7c24-80ba-8002-cb02679f4b6e"><g
           class="fills"
           id="fills-471d1b56-7c24-80ba-8002-cb02679f4b6e"><path
             class="st0"
             rx="0"
             ry="0"
             d="M 67.762,107.64 70.2,109.2 C 82.192,90.578 99.06,76.05 119.047,66.788 l -4.679,11.505 2.729,1.072 6.63,-16.283 -16.672,-5.46 -0.878,2.828 11.505,3.705 C 97.207,73.71 80.047,88.628 67.762,107.64 Z"
             id="path7258" /></g></g><g
         id="shape-471d1b56-7c24-80ba-8002-cb02679f8c09"><g
           class="fills"
           id="fills-471d1b56-7c24-80ba-8002-cb02679f8c09"><path
             class="st0"
             rx="0"
             ry="0"
             d="m 280.41,118.56 -11.505,-4.68 -1.073,2.73 16.283,6.63 5.46,-16.672 -2.827,-0.878 -3.705,11.505 C 273.585,96.818 258.668,79.658 239.655,67.372 l -1.56,2.438 c 18.428,11.895 33.053,28.763 42.315,48.75 z"
             id="path7262" /></g></g><g
         id="shape-471d1b56-7c24-80ba-8002-cb02679fe8d0"><g
           class="fills"
           id="fills-471d1b56-7c24-80ba-8002-cb02679fe8d0"><path
             class="st0"
             rx="0"
             ry="0"
             d="m 171.6,274.365 c 11.407,0 22.717,-1.658 33.832,-4.875 l -0.877,-2.827 c -21.158,6.24 -43.485,6.337 -64.643,0.39 l 11.115,-5.655 -1.365,-2.633 -15.599,7.995 9.164,15.015 2.535,-1.56 -6.24,-10.335 c 10.433,2.925 21.255,4.485 32.078,4.485 z"
             id="path7266" /></g></g><g
         id="shape-471d1b56-7c24-80ba-8002-cb0267a010b8"><g
           class="fills"
           id="fills-471d1b56-7c24-80ba-8002-cb0267a010b8"><path
             class="st0"
             rx="0"
             ry="0"
             d="m 180.082,282.36 h -1.852 l 0.585,-1.267 c 0.487,-0.878 0.39,-1.95 -0.098,-2.828 -0.487,-0.877 -1.462,-1.365 -2.437,-1.365 h -3.51 c -1.17,0 -2.145,0.682 -2.633,1.657 l -4.094,8.678 c -0.391,0.878 -0.391,1.95 0.195,2.828 0.584,0.877 1.462,1.365 2.437,1.365 h 2.243 l -1.073,4.582 c -0.292,1.365 0.39,2.828 1.657,3.315 0.39,0.195 0.781,0.195 1.17,0.195 0.975,0 1.853,-0.488 2.438,-1.365 l 7.41,-11.408 c 0.585,-0.877 0.585,-2.047 0.097,-3.022 -0.487,-0.975 -1.462,-1.365 -2.535,-1.365 z m -7.41,14.333 1.853,-8.19 h -5.85 l 4.095,-8.678 h 3.51 l -2.73,5.46 h 6.532 z"
             id="path7270" /></g></g><g
         id="shape-471d1b56-7c24-80ba-8002-cb0267a0c1e1"><g
           class="fills"
           id="fills-471d1b56-7c24-80ba-8002-cb0267a0c1e1"><path
             class="st0"
             rx="0"
             ry="0"
             d="m 177.938,257.79 c -0.293,-0.097 -0.488,-0.097 -0.781,0.098 -1.462,0.78 -3.315,0.292 -4.192,-1.073 h 2.242 c 0.488,0 0.781,-0.39 0.781,-0.78 0,-0.39 -0.391,-0.78 -0.781,-0.78 h -2.827 c 0,-0.195 0,-0.39 0,-0.487 h 2.827 c 0.488,0 0.781,-0.39 0.781,-0.78 0,-0.39 -0.391,-0.781 -0.781,-0.781 h -2.242 c 0.877,-1.267 2.535,-1.754 3.9,-1.169 0.097,0 0.195,0.097 0.292,0.097 0.195,0.098 0.488,0.098 0.781,0.098 0.292,-0.098 0.487,-0.293 0.584,-0.488 0.098,-0.195 0.098,-0.487 0.098,-0.78 -0.098,-0.292 -0.293,-0.487 -0.488,-0.585 -1.267,-0.682 -2.632,-0.78 -3.997,-0.292 -1.365,0.39 -2.438,1.365 -3.022,2.534 -0.098,0.196 -0.195,0.293 -0.195,0.488 h -1.073 c -0.487,0 -0.78,0.39 -0.78,0.78 0,0.39 0.39,0.78 0.78,0.78 h 0.682 c 0,0.195 0,0.39 0,0.487 h -0.682 c -0.487,0 -0.78,0.391 -0.78,0.781 0,0.39 0.39,0.78 0.78,0.78 h 1.073 c 0.78,2.047 2.73,3.314 4.875,3.314 0.487,0 1.072,-0.097 1.559,-0.194 0.293,-0.098 0.586,-0.195 0.878,-0.39 0.195,-0.098 0.39,-0.293 0.488,-0.585 0.097,-0.195 0.097,-0.488 -0.098,-0.781 -0.195,-0.292 -0.39,-0.194 -0.682,-0.292 z"
             id="path7274" /></g></g><g
         id="shape-471d1b56-7c24-80ba-8002-cb0267a13193"><g
           class="fills"
           id="fills-471d1b56-7c24-80ba-8002-cb0267a13193"><path
             class="st0"
             rx="0"
             ry="0"
             d="m 173.843,243.165 c -6.631,0 -12.091,5.46 -12.091,12.09 0,6.63 5.46,12.09 12.091,12.09 6.63,0 12.09,-5.46 12.09,-12.09 -0.001,-6.63 -5.461,-12.09 -12.09,-12.09 z m 0,21.353 c -5.07,0 -9.165,-4.095 -9.165,-9.165 0,-5.071 4.094,-9.165 9.165,-9.165 5.069,0 9.164,4.094 9.164,9.165 0,4.972 -4.095,9.165 -9.164,9.165 z"
             id="path7278" /></g></g></g></g>
</svg>
