<svg xmlns:xlink="http://www.w3.org/1999/xlink" width="362" xmlns="http://www.w3.org/2000/svg" height="343.9" id="screenshot-471d1b56-7c24-80ba-8002-caf7809200e6" viewBox="-11 -1 362 343.9" style="-webkit-print-color-adjust: exact;" fill="none" version="1.1"><g xmlns:xlink="http://www.w3.org/1999/xlink" xml:space="preserve" x="0px" id="shape-471d1b56-7c24-80ba-8002-caf7809200e6" style="fill: rgb(0, 0, 0);" ry="0" rx="0" y="0px" version="1.1"><g id="shape-471d1b56-7c24-80ba-8002-caf780936edd"><style type="text/css" rx="0" ry="0" style="fill: rgb(0, 0, 0);">.st0{fill:#004B00;}</style></g><g id="shape-471d1b56-7c24-80ba-8002-caf78093fd5f" rx="0" ry="0" style="fill: rgb(0, 0, 0);"><g id="shape-471d1b56-7c24-80ba-8002-caf7809652d5"><g class="fills" id="fills-471d1b56-7c24-80ba-8002-caf7809652d5"><path class="st0" rx="0" ry="0" d="M264.322,78.682L248.430,89.310L250.088,91.747L265.980,81.120C266.467,81.705,267.053,82.290,267.735,82.680L260.910,94.185L263.445,95.648L270.270,84.143C271.148,84.532,272.122,84.728,273.098,84.825L273.000,95.355L275.925,95.355L276.023,84.825C276.900,84.728,277.778,84.435,278.655,84.143L296.693,114.465L299.228,113.003L281.288,82.778C281.580,82.582,281.873,82.290,282.165,82.095C282.555,81.705,282.945,81.315,283.238,80.925L320.775,100.133L322.140,97.500L284.700,78.390C285.090,77.513,285.383,76.635,285.480,75.758L326.333,78.097L326.528,75.173L285.578,72.832C285.480,71.760,285.285,70.785,284.895,69.810L308.783,55.575L307.320,53.040L283.628,67.275C283.335,66.885,283.043,66.495,282.750,66.203C282.458,65.813,282.068,65.520,281.678,65.228L291.720,48.750L289.185,47.190L279.240,63.668C278.363,63.278,277.388,62.985,276.413,62.790L276.900,40.853L273.975,40.755L273.488,62.693C272.513,62.790,271.538,62.985,270.660,63.278L261.300,46.313L258.765,47.678L268.028,64.545C266.858,65.423,265.785,66.398,265.005,67.665L235.170,48.360L233.610,50.798L263.835,70.395C263.543,71.370,263.348,72.345,263.348,73.320C263.348,73.418,263.348,73.613,263.348,73.710L226.200,73.710L226.200,76.635L263.640,76.635C263.738,77.318,264.030,78.000,264.322,78.682ZZM274.463,65.423C274.560,65.423,274.658,65.423,274.853,65.423C277.095,65.520,279.143,66.495,280.605,68.055C282.068,69.713,282.848,71.858,282.848,74.003C282.750,76.245,281.775,78.293,280.215,79.755C278.655,81.218,276.510,81.997,274.268,81.997C271.635,81.900,269.100,80.535,267.638,78.293C266.663,76.830,266.175,75.075,266.273,73.320C266.273,68.932,269.978,65.423,274.463,65.423ZZ"/></g></g><g id="shape-471d1b56-7c24-80ba-8002-caf780969a99"><g class="fills" id="fills-471d1b56-7c24-80ba-8002-caf780969a99"><rect class="st0" rx="0" ry="0" x="212.08300264340073" y="106.96796175256759" transform="matrix(0.831311, -0.555807, 0.555807, 0.831311, -22.722345, 141.993797)" width="20.962220463198264" height="2.924960994864705"/></g></g><g id="shape-471d1b56-7c24-80ba-8002-caf780972434"><g class="fills" id="fills-471d1b56-7c24-80ba-8002-caf780972434"><rect class="st0" rx="0" ry="0" x="254.45842059375104" y="100.36619833530449" transform="matrix(0.511610, -0.859218, 0.859218, 0.511610, 38.543689, 271.466758)" width="7.214852812498748" height="2.924940329391575"/></g></g><g id="shape-471d1b56-7c24-80ba-8002-caf780977e29"><g class="fills" id="fills-471d1b56-7c24-80ba-8002-caf780977e29"><rect class="st0" rx="0" ry="0" x="248.56923354983246" y="109.4848858353048" transform="matrix(0.511610, -0.859218, 0.859218, 0.511610, 28.023004, 271.195225)" width="7.994836900336168" height="2.924940329391575"/></g></g><g id="shape-471d1b56-7c24-80ba-8002-caf780980184"><g class="fills" id="fills-471d1b56-7c24-80ba-8002-caf780980184"><rect class="st0" rx="0" ry="0" x="269.7719740938808" y="102.27389936397913" transform="matrix(0.008137, -0.999967, 0.999967, 0.008137, 168.485767, 377.335336)" width="9.360309918468829" height="2.9250968495211964"/></g></g><g id="shape-471d1b56-7c24-80ba-8002-caf7809851d5"><g class="fills" id="fills-471d1b56-7c24-80ba-8002-caf7809851d5"><rect class="st0" rx="0" ry="0" x="233.2144389367254" y="95.34439200256793" transform="matrix(0.831311, -0.555807, 0.555807, 0.831311, -13.338671, 149.664609)" width="13.357321876549804" height="2.9249609948651596"/></g></g><g id="shape-471d1b56-7c24-80ba-8002-caf78098b408"><g class="fills" id="fills-471d1b56-7c24-80ba-8002-caf78098b408"><rect class="st0" rx="0" ry="0" x="65.91000000000031" y="23.205000000000382" transform="matrix(1.000000, 0.000000, 0.000000, 1.000000, 0.000000, 0.000000)" width="8.774999999999864" height="1.949999999999818"/></g></g><g id="shape-471d1b56-7c24-80ba-8002-caf78098fd70"><g class="fills" id="fills-471d1b56-7c24-80ba-8002-caf78098fd70"><rect class="st0" rx="0" ry="0" x="79.55999999999995" y="23.205000000000382" transform="matrix(1.000000, 0.000000, 0.000000, 1.000000, 0.000000, 0.000000)" width="8.775000000000091" height="1.949999999999818"/></g></g><g id="shape-471d1b56-7c24-80ba-8002-caf78098fd71"><g class="fills" id="fills-471d1b56-7c24-80ba-8002-caf78098fd71"><rect class="st0" rx="0" ry="0" x="160.1925000000001" y="310.14750000000004" transform="matrix(1.000000, 0.000000, 0.000000, 1.000000, 0.000000, 0.000000)" width="8.774999999999864" height="1.949999999999818"/></g></g><g id="shape-471d1b56-7c24-80ba-8002-caf780992f46"><g class="fills" id="fills-471d1b56-7c24-80ba-8002-caf780992f46"><rect class="st0" rx="0" ry="0" x="78.29250000000002" y="310.14750000000004" transform="matrix(1.000000, 0.000000, 0.000000, 1.000000, 0.000000, 0.000000)" width="8.775000000000091" height="1.949999999999818"/></g></g><g id="shape-471d1b56-7c24-80ba-8002-caf780994933"><g class="fills" id="fills-471d1b56-7c24-80ba-8002-caf780994933"><rect class="st0" rx="0" ry="0" x="64.64250000000038" y="310.14750000000004" transform="matrix(1.000000, 0.000000, 0.000000, 1.000000, 0.000000, 0.000000)" width="8.774999999999864" height="1.949999999999818"/></g></g><g id="shape-471d1b56-7c24-80ba-8002-caf78099841b"><g class="fills" id="fills-471d1b56-7c24-80ba-8002-caf78099841b"><path class="st0" rx="0" ry="0" d="M35.880,32.565L34.710,31.005C32.273,32.760,30.030,34.710,27.983,36.953L29.445,38.220C31.395,36.173,33.540,34.222,35.880,32.565ZZ"/></g></g><g id="shape-471d1b56-7c24-80ba-8002-caf7809a2835"><g class="fills" id="fills-471d1b56-7c24-80ba-8002-caf7809a2835"><path class="st0" rx="0" ry="0" d="M37.928,306.345C40.560,307.905,43.290,309.075,46.118,310.050L46.703,308.198C43.973,307.320,41.340,306.150,38.903,304.688L37.928,306.345ZZ"/></g></g><g id="shape-471d1b56-7c24-80ba-8002-caf7809a4860"><g class="fills" id="fills-471d1b56-7c24-80ba-8002-caf7809a4860"><path class="st0" rx="0" ry="0" d="M51.285,309.368L50.895,311.318C53.625,311.805,56.355,312.097,59.183,312.097L59.865,312.097L59.865,310.148L59.183,310.148C56.453,310.148,53.820,309.855,51.285,309.368ZZ"/></g></g><g id="shape-471d1b56-7c24-80ba-8002-caf7809abf80"><g class="fills" id="fills-471d1b56-7c24-80ba-8002-caf7809abf80"><path class="st0" rx="0" ry="0" d="M47.775,26.813L47.190,24.960C44.363,25.838,41.535,27.008,38.903,28.372L39.878,30.128C42.413,28.665,45.045,27.593,47.775,26.813ZZ"/></g></g><g id="shape-471d1b56-7c24-80ba-8002-caf7809af0c7"><g class="fills" id="fills-471d1b56-7c24-80ba-8002-caf7809af0c7"><rect class="st0" rx="0" ry="0" x="120.50999999999999" y="23.205000000000382" transform="matrix(1.000000, 0.000000, 0.000000, 1.000000, 0.000000, 0.000000)" width="8.775000000000091" height="1.949999999999818"/></g></g><g id="shape-471d1b56-7c24-80ba-8002-caf7809af0c8"><g class="fills" id="fills-471d1b56-7c24-80ba-8002-caf7809af0c8"><rect class="st0" rx="0" ry="0" x="134.1600000000003" y="23.205000000000382" transform="matrix(1.000000, 0.000000, 0.000000, 1.000000, 0.000000, 0.000000)" width="8.774999999999864" height="1.949999999999818"/></g></g><g id="shape-471d1b56-7c24-80ba-8002-caf7809b73ef"><g class="fills" id="fills-471d1b56-7c24-80ba-8002-caf7809b73ef"><rect class="st0" rx="0" ry="0" x="132.89250000000038" y="310.14750000000004" transform="matrix(1.000000, 0.000000, 0.000000, 1.000000, 0.000000, 0.000000)" width="8.774999999999864" height="1.949999999999818"/></g></g><g id="shape-471d1b56-7c24-80ba-8002-caf7809b73f0"><g class="fills" id="fills-471d1b56-7c24-80ba-8002-caf7809b73f0"><rect class="st0" rx="0" ry="0" x="146.54250000000002" y="310.14750000000004" transform="matrix(1.000000, 0.000000, 0.000000, 1.000000, 0.000000, 0.000000)" width="8.775000000000091" height="1.949999999999818"/></g></g><g id="shape-471d1b56-7c24-80ba-8002-caf7809ba796"><g class="fills" id="fills-471d1b56-7c24-80ba-8002-caf7809ba796"><path class="st0" rx="0" ry="0" d="M28.665,296.108L27.203,297.375C29.153,299.618,31.395,301.665,33.735,303.518L34.905,301.957C32.663,300.300,30.518,298.350,28.665,296.108ZZ"/></g></g><g id="shape-471d1b56-7c24-80ba-8002-caf7809c0c7b"><g class="fills" id="fills-471d1b56-7c24-80ba-8002-caf7809c0c7b"><rect class="st0" rx="0" ry="0" x="147.80999999999995" y="23.205000000000382" transform="matrix(1.000000, 0.000000, 0.000000, 1.000000, 0.000000, 0.000000)" width="8.775000000000091" height="1.949999999999818"/></g></g><g id="shape-471d1b56-7c24-80ba-8002-caf7809c0c7c"><g class="fills" id="fills-471d1b56-7c24-80ba-8002-caf7809c0c7c"><rect class="st0" rx="0" ry="0" x="105.59249999999997" y="310.14750000000004" transform="matrix(1.000000, 0.000000, 0.000000, 1.000000, 0.000000, 0.000000)" width="8.775000000000091" height="1.949999999999818"/></g></g><g id="shape-471d1b56-7c24-80ba-8002-caf7809c75f8"><g class="fills" id="fills-471d1b56-7c24-80ba-8002-caf7809c75f8"><rect class="st0" rx="0" ry="0" x="93.21000000000004" y="23.205000000000382" transform="matrix(1.000000, 0.000000, 0.000000, 1.000000, 0.000000, 0.000000)" width="8.775000000000091" height="1.949999999999818"/></g></g><g id="shape-471d1b56-7c24-80ba-8002-caf7809c9493"><g class="fills" id="fills-471d1b56-7c24-80ba-8002-caf7809c9493"><rect class="st0" rx="0" ry="0" x="91.94250000000011" y="310.14750000000004" transform="matrix(1.000000, 0.000000, 0.000000, 1.000000, 0.000000, 0.000000)" width="8.774999999999864" height="1.949999999999818"/></g></g><g id="shape-471d1b56-7c24-80ba-8002-caf7809ce079"><g class="fills" id="fills-471d1b56-7c24-80ba-8002-caf7809ce079"><rect class="st0" rx="0" ry="0" x="106.86000000000013" y="23.205000000000382" transform="matrix(1.000000, 0.000000, 0.000000, 1.000000, 0.000000, 0.000000)" width="8.774999999999864" height="1.949999999999818"/></g></g><g id="shape-471d1b56-7c24-80ba-8002-caf7809ce07a"><g class="fills" id="fills-471d1b56-7c24-80ba-8002-caf7809ce07a"><rect class="st0" rx="0" ry="0" x="119.24250000000006" y="310.14750000000004" transform="matrix(1.000000, 0.000000, 0.000000, 1.000000, 0.000000, 0.000000)" width="8.775000000000091" height="1.949999999999818"/></g></g><g id="shape-471d1b56-7c24-80ba-8002-caf7809d6f2e"><g class="fills" id="fills-471d1b56-7c24-80ba-8002-caf7809d6f2e"><path class="st0" rx="0" ry="0" d="M59.183,25.155L61.035,25.155L61.035,23.205L59.183,23.205C56.842,23.205,54.503,23.400,52.163,23.790L52.455,25.740C54.600,25.350,56.842,25.155,59.183,25.155ZZ"/></g></g><g id="shape-471d1b56-7c24-80ba-8002-caf7809d80e6"><g class="fills" id="fills-471d1b56-7c24-80ba-8002-caf7809d80e6"><rect class="st0" rx="0" ry="0" x="17.0625" y="121.68000000000029" transform="matrix(1.000000, 0.000000, 0.000000, 1.000000, 0.000000, 0.000000)" width="1.9500000000000455" height="8.775000000000091"/></g></g><g id="shape-471d1b56-7c24-80ba-8002-caf7809d80e7"><g class="fills" id="fills-471d1b56-7c24-80ba-8002-caf7809d80e7"><rect class="st0" rx="0" ry="0" x="17.0625" y="108.03000000000065" transform="matrix(1.000000, 0.000000, 0.000000, 1.000000, 0.000000, 0.000000)" width="1.9500000000000455" height="8.775000000000091"/></g></g><g id="shape-471d1b56-7c24-80ba-8002-caf7809ddc9e"><g class="fills" id="fills-471d1b56-7c24-80ba-8002-caf7809ddc9e"><rect class="st0" rx="0" ry="0" x="17.0625" y="94.38000000000011" transform="matrix(1.000000, 0.000000, 0.000000, 1.000000, 0.000000, 0.000000)" width="1.9500000000000455" height="8.775000000000091"/></g></g><g id="shape-471d1b56-7c24-80ba-8002-caf7809e3b0b"><g class="fills" id="fills-471d1b56-7c24-80ba-8002-caf7809e3b0b"><rect class="st0" rx="0" ry="0" x="17.0625" y="135.33000000000084" transform="matrix(1.000000, 0.000000, 0.000000, 1.000000, 0.000000, 0.000000)" width="1.9500000000000455" height="8.775000000000091"/></g></g><g id="shape-471d1b56-7c24-80ba-8002-caf7809e6dba"><g class="fills" id="fills-471d1b56-7c24-80ba-8002-caf7809e6dba"><rect class="st0" rx="0" ry="0" x="17.0625" y="148.98000000000047" transform="matrix(1.000000, 0.000000, 0.000000, 1.000000, 0.000000, 0.000000)" width="1.9500000000000455" height="8.774999999999636"/></g></g><g id="shape-471d1b56-7c24-80ba-8002-caf7809ebb26"><g class="fills" id="fills-471d1b56-7c24-80ba-8002-caf7809ebb26"><path class="st0" rx="0" ry="0" d="M20.475,48.653L22.230,49.432C23.400,46.800,24.765,44.265,26.423,42.023L24.863,40.853C23.108,43.290,21.645,45.923,20.475,48.653ZZ"/></g></g><g id="shape-471d1b56-7c24-80ba-8002-caf7809ebb27"><g class="fills" id="fills-471d1b56-7c24-80ba-8002-caf7809ebb27"><rect class="st0" rx="0" ry="0" x="17.0625" y="162.6300000000001" transform="matrix(1.000000, 0.000000, 0.000000, 1.000000, 0.000000, 0.000000)" width="1.9500000000000455" height="8.775000000000091"/></g></g><g id="shape-471d1b56-7c24-80ba-8002-caf7809edd1e"><g class="fills" id="fills-471d1b56-7c24-80ba-8002-caf7809edd1e"><path class="st0" rx="0" ry="0" d="M20.670,53.918L18.818,53.332C17.940,56.160,17.453,59.182,17.258,62.108L19.208,62.205C19.305,59.475,19.890,56.648,20.670,53.918ZZ"/></g></g><g id="shape-471d1b56-7c24-80ba-8002-caf7809f3dab"><g class="fills" id="fills-471d1b56-7c24-80ba-8002-caf7809f3dab"><path class="st0" rx="0" ry="0" d="M332.963,56.355C332.378,53.430,331.403,50.603,330.135,47.872L328.380,48.653C329.550,51.285,330.428,54.015,331.110,56.745L332.963,56.355ZZ"/></g></g><g id="shape-471d1b56-7c24-80ba-8002-caf7809f6641"><g class="fills" id="fills-471d1b56-7c24-80ba-8002-caf7809f6641"><rect class="st0" rx="0" ry="0" x="17.0625" y="67.08000000000084" transform="matrix(1.000000, 0.000000, 0.000000, 1.000000, 0.000000, 0.000000)" width="1.9500000000000455" height="8.775000000000091"/></g></g><g id="shape-471d1b56-7c24-80ba-8002-caf7809f8670"><g class="fills" id="fills-471d1b56-7c24-80ba-8002-caf7809f8670"><rect class="st0" rx="0" ry="0" x="17.0625" y="80.73000000000047" transform="matrix(1.000000, 0.000000, 0.000000, 1.000000, 0.000000, 0.000000)" width="1.9500000000000455" height="8.774999999999636"/></g></g><g id="shape-471d1b56-7c24-80ba-8002-caf7809f8671"><g class="fills" id="fills-471d1b56-7c24-80ba-8002-caf7809f8671"><rect class="st0" rx="0" ry="0" x="17.0625" y="244.53000000000065" transform="matrix(1.000000, 0.000000, 0.000000, 1.000000, 0.000000, 0.000000)" width="1.9500000000000455" height="8.775000000000091"/></g></g><g id="shape-471d1b56-7c24-80ba-8002-caf7809fe324"><g class="fills" id="fills-471d1b56-7c24-80ba-8002-caf7809fe324"><rect class="st0" rx="0" ry="0" x="17.0625" y="176.28000000000065" transform="matrix(1.000000, 0.000000, 0.000000, 1.000000, 0.000000, 0.000000)" width="1.9500000000000455" height="8.775000000000091"/></g></g><g id="shape-471d1b56-7c24-80ba-8002-caf780a02007"><g class="fills" id="fills-471d1b56-7c24-80ba-8002-caf780a02007"><path class="st0" rx="0" ry="0" d="M19.013,271.830L17.063,271.928C17.160,274.950,17.648,277.875,18.428,280.800L20.280,280.313C19.598,277.485,19.208,274.657,19.013,271.830ZZ"/></g></g><g id="shape-471d1b56-7c24-80ba-8002-caf780a06c7b"><g class="fills" id="fills-471d1b56-7c24-80ba-8002-caf780a06c7b"><path class="st0" rx="0" ry="0" d="M19.988,285.480C21.060,288.210,22.523,290.940,24.180,293.378L25.838,292.305C24.278,289.965,22.913,287.430,21.840,284.700L19.988,285.480ZZ"/></g></g><g id="shape-471d1b56-7c24-80ba-8002-caf780a06c7c"><g class="fills" id="fills-471d1b56-7c24-80ba-8002-caf780a06c7c"><rect class="st0" rx="0" ry="0" x="17.0625" y="258.1800000000003" transform="matrix(1.000000, 0.000000, 0.000000, 1.000000, 0.000000, 0.000000)" width="1.9500000000000455" height="8.775000000000091"/></g></g><g id="shape-471d1b56-7c24-80ba-8002-caf780a095c1"><g class="fills" id="fills-471d1b56-7c24-80ba-8002-caf780a095c1"><rect class="st0" rx="0" ry="0" x="17.0625" y="203.58000000000084" transform="matrix(1.000000, 0.000000, 0.000000, 1.000000, 0.000000, 0.000000)" width="1.9500000000000455" height="8.775000000000091"/></g></g><g id="shape-471d1b56-7c24-80ba-8002-caf780a095c2"><g class="fills" id="fills-471d1b56-7c24-80ba-8002-caf780a095c2"><rect class="st0" rx="0" ry="0" x="17.0625" y="189.9300000000003" transform="matrix(1.000000, 0.000000, 0.000000, 1.000000, 0.000000, 0.000000)" width="1.9500000000000455" height="8.775000000000091"/></g></g><g id="shape-471d1b56-7c24-80ba-8002-caf780a0c522"><g class="fills" id="fills-471d1b56-7c24-80ba-8002-caf780a0c522"><rect class="st0" rx="0" ry="0" x="17.0625" y="230.8800000000001" transform="matrix(1.000000, 0.000000, 0.000000, 1.000000, 0.000000, 0.000000)" width="1.9500000000000455" height="8.775000000000091"/></g></g><g id="shape-471d1b56-7c24-80ba-8002-caf780a0c523"><g class="fills" id="fills-471d1b56-7c24-80ba-8002-caf780a0c523"><rect class="st0" rx="0" ry="0" x="17.0625" y="217.23000000000047" transform="matrix(1.000000, 0.000000, 0.000000, 1.000000, 0.000000, 0.000000)" width="1.9500000000000455" height="8.774999999999636"/></g></g><g id="shape-471d1b56-7c24-80ba-8002-caf780a11ff7"><g class="fills" id="fills-471d1b56-7c24-80ba-8002-caf780a11ff7"><rect class="st0" rx="0" ry="0" x="255.74250000000006" y="310.14750000000004" transform="matrix(1.000000, 0.000000, 0.000000, 1.000000, 0.000000, 0.000000)" width="8.775000000000091" height="1.949999999999818"/></g></g><g id="shape-471d1b56-7c24-80ba-8002-caf780a11ff8"><g class="fills" id="fills-471d1b56-7c24-80ba-8002-caf780a11ff8"><rect class="st0" rx="0" ry="0" x="331.9875000000002" y="238.875" transform="matrix(1.000000, 0.000000, 0.000000, 1.000000, 0.000000, 0.000000)" width="1.949999999999818" height="8.775000000000091"/></g></g><g id="shape-471d1b56-7c24-80ba-8002-caf780a15453"><g class="fills" id="fills-471d1b56-7c24-80ba-8002-caf780a15453"><rect class="st0" rx="0" ry="0" x="331.9875000000002" y="252.52500000000055" transform="matrix(1.000000, 0.000000, 0.000000, 1.000000, 0.000000, 0.000000)" width="1.949999999999818" height="8.775000000000091"/></g></g><g id="shape-471d1b56-7c24-80ba-8002-caf780a1b53b"><g class="fills" id="fills-471d1b56-7c24-80ba-8002-caf780a1b53b"><rect class="st0" rx="0" ry="0" x="331.9875000000002" y="184.27500000000055" transform="matrix(1.000000, 0.000000, 0.000000, 1.000000, 0.000000, 0.000000)" width="1.949999999999818" height="8.775000000000091"/></g></g><g id="shape-471d1b56-7c24-80ba-8002-caf780a1b53c"><g class="fills" id="fills-471d1b56-7c24-80ba-8002-caf780a1b53c"><rect class="st0" rx="0" ry="0" x="331.9875000000002" y="211.57500000000027" transform="matrix(1.000000, 0.000000, 0.000000, 1.000000, 0.000000, 0.000000)" width="1.949999999999818" height="8.774999999999636"/></g></g><g id="shape-471d1b56-7c24-80ba-8002-caf780a1ee39"><g class="fills" id="fills-471d1b56-7c24-80ba-8002-caf780a1ee39"><rect class="st0" rx="0" ry="0" x="331.9875000000002" y="197.92500000000018" transform="matrix(1.000000, 0.000000, 0.000000, 1.000000, 0.000000, 0.000000)" width="1.949999999999818" height="8.775000000000091"/></g></g><g id="shape-471d1b56-7c24-80ba-8002-caf780a1ee3a"><g class="fills" id="fills-471d1b56-7c24-80ba-8002-caf780a1ee3a"><rect class="st0" rx="0" ry="0" x="331.9875000000002" y="225.22500000000036" transform="matrix(1.000000, 0.000000, 0.000000, 1.000000, 0.000000, 0.000000)" width="1.949999999999818" height="8.775000000000091"/></g></g><g id="shape-471d1b56-7c24-80ba-8002-caf780a21cf6"><g class="fills" id="fills-471d1b56-7c24-80ba-8002-caf780a21cf6"><path class="st0" rx="0" ry="0" d="M320.288,298.350L321.653,299.715C323.798,297.570,325.650,295.230,327.308,292.695L325.650,291.622C324.090,294.060,322.335,296.303,320.288,298.350ZZ"/></g></g><g id="shape-471d1b56-7c24-80ba-8002-caf780a24708"><g class="fills" id="fills-471d1b56-7c24-80ba-8002-caf780a24708"><path class="st0" rx="0" ry="0" d="M331.988,269.978C331.988,271.537,331.890,273.195,331.695,274.755L333.645,274.950C333.840,273.293,333.938,271.635,333.938,269.880L333.938,266.175L331.988,266.175L331.988,269.978ZZ"/></g></g><g id="shape-471d1b56-7c24-80ba-8002-caf780a2a8b8"><g class="fills" id="fills-471d1b56-7c24-80ba-8002-caf780a2a8b8"><path class="st0" rx="0" ry="0" d="M320.970,37.733C322.920,39.780,324.675,42.120,326.138,44.557L327.795,43.582C326.235,41.048,324.383,38.610,322.335,36.465L320.970,37.733ZZ"/></g></g><g id="shape-471d1b56-7c24-80ba-8002-caf780a2f3b4"><g class="fills" id="fills-471d1b56-7c24-80ba-8002-caf780a2f3b4"><path class="st0" rx="0" ry="0" d="M327.990,287.528L329.745,288.405C331.013,285.675,332.085,282.847,332.768,279.923L330.915,279.435C330.233,282.263,329.258,284.993,327.990,287.528ZZ"/></g></g><g id="shape-471d1b56-7c24-80ba-8002-caf780a2f3b5"><g class="fills" id="fills-471d1b56-7c24-80ba-8002-caf780a2f3b5"><rect class="st0" rx="0" ry="0" x="161.46000000000004" y="23.205000000000382" transform="matrix(1.000000, 0.000000, 0.000000, 1.000000, 0.000000, 0.000000)" width="8.775000000000091" height="1.949999999999818"/></g></g><g id="shape-471d1b56-7c24-80ba-8002-caf780a300ed"><g class="fills" id="fills-471d1b56-7c24-80ba-8002-caf780a300ed"><rect class="st0" rx="0" ry="0" x="331.9875000000002" y="75.07500000000027" transform="matrix(1.000000, 0.000000, 0.000000, 1.000000, 0.000000, 0.000000)" width="1.949999999999818" height="8.774999999999636"/></g></g><g id="shape-471d1b56-7c24-80ba-8002-caf780a300ee"><g class="fills" id="fills-471d1b56-7c24-80ba-8002-caf780a300ee"><rect class="st0" rx="0" ry="0" x="331.9875000000002" y="102.375" transform="matrix(1.000000, 0.000000, 0.000000, 1.000000, 0.000000, 0.000000)" width="1.949999999999818" height="8.775000000000091"/></g></g><g id="shape-471d1b56-7c24-80ba-8002-caf780a37b43"><g class="fills" id="fills-471d1b56-7c24-80ba-8002-caf780a37b43"><rect class="st0" rx="0" ry="0" x="331.9875000000002" y="88.72500000000036" transform="matrix(1.000000, 0.000000, 0.000000, 1.000000, 0.000000, 0.000000)" width="1.949999999999818" height="8.775000000000091"/></g></g><g id="shape-471d1b56-7c24-80ba-8002-caf780a37b44"><g class="fills" id="fills-471d1b56-7c24-80ba-8002-caf780a37b44"><path class="st0" rx="0" ry="0" d="M333.743,61.328L331.793,61.523C331.890,62.790,331.988,64.057,331.988,65.325L331.988,70.200L333.938,70.200L333.938,65.325C333.938,63.960,333.840,62.595,333.743,61.328ZZ"/></g></g><g id="shape-471d1b56-7c24-80ba-8002-caf780a3b77c"><g class="fills" id="fills-471d1b56-7c24-80ba-8002-caf780a3b77c"><rect class="st0" rx="0" ry="0" x="331.9875000000002" y="143.32500000000027" transform="matrix(1.000000, 0.000000, 0.000000, 1.000000, 0.000000, 0.000000)" width="1.949999999999818" height="8.774999999999636"/></g></g><g id="shape-471d1b56-7c24-80ba-8002-caf780a3f50f"><g class="fills" id="fills-471d1b56-7c24-80ba-8002-caf780a3f50f"><rect class="st0" rx="0" ry="0" x="331.9875000000002" y="170.625" transform="matrix(1.000000, 0.000000, 0.000000, 1.000000, 0.000000, 0.000000)" width="1.949999999999818" height="8.775000000000091"/></g></g><g id="shape-471d1b56-7c24-80ba-8002-caf780a3f510"><g class="fills" id="fills-471d1b56-7c24-80ba-8002-caf780a3f510"><path class="st0" rx="0" ry="0" d="M318.728,32.955C316.388,31.005,313.950,29.347,311.220,27.983L310.342,29.738C312.878,31.103,315.217,32.662,317.460,34.515L318.728,32.955ZZ"/></g></g><g id="shape-471d1b56-7c24-80ba-8002-caf780a4070d"><g class="fills" id="fills-471d1b56-7c24-80ba-8002-caf780a4070d"><rect class="st0" rx="0" ry="0" x="331.9875000000002" y="156.97500000000036" transform="matrix(1.000000, 0.000000, 0.000000, 1.000000, 0.000000, 0.000000)" width="1.949999999999818" height="8.775000000000091"/></g></g><g id="shape-471d1b56-7c24-80ba-8002-caf780a4070e"><g class="fills" id="fills-471d1b56-7c24-80ba-8002-caf780a4070e"><rect class="st0" rx="0" ry="0" x="331.9875000000002" y="129.67500000000018" transform="matrix(1.000000, 0.000000, 0.000000, 1.000000, 0.000000, 0.000000)" width="1.949999999999818" height="8.775000000000091"/></g></g><g id="shape-471d1b56-7c24-80ba-8002-caf780a44a00"><g class="fills" id="fills-471d1b56-7c24-80ba-8002-caf780a44a00"><rect class="st0" rx="0" ry="0" x="331.9875000000002" y="116.02500000000055" transform="matrix(1.000000, 0.000000, 0.000000, 1.000000, 0.000000, 0.000000)" width="1.949999999999818" height="8.775000000000091"/></g></g><g id="shape-471d1b56-7c24-80ba-8002-caf780a44a01"><g class="fills" id="fills-471d1b56-7c24-80ba-8002-caf780a44a01"><rect class="st0" rx="0" ry="0" x="214.79250000000002" y="310.14750000000004" transform="matrix(1.000000, 0.000000, 0.000000, 1.000000, 0.000000, 0.000000)" width="8.775000000000091" height="1.949999999999818"/></g></g><g id="shape-471d1b56-7c24-80ba-8002-caf780a4a349"><g class="fills" id="fills-471d1b56-7c24-80ba-8002-caf780a4a349"><rect class="st0" rx="0" ry="0" x="202.4100000000003" y="23.205000000000382" transform="matrix(1.000000, 0.000000, 0.000000, 1.000000, 0.000000, 0.000000)" width="8.774999999999864" height="1.949999999999818"/></g></g><g id="shape-471d1b56-7c24-80ba-8002-caf780a4a34a"><g class="fills" id="fills-471d1b56-7c24-80ba-8002-caf780a4a34a"><rect class="st0" rx="0" ry="0" x="201.14250000000038" y="310.14750000000004" transform="matrix(1.000000, 0.000000, 0.000000, 1.000000, 0.000000, 0.000000)" width="8.774999999999864" height="1.949999999999818"/></g></g><g id="shape-471d1b56-7c24-80ba-8002-caf780a4eb72"><g class="fills" id="fills-471d1b56-7c24-80ba-8002-caf780a4eb72"><rect class="st0" rx="0" ry="0" x="228.4425000000001" y="310.14750000000004" transform="matrix(1.000000, 0.000000, 0.000000, 1.000000, 0.000000, 0.000000)" width="8.774999999999864" height="1.949999999999818"/></g></g><g id="shape-471d1b56-7c24-80ba-8002-caf780a4eb73"><g class="fills" id="fills-471d1b56-7c24-80ba-8002-caf780a4eb73"><rect class="st0" rx="0" ry="0" x="229.71000000000004" y="23.205000000000382" transform="matrix(1.000000, 0.000000, 0.000000, 1.000000, 0.000000, 0.000000)" width="8.775000000000091" height="1.949999999999818"/></g></g><g id="shape-471d1b56-7c24-80ba-8002-caf780a53a68"><g class="fills" id="fills-471d1b56-7c24-80ba-8002-caf780a53a68"><rect class="st0" rx="0" ry="0" x="216.05999999999995" y="23.205000000000382" transform="matrix(1.000000, 0.000000, 0.000000, 1.000000, 0.000000, 0.000000)" width="8.775000000000091" height="1.949999999999818"/></g></g><g id="shape-471d1b56-7c24-80ba-8002-caf780a53a69"><g class="fills" id="fills-471d1b56-7c24-80ba-8002-caf780a53a69"><rect class="st0" rx="0" ry="0" x="173.84249999999997" y="310.14750000000004" transform="matrix(1.000000, 0.000000, 0.000000, 1.000000, 0.000000, 0.000000)" width="8.775000000000091" height="1.949999999999818"/></g></g><g id="shape-471d1b56-7c24-80ba-8002-caf780a561b7"><g class="fills" id="fills-471d1b56-7c24-80ba-8002-caf780a561b7"><rect class="st0" rx="0" ry="0" x="188.76" y="23.205000000000382" transform="matrix(1.000000, 0.000000, 0.000000, 1.000000, 0.000000, 0.000000)" width="8.775000000000091" height="1.949999999999818"/></g></g><g id="shape-471d1b56-7c24-80ba-8002-caf780a561b8"><g class="fills" id="fills-471d1b56-7c24-80ba-8002-caf780a561b8"><rect class="st0" rx="0" ry="0" x="175.11000000000013" y="23.205000000000382" transform="matrix(1.000000, 0.000000, 0.000000, 1.000000, 0.000000, 0.000000)" width="8.774999999999864" height="1.949999999999818"/></g></g><g id="shape-471d1b56-7c24-80ba-8002-caf780a5b902"><g class="fills" id="fills-471d1b56-7c24-80ba-8002-caf780a5b902"><rect class="st0" rx="0" ry="0" x="187.49250000000006" y="310.14750000000004" transform="matrix(1.000000, 0.000000, 0.000000, 1.000000, 0.000000, 0.000000)" width="8.775000000000091" height="1.949999999999818"/></g></g><g id="shape-471d1b56-7c24-80ba-8002-caf780a5c3e4"><g class="fills" id="fills-471d1b56-7c24-80ba-8002-caf780a5c3e4"><path class="st0" rx="0" ry="0" d="M296.790,309.855L296.985,311.805C299.910,311.415,302.933,310.733,305.760,309.757L305.078,307.905C302.445,308.880,299.618,309.465,296.790,309.855ZZ"/></g></g><g id="shape-471d1b56-7c24-80ba-8002-caf780a5c3e5"><g class="fills" id="fills-471d1b56-7c24-80ba-8002-caf780a5c3e5"><rect class="st0" rx="0" ry="0" x="242.09249999999997" y="310.14750000000004" transform="matrix(1.000000, 0.000000, 0.000000, 1.000000, 0.000000, 0.000000)" width="8.775000000000091" height="1.949999999999818"/></g></g><g id="shape-471d1b56-7c24-80ba-8002-caf780a60a9d"><g class="fills" id="fills-471d1b56-7c24-80ba-8002-caf780a60a9d"><path class="st0" rx="0" ry="0" d="M309.465,306.053L310.342,307.807C313.072,306.540,315.607,304.882,317.947,303.030L316.778,301.470C314.438,303.323,312.000,304.785,309.465,306.053ZZ"/></g></g><g id="shape-471d1b56-7c24-80ba-8002-caf780a653b4"><g class="fills" id="fills-471d1b56-7c24-80ba-8002-caf780a653b4"><path class="st0" rx="0" ry="0" d="M293.085,25.155L293.183,23.205C292.793,23.205,292.403,23.205,291.915,23.205L284.310,23.205L284.310,25.155L291.915,25.155C292.305,25.155,292.695,25.155,293.085,25.155ZZ"/></g></g><g id="shape-471d1b56-7c24-80ba-8002-caf780a6883c"><g class="fills" id="fills-471d1b56-7c24-80ba-8002-caf780a6883c"><path class="st0" rx="0" ry="0" d="M306.735,25.935C303.908,24.863,300.983,24.082,298.058,23.693L297.765,25.643C300.592,26.032,303.420,26.813,306.053,27.787L306.735,25.935ZZ"/></g></g><g id="shape-471d1b56-7c24-80ba-8002-caf780a6883d"><g class="fills" id="fills-471d1b56-7c24-80ba-8002-caf780a6883d"><rect class="st0" rx="0" ry="0" x="283.0425" y="310.14750000000004" transform="matrix(1.000000, 0.000000, 0.000000, 1.000000, 0.000000, 0.000000)" width="8.970000000000027" height="1.949999999999818"/></g></g><g id="shape-471d1b56-7c24-80ba-8002-caf780a6c2b7"><g class="fills" id="fills-471d1b56-7c24-80ba-8002-caf780a6c2b7"><rect class="st0" rx="0" ry="0" x="257.01" y="23.205000000000382" transform="matrix(1.000000, 0.000000, 0.000000, 1.000000, 0.000000, 0.000000)" width="8.775000000000091" height="1.949999999999818"/></g></g><g id="shape-471d1b56-7c24-80ba-8002-caf780a6c2b8"><g class="fills" id="fills-471d1b56-7c24-80ba-8002-caf780a6c2b8"><rect class="st0" rx="0" ry="0" x="270.6600000000003" y="23.205000000000382" transform="matrix(1.000000, 0.000000, 0.000000, 1.000000, 0.000000, 0.000000)" width="8.774999999999864" height="1.949999999999818"/></g></g><g id="shape-471d1b56-7c24-80ba-8002-caf780a72fd5"><g class="fills" id="fills-471d1b56-7c24-80ba-8002-caf780a72fd5"><rect class="st0" rx="0" ry="0" x="243.36000000000013" y="23.205000000000382" transform="matrix(1.000000, 0.000000, 0.000000, 1.000000, 0.000000, 0.000000)" width="8.774999999999864" height="1.949999999999818"/></g></g><g id="shape-471d1b56-7c24-80ba-8002-caf780a72fd6"><g class="fills" id="fills-471d1b56-7c24-80ba-8002-caf780a72fd6"><rect class="st0" rx="0" ry="0" x="269.3925000000004" y="310.14750000000004" transform="matrix(1.000000, 0.000000, 0.000000, 1.000000, 0.000000, 0.000000)" width="8.774999999999864" height="1.949999999999818"/></g></g><g id="shape-471d1b56-7c24-80ba-8002-caf780a9a240"><g class="fills" id="fills-471d1b56-7c24-80ba-8002-caf780a9a240"><path class="st0" rx="0" ry="0" d="M128.213,100.620C128.213,103.057,130.163,105.008,132.600,105.008L138.158,105.008L138.158,271.635L113.197,271.635L113.197,226.005L123.923,226.005C125.775,226.005,127.335,224.445,127.335,222.593L127.335,215.865C127.335,214.013,125.775,212.453,123.923,212.453L95.550,212.453L95.550,195.975L106.178,192.270L100.425,183.983L53.430,200.363L59.183,208.650L65.910,206.310L65.910,212.453L33.735,212.453C31.883,212.453,30.322,214.013,30.322,215.865L30.322,222.593C30.322,224.445,31.883,226.005,33.735,226.005L41.633,226.005L41.633,273.097L44.558,273.097L44.558,226.005L110.273,226.005L110.273,274.560L139.620,274.560C140.400,274.560,141.083,273.878,141.083,273.097L141.083,105.008L203.288,105.008L203.288,272.220C203.288,273.000,203.970,273.682,204.750,273.682C204.750,273.682,204.750,273.682,204.750,273.682L204.750,273.682L303.518,273.488L303.518,270.563L273.585,270.660L273.585,259.057L294.158,259.057C294.645,259.057,295.035,258.863,295.328,258.472C295.620,258.082,295.717,257.595,295.620,257.205L287.820,229.028C287.625,228.443,287.040,227.955,286.455,227.955L243.653,227.955C242.970,227.955,242.385,228.443,242.190,229.028L235.073,257.205C234.975,257.595,235.073,258.082,235.365,258.472C235.658,258.863,236.048,259.057,236.535,259.057L258.278,259.057L258.278,270.757L206.213,270.855L206.213,105.105L210.210,105.105C212.648,105.105,214.598,103.155,214.598,100.718L214.598,96.135C214.598,93.698,212.648,91.747,210.210,91.747L178.328,91.747L178.328,77.513L196.268,77.513C196.658,77.513,197.048,77.318,197.243,77.025C197.535,76.733,197.535,76.343,197.438,75.953L190.223,49.043C190.028,48.457,189.540,48.068,188.955,48.068L155.415,48.068C154.830,48.068,154.342,48.457,154.148,49.043L146.933,75.953C146.835,76.343,146.933,76.733,147.128,77.025C147.322,77.318,147.713,77.513,148.103,77.513L166.043,77.513L166.043,91.650L132.600,91.650C130.163,91.650,128.213,93.600,128.213,96.037L128.213,100.620ZZM58.013,201.923L99.255,187.590L101.497,190.807L60.255,205.140L58.013,201.923ZZM68.738,205.335L92.528,197.048L92.528,212.453L68.738,212.453L68.738,205.335ZZM33.247,222.593L33.247,215.865C33.247,215.573,33.443,215.378,33.735,215.378L123.923,215.378C124.215,215.378,124.410,215.573,124.410,215.865L124.410,222.593C124.410,222.885,124.215,223.080,123.923,223.080L33.735,223.080C33.540,223.080,33.247,222.885,33.247,222.593ZZM254.085,237.900L263.835,237.900L263.933,245.115L253.500,245.115L254.085,237.900ZZM250.478,245.115L241.118,245.115L242.970,237.900L251.160,237.900L250.478,245.115ZZM289.185,245.115L280.313,245.115L279.728,237.900L287.235,237.900L289.185,245.115ZZM277.388,245.115L266.858,245.115L266.760,237.900L276.803,237.900L277.388,245.115ZZM266.760,234.975L266.760,230.782L276.217,230.782L276.608,234.975L266.760,234.975ZZM263.835,234.975L254.378,234.975L254.768,230.782L263.835,230.782L263.835,234.975ZZM263.933,248.040L264.030,256.133L252.525,256.133L253.208,248.040L263.933,248.040ZZM266.955,256.035L266.858,247.943L277.583,247.943L278.265,256.035L266.955,256.035ZZM281.190,256.035L280.508,247.943L289.965,247.943L292.208,256.035L281.190,256.035ZZM286.455,234.975L279.533,234.975L279.143,230.782L285.285,230.782L286.455,234.975ZZM251.745,230.782L251.355,234.975L243.653,234.975L244.725,230.782L251.745,230.782ZZM240.435,248.040L250.283,248.040L249.600,256.133L238.485,256.133L240.435,248.040ZZM261.203,258.960L270.660,258.960L270.660,270.563L261.203,270.563L261.203,258.960ZZM165.750,74.978L166.335,68.543L178.328,68.543L178.913,74.978L165.750,74.978ZZM154.148,59.573L164.483,59.573L163.898,66.008L152.393,66.008L154.148,59.573ZZM167.115,59.573L177.548,59.573L178.133,66.008L166.628,66.008L167.115,59.573ZZM167.310,57.037L167.895,50.603L176.670,50.603L177.255,57.037L167.310,57.037ZZM192.173,66.008L180.668,66.008L180.083,59.573L190.418,59.573L192.173,66.008ZZM181.447,74.978L180.863,68.543L192.855,68.543L194.513,74.978L181.447,74.978ZZM189.833,57.037L179.888,57.037L179.303,50.603L188.078,50.603L189.833,57.037ZZM156.585,50.603L165.360,50.603L164.775,57.037L154.830,57.037L156.585,50.603ZZM151.710,68.543L163.703,68.543L163.118,74.978L150.053,74.978L151.710,68.543ZZM168.870,77.513L175.695,77.513L175.695,91.650L168.870,91.650L168.870,77.513ZZM131.138,96.037C131.138,95.258,131.820,94.575,132.600,94.575L210.210,94.575C210.990,94.575,211.673,95.258,211.673,96.037L211.673,100.620C211.673,101.400,210.990,102.082,210.210,102.082L206.213,102.082L138.158,102.082L132.600,102.082C131.820,102.082,131.138,101.400,131.138,100.620L131.138,96.037ZZ"/></g></g><g id="shape-471d1b56-7c24-80ba-8002-caf780a9ccd4"><g class="fills" id="fills-471d1b56-7c24-80ba-8002-caf780a9ccd4"><rect class="st0" rx="0" ry="0" x="157.26750000000038" y="160.0949999999998" transform="matrix(1.000000, 0.000000, 0.000000, 1.000000, 0.000000, 0.000000)" width="3.8999999999998636" height="17.647500000000036"/></g></g><g id="shape-471d1b56-7c24-80ba-8002-caf780aa1424"><g class="fills" id="fills-471d1b56-7c24-80ba-8002-caf780aa1424"><rect class="st0" rx="0" ry="0" x="157.26750000000038" y="198.99749999999995" transform="matrix(1.000000, 0.000000, 0.000000, 1.000000, 0.000000, 0.000000)" width="3.8999999999998636" height="17.647500000000036"/></g></g><g id="shape-471d1b56-7c24-80ba-8002-caf780aa1425"><g class="fills" id="fills-471d1b56-7c24-80ba-8002-caf780aa1425"><rect class="st0" rx="0" ry="0" x="183.10500000000002" y="160.0949999999998" transform="matrix(1.000000, 0.000000, 0.000000, 1.000000, 0.000000, 0.000000)" width="3.900000000000091" height="17.647500000000036"/></g></g><g id="shape-471d1b56-7c24-80ba-8002-caf780aa63fd"><g class="fills" id="fills-471d1b56-7c24-80ba-8002-caf780aa63fd"><rect class="st0" rx="0" ry="0" x="157.26750000000038" y="120.11999999999989" transform="matrix(1.000000, 0.000000, 0.000000, 1.000000, 0.000000, 0.000000)" width="3.8999999999998636" height="17.647500000000036"/></g></g><g id="shape-471d1b56-7c24-80ba-8002-caf780aaa031"><g class="fills" id="fills-471d1b56-7c24-80ba-8002-caf780aaa031"><rect class="st0" rx="0" ry="0" x="183.10500000000002" y="120.11999999999989" transform="matrix(1.000000, 0.000000, 0.000000, 1.000000, 0.000000, 0.000000)" width="3.900000000000091" height="17.647500000000036"/></g></g><g id="shape-471d1b56-7c24-80ba-8002-caf780abad0a"><g class="fills" id="fills-471d1b56-7c24-80ba-8002-caf780abad0a"><path class="st0" rx="0" ry="0" d="M97.208,245.115C97.988,244.140,99.548,242.970,102.083,243.165L102.278,240.240C99.548,240.045,97.500,240.923,96.038,242.093C94.770,237.023,90.773,233.707,85.313,233.707L69.225,233.707C64.058,233.707,59.963,237.120,58.500,242.093C57.038,240.923,54.990,240.045,52.358,240.240L52.553,243.165C55.088,242.970,56.648,244.140,57.428,245.115C51.675,247.845,49.238,251.745,49.335,257.888L49.335,263.640C49.335,264.518,49.822,265.980,50.895,266.955L50.895,269.003C50.895,270.953,52.553,272.610,54.503,272.610L59.475,272.610C61.425,272.610,63.083,270.953,63.083,269.003L63.083,265.980L63.863,265.493L90.675,265.493L91.455,265.882L91.455,268.905C91.455,270.855,93.113,272.513,95.063,272.513L100.035,272.513C101.985,272.513,103.643,270.855,103.643,268.905L103.643,266.955C104.813,265.980,105.203,264.518,105.300,263.543L105.300,257.985C105.398,251.745,102.960,247.845,97.208,245.115ZZM60.255,268.905C60.255,269.295,59.963,269.588,59.572,269.588L54.600,269.588C54.210,269.588,53.918,269.295,53.918,268.905L53.918,267.930L59.572,267.930L60.255,267.540L60.255,268.905ZZM63.180,262.470L58.793,265.005L53.625,265.005C52.553,264.713,52.358,263.640,52.358,263.347L52.358,257.790C52.260,252.330,54.308,249.503,59.865,247.260L75.563,247.260L75.563,244.335L61.035,244.335C61.620,239.850,64.838,236.633,69.225,236.633L85.313,236.633C90.773,236.633,93.015,240.338,93.503,244.335L86.580,244.335L86.580,247.260L93.697,247.260L94.868,247.260C100.425,249.503,102.473,252.428,102.375,257.888L102.375,263.445C102.375,263.543,102.278,264.810,101.108,265.103L95.940,265.103L91.553,262.568L63.180,262.470ZZM100.035,269.588L95.063,269.588C94.673,269.588,94.380,269.295,94.380,268.905L94.380,267.540L95.063,267.930L100.717,267.930L100.717,268.807C100.717,269.295,100.425,269.588,100.035,269.588ZZ"/></g></g><g id="shape-471d1b56-7c24-80ba-8002-caf780abff8c"><g class="fills" id="fills-471d1b56-7c24-80ba-8002-caf780abff8c"><path class="st0" rx="0" ry="0" d="M60.743,252.622C59.865,252.525,57.525,252.622,57.330,252.622C55.575,252.622,54.113,254.085,54.113,255.840L54.113,257.497C54.113,259.253,55.575,260.715,57.330,260.715L64.447,260.715L64.545,259.350C64.838,255.450,63.375,252.915,60.743,252.622ZZM57.330,257.693C57.233,257.693,57.038,257.595,57.038,257.400L57.038,255.743C57.038,255.645,57.135,255.450,57.330,255.450C57.818,255.450,58.598,255.450,59.280,255.450C59.670,255.450,60.060,255.450,60.353,255.450C61.133,255.548,61.425,256.620,61.523,257.595L57.330,257.693ZZ"/></g></g><g id="shape-471d1b56-7c24-80ba-8002-caf780ac6f54"><g class="fills" id="fills-471d1b56-7c24-80ba-8002-caf780ac6f54"><path class="st0" rx="0" ry="0" d="M100.815,257.400L100.815,255.743C100.815,253.988,99.353,252.525,97.695,252.525C97.695,252.525,97.695,252.525,97.695,252.525C97.403,252.525,95.160,252.428,94.283,252.525C91.650,252.818,90.188,255.353,90.480,259.155L90.578,260.520L97.695,260.520C99.450,260.618,100.815,259.155,100.815,257.400ZZM94.575,255.450C95.063,255.353,96.720,255.450,97.598,255.450C97.695,255.450,97.890,255.548,97.890,255.743L97.890,257.400C97.890,257.497,97.793,257.693,97.598,257.693L93.308,257.693C93.503,256.620,93.795,255.548,94.575,255.450ZZ"/></g></g><g id="shape-471d1b56-7c24-80ba-8002-caf780acaa58"><g class="fills" id="fills-471d1b56-7c24-80ba-8002-caf780acaa58"><rect class="st0" rx="0" ry="0" x="71.0775000000001" y="254.86500000000024" transform="matrix(1.000000, 0.000000, 0.000000, 1.000000, 0.000000, 0.000000)" width="12.675000000000182" height="2.925000000000182"/></g></g><g id="shape-471d1b56-7c24-80ba-8002-caf780acaa59"><g class="fills" id="fills-471d1b56-7c24-80ba-8002-caf780acaa59"><rect class="st0" rx="0" ry="0" x="284.01750000000015" y="279.6300000000001" transform="matrix(1.000000, 0.000000, 0.000000, 1.000000, 0.000000, 0.000000)" width="30.517499999999927" height="2.925000000000182"/></g></g><g id="shape-471d1b56-7c24-80ba-8002-caf780acfe2d"><g class="fills" id="fills-471d1b56-7c24-80ba-8002-caf780acfe2d"><path class="st0" rx="0" ry="0" d="M113.295,147.225L112.223,144.495C96.622,150.832,83.558,161.557,74.393,175.793L76.830,177.353C85.605,163.703,98.280,153.270,113.295,147.225ZZ"/></g></g><g id="shape-471d1b56-7c24-80ba-8002-caf780ad1edd"><g class="fills" id="fills-471d1b56-7c24-80ba-8002-caf780ad1edd"><path class="st0" rx="0" ry="0" d="M262.860,177.450L265.298,175.890C256.133,161.753,243.068,150.930,227.467,144.593L226.395,147.323C241.410,153.368,253.988,163.800,262.860,177.450ZZ"/></g></g></g></g></svg>