<svg xmlns="http://www.w3.org/2000/svg" width="41" height="41" fill="none" style="-webkit-print-color-adjust:exact" viewBox="-14.63 0 41 41"><g style="fill:#000"><g class="fills"><path d="M30.23 40.46h-20A10.23 10.23 0 0 1 0 30.23v-20C0 4.58 4.58 0 10.23 0h20c5.65 0 10.23 4.58 10.23 10.23v20c0 5.65-4.58 10.23-10.23 10.23z" class="cls-1" style="fill:#2ab20b;fill-opacity:1" transform="translate(-14.63)"/></g><path d="M31.28 13.55c-.7.3-1.44.51-2.2.63.35-.06.87-.7 1.08-1 .33-.4.58-.84.73-1.33v-.11a.13.13 0 0 0-.12 0c-.83.44-1.7.78-2.61 1a.17.17 0 0 1-.18 0 4.57 4.57 0 0 0-1.49-1.01 4.58 4.58 0 0 0-3.78.21 4.58 4.58 0 0 0-2.42 4.86c0 .11 0 .12-.09.11a14 14 0 0 1-9-4.57c-.11-.12-.16-.12-.25 0a4.55 4.55 0 0 0 1.33 5.86 4.6 4.6 0 0 1-1.73-.49c-.11-.06-.16 0-.17.1a3.1 3.1 0 0 0 0 .51 4.6 4.6 0 0 0 3.41 3.84c-.56.11-1.13.13-1.7.05-.12 0-.17 0-.12.16a4.77 4.77 0 0 0 3.56 3c.17 0 .33 0 .49.06a5.6 5.6 0 0 1-2.44 1.29 8.74 8.74 0 0 1-3.69.48h-.3c-.05 0 0 .08.06.13.25.17.51.31.77.46a13.21 13.21 0 0 0 15.26-2c2.62-2.61 3.54-6.2 3.54-9.79 0-.15.17-.22.26-.3a8.37 8.37 0 0 0 1.75-1.81c.07-.1.11-.22.05-.34zm0 0zm0 0c.06-.06.06 0 0 0z" class="fills" style="fill:#fff;fill-opacity:1" transform="translate(-14.63)"/></g></svg>