<svg xmlns="http://www.w3.org/2000/svg" width="41" height="41" fill="none" style="-webkit-print-color-adjust:exact"><g style="fill:#000"><g class="fills"><path d="M30.23 40.47h-20A10.24 10.24 0 0 1 0 30.23v-20A10.23 10.23 0 0 1 10.23 0h20a10.23 10.23 0 0 1 10.23 10.23v20c0 5.65-4.58 10.23-10.23 10.24z" class="cls-1" style="fill:#2ab20b;fill-opacity:1"/></g><g class="fills"><path d="M34.65 16.87A14.23 14.23 0 1 0 8.28 26.9c.14.2.18.46.13.7-.67 2.17-1.28 4.42-1.87 6.62-.1.39-.1.39.27.28 2.31-.62 4.6-1.21 6.9-1.78a.6.6 0 0 1 .51 0 14.25 14.25 0 0 0 20.43-15.85zm0 0zm-11.89 14.9c-.54.13-1.09.18-1.64.14a12.3 12.3 0 0 1-6.43-1.63.72.72 0 0 0-.72-.12c-1.29.31-2.55.65-3.82 1-.27.09-.29 0-.23-.23.33-1.18.65-2.38 1-3.6.1-.29.04-.6-.15-.84a11.77 11.77 0 0 1 .42-13.27 11.8 11.8 0 0 1 21.1 4.35c.73 3.16.13 6.49-1.68 9.19a11.55 11.55 0 0 1-7.85 5.01zm0 0z" class="cls-2" style="fill:#fff;fill-opacity:1"/></g><g class="fills"><path d="M24.48 26.94c-.5.04-1-.04-1.47-.21a14.4 14.4 0 0 1-7.71-5.65 8.12 8.12 0 0 1-1.66-3.35 3.88 3.88 0 0 1 1.29-3.81 2.29 2.29 0 0 1 1.9-.3c.12.12.23.25.31.4.41 1 .84 1.94 1.25 2.91.06.2.04.42-.06.6a5.3 5.3 0 0 1-.88 1.17.54.54 0 0 0-.08.79 9.5 9.5 0 0 0 4.86 4.17c.25.14.57.07.73-.17.37-.41.73-.87 1.07-1.32a.61.61 0 0 1 .79-.21 78.33 78.33 0 0 1 2.53 1.22c.7.35.7.41.62 1.16-.09 1.48-1.23 2.24-2.54 2.61-.31.06-.64.06-.95-.01z" class="cls-2" style="fill:#fff;fill-opacity:1"/></g></g></svg>